<svg xmlns="http://www.w3.org/2000/svg" width="251.899" height="263.269" viewBox="0 0 251.899 263.269">
  <g id="Grupo_160034" data-name="Grupo 160034" transform="translate(-943.551 -4687.898)">
    <g id="Grupo_80321" data-name="Grupo 80321" transform="translate(107.19 4157.483)">
      <path id="Trazado_115208" data-name="Trazado 115208" d="M1046.785,597.359a106.859,106.859,0,0,1,19.064,45c6.754,40.278-12.3,75.136-44.563,87.759-14.318,28.59-45.147,44.616-80.217,38.027-47.479-8.918-84.757-55.9-83.263-104.938a122.788,122.788,0,0,1,15.36-54.848,102.91,102.91,0,0,1,34.941-36.847c16.677-10.5,36.174-16.154,57.948-16.8,31.245-.941,61.557,16.268,80.733,42.653Zm-17.137,100.347c.043-.746.068-1.481.092-2.2C1029.716,696.241,1029.688,696.974,1029.648,697.706Z" fill="#64b5f6"/>
      <g id="Sparkles">
        <path id="Trazado_115414" data-name="Trazado 115414" d="M940.943,733.7l1.034-.086a.211.211,0,0,0,.2-.226v-.009a.2.2,0,0,0-.131-.18l-.958-.4a1.121,1.121,0,0,1-.682-.938l-.086-1.035a.214.214,0,0,0-.228-.2h-.007a.206.206,0,0,0-.18.131l-.4.958a1.12,1.12,0,0,1-.939.682l-1.034.086a.215.215,0,0,0-.2.229v.006a.212.212,0,0,0,.131.18l.958.4a1.121,1.121,0,0,1,.682.939l.086,1.034a.213.213,0,0,0,.228.2h.006a.2.2,0,0,0,.18-.131l.4-.958A1.122,1.122,0,0,1,940.943,733.7Z" fill="#3d3d3d"/>
        <path id="Trazado_115415" data-name="Trazado 115415" d="M1046.782,574.494l1.386-.117a.289.289,0,0,0,.267-.309h0a.3.3,0,0,0-.18-.245l-1.282-.538a1.5,1.5,0,0,1-.915-1.263l-.116-1.386a.292.292,0,0,0-.315-.267h0a.291.291,0,0,0-.245.178l-.539,1.282a1.5,1.5,0,0,1-1.26.915l-1.387.119a.289.289,0,0,0-.266.31h0a.292.292,0,0,0,.178.245l1.283.539a1.5,1.5,0,0,1,.915,1.259l.117,1.387a.292.292,0,0,0,.315.267h0a.3.3,0,0,0,.246-.178l.539-1.282A1.5,1.5,0,0,1,1046.782,574.494Z" fill="#3d3d3d"/>
        <path id="Trazado_115416" data-name="Trazado 115416" d="M961.758,663.353l.772-.064a.164.164,0,0,0,.142-.182h0a.168.168,0,0,0-.093-.128l-.714-.3a.837.837,0,0,1-.509-.7l-.063-.771a.165.165,0,0,0-.184-.142h0a.161.161,0,0,0-.125.092l-.3.713a.838.838,0,0,1-.7.509l-.776.064a.164.164,0,0,0-.049.311l.714.3a.839.839,0,0,1,.509.7l.063.775a.164.164,0,0,0,.184.142.167.167,0,0,0,.127-.092l.3-.715A.839.839,0,0,1,961.758,663.353Z" fill="#3d3d3d"/>
        <path id="Trazado_115417" data-name="Trazado 115417" d="M1008.024,576.935l.826-.069a.172.172,0,0,0,.158-.185h0a.173.173,0,0,0-.1-.145l-.764-.321a.89.89,0,0,1-.542-.745l-.068-.825a.172.172,0,0,0-.186-.157h0a.186.186,0,0,0-.145.1l-.32.763a.89.89,0,0,1-.745.541l-.824.07a.173.173,0,0,0-.159.185h0a.173.173,0,0,0,.105.145l.764.32a.89.89,0,0,1,.541.745l.07.826a.171.171,0,0,0,.185.158h0a.182.182,0,0,0,.144-.1l.32-.764A.89.89,0,0,1,1008.024,576.935Z" fill="#3d3d3d"/>
        <path id="Trazado_115418" data-name="Trazado 115418" d="M1026.181,763.377l1.278-.107a.266.266,0,0,0,.243-.289h0a.267.267,0,0,0-.162-.223l-1.182-.5a1.378,1.378,0,0,1-.843-1.161l-.108-1.278a.268.268,0,0,0-.513-.082l-.5,1.183a1.385,1.385,0,0,1-1.161.843l-1.278.107a.267.267,0,0,0-.244.29h0a.268.268,0,0,0,.162.224l1.182.5a1.377,1.377,0,0,1,.843,1.159l.108,1.279a.268.268,0,0,0,.514.081l.5-1.183A1.381,1.381,0,0,1,1026.181,763.377Z" fill="#3d3d3d"/>
      </g>
      <rect id="Rectángulo_33823" data-name="Rectángulo 33823" width="231.975" height="218.298" transform="translate(836.36 759.534) rotate(-81)" fill="none"/>
    </g>
    <g id="diploma" transform="translate(1019.5 4723.857)">
      <path id="Trazado_134138" data-name="Trazado 134138" d="M110.67,49.66V169.21L84.91,154.32V64.53L27.25,31.24V1.5Z" fill="#fef536"/>
      <path id="Trazado_134139" data-name="Trazado 134139" d="M494.47,1303.44l6.85,4-3.42-9.93Zm68.76,100.82V1434l-19.79-11.44a13.43,13.43,0,0,0,2.26-8.13c0-10.12-7.1-22.43-15.87-27.49s-15.87-1-15.87,9.16a29.371,29.371,0,0,0,2.26,10.75l-36.39-21V1266.31l83.4,48.16Z" transform="translate(-478.33 -1249.94)" fill="#fff"/>
      <path id="Trazado_134140" data-name="Trazado 134140" d="M540,1425.23c-2.75,1.08-6.32.63-10.2-1.61a31.581,31.581,0,0,1-10.21-10.18,38.992,38.992,0,0,1-3.4-6.57,29.37,29.37,0,0,1-2.26-10.75c0-10.12,7.1-14.23,15.87-9.16s15.87,17.37,15.87,27.49a13.43,13.43,0,0,1-2.26,8.13A7.78,7.78,0,0,1,540,1425.23Zm-4-16.41a13.531,13.531,0,0,0-6.12-10.6c-3.38-2-6.12-.37-6.12,3.53a13.51,13.51,0,0,0,6.12,10.6C533.21,1414.3,536,1412.72,536,1408.82Z" transform="translate(-478.33 -1249.94)" fill="#fff"/>
      <path id="Trazado_134141" data-name="Trazado 134141" d="M540,1425.23v27.54L529.71,1440l-10.09,1v-27.54a31.58,31.58,0,0,0,10.21,10.18C533.71,1425.86,537.28,1426.31,540,1425.23Z" transform="translate(-478.33 -1249.94)" fill="#ba68c8"/>
      <path id="Trazado_134142" data-name="Trazado 134142" d="M529.83,1398.22a13.53,13.53,0,0,1,6.12,10.6c0,3.9-2.74,5.48-6.12,3.53a13.51,13.51,0,0,1-6.12-10.6C523.71,1397.85,526.45,1396.27,529.83,1398.22Z" transform="translate(-478.33 -1249.94)" fill="#373a3a"/>
      <path id="Trazado_134143" data-name="Trazado 134143" d="M22.99,57.46,16.14,53.5l3.43-5.97Z" fill="#fff"/>
      <line id="Línea_407" data-name="Línea 407" x2="36.32" y2="20.97" transform="translate(31.39 56.2)" fill="none" stroke="#373a3a" stroke-linecap="round" stroke-linejoin="round" stroke-width="3"/>
      <line id="Línea_408" data-name="Línea 408" x2="21.1" y2="12.18" transform="translate(31.39 67.85)" fill="none" stroke="#373a3a" stroke-linecap="round" stroke-linejoin="round" stroke-width="3"/>
      <line id="Línea_409" data-name="Línea 409" x2="9.86" y2="5.7" transform="translate(57.85 83.12)" fill="none" stroke="#373a3a" stroke-linecap="round" stroke-linejoin="round" stroke-width="3"/>
      <line id="Línea_410" data-name="Línea 410" x2="51.81" y2="29.91" transform="translate(15.9 70.56)" fill="none" stroke="#373a3a" stroke-linecap="round" stroke-linejoin="round" stroke-width="3"/>
      <line id="Línea_411" data-name="Línea 411" x2="12.1" y2="7" transform="translate(15.9 82.2)" fill="none" stroke="#373a3a" stroke-linecap="round" stroke-linejoin="round" stroke-width="3"/>
      <line id="Línea_412" data-name="Línea 412" x2="33.09" y2="19.11" transform="translate(34.62 93.02)" fill="none" stroke="#373a3a" stroke-linecap="round" stroke-linejoin="round" stroke-width="3"/>
      <line id="Línea_413" data-name="Línea 413" x2="51.81" y2="29.92" transform="translate(15.9 93.86)" fill="none" stroke="#373a3a" stroke-linecap="round" stroke-linejoin="round" stroke-width="3"/>
      <line id="Línea_414" data-name="Línea 414" x2="25.87" y2="14.94" transform="translate(15.9 105.51)" fill="none" stroke="#373a3a" stroke-linecap="round" stroke-linejoin="round" stroke-width="3"/>
      <line id="Línea_415" data-name="Línea 415" x2="18.97" y2="10.95" transform="translate(48.74 124.48)" fill="none" stroke="#373a3a" stroke-linecap="round" stroke-linejoin="round" stroke-width="3"/>
      <line id="Línea_416" data-name="Línea 416" x2="16.18" y2="9.33" transform="translate(15.9 117.17)" fill="none" stroke="#373a3a" stroke-linecap="round" stroke-linejoin="round" stroke-width="3"/>
      <line id="Línea_417" data-name="Línea 417" x2="2.01" y2="5.81" transform="translate(23 57.46)" fill="none" stroke="#373a3a" stroke-linecap="round" stroke-linejoin="round" stroke-width="3"/>
      <path id="Trazado_134144" data-name="Trazado 134144" d="M14.13,57l5.44-9.47,3.42,9.93" fill="none" stroke="#373a3a" stroke-linecap="round" stroke-linejoin="round" stroke-width="3"/>
      <path id="Trazado_134145" data-name="Trazado 134145" d="M16.14,53.5l6.85,3.96H23" fill="none" stroke="#373a3a" stroke-linecap="round" stroke-linejoin="round" stroke-width="3"/>
      <path id="Trazado_134146" data-name="Trazado 134146" d="M84.91,154.32l25.76,14.89V49.66L27.25,1.5V31.24" fill="none" stroke="#373a3a" stroke-linecap="round" stroke-linejoin="round" stroke-width="3"/>
      <path id="Trazado_134147" data-name="Trazado 134147" d="M65.11,172.64l19.8,11.44V64.53L1.5,16.37V135.92l36.39,21.01" fill="none" stroke="#373a3a" stroke-linecap="round" stroke-linejoin="round" stroke-width="3"/>
      <path id="Trazado_134148" data-name="Trazado 134148" d="M516.22,1406.87a29.13,29.13,0,0,1-2.26-10.75c0-10.12,7.1-14.23,15.87-9.16s15.87,17.37,15.87,27.49a13.43,13.43,0,0,1-2.26,8.13,7.779,7.779,0,0,1-3.41,2.65c-2.75,1.09-6.32.63-10.2-1.61a31.479,31.479,0,0,1-10.21-10.18,39,39,0,0,1-3.4-6.57Z" transform="translate(-478.33 -1249.94)" fill="none" stroke="#373a3a" stroke-linecap="round" stroke-linejoin="round" stroke-width="3"/>
      <path id="Trazado_134149" data-name="Trazado 134149" d="M536,1408.82c0,3.9-2.74,5.48-6.12,3.53a13.51,13.51,0,0,1-6.12-10.6c0-3.9,2.74-5.48,6.12-3.53A13.531,13.531,0,0,1,536,1408.82Z" transform="translate(-478.33 -1249.94)" fill="none" stroke="#373a3a" stroke-linecap="round" stroke-linejoin="round" stroke-width="3"/>
      <path id="Trazado_134150" data-name="Trazado 134150" d="M61.7,175.28v27.55l-10.32-12.8-10.09,1.01V163.5" fill="none" stroke="#373a3a" stroke-linecap="round" stroke-linejoin="round" stroke-width="3"/>
    </g>
  </g>
</svg>
