<svg xmlns="http://www.w3.org/2000/svg" width="756.532" height="660.032" viewBox="0 0 756.532 660.032">
  <g id="Grupo_160028" data-name="Grupo 160028" transform="translate(-422 -2378)">
    <g id="Grupo_139237" data-name="Grupo 139237" transform="translate(-1663.638 11088.501)">
      <text id="Estructura_de_los_informes" data-name="Estructura de los
informes" transform="translate(2304 -8667.501)" fill="#12263f" font-size="41" font-family="Roboto-Black, Roboto" font-weight="800"><tspan x="-156.483" y="0">Estructura de los</tspan><tspan x="-83.221" y="41">informes</tspan></text>
      <path id="Trazado_122488" data-name="Trazado 122488" d="M-3846.7,1712.768l3.158-.776a.678.678,0,0,0,.5-.821.679.679,0,0,0-.5-.5l-3.158-.775a3.5,3.5,0,0,1-2.569-2.568l-.774-3.157a.681.681,0,0,0-.823-.5.682.682,0,0,0-.5.5l-.773,3.157a3.5,3.5,0,0,1-2.568,2.568l-3.159.775a.681.681,0,0,0-.5.823.68.68,0,0,0,.5.5l3.159.776a3.5,3.5,0,0,1,2.568,2.567l.773,3.158a.68.68,0,0,0,.823.5.681.681,0,0,0,.5-.5l.774-3.158A3.5,3.5,0,0,1-3846.7,1712.768Z" transform="translate(5983.316 -10390.516)" fill="#3a3a3a"/>
      <path id="Trazado_122490" data-name="Trazado 122490" d="M-3843.447,1715.306l4.037-.992a.867.867,0,0,0,.636-1.05.869.869,0,0,0-.636-.638l-4.037-.99a4.481,4.481,0,0,1-3.284-3.283l-.99-4.036a.87.87,0,0,0-1.052-.638.872.872,0,0,0-.636.638l-.989,4.036a4.48,4.48,0,0,1-3.283,3.283l-4.038.99a.87.87,0,0,0-.636,1.051.869.869,0,0,0,.636.636l4.038.992a4.479,4.479,0,0,1,3.283,3.282l.989,4.037a.869.869,0,0,0,1.051.636.869.869,0,0,0,.637-.636l.99-4.037A4.478,4.478,0,0,1-3843.447,1715.306Z" transform="translate(6326.089 -10392.653)" fill="#3a3a3a"/>
      <path id="Trazado_122499" data-name="Trazado 122499" d="M-3843.447,1715.306l4.037-.992a.867.867,0,0,0,.636-1.05.869.869,0,0,0-.636-.638l-4.037-.99a4.481,4.481,0,0,1-3.284-3.283l-.99-4.036a.87.87,0,0,0-1.052-.638.872.872,0,0,0-.636.638l-.989,4.036a4.48,4.48,0,0,1-3.283,3.283l-4.038.99a.87.87,0,0,0-.636,1.051.869.869,0,0,0,.636.636l4.038.992a4.479,4.479,0,0,1,3.283,3.282l.989,4.037a.869.869,0,0,0,1.051.636.869.869,0,0,0,.637-.636l.99-4.037A4.478,4.478,0,0,1-3843.447,1715.306Z" transform="translate(6031.316 -10349.154)" fill="#3a3a3a"/>
    </g>
    <g id="Grupo_159976" data-name="Grupo 159976" transform="translate(-1812.247 10820.965)">
      <g id="Grupo_80321" data-name="Grupo 80321" transform="translate(2374.93 -8403.629)">
        <g id="Trazado_115208" data-name="Trazado 115208" transform="translate(32.904 26.433)">
          <path id="Trazado_128595" data-name="Trazado 128595" d="M669.316,1071.4A271.985,271.985,0,0,1,560.8,1132.258c-100.016,28.381-193.551-10.07-234.525-88.16-76.35-28.21-125.548-101.722-118.694-192.3,9.255-122.627,117.686-230.111,242.168-240.08,22.38-1.794,81.122-3.089,143.079,23.491a261.929,261.929,0,0,1,103.021,78.078c31.238,39.253,51.01,86.994,58.774,141.9,11.139,78.79-23.9,160.307-85.284,216.219Zm-258.693-15.234c1.9-.1,3.765-.242,5.591-.381C414.34,1055.937,412.484,1056.072,410.623,1056.171Z" transform="translate(-206.943 -610.89)" fill="#64b5f6"/>
        </g>
        <g id="Sparkles" transform="translate(63.371 247.917)">
          <g id="Trazado_115414" data-name="Trazado 115414" transform="translate(52.365)">
            <path id="Trazado_128596" data-name="Trazado 128596" d="M255.269,736.4l.515,2.6a.54.54,0,0,0,.628.435h.021a.526.526,0,0,0,.42-.38l.752-2.536a2.858,2.858,0,0,1,2.183-1.988l2.6-.517a.545.545,0,0,0,.435-.634h0v-.017a.531.531,0,0,0-.382-.418l-2.538-.763A2.862,2.862,0,0,1,257.918,730l-.517-2.6a.541.541,0,0,0-.63-.435h-.019a.537.537,0,0,0-.418.382l-.754,2.536a2.859,2.859,0,0,1-2.183,1.988l-2.6.513a.543.543,0,0,0-.433.634h0v.015a.523.523,0,0,0,.382.42l2.538.764A2.862,2.862,0,0,1,255.269,736.4Z" transform="translate(-250.35 -726.955)" fill="#3d3d3d"/>
          </g>
          <g id="Trazado_115415" data-name="Trazado 115415" transform="translate(457.028 237.954)">
            <path id="Trazado_128597" data-name="Trazado 128597" d="M482.7,854.882l.683,3.475a.735.735,0,0,0,.857.584h0a.748.748,0,0,0,.573-.521l1-3.395a3.823,3.823,0,0,1,2.937-2.671l3.473-.681a.745.745,0,0,0,.069-1.446l-3.4-1.006a3.812,3.812,0,0,1-2.672-2.925l-.689-3.475a.738.738,0,0,0-.861-.588h0a.764.764,0,0,0-.573.519l-1,3.4a3.818,3.818,0,0,1-2.925,2.671l-3.475.685a.744.744,0,0,0-.069,1.445l3.395,1A3.816,3.816,0,0,1,482.7,854.882Z" transform="translate(-476.099 -842.219)" fill="#3d3d3d"/>
          </g>
          <g id="Trazado_115416" data-name="Trazado 115416" transform="translate(237.454 35.378)">
            <path id="Trazado_128598" data-name="Trazado 128598" d="M350.989,752.513l.382,1.933a.419.419,0,0,0,.5.309.415.415,0,0,0,.3-.271l.555-1.883a2.139,2.139,0,0,1,1.63-1.485l1.933-.382a.416.416,0,0,0,.305-.506h0a.418.418,0,0,0-.267-.294l-1.883-.557a2.125,2.125,0,0,1-1.483-1.628l-.382-1.935a.415.415,0,0,0-.5-.309h0a.422.422,0,0,0-.3.271l-.555,1.882a2.124,2.124,0,0,1-1.628,1.484l-1.935.382a.419.419,0,0,0-.305.506h0a.415.415,0,0,0,.267.294l1.891.557A2.132,2.132,0,0,1,350.989,752.513Z" transform="translate(-347.344 -745.495)" fill="#3d3d3d"/>
          </g>
          <g id="Trazado_115417" data-name="Trazado 115417" transform="translate(468.794 127.726)">
            <path id="Trazado_128599" data-name="Trazado 128599" d="M472.495,801.4l.406,2.069a.441.441,0,0,0,.513.351h0a.435.435,0,0,0,.336-.307l.6-2.027a2.264,2.264,0,0,1,1.733-1.578l2.069-.4a.444.444,0,0,0,.345-.519.47.47,0,0,0-.305-.338l-2.027-.6a2.272,2.272,0,0,1-1.576-1.733l-.406-2.069a.441.441,0,0,0-.517-.349h0a.437.437,0,0,0-.338.307l-.6,2.027A2.26,2.26,0,0,1,471,797.807l-2.07.407a.442.442,0,0,0-.347.517.459.459,0,0,0,.307.338l2.027.6A2.258,2.258,0,0,1,472.495,801.4Z" transform="translate(-468.575 -793.889)" fill="#3d3d3d"/>
          </g>
        </g>
        <g id="Rect치ngulo_33823" data-name="Rect치ngulo 33823">
          <rect id="Rect치ngulo_42309" data-name="Rect치ngulo 42309" width="555.703" height="590.521" transform="translate(0 555.095) rotate(-87.321)" fill="none"/>
        </g>
      </g>
      <g id="Grupo_139066" data-name="Grupo 139066" transform="translate(2234.247 -8311.137)">
        <g id="Grupo_139059" data-name="Grupo 139059">
          <g id="Grupo_139044" data-name="Grupo 139044" transform="translate(73.186 8.663)">
            <path id="Trazado_134761" data-name="Trazado 134761" d="M443.588,1012.086,155.962,861.524,486.568,650.992,774.194,801.554Z" transform="translate(-152.846 -649.189)" fill="#5b5b5b"/>
            <path id="Trazado_134762" data-name="Trazado 134762" d="M430.772,1002.35l320-203.783L490.138,662.142l-320,203.777Z" transform="translate(-139.967 -639.062)" fill="#afafaf"/>
            <path id="Trazado_134763" data-name="Trazado 134763" d="M445.148,1014.746,154.329,862.516,487.973,650.047l.8.424L778.8,802.273ZM160.563,862.253,445,1011.137l327.561-208.6L488.124,653.665Z" transform="translate(-154.329 -650.047)" fill="#140f0c"/>
          </g>
          <g id="Grupo_139045" data-name="Grupo 139045">
            <path id="Trazado_134764" data-name="Trazado 134764" d="M386.474,1004.955l-268.857-161.7,355.093-196.8L741.565,808.162Z" transform="translate(-114.487 -644.645)" fill="#5b5b5b"/>
            <path id="Trazado_134765" data-name="Trazado 134765" d="M378.651,995.638,717.315,807.95,464.893,656.116,126.226,843.8Z" transform="translate(-106.668 -635.871)" fill="#e8e8e8"/>
            <path id="Trazado_134766" data-name="Trazado 134766" d="M387.929,1007.613l-.775-.464L115.977,844.05,474.232,645.507l.775.471,271.177,163.1ZM122.242,844.162,388,1004.01,739.923,808.963,474.169,649.125Z" transform="translate(-115.977 -645.507)" fill="#140f0c"/>
          </g>
          <g id="Grupo_139058" data-name="Grupo 139058" transform="translate(29.504 5.549)">
            <g id="Grupo_139046" data-name="Grupo 139046">
              <path id="Trazado_134767" data-name="Trazado 134767" d="M407.613,1008.8,133.077,850.3l348.048-200.94,274.526,158.5Z" transform="translate(-129.949 -647.555)" fill="#5b5b5b"/>
              <path id="Trazado_134768" data-name="Trazado 134768" d="M142.949,846.669,398.646,994.3,727.863,804.224l-255.7-147.633Z" transform="translate(-120.983 -640.989)" fill="#fff"/>
              <path id="Trazado_134769" data-name="Trazado 134769" d="M409.1,1011.469l-.782-.456L131.438,851.158l2.347-1.349,348.83-201.394.782.447L760.275,808.717l-2.347,1.349ZM137.7,851.158l271.4,156.7,344.922-199.14-271.4-156.695Z" transform="translate(-131.438 -648.415)" fill="#140f0c"/>
            </g>
            <g id="Grupo_139049" data-name="Grupo 139049" transform="translate(254.84 59.226)">
              <g id="Grupo_139047" data-name="Grupo 139047">
                <path id="Trazado_134770" data-name="Trazado 134770" d="M351.979,736.245,432.1,717.576a58.545,58.545,0,0,0-19.037-16.6c-33.736-19.476-88.427-19.476-122.165,0s-33.729,51.057,0,70.533,88.429,19.476,122.165,0a69.841,69.841,0,0,0,10.209-7.107Z" transform="translate(-264.423 -673.17)" fill="#fef536"/>
                <path id="Trazado_134771" data-name="Trazado 134771" d="M352.924,782.237c-22.407,0-44.8-4.927-61.86-14.772-16.825-9.709-26.08-22.708-26.08-36.62s9.255-26.906,26.08-36.619c34.112-19.7,89.61-19.7,123.722,0a59.975,59.975,0,0,1,19.548,17.056l1.317,1.908-77.489,18.046,69.064,27.277-2,1.693a72.413,72.413,0,0,1-10.436,7.267C397.738,777.31,375.323,782.229,352.924,782.237Zm0-99.7c-21.84,0-43.67,4.8-60.3,14.4-15.81,9.127-24.513,21.182-24.513,33.913s8.7,24.777,24.513,33.914c33.259,19.187,87.351,19.187,120.6,0a71.291,71.291,0,0,0,7.921-5.293L347.692,730.46l82.687-19.274a58.99,58.99,0,0,0-17.151-14.262c-16.623-9.591-38.471-14.39-60.3-14.39Z" transform="translate(-264.984 -679.452)" fill="#140f0c"/>
              </g>
              <g id="Grupo_139048" data-name="Grupo 139048" transform="translate(110.309 32.628)">
                <path id="Trazado_134772" data-name="Trazado 134772" d="M325.333,722.254l71.291,28.156c16.514-13.911,19.476-31.574,8.832-46.817Z" transform="translate(-320.48 -690.153)" fill="#fef536"/>
                <path id="Trazado_134773" data-name="Trazado 134773" d="M399.615,746.928,322.79,716.587l86.032-20.037.607.87c11.179,16.018,7.7,34.759-9.1,48.909Zm-66.35-29.561,65.751,25.968c14.772-12.856,17.9-28.9,8.44-43.257Z" transform="translate(-322.79 -696.55)" fill="#140f0c"/>
              </g>
            </g>
            <g id="Grupo_139050" data-name="Grupo 139050" transform="translate(179.245 123.414)">
              <path id="Trazado_134774" data-name="Trazado 134774" d="M428.748,851.807,228.583,736.247c-3.841-2.219-3.362-6.093,1.078-8.656l9.423-5.438c4.44-2.563,11.148-2.843,14.98-.622L454.236,837.1c3.839,2.212,3.355,6.085-1.078,8.648l-9.431,5.438C439.3,853.748,432.589,854.028,428.748,851.807Z" transform="translate(-224.806 -706.783)" fill="#5c22c3"/>
              <path id="Trazado_134775" data-name="Trazado 134775" d="M436.218,849.5a14.806,14.806,0,0,1-7.307-1.717L228.747,732.219a5.948,5.948,0,0,1-3.378-5.1,7.67,7.67,0,0,1,4.448-6.252l9.431-5.446c4.942-2.851,12.213-3.122,16.547-.615L455.971,830.367a5.968,5.968,0,0,1,3.37,5.11,7.679,7.679,0,0,1-4.448,6.254l-9.431,5.438A18.849,18.849,0,0,1,436.218,849.5ZM248.526,716.224a15.954,15.954,0,0,0-7.713,1.908l-9.431,5.446c-1.805,1.046-2.883,2.372-2.883,3.546a3.069,3.069,0,0,0,1.805,2.395L430.48,845.089c3.345,1.923,9.478,1.645,13.415-.622l9.431-5.446c1.8-1.038,2.882-2.364,2.882-3.538a3.087,3.087,0,0,0-1.8-2.4L254.228,717.516A11.65,11.65,0,0,0,248.526,716.224Z" transform="translate(-225.369 -713.089)" fill="#140f0c"/>
            </g>
            <g id="Grupo_139051" data-name="Grupo 139051" transform="translate(141.461 144.757)">
              <path id="Trazado_134776" data-name="Trazado 134776" d="M408.95,863,208.787,747.436c-3.841-2.219-3.362-6.093,1.071-8.656l9.431-5.439c4.431-2.563,11.139-2.843,14.98-.622l200.165,115.57c3.841,2.212,3.36,6.086-1.071,8.648l-9.431,5.439C419.5,864.939,412.791,865.216,408.95,863Z" transform="translate(-205.003 -717.962)" fill="#5c22c3"/>
              <path id="Trazado_134777" data-name="Trazado 134777" d="M416.415,860.691a14.776,14.776,0,0,1-7.3-1.717h0L208.939,743.4a5.956,5.956,0,0,1-3.37-5.11,7.675,7.675,0,0,1,4.448-6.244l9.431-5.446c4.942-2.851,12.213-3.122,16.545-.615L436.157,841.551a5.961,5.961,0,0,1,3.378,5.11,7.672,7.672,0,0,1-4.456,6.253l-9.423,5.439A18.868,18.868,0,0,1,416.415,860.691Zm-5.725-4.423c3.33,1.931,9.478,1.653,13.415-.615l9.423-5.438c1.813-1.046,2.891-2.372,2.891-3.546a3.07,3.07,0,0,0-1.813-2.395L234.433,728.7c-3.338-1.933-9.486-1.652-13.415.622l-9.431,5.439c-1.805,1.046-2.883,2.372-2.883,3.538a3.076,3.076,0,0,0,1.805,2.4l200.176,115.57Z" transform="translate(-205.569 -724.273)" fill="#140f0c"/>
            </g>
            <g id="Grupo_139052" data-name="Grupo 139052" transform="translate(103.882 166.232)">
              <path id="Trazado_134778" data-name="Trazado 134778" d="M389.263,874.251,189.086,758.681c-3.841-2.219-3.353-6.093,1.078-8.648l9.431-5.446c4.433-2.555,11.139-2.836,14.98-.624L414.744,859.535c3.84,2.219,3.36,6.093-1.078,8.648l-9.423,5.446C399.8,876.184,393.1,876.463,389.263,874.251Z" transform="translate(-185.313 -729.219)" fill="#5c22c3"/>
              <path id="Trazado_134779" data-name="Trazado 134779" d="M396.725,871.943a14.805,14.805,0,0,1-7.307-1.717L189.254,754.665a5.958,5.958,0,0,1-3.378-5.11,7.674,7.674,0,0,1,4.456-6.244l9.423-5.446c4.95-2.862,12.213-3.13,16.545-.622l200.176,115.57a5.954,5.954,0,0,1,3.37,5.1,7.661,7.661,0,0,1-4.448,6.252l-9.431,5.438A18.818,18.818,0,0,1,396.725,871.943ZM209.033,738.665a15.994,15.994,0,0,0-7.713,1.908l-9.423,5.446c-1.813,1.038-2.891,2.364-2.891,3.538a3.1,3.1,0,0,0,1.813,2.4L390.983,867.524c3.355,1.933,9.494,1.645,13.415-.622l9.431-5.439c1.805-1.046,2.891-2.372,2.883-3.538a3.05,3.05,0,0,0-1.805-2.4L214.731,739.951A11.741,11.741,0,0,0,209.033,738.665Z" transform="translate(-185.876 -735.527)" fill="#140f0c"/>
            </g>
            <g id="Grupo_139053" data-name="Grupo 139053" transform="translate(66.104 187.579)">
              <path id="Trazado_134780" data-name="Trazado 134780" d="M369.455,885.438,169.3,769.867c-3.841-2.219-3.362-6.093,1.078-8.648l9.417-5.44c4.441-2.555,11.148-2.836,14.98-.622l200.176,115.57c3.841,2.219,3.353,6.093-1.078,8.648l-9.431,5.446C380,887.37,373.289,887.649,369.455,885.438Z" transform="translate(-165.513 -740.401)" fill="#5c22c3"/>
              <path id="Trazado_134781" data-name="Trazado 134781" d="M376.928,883.134a14.8,14.8,0,0,1-7.307-1.717L169.457,765.854a5.959,5.959,0,0,1-3.378-5.111,7.683,7.683,0,0,1,4.448-6.253l9.431-5.439c4.935-2.862,12.213-3.13,16.546-.622L396.669,864a5.949,5.949,0,0,1,3.378,5.11,7.665,7.665,0,0,1-4.448,6.244l-9.431,5.446A18.922,18.922,0,0,1,376.928,883.134Zm-5.742-4.423c3.345,1.933,9.494,1.645,13.415-.622l9.431-5.439c1.805-1.046,2.882-2.372,2.882-3.538a3.067,3.067,0,0,0-1.813-2.4L194.938,751.138c-3.338-1.933-9.486-1.645-13.415.622l-9.431,5.439c-1.805,1.046-2.883,2.372-2.883,3.545a3.05,3.05,0,0,0,1.813,2.395Z" transform="translate(-166.079 -746.714)" fill="#140f0c"/>
            </g>
            <g id="Grupo_139054" data-name="Grupo 139054" transform="translate(290.368 178.07)">
              <path id="Trazado_134782" data-name="Trazado 134782" d="M356.6,836.9l-67.083-38.738c-7.547-4.36-6.6-11.97,2.116-17l59.7-34.463c8.711-5.03,21.9-5.581,29.441-1.221l67.091,38.738c7.545,4.36,6.6,11.969-2.116,17l-59.706,34.473C377.324,840.717,364.142,841.26,356.6,836.9Z" transform="translate(-282.854 -741)" fill="#e8e8e8"/>
              <path id="Trazado_134783" data-name="Trazado 134783" d="M356.036,846.34,288.953,807.6c-7.553-4.36-6.6-11.97,2.1-17l59.713-34.463c8.711-5.03,21.9-5.574,29.443-1.221l67.083,38.738c7.547,4.36,6.6,11.97-2.1,17l-59.715,34.471C376.766,850.149,363.582,850.7,356.036,846.34Z" transform="translate(-283.374 -732.423)" fill="#64b5f6"/>
              <path id="Trazado_134784" data-name="Trazado 134784" d="M370.128,842.112a27.6,27.6,0,0,1-13.566-3.122l-67.083-38.738a10.257,10.257,0,0,1-5.877-8.728c0-4.04,2.916-8.041,7.994-10.972l59.7-34.473c9.135-5.278,23.046-5.83,31.007-1.221l67.083,38.728c3.794,2.2,5.885,5.293,5.885,8.744,0,4.04-2.914,8.041-7.994,10.972L387.57,837.765A35.768,35.768,0,0,1,370.128,842.112Zm-12-5.83c7.106,4.1,19.611,3.553,27.885-1.221l59.7-34.463c4.08-2.364,6.427-5.374,6.427-8.265a7.323,7.323,0,0,0-4.32-6.028l-67.083-38.738c-7.1-4.1-19.611-3.545-27.876,1.221l-59.7,34.473c-4.089,2.355-6.427,5.366-6.427,8.265a7.313,7.313,0,0,0,4.313,6.02Z" transform="translate(-283.602 -741.73)" fill="#140f0c"/>
            </g>
            <g id="Grupo_139055" data-name="Grupo 139055" transform="translate(422.992 124.754)">
              <path id="Trazado_134785" data-name="Trazado 134785" d="M410.3,796.861l-51.956-30c-6.557-3.784-5.725-10.406,1.845-14.781l58.6-33.833c7.578-4.376,19.037-4.847,25.6-1.063l51.96,30c6.565,3.786,5.742,10.406-1.838,14.781l-58.6,33.833C428.329,800.173,416.863,800.652,410.3,796.861Z" transform="translate(-352.358 -713.033)" fill="#e8e8e8"/>
              <path id="Trazado_134786" data-name="Trazado 134786" d="M411.551,804.611l-51.956-30c-6.564-3.793-5.742-10.413,1.838-14.781l58.6-33.841c7.578-4.368,19.044-4.847,25.609-1.055l51.96,29.992c6.564,3.794,5.742,10.413-1.836,14.789l-58.6,33.834C429.582,807.925,418.115,808.4,411.551,804.611Z" transform="translate(-351.23 -705.995)" fill="#64b5f6"/>
              <path id="Trazado_134787" data-name="Trazado 134787" d="M422.206,801.77a24.205,24.205,0,0,1-11.938-2.794h0l-51.952-30a9.137,9.137,0,0,1-5.213-7.77c0-3.593,2.572-7.139,7.061-9.732l58.6-33.834c8.137-4.7,20.075-5.152,27.174-1.053l51.96,29.992a9.137,9.137,0,0,1,5.213,7.778c0,3.593-2.572,7.131-7.051,9.719l-58.6,33.833A31.184,31.184,0,0,1,422.206,801.77Zm-10.373-5.509c6.125,3.538,16.913,3.053,24.044-1.053l58.6-33.834c3.488-2.021,5.486-4.568,5.486-7.011a6.115,6.115,0,0,0-3.649-5.07L444.342,719.3c-6.116-3.538-16.905-3.053-24.044,1.053l-58.584,33.843c-3.49,2.011-5.486,4.566-5.486,7.011a6.11,6.11,0,0,0,3.651,5.063l51.95,30Z" transform="translate(-353.102 -713.791)" fill="#140f0c"/>
            </g>
            <g id="Grupo_139056" data-name="Grupo 139056" transform="translate(50.723 169.012)">
              <path id="Trazado_134788" data-name="Trazado 134788" d="M226.875,812.413,162.8,775.425c-5.87-3.393-5.135-9.31,1.653-13.232l36.6-21.138c6.788-3.922,17.048-4.343,22.926-.954l64.066,36.988c5.877,3.393,5.143,9.318-1.645,13.232L249.791,811.47C243.013,815.384,232.752,815.806,226.875,812.413Z" transform="translate(-157.275 -736.23)" fill="#e8e8e8"/>
              <path id="Trazado_134789" data-name="Trazado 134789" d="M226.872,819.192,162.808,782.2c-5.877-3.393-5.143-9.318,1.645-13.24l36.612-21.136c6.778-3.912,17.041-4.335,22.918-.954l64.066,37c5.877,3.385,5.143,9.31-1.645,13.232l-36.612,21.138C243.01,822.153,232.75,822.584,226.872,819.192Z" transform="translate(-157.274 -730.073)" fill="#5c22c3"/>
              <path id="Trazado_134790" data-name="Trazado 134790" d="M237.6,817.046a21.793,21.793,0,0,1-10.764-2.523l-64.072-36.988a8.328,8.328,0,0,1-4.744-7.106c0-3.267,2.332-6.488,6.4-8.831l36.608-21.145c7.332-4.225,18.086-4.647,24.491-.954l64.053,37a8.322,8.322,0,0,1,4.752,7.1c0,3.275-2.332,6.488-6.4,8.839L251.31,813.573A28.039,28.039,0,0,1,237.6,817.046Zm-9.2-5.231c5.431,3.137,15.012,2.708,21.353-.954l36.612-21.136c3.067-1.773,4.832-4.007,4.832-6.133a5.465,5.465,0,0,0-3.187-4.389l-64.066-37c-5.439-3.13-15.012-2.708-21.361.954L165.98,764.3c-3.074,1.773-4.83,4.008-4.83,6.126a5.441,5.441,0,0,0,3.177,4.4Z" transform="translate(-158.019 -736.983)" fill="#140f0c"/>
            </g>
            <g id="Grupo_139057" data-name="Grupo 139057" transform="translate(383.878 16.358)">
              <path id="Trazado_134791" data-name="Trazado 134791" d="M343.61,685.712a15.191,15.191,0,0,1-7.457-1.813,5.6,5.6,0,0,1,0-10.413l24.515-14.157a21.023,21.023,0,0,1,19.283,0,6.928,6.928,0,0,1,0,12.944L364.3,681.3l-1.565-2.708,15.648-9.039a3.893,3.893,0,0,0,0-7.522,18.185,18.185,0,0,0-16.153,0l-24.516,14.157c-1.261.727-1.981,1.637-1.981,2.5s.719,1.773,1.981,2.5a13.237,13.237,0,0,0,11.785,0l21.968-12.68,1.565,2.708L351.068,683.9A15.186,15.186,0,0,1,343.61,685.712Z" transform="translate(-332.605 -656.987)" fill="#140f0c"/>
            </g>
          </g>
        </g>
        <g id="Grupo_139065" data-name="Grupo 139065" transform="translate(379.744 157.648)">
          <g id="Grupo_139064" data-name="Grupo 139064">
            <g id="Grupo_139063" data-name="Grupo 139063">
              <g id="Grupo_139060" data-name="Grupo 139060" transform="translate(0 55.574)">
                <path id="Trazado_134792" data-name="Trazado 134792" d="M518.905,784.392l.311-21.647-9.486-.135c-.08-.1-.176-.208-.256-.311l-7.929,22.67-3.227-.047-8.112,10.948-35.518,14.047-49.508,4.727-36.013-5.965-33.25-28.092c.168-.925.4-1.845.655-2.763l-9.8-18.287c-.12.136-.248.271-.359.409l-9.646-.136-.359,24.5v.9l-.015,1.118.135,1.82c1.181,13.846,10.8,27.58,28.939,38.409,39.24,23.42,103.393,24.348,143.293,2.076,18.445-10.293,28.46-23.748,30.04-37.547h0l.128-.447A39.037,39.037,0,0,0,518.905,784.392Z" transform="translate(-313.687 -755.161)" fill="#5b5b5b"/>
                <path id="Trazado_134793" data-name="Trazado 134793" d="M420.733,849.469c-27.309,0-54.746-6.2-75.365-18.51-18.214-10.877-28.946-25.25-30.248-40.5l-.143-1.836.406-29.481,11.068.161,1.75-2.059,2.244,3.1,10.316,19.253-.3,1.046c-.1.336-.191.672-.271,1.006L371.631,808.2l34.921,5.8,48.773-4.664,34.44-13.623,8.488-11.449,2.651.04,8.871-25.379,2.515,3.066,10.948.16-.351,24.22a41.237,41.237,0,0,1,.015,6.477l-.088.572c-1.8,15.253-12.961,29.322-31.462,39.646C471.741,844.033,446.294,849.469,420.733,849.469ZM320.727,764.636l-.344,23.811.128,1.565c1.145,13.455,10.963,26.334,27.628,36.293,38.432,22.941,101.508,23.853,140.587,2.044,16.953-9.463,27.126-22.063,28.668-35.493l.136-.6a36.244,36.244,0,0,0-.031-5.557l-.017-.263.279-18.942-5.2-.072-7.809,22.365-3.794-.055-7.753,10.453-36.963,14.5-49.867,4.771-37.1-6.148-35.007-29.578.28-1.527c.113-.654.256-1.309.424-1.956l-8.32-15.514Z" transform="translate(-314.977 -757.243)" fill="#16110d"/>
              </g>
              <g id="Grupo_139061" data-name="Grupo 139061" transform="translate(7.37 4.282)">
                <path id="Trazado_134794" data-name="Trazado 134794" d="M320.6,787.7c3.817,5.278,8.185,11.291,11.883,16.386,2.395-10,10.316-19.571,23.771-27.078,32.372-18.071,84.435-17.319,116.272,1.685,13.089,7.824,20.714,17.495,22.909,27.445L506.5,788.585c-1.07-1.4-2.229-2.786-3.5-4.152,2.42,1.078,4.089,1.845,4.736,2.187l.023-.032c-3.225-3.17-28.922-40.2-28.922-40.2L420.189,731.8l-54.643,7.1-35.734,28.866L327.3,779.112l-3.969,1.336C320.093,783.311,322.874,784.62,320.6,787.7Z" transform="translate(-317.242 -729.059)" fill="#16110d"/>
                <path id="Trazado_134795" data-name="Trazado 134795" d="M495.815,814.465l-1.429-6.437c-2.132-9.631-9.614-18.51-21.655-25.7-31.055-18.533-82-19.273-113.566-1.645-12.36,6.9-20.13,15.667-22.454,25.345l-1.374,5.71-3.448-4.752c-3.706-5.1-8.074-11.108-11.89-16.394l-1.158-1.6,1.174-1.589a2.254,2.254,0,0,0,.479-1.781,6.8,6.8,0,0,1,2.651-5.885l.926-.534,2.515-.855,2.395-10.772,37.066-29.937,55.912-7.267,60.129,14.947.582.838c9.877,14.238,26.374,37.635,28.586,39.814l1.66,1.637-1.527,2.124.015.015Zm-81.729-51.872c22.256,0,44.621,5.055,61.414,15.075,11.011,6.564,18.621,14.573,22.327,23.42l6.956-11.028c-.677-.838-1.4-1.66-2.164-2.481l-9.072-9.732,7.131,3.177c-7.545-10.356-18.773-26.471-21.888-30.95L421.631,735.86l-53.38,6.931-34.393,27.8-2.65,11.9-4.862,1.653c-.447.446-.447.655-.431,1.389a7.737,7.737,0,0,1-.511,3.282c2.507,3.473,5.206,7.194,7.761,10.717,3.841-9.064,11.818-17.144,23.365-23.58,15.986-8.921,36.724-13.352,57.557-13.352Z" transform="translate(-318.839 -730.364)" fill="#16110d"/>
              </g>
              <path id="Trazado_134796" data-name="Trazado 134796" d="M424.825,821.264l15.4-26.525-17.815-11.574c-.1-.063-.191-.136-.3-.191h0a7.7,7.7,0,0,0-7.593.695,23.988,23.988,0,0,0-11.123,18.638,8.1,8.1,0,0,0,2.427,6.612h0a5.159,5.159,0,0,0,.91.592Z" transform="translate(-234.707 -678.925)" fill="#5b5b5b"/>
              <g id="Grupo_139062" data-name="Grupo 139062" transform="translate(0.355)">
                <path id="Trazado_134797" data-name="Trazado 134797" d="M346.863,745.622c-39.9,22.271-40.436,59.307-1.2,82.727s103.391,24.355,143.286,2.084,40.445-59.315,1.206-82.735S386.765,723.351,346.863,745.622Zm128.7,76.809c-32.379,18.071-84.435,17.319-116.272-1.685s-31.406-49.061.975-67.131S444.7,736.3,476.535,755.3,507.932,804.36,475.56,822.431Z" transform="translate(-313.873 -726.86)" fill="#afafaf"/>
                <path id="Trazado_134798" data-name="Trazado 134798" d="M420.932,850.441c-27.309,0-54.746-6.2-75.365-18.51-19.846-11.843-30.639-27.525-30.4-44.159s11.49-32,31.677-43.264h0c40.589-22.655,106.1-21.7,146,2.124,19.846,11.843,30.631,27.525,30.4,44.159s-11.491,32-31.677,43.264C471.95,845,446.5,850.441,420.932,850.441ZM417.5,733.465c-24.617,0-49.117,5.23-68.008,15.779-18.422,10.278-28.683,23.987-28.891,38.608s9.639,28.624,27.756,39.43c38.432,22.933,101.5,23.853,140.58,2.044,18.422-10.285,28.683-24,28.889-38.617s-9.646-28.624-27.756-39.43c-19.857-11.841-46.281-17.813-72.577-17.813Zm3.114,105.946c-22.254,0-44.613-5.055-61.414-15.075-16.266-9.709-25.115-22.59-24.914-36.276s9.415-26.311,25.952-35.541c33.091-18.463,86.463-17.688,118.98,1.718,16.266,9.709,25.113,22.6,24.914,36.285s-9.413,26.3-25.952,35.534c-16,8.925-36.742,13.358-57.574,13.358Zm-2.794-94.921c-19.884,0-39.679,4.225-54.939,12.745-14.779,8.249-23,19.22-23.182,30.887S347.443,811,361.969,819.68c31.055,18.51,82,19.273,113.564,1.645h0c14.781-8.249,23.014-19.22,23.182-30.887s-7.738-22.878-22.271-31.549c-16.041-9.574-37.385-14.4-58.633-14.4Z" transform="translate(-315.163 -728.12)" fill="#16110d"/>
              </g>
              <path id="Trazado_134799" data-name="Trazado 134799" d="M405.209,791.7l17.476,10.923,13.358-9.206-18.768-11.474Z" transform="translate(-233.023 -679.233)" fill="#e8e8e8"/>
              <path id="Trazado_134800" data-name="Trazado 134800" d="M427.023,826.382l-20.481-13.3a6.2,6.2,0,0,1-1.166-.782,10.767,10.767,0,0,1-3.4-8.736,26.609,26.609,0,0,1,12.5-20.96,10.251,10.251,0,0,1,10.261-.679l.487.311,19.93,12.936Zm-6.54-40.085a7.179,7.179,0,0,0-3.362,1.03,21.348,21.348,0,0,0-9.732,16.314,5.646,5.646,0,0,0,1.444,4.488l.655.406L425.2,818.742l12.68-21.832-15.659-10.165A3.367,3.367,0,0,0,420.483,786.3Z" transform="translate(-235.993 -680.219)" fill="#16110d"/>
              <path id="Trazado_134801" data-name="Trazado 134801" d="M431.516,789.108a7.756,7.756,0,0,0-7.442.763,23.978,23.978,0,0,0-11.123,18.638c-.055,3.513,1.166,5.973,3.162,7.116h0l32.44,28.051,23.508-37.139Z" transform="translate(-225.993 -673.287)" fill="#5b5b5b"/>
              <path id="Trazado_134802" data-name="Trazado 134802" d="M415.093,796.8l36.713,20.094,15.575-11.8-41.44-16.722Z" transform="translate(-224.046 -673.404)" fill="#f6f6f6"/>
              <path id="Trazado_134803" data-name="Trazado 134803" d="M450.452,849.081l-34.824-30.11c-2.515-1.381-4.16-4.847-4.1-9.207a26.6,26.6,0,0,1,12.5-20.962,10.427,10.427,0,0,1,9.934-.855l43.367,18.661Zm-20.338-56.606a7.37,7.37,0,0,0-3.435,1.053,21.377,21.377,0,0,0-9.732,16.314,5.137,5.137,0,0,0,1.8,4.727l30.494,26.3,20.123-31.8-37.818-16.281a3.034,3.034,0,0,0-1.429-.319Z" transform="translate(-227.283 -674.577)" fill="#16110d"/>
              <path id="Trazado_134804" data-name="Trazado 134804" d="M513.8,839.1h0a6.125,6.125,0,0,0-1.1-.592l-54.363-39.434c-2.862-1.845-6.906-1.733-11.449.8C438.054,804.8,430.78,817,430.635,827.105c-.072,4.839,1.527,8.3,4.145,10.085h0a7.813,7.813,0,0,0,1.693.863l59.4,29.769a10.666,10.666,0,0,0,1.145.573l20.752,10.3L532.832,852Z" transform="translate(-209.932 -664.816)" fill="#5b5b5b"/>
              <path id="Trazado_134805" data-name="Trazado 134805" d="M434.334,808.179,514.393,858.5l11.915-8.765-73.67-51.777-15.77,6.713Z" transform="translate(-206.57 -664.692)" fill="#e8e8e8"/>
              <path id="Trazado_134806" data-name="Trazado 134806" d="M520.155,883.543l-83.6-41.779a8.809,8.809,0,0,1-2-1.046c-3.53-2.387-5.421-6.78-5.343-12.369A37.513,37.513,0,0,1,446.857,798.8c5.223-2.914,10.406-3.17,14.23-.7l76.617,54.34Zm-64.992-81.752a12,12,0,0,0-5.662,1.733c-7.929,4.423-14.741,15.827-14.869,24.907-.055,3.706,1,6.477,2.954,7.8a5.065,5.065,0,0,0,1.093.559L517.966,876.4l12.568-22.279L458.02,802.556a5.243,5.243,0,0,0-2.855-.765Z" transform="translate(-211.217 -666.095)" fill="#16110d"/>
              <path id="Trazado_134807" data-name="Trazado 134807" d="M510.713,838.055l-17.281-11.3c-.113-.071-.216-.151-.328-.215h0a7.678,7.678,0,0,0-7.593.695,24,24,0,0,0-11.131,18.638c-.055,3.794,1.374,6.364,3.666,7.362l17.775,11.595Z" transform="translate(-170.199 -639.358)" fill="#5b5b5b"/>
              <path id="Trazado_134808" data-name="Trazado 134808" d="M476.791,833.83l18.619,12.4,10.381-10.043-18.466-10.331Z" transform="translate(-168.008 -639.348)" fill="#e8e8e8"/>
              <path id="Trazado_134809" data-name="Trazado 134809" d="M496.269,868.819,477.847,856.8c-3.034-1.286-4.961-4.887-4.887-9.671a26.62,26.62,0,0,1,12.52-20.96,10.2,10.2,0,0,1,10.253-.679l.5.311,19.355,12.665Zm-4.8-38.951a7.128,7.128,0,0,0-3.355,1.031,21.332,21.332,0,0,0-9.732,16.314c-.04,2.492.7,4.256,2.036,4.839l15.73,10.228,12.257-22.038-15.173-9.923A3.493,3.493,0,0,0,491.47,829.868Z" transform="translate(-171.489 -640.656)" fill="#16110d"/>
              <path id="Trazado_134810" data-name="Trazado 134810" d="M505.436,831.772c-2.891-1.733-6.587-1.517-10.381.615a26.6,26.6,0,0,0-12.52,20.96c-.065,4.353,1.492,7.706,4.389,9.438a8.305,8.305,0,0,0,4.3,1.158,12.554,12.554,0,0,0,6.093-1.773,26.6,26.6,0,0,0,12.512-20.96C509.9,836.85,508.342,833.505,505.436,831.772Z" transform="translate(-162.793 -635.029)" fill="#16110d"/>
            </g>
            <path id="Trazado_134811" data-name="Trazado 134811" d="M372.134,798.175v25.807l32.858-3.639,30.093-10.931-3.341-9.15,6.755-17.869L408.12,795.807l-28.414,2.7Z" transform="translate(-263.064 -678.826)" fill="#16110d"/>
            <path id="Trazado_134812" data-name="Trazado 134812" d="M409.485,792.491l17.556,8.969,6.208-12.875v-20.55l-14.783,17.747Z" transform="translate(-229.139 -691.867)" fill="#16110d"/>
          </g>
        </g>
      </g>
      <g id="Grupo_159975" data-name="Grupo 159975" transform="translate(2451.917 -8328.137)">
        <g id="Grupo_159973" data-name="Grupo 159973" transform="translate(0 0)">
          <g id="_6" data-name=" 6" transform="translate(0 45.553)">
            <g id="Grupo_138982" data-name="Grupo 138982">
              <g id="Grupo_138973" data-name="Grupo 138973" transform="translate(38.095)">
                <g id="Grupo_138969" data-name="Grupo 138969" transform="translate(0 7.924)">
                  <g id="Grupo_138966" data-name="Grupo 138966" transform="translate(1.292 1.291)">
                    <path id="Trazado_133844" data-name="Trazado 133844" d="M420.738,536.325v-73.2h-27.33V537.79h.063c.282,1.775,1.6,3.5,3.948,4.858,5.349,3.086,14.017,3.086,19.366,0C419.783,540.919,421.1,538.587,420.738,536.325Z" transform="translate(-393.408 -463.128)" fill="#fef536"/>
                  </g>
                  <g id="Grupo_138967" data-name="Grupo 138967" transform="translate(5.817 18.498)">
                    <path id="Trazado_133845" data-name="Trazado 133845" d="M398.5,482.513v61.981l11.648,2.649V484.452A21.118,21.118,0,0,1,398.5,482.513Z" transform="translate(-398.505 -482.513)" fill="#e5d728"/>
                  </g>
                  <g id="Grupo_138968" data-name="Grupo 138968">
                    <path id="Trazado_133846" data-name="Trazado 133846" d="M406.94,546.115A20.991,20.991,0,0,1,396.61,543.6a9.23,9.23,0,0,1-4.3-4.68h-.3l-.059-1.3V461.673h29.913v74.391c.408,2.871-1.26,5.616-4.6,7.54A20.982,20.982,0,0,1,406.94,546.115Zm-12.4-8.9.041.2c.234,1.437,1.411,2.841,3.321,3.941,4.989,2.882,13.1,2.878,18.074,0,2.4-1.386,3.606-3.205,3.321-5l-.019-.208v-71.9H394.541Z" transform="translate(-391.952 -461.673)" fill="#020202"/>
                  </g>
                </g>
                <g id="Grupo_138970" data-name="Grupo 138970" transform="translate(1.292 1.31)">
                  <path id="Trazado_133847" data-name="Trazado 133847" d="M416.786,456.54c5.349,3.086,5.349,8.093,0,11.184s-14.018,3.086-19.366,0-5.349-8.093,0-11.184S411.438,453.449,416.786,456.54Z" transform="translate(-393.408 -454.221)" fill="#fef536"/>
                </g>
                <g id="Grupo_138971" data-name="Grupo 138971" transform="translate(2.589 7.939)">
                  <path id="Trazado_133848" data-name="Trazado 133848" d="M419.606,466.237A9.476,9.476,0,0,0,416.951,464c-5.349-3.086-14.017-3.086-19.366,0a9.455,9.455,0,0,0-2.715,2.3v6.593a9.432,9.432,0,0,0,2.715,2.292c5.349,3.091,14.018,3.091,19.366,0a9.435,9.435,0,0,0,2.656-2.229Z" transform="translate(-394.869 -461.69)" fill="#e5d728"/>
                </g>
                <g id="Grupo_138972" data-name="Grupo 138972">
                  <path id="Trazado_133849" data-name="Trazado 133849" d="M406.94,471.183a21.041,21.041,0,0,1-10.329-2.508c-3-1.734-4.658-4.116-4.658-6.712s1.653-4.977,4.658-6.711c5.8-3.343,14.869-3.339,20.66,0,3,1.734,4.661,4.116,4.661,6.711s-1.656,4.977-4.661,6.712A21.023,21.023,0,0,1,406.94,471.183Zm0-15.845a18.5,18.5,0,0,0-9.037,2.154c-2.169,1.255-3.361,2.84-3.361,4.472s1.192,3.217,3.361,4.468c4.989,2.879,13.1,2.879,18.074,0,2.169-1.252,3.365-2.84,3.365-4.468s-1.2-3.217-3.365-4.472a18.5,18.5,0,0,0-9.037-2.154Z" transform="translate(-391.952 -452.746)" fill="#020202"/>
                </g>
              </g>
              <g id="Grupo_138981" data-name="Grupo 138981" transform="translate(0 58.375)">
                <g id="Grupo_138977" data-name="Grupo 138977" transform="translate(0 7.927)">
                  <g id="Grupo_138974" data-name="Grupo 138974" transform="translate(1.299 1.29)">
                    <path id="Trazado_133850" data-name="Trazado 133850" d="M377.826,565.547l.03-36.653H350.527l-.029,38.124h.059c.282,1.775,1.6,3.5,3.948,4.854,5.349,3.086,14.025,3.086,19.366,0C376.871,570.141,378.19,567.809,377.826,565.547Z" transform="translate(-350.498 -528.894)" fill="#fef536"/>
                  </g>
                  <g id="Grupo_138975" data-name="Grupo 138975" transform="translate(5.821 18.498)">
                    <path id="Trazado_133851" data-name="Trazado 133851" d="M355.623,548.281l-.03,25.436,11.648,2.652.03-26.152A21.113,21.113,0,0,1,355.623,548.281Z" transform="translate(-355.593 -548.281)" fill="#e5d728"/>
                  </g>
                  <g id="Grupo_138976" data-name="Grupo 138976">
                    <path id="Trazado_133852" data-name="Trazado 133852" d="M364.023,575.339a21.04,21.04,0,0,1-10.329-2.507,9.271,9.271,0,0,1-4.3-4.684h-.3l-.059-1.3.03-39.411h29.923l-.034,37.849c.413,2.871-1.259,5.616-4.594,7.545A21.045,21.045,0,0,1,364.023,575.339Zm-12.4-8.9.044.2c.23,1.437,1.408,2.84,3.321,3.941,4.988,2.882,13.093,2.879,18.07,0,2.4-1.382,3.606-3.205,3.321-5l-.019-.2.034-35.361H351.658Z" transform="translate(-349.035 -527.441)" fill="#020202"/>
                  </g>
                </g>
                <g id="Grupo_138978" data-name="Grupo 138978" transform="translate(1.333 1.311)">
                  <path id="Trazado_133853" data-name="Trazado 133853" d="M373.912,522.306c5.345,3.091,5.345,8.093,0,11.184s-14.025,3.086-19.366,0-5.349-8.094,0-11.184S368.564,519.217,373.912,522.306Z" transform="translate(-350.536 -519.988)" fill="#fef536"/>
                </g>
                <g id="Grupo_138979" data-name="Grupo 138979" transform="translate(2.621 7.942)">
                  <path id="Trazado_133854" data-name="Trazado 133854" d="M376.733,532.005a9.491,9.491,0,0,0-2.663-2.229c-5.349-3.091-14.017-3.091-19.366,0a9.507,9.507,0,0,0-2.715,2.292v6.593a9.475,9.475,0,0,0,2.715,2.3c5.349,3.086,14.018,3.086,19.366,0a9.471,9.471,0,0,0,2.663-2.232Z" transform="translate(-351.988 -527.459)" fill="#e5d728"/>
                </g>
                <g id="Grupo_138980" data-name="Grupo 138980" transform="translate(0.035)">
                  <path id="Trazado_133855" data-name="Trazado 133855" d="M364.064,536.947a21.054,21.054,0,0,1-10.333-2.507c-3-1.735-4.657-4.115-4.657-6.708s1.656-4.98,4.657-6.716c5.8-3.343,14.872-3.339,20.662,0,3,1.734,4.658,4.119,4.658,6.716s-1.656,4.971-4.658,6.708A21.038,21.038,0,0,1,364.064,536.947Zm0-15.845a18.494,18.494,0,0,0-9.037,2.158c-2.169,1.252-3.365,2.84-3.365,4.472s1.2,3.217,3.365,4.468c4.988,2.875,13.094,2.875,18.07,0,2.169-1.251,3.365-2.84,3.365-4.468s-1.2-3.22-3.365-4.472a18.478,18.478,0,0,0-9.033-2.158Z" transform="translate(-349.074 -518.511)" fill="#020202"/>
                </g>
              </g>
            </g>
          </g>
          <g id="_6-2" data-name=" 6-2" transform="translate(84.174)">
            <g id="Grupo_138982-2" data-name="Grupo 138982-2">
              <g id="Grupo_138973-2" data-name="Grupo 138973-2" transform="translate(38.095)">
                <g id="Grupo_138969-2" data-name="Grupo 138969-2" transform="translate(0 7.924)">
                  <g id="Grupo_138966-2" data-name="Grupo 138966-2" transform="translate(1.292 1.291)">
                    <path id="Trazado_133844-2" data-name="Trazado 133844-2" d="M515.567,485.006v-73.2h-27.33v74.662h.063c.282,1.775,1.6,3.5,3.948,4.858,5.349,3.086,14.017,3.086,19.366,0C514.612,489.6,515.927,487.268,515.567,485.006Z" transform="translate(-488.237 -411.809)" fill="#fef536"/>
                  </g>
                  <g id="Grupo_138967-2" data-name="Grupo 138967-2" transform="translate(5.817 18.498)">
                    <path id="Trazado_133845-2" data-name="Trazado 133845-2" d="M493.334,431.194v61.981l11.648,2.649V433.133A21.117,21.117,0,0,1,493.334,431.194Z" transform="translate(-493.334 -431.194)" fill="#e5d728"/>
                  </g>
                  <g id="Grupo_138968-2" data-name="Grupo 138968-2">
                    <path id="Trazado_133846-2" data-name="Trazado 133846-2" d="M501.769,494.8a20.993,20.993,0,0,1-10.329-2.511,9.228,9.228,0,0,1-4.3-4.68h-.3l-.059-1.3V410.354h29.913v74.391c.408,2.871-1.26,5.616-4.6,7.54A20.984,20.984,0,0,1,501.769,494.8Zm-12.4-8.9.041.2c.234,1.437,1.411,2.84,3.321,3.941,4.988,2.882,13.1,2.879,18.074,0,2.4-1.386,3.606-3.205,3.321-5l-.019-.208v-71.9H489.37Z" transform="translate(-486.781 -410.354)" fill="#020202"/>
                  </g>
                </g>
                <g id="Grupo_138970-2" data-name="Grupo 138970-2" transform="translate(1.292 1.31)">
                  <path id="Trazado_133847-2" data-name="Trazado 133847-2" d="M511.614,405.221c5.349,3.086,5.349,8.093,0,11.184s-14.017,3.086-19.366,0-5.349-8.093,0-11.184S506.266,402.13,511.614,405.221Z" transform="translate(-488.236 -402.903)" fill="#fef536"/>
                </g>
                <g id="Grupo_138971-2" data-name="Grupo 138971-2" transform="translate(2.589 7.939)">
                  <path id="Trazado_133848-2" data-name="Trazado 133848-2" d="M514.436,414.918a9.475,9.475,0,0,0-2.656-2.232c-5.349-3.086-14.017-3.086-19.366,0a9.454,9.454,0,0,0-2.715,2.3v6.593a9.433,9.433,0,0,0,2.715,2.292c5.349,3.091,14.018,3.091,19.366,0a9.435,9.435,0,0,0,2.656-2.229Z" transform="translate(-489.698 -410.371)" fill="#e5d728"/>
                </g>
                <g id="Grupo_138972-2" data-name="Grupo 138972-2">
                  <path id="Trazado_133849-2" data-name="Trazado 133849-2" d="M501.769,419.864a21.041,21.041,0,0,1-10.329-2.508c-3-1.734-4.658-4.116-4.658-6.712s1.653-4.977,4.658-6.711c5.8-3.343,14.869-3.339,20.66,0,3,1.734,4.661,4.116,4.661,6.711s-1.656,4.977-4.661,6.712A21.024,21.024,0,0,1,501.769,419.864Zm0-15.845a18.5,18.5,0,0,0-9.037,2.154c-2.169,1.255-3.361,2.84-3.361,4.472s1.192,3.217,3.361,4.468c4.988,2.879,13.1,2.879,18.074,0,2.169-1.252,3.365-2.84,3.365-4.468s-1.2-3.217-3.365-4.472a18.5,18.5,0,0,0-9.037-2.154Z" transform="translate(-486.781 -401.427)" fill="#020202"/>
                </g>
              </g>
              <g id="Grupo_138981-2" data-name="Grupo 138981-2" transform="translate(0 58.375)">
                <g id="Grupo_138977-2" data-name="Grupo 138977-2" transform="translate(0 7.927)">
                  <g id="Grupo_138974-2" data-name="Grupo 138974-2" transform="translate(1.299 1.29)">
                    <path id="Trazado_133850-2" data-name="Trazado 133850-2" d="M472.656,514.228l.03-36.653H445.356l-.029,38.124h.059c.282,1.775,1.6,3.5,3.948,4.854,5.349,3.086,14.025,3.086,19.366,0C471.7,518.823,473.019,516.49,472.656,514.228Z" transform="translate(-445.327 -477.575)" fill="#fef536"/>
                  </g>
                  <g id="Grupo_138975-2" data-name="Grupo 138975-2" transform="translate(5.821 18.498)">
                    <path id="Trazado_133851-2" data-name="Trazado 133851-2" d="M450.452,496.962l-.03,25.436,11.648,2.652.03-26.152A21.114,21.114,0,0,1,450.452,496.962Z" transform="translate(-450.422 -496.962)" fill="#e5d728"/>
                  </g>
                  <g id="Grupo_138976-2" data-name="Grupo 138976-2">
                    <path id="Trazado_133852-2" data-name="Trazado 133852-2" d="M458.852,524.02a21.039,21.039,0,0,1-10.329-2.507,9.271,9.271,0,0,1-4.3-4.684h-.3l-.059-1.3.03-39.411h29.923l-.034,37.849c.413,2.872-1.259,5.616-4.594,7.545A21.049,21.049,0,0,1,458.852,524.02Zm-12.4-8.9.044.2c.23,1.437,1.408,2.84,3.321,3.941,4.988,2.882,13.093,2.879,18.07,0,2.4-1.382,3.606-3.205,3.321-5l-.019-.2.034-35.361H446.487Z" transform="translate(-443.864 -476.122)" fill="#020202"/>
                  </g>
                </g>
                <g id="Grupo_138978-2" data-name="Grupo 138978-2" transform="translate(1.333 1.311)">
                  <path id="Trazado_133853-2" data-name="Trazado 133853-2" d="M468.741,470.987c5.345,3.091,5.345,8.094,0,11.184s-14.025,3.086-19.366,0-5.349-8.094,0-11.184S463.393,467.9,468.741,470.987Z" transform="translate(-445.366 -468.669)" fill="#fef536"/>
                </g>
                <g id="Grupo_138979-2" data-name="Grupo 138979-2" transform="translate(2.621 7.942)">
                  <path id="Trazado_133854-2" data-name="Trazado 133854-2" d="M471.562,480.686a9.487,9.487,0,0,0-2.663-2.229c-5.349-3.091-14.018-3.091-19.366,0a9.509,9.509,0,0,0-2.715,2.292v6.593a9.476,9.476,0,0,0,2.715,2.3c5.349,3.086,14.017,3.086,19.366,0a9.474,9.474,0,0,0,2.663-2.232Z" transform="translate(-446.817 -476.139)" fill="#e5d728"/>
                </g>
                <g id="Grupo_138980-2" data-name="Grupo 138980-2" transform="translate(0.035)">
                  <path id="Trazado_133855-2" data-name="Trazado 133855-2" d="M458.893,485.628a21.055,21.055,0,0,1-10.333-2.507c-3-1.735-4.657-4.115-4.657-6.708s1.656-4.98,4.657-6.716c5.8-3.343,14.872-3.339,20.662,0,3,1.734,4.658,4.12,4.658,6.716s-1.656,4.971-4.658,6.708A21.039,21.039,0,0,1,458.893,485.628Zm0-15.845a18.494,18.494,0,0,0-9.037,2.158c-2.169,1.252-3.365,2.84-3.365,4.472s1.2,3.217,3.365,4.468c4.989,2.875,13.094,2.875,18.071,0,2.169-1.251,3.365-2.84,3.365-4.468s-1.2-3.22-3.365-4.472a18.478,18.478,0,0,0-9.033-2.158Z" transform="translate(-443.903 -467.192)" fill="#020202"/>
                </g>
              </g>
            </g>
          </g>
        </g>
      </g>
    </g>
    <g id="Grupo_159998" data-name="Grupo 159998" transform="translate(-2440.524 10315.885)">
      <g id="Grupo_159992" data-name="Grupo 159992" transform="translate(3349.246 -7881.895)">
        <g id="Grupo_159989" data-name="Grupo 159989" transform="translate(29.08 15.347)">
          <path id="Trazado_226251" data-name="Trazado 226251" d="M180.817,266.124l-52.288-2.548s-21.262,27.078-20.7,28.195c.515,1.03,2.915,18.072,3.3,20.821-1.4.72-2.81,1.414-4.18,2.208-.279.161-.519.323-.794.484v42.75l13.94.633a46.671,46.671,0,0,1,3.936-14.551,22.015,22.015,0,0,1,9.132-9.437,26.507,26.507,0,0,1,12.509-3.744,21.287,21.287,0,0,1,11.6,2.792,18.712,18.712,0,0,1,6.353,5.615,23.6,23.6,0,0,1,3.194,8.757c.659,3.486,1.2,10.249,1.61,20.193h12.4Z" transform="translate(-104.47 -261.853)" fill="#ba68c8"/>
          <path id="Trazado_226252" data-name="Trazado 226252" d="M183.791,371.3h-15.2a171.449,171.449,0,0,0-2.134-21.563,21.991,21.991,0,0,0-2.941-8.133,17.225,17.225,0,0,0-5.794-5.1,19.664,19.664,0,0,0-10.7-2.57,25.011,25.011,0,0,0-11.724,3.521,20.563,20.563,0,0,0-8.469,8.718,45.143,45.143,0,0,0-3.774,14.027l-.2,1.54-17.09-.777V315.652l1.636-.977c1.047-.606,2.121-1.156,3.189-1.706-1.257-8.945-2.657-18.16-3.019-19.233-.532-1.043-.986-1.959,20.93-29.87l.537-.685,54.753,2.67Zm-12.466-3.355h9.106V269.054l-49.823-2.435c-8.848,11.287-18.365,23.884-19.739,26.506.358,1.483,1.174,5.969,3.216,20.568l.161,1.178-1.841.947c-1.1.558-2.208,1.117-3.285,1.737v40.2l10.812.489a46.483,46.483,0,0,1,3.879-13.535,23.758,23.758,0,0,1,9.8-10.157,28.276,28.276,0,0,1,13.295-3.97A23.122,23.122,0,0,1,159.4,333.6a20.634,20.634,0,0,1,6.9,6.135,25.423,25.423,0,0,1,3.456,9.385C170.4,352.508,170.911,358.677,171.326,367.945Z" transform="translate(-105.765 -263.181)" fill="#16110d"/>
        </g>
        <path id="Trazado_226253" data-name="Trazado 226253" d="M99.486,326.34l.155-53.731,43.017,1.949-.155,53.731Z" transform="translate(-97.801 -216.127)" fill="#ba68c8"/>
        <path id="Trazado_226254" data-name="Trazado 226254" d="M120.679,284.367l-.155,53.732,23.744,13.713.155-53.731Z" transform="translate(-27.048 -176.581)" fill="#ba68c8"/>
        <g id="Grupo_159991" data-name="Grupo 159991" transform="translate(1.841 1.674)">
          <g id="Grupo_159990" data-name="Grupo 159990">
            <path id="Trazado_226255" data-name="Trazado 226255" d="M311.96,323.923l-96.906,55.949L191.31,366.158l-.362-37.859q-.641-16.5-1.689-22.065a23.6,23.6,0,0,0-3.2-8.757,18.783,18.783,0,0,0-6.348-5.615,21.327,21.327,0,0,0-11.6-2.792,26.494,26.494,0,0,0-12.509,3.744,22.05,22.05,0,0,0-9.136,9.438,46.559,46.559,0,0,0-3.931,14.551l-43.016-1.946q1.1-11.29,4.158-17.64a44.024,44.024,0,0,1,9.224-12.339,84.058,84.058,0,0,1,16.488-11.942A96.638,96.638,0,0,1,157.107,262.2a86.79,86.79,0,0,1,28.814-1.605,63.157,63.157,0,0,1,24.573,7.7,55,55,0,0,1,12.553,9.52,33.392,33.392,0,0,1,7.033,11.074,44.307,44.307,0,0,1,2.648,14.132q.321,8.037-1.959,32.348l.912.528,50.508-29.163Z" transform="translate(-99.522 -260.047)" fill="#ba68c8"/>
            <path id="Trazado_226256" data-name="Trazado 226256" d="M311.96,326.683l-96.906,55.949L191.31,368.919l-.362-37.859q-.641-16.506-1.689-22.065a23.6,23.6,0,0,0-3.2-8.757,18.737,18.737,0,0,0-6.348-5.615,21.329,21.329,0,0,0-11.6-2.8,26.5,26.5,0,0,0-12.509,3.748,22.026,22.026,0,0,0-9.136,9.438,46.559,46.559,0,0,0-3.931,14.551l-43.016-1.95q1.1-11.283,4.158-17.636a43.962,43.962,0,0,1,9.224-12.339A83.884,83.884,0,0,1,129.392,275.7a96.511,96.511,0,0,1,27.715-10.734,86.794,86.794,0,0,1,28.814-1.61,63.232,63.232,0,0,1,24.573,7.7,54.87,54.87,0,0,1,12.553,9.52,33.417,33.417,0,0,1,7.033,11.069,44.354,44.354,0,0,1,2.648,14.132q.321,8.043-1.959,32.353l.912.524,50.508-29.159Z" transform="translate(-99.522 -250.77)" fill="#a34cb2"/>
          </g>
        </g>
        <path id="Trazado_226257" data-name="Trazado 226257" d="M137.912,320.737V266.72l-15.45,3.655L111.988,282.5l-2.611,17.532.018,43.683,4.645-11.232,10.817-10.444Z" transform="translate(-64.538 -235.933)" fill="#16110d"/>
        <path id="Trazado_226258" data-name="Trazado 226258" d="M283.609,306.089l-49.552,28.6c1.4-15.249,1.981-25.223,1.767-30.45a46.093,46.093,0,0,0-2.758-14.665,35.238,35.238,0,0,0-7.378-11.628,56.835,56.835,0,0,0-12.937-9.822,65.131,65.131,0,0,0-25.215-7.911,88.712,88.712,0,0,0-29.373,1.636,98.822,98.822,0,0,0-28.19,10.912,86.3,86.3,0,0,0-16.82,12.2,45.8,45.8,0,0,0-9.568,12.815c-1.959,4.075-3.325,9.7-4.114,16.615l-.205-.009L99.1,371.48l46.376,2.1.161-55.36a44.94,44.94,0,0,1,3.761-13.945,20.512,20.512,0,0,1,8.465-8.722,25,25,0,0,1,11.724-3.517,19.6,19.6,0,0,1,10.707,2.57,17.132,17.132,0,0,1,5.794,5.1,22.155,22.155,0,0,1,2.941,8.129c.681,3.608,1.239,10.947,1.658,21.772l.366,37.924-.157,54.614,25.424,14.686L314.9,379.919l.161-55.67Zm-141.48,63.977-39.661-1.793.144-50.373,26.022,1.182,13.639.615Zm72.52,61.922-20.393-11.772.144-49.862L213.362,381.3l1.431.825Zm-3.006-55.552L194.4,366.476l-.358-36.952c-.432-11.192-.995-18.5-1.715-22.309a25.347,25.347,0,0,0-3.456-9.385,20.551,20.551,0,0,0-6.9-6.135,23.24,23.24,0,0,0-12.492-3.015,28.3,28.3,0,0,0-13.29,3.97,23.766,23.766,0,0,0-9.808,10.157,46.609,46.609,0,0,0-3.879,13.539l-39.7-1.8c.746-6.462,2.029-11.606,3.809-15.315a42.521,42.521,0,0,1,8.883-11.859,82.657,82.657,0,0,1,16.157-11.693,95.4,95.4,0,0,1,27.239-10.55,85.3,85.3,0,0,1,28.26-1.579,61.776,61.776,0,0,1,23.923,7.487,53.5,53.5,0,0,1,12.178,9.219,31.951,31.951,0,0,1,6.684,10.515,43.126,43.126,0,0,1,2.539,13.6c.209,5.245-.449,16.056-1.959,32.126l-.1,1.078,2.688,1.54,50.508-29.159,26.415,15.258-34.329,19.818-59.221,34.19Z" transform="translate(-99.1 -259.664)" fill="#16110d"/>
      </g>
    </g>
    <g id="Grupo_160004" data-name="Grupo 160004" transform="translate(138.591 -290)">
      <g id="Grupo_144607" data-name="Grupo 144607" transform="translate(655.354 3220.504)" style="mix-blend-mode: multiply;isolation: isolate">
        <path id="Trazado_133274" data-name="Trazado 133274" d="M-2464.828,842.857c4.276,13.074,15.543,23.315,27.69,29.1,11.458,5.457,23.053,10.686,34.673,15.781,26.424,11.586,53.884,22.614,83.251,22.757,20.739.1,40.024-12.78,40.855-34.96.826-22.036-19.861-31.645-37.13-38.368-14.661-5.708-29.7-10.556-44.543-15.772-13.434-4.721-26.825-9.967-40.4-14.364a23.838,23.838,0,0,0-21.833-2.488,34.8,34.8,0,0,0-4.121,1.854c-5.775-2.294-14.278-2.216-20.273-.636-16.471,4.34-23.2,21.7-18.167,37.1" transform="translate(2466.465 -802.966)" fill="#d7dce0"/>
      </g>
      <g id="Grupo_159999" data-name="Grupo 159999" transform="translate(-2969.646 11008.176)">
        <g id="Grupo_159987" data-name="Grupo 159987" transform="translate(3643.035 -7926.837)">
          <g id="Grupo_159982" data-name="Grupo 159982" transform="translate(22.85 69.378)">
            <path id="Trazado_226199" data-name="Trazado 226199" d="M172.056,288.612l38.924-22.8,12.029,27.353L213.5,316.728l-24.338-9.512s-11.471-5.035-11.75-6.436S172.056,288.612,172.056,288.612Z" transform="translate(-170.376 -263.414)" fill="#ba68c8"/>
            <path id="Trazado_226200" data-name="Trazado 226200" d="M215.726,320.746l-25.882-10.114c-12.335-5.415-12.627-6.881-12.784-7.67-.209-.877-2.827-6.68-5.231-11.78l-.157-.34V289.5l41.38-24.237,13.072,29.726Zm-35.477-18.814c1.073.982,6.375,3.621,10.882,5.6l22.728,8.879,8.626-21.366L211.5,270.064l-35.979,21.074C177,294.3,179.656,300.073,180.249,301.932Z" transform="translate(-171.671 -265.264)" fill="#16110d"/>
          </g>
          <g id="Grupo_159983" data-name="Grupo 159983" transform="translate(0.244 117.651)">
            <path id="Trazado_226201" data-name="Trazado 226201" d="M166.875,297.328l33.553-20.55,21.82,13.133s22.383,23.513,21.541,26.873-7.487,29.094-7.487,29.094-40.35,4.232-40.909,1.278-20.424-20.3-20.424-20.3Z" transform="translate(-165.195 -274.815)" fill="#ba68c8"/>
            <path id="Trazado_226202" data-name="Trazado 226202" d="M204.908,351.414c-9.407,0-9.677-1.422-9.869-2.435-.689-1.824-10.655-11.292-19.874-19.346l-.384-.336-8.259-30.128-.031-1.27,35.228-21.571,23.042,13.936c15.271,16.052,22.658,25.62,21.955,28.439-.842,3.355-7.492,29.107-7.492,29.107l-.292,1.13-1.161.122C221.182,350.8,211.081,351.414,204.908,351.414Zm-6.828-3.748c3.168,1,21.393-.1,38.186-1.824,1.292-5,6.458-25.018,7.191-27.95-.332-2.16-11.1-14.769-20.974-25.149l-20.751-12.487L170.12,299.614l7.631,27.824C184.876,333.669,196.177,343.9,198.079,347.666Z" transform="translate(-166.49 -276.328)" fill="#16110d"/>
          </g>
          <g id="Grupo_159984" data-name="Grupo 159984" transform="translate(63.82 110.178)">
            <path id="Trazado_226203" data-name="Trazado 226203" d="M270.016,331.493q0-31.67-30.743-56.446c-3.045-1.636-53.776,23.413-53.776,23.413s-2.068,14.42-4.027,28.849c2.064,1.763,4.093,3.443,6.06,4.965,2.038,1.571,4.237,3.063,6.383,4.577l4.11,17.492,13.011,30.869,46.437-27.357a18.86,18.86,0,0,0,3.6-2.116l.057-.035,0-.017Q270,348.913,270.016,331.493Z" transform="translate(-179.686 -273.42)" fill="#ba68c8"/>
            <path id="Trazado_226204" data-name="Trazado 226204" d="M211.607,388.829l-13.753-32.641L193.8,339.054l-.947-.663c-1.689-1.182-3.377-2.36-4.974-3.6-1.99-1.536-4.04-3.233-6.126-5.013l-.694-.593.122-.907c1.959-14.438,4.027-28.862,4.027-28.862l.122-.877.794-.388c34.177-16.872,52.812-24.757,55.316-23.387,21.07,16.964,31.624,36.393,31.624,57.921,0,11.58-2.941,19.948-8.753,24.887l.022.148-.956.6a19.935,19.935,0,0,1-3.844,2.251Zm-26.973-61.006c1.8,1.527,3.573,2.984,5.3,4.315,1.553,1.2,3.2,2.347,4.843,3.5l2,1.4,4.259,18.116,12.173,28.832L258,357.6a18.336,18.336,0,0,0,3.268-1.885l.214-.166c5.463-4.171,8.233-11.863,8.233-22.863,0-20.332-10-38.78-29.744-54.832-4.11.4-29.181,11.881-51.559,22.915C187.946,304.018,186.266,315.812,184.634,327.823Z" transform="translate(-181.061 -274.615)"/>
          </g>
          <g id="Grupo_159986" data-name="Grupo 159986">
            <g id="Grupo_159985" data-name="Grupo 159985">
              <path id="Trazado_226205" data-name="Trazado 226205" d="M237.955,348.326l8.962,5.17q2.8,1.617,5.336,3.207l5.9,23.722.288.358,13.452-7.845,19.159-11.17,13.535-7.893c.153-.083.292-.17.441-.257l.3-.17-.009-.022a17.043,17.043,0,0,0,1.632-1.082q8.266-6.433,8.273-22.069,0-18.168-12.85-35.931-12.834-17.762-35.446-30.813-15.629-9.025-27.728-12.1a50.792,50.792,0,0,0-23.644-.55l-48.68,28.539,71.08,35.7Z" transform="translate(-164.951 -248.075)" fill="#ba68c8"/>
              <path id="Trazado_226206" data-name="Trazado 226206" d="M259.513,384.249l-1.5-2.129-5.742-23.064c-1.5-.934-3.067-1.872-4.712-2.814l-9.8-5.659V317.449l-70.43-35.381-.894-2.173,50.242-29.36a52.67,52.67,0,0,1,24.416.558c8.185,2.086,17.658,6.213,28.16,12.269,15.206,8.783,27.309,19.307,35.966,31.288,8.735,12.082,13.164,24.5,13.164,36.912,0,10.917-3,18.788-8.914,23.4q-.3.229-.615.445l.031.079-1.239.707h0l-.371.218-.38.222Zm-18.4-35.608,8.12,4.686c1.889,1.1,3.682,2.168,5.388,3.242l.576.358,5.642,22.662,45.093-26.314a15.149,15.149,0,0,0,1.466-.964c5.057-3.94,7.622-10.921,7.622-20.747,0-11.693-4.215-23.452-12.527-34.949-8.382-11.589-20.132-21.8-34.927-30.337-10.232-5.912-19.42-9.926-27.3-11.929a49.476,49.476,0,0,0-22.614-.593L171.87,280.6l69.248,34.779Z" transform="translate(-166.434 -249.363)" fill="#16110d"/>
            </g>
          </g>
          <path id="Trazado_226207" data-name="Trazado 226207" d="M266.743,336.8q0,15.635-8.268,22.073t-23.893,2.47v.689q36.441,26.33,36.437,60.818,0,23.456-16.078,27.623t-44.653-12.33a195.722,195.722,0,0,1-21.755-14.512A214.509,214.509,0,0,1,166.875,404V366.292a175.968,175.968,0,0,0,19.464,19.569,126.64,126.64,0,0,0,18.273,13.247q12.946,7.474,18.871,6.7t5.916-9.747a25,25,0,0,0-3.08-12.413,43.721,43.721,0,0,0-9.957-11.384,121.513,121.513,0,0,0-17.924-12.243l-8.958-5.17V320.7l9.154,5.293q29.975,17.3,29.975-.406a20.056,20.056,0,0,0-4.433-12.444,39.849,39.849,0,0,0-11.9-10.088q-13.94-8.043-28.875-5.868l-16.327-39.775a50.731,50.731,0,0,1,23.644.545q12.108,3.083,27.732,12.1,22.6,13.05,35.446,30.813T266.743,336.8Z" transform="translate(-164.951 -226.126)" fill="#ba68c8"/>
          <path id="Trazado_226208" data-name="Trazado 226208" d="M181.924,290.4Q211.9,307.7,211.9,290a20.064,20.064,0,0,0-4.433-12.444,37.387,37.387,0,0,0-8.382-7.858L172.77,285.111Z" transform="translate(-145.125 -180.981)" fill="#a34cb2"/>
          <path id="Trazado_226209" data-name="Trazado 226209" d="M186.871,312.722a126.623,126.623,0,0,0,18.269,13.246q12.946,7.474,18.871,6.7t5.921-9.747a25.051,25.051,0,0,0-3.08-12.413,43.742,43.742,0,0,0-9.961-11.383,121.432,121.432,0,0,0-17.919-12.243l-8.962-5.17-3.534-.24-19.067,11.676A175.277,175.277,0,0,0,186.871,312.722Z" transform="translate(-163.162 -141.373)" fill="#a34cb2"/>
          <path id="Trazado_226210" data-name="Trazado 226210" d="M191.529,310.5l48.3-27.527,3.879,17.64-.894,16.414-8.766,12.867-44.762,24.434,5.223-9.141s.742-18.452,1.117-19.486S191.529,310.5,191.529,310.5Z" transform="translate(-89.562 -136.332)" fill="#16110d"/>
          <path id="Trazado_226211" data-name="Trazado 226211" d="M199.371,314.073l48.616-28.212-10.307-10.44-34.58,20-12.659,2.993-7.7-.354Z" transform="translate(-111.578 -161.727)" fill="#16110d"/>
          <path id="Trazado_226212" data-name="Trazado 226212" d="M247.325,316.405l48.972-27.95a119.356,119.356,0,0,0-28.566-22.4Q252.1,257.04,240,253.96a50.732,50.732,0,0,0-23.644-.545L167.68,281.95l.284.144-.083-.205a50.733,50.733,0,0,1,23.644.545q12.1,3.083,27.732,12.1A119.883,119.883,0,0,1,247.325,316.405Z" transform="translate(-162.244 -239.576)" fill="#a34cb2"/>
          <path id="Trazado_226213" data-name="Trazado 226213" d="M190.942,300.3c.436,1.7.868,3.587,1.257,5.371l48.427-27.379a58.565,58.565,0,0,0-3.539-14.988L187.46,291.2A51.6,51.6,0,0,1,190.942,300.3Z" transform="translate(-95.72 -202.485)" fill="#a34cb2"/>
          <path id="Trazado_226214" data-name="Trazado 226214" d="M249.53,454.266c-10.245,0-23.182-4.477-38.6-13.373a198.936,198.936,0,0,1-21.942-14.643,217.855,217.855,0,0,1-21.833-19.787l-.48-.489V366.641L168.7,365.4l.929,1.086a174.816,174.816,0,0,0,19.276,19.381,125.089,125.089,0,0,0,18.024,13.076c10.293,5.947,15.38,6.837,17.815,6.492,1.915-.253,4.459-1.361,4.459-8.085a23.51,23.51,0,0,0-2.871-11.6,42.287,42.287,0,0,0-9.581-10.921,119.591,119.591,0,0,0-17.671-12.064l-9.8-5.659V321.033l1.671-.982,10,5.777c15.686,9.062,22.182,9.123,24.861,7.574,1.745-1.008,2.592-3.141,2.592-6.523a18.49,18.49,0,0,0-4.084-11.418,38.363,38.363,0,0,0-11.405-9.66,42.356,42.356,0,0,0-27.793-5.659l-1.3.188-17.4-42.379,1.623-.855.144-.031a52.551,52.551,0,0,1,24.416.559c8.185,2.086,17.658,6.213,28.155,12.269,15.21,8.783,27.313,19.307,35.966,31.288,8.735,12.082,13.168,24.5,13.168,36.912,0,10.917-3,18.788-8.918,23.4-4.778,3.726-11.266,5.039-19.324,3.962,21.585,17.029,32.519,36.751,32.519,58.693,0,16.423-5.833,26.262-17.335,29.251A29.172,29.172,0,0,1,249.53,454.266ZM170.038,404.6a211.52,211.52,0,0,0,21.009,18.993,193.785,193.785,0,0,0,21.567,14.385c18.565,10.725,33.164,14.83,43.387,12.16,9.974-2.583,14.822-11.087,14.822-26,0-22.318-12.025-42.318-35.743-59.461l-.694-.5v-3.7l2.09.532c9.839,2.491,17.4,1.767,22.448-2.173s7.622-10.921,7.622-20.747c0-11.693-4.215-23.452-12.527-34.949-8.377-11.589-20.127-21.8-34.927-30.337-10.232-5.912-19.416-9.926-27.3-11.929a49.537,49.537,0,0,0-20.9-.921l15.057,36.694a45.6,45.6,0,0,1,28.657,6.239,41.791,41.791,0,0,1,12.387,10.524,21.777,21.777,0,0,1,4.782,13.465c0,4.62-1.44,7.793-4.276,9.429-5.083,2.928-14.311.458-28.216-7.57l-6.641-3.835V355.17l8.124,4.686a123.353,123.353,0,0,1,18.168,12.426,45.458,45.458,0,0,1,10.336,11.837,26.809,26.809,0,0,1,3.294,13.233c0,8.635-4.014,10.973-7.378,11.414-4.376.554-10.886-1.693-19.927-6.911a128.724,128.724,0,0,1-18.522-13.425,173.654,173.654,0,0,1-16.7-16.384Z" transform="translate(-166.434 -227.418)" fill="#16110d"/>
        </g>
      </g>
    </g>
    <g id="Grupo_159997" data-name="Grupo 159997" transform="translate(-2635.329 10456.76)">
      <g id="Grupo_159996" data-name="Grupo 159996" transform="translate(3122 -7902.954)">
        <path id="Trazado_226358" data-name="Trazado 226358" d="M90.488,255.279,137.673,281.2l-32.48,18.752L58.007,274.032Z" transform="translate(-10.055 -253.35)" fill="#ba68c8"/>
        <g id="Grupo_159995" data-name="Grupo 159995" transform="translate(42 87.586)">
          <path id="Trazado_226359" data-name="Trazado 226359" d="M104.926,279.813l-.523,21.463-.024,87.581L57.194,362.933l-.165-74.443,44.1-13.138Z" transform="translate(-55.347 -273.428)" fill="#ba68c8"/>
          <path id="Trazado_226360" data-name="Trazado 226360" d="M105.694,392.267l-48.88-26.86-.17-76.683L103,274.911l4.913,5.786-.537,22.1-.022,88.507ZM60.168,363.422,104,387.5l.026-84.741.506-20.865-2.67-3.141L60,291.225Z" transform="translate(-56.643 -274.911)" fill="#16110d"/>
        </g>
        <path id="Trazado_226361" data-name="Trazado 226361" d="M47.51,329.114,94.7,355.038,140.5,285.5,93.313,259.577Z" transform="translate(-45.36 -238.896)" fill="#ba68c8"/>
        <path id="Trazado_226362" data-name="Trazado 226362" d="M90.488,257.78,137.673,283.7l-32.48,18.752L58.007,276.532Z" transform="translate(-10.055 -244.94)" fill="#a34cb2"/>
        <path id="Trazado_226363" data-name="Trazado 226363" d="M127.43,254.837l-33.64,19.42-46.773,71.01,1.187,1.174L67.061,362.28l47.052,25.852,1.6.672,15.917-24.364c1.833-2.941,3.512-5.768,5.026-8.452-.188,6.383-.284,13.19-.284,20.315v82.542l1.7.934L176.315,437.7v-156ZM95.806,368.763,51.572,344.456l43.946-66.722,3.949,2.168,40.285,22.134ZM153.077,293.2l-10.943,6.318L104.244,278.7l-5.851-3.216,29.076-16.794,43.745,24.037Z" transform="translate(-47.017 -254.837)" fill="#16110d"/>
      </g>
    </g>
  </g>
</svg>
