<svg xmlns="http://www.w3.org/2000/svg" width="251.899" height="263.269" viewBox="0 0 251.899 263.269">
  <g id="Grupo_160030" data-name="Grupo 160030" transform="translate(-937 -3645.53)">
    <g id="Grupo_80321" data-name="Grupo 80321" transform="translate(100.64 3115.115)">
      <path id="Trazado_115208" data-name="Trazado 115208" d="M1046.785,597.359a106.859,106.859,0,0,1,19.064,45c6.754,40.278-12.3,75.136-44.563,87.759-14.318,28.59-45.147,44.616-80.217,38.027-47.479-8.918-84.757-55.9-83.263-104.938a122.788,122.788,0,0,1,15.36-54.848,102.91,102.91,0,0,1,34.941-36.847c16.677-10.5,36.174-16.154,57.948-16.8,31.245-.941,61.557,16.268,80.733,42.653Zm-17.137,100.347c.043-.746.068-1.481.092-2.2C1029.716,696.241,1029.688,696.974,1029.648,697.706Z" fill="#64b5f6"/>
      <g id="Sparkles">
        <path id="Trazado_115414" data-name="Trazado 115414" d="M940.943,733.7l1.034-.086a.211.211,0,0,0,.2-.226v-.009a.2.2,0,0,0-.131-.18l-.958-.4a1.121,1.121,0,0,1-.682-.938l-.086-1.035a.214.214,0,0,0-.228-.2h-.007a.206.206,0,0,0-.18.131l-.4.958a1.12,1.12,0,0,1-.939.682l-1.034.086a.215.215,0,0,0-.2.229v.006a.212.212,0,0,0,.131.18l.958.4a1.121,1.121,0,0,1,.682.939l.086,1.034a.213.213,0,0,0,.228.2h.006a.2.2,0,0,0,.18-.131l.4-.958A1.122,1.122,0,0,1,940.943,733.7Z" fill="#3d3d3d"/>
        <path id="Trazado_115415" data-name="Trazado 115415" d="M1046.782,574.494l1.386-.117a.289.289,0,0,0,.267-.309h0a.3.3,0,0,0-.18-.245l-1.282-.538a1.5,1.5,0,0,1-.915-1.263l-.116-1.386a.292.292,0,0,0-.315-.267h0a.291.291,0,0,0-.245.178l-.539,1.282a1.5,1.5,0,0,1-1.26.915l-1.387.119a.289.289,0,0,0-.266.31h0a.292.292,0,0,0,.178.245l1.283.539a1.5,1.5,0,0,1,.915,1.259l.117,1.387a.292.292,0,0,0,.315.267h0a.3.3,0,0,0,.246-.178l.539-1.282A1.5,1.5,0,0,1,1046.782,574.494Z" fill="#3d3d3d"/>
        <path id="Trazado_115416" data-name="Trazado 115416" d="M961.758,663.353l.772-.064a.164.164,0,0,0,.142-.182h0a.168.168,0,0,0-.093-.128l-.714-.3a.837.837,0,0,1-.509-.7l-.063-.771a.165.165,0,0,0-.184-.142h0a.161.161,0,0,0-.125.092l-.3.713a.838.838,0,0,1-.7.509l-.776.064a.164.164,0,0,0-.049.311l.714.3a.839.839,0,0,1,.509.7l.063.775a.164.164,0,0,0,.184.142.167.167,0,0,0,.127-.092l.3-.715A.839.839,0,0,1,961.758,663.353Z" fill="#3d3d3d"/>
        <path id="Trazado_115417" data-name="Trazado 115417" d="M1008.024,576.935l.826-.069a.172.172,0,0,0,.158-.185h0a.173.173,0,0,0-.1-.145l-.764-.321a.89.89,0,0,1-.542-.745l-.068-.825a.172.172,0,0,0-.186-.157h0a.186.186,0,0,0-.145.1l-.32.763a.89.89,0,0,1-.745.541l-.824.07a.173.173,0,0,0-.159.185h0a.173.173,0,0,0,.105.145l.764.32a.89.89,0,0,1,.541.745l.07.826a.171.171,0,0,0,.185.158h0a.182.182,0,0,0,.144-.1l.32-.764A.89.89,0,0,1,1008.024,576.935Z" fill="#3d3d3d"/>
        <path id="Trazado_115418" data-name="Trazado 115418" d="M1026.181,763.377l1.278-.107a.266.266,0,0,0,.243-.289h0a.267.267,0,0,0-.162-.223l-1.182-.5a1.378,1.378,0,0,1-.843-1.161l-.108-1.278a.268.268,0,0,0-.513-.082l-.5,1.183a1.385,1.385,0,0,1-1.161.843l-1.278.107a.267.267,0,0,0-.244.29h0a.268.268,0,0,0,.162.224l1.182.5a1.377,1.377,0,0,1,.843,1.159l.108,1.279a.268.268,0,0,0,.514.081l.5-1.183A1.381,1.381,0,0,1,1026.181,763.377Z" fill="#3d3d3d"/>
      </g>
      <rect id="Rectángulo_33823" data-name="Rectángulo 33823" width="231.975" height="218.298" transform="translate(836.36 759.534) rotate(-81)" fill="none"/>
    </g>
    <g id="testbook" transform="translate(533.507 2674.097)">
      <g id="Grupo_139264" data-name="Grupo 139264">
        <path id="Trazado_134086" data-name="Trazado 134086" d="M636.882,1100.267l-48.21,27.833c-2.025,5.59-6.043,10.927-10.673,13.606s-8.659,1.982-10.674-1.277l-48.22,27.834-95.112-54.907,12.34-7.13-1.223,5.653,86.547,49.961s28.909-29.447,49.286-31.23c2.932-.263,6.275-2.193,9.207-5.315,20.377-21.748,49.286-25.682,49.286-25.682l-1.266-4.377Z" fill="#5f646b"/>
        <path id="Trazado_134087" data-name="Trazado 134087" d="M628.17,1095.236l1.266,4.377s-28.909,3.934-49.286,25.682c-2.932,3.122-6.275,5.052-9.207,5.315-20.377,1.783-49.286,31.23-49.286,31.23l3.407-15.715c8.237-7.742,29.742-26.515,45.879-27.928a11.257,11.257,0,0,0,4.6-1.582,20.474,20.474,0,0,0,4.609-3.734c16.137-17.223,37.642-23.277,45.879-25.049Z" fill="#ba68c8"/>
        <path id="Trazado_134088" data-name="Trazado 134088" d="M561.451,1070.841a24.614,24.614,0,0,0-5.9,2.394c-7.689,4.43-8.111,11.37-.97,15.494s19.174,3.881,26.852-.549,8.119-11.394.96-15.5a19.329,19.329,0,0,0-2.352-1.139h-.011C574.676,1069.4,567.578,1069.175,561.451,1070.841Zm-21.969-32.969,86.547,49.96c-8.237,1.772-29.742,7.826-45.879,25.049a20.474,20.474,0,0,1-4.609,3.734L489,1066.654a20.7,20.7,0,0,0,4.609-3.734C509.75,1045.687,531.244,1039.643,539.482,1037.872Z" fill="#fff"/>
        <path id="Trazado_134089" data-name="Trazado 134089" d="M582.4,1072.676c7.159,4.11,6.718,11.064-.96,15.5s-19.7,4.683-26.852.549-6.719-11.064.97-15.494a24.614,24.614,0,0,1,5.9-2.394l3.5,4.915v.01a11.689,11.689,0,0,0-2.953,1.192c-3.849,2.226-4.06,5.706-.474,7.773s9.608,1.941,13.457-.284,4.078-5.706.486-7.773a8.5,8.5,0,0,0-1.182-.559v-.011l5.748-4.567h.011A19.329,19.329,0,0,1,582.4,1072.676Z" fill="#fff"/>
        <path id="Trazado_134090" data-name="Trazado 134090" d="M580.034,1071.537l-5.748,4.567v.011a15.324,15.324,0,0,0-9.334-.349v-.01l-3.5-4.915C567.578,1069.175,574.676,1069.4,580.034,1071.537Z" fill="#fef536"/>
        <path id="Trazado_134091" data-name="Trazado 134091" d="M575.468,1076.674c3.592,2.067,3.364,5.558-.486,7.773s-9.882,2.352-13.457.284-3.375-5.547.474-7.773a11.689,11.689,0,0,1,2.953-1.192,15.5,15.5,0,0,1,9.334.349A8.982,8.982,0,0,1,575.468,1076.674Z" fill="#fff"/>
        <path id="Trazado_134092" data-name="Trazado 134092" d="M489,1066.654l86.537,49.961a11.257,11.257,0,0,1-4.6,1.582c-16.137,1.413-37.642,20.186-45.879,27.928l-86.537-49.961c8.237-7.752,29.732-26.515,45.879-27.928A11.289,11.289,0,0,0,489,1066.654Z" fill="#fff"/>
        <path id="Trazado_134093" data-name="Trazado 134093" d="M525.064,1146.125l-3.407,15.715-86.548-49.961,1.224-5.653h.01l2.183-10.062Z" fill="#ba68c8"/>
      </g>
      <g id="Grupo_139265" data-name="Grupo 139265">
        <path id="Trazado_134094" data-name="Trazado 134094" d="M628.17,1095.236l8.712,5.031-48.21,27.833c-2.025,5.59-6.043,10.927-10.673,13.606s-8.659,1.982-10.674-1.277l-48.22,27.834-95.112-54.907,12.34-7.13" fill="none" stroke="#373a3a" stroke-linecap="round" stroke-linejoin="round" stroke-width="3"/>
        <line id="Línea_382" data-name="Línea 382" x1="86.537" y1="49.96" transform="translate(438.527 1096.164)" fill="none" stroke="#373a3a" stroke-linecap="round" stroke-linejoin="round" stroke-width="3"/>
        <path id="Trazado_134095" data-name="Trazado 134095" d="M626.029,1087.832c-8.237,1.772-29.742,7.826-45.879,25.049a20.58,20.58,0,0,1-4.609,3.734,11.3,11.3,0,0,1-4.6,1.582c-16.137,1.413-37.642,20.186-45.879,27.928l-3.407,15.715s28.909-29.447,49.286-31.23c2.932-.263,6.275-2.193,9.207-5.315,20.377-21.748,49.286-25.682,49.286-25.682l-3.407-11.781-86.547-49.96c-8.238,1.771-29.732,7.815-45.869,25.048a20.7,20.7,0,0,1-4.609,3.734,11.289,11.289,0,0,1-4.6,1.582c-16.147,1.413-37.642,20.176-45.879,27.928l-2.183,10.062h-.011l-1.223,5.653,86.547,49.961" fill="none" stroke="#373a3a" stroke-linecap="round" stroke-linejoin="round" stroke-width="3"/>
        <path id="Trazado_134096" data-name="Trazado 134096" d="M547.139,1055.706a63.439,63.439,0,0,0-22.075,12.024" fill="none" stroke="#373a3a" stroke-linecap="round" stroke-linejoin="round" stroke-width="3"/>
        <path id="Trazado_134097" data-name="Trazado 134097" d="M555.692,1060.642a63.48,63.48,0,0,0-22.085,12.024" fill="none" stroke="#373a3a" stroke-linecap="round" stroke-linejoin="round" stroke-width="3"/>
        <line id="Línea_383" data-name="Línea 383" x2="86.537" y2="49.961" transform="translate(489.004 1066.654)" fill="none" stroke="#373a3a" stroke-linecap="round" stroke-linejoin="round" stroke-width="3"/>
        <path id="Trazado_134098" data-name="Trazado 134098" d="M527.637,1100.889a88.147,88.147,0,0,0-28.571,16.443c-.064.052-.137.116-.2.169L472.3,1102.155" fill="none" stroke="#373a3a" stroke-linecap="round" stroke-linejoin="round" stroke-width="3"/>
        <path id="Trazado_134099" data-name="Trazado 134099" d="M499.119,1117.5c-.021-.053-.032-.116-.053-.169-5.748-19.048,7.741-26.842,7.741-26.842" fill="none" stroke="#373a3a" stroke-linecap="round" stroke-linejoin="round" stroke-width="3"/>
        <path id="Trazado_134100" data-name="Trazado 134100" d="M499.351,1091.534l7.457-1.044,1.793,4.314" fill="none" stroke="#373a3a" stroke-linecap="round" stroke-linejoin="round" stroke-width="3"/>
        <path id="Trazado_134101" data-name="Trazado 134101" d="M580.045,1071.537a19.329,19.329,0,0,1,2.352,1.139c7.159,4.11,6.718,11.064-.96,15.5s-19.7,4.683-26.852.549-6.719-11.064.97-15.494a24.752,24.752,0,0,1,5.9-2.394c6.13-1.657,13.225-1.445,18.583.7Z" fill="none" stroke="#373a3a" stroke-linecap="round" stroke-linejoin="round" stroke-width="3"/>
        <path id="Trazado_134102" data-name="Trazado 134102" d="M574.286,1076.115a8.982,8.982,0,0,1,1.182.559c3.592,2.067,3.364,5.558-.486,7.773s-9.882,2.352-13.457.284-3.375-5.547.474-7.773a12.021,12.021,0,0,1,2.953-1.192A15.7,15.7,0,0,1,574.286,1076.115Z" fill="none" stroke="#373a3a" stroke-linecap="round" stroke-linejoin="round" stroke-width="3"/>
        <path id="Trazado_134103" data-name="Trazado 134103" d="M564.952,1075.756l-3.5-4.915-.011-.01" fill="none" stroke="#373a3a" stroke-linecap="round" stroke-linejoin="round" stroke-width="3"/>
        <path id="Trazado_134104" data-name="Trazado 134104" d="M574.286,1076.1l5.748-4.567h.01" fill="none" stroke="#373a3a" stroke-linecap="round" stroke-linejoin="round" stroke-width="3"/>
      </g>
    </g>
  </g>
</svg>
