<svg xmlns="http://www.w3.org/2000/svg" width="139.328" height="71.632" viewBox="0 0 139.328 71.632">
  <g id="Grupo_159745" data-name="Grupo 159745" transform="translate(-364.777 -244.447)">
    <g id="Grupo_159744" data-name="Grupo 159744" transform="translate(364.777 244.448)">
      <g id="Grupo_159732" data-name="Grupo 159732">
        <g id="Grupo_159717" data-name="Grupo 159717">
          <path id="Trazado_225853" data-name="Trazado 225853" d="M411.34,312.118l-45.865-26.481c-.607-.35-.53-.962.17-1.367l63.907-36.9a2.633,2.633,0,0,1,2.368-.1l45.865,26.481c.607.35.53.961-.17,1.367l-63.907,36.9A2.633,2.633,0,0,1,411.34,312.118Z" transform="translate(-364.747 -244.176)" fill="#f6f6f6"/>
          <path id="Trazado_225854" data-name="Trazado 225854" d="M412.4,310.4a2.406,2.406,0,0,1-1.189-.279l-45.867-26.48a1.009,1.009,0,0,1-.569-.868,1.279,1.279,0,0,1,.739-1.049l63.908-36.9a2.933,2.933,0,0,1,2.684-.1l45.866,26.48a1.008,1.008,0,0,1,.568.869,1.275,1.275,0,0,1-.738,1.047l-63.907,36.9A3.063,3.063,0,0,1,412.4,310.4Zm18.524-65.316a2.443,2.443,0,0,0-1.183.293l-63.907,36.9c-.26.15-.421.34-.421.5s.157.265.251.318l45.867,26.481a2.324,2.324,0,0,0,2.048-.1l63.908-36.9c.26-.15.42-.341.42-.5s-.157-.264-.251-.318l-45.865-26.481A1.78,1.78,0,0,0,430.925,245.082Z" transform="translate(-364.777 -244.448)"/>
        </g>
        <g id="Grupo_159718" data-name="Grupo 159718" transform="translate(40.323 6.142)">
          <path id="Trazado_225855" data-name="Trazado 225855" d="M418.337,275.534l-16.63-9.6c-.219-.127-.191-.348.062-.494l23.035-13.3a.953.953,0,0,1,.855-.035l16.63,9.6c.219.126.191.348-.062.494l-23.035,13.3A.946.946,0,0,1,418.337,275.534Z" transform="translate(-401.242 -249.795)"/>
          <path id="Trazado_225856" data-name="Trazado 225856" d="M418.739,274.241a1.078,1.078,0,0,1-.531-.127l-16.63-9.6a.567.567,0,0,1-.306-.489.657.657,0,0,1,.368-.555l23.035-13.3a1.263,1.263,0,0,1,1.173-.035l16.63,9.6a.565.565,0,0,1,.306.489.658.658,0,0,1-.368.555l-23.035,13.3A1.3,1.3,0,0,1,418.739,274.241Zm-16.762-10.234,16.548,9.556a.655.655,0,0,0,.538-.036l23.016-13.289-16.549-9.555a.66.66,0,0,0-.537.035Z" transform="translate(-401.272 -250.006)"/>
        </g>
        <g id="Grupo_159719" data-name="Grupo 159719" transform="translate(82.239 18.414)">
          <path id="Trazado_225858" data-name="Trazado 225858" d="M456.679,274.792,439.55,264.9c-.081-.048-.071-.129.023-.183l2.953-1.7a.351.351,0,0,1,.317-.013l17.129,9.889c.081.048.071.129-.023.183l-2.953,1.7A.351.351,0,0,1,456.679,274.792Z" transform="translate(-439.178 -260.918)" fill="#febd33"/>
          <path id="Trazado_225859" data-name="Trazado 225859" d="M456.849,273.6a.6.6,0,0,1-.3-.074h0l-17.128-9.89a.408.408,0,0,1-.214-.354.444.444,0,0,1,.236-.38l2.953-1.7a.669.669,0,0,1,.635-.013l17.128,9.89a.411.411,0,0,1,.214.356.443.443,0,0,1-.237.378l-2.952,1.7A.665.665,0,0,1,456.849,273.6Zm-16.781-10.324,16.777,9.687,2.668-1.529-16.8-9.7Z" transform="translate(-439.208 -261.113)"/>
        </g>
        <g id="Grupo_159720" data-name="Grupo 159720" transform="translate(77.006 21.434)">
          <path id="Trazado_225860" data-name="Trazado 225860" d="M451.943,277.527l-17.129-9.89c-.081-.046-.071-.129.023-.183l2.953-1.7a.355.355,0,0,1,.317-.013l17.129,9.89c.081.046.071.128-.023.183l-2.954,1.7A.354.354,0,0,1,451.943,277.527Z" transform="translate(-434.442 -263.652)" fill="#febd33"/>
          <path id="Trazado_225861" data-name="Trazado 225861" d="M452.113,276.337a.6.6,0,0,1-.3-.073h0l-17.129-9.89a.406.406,0,0,1-.213-.352.443.443,0,0,1,.235-.38l2.954-1.706a.663.663,0,0,1,.635-.012l17.129,9.889a.41.41,0,0,1,.213.355.439.439,0,0,1-.236.378l-2.954,1.706A.679.679,0,0,1,452.113,276.337Zm-16.781-10.324,16.777,9.687,2.67-1.529-16.8-9.7Z" transform="translate(-434.472 -263.847)"/>
        </g>
        <g id="Grupo_159721" data-name="Grupo 159721" transform="translate(71.773 24.455)">
          <path id="Trazado_225862" data-name="Trazado 225862" d="M447.207,280.262l-17.129-9.89c-.081-.046-.071-.128.023-.182l2.953-1.706a.351.351,0,0,1,.317-.012L450.5,278.36c.081.048.071.129-.023.183l-2.953,1.7A.355.355,0,0,1,447.207,280.262Z" transform="translate(-429.706 -266.386)" fill="#febd33"/>
          <path id="Trazado_225863" data-name="Trazado 225863" d="M447.377,279.072a.59.59,0,0,1-.3-.075l-17.129-9.889a.412.412,0,0,1-.213-.355.442.442,0,0,1,.236-.379l2.953-1.7a.664.664,0,0,1,.634-.014l17.13,9.891a.409.409,0,0,1,.213.352.445.445,0,0,1-.235.38l-2.955,1.7A.679.679,0,0,1,447.377,279.072ZM430.6,268.747l16.778,9.687,2.668-1.528-16.8-9.7Z" transform="translate(-429.736 -266.581)"/>
        </g>
        <g id="Grupo_159722" data-name="Grupo 159722" transform="translate(66.54 27.476)">
          <path id="Trazado_225864" data-name="Trazado 225864" d="M442.471,283l-17.129-9.889c-.081-.048-.071-.129.023-.184l2.953-1.7a.351.351,0,0,1,.317-.013l17.129,9.889c.081.047.071.129-.023.183l-2.953,1.7A.351.351,0,0,1,442.471,283Z" transform="translate(-424.97 -269.121)" fill="#febd33"/>
          <path id="Trazado_225865" data-name="Trazado 225865" d="M442.641,281.806a.613.613,0,0,1-.3-.074h0l-17.128-9.889a.411.411,0,0,1-.214-.356.442.442,0,0,1,.238-.378l2.952-1.7a.665.665,0,0,1,.636-.013l17.127,9.89a.409.409,0,0,1,.214.354.445.445,0,0,1-.237.38l-2.953,1.7A.693.693,0,0,1,442.641,281.806ZM425.86,271.482l16.778,9.685,2.668-1.528-16.8-9.7Z" transform="translate(-425 -269.315)"/>
        </g>
        <g id="Grupo_159723" data-name="Grupo 159723" transform="translate(61.307 30.499)">
          <path id="Trazado_225866" data-name="Trazado 225866" d="M437.735,285.73l-17.129-9.89c-.081-.048-.071-.129.023-.183l2.953-1.7a.354.354,0,0,1,.317-.013l17.129,9.89c.081.046.071.128-.023.182l-2.953,1.706A.354.354,0,0,1,437.735,285.73Z" transform="translate(-420.234 -271.856)" fill="#febd33"/>
          <path id="Trazado_225867" data-name="Trazado 225867" d="M437.9,284.541a.6.6,0,0,1-.3-.075l-17.128-9.89a.409.409,0,0,1-.214-.356.443.443,0,0,1,.236-.378l2.954-1.7a.672.672,0,0,1,.635-.014l17.129,9.89a.412.412,0,0,1,.213.356.442.442,0,0,1-.237.378l-2.952,1.7A.683.683,0,0,1,437.9,284.541Zm-16.781-10.325L437.9,283.9l2.668-1.528-16.8-9.7Z" transform="translate(-420.264 -272.051)"/>
        </g>
        <g id="Grupo_159724" data-name="Grupo 159724" transform="translate(31.904 22.8)">
          <path id="Trazado_225868" data-name="Trazado 225868" d="M432.419,291.059l-38.4-22.17c-.12-.07-.106-.192.034-.273l2.785-1.609a.53.53,0,0,1,.474-.02l38.4,22.17c.121.07.106.192-.033.273l-2.787,1.609A.527.527,0,0,1,432.419,291.059Z" transform="translate(-393.622 -264.889)" fill="#64b5f6"/>
          <path id="Trazado_225869" data-name="Trazado 225869" d="M432.657,289.883a.742.742,0,0,1-.367-.09l-38.4-22.169a.459.459,0,0,1-.241-.395.5.5,0,0,1,.274-.43l2.787-1.608a.835.835,0,0,1,.791-.02l38.4,22.169a.459.459,0,0,1,.241.393.5.5,0,0,1-.274.43l-2.787,1.609A.858.858,0,0,1,432.657,289.883Zm-.051-.641a.248.248,0,0,0,.157-.019l2.563-1.479-38.141-22.021a.24.24,0,0,0-.156.02l-2.562,1.479Z" transform="translate(-393.652 -265.083)"/>
        </g>
        <g id="Grupo_159725" data-name="Grupo 159725" transform="translate(26.671 25.822)">
          <path id="Trazado_225870" data-name="Trazado 225870" d="M427.683,293.793l-38.4-22.169c-.122-.071-.107-.193.033-.274l2.785-1.608a.523.523,0,0,1,.474-.02l38.4,22.169c.122.07.107.192-.033.273l-2.787,1.609A.527.527,0,0,1,427.683,293.793Z" transform="translate(-388.886 -267.623)" fill="#64b5f6"/>
          <path id="Trazado_225871" data-name="Trazado 225871" d="M427.921,292.617a.742.742,0,0,1-.367-.088h0l-38.4-22.169a.454.454,0,0,1-.241-.393.5.5,0,0,1,.274-.431l2.786-1.608a.842.842,0,0,1,.791-.02l38.4,22.169a.455.455,0,0,1,.241.393.5.5,0,0,1-.274.431l-2.787,1.609A.869.869,0,0,1,427.921,292.617Zm-.052-.641a.247.247,0,0,0,.159-.019l2.562-1.479-38.14-22.021a.242.242,0,0,0-.157.02l-2.562,1.479Z" transform="translate(-388.916 -267.818)"/>
        </g>
        <g id="Grupo_159726" data-name="Grupo 159726" transform="translate(21.438 28.843)">
          <path id="Trazado_225872" data-name="Trazado 225872" d="M422.947,296.527l-38.4-22.169c-.122-.071-.107-.192.033-.274l2.785-1.608a.529.529,0,0,1,.474-.02l38.4,22.169c.122.071.106.192-.033.274l-2.787,1.608A.524.524,0,0,1,422.947,296.527Z" transform="translate(-384.15 -270.358)" fill="#64b5f6"/>
          <path id="Trazado_225873" data-name="Trazado 225873" d="M423.184,295.352a.74.74,0,0,1-.366-.089h0l-38.4-22.169a.456.456,0,0,1-.241-.393.5.5,0,0,1,.275-.431l2.784-1.608a.847.847,0,0,1,.792-.02l38.4,22.17a.453.453,0,0,1,.241.392.5.5,0,0,1-.274.431l-2.787,1.609A.858.858,0,0,1,423.184,295.352Zm-.051-.642a.239.239,0,0,0,.159-.019l2.562-1.478-38.14-22.022a.253.253,0,0,0-.156.02L385,272.691Z" transform="translate(-384.18 -270.552)"/>
        </g>
        <g id="Grupo_159727" data-name="Grupo 159727" transform="translate(16.164 31.84)">
          <path id="Trazado_225874" data-name="Trazado 225874" d="M398.552,287.911l-18.8-10.854c-.085-.05-.074-.135.024-.192l2.937-1.695a.37.37,0,0,1,.333-.014l18.8,10.854c.085.05.074.136-.024.192l-2.937,1.7A.37.37,0,0,1,398.552,287.911Z" transform="translate(-379.376 -273.07)" fill="#64b5f6"/>
          <path id="Trazado_225875" data-name="Trazado 225875" d="M398.728,286.724a.615.615,0,0,1-.3-.076h0l-18.8-10.856a.417.417,0,0,1-.217-.358.445.445,0,0,1,.24-.383l2.938-1.7a.685.685,0,0,1,.649-.014l18.8,10.856a.417.417,0,0,1,.217.357.446.446,0,0,1-.239.384l-2.939,1.7A.7.7,0,0,1,398.728,286.724Zm-18.465-11.3,18.457,10.658,2.673-1.526L382.916,273.89Z" transform="translate(-379.406 -273.265)"/>
        </g>
        <g id="Grupo_159728" data-name="Grupo 159728" transform="translate(10.932 34.861)">
          <path id="Trazado_225876" data-name="Trazado 225876" d="M393.816,290.646l-18.8-10.856c-.085-.049-.074-.135.024-.191l2.937-1.7a.37.37,0,0,1,.333-.014l18.8,10.856c.085.049.074.135-.024.191l-2.937,1.7A.373.373,0,0,1,393.816,290.646Z" transform="translate(-374.641 -275.804)" fill="#64b5f6"/>
          <path id="Trazado_225877" data-name="Trazado 225877" d="M393.993,289.458a.617.617,0,0,1-.306-.076l-18.8-10.854a.418.418,0,0,1-.217-.36.443.443,0,0,1,.24-.382l2.937-1.695a.68.68,0,0,1,.65-.015l18.8,10.856a.411.411,0,0,1,.216.359.447.447,0,0,1-.241.383l-2.936,1.695A.687.687,0,0,1,393.993,289.458Zm-18.466-11.3,18.459,10.657,2.671-1.526L378.18,276.624Z" transform="translate(-374.671 -275.999)"/>
        </g>
        <g id="Grupo_159729" data-name="Grupo 159729" transform="translate(39.876 51.572)">
          <path id="Trazado_225878" data-name="Trazado 225878" d="M410.839,300.474l-9.644-5.569c-.061-.035-.053-.1.018-.137l3.037-1.755a.268.268,0,0,1,.239-.01l9.644,5.569c.062.035.054.1-.017.137l-3.037,1.755A.267.267,0,0,1,410.839,300.474Z" transform="translate(-400.837 -290.929)" fill="#afafaf"/>
          <path id="Trazado_225879" data-name="Trazado 225879" d="M410.975,299.276a.539.539,0,0,1-.263-.065h0l-9.644-5.568a.388.388,0,0,1-.2-.336.415.415,0,0,1,.217-.352l3.039-1.754a.577.577,0,0,1,.557-.01l9.644,5.568a.385.385,0,0,1,.2.334.41.41,0,0,1-.215.354l-3.04,1.755A.589.589,0,0,1,410.975,299.276Zm-9.224-5.973,9.23,5.329,2.657-1.535-9.229-5.329Z" transform="translate(-400.867 -291.124)"/>
        </g>
        <g id="Grupo_159730" data-name="Grupo 159730" transform="translate(40.187 16.922)">
          <path id="Trazado_225882" data-name="Trazado 225882" d="M418.641,273.3a1.177,1.177,0,0,1-.586-.145l-16.57-9.567a.572.572,0,0,1,0-1.042l4.763-2.685a14.12,14.12,0,0,1,6.8.859L418.493,263l4.081,3.485a3.73,3.73,0,0,1,1.479,3.767l-.032.131-4.8,2.769A1.192,1.192,0,0,1,418.641,273.3ZM401.857,263.06l16.516,9.541a.633.633,0,0,0,.535,0l4.557-2.63a3.172,3.172,0,0,0-1.3-3l-4.043-3.453L412.8,261.3a13.44,13.44,0,0,0-6.481-.814h-.009Z" transform="translate(-401.149 -259.763)"/>
        </g>
      </g>
      <g id="Grupo_159743" data-name="Grupo 159743" transform="translate(55.296 16.206)">
        <g id="Grupo_159733" data-name="Grupo 159733" transform="translate(0 13.454)">
          <path id="Trazado_225886" data-name="Trazado 225886" d="M464.451,278.27l.076-5.242-2.3-.033c-.02-.025-.043-.05-.063-.075l-1.919,5.489-.78-.011-1.966,2.65-8.6,3.4-11.988,1.145L428.2,284.15l-8.05-6.8c.04-.223.1-.445.157-.667l-2.372-4.428c-.028.033-.06.066-.087.1l-2.335-.034-.086,5.933c0,.072,0,.145,0,.217l0,.272.035.441c.285,3.351,2.614,6.678,7.006,9.3,9.5,5.67,25.035,5.9,34.7.5,4.466-2.493,6.89-5.75,7.274-9.092h0l.03-.107A9.175,9.175,0,0,0,464.451,278.27Z" transform="translate(-414.761 -271.191)" fill="#64b5f6"/>
          <path id="Trazado_225887" data-name="Trazado 225887" d="M440.43,293.624c-6.613,0-13.257-1.5-18.247-4.481-4.41-2.631-7.01-6.114-7.326-9.807l-.034-.444.1-7.139,2.682.039.423-.5.544.751,2.5,4.662-.072.254c-.023.081-.044.161-.065.243l7.612,6.43,8.458,1.4,11.809-1.128,8.34-3.3,2.054-2.77.643.01,2.148-6.145.61.742,2.65.038-.085,5.865a9.781,9.781,0,0,1,0,1.568l-.021.14c-.435,3.693-3.138,7.1-7.618,9.6A35.843,35.843,0,0,1,440.43,293.624Zm-24.214-20.54-.084,5.765.032.379c.277,3.257,2.654,6.379,6.689,8.788,9.307,5.553,24.577,5.775,34.04.494,4.1-2.29,6.57-5.343,6.942-8.6l.033-.144a8.534,8.534,0,0,0-.009-1.347l0-.064.067-4.585-1.258-.018-1.892,5.415-.917-.013-1.878,2.53-8.951,3.512-12.074,1.155-8.983-1.489-8.476-7.161.066-.372c.029-.158.063-.316.1-.473l-2.013-3.758Z" transform="translate(-414.823 -271.292)" fill="#16110d"/>
        </g>
        <g id="Grupo_159734" data-name="Grupo 159734" transform="translate(1.786 1.036)">
          <path id="Trazado_225888" data-name="Trazado 225888" d="M417.174,274.189c.924,1.278,1.98,2.735,2.876,3.968.581-2.42,2.5-4.739,5.756-6.556,7.839-4.376,20.444-4.193,28.153.409,3.17,1.892,5.015,4.236,5.549,6.645l2.68-4.251c-.259-.339-.539-.674-.846-1,.584.261.989.446,1.147.529l0-.008c-.78-.768-7-9.733-7-9.733l-14.2-3.532-13.231,1.719-8.652,6.99-.61,2.746-.96.326C417.051,273.126,417.725,273.442,417.174,274.189Z" transform="translate(-416.362 -259.99)" fill="#16110d"/>
          <path id="Trazado_225889" data-name="Trazado 225889" d="M459.289,280.416l-.345-1.558c-.516-2.332-2.328-4.484-5.244-6.224-7.519-4.487-19.854-4.666-27.5-.4-3,1.671-4.875,3.793-5.438,6.137l-.332,1.382-.836-1.149c-.9-1.234-1.954-2.69-2.878-3.97l-.281-.388.284-.386a.545.545,0,0,0,.117-.431,1.641,1.641,0,0,1,.642-1.425l.222-.128.61-.208.58-2.61,8.975-7.248,13.537-1.759,14.56,3.62.141.2c2.391,3.447,6.385,9.113,6.922,9.64l.4.4-.372.513,0,0ZM439.5,267.856a29.706,29.706,0,0,1,14.872,3.653,12.579,12.579,0,0,1,5.407,5.67l1.684-2.669c-.165-.2-.34-.4-.525-.6l-2.2-2.357,1.727.769c-1.828-2.508-4.546-6.411-5.3-7.495l-13.84-3.443-12.926,1.68-8.329,6.729-.642,2.882-1.177.4c-.108.108-.108.16-.1.337a1.866,1.866,0,0,1-.125.794c.609.841,1.262,1.744,1.881,2.6a12.411,12.411,0,0,1,5.657-5.71A29.2,29.2,0,0,1,439.5,267.856Z" transform="translate(-416.439 -260.053)" fill="#16110d"/>
        </g>
        <path id="Trazado_225890" data-name="Trazado 225890" d="M456.98,291.2l3.73-6.422-4.314-2.8c-.024-.015-.049-.033-.073-.047h0a1.857,1.857,0,0,0-1.84.168,5.807,5.807,0,0,0-2.694,4.513,1.964,1.964,0,0,0,.588,1.6h0a1.291,1.291,0,0,0,.22.144Z" transform="translate(-410.945 -256.74)" fill="#4d87b5"/>
        <g id="Grupo_159735" data-name="Grupo 159735" transform="translate(5.844 7.233)">
          <path id="Trazado_225891" data-name="Trazado 225891" d="M453.084,269.117c7.454,4.449,7.352,11.485-.228,15.716s-19.767,4.054-27.22-.4-7.352-11.484.228-15.715S445.631,264.669,453.084,269.117Z" transform="translate(-420.112 -265.662)" fill="#64b5f6"/>
        </g>
        <g id="Grupo_159736" data-name="Grupo 159736" transform="translate(0.087)">
          <path id="Trazado_225892" data-name="Trazado 225892" d="M422.827,263.6c-9.661,5.393-9.792,14.362-.291,20.032s25.035,5.9,34.7.5,9.792-14.361.291-20.032S432.488,258.2,422.827,263.6Zm31.161,18.6c-7.839,4.375-20.444,4.192-28.153-.409s-7.6-11.879.235-16.255,20.444-4.192,28.154.409S461.828,277.819,453.989,282.2Z" transform="translate(-414.84 -259.054)" fill="#636363"/>
          <path id="Trazado_225893" data-name="Trazado 225893" d="M440.511,288.733c-6.613,0-13.257-1.5-18.247-4.483-4.805-2.867-7.419-6.665-7.361-10.692s2.782-7.748,7.667-10.474h0c9.828-5.487,25.688-5.255,35.351.514,4.805,2.867,7.418,6.664,7.361,10.692s-2.782,7.748-7.667,10.474A35.843,35.843,0,0,1,440.511,288.733Zm-.834-28.325a34.493,34.493,0,0,0-16.466,3.821c-4.46,2.489-6.945,5.81-7,9.348s2.335,6.93,6.72,9.547c9.307,5.553,24.577,5.776,34.04.495,4.461-2.489,6.944-5.81,7-9.35s-2.337-6.93-6.721-9.546C452.443,261.855,446.045,260.408,439.677,260.408Zm.755,25.654a29.7,29.7,0,0,1-14.87-3.652c-3.939-2.35-6.081-5.47-6.033-8.785s2.279-6.37,6.284-8.6c8.012-4.469,20.934-4.283,28.809.419,3.938,2.35,6.081,5.47,6.033,8.784s-2.281,6.371-6.284,8.6A29.215,29.215,0,0,1,440.432,286.061Zm-.676-22.983a27.853,27.853,0,0,0-13.3,3.087c-3.579,2-5.572,4.653-5.614,7.478s1.875,5.54,5.393,7.64c7.519,4.485,19.854,4.666,27.5.4h0c3.579-2,5.572-4.653,5.614-7.478s-1.875-5.54-5.394-7.64A28.365,28.365,0,0,0,439.756,263.078Z" transform="translate(-414.902 -259.115)" fill="#16110d"/>
        </g>
        <g id="Grupo_159737" data-name="Grupo 159737" transform="translate(13.133 9.084)">
          <path id="Trazado_225894" data-name="Trazado 225894" d="M439.07,272.176c2.66,1.588,2.623,4.1-.082,5.609a10.736,10.736,0,0,1-9.714-.142c-2.661-1.588-2.624-4.1.082-5.608A10.739,10.739,0,0,1,439.07,272.176Z" transform="translate(-426.646 -266.959)" fill="#4da1e5"/>
          <path id="Trazado_225895" data-name="Trazado 225895" d="M434.348,276.6A10.634,10.634,0,0,1,429,275.266a3.6,3.6,0,0,1,.1-6.744,11.309,11.309,0,0,1,10.37.151h0a3.6,3.6,0,0,1-.1,6.743A10.473,10.473,0,0,1,434.348,276.6Zm-.229-7.952a9.178,9.178,0,0,0-4.381,1.018,2.327,2.327,0,0,0-.066,4.473,10.031,10.031,0,0,0,9.059.132,2.327,2.327,0,0,0,.065-4.473A9.346,9.346,0,0,0,434.12,268.65Z" transform="translate(-426.709 -267.337)" fill="#16110d"/>
        </g>
        <path id="Trazado_225896" data-name="Trazado 225896" d="M452.557,283.986l4.231,2.644,3.233-2.229-4.544-2.779Z" transform="translate(-410.865 -256.754)" fill="#636363"/>
        <path id="Trazado_225897" data-name="Trazado 225897" d="M457.262,292.192l-4.959-3.221a1.6,1.6,0,0,1-.282-.189,2.614,2.614,0,0,1-.825-2.115,6.448,6.448,0,0,1,3.03-5.076,2.484,2.484,0,0,1,2.485-.165l.117.076,4.825,3.132Zm-1.583-9.706a1.731,1.731,0,0,0-.814.251,5.172,5.172,0,0,0-2.357,3.95,1.364,1.364,0,0,0,.351,1.086l.159.1,3.8,2.471,3.072-5.286-3.792-2.462A.822.822,0,0,0,455.679,282.485Z" transform="translate(-411.008 -256.802)" fill="#16110d"/>
        <path id="Trazado_225898" data-name="Trazado 225898" d="M460.29,284.511a1.878,1.878,0,0,0-1.8.186,5.808,5.808,0,0,0-2.695,4.512,1.832,1.832,0,0,0,.767,1.724h0l7.856,6.793,5.691-8.992Z" transform="translate(-410.525 -256.467)" fill="#4d87b5"/>
        <path id="Trazado_225899" data-name="Trazado 225899" d="M456.69,286.349l8.889,4.865,3.771-2.858-10.034-4.049Z" transform="translate(-410.431 -256.473)" fill="#636363"/>
        <path id="Trazado_225900" data-name="Trazado 225900" d="M464.626,298.782l-8.433-7.291a2.429,2.429,0,0,1-.993-2.229,6.448,6.448,0,0,1,3.03-5.077,2.522,2.522,0,0,1,2.4-.2l10.5,4.518ZM459.7,285.075a1.771,1.771,0,0,0-.83.256,5.169,5.169,0,0,0-2.358,3.95,1.244,1.244,0,0,0,.435,1.143l7.384,6.37,4.873-7.7-9.156-3.942A.744.744,0,0,0,459.7,285.075Z" transform="translate(-410.588 -256.53)" fill="#16110d"/>
        <path id="Trazado_225901" data-name="Trazado 225901" d="M483.327,298.258h0a1.366,1.366,0,0,0-.265-.144L469.9,288.568a2.654,2.654,0,0,0-2.771.192,8.483,8.483,0,0,0-3.935,6.593,2.752,2.752,0,0,0,1,2.442h0a1.874,1.874,0,0,0,.411.21l14.382,7.2a2.49,2.49,0,0,0,.276.14l5.025,2.494,1.86-3.3,1.786-3.166Z" transform="translate(-409.749 -256.058)" fill="#4d87b5"/>
        <path id="Trazado_225902" data-name="Trazado 225902" d="M464.735,290.794l19.387,12.184,2.885-2.122-17.838-12.537-3.818,1.625Z" transform="translate(-409.587 -256.052)" fill="#636363"/>
        <path id="Trazado_225903" data-name="Trazado 225903" d="M484.617,308.769l-20.242-10.115a2.148,2.148,0,0,1-.484-.253,3.387,3.387,0,0,1-1.294-2.994,9.087,9.087,0,0,1,4.273-7.158,3.311,3.311,0,0,1,3.445-.17l18.551,13.159ZM468.88,288.975a2.89,2.89,0,0,0-1.37.42,7.888,7.888,0,0,0-3.6,6.031,2.152,2.152,0,0,0,.716,1.888,1.161,1.161,0,0,0,.264.136l19.2,9.593,3.043-5.4L469.573,289.16A1.267,1.267,0,0,0,468.88,288.975Z" transform="translate(-409.812 -256.12)" fill="#16110d"/>
        <path id="Trazado_225904" data-name="Trazado 225904" d="M490.279,302.939l-4.184-2.736c-.025-.018-.051-.037-.078-.052h0a1.858,1.858,0,0,0-1.84.168,5.809,5.809,0,0,0-2.694,4.512,1.758,1.758,0,0,0,.887,1.782l4.3,2.808Z" transform="translate(-407.831 -254.829)" fill="#4d87b5"/>
        <path id="Trazado_225905" data-name="Trazado 225905" d="M482.492,301.917,487,304.923l2.514-2.432-4.471-2.5Z" transform="translate(-407.725 -254.828)" fill="#636363"/>
        <path id="Trazado_225906" data-name="Trazado 225906" d="M486.533,310.135l-4.459-2.909a2.348,2.348,0,0,1-1.183-2.341,6.443,6.443,0,0,1,3.031-5.075,2.474,2.474,0,0,1,2.484-.165l.118.076,4.688,3.066Zm-1.161-9.431a1.713,1.713,0,0,0-.812.251,5.167,5.167,0,0,0-2.358,3.95c-.009.6.17,1.031.494,1.172l3.809,2.476,2.968-5.335-3.674-2.4A.829.829,0,0,0,485.372,300.7Z" transform="translate(-407.893 -254.891)" fill="#16110d"/>
        <path id="Trazado_225907" data-name="Trazado 225907" d="M490.438,302.256a2.458,2.458,0,0,0-2.514.148,6.442,6.442,0,0,0-3.032,5.076,2.467,2.467,0,0,0,1.064,2.286,2.012,2.012,0,0,0,1.042.28,3.049,3.049,0,0,0,1.475-.428,6.443,6.443,0,0,0,3.031-5.076A2.463,2.463,0,0,0,490.438,302.256Z" transform="translate(-407.473 -254.619)" fill="#16110d"/>
      </g>
    </g>
  </g>
</svg>
