<svg xmlns="http://www.w3.org/2000/svg" width="372.682" height="501.212" viewBox="0 0 372.682 501.212">
  <g id="Grupo_139259" data-name="Grupo 139259" transform="translate(-312.318 -529)">
    <g id="Grupo_138959" data-name="Grupo 138959" transform="translate(0 -38)">
      <path id="Trazado_115035" data-name="Trazado 115035" d="M792.87,2178.786c1.255.752,1.466,1.022-.112,4.274-1.222,2.535-3.5,7.238,1.721,10.36,4.077,2.45,9.2,1.746,14.175,1.068,4.35-.591,8.463-1.151,11.114.445a2.354,2.354,0,1,0,2.55-3.957l-.128-.077c-4.078-2.45-9.206-1.746-14.175-1.068-4.351.591-8.463,1.151-11.117-.444-1.254-.75-1.465-1.021.113-4.275,1.221-2.533,3.5-7.238-1.722-10.36-4.058-2.45-9.2-1.746-14.175-1.079-4.349.589-8.477,1.149-11.128-.444-1.254-.753-1.466-1.023.112-4.277,1.222-2.532,3.5-7.237-1.7-10.36-4.08-2.449-9.221-1.746-14.19-1.065-4.349.591-8.463,1.15-11.114-.428-1.254-.753-1.466-1.031.112-4.288,1.222-2.533,3.5-7.238-1.7-10.36a13.339,13.339,0,0,0-6.771-1.7,49.4,49.4,0,0,0-7.4.645c-4.351.59-8.466,1.149-11.1-.43a2.354,2.354,0,1,0-2.548,3.96c.04.026.081.051.123.074,4.08,2.425,9.206,1.744,14.163,1.066,4.353-.591,8.478-1.162,11.129.444,1.255.751,1.465,1.031-.113,4.287-1.221,2.534-3.5,7.238,1.721,10.374,4.081,2.425,9.207,1.744,14.164,1.064,4.351-.59,8.478-1.161,11.129.444,1.253.75,1.465,1.021-.113,4.275-1.221,2.535-3.5,7.238,1.7,10.362,4.08,2.448,9.206,1.745,14.178,1.078,4.351-.59,8.463-1.149,11.114.443Z" transform="translate(-158.79 -1189.254)" fill="#393939"/>
      <path id="Trazado_115036" data-name="Trazado 115036" d="M781.029,2222.437c4.077,2.45,9.205,1.746,14.175,1.076,4.35-.59,8.463-1.149,11.114.447,1.257.752,1.466,1.021-.112,4.276-1.222,2.533-3.5,7.238,1.721,10.361,4.08,2.448,9.206,1.744,14.175,1.076,4.353-.59,8.463-1.149,11.114.447a2.355,2.355,0,0,0,2.425-4.025c-4.08-2.448-9.205-1.744-14.175-1.077-4.351.589-8.463,1.149-11.117-.444-1.254-.752-1.465-1.022.113-4.277,1.221-2.532,3.5-7.237-1.722-10.36-4.058-2.448-9.206-1.746-14.176-1.079-4.351.591-8.477,1.149-11.128-.443-1.254-.752-1.466-1.021.112-4.276,1.222-2.533,3.5-7.238-1.7-10.361-4.08-2.448-9.221-1.744-14.191-1.066-4.351.59-8.463,1.149-11.117-.43-1.257-.75-1.465-1.031.113-4.286,1.221-2.534,3.5-7.238-1.7-10.359a13.328,13.328,0,0,0-6.765-1.713,50,50,0,0,0-7.4.649c-4.351.59-8.465,1.149-11.1-.433a2.354,2.354,0,0,0-2.425,4.035c4.08,2.425,9.206,1.746,14.163,1.064,4.353-.59,8.478-1.146,11.129.446,1.255.752,1.465,1.034-.113,4.288-1.221,2.532-3.5,7.238,1.722,10.359,4.08,2.425,9.205,1.744,14.163,1.066,4.35-.591,8.478-1.149,11.129.444,1.255.752,1.465,1.021-.113,4.275-1.221,2.534-3.5,7.238,1.7,10.362Z" transform="translate(-153.679 -1172.168)" fill="#fef536"/>
      <path id="Trazado_115027" data-name="Trazado 115027" d="M706.515,2208.5l-7.8-1.848a1.619,1.619,0,0,1-1.24-1.922l.007-.03a1.682,1.682,0,0,1,1.233-1.193l7.8-1.845a8.54,8.54,0,0,0,6.356-6.156l1.907-7.546a1.7,1.7,0,0,1,2.053-1.177,1.659,1.659,0,0,1,1.228,1.177l1.91,7.546a8.533,8.533,0,0,0,6.356,6.156l7.8,1.845a1.618,1.618,0,0,1,1.24,1.922l-.007.03a1.682,1.682,0,0,1-1.233,1.193l-7.8,1.848a8.531,8.531,0,0,0-6.356,6.155l-1.91,7.548a1.691,1.691,0,0,1-2.052,1.188,1.661,1.661,0,0,1-1.229-1.187l-1.907-7.548A8.535,8.535,0,0,0,706.515,2208.5Z" transform="translate(-164.52 -1171.82)" fill="#3a3a3a"/>
      <ellipse id="Elipse_4818" data-name="Elipse 4818" cx="19.498" cy="18.279" rx="19.498" ry="18.279" transform="translate(646.004 834.626)" fill="#fff"/>
      <ellipse id="Elipse_4819" data-name="Elipse 4819" cx="18.321" cy="17.102" rx="18.321" ry="17.102" transform="translate(647.181 835.803)" fill="none" stroke="#3a3a3a" stroke-width="1"/>
      <path id="Trazado_115415" data-name="Trazado 115415" d="M534.3,1861.316l1.91-.16a.4.4,0,0,0,.367-.426h0a.406.406,0,0,0-.247-.337l-1.768-.743a2.068,2.068,0,0,1-1.259-1.739l-.16-1.91a.4.4,0,0,0-.434-.368h0a.4.4,0,0,0-.336.244l-.744,1.768a2.065,2.065,0,0,1-1.736,1.261l-1.911.164a.4.4,0,0,0-.367.426h0a.408.408,0,0,0,.247.338l1.766.743a2.065,2.065,0,0,1,1.261,1.735l.162,1.91a.4.4,0,0,0,.434.369h0a.408.408,0,0,0,.339-.245l.741-1.766A2.069,2.069,0,0,1,534.3,1861.316Z" transform="translate(-170.579 -1035.107)" fill="#3d3d3d"/>
      <path id="Trazado_115416" data-name="Trazado 115416" d="M448.461,1949.482l1.062-.088a.224.224,0,0,0,.2-.252h0a.226.226,0,0,0-.128-.175l-.982-.41a1.157,1.157,0,0,1-.7-.966l-.087-1.062a.225.225,0,0,0-.252-.2h0a.226.226,0,0,0-.174.128l-.412.982a1.156,1.156,0,0,1-.965.7l-1.068.087a.228.228,0,0,0-.2.253.231.231,0,0,0,.128.177l.984.411a1.149,1.149,0,0,1,.7.964l.087,1.068a.226.226,0,0,0,.429.068l.412-.984A1.155,1.155,0,0,1,448.461,1949.482Z" transform="translate(-132.328 -1000.836)" fill="#3d3d3d"/>
      <path id="Trazado_115417" data-name="Trazado 115417" d="M494.8,1863.124l1.137-.095a.238.238,0,0,0,.219-.255h0a.241.241,0,0,0-.145-.2l-1.054-.442a1.226,1.226,0,0,1-.745-1.026l-.094-1.137a.239.239,0,0,0-.256-.218h0a.255.255,0,0,0-.2.144l-.442,1.052a1.224,1.224,0,0,1-1.025.745l-1.137.1a.239.239,0,0,0-.219.255v0h0a.234.234,0,0,0,.145.2l1.053.442a1.22,1.22,0,0,1,.744,1.026l.1,1.138a.238.238,0,0,0,.256.218h0a.257.257,0,0,0,.2-.145l.441-1.053A1.221,1.221,0,0,1,494.8,1863.124Z" transform="translate(-178.514 -1033.552)" fill="#3d3d3d"/>
      <path id="Trazado_115418" data-name="Trazado 115418" d="M513.553,2050.077l1.761-.147a.37.37,0,0,0,.336-.4h0a.371.371,0,0,0-.225-.309l-1.629-.685a1.9,1.9,0,0,1-1.162-1.6l-.147-1.761a.369.369,0,0,0-.707-.113l-.686,1.63a1.9,1.9,0,0,1-1.6,1.16l-1.761.148a.371.371,0,0,0-.336.4h0a.37.37,0,0,0,.225.309l1.629.684a1.9,1.9,0,0,1,1.161,1.6l.147,1.761a.37.37,0,0,0,.4.334.365.365,0,0,0,.309-.223l.683-1.629A1.9,1.9,0,0,1,513.553,2050.077Z" transform="translate(91.782 -1185.959)" fill="#3d3d3d"/>
      <path id="Trazado_115027-2" data-name="Trazado 115027-2" d="M502.544,2018.491l-3.005-.763a.675.675,0,0,1,0-1.3l3.005-.763a3.407,3.407,0,0,0,2.451-2.545l.734-3.124a.65.65,0,0,1,.774-.495l.017,0a.666.666,0,0,1,.473.492l.736,3.124a3.405,3.405,0,0,0,2.451,2.545l3.005.763a.677.677,0,0,1,0,1.3l-3.005.763a3.409,3.409,0,0,0-2.451,2.546l-.736,3.122a.65.65,0,0,1-.773.5l-.018-.006a.661.661,0,0,1-.474-.492l-.734-3.122A3.412,3.412,0,0,0,502.544,2018.491Z" transform="translate(96.055 -1106.418)" fill="#3a3a3a"/>
      <circle id="Elipse_4783" data-name="Elipse 4783" cx="15.692" cy="15.692" r="15.692" transform="translate(331.815 876.44)" fill="#3a3a3a"/>
      <ellipse id="Elipse_4820" data-name="Elipse 4820" cx="14.266" cy="13.553" rx="14.266" ry="13.553" transform="translate(330.389 875.015)" fill="#fff"/>
      <ellipse id="Elipse_4821" data-name="Elipse 4821" cx="13.577" cy="12.864" rx="13.577" ry="12.864" transform="translate(331.078 875.703)" fill="none" stroke="#3a3a3a" stroke-width="1"/>
      <g id="_9" data-name="9" transform="translate(361.944 567)">
        <g id="Grupo_138835" data-name="Grupo 138835">
          <g id="Grupo_138832" data-name="Grupo 138832" transform="translate(0.285)">
            <path id="Trazado_133625" data-name="Trazado 133625" d="M586.44,154.279V325.367l-6.816,3.983L365.676,34.96l5.627-3.8Z" transform="translate(-365.1 -30.156)" fill="#ba68c8"/>
            <path id="Trazado_133626" data-name="Trazado 133626" d="M586.44,155.751V319.045l-12.719.513L365.675,36.432l5.627-3.8Z" transform="translate(-365.1 -28.731)" fill="#8b3d9b"/>
            <path id="Trazado_133627" data-name="Trazado 133627" d="M579.67,330.972l-.458-.628L365.383,34.811l6.168-4.161.466.268L587.582,154.28V326.345ZM367.171,35.665,580.148,328.718l5.715-3.343V155.263L371.623,32.661Z" transform="translate(-365.383 -30.65)" fill="#15100c"/>
          </g>
          <path id="Trazado_133628" data-name="Trazado 133628" d="M579.624,155.8V327.482L365.676,202.018V33.092Z" transform="translate(-364.815 -28.288)" fill="#ba68c8"/>
          <path id="Trazado_133629" data-name="Trazado 133629" d="M481.242,93.742l-6.816,3.385V268.813l6.816-3.983Z" transform="translate(-259.616 30.381)" fill="#120d0c"/>
          <path id="Trazado_133630" data-name="Trazado 133630" d="M567.838,155.667V301.176L369.112,184.511V41.321Z" transform="translate(-361.491 -20.327)" fill="#fff"/>
          <path id="Trazado_133631" data-name="Trazado 133631" d="M369.112,41.321v143.19l4.367-3L373.5,43.844Z" transform="translate(-361.491 -20.327)" fill="#120d0c"/>
          <g id="Grupo_138834" data-name="Grupo 138834" transform="translate(0 3.885)">
            <path id="Trazado_133632" data-name="Trazado 133632" d="M373.478,112.58l194.359,114.06v5.605L369.112,115.58Z" transform="translate(-361.491 44.719)" fill="#ba68c8"/>
            <path id="Trazado_133633" data-name="Trazado 133633" d="M373.478,113.7l194.359,114.06v5.6L369.112,116.7Z" transform="translate(-361.491 45.803)" fill="#8b3d9b"/>
            <g id="Grupo_138833" data-name="Grupo 138833">
              <path id="Trazado_133634" data-name="Trazado 133634" d="M585.922,152.375l-5.845,2.9L366.393,32.728a.77.77,0,0,0-1.155.659V202.956L579.19,328.419l.858.5.862-.5,6.813-3.986V153.477A1.243,1.243,0,0,0,585.922,152.375Zm-218.965,49.61V35.022L579.19,156.737v169.7ZM586,323.465l-5.093,2.981V156.772l5.093-2.53Z" transform="translate(-365.238 -32.625)" fill="#15100c"/>
              <path id="Trazado_133635" data-name="Trazado 133635" d="M374.78,44.081l-6.1-3.512h0V185.725l.893.525L569.121,303.4V155.9L374.78,44.081Zm-4.385-.553,2.666,1.535-.02,136.73-2.646,1.818Zm.73,141.654,2.457-1.688.356-.244L567.4,296.783l0,3.624Zm196.277-28.3V294.806L374.76,181.755l.02-135.7Z" transform="translate(-361.913 -24.94)" fill="#15100c"/>
            </g>
          </g>
        </g>
        <g id="Grupo_138838" data-name="Grupo 138838" transform="translate(33.402 81.907)">
          <g id="Grupo_138836" data-name="Grupo 138836">
            <path id="Trazado_133636" data-name="Trazado 133636" d="M413.551,118.661,430,95.677c-4.511-6.716-9.939-12.3-15.821-15.794-16.067-9.532-29.372.1-29.719,21.521s12.4,46.506,28.463,56.038c15.867,9.412,29.018.11,29.675-20.75Z" transform="translate(-380.053 -68.49)" fill="#64b5f6"/>
            <path id="Trazado_133637" data-name="Trazado 133637" d="M423.423,158.881a24.413,24.413,0,0,1-12.318-3.787c-16.276-9.656-29.231-35.127-28.883-56.779.189-11.574,4.185-20.352,10.972-24.092,5.66-3.118,12.782-2.457,20.049,1.855,5.776,3.425,11.342,8.975,16.1,16.05l.329.488-16.264,22.727,28.694,17.81-.014.488c-.356,11.237-4.389,19.752-11.062,23.362A15.789,15.789,0,0,1,423.423,158.881ZM400.917,73.992a14.112,14.112,0,0,0-6.886,1.719c-6.236,3.435-9.909,11.682-10.088,22.628-.342,21.112,12.241,45.916,28.05,55.294,6.661,3.952,13.126,4.619,18.208,1.875,6.028-3.264,9.717-11.058,10.15-21.434l-29.4-18.247,16.634-23.242c-4.541-6.632-9.793-11.828-15.223-15.048A22.726,22.726,0,0,0,400.917,73.992Z" transform="translate(-382.216 -72.284)" fill="#15100c"/>
          </g>
          <g id="Grupo_138837" data-name="Grupo 138837" transform="translate(38.323 16.544)">
            <path id="Trazado_133638" data-name="Trazado 133638" d="M420.486,84.949l-16.368,23.043,29.115,17.928c.006-.264.035-.506.039-.773C433.443,111.571,428.34,96.55,420.486,84.949Z" transform="translate(-399.353 -76.576)" fill="#64b5f6"/>
            <path id="Trazado_133639" data-name="Trazado 133639" d="M432.859,124.675,401.7,105.485l17.612-24.792.7,1.029c8.261,12.205,13.1,27.413,12.929,40.683,0,.159-.014.313-.024.464ZM404.147,104.99l27.073,16.673c-.018-12.392-4.444-26.433-11.953-37.954Z" transform="translate(-401.696 -80.693)" fill="#15100c"/>
          </g>
        </g>
        <g id="Grupo_138842" data-name="Grupo 138842" transform="translate(126.466 127.318)">
          <g id="Grupo_138839" data-name="Grupo 138839" transform="translate(17.13)">
            <path id="Trazado_133640" data-name="Trazado 133640" d="M440.414,175.39V98.829L453.1,106.7v76.385Z" transform="translate(-436.113 -92.017)" fill="#8b3d9b"/>
            <path id="Trazado_133641" data-name="Trazado 133641" d="M452.641,182.684l-14.413-8.739V95.366l14.413,8.944Zm-12.693-9.693,10.974,6.654V105.252l-10.974-6.809Z" transform="translate(-438.228 -95.366)" fill="#15100c"/>
          </g>
          <g id="Grupo_138840" data-name="Grupo 138840" transform="translate(33.789 33.504)">
            <path id="Trazado_133642" data-name="Trazado 133642" d="M448.88,169.018v-53.16l12.689,7.875v52.984Z" transform="translate(-444.583 -109.047)" fill="#8b3d9b"/>
            <path id="Trazado_133643" data-name="Trazado 133643" d="M461.1,176.313,446.7,167.572V112.4l14.407,8.942Zm-12.687-9.7,10.968,6.655V122.28l-10.968-6.809Z" transform="translate(-446.696 -112.396)" fill="#15100c"/>
          </g>
          <g id="Grupo_138841" data-name="Grupo 138841" transform="translate(0 35.772)">
            <path id="Trazado_133644" data-name="Trazado 133644" d="M431.707,147.231V117.01l12.69,7.875V154.93Z" transform="translate(-427.407 -110.201)" fill="#8b3d9b"/>
            <path id="Trazado_133645" data-name="Trazado 133645" d="M443.932,154.525l-14.411-8.741V113.549l14.411,8.942Zm-12.691-9.7,10.972,6.656V123.433l-10.972-6.807Z" transform="translate(-429.521 -113.549)" fill="#15100c"/>
          </g>
        </g>
      </g>
      <g id="Grupo_138848" data-name="Grupo 138848" transform="translate(528.115 625.79)">
        <g id="Grupo_138843" data-name="Grupo 138843" transform="translate(1.322 0)">
          <path id="Trazado_133646" data-name="Trazado 133646" d="M540.607,102.623,469.952,61.828a4.957,4.957,0,0,0-4.289-.661v0a3.085,3.085,0,0,0-.816.474l-13.781,8L463.3,79.446v30.96a14.762,14.762,0,0,0,6.654,11.525l33.358,19.258,1.432,2.491,5.054,30.779a.569.569,0,0,0,.848.4l11.192-6.559-1.115-4.444.856,1.468c1.251,2.146,3.37,2.345,3.37.317v-.952l6.077,6.821,13.921-8.145a3.148,3.148,0,0,0,.75-.439h0a4.972,4.972,0,0,0,1.564-4.043V114.145A14.756,14.756,0,0,0,540.607,102.623Z" transform="translate(-449.708 -60.156)" fill="#ba68c8"/>
          <path id="Trazado_133647" data-name="Trazado 133647" d="M465.515,63.749h0a3.208,3.208,0,0,0-.818.474l-13.781,8,12.233,9.805V112.99a14.762,14.762,0,0,0,6.654,11.523l33.36,19.26,1.432,2.491L547.11,116.73Z" transform="translate(-449.853 -57.657)" fill="#8b3d9b"/>
          <path id="Trazado_133648" data-name="Trazado 133648" d="M511.024,176.082a1.362,1.362,0,0,1-.565-.126,1.348,1.348,0,0,1-.755-.994l-5.032-30.643-1.257-2.19-33.181-19.156a15.586,15.586,0,0,1-7.039-12.192V80.192L450.375,69.915l14.751-8.564a3.527,3.527,0,0,1,.921-.523A5.738,5.738,0,0,1,471,61.54l70.655,40.793a15.576,15.576,0,0,1,7.037,12.19v44.735a5.741,5.741,0,0,1-1.855,4.645,3.882,3.882,0,0,1-.936.547l-14.371,8.418-5.288-5.939a1.764,1.764,0,0,1-1.228,1.206,2.412,2.412,0,0,1-1.959-.419l.333,1.334L511.7,175.9A1.332,1.332,0,0,1,511.024,176.082ZM453.09,70.118l11.645,9.335v31.33A14.09,14.09,0,0,0,471,121.64L504.542,141l1.627,2.929,13.152,15.213,5.524,3.9,8.17-40.269,14.141-8.249a14.094,14.094,0,0,0-6.266-10.858L470.233,62.872a4.279,4.279,0,0,0-3.618-.614,2.444,2.444,0,0,0-.622.36Z" transform="translate(-450.375 -60.533)" fill="#15100c"/>
        </g>
        <g id="Grupo_138844" data-name="Grupo 138844" transform="translate(0 8.238)">
          <path id="Trazado_133649" data-name="Trazado 133649" d="M527.4,106.817,456.749,66.024c-3.675-2.123-6.654-.4-6.654,3.84V114.6a14.708,14.708,0,0,0,6.654,11.525l36.628,21.147a15.248,15.248,0,0,1,5.237,5.5l9.76,16.742c1.251,2.146,3.37,2.345,3.37.317v-8.951c0-1.66,1.165-2.333,2.6-1.5l13.057,7.539c3.675,2.121,6.654.4,6.654-3.842V118.34A14.7,14.7,0,0,0,527.4,106.817Z" transform="translate(-449.324 -64.339)" fill="#fff"/>
          <path id="Trazado_133650" data-name="Trazado 133650" d="M511.023,172.4a3.744,3.744,0,0,1-2.937-2.115l-9.758-16.74a14.549,14.549,0,0,0-4.958-5.225l-36.628-21.149a15.573,15.573,0,0,1-7.039-12.19V70.246c0-2.339.828-4.106,2.333-4.973s3.451-.7,5.475.466l70.657,40.793a15.577,15.577,0,0,1,7.037,12.19v44.735c0,2.339-.828,4.106-2.333,4.975s-3.449.7-5.473-.466l-13.059-7.541a.851.851,0,0,0-1.448.836v8.953a2,2,0,0,1-1.365,2.119A1.894,1.894,0,0,1,511.023,172.4ZM454.159,66.264a2.65,2.65,0,0,0-1.352.342c-1.009.582-1.564,1.875-1.564,3.64v44.735a13.881,13.881,0,0,0,6.268,10.858l36.628,21.147a15.9,15.9,0,0,1,5.518,5.782l9.76,16.742c.641,1.1,1.428,1.413,1.708,1.338.167-.045.226-.358.226-.633v-8.953a2.34,2.34,0,0,1,3.758-2.168l13.059,7.539c1.527.883,2.927,1.049,3.933.466s1.564-1.875,1.564-3.642V118.721a13.873,13.873,0,0,0-6.266-10.856L456.742,67.071A5.306,5.306,0,0,0,454.159,66.264Z" transform="translate(-449.703 -64.72)" fill="#15100c"/>
        </g>
        <g id="Grupo_138847" data-name="Grupo 138847" transform="translate(27.352 37.215)">
          <g id="Grupo_138845" data-name="Grupo 138845" transform="translate(1.021)">
            <path id="Trazado_133651" data-name="Trazado 133651" d="M494.27,107.447,472.8,81.6c-1.326-1.6-2.853-2.083-3.813-1.574h0c-.012.006-4.368,2.646-4.368,2.646a.2.2,0,0,0-.075.271l2.4,4.413v22.373c0,2.829,2.621,6.144,4.775,6.038l16.447-.8,2.528,1.438,4.338-2.624.094-.055C496.469,112.8,496.188,109.757,494.27,107.447Z" transform="translate(-463.747 -79.075)" fill="#ba68c8"/>
            <path id="Trazado_133652" data-name="Trazado 133652" d="M494.27,109,472.8,83.161c-1.326-1.6-2.853-2.083-3.813-1.574h0c-.012.006-4.368,2.646-4.368,2.646a.2.2,0,0,0-.075.271l2.4,4.413V111.29c0,2.829,20.512,2.205,20.512,2.205S496.188,111.314,494.27,109Z" transform="translate(-463.747 -77.569)" fill="#8b3d9b"/>
            <path id="Trazado_133653" data-name="Trazado 133653" d="M491.079,117.672l-2.727-1.55-16.219.793a4.354,4.354,0,0,1-3.1-1.4,7.94,7.94,0,0,1-2.481-5.41V87.93l-2.308-4.24a.969.969,0,0,1,.354-1.3s4.362-2.644,4.377-2.65c1.4-.74,3.311-.033,4.79,1.747L495.24,107.33a7.43,7.43,0,0,1,1.824,5.379,2.83,2.83,0,0,1-1.125,2.026Zm-3.346-3.061,7.458-4.369a6.891,6.891,0,0,0-1.133-1.926L472.585,82.47c-1.1-1.32-2.268-1.7-2.86-1.385l-3.87,2.343,2.237,4.307v22.373a6.425,6.425,0,0,0,2,4.295,3.025,3.025,0,0,0,1.961.974Z" transform="translate(-464.125 -79.449)" fill="#15100c"/>
          </g>
          <g id="Grupo_138846" data-name="Grupo 138846" transform="translate(0 2.719)">
            <path id="Trazado_133654" data-name="Trazado 133654" d="M464,83.532v26.892c0,2.831,2.62,6.144,4.775,6.038l21.473-1.049c2.255-.11,2.255-3.848,0-6.563L468.772,83.007C466.618,80.414,464,80.7,464,83.532Z" transform="translate(-463.228 -80.452)" fill="#ba68c8"/>
            <path id="Trazado_133655" data-name="Trazado 133655" d="M469.054,117.614a4.459,4.459,0,0,1-2.965-1.4,7.929,7.929,0,0,1-2.483-5.408V83.911A2.852,2.852,0,0,1,465.3,80.98c1.35-.486,3.055.242,4.442,1.914l21.472,25.843c1.653,1.985,2.312,4.651,1.568,6.341a2.357,2.357,0,0,1-2.121,1.483l-21.472,1.049C469.142,117.612,469.1,117.614,469.054,117.614Zm-2.882-35.241a1.01,1.01,0,0,0-.348.057c-.59.212-.679,1.019-.679,1.481V110.8a6.428,6.428,0,0,0,2,4.295,3.053,3.053,0,0,0,1.963.974l21.472-1.049a.839.839,0,0,0,.787-.565c.443-1,.061-3.049-1.34-4.737L468.56,83.878A3.5,3.5,0,0,0,466.171,82.373Z" transform="translate(-463.606 -80.832)" fill="#15100c"/>
          </g>
        </g>
      </g>
      <g id="Grupo_138876" data-name="Grupo 138876" transform="translate(294.241 631.925)">
        <g id="Grupo_138850" data-name="Grupo 138850" transform="translate(65.074 0.005)">
          <g id="Grupo_138849" data-name="Grupo 138849">
            <path id="Trazado_133656" data-name="Trazado 133656" d="M381.125,215.557l-16.116-.551.242-7.063c-.075-.065-.148-.138-.222-.2l17.157-5.074.081-2.4,8.438-5.642,11.739-25.918,5.316-36.665-3.138-27.012L384.927,79.276c-.692.089-1.385.224-2.078.382L369.6,71.706c.106-.083.211-.173.317-.254l.246-7.181,18.243.624c.222,0,.445.012.669.022l.836.03,1.346.171c10.258,1.381,20.13,9.036,27.527,22.923,16,30.043,14.369,77.81-3.647,106.691-8.33,13.35-18.7,20.313-29.028,20.99v.008l-.336.075A28.805,28.805,0,0,1,381.125,215.557Z" transform="translate(-362.832 -63.057)" fill="#636363"/>
            <path id="Trazado_133657" data-name="Trazado 133657" d="M386.605,217.575a28.579,28.579,0,0,1-4.509-.25l-17.232-.586.264-7.7-1.226-1.153,1.863-.673,16.343-4.834.073-2.156,8.662-5.792,11.533-25.461,5.268-36.349-3.083-26.537L385.486,81.136c-.435.075-.87.165-1.3.264l-.462.106-15.129-9.079,1.237-.96.27-7.812,20.921.714,1.454.181c11.033,1.483,21.121,9.843,28.414,23.537,16.154,30.325,14.5,78.711-3.685,107.863-8.178,13.106-18.757,20.746-29.805,21.529l-.555.1Zm-19.311-3.1,15.054.517a23.85,23.85,0,0,0,3.655.236l1.1-.079c10.323-.677,20.3-7.934,28.105-20.441C433,166.19,434.616,118.856,418.816,89.19c-6.931-13.008-16.392-20.932-26.648-22.312l-2.721-.212-17.082-.584-.2,5.751,11.954,7.175c.576-.124,1.151-.226,1.727-.3l.669-.085,20.3,26.547,3.191,27.484-.022.151-5.408,36.982-11.877,26.223L384.49,201.5l-.09,2.646-16.925,5Z" transform="translate(-363.902 -63.654)" fill="#16110d"/>
          </g>
        </g>
        <g id="Grupo_138853" data-name="Grupo 138853" transform="translate(26.89 4.508)">
          <g id="Grupo_138851" data-name="Grupo 138851" transform="translate(2.052 2.497)">
            <path id="Trazado_133658" data-name="Trazado 133658" d="M390.734,67.212c3.789,3.03,8.107,6.494,11.761,9.431-7.521,1.424-14.936,6.968-21.009,16.707-14.619,23.433-15.945,62.192-2.961,86.571,5.339,10.024,12.268,16.046,19.591,18.044l-13.462,7.6q-1.508-1.269-2.959-2.752c.712,1.834,1.222,3.1,1.454,3.6l-.024.012c-2.245-2.512-28.863-22.975-28.863-22.975l-8.725-44.165,7.265-40.4,22.77-25.542,8.53-1.462,1.143-2.9C387.486,66.677,388.357,68.794,390.734,67.212Z" transform="translate(-345.536 -67.212)" fill="#16110d"/>
          </g>
          <g id="Grupo_138852" data-name="Grupo 138852">
            <path id="Trazado_133659" data-name="Trazado 133659" d="M385.429,209.24l-.012-.012-1.633,1.068L382.628,209c-1.542-1.729-18.353-14.851-28.587-22.717l-.6-.462-8.946-45.284L351.928,99.2l23.616-26.492,8.107-1.391.726-1.843.429-.665a5.049,5.049,0,0,1,4.476-1.759,1.666,1.666,0,0,0,1.342-.293l1.226-.816,1.153.921c3.791,3.03,8.109,6.5,11.767,9.437l3.405,2.742-4.295.813c-7.287,1.381-14.09,6.84-19.673,15.792-14.255,22.845-15.554,60.775-2.892,84.554,4.91,9.219,11.251,15.109,18.341,17.045l4.733,1.293ZM380.783,93.511c5.213-8.357,11.511-14,18.4-16.528-2.528-2.028-5.2-4.171-7.7-6.168a5.717,5.717,0,0,1-2.457.264c-.545-.033-.7-.041-1.051.271l-1.4,3.559-8.953,1.54L355.7,101.036,348.6,140.5l8.5,43.043c3.219,2.481,14.8,11.416,22.235,17.409l-2.105-5.42,6.913,7.1q.871.894,1.765,1.7l8.456-4.777c-6.443-3.083-12.125-9.036-16.612-17.464-6.854-12.864-9.805-29.683-9-46.244C369.512,120.354,373.562,105.081,380.783,93.511Z" transform="translate(-344.493 -65.943)" fill="#16110d"/>
          </g>
        </g>
        <g id="Grupo_138854" data-name="Grupo 138854" transform="translate(96.72 125.538)">
          <path id="Trazado_133660" data-name="Trazado 133660" d="M409.413,144.7l-20.291,10.5-7.964-13.675c-.045-.077-.094-.151-.134-.232h0c-.755-1.483-.555-3.47.789-5.627,2.731-4.375,9.121-7.779,14.273-7.6a6.042,6.042,0,0,1,4.83,2.048h0a3.7,3.7,0,0,1,.407.7Z" transform="translate(-379.408 -126.884)" fill="#636363"/>
          <path id="Trazado_133661" data-name="Trazado 133661" d="M394.63,149.306l-7.964-13.677c-.045-.077-.094-.151-.134-.232h0c-.755-1.483-.555-3.47.791-5.627.057-.092.138-.177.2-.27a16.248,16.248,0,0,0-5.709,5.194c-1.344,2.156-1.544,4.143-.789,5.629h0c.039.079.089.153.134.23l7.964,13.677,20.291-10.5-.929-1.594Z" transform="translate(-379.408 -125.491)" fill="#15100c"/>
          <path id="Trazado_133662" data-name="Trazado 133662" d="M389.247,157.341,380.724,142.7a3.225,3.225,0,0,1-.173-.3c-.976-1.92-.679-4.328.844-6.77,2.975-4.767,9.713-8.381,15.31-8.155a7.227,7.227,0,0,1,5.731,2.518,4.9,4.9,0,0,1,.531.909l8.662,14.857Zm7.021-27.525a16.675,16.675,0,0,0-12.878,7.055c-1.07,1.716-1.334,3.305-.74,4.474l.1.161,7.407,12.721,18.2-9.42-7.468-12.823a3.566,3.566,0,0,0-.331-.582,4.989,4.989,0,0,0-3.933-1.582C396.506,129.818,396.388,129.816,396.268,129.816Z" transform="translate(-379.987 -127.463)" fill="#16110d"/>
        </g>
        <g id="Grupo_138856" data-name="Grupo 138856" transform="translate(46.108 17.395)">
          <g id="Grupo_138855" data-name="Grupo 138855">
            <path id="Trazado_133663" data-name="Trazado 133663" d="M362.9,172.717c12.556,23.569,34.19,24.308,48.326,1.653s15.416-60.134,2.862-83.7-34.19-24.31-48.326-1.653S350.345,149.146,362.9,172.717Z" transform="translate(-354.262 -72.493)" fill="#e8e8e8"/>
          </g>
        </g>
        <g id="Grupo_138858" data-name="Grupo 138858" transform="translate(24.663)">
          <g id="Grupo_138857" data-name="Grupo 138857">
            <path id="Trazado_133664" data-name="Trazado 133664" d="M354.95,192c16,30.041,43.579,30.986,61.6,2.105s19.652-76.646,3.649-106.689-43.581-30.988-61.6-2.107S338.947,161.955,354.95,192Zm6.15-9.86C348.115,157.758,349.441,119,364.06,95.565s37-22.67,49.982,1.71,11.66,63.136-2.961,86.571S374.084,206.515,361.1,182.138Z" transform="translate(-342.801 -63.073)" fill="#8b3d9b"/>
            <path id="Trazado_133665" data-name="Trazado 133665" d="M386.438,216.914c-.309,0-.616-.006-.925-.016-12.074-.413-23.1-8.855-31.041-23.771h0c-16.154-30.325-14.5-78.711,3.687-107.863,8.945-14.338,20.452-22.018,32.593-21.6,12.07.413,23.093,8.855,31.037,23.771,16.154,30.325,14.5,78.711-3.687,107.863C409.387,209.275,398.173,216.914,386.438,216.914Zm-29.894-24.891c7.535,14.145,17.852,22.144,29.048,22.528,11.176.344,22.034-6.9,30.515-20.492,17.793-28.517,19.41-75.851,3.61-105.514C412.183,74.4,401.868,66.4,390.67,66.017c-11.2-.36-22.036,6.9-30.517,20.492-17.789,28.515-19.41,75.849-3.608,105.514Zm30.212,10.663c-.254,0-.506,0-.759-.014-9.878-.338-18.888-7.23-25.373-19.406h0c-13.14-24.668-11.8-64.031,3-87.745,7.3-11.7,16.7-17.974,26.642-17.627,9.878.338,18.888,7.23,25.375,19.406,13.14,24.668,11.794,64.031-3,87.745C405.525,196.45,396.359,202.684,386.757,202.686Zm2.754-122.455c-8.764,0-17.224,5.845-23.893,16.534-14.4,23.081-15.709,61.389-2.922,85.4h0c6.075,11.4,14.379,17.854,23.382,18.162,8.983.323,17.73-5.562,24.568-16.524,14.4-23.079,15.707-61.389,2.92-85.4C407.491,87,399.186,80.55,390.184,80.243Q389.847,80.231,389.511,80.231Z" transform="translate(-343.361 -63.652)" fill="#16110d"/>
          </g>
        </g>
        <g id="Grupo_138861" data-name="Grupo 138861" transform="translate(52.507 39.13)">
          <g id="Grupo_138859" data-name="Grupo 138859" transform="translate(12.244 2.514)">
            <path id="Trazado_133666" data-name="Trazado 133666" d="M366.821,120.587c4.48,8.41,12.2,8.676,17.246.59s5.5-21.46,1.021-29.872-12.2-8.676-17.248-.59S362.34,112.175,366.821,120.587Z" transform="translate(-363.737 -84.819)" fill="#8b3d9b"/>
          </g>
          <g id="Grupo_138860" data-name="Grupo 138860">
            <path id="Trazado_133667" data-name="Trazado 133667" d="M381.6,122.984c-2.837,4.549-6.6,6.976-10.612,6.84s-7.606-2.817-10.126-7.553h0c-4.857-9.113-4.375-23.116,1.09-31.885,2.837-4.549,6.608-6.976,10.618-6.84s7.6,2.821,10.12,7.551a32.711,32.711,0,0,1,3.3,16.632A32.227,32.227,0,0,1,381.6,122.984Zm-17.179-2.6c1.816,3.405,4.2,5.33,6.7,5.412s5.011-1.67,7.053-4.944c4.7-7.523,5.121-20.024.952-27.856-1.814-3.4-4.192-5.326-6.7-5.412s-5.013,1.668-7.057,4.946a28.268,28.268,0,0,0-3.781,13.311A28.751,28.751,0,0,0,364.421,120.379Z" transform="translate(-357.514 -83.541)" fill="#16110d"/>
          </g>
        </g>
        <g id="Grupo_138862" data-name="Grupo 138862" transform="translate(104.873 139.563)">
          <path id="Trazado_133668" data-name="Trazado 133668" d="M385.113,148.311c-.934-2-.2-4.851,2.668-7.808a17.664,17.664,0,0,1,9.178-5.009c4.4-.877,7.379.216,8.446,2.316h0l19.7,25.158-28.481,16.14Z" transform="translate(-383.553 -134.013)" fill="#636363"/>
          <path id="Trazado_133669" data-name="Trazado 133669" d="M403.37,168.46l-14.718-28.979a4.1,4.1,0,0,1-.364-1.515c-.114.11-.246.2-.356.315-2.87,2.957-3.6,5.812-2.67,7.808l11.509,30.8,28.481-16.142-2.542-3.246Z" transform="translate(-383.409 -131.327)" fill="#15100c"/>
          <path id="Trazado_133670" data-name="Trazado 133670" d="M396.583,181.388l-11.977-32.046c-.868-1.9-.537-4.238.929-6.587a18.784,18.784,0,0,1,15.31-8.155c2.92.1,5.091,1.216,6.128,3.146l20.474,26.148Zm3.824-44.446A16.687,16.687,0,0,0,387.528,144c-1.043,1.67-1.316,3.23-.773,4.393l.035.087,11.029,29.506,26.1-14.788-18.979-24.277c-.61-1.2-2.093-1.9-4.175-1.971Q400.585,136.942,400.408,136.942Z" transform="translate(-384.132 -134.591)" fill="#16110d"/>
        </g>
        <g id="Grupo_138863" data-name="Grupo 138863" transform="translate(116.664 165.662)">
          <path id="Trazado_133671" data-name="Trazado 133671" d="M419.263,210.773h0a4.3,4.3,0,0,1-.4-.836L391.5,168.052c-1.8-3.112-.588-7.869,4.556-12.707a25.548,25.548,0,0,1,11.578-6.234c6.689-1.59,11.271-.161,13.073,2.8h0a5.681,5.681,0,0,1,.582,1.295l19.986,45.272a7.765,7.765,0,0,1,.388.872l6.772,15.493a.372.372,0,0,1-.173.48l-19.787,9.925a.371.371,0,0,1-.482-.138Z" transform="translate(-389.556 -147.282)" fill="#636363"/>
          <path id="Trazado_133672" data-name="Trazado 133672" d="M446.322,206.583l-14.684,10.708c-.171.087-34.708-63.354-34.708-63.354a5.849,5.849,0,0,1-.69-2.152c-.057.053-.118.1-.175.155-5.143,4.84-6.358,9.595-4.556,12.707l27.364,41.885a4.258,4.258,0,0,0,.4.836L428,221.706a.371.371,0,0,0,.482.138l19.788-9.925a.369.369,0,0,0,.173-.478Z" transform="translate(-389.547 -144.059)" fill="#15100c"/>
          <path id="Trazado_133673" data-name="Trazado 133673" d="M428.87,227.04a1.529,1.529,0,0,1-1.312-.74l-8.721-14.33a5.293,5.293,0,0,1-.46-.921l-27.293-41.778c-2.266-3.917-.441-9.339,4.735-14.206a26.726,26.726,0,0,1,12.111-6.524c6.742-1.6,12.105-.352,14.348,3.337a6.793,6.793,0,0,1,.7,1.566l19.933,45.133a8.455,8.455,0,0,1,.437,1l6.726,15.377a1.547,1.547,0,0,1-.72,2l-19.791,9.929A1.554,1.554,0,0,1,428.87,227.04Zm-15.542-76.827a21.1,21.1,0,0,0-4.855.616,24.351,24.351,0,0,0-11.045,5.947c-4.338,4.082-6,8.4-4.346,11.265l27.45,42.064a3.118,3.118,0,0,0,.289.61l.016.024,8.34,13.7,18.442-9.252L441.154,200.4a6.521,6.521,0,0,0-.356-.8L420.78,154.256a5.073,5.073,0,0,0-.51-1.157C419.123,151.213,416.615,150.213,413.328,150.213Z" transform="translate(-390.125 -147.858)" fill="#16110d"/>
        </g>
        <g id="Grupo_138864" data-name="Grupo 138864" transform="translate(153.931 229.644)">
          <path id="Trazado_133674" data-name="Trazado 133674" d="M417.894,207.59l-7.783-13.268c-.049-.081-.1-.163-.146-.248h0c-.755-1.485-.555-3.472.791-5.629,2.729-4.373,9.119-7.777,14.271-7.6,2.825.1,4.682,1.253,5.343,2.994l7.983,13.642Z" transform="translate(-408.622 -179.937)" fill="#fef536"/>
          <path id="Trazado_133675" data-name="Trazado 133675" d="M417.988,209.217l-8.21-13.994a3.425,3.425,0,0,1-.171-.3c-.938-1.841-.643-4.155.828-6.516,2.878-4.611,9.652-8.164,15.07-8.027,3.091.106,5.333,1.411,6.158,3.575l8.406,14.346Zm7.092-27.033c-4.792,0-10.6,3.162-13.112,7.183-1.123,1.8-1.389,3.484-.752,4.739l.118.2,7.36,12.548,18.837-9.311-7.5-12.8c-.616-1.588-2.266-2.467-4.594-2.548C425.322,182.186,425.2,182.184,425.08,182.184Z" transform="translate(-409.068 -180.38)" fill="#16110d"/>
        </g>
        <g id="Grupo_138865" data-name="Grupo 138865" transform="translate(161.995 243.371)">
          <path id="Trazado_133676" data-name="Trazado 133676" d="M413.824,202.279c-1.088-2.028-.818-4.545.761-7.067a18.177,18.177,0,0,1,14.726-7.848c2.975.1,5.21,1.277,6.3,3.313a5.676,5.676,0,0,1,.645,2.975,8.6,8.6,0,0,1-1.409,4.1,18.182,18.182,0,0,1-14.725,7.846C417.143,205.5,414.908,204.319,413.824,202.279Z" transform="translate(-413.167 -187.357)" fill="#16110d"/>
        </g>
        <g id="Grupo_138875" data-name="Grupo 138875" transform="translate(104.502 145.501)">
          <g id="Grupo_138873" data-name="Grupo 138873" transform="translate(11.601 28.208)">
            <path id="Trazado_133679" data-name="Trazado 133679" d="M391.506,159.837l-1.666-.7c.081-.195,2.044-4.81,5.5-7.191l1.027,1.485C393.342,155.521,391.524,159.8,391.506,159.837Z" transform="translate(-389.84 -151.948)" fill="#636363"/>
          </g>
          <g id="Grupo_138874" data-name="Grupo 138874">
            <path id="Trazado_133680" data-name="Trazado 133680" d="M385.743,144.279l-1.8-.163a9.88,9.88,0,0,1,3.573-6.506l1.084,1.446A8.177,8.177,0,0,0,385.743,144.279Z" transform="translate(-383.943 -137.61)" fill="#636363"/>
          </g>
        </g>
      </g>
      <g id="Grupo_138958" data-name="Grupo 138958" transform="translate(360.874 848.544)">
        <g id="Grupo_138957" data-name="Grupo 138957">
          <g id="Grupo_138885" data-name="Grupo 138885" transform="translate(23.077 19.454)">
            <g id="Grupo_138877" data-name="Grupo 138877" transform="translate(8.377 19.932)">
              <path id="Trazado_133681" data-name="Trazado 133681" d="M381.109,214.92v74.192a2.878,2.878,0,0,0,.832,2.032v.006l.014.01a3.008,3.008,0,0,0,.751.545l3.933,2.847,1.761-4.523,62.483-35.664a5.107,5.107,0,0,0,2.585-4.434V194.344Z" transform="translate(-380.269 -193.232)" fill="#100b0b"/>
              <path id="Trazado_133682" data-name="Trazado 133682" d="M382.736,293a3.717,3.717,0,0,1-.909-.647l-.728-.59.14-.142a3.709,3.709,0,0,1-.557-1.959V214.833l74.041-21.054v56.7a5.955,5.955,0,0,1-3.01,5.162l-62.225,35.518-2.048,5.261Zm-.374-76.9v73.563a2.05,2.05,0,0,0,.594,1.444l.049.053a3,3,0,0,0,.608.413l3.051,2.209L388.136,290l62.742-35.812a4.278,4.278,0,0,0,2.162-3.706V196Z" transform="translate(-380.682 -193.779)" fill="#15100c"/>
            </g>
            <g id="Grupo_138878" data-name="Grupo 138878" transform="translate(12.404 9.902)">
              <path id="Trazado_133683" data-name="Trazado 133683" d="M455.514,189.348v68.3a5.108,5.108,0,0,1-2.583,4.432l-65.339,37.293a2.959,2.959,0,0,1-4.434-2.546V222.639Z" transform="translate(-382.315 -188.036)" fill="#ba68c8"/>
              <path id="Trazado_133684" data-name="Trazado 133684" d="M384.614,300.741a3.743,3.743,0,0,1-1.885-3.262V222.747l74.041-34.066V258.3a5.952,5.952,0,0,1-3.01,5.16L388.424,300.75a3.786,3.786,0,0,1-3.811-.01Zm-.2-76.915v73.653a2.075,2.075,0,0,0,1.047,1.808,2.119,2.119,0,0,0,2.135.006L452.926,262a4.274,4.274,0,0,0,2.162-3.7v-66.99Z" transform="translate(-382.729 -188.681)" fill="#15100c"/>
            </g>
            <g id="Grupo_138879" data-name="Grupo 138879" transform="translate(106.136 73.008)">
              <path id="Trazado_133685" data-name="Trazado 133685" d="M430.8,244.5V318.69a2.878,2.878,0,0,0,.832,2.032l0,.006.016.01a2.976,2.976,0,0,0,.752.545l3.933,2.847,1.761-4.523,62.483-35.664a5.107,5.107,0,0,0,2.585-4.434V221.344Z" transform="translate(-429.96 -220.191)" fill="#100b0b"/>
              <path id="Trazado_133686" data-name="Trazado 133686" d="M432.419,322.6a2.969,2.969,0,0,1-.809-.576l-.663-.407.106-.21a3.681,3.681,0,0,1-.681-2.144v-74.8l74.037-23.695v59.319a5.955,5.955,0,0,1-3.006,5.16l-62.223,35.516-2.048,5.263Zm-.366-76.915v73.577a2.028,2.028,0,0,0,.594,1.446l.057.055a2.759,2.759,0,0,0,.6.413l3.057,2.207,1.47-3.785L500.57,283.78a4.276,4.276,0,0,0,2.16-3.7V223.064Z" transform="translate(-430.373 -220.758)" fill="#15100c"/>
            </g>
            <g id="Grupo_138880" data-name="Grupo 138880" transform="translate(110.163 71.088)">
              <path id="Trazado_133687" data-name="Trazado 133687" d="M505.206,220.405v62.9a5.109,5.109,0,0,1-2.583,4.432l-65.339,37.295a2.961,2.961,0,0,1-4.436-2.546V248.294Z" transform="translate(-432.007 -219.179)" fill="#f6f6f6"/>
              <path id="Trazado_133688" data-name="Trazado 133688" d="M434.3,326.351a3.744,3.744,0,0,1-1.885-3.264V248.318l74.039-28.536v64.125a5.957,5.957,0,0,1-3.008,5.162l-65.337,37.293a3.775,3.775,0,0,1-3.809-.012Zm-.2-76.878v73.614a2.068,2.068,0,0,0,1.047,1.808,2.126,2.126,0,0,0,2.131.01l65.339-37.291a4.282,4.282,0,0,0,2.158-3.706V222.231Z" transform="translate(-432.42 -219.782)" fill="#15100c"/>
            </g>
            <g id="Grupo_138881" data-name="Grupo 138881" transform="translate(0 3.999)">
              <path id="Trazado_133689" data-name="Trazado 133689" d="M569.146,259.49a2.137,2.137,0,0,0,0-.372l.01-3.649L557.5,250.893l-110.13-63.769c-2.561-1.483-7.049-1.318-10.022.366l-57.039,32.333-3.437-.189-.026,4.289.043.01a3.066,3.066,0,0,0,1.678,2.192l120.081,69.532c2.563,1.483,7.049,1.318,10.024-.368l58.033-32.894a4.374,4.374,0,0,0,2.432-2.888l0,0Z" transform="translate(-376.01 -185.264)" fill="#0f0b0b"/>
              <path id="Trazado_133690" data-name="Trazado 133690" d="M498.649,296.8,378.564,227.265a4.039,4.039,0,0,1-1.954-2.225l-.187-3.407.035-2.469,4.07.22,56.823-32.211c3.26-1.837,8.031-2,10.856-.362l110.018,63.718,12.186,4.785-.008,4.275a1.989,1.989,0,0,1-.014.449l-.83-.13.828.144a5.2,5.2,0,0,1-2.849,3.49l-58.033,32.894a12.492,12.492,0,0,1-6.024,1.5A9.815,9.815,0,0,1,498.649,296.8Zm70.919-36.954-.848-.315.01-3.073L557.5,252.038l-110.13-63.771c-2.284-1.32-6.49-1.157-9.187.37L381.144,220.97l-.212.12-2.8-.153-.018,3.049.033.25a2.33,2.33,0,0,0,1.263,1.576l120.082,69.53c2.29,1.326,6.5,1.159,9.189-.37l58.033-32.894a3.8,3.8,0,0,0,2.009-2.154l.01-.138Z" transform="translate(-376.424 -185.68)" fill="#15100c"/>
            </g>
            <g id="Grupo_138882" data-name="Grupo 138882" transform="translate(0.002)">
              <path id="Trazado_133691" data-name="Trazado 133691" d="M498.654,293.623,378.576,224.091c-2.563-1.483-2.229-4.053.746-5.737l58.033-32.9c2.973-1.686,7.46-1.849,10.022-.366l120.081,69.532c2.561,1.483,2.229,4.051-.746,5.737l-58.033,32.9C505.7,294.943,501.217,295.106,498.654,293.623Z" transform="translate(-376.012 -183.231)" fill="#e8e8e8"/>
              <path id="Trazado_133692" data-name="Trazado 133692" d="M508.115,291.506c-2.975,1.686-7.462,1.849-10.024.366l-120.08-69.532a4.436,4.436,0,0,1-.787-.574,5.564,5.564,0,0,1,1.942-1.729L437.2,187.143c2.975-1.686,7.46-1.851,10.024-.368L567.3,256.309a4.348,4.348,0,0,1,.785.574,5.545,5.545,0,0,1-1.942,1.729Z" transform="translate(-375.652 -181.602)" fill="#f6f6f6"/>
              <path id="Trazado_133693" data-name="Trazado 133693" d="M498.648,294.768,378.57,225.236A3.767,3.767,0,0,1,376.425,222c.008-1.479,1.06-2.925,2.9-3.966l58.031-32.894c3.26-1.847,8.031-2,10.856-.364L568.29,254.313a3.76,3.76,0,0,1,2.142,3.23c-.006,1.479-1.06,2.927-2.894,3.968l-58.033,32.894a12.525,12.525,0,0,1-6.02,1.5A9.831,9.831,0,0,1,498.648,294.768ZM438.18,186.607l-58.033,32.9c-1.273.722-2.038,1.66-2.042,2.506a2.226,2.226,0,0,0,1.3,1.771l120.078,69.53c2.288,1.326,6.5,1.159,9.189-.368l58.033-32.894c1.275-.722,2.038-1.66,2.042-2.51a2.214,2.214,0,0,0-1.3-1.767L447.367,186.233a8.163,8.163,0,0,0-3.968-.893A10.923,10.923,0,0,0,438.18,186.607Z" transform="translate(-376.425 -183.648)" fill="#15100c"/>
            </g>
            <g id="Grupo_138883" data-name="Grupo 138883" transform="translate(44.556 89.902)">
              <path id="Trazado_133694" data-name="Trazado 133694" d="M399.5,234.082v-4l61.579,35.6v3.878Z" transform="translate(-398.659 -228.629)" fill="#ba68c8"/>
              <path id="Trazado_133695" data-name="Trazado 133695" d="M399.072,235.282v-5.937l63.26,36.573v5.817Zm1.68-3.024v2.052l59.9,34.515V266.89Z" transform="translate(-399.072 -229.345)" fill="#15100c"/>
            </g>
            <g id="Grupo_138884" data-name="Grupo 138884" transform="translate(43.726 79.434)">
              <path id="Trazado_133696" data-name="Trazado 133696" d="M399.5,235.47l18.727-10.953,42.853,24.574v21.982Z" transform="translate(-397.829 -223.546)" fill="#636363"/>
              <path id="Trazado_133697" data-name="Trazado 133697" d="M398.65,235.952l20.393-11.928,43.7,25.058v23.927Zm20.4-9.984-17.061,9.978,59.069,34.147V250.054Z" transform="translate(-398.65 -224.024)" fill="#15100c"/>
            </g>
          </g>
          <g id="Grupo_138886" data-name="Grupo 138886" transform="translate(42.638 32.875)">
            <path id="Trazado_133698" data-name="Trazado 133698" d="M479.873,275.161l-92.016-52.884c-1.651-.956-1.436-2.613.482-3.7l47.242-26.758a7.225,7.225,0,0,1,6.461-.236l92.016,52.882c1.651.956,1.434,2.613-.482,3.7l-47.242,26.758A7.231,7.231,0,0,1,479.873,275.161Z" transform="translate(-386 -190.023)" fill="#e8e8e8"/>
            <path id="Trazado_133699" data-name="Trazado 133699" d="M479.82,276.335,387.9,223.38a2.715,2.715,0,0,1-1.529-2.343,3.439,3.439,0,0,1,2.018-2.813l47.242-26.76a8.076,8.076,0,0,1,7.295-.232l91.922,52.953a2.71,2.71,0,0,1,1.529,2.349,3.435,3.435,0,0,1-2.014,2.811L487.116,276.1a8.373,8.373,0,0,1-4.031,1A6.646,6.646,0,0,1,479.82,276.335Zm-43.364-83.407-47.242,26.76c-.716.407-1.163.925-1.167,1.359,0,.413.431.728.69.875l91.922,52.955a6.421,6.421,0,0,0,5.629-.24l47.242-26.756c.716-.4,1.163-.925,1.163-1.359,0-.417-.429-.732-.688-.879L442.08,192.688a4.913,4.913,0,0,0-2.408-.541A6.735,6.735,0,0,0,436.455,192.928Z" transform="translate(-386.367 -190.469)" fill="#15100c"/>
          </g>
          <g id="Grupo_138892" data-name="Grupo 138892" transform="translate(89.823)">
            <g id="Grupo_138887" data-name="Grupo 138887" transform="translate(33.545 74.637)">
              <path id="Trazado_133700" data-name="Trazado 133700" d="M438.821,212.491v5.792l-10.338,5.692,3.991-7.28Z" transform="translate(-426.356 -210.929)" fill="#ba68c8"/>
              <path id="Trazado_133701" data-name="Trazado 133701" d="M432.785,217.056l7.924-5.359v7.848L427.4,226.871Zm6.242-2.235-4.871,3.226-2.5,4.564,7.372-4.059Z" transform="translate(-427.402 -211.697)" fill="#15100c"/>
            </g>
            <path id="Trazado_133702" data-name="Trazado 133702" d="M419.224,216.2l4.3-6.656,17.9,10.012-3.991,7.28Z" transform="translate(-401.767 -139.148)" fill="#100b0b"/>
            <g id="Grupo_138888" data-name="Grupo 138888" transform="translate(16.276 65.494)">
              <path id="Trazado_133703" data-name="Trazado 133703" d="M421.412,211.47l6.581-3.927,17.669,9.735-6.347,4.2Z" transform="translate(-415.928 -206.574)" fill="#ba68c8"/>
              <path id="Trazado_133704" data-name="Trazado 133704" d="M438.341,230.4l4.308-7.856,7.332-4.853L430.674,207.05l-6.581,3.927-.586.348-.592.919-4.291,6.64Zm8.4-12.579-4.763,3.152-16.185-9.048,4.916-2.937Zm-5.865,4.464-3.175,5.792-16.711-9.756,3.4-5.253Z" transform="translate(-418.624 -207.05)" fill="#15100c"/>
            </g>
            <g id="Grupo_138889" data-name="Grupo 138889" transform="translate(1.076)">
              <path id="Trazado_133705" data-name="Trazado 133705" d="M478.091,209.132,417.92,174.564a2.173,2.173,0,0,0-1.845-.273h0a1.663,1.663,0,0,0-.573.376l-3.99,2.622,3.2,4.375-.045,38.52a7.588,7.588,0,0,0,3.193,6.069l50.9,29.239,6.343,8.664,4.775-3.059c.818-.3,1.359-1.243,1.361-2.672l.051-43.222A7.59,7.59,0,0,0,478.091,209.132Z" transform="translate(-410.306 -173.344)" fill="#ba68c8"/>
              <path id="Trazado_133706" data-name="Trazado 133706" d="M468.769,256.546,418.028,227.4a8.389,8.389,0,0,1-3.61-6.8l.045-38.245-3.565-4.867,4.606-3a2.467,2.467,0,0,1,.874-.569,2.94,2.94,0,0,1,2.554.334l60.173,34.57a8.407,8.407,0,0,1,3.614,6.8l-.053,43.228c0,1.733-.722,3.03-1.749,3.378L475.48,265.7ZM416.952,175.5a1.373,1.373,0,0,0-.4.287l-3.25,2.135,2.843,3.884-.047,38.8a6.764,6.764,0,0,0,2.772,5.339l50.9,29.239,6.138,8.263,4.273-2.719c.5-.177.8-.9.809-1.881l.051-43.224a6.791,6.791,0,0,0-2.77-5.341l-60.171-34.568a1.769,1.769,0,0,0-.838-.262A.858.858,0,0,0,416.952,175.5Z" transform="translate(-410.898 -173.759)" fill="#15100c"/>
            </g>
            <g id="Grupo_138890" data-name="Grupo 138890" transform="translate(0 3.01)">
              <path id="Trazado_133707" data-name="Trazado 133707" d="M474.141,262.356,413.97,227.788a7.587,7.587,0,0,1-3.191-6.069l.051-43.222c0-2.339,1.436-3.411,3.2-2.4L474.2,210.668a7.583,7.583,0,0,1,3.193,6.069l-.051,43.222C477.342,262.3,475.908,263.37,474.141,262.356Z" transform="translate(-409.937 -174.875)" fill="#110c0c"/>
              <path id="Trazado_133708" data-name="Trazado 133708" d="M474.136,263.5l-60.167-34.568a8.389,8.389,0,0,1-3.618-6.8l.053-43.22a3.629,3.629,0,0,1,1.519-3.289,2.864,2.864,0,0,1,2.941.165l60.173,34.568a8.4,8.4,0,0,1,3.614,6.8l-.053,43.222a3.625,3.625,0,0,1-1.523,3.287,2.421,2.421,0,0,1-1.245.332A3.413,3.413,0,0,1,474.136,263.5Zm-61.369-86.423a2.1,2.1,0,0,0-.683,1.836l-.053,43.22a6.772,6.772,0,0,0,2.774,5.341l60.173,34.568a1.366,1.366,0,0,0,1.257.167,2.1,2.1,0,0,0,.683-1.834l.051-43.222a6.766,6.766,0,0,0-2.774-5.339l-60.167-34.568a1.856,1.856,0,0,0-.858-.27A.777.777,0,0,0,412.767,177.075Z" transform="translate(-410.351 -175.289)" fill="#15100c"/>
            </g>
            <g id="Grupo_138891" data-name="Grupo 138891" transform="translate(4.596 11.163)">
              <path id="Trazado_133709" data-name="Trazado 133709" d="M467.367,250.367l-52.477-30.148a4.225,4.225,0,0,1-1.776-3.378l.041-35.434c0-1.3.8-1.9,1.782-1.334l52.477,30.146a4.222,4.222,0,0,1,1.778,3.38l-.043,35.434C469.148,250.333,468.351,250.931,467.367,250.367Z" transform="translate(-412.274 -179.02)" fill="#fff"/>
              <path id="Trazado_133710" data-name="Trazado 133710" d="M416.511,186.054c0-1.3.8-1.9,1.782-1.332l48.06,27.61-.037,31.806c0,1.3-.8,1.9-1.782,1.334l-48.06-27.61Z" transform="translate(-409.024 -174.523)" fill="#fff"/>
              <path id="Trazado_133711" data-name="Trazado 133711" d="M467.363,251.51l-52.481-30.149a5.092,5.092,0,0,1-2.2-4.106l.043-35.434a2.362,2.362,0,0,1,1.031-2.152,1.968,1.968,0,0,1,2.011.089L468.245,209.9a5.088,5.088,0,0,1,2.2,4.11l-.043,35.43a2.37,2.37,0,0,1-1.031,2.154,1.764,1.764,0,0,1-.881.234A2.3,2.3,0,0,1,467.363,251.51ZM414.6,181.123c-.051.026-.193.22-.193.7l-.043,35.434a3.415,3.415,0,0,0,1.356,2.648L468.2,250.052a.486.486,0,0,0,.329.092c.049-.03.193-.22.193-.7l.043-35.43a3.412,3.412,0,0,0-1.359-2.654l-52.471-30.146a.655.655,0,0,0-.291-.1A.075.075,0,0,0,414.6,181.123Z" transform="translate(-412.687 -179.433)" fill="#fff"/>
            </g>
          </g>
          <g id="Grupo_138897" data-name="Grupo 138897" transform="translate(73.545 68.09)">
            <g id="Grupo_138893" data-name="Grupo 138893" transform="translate(0.007 2.532)">
              <path id="Trazado_133712" data-name="Trazado 133712" d="M470.638,236.828v-2.434l-18.161-8.373L426.1,210.581a5.569,5.569,0,0,0-4.979.193l-14.09,7.93-4.5.728,0,2.538a1.13,1.13,0,0,0,0,.452v0h0a1.586,1.586,0,0,0,.83.993l43.7,25.137a5.569,5.569,0,0,0,4.979-.195l17.4-9.791C470.308,238.073,470.707,237.426,470.638,236.828Z" transform="translate(-401.666 -209.244)" fill="#0f0b0b"/>
              <path id="Trazado_133713" data-name="Trazado 133713" d="M447.057,249.7l-43.7-25.135a2.36,2.36,0,0,1-1.233-1.54,1.44,1.44,0,0,1-.02-.635l0-3.254,5.062-.816,13.954-7.856a6.4,6.4,0,0,1,5.819-.191l26.3,15.4,18.65,8.6V237.2a2.721,2.721,0,0,1-1.627,2.516L452.874,249.5a6.641,6.641,0,0,1-3.217.8A5.327,5.327,0,0,1,447.057,249.7Zm5.41-22.536-26.372-15.438a4.756,4.756,0,0,0-4.145.2l-14.088,7.93-4.078.714,0,1.822-.02.271a.817.817,0,0,0,.431.447l43.7,25.135a4.74,4.74,0,0,0,4.147-.2l17.389-9.79c.618-.35.809-.712.785-.915l-.006-1.991Z" transform="translate(-402.08 -209.656)" fill="#15100c"/>
            </g>
            <g id="Grupo_138894" data-name="Grupo 138894">
              <path id="Trazado_133714" data-name="Trazado 133714" d="M426.1,209.294l43.7,25.184c1.275.734,1.112,2.011-.364,2.851l-17.4,9.793a5.569,5.569,0,0,1-4.979.193l-43.7-25.182c-1.275-.734-1.112-2.011.364-2.853l17.393-9.791A5.574,5.574,0,0,1,426.1,209.294Z" transform="translate(-401.664 -207.957)" fill="#ba68c8"/>
              <path id="Trazado_133715" data-name="Trazado 133715" d="M445.394,244.491l-41.035-23.649,15.1-8.5a5.569,5.569,0,0,1,4.979-.195L465.474,235.8l-15.1,8.5A5.573,5.573,0,0,1,445.394,244.491Z" transform="translate(-399.87 -205.198)" fill="#15100c"/>
              <path id="Trazado_133716" data-name="Trazado 133716" d="M447.054,248.457l-43.7-25.184a2.273,2.273,0,0,1-1.281-1.971,2.847,2.847,0,0,1,1.651-2.341l17.391-9.79a6.4,6.4,0,0,1,5.817-.193l43.7,25.184a2.273,2.273,0,0,1,1.277,1.965,2.847,2.847,0,0,1-1.649,2.347l-17.389,9.791a6.665,6.665,0,0,1-3.219.8A5.3,5.3,0,0,1,447.054,248.457ZM426.1,210.436a4.708,4.708,0,0,0-4.147.2l-17.391,9.791c-.59.334-.8.683-.8.879,0,.234.307.437.441.511L447.894,247a4.723,4.723,0,0,0,4.145-.2l17.391-9.788c.588-.338.8-.691.8-.887,0-.232-.3-.433-.435-.508l-43.7-25.184Z" transform="translate(-402.077 -208.369)" fill="#15100c"/>
            </g>
            <g id="Grupo_138896" data-name="Grupo 138896" transform="translate(4.037 11.188)">
              <g id="Grupo_138895" data-name="Grupo 138895">
                <path id="Trazado_133717" data-name="Trazado 133717" d="M410.769,216.938l-1.916,1.1a1.682,1.682,0,0,1-1.507-.061l-2.418-1.381c-.449-.256-.5-.641-.11-.864l1.916-1.1a1.693,1.693,0,0,1,1.509.061l2.418,1.381C411.108,216.33,411.157,216.718,410.769,216.938Z" transform="translate(-403.714 -213.643)" fill="#ba68c8"/>
                <path id="Trazado_133718" data-name="Trazado 133718" d="M407.344,219.122l-2.42-1.383a1.43,1.43,0,0,1-.795-1.214,1.273,1.273,0,0,1,.687-1.108l1.914-1.1a2.5,2.5,0,0,1,2.343.059l2.42,1.381a1.424,1.424,0,0,1,.793,1.214,1.27,1.27,0,0,1-.683,1.108l-1.912,1.1a2.166,2.166,0,0,1-1.088.27A2.544,2.544,0,0,1,407.344,219.122Zm.9-3.287a.919.919,0,0,0-.673-.059l-1.342.773,1.954,1.115a.927.927,0,0,0,.673.059l1.342-.771Z" transform="translate(-404.129 -214.056)" fill="#15100c"/>
              </g>
            </g>
          </g>
          <g id="Grupo_138904" data-name="Grupo 138904" transform="translate(172.673 66.781)">
            <g id="Grupo_138900" data-name="Grupo 138900" transform="translate(0 5.495)">
              <g id="Grupo_138898" data-name="Grupo 138898" transform="translate(0 3.716)">
                <path id="Trazado_133719" data-name="Trazado 133719" d="M452.892,212.814V236.45c0,2.154,3,3.9,6.691,3.9s6.691-1.747,6.691-3.9V212.814Z" transform="translate(-452.05 -211.972)" fill="#0f0b0b"/>
                <path id="Trazado_133720" data-name="Trazado 133720" d="M452.464,236.864V212.386h15.064v24.478c0,2.658-3.309,4.743-7.531,4.743S452.464,239.522,452.464,236.864Zm1.682-22.8v22.8c0,1.448,2.4,3.063,5.851,3.063s5.851-1.615,5.851-3.063v-22.8Z" transform="translate(-452.464 -212.386)" fill="#15100c"/>
              </g>
              <g id="Grupo_138899" data-name="Grupo 138899">
                <path id="Trazado_133721" data-name="Trazado 133721" d="M466.274,214.825c0,2.156-3,3.9-6.691,3.9s-6.691-1.747-6.691-3.9,3-3.9,6.691-3.9S466.274,212.671,466.274,214.825Z" transform="translate(-452.05 -210.084)" fill="#ba68c8"/>
                <path id="Trazado_133722" data-name="Trazado 133722" d="M452.464,215.24c0-2.658,3.309-4.743,7.533-4.743s7.531,2.085,7.531,4.743-3.309,4.739-7.531,4.739S452.464,217.9,452.464,215.24Zm1.682,0c0,1.448,2.4,3.059,5.851,3.059s5.851-1.611,5.851-3.059-2.4-3.063-5.851-3.063S454.146,213.792,454.146,215.24Z" transform="translate(-452.464 -210.497)" fill="#15100c"/>
              </g>
            </g>
            <g id="Grupo_138903" data-name="Grupo 138903" transform="translate(3.181)">
              <g id="Grupo_138901" data-name="Grupo 138901" transform="translate(0 2.003)">
                <path id="Trazado_133723" data-name="Trazado 133723" d="M454.508,209.149v6.679c0,1.131,1.572,2.048,3.512,2.048s3.512-.917,3.512-2.048v-6.679Z" transform="translate(-453.668 -208.309)" fill="#0f0b0b"/>
                <path id="Trazado_133724" data-name="Trazado 133724" d="M454.081,216.241v-7.519h8.706v7.519c0,1.619-1.91,2.89-4.354,2.89S454.081,217.86,454.081,216.241Zm1.68-5.839v5.839c0,.494,1.041,1.208,2.672,1.208s2.674-.714,2.674-1.208V210.4Z" transform="translate(-454.081 -208.722)" fill="#15100c"/>
              </g>
              <g id="Grupo_138902" data-name="Grupo 138902">
                <path id="Trazado_133725" data-name="Trazado 133725" d="M461.531,210.18c0,1.131-1.572,2.048-3.512,2.048s-3.512-.917-3.512-2.048,1.572-2.048,3.512-2.048S461.531,209.049,461.531,210.18Z" transform="translate(-453.668 -207.29)" fill="#ba68c8"/>
                <path id="Trazado_133726" data-name="Trazado 133726" d="M454.081,210.592c0-1.617,1.91-2.888,4.352-2.888s4.354,1.271,4.354,2.888-1.91,2.89-4.354,2.89S454.081,212.211,454.081,210.592Zm1.68,0c0,.492,1.041,1.208,2.672,1.208s2.674-.716,2.674-1.208-1.068-1.208-2.674-1.208S455.761,210.11,455.761,210.592Z" transform="translate(-454.081 -207.704)" fill="#15100c"/>
              </g>
            </g>
          </g>
          <g id="Grupo_138911" data-name="Grupo 138911" transform="translate(140.98 94.098)">
            <g id="Grupo_138908" data-name="Grupo 138908">
              <g id="Grupo_138907" data-name="Grupo 138907">
                <g id="Grupo_138905" data-name="Grupo 138905" transform="translate(0.095 5.361)">
                  <path id="Trazado_133727" data-name="Trazado 133727" d="M437.371,224.742a.539.539,0,0,0-.529.647l2.544,12.514c0,2.3,3.065,4.159,6.848,4.159s6.848-1.861,6.848-4.159l2.575-12.512a.539.539,0,0,0-.527-.649Z" transform="translate(-435.989 -223.9)" fill="#ba68c8"/>
                  <path id="Trazado_133728" data-name="Trazado 133728" d="M438.975,238.485l-2.546-12.52a1.385,1.385,0,0,1,1.357-1.651h17.757a1.368,1.368,0,0,1,1.07.51,1.384,1.384,0,0,1,.283,1.151l-2.561,12.343c0,2.8-3.378,5-7.686,5S438.957,241.121,438.975,238.485Zm-.824-12.491,2.489,12.323c0,1.8,2.75,3.319,6.01,3.319s6.006-1.521,6.022-3.49l2.5-12.152Z" transform="translate(-436.403 -224.314)" fill="#15100c"/>
                </g>
                <g id="Grupo_138906" data-name="Grupo 138906">
                  <path id="Trazado_133729" data-name="Trazado 133729" d="M455.777,227.774c-.435,2.772-4.665,4.842-9.485,4.842s-9.046-2.07-9.475-4.842c-.472-3.051,3.756-5.758,9.485-5.758S456.253,224.723,455.777,227.774Z" transform="translate(-435.941 -221.176)" fill="#ba68c8"/>
                  <path id="Trazado_133730" data-name="Trazado 133730" d="M436.4,228.315a4.2,4.2,0,0,1,1.086-3.429c1.741-2.032,5.278-3.3,9.229-3.3s7.484,1.265,9.223,3.3a4.188,4.188,0,0,1,1.084,3.429v0c-.5,3.163-4.934,5.55-10.317,5.55S436.891,231.483,436.4,228.315Zm18.959-.26a2.532,2.532,0,0,0-.7-2.078c-1.409-1.645-4.527-2.707-7.946-2.707s-6.543,1.062-7.954,2.707a2.555,2.555,0,0,0-.7,2.081c.352,2.278,4.228,4.129,8.645,4.129s8.3-1.855,8.654-4.133Z" transform="translate(-436.354 -221.589)" fill="#15100c"/>
                </g>
              </g>
            </g>
            <g id="Grupo_138909" data-name="Grupo 138909" transform="translate(2.071 1.682)">
              <path id="Trazado_133731" data-name="Trazado 133731" d="M452.695,226.8c-.338,1.893-3.649,3.305-7.419,3.305s-7.078-1.413-7.413-3.305c-.37-2.083,2.937-3.931,7.421-3.931S453.068,224.718,452.695,226.8Z" transform="translate(-436.993 -222.031)" fill="#ba68c8"/>
              <path id="Trazado_133732" data-name="Trazado 133732" d="M437.449,227.36a2.857,2.857,0,0,1,.7-2.373c1.316-1.57,4.208-2.544,7.545-2.544s6.227.974,7.535,2.544a2.857,2.857,0,0,1,.7,2.373h0c-.47,2.626-4.505,4-8.247,4S437.911,229.983,437.449,227.36Zm1.995-1.293a1.192,1.192,0,0,0-.342,1c.224,1.263,2.925,2.613,6.589,2.613s6.364-1.354,6.592-2.613h0a1.188,1.188,0,0,0-.336-1c-.811-.968-3.055-1.944-6.248-1.944S440.254,225.1,439.443,226.068Z" transform="translate(-437.407 -222.444)" fill="#15100c"/>
            </g>
            <g id="Grupo_138910" data-name="Grupo 138910" transform="translate(2.616 5.298)">
              <path id="Trazado_133733" data-name="Trazado 133733" d="M438.349,226.5a12.454,12.454,0,0,1,12.866,0,12.236,12.236,0,0,1-12.866,0Z" transform="translate(-437.041 -223.868)" fill="#0f0b0b"/>
              <path id="Trazado_133734" data-name="Trazado 133734" d="M438.449,227.56l-.765-.647.769-.641c1.487-1.247,4.094-1.989,6.976-1.989a11.31,11.31,0,0,1,6.968,1.983l.771.643-.769.647a11.221,11.221,0,0,1-6.98,2.028A11.382,11.382,0,0,1,438.449,227.56Zm2.105-.641a13.286,13.286,0,0,0,9.738,0A13.589,13.589,0,0,0,440.554,226.918Z" transform="translate(-437.684 -224.282)" fill="#15100c"/>
            </g>
          </g>
          <g id="Grupo_138956" data-name="Grupo 138956" transform="translate(0 30.337)">
            <g id="Grupo_138916" data-name="Grupo 138916" transform="translate(23.156 92.305)">
              <g id="Grupo_138913" data-name="Grupo 138913" transform="translate(0 49.663)">
                <g id="Grupo_138912" data-name="Grupo 138912">
                  <path id="Trazado_133735" data-name="Trazado 133735" d="M380.115,265.613s-1.1-.079-1.794,2.764-2.469,4.8-.6,6.473,7.139,3.626,9.461,3.313a26.391,26.391,0,0,0,4.472-1.047c.681-.181,17.326-5.56,17.326-5.56s1.4-1.413,1.106-2.542a5.611,5.611,0,0,0-3.522-3.72c-.533-.264-8.7-.771-10.9-.907s-8.408-2.577-8.408-2.577Z" transform="translate(-376.051 -260.889)"/>
                  <path id="Trazado_133736" data-name="Trazado 133736" d="M378.171,266.882l6.545-3.486s6.207,2.439,8.41,2.577,10.37.641,10.9.9a5.767,5.767,0,0,1,3.405,3.47c-4.055,1.31-15.318,4.942-15.874,5.092a26.458,26.458,0,0,1-4.472,1.047c-2.323.313-7.59-1.645-9.461-3.313C375.8,271.541,377.451,269.625,378.171,266.882Z" transform="translate(-376.145 -259.355)"/>
                  <path id="Trazado_133737" data-name="Trazado 133737" d="M377.579,275.93c-1.771-1.576-1.064-3.4-.382-5.156a16.8,16.8,0,0,0,.72-2.144c.659-2.707,1.763-3.283,2.367-3.384l7.328-3.9.362.142c1.69.663,6.453,2.412,8.153,2.516,10.515.643,10.974.872,11.377,1.064a6.326,6.326,0,0,1,3.809,4.192c.4,1.544-1.143,3.163-1.32,3.344l-.338.211c-.683.218-16.675,5.383-17.37,5.57l-.5.148a23.888,23.888,0,0,1-4.076.919,4.911,4.911,0,0,1-.653.039A18.505,18.505,0,0,1,377.579,275.93Zm32.105-6.25a4.607,4.607,0,0,0-2.864-3.079l-.138-.069c-.411-.118-3.447-.411-10.659-.85-2.015-.128-6.915-1.963-8.3-2.495l-6.8,3.62-.075.108-.24-.02c-.006,0-.594.246-1.055,2.135a18.732,18.732,0,0,1-.787,2.349c-.716,1.847-.893,2.561-.069,3.3,1.8,1.6,6.817,3.392,8.79,3.106a22.7,22.7,0,0,0,3.811-.858c.224-.069.411-.124.555-.163.48-.132,10.4-3.325,17.08-5.483C409.338,270.813,409.786,270.067,409.684,269.68Z" transform="translate(-376.464 -261.342)" fill="#15100c"/>
                </g>
              </g>
              <g id="Grupo_138914" data-name="Grupo 138914" transform="translate(4.886 46.085)">
                <path id="Trazado_133738" data-name="Trazado 133738" d="M380.653,259.95l-1.237,6.166a10.361,10.361,0,0,0,4.81,2.353,4.948,4.948,0,0,0,3.98-1.647l1.375-6.856Z" transform="translate(-378.496 -259.11)" fill="#636363"/>
                <path id="Trazado_133739" data-name="Trazado 133739" d="M384.6,269.72a11.107,11.107,0,0,1-5.284-2.561l-.364-.321,1.468-7.315,10.641.02-1.576,7.856-.177.374a5.877,5.877,0,0,1-4.2,1.969C384.935,269.741,384.767,269.735,384.6,269.72Zm4.413-8.5-7.216-.014-1,4.993a8.892,8.892,0,0,0,3.972,1.849,3.967,3.967,0,0,0,3.118-1.212Z" transform="translate(-378.948 -259.523)" fill="#15100c"/>
              </g>
              <g id="Grupo_138915" data-name="Grupo 138915" transform="translate(5.96)">
                <path id="Trazado_133740" data-name="Trazado 133740" d="M392.067,244.308a10.1,10.1,0,0,0-3.868,6.547c-.447,2.522-4.22,14.881-4.22,14.881l-4.025,16.8a4.188,4.188,0,0,0,3.6,4.728l.933.116a4.139,4.139,0,0,0,4.468-2.943l16.115-35.251s-.531-6.99-5.5-11.566S392.067,244.308,392.067,244.308Z" transform="translate(-379.085 -235.684)" fill="#afafaf"/>
                <path id="Trazado_133741" data-name="Trazado 133741" d="M384.794,288.626l-.936-.114a4.942,4.942,0,0,1-3.315-1.9,5.1,5.1,0,0,1-1-3.86l4.041-16.85c.039-.122,3.762-12.335,4.194-14.785a11.149,11.149,0,0,1,3.95-6.894c.37-1.507,1.932-7.023,5-7.983a3.827,3.827,0,0,1,3.819,1.173c5.156,4.743,5.747,11.82,5.77,12.119l.016.214-16.162,35.343a4.978,4.978,0,0,1-4.757,3.575A4.675,4.675,0,0,1,384.794,288.626Zm14.613-49.974c-1.212-1.108-1.94-.874-2.18-.8-1.834.574-3.388,4.635-3.933,7.059l-.079.334-.281.183a9.231,9.231,0,0,0-3.5,5.991c-.449,2.544-4.086,14.474-4.228,14.932L381.2,283.06a3.387,3.387,0,0,0,.677,2.526,3.285,3.285,0,0,0,2.194,1.259l.935.114a3.345,3.345,0,0,0,3.6-2.455l16.018-35.048C404.479,248.3,403.6,242.513,399.407,238.652Z" transform="translate(-379.494 -236.098)" fill="#15100c"/>
              </g>
            </g>
            <g id="Grupo_138941" data-name="Grupo 138941" transform="translate(12.06 94.521)">
              <g id="Grupo_138920" data-name="Grupo 138920" transform="translate(47.845 49.578)">
                <g id="Grupo_138917" data-name="Grupo 138917">
                  <path id="Trazado_133742" data-name="Trazado 133742" d="M399.734,264.6a6.048,6.048,0,0,1-1.094,5.271c-1.1,1.141-2.384.63-2.876-1.141a6.037,6.037,0,0,1,1.094-5.269C397.953,262.322,399.242,262.832,399.734,264.6Z" transform="translate(-394.73 -262.01)" fill="#ba68c8"/>
                  <path id="Trazado_133743" data-name="Trazado 133743" d="M397.338,271.675a3.015,3.015,0,0,1-1.973-2.3,6.867,6.867,0,0,1,1.3-6.075,2.363,2.363,0,0,1,2.32-.809,3.015,3.015,0,0,1,1.973,2.3,6.89,6.89,0,0,1-1.3,6.083,2.529,2.529,0,0,1-1.812.862A2.119,2.119,0,0,1,397.338,271.675Zm.537-7.212a5.2,5.2,0,0,0-.889,4.458c.2.738.539,1.066.761,1.125.246.053.549-.187.7-.338a5.218,5.218,0,0,0,.889-4.464c-.2-.738-.539-1.066-.761-1.123a.455.455,0,0,0-.089-.01A1,1,0,0,0,397.875,264.463Z" transform="translate(-395.144 -262.425)" fill="#15100c"/>
                </g>
                <g id="Grupo_138918" data-name="Grupo 138918" transform="translate(1.808 0.93)">
                  <path id="Trazado_133744" data-name="Trazado 133744" d="M400.653,265.074a6.041,6.041,0,0,1-1.1,5.271c-1.1,1.141-2.384.631-2.876-1.139a6.042,6.042,0,0,1,1.1-5.271C398.873,262.794,400.161,263.306,400.653,265.074Z" transform="translate(-395.65 -262.483)" fill="#ba68c8"/>
                  <path id="Trazado_133745" data-name="Trazado 133745" d="M398.253,272.147a3.008,3.008,0,0,1-1.969-2.3,6.885,6.885,0,0,1,1.3-6.079,2.378,2.378,0,0,1,2.325-.809,3.013,3.013,0,0,1,1.971,2.3h0a6.879,6.879,0,0,1-1.3,6.083,2.534,2.534,0,0,1-1.812.866A2.154,2.154,0,0,1,398.253,272.147Zm2-6.431c-.2-.738-.539-1.066-.761-1.121-.266-.063-.551.183-.7.34a5.206,5.206,0,0,0-.885,4.462c.2.738.537,1.066.759,1.121s.549-.187.7-.338a5.213,5.213,0,0,0,.893-4.464Z" transform="translate(-396.063 -262.898)" fill="#15100c"/>
                </g>
                <g id="Grupo_138919" data-name="Grupo 138919" transform="translate(2.717 2.527)">
                  <path id="Trazado_133746" data-name="Trazado 133746" d="M399.375,265.154a3.51,3.51,0,0,1-.637,3.067c-.637.665-1.387.368-1.674-.663a3.518,3.518,0,0,1,.637-3.067C398.338,263.828,399.088,264.125,399.375,265.154Z" transform="translate(-396.111 -263.296)" fill="#636363"/>
                  <path id="Trazado_133747" data-name="Trazado 133747" d="M398.066,269.782a2.085,2.085,0,0,1-1.4-1.586,4.322,4.322,0,0,1,.84-3.872,1.72,1.72,0,0,1,1.694-.565,2.075,2.075,0,0,1,1.4,1.584,4.342,4.342,0,0,1-.844,3.878,1.836,1.836,0,0,1-1.312.61A1.465,1.465,0,0,1,398.066,269.782Zm.653-4.293a2.711,2.711,0,0,0-.429,2.258c.071.272.167.417.256.309a2.741,2.741,0,0,0,.433-2.266c-.059-.216-.134-.331-.2-.331A.078.078,0,0,0,398.719,265.489Z" transform="translate(-396.525 -263.71)" fill="#15100c"/>
                </g>
              </g>
              <g id="Grupo_138924" data-name="Grupo 138924" transform="translate(2.766 49.113)">
                <g id="Grupo_138921" data-name="Grupo 138921">
                  <path id="Trazado_133748" data-name="Trazado 133748" d="M376.818,264.367a6.047,6.047,0,0,1-1.094,5.271c-1.1,1.139-2.384.63-2.876-1.141a6.049,6.049,0,0,1,1.094-5.271C375.04,262.085,376.326,262.6,376.818,264.367Z" transform="translate(-371.817 -261.774)" fill="#636363"/>
                  <path id="Trazado_133749" data-name="Trazado 133749" d="M374.424,271.44a3.009,3.009,0,0,1-1.973-2.3,6.889,6.889,0,0,1,1.3-6.083,2.36,2.36,0,0,1,2.323-.8,3.006,3.006,0,0,1,1.967,2.3h0a6.879,6.879,0,0,1-1.3,6.075,2.539,2.539,0,0,1-1.816.87A2.02,2.02,0,0,1,374.424,271.44Zm.539-7.218a5.207,5.207,0,0,0-.889,4.464c.2.74.537,1.068.759,1.123.258.063.549-.181.7-.34a5.207,5.207,0,0,0,.885-4.462v0c-.2-.734-.535-1.058-.757-1.119a.45.45,0,0,0-.089-.008A1,1,0,0,0,374.963,264.221Z" transform="translate(-372.23 -262.189)" fill="#15100c"/>
                </g>
                <g id="Grupo_138922" data-name="Grupo 138922" transform="translate(1.806 0.931)">
                  <path id="Trazado_133750" data-name="Trazado 133750" d="M377.738,264.838a6.046,6.046,0,0,1-1.094,5.27c-1.1,1.141-2.386.632-2.878-1.139a6.042,6.042,0,0,1,1.1-5.271C375.958,262.558,377.246,263.068,377.738,264.838Z" transform="translate(-372.735 -262.247)" fill="#ba68c8"/>
                  <path id="Trazado_133751" data-name="Trazado 133751" d="M375.342,271.913a3.015,3.015,0,0,1-1.973-2.3,6.885,6.885,0,0,1,1.3-6.083,2.358,2.358,0,0,1,2.321-.8,3.012,3.012,0,0,1,1.969,2.3,6.879,6.879,0,0,1-1.3,6.075,2.539,2.539,0,0,1-1.816.869A2.132,2.132,0,0,1,375.342,271.913Zm.541-7.22a5.211,5.211,0,0,0-.893,4.466c.2.738.539,1.066.761,1.121.266.063.553-.183.7-.34a5.2,5.2,0,0,0,.887-4.458h0c-.2-.742-.539-1.066-.761-1.125a.337.337,0,0,0-.089-.01A1.009,1.009,0,0,0,375.883,264.692Z" transform="translate(-373.148 -262.662)" fill="#15100c"/>
                </g>
                <g id="Grupo_138923" data-name="Grupo 138923" transform="translate(2.714 2.525)">
                  <path id="Trazado_133752" data-name="Trazado 133752" d="M376.46,264.918a3.51,3.51,0,0,1-.637,3.067c-.637.665-1.387.368-1.674-.663a3.522,3.522,0,0,1,.637-3.067C375.425,263.591,376.175,263.888,376.46,264.918Z" transform="translate(-373.195 -263.058)" fill="#636363"/>
                  <path id="Trazado_133753" data-name="Trazado 133753" d="M375.151,269.545a2.081,2.081,0,0,1-1.4-1.586,4.318,4.318,0,0,1,.84-3.87,1.728,1.728,0,0,1,1.694-.567,2.088,2.088,0,0,1,1.4,1.584,4.319,4.319,0,0,1-.84,3.874,1.834,1.834,0,0,1-1.316.614A1.453,1.453,0,0,1,375.151,269.545Zm.657-4.293a2.715,2.715,0,0,0-.435,2.262c.077.277.171.386.26.3a2.711,2.711,0,0,0,.431-2.255v0c-.059-.216-.136-.334-.2-.334A.07.07,0,0,0,375.808,265.252Z" transform="translate(-373.609 -263.472)" fill="#15100c"/>
                </g>
              </g>
              <g id="Grupo_138928" data-name="Grupo 138928" transform="translate(47.483 75.746)">
                <g id="Grupo_138925" data-name="Grupo 138925">
                  <path id="Trazado_133754" data-name="Trazado 133754" d="M399.548,277.9a6.04,6.04,0,0,1-1.094,5.27c-1.1,1.141-2.384.632-2.876-1.139a6.048,6.048,0,0,1,1.094-5.271C397.77,275.625,399.056,276.134,399.548,277.9Z" transform="translate(-394.547 -275.311)" fill="#636363"/>
                  <path id="Trazado_133755" data-name="Trazado 133755" d="M397.15,284.976a3.009,3.009,0,0,1-1.969-2.3,6.885,6.885,0,0,1,1.3-6.079,2.373,2.373,0,0,1,2.325-.807,3.008,3.008,0,0,1,1.969,2.3,6.889,6.889,0,0,1-1.3,6.083,2.527,2.527,0,0,1-1.812.866A2.057,2.057,0,0,1,397.15,284.976Zm.539-7.212a5.207,5.207,0,0,0-.885,4.462c.2.738.537,1.066.761,1.121.256.053.547-.187.694-.336a5.216,5.216,0,0,0,.891-4.466v0c-.2-.736-.535-1.064-.759-1.119a.456.456,0,0,0-.089-.01A1,1,0,0,0,397.689,277.764Z" transform="translate(-394.96 -275.726)" fill="#15100c"/>
                </g>
                <g id="Grupo_138926" data-name="Grupo 138926" transform="translate(1.806 0.93)">
                  <path id="Trazado_133756" data-name="Trazado 133756" d="M400.468,278.376a6.047,6.047,0,0,1-1.094,5.271c-1.1,1.141-2.384.63-2.878-1.139a6.04,6.04,0,0,1,1.1-5.271C398.69,276.1,399.976,276.606,400.468,278.376Z" transform="translate(-395.465 -275.784)" fill="#ba68c8"/>
                  <path id="Trazado_133757" data-name="Trazado 133757" d="M398.072,285.447a3.009,3.009,0,0,1-1.973-2.3,6.888,6.888,0,0,1,1.3-6.083,2.362,2.362,0,0,1,2.321-.8,3.008,3.008,0,0,1,1.969,2.3h0a6.889,6.889,0,0,1-1.3,6.083,2.529,2.529,0,0,1-1.812.868A2.029,2.029,0,0,1,398.072,285.447Zm2-6.429c-.2-.74-.539-1.068-.761-1.123s-.549.187-.7.338a5.206,5.206,0,0,0-.893,4.464c.2.738.539,1.064.761,1.123.26.061.553-.187.7-.338a5.214,5.214,0,0,0,.889-4.464Z" transform="translate(-395.878 -276.199)" fill="#15100c"/>
                </g>
                <g id="Grupo_138927" data-name="Grupo 138927" transform="translate(2.714 2.528)">
                  <path id="Trazado_133758" data-name="Trazado 133758" d="M399.19,278.456a3.511,3.511,0,0,1-.637,3.067c-.637.663-1.387.368-1.672-.663a3.515,3.515,0,0,1,.635-3.067C398.155,277.129,398.9,277.426,399.19,278.456Z" transform="translate(-395.924 -276.598)" fill="#636363"/>
                  <path id="Trazado_133759" data-name="Trazado 133759" d="M397.881,283.084a2.084,2.084,0,0,1-1.4-1.586,4.325,4.325,0,0,1,.844-3.878,1.732,1.732,0,0,1,1.694-.561,2.074,2.074,0,0,1,1.395,1.586,4.32,4.32,0,0,1-.84,3.874,1.842,1.842,0,0,1-1.316.614A1.541,1.541,0,0,1,397.881,283.084Zm.657-4.3a2.711,2.711,0,0,0-.433,2.264c.075.275.169.388.258.3a2.719,2.719,0,0,0,.431-2.26c-.059-.216-.136-.336-.2-.336A.074.074,0,0,0,398.538,278.787Z" transform="translate(-396.339 -277.011)" fill="#15100c"/>
                </g>
              </g>
              <g id="Grupo_138932" data-name="Grupo 138932" transform="translate(3.127 76.211)">
                <g id="Grupo_138929" data-name="Grupo 138929">
                  <path id="Trazado_133760" data-name="Trazado 133760" d="M377,278.141a6.049,6.049,0,0,1-1.094,5.271c-1.1,1.141-2.384.63-2.878-1.141a6.043,6.043,0,0,1,1.1-5.271C375.224,275.861,376.512,276.37,377,278.141Z" transform="translate(-372 -275.548)" fill="#afafaf"/>
                  <path id="Trazado_133761" data-name="Trazado 133761" d="M374.606,285.214a3.013,3.013,0,0,1-1.971-2.3,6.877,6.877,0,0,1,1.3-6.081,2.357,2.357,0,0,1,2.322-.8,3.012,3.012,0,0,1,1.969,2.3,6.878,6.878,0,0,1-1.3,6.075,2.534,2.534,0,0,1-1.816.872A2.05,2.05,0,0,1,374.606,285.214Zm.543-7.218a5.206,5.206,0,0,0-.893,4.464c.2.74.539,1.066.761,1.123.264.055.551-.185.7-.342a5.2,5.2,0,0,0,.887-4.458h0c-.2-.742-.539-1.066-.761-1.125a.45.45,0,0,0-.089-.01A1.011,1.011,0,0,0,375.149,278Z" transform="translate(-372.413 -275.963)" fill="#15100c"/>
                </g>
                <g id="Grupo_138930" data-name="Grupo 138930" transform="translate(1.809 0.931)">
                  <path id="Trazado_133762" data-name="Trazado 133762" d="M377.923,278.612a6.042,6.042,0,0,1-1.1,5.271c-1.1,1.141-2.384.631-2.876-1.139a6.047,6.047,0,0,1,1.094-5.271C376.143,276.332,377.431,276.842,377.923,278.612Z" transform="translate(-372.92 -276.022)" fill="#ba68c8"/>
                  <path id="Trazado_133763" data-name="Trazado 133763" d="M375.527,285.684a3.016,3.016,0,0,1-1.973-2.3,6.882,6.882,0,0,1,1.3-6.081,2.374,2.374,0,0,1,2.323-.8,3.015,3.015,0,0,1,1.969,2.3,6.885,6.885,0,0,1-1.3,6.083,2.527,2.527,0,0,1-1.81.864A2.029,2.029,0,0,1,375.527,285.684Zm.535-7.212a5.205,5.205,0,0,0-.887,4.458c.2.74.539,1.068.761,1.123.27.085.549-.183.7-.334a5.21,5.21,0,0,0,.893-4.466c-.2-.738-.539-1.066-.761-1.121a.339.339,0,0,0-.088-.01A1.009,1.009,0,0,0,376.062,278.472Z" transform="translate(-373.333 -276.436)" fill="#15100c"/>
                </g>
                <g id="Grupo_138931" data-name="Grupo 138931" transform="translate(2.717 2.528)">
                  <path id="Trazado_133764" data-name="Trazado 133764" d="M376.646,278.692a3.522,3.522,0,0,1-.637,3.067c-.637.665-1.387.368-1.674-.663a3.51,3.51,0,0,1,.637-3.067C375.609,277.364,376.358,277.662,376.646,278.692Z" transform="translate(-373.38 -276.835)" fill="#636363"/>
                  <path id="Trazado_133765" data-name="Trazado 133765" d="M375.336,283.321a2.09,2.09,0,0,1-1.4-1.59,4.311,4.311,0,0,1,.84-3.87,1.728,1.728,0,0,1,1.694-.565,2.078,2.078,0,0,1,1.4,1.586,4.316,4.316,0,0,1-.84,3.87,1.849,1.849,0,0,1-1.316.614A1.533,1.533,0,0,1,375.336,283.321Zm.653-4.295a2.717,2.717,0,0,0-.431,2.258c.073.27.165.411.258.3a2.718,2.718,0,0,0,.433-2.26c-.059-.216-.136-.332-.2-.332A.078.078,0,0,0,375.989,279.027Z" transform="translate(-373.794 -277.248)" fill="#15100c"/>
                </g>
              </g>
              <g id="Grupo_138933" data-name="Grupo 138933" transform="translate(3.504 49.366)">
                <path id="Trazado_133766" data-name="Trazado 133766" d="M400.448,270.84l21.239,19.048c1.066.893,2.3,5-3.376,1.963h0l-42.093-24.613h0c-6.325-3.988-1.631-5.019.5-4.261l20.917,7.423C398.435,270.682,399.795,270.293,400.448,270.84Z" transform="translate(-372.189 -261.903)" fill="#636363"/>
                <path id="Trazado_133767" data-name="Trazado 133767" d="M418.306,292.991l-42.121-24.627c-1.08-.683-4.369-2.756-3.405-4.739.683-1.413,3.165-1.552,4.639-1.023l20.913,7.421c.6.207,2.15-.177,3.069.584l21.241,19.052c.777.649,1.708,2.577.9,3.779a1.837,1.837,0,0,1-1.623.777A8.76,8.76,0,0,1,418.306,292.991Zm3.84-.5a2.021,2.021,0,0,0-.6-1.566l-21.226-19.036a2.706,2.706,0,0,0-1.062-.118,4.515,4.515,0,0,1-1.483-.171l-20.917-7.421a3,3,0,0,0-2.563.173c0,.008-.033.8,2.766,2.571l42.07,24.6c2.38,1.273,3.01.972,3.02.972Z" transform="translate(-372.605 -262.318)" fill="#15100c"/>
              </g>
              <g id="Grupo_138934" data-name="Grupo 138934" transform="translate(3.513 49.368)">
                <path id="Trazado_133768" data-name="Trazado 133768" d="M395.182,270.84l-21.237,19.048c-1.066.893-2.3,5,3.374,1.963h0l42.091-24.613h0c6.323-3.988,1.631-5.019-.5-4.261L397.994,270.4C397.193,270.682,395.836,270.293,395.182,270.84Z" transform="translate(-372.197 -261.905)" fill="#636363"/>
                <path id="Trazado_133769" data-name="Trazado 133769" d="M372.923,293.437c-.811-1.2.118-3.13.873-3.764l21.239-19.048.022-.02c.917-.759,2.469-.374,3.065-.584l20.915-7.421c1.474-.525,3.952-.39,4.637,1.023.966,1.983-2.323,4.057-3.429,4.753l-42.115,24.629a8.7,8.7,0,0,1-3.579,1.208A1.843,1.843,0,0,1,372.923,293.437ZM419.6,264.183,398.686,271.6a4.522,4.522,0,0,1-1.481.171,2.706,2.706,0,0,0-1.062.118L374.9,290.944a2.036,2.036,0,0,0-.586,1.542c.006.014.63.323,3-.948l42.064-24.6c2.825-1.778,2.794-2.575,2.794-2.583a2.066,2.066,0,0,0-1.409-.358A3.426,3.426,0,0,0,419.6,264.183Z" transform="translate(-372.609 -262.318)" fill="#15100c"/>
              </g>
              <g id="Grupo_138935" data-name="Grupo 138935" transform="translate(20.403 53.861)">
                <path id="Trazado_133770" data-name="Trazado 133770" d="M396.245,272.235c0,2.713-3.274,4.91-7.311,4.91s-7.313-2.2-7.313-4.91,3.274-7.206,7.313-7.206S396.245,269.522,396.245,272.235Z" transform="translate(-380.782 -264.189)" fill="#636363"/>
                <path id="Trazado_133771" data-name="Trazado 133771" d="M381.2,272.648c0-3.177,3.651-8.046,8.151-8.046s8.155,4.869,8.155,8.046c0,3.223-3.583,5.751-8.155,5.751S381.2,275.871,381.2,272.648Zm1.682,0c0,2.205,2.963,4.07,6.469,4.07s6.474-1.865,6.474-4.07c0-2.4-3.028-6.364-6.474-6.364S382.877,270.252,382.877,272.648Z" transform="translate(-381.195 -264.602)" fill="#15100c"/>
              </g>
              <g id="Grupo_138936" data-name="Grupo 138936" transform="translate(22.351 53.861)">
                <path id="Trazado_133772" data-name="Trazado 133772" d="M393.34,268.631c0,1.991-2.4,3.6-5.363,3.6s-5.365-1.613-5.365-3.6,2.4-3.6,5.365-3.6S393.34,266.642,393.34,268.631Z" transform="translate(-381.772 -264.189)" fill="#110c0c"/>
                <path id="Trazado_133773" data-name="Trazado 133773" d="M382.185,269.044c0-2.493,2.723-4.442,6.2-4.442s6.207,1.95,6.207,4.442-2.727,4.444-6.207,4.444S382.185,271.535,382.185,269.044Zm1.68,0c0,1.5,2.072,2.764,4.523,2.764s4.527-1.269,4.527-2.764-2.074-2.76-4.527-2.76S383.865,267.547,383.865,269.044Z" transform="translate(-382.185 -264.602)" fill="#15100c"/>
              </g>
              <g id="Grupo_138938" data-name="Grupo 138938" transform="translate(24.434 18.793)">
                <g id="Grupo_138937" data-name="Grupo 138937">
                  <path id="Trazado_133774" data-name="Trazado 133774" d="M386.953,285.874h0a3.3,3.3,0,0,1-3.281-3.325V250.531a3.3,3.3,0,0,1,3.281-3.327h0a3.3,3.3,0,0,1,3.28,3.327v32.018A3.3,3.3,0,0,1,386.953,285.874Z" transform="translate(-382.831 -246.364)" fill="#636363"/>
                  <path id="Trazado_133775" data-name="Trazado 133775" d="M383.244,282.96V250.944a4.122,4.122,0,1,1,8.243,0V282.96a4.122,4.122,0,1,1-8.243,0Zm1.682-32.017V282.96a2.441,2.441,0,1,0,4.881,0V250.944a2.441,2.441,0,1,0-4.881,0Z" transform="translate(-383.244 -246.777)" fill="#15100c"/>
                </g>
              </g>
              <g id="Grupo_138939" data-name="Grupo 138939" transform="translate(0 4.97)">
                <path id="Trazado_133776" data-name="Trazado 133776" d="M427.459,247.858l-3.215-.242a12.108,12.108,0,0,0-1.4-.909l-7.69-4.23c-6.681-3.673-18.163-2.88-25.644,1.773l-10.287,6.417-7.97,2.595.01,5.129.03.018a4.469,4.469,0,0,0,2.676,3.872l17.218,9.7c3.931,2.162,10.687,1.7,15.088-1.041l15.123-9.164c3.83-2.38,5.855-5.312,6.038-8.1l.026-.006Z" transform="translate(-370.41 -239.347)" fill="#110c0c"/>
                <path id="Trazado_133777" data-name="Trazado 133777" d="M391.186,273.121l-17.208-9.7a5.419,5.419,0,0,1-3.089-4.139l-.065-6.223,8.367-2.7,10.287-6.417c7.7-4.785,19.583-5.593,26.494-1.792l7.69,4.226a12.871,12.871,0,0,1,1.3.824l3.756.285v6.6l-.039.195c-.264,3.15-2.538,6.207-6.431,8.625l-15.113,9.16a18.373,18.373,0,0,1-9.418,2.51A13.8,13.8,0,0,1,391.186,273.121Zm35.847-24.082-2.681-.2-.193-.146a11.559,11.559,0,0,0-1.3-.846l-7.69-4.228c-6.437-3.531-17.558-2.754-24.8,1.747l-10.47,6.5-7.389,2.41.043,4.539a3.655,3.655,0,0,0,2.249,3.136l17.206,9.7c3.689,2.02,10.081,1.568,14.249-1.025l15.113-9.158c3.417-2.123,5.475-4.836,5.646-7.442l-.043-.777h.065Z" transform="translate(-370.824 -239.751)" fill="#15100c"/>
              </g>
              <g id="Grupo_138940" data-name="Grupo 138940" transform="translate(0.002)">
                <path id="Trazado_133778" data-name="Trazado 133778" d="M391.185,269.459l-17.218-9.7c-3.931-2.162-3.549-6.134.852-8.871l14.69-9.162c7.482-4.653,18.963-5.444,25.644-1.771l7.69,4.228c6.681,3.675,6.034,10.423-1.448,15.074l-15.123,9.164C401.872,271.155,395.116,271.621,391.185,269.459Z" transform="translate(-370.413 -236.82)" fill="#636363"/>
                <path id="Trazado_133779" data-name="Trazado 133779" d="M374.683,253.73l14.69-9.164c7.48-4.651,18.963-5.444,25.644-1.771l7.69,4.23a9.3,9.3,0,0,1,3.769,3.545c-.724,2.272-2.579,4.548-5.668,6.467L405.688,266.2c-4.4,2.737-11.157,3.2-15.087,1.043l-17.218-9.707a6.187,6.187,0,0,1-1.489-1.143A8.54,8.54,0,0,1,374.683,253.73Z" transform="translate(-369.792 -234.07)" fill="#636363"/>
                <path id="Trazado_133780" data-name="Trazado 133780" d="M391.195,270.6l-17.218-9.7a5.364,5.364,0,0,1-3.15-4.484c-.057-2.107,1.387-4.236,3.958-5.833l14.692-9.166c7.7-4.785,19.583-5.593,26.494-1.792l7.69,4.228c3.181,1.747,4.973,4.275,5.048,7.114.089,3.372-2.264,6.8-6.467,9.414l-15.113,9.158a18.34,18.34,0,0,1-9.42,2.514A13.736,13.736,0,0,1,391.195,270.6Zm-.828-27.761L375.674,252c-2.056,1.277-3.211,2.868-3.171,4.366a3.745,3.745,0,0,0,2.292,3.059l17.212,9.7c3.687,2.028,10.075,1.568,14.243-1.025l15.113-9.158c3.673-2.286,5.741-5.18,5.666-7.938-.059-2.219-1.542-4.238-4.177-5.688l-7.69-4.228a21.117,21.117,0,0,0-10-2.213A28.894,28.894,0,0,0,390.366,242.838Z" transform="translate(-370.825 -237.225)" fill="#15100c"/>
              </g>
            </g>
            <g id="Grupo_138950" data-name="Grupo 138950" transform="translate(24.686)">
              <g id="Grupo_138943" data-name="Grupo 138943" transform="translate(39.413 158.785)">
                <g id="Grupo_138942" data-name="Grupo 138942">
                  <path id="Trazado_133781" data-name="Trazado 133781" d="M400.789,274s-1.054-.075-1.717,2.646-2.365,4.6-.572,6.2,6.837,3.472,9.06,3.171a25.263,25.263,0,0,0,4.283-1c.651-.173,16.592-5.324,16.592-5.324s1.34-1.354,1.058-2.434a5.377,5.377,0,0,0-3.374-3.565c-.51-.252-8.332-.736-10.441-.868s-8.052-2.467-8.052-2.467Z" transform="translate(-396.861 -269.437)"/>
                  <path id="Trazado_133782" data-name="Trazado 133782" d="M399.015,274.42l4.525-2.41s5.941,2.337,8.052,2.469,9.931.614,10.441.868a5.733,5.733,0,0,1,3.095,2.957c-4.706,1.517-12.813,4.129-13.274,4.253a25.727,25.727,0,0,1-4.283,1c-2.223.3-7.267-1.576-9.06-3.173C396.771,278.835,398.315,277.015,399.015,274.42Z" transform="translate(-396.852 -267.839)"/>
                  <path id="Trazado_133783" data-name="Trazado 133783" d="M398.357,283.925c-1.716-1.527-1.033-3.28-.378-4.975a15.888,15.888,0,0,0,.691-2.052c.633-2.6,1.7-3.163,2.288-3.266l7.027-3.742.362.14c1.617.633,6.173,2.308,7.842,2.41,10.057.628,10.454.824,10.866,1.021a6.082,6.082,0,0,1,3.665,4.035c.392,1.5-1.1,3.065-1.273,3.238l-.338.21c-1.635.525-15.979,5.16-16.636,5.335l-.462.138a23.468,23.468,0,0,1-3.923.885,4.51,4.51,0,0,1-.628.035A17.779,17.779,0,0,1,398.357,283.925Zm30.734-6a4.4,4.4,0,0,0-2.723-2.929l-.128-.063c-.244-.067-1.723-.287-10.2-.812-1.944-.122-6.539-1.841-7.948-2.382l-6.5,3.459-.065.1-.244-.016c-.006,0-.555.244-.984,2.017a18.34,18.34,0,0,1-.755,2.257c-.693,1.786-.854,2.424-.075,3.116,1.719,1.529,6.522,3.252,8.389,2.965a21.639,21.639,0,0,0,3.653-.824l.523-.155c.468-.128,9.949-3.179,16.343-5.245C428.77,278.965,429.187,278.279,429.091,277.923Z" transform="translate(-397.275 -269.89)" fill="#15100c"/>
                </g>
              </g>
              <g id="Grupo_138944" data-name="Grupo 138944" transform="translate(43.532 152.895)">
                <path id="Trazado_133784" data-name="Trazado 133784" d="M399.8,269.382v6.907s3.04,1.745,5.684,1.466A5.461,5.461,0,0,0,409.4,275.1v-7.681Z" transform="translate(-398.956 -266.388)" fill="#636363"/>
                <path id="Trazado_133785" data-name="Trazado 133785" d="M399.788,277.526l-.419-.244V269.2l11.289-2.308v8.713l-.1.4a6.272,6.272,0,0,1-4.572,3.1,6.473,6.473,0,0,1-.677.033A12.792,12.792,0,0,1,399.788,277.526Zm9.188-8.568-7.926,1.619v5.711a9.571,9.571,0,0,0,4.757,1.139,4.581,4.581,0,0,0,3.169-2.054Z" transform="translate(-399.369 -266.896)" fill="#15100c"/>
              </g>
              <g id="Grupo_138945" data-name="Grupo 138945" transform="translate(27.289 10.379)">
                <path id="Trazado_133786" data-name="Trazado 133786" d="M392.521,220.247c-.8-1.771-1.759-3.2.049-3.872,2.184-.807,6.524-2.638,7.108-3.866.763-1.605,1.794-3.966,2.325-5.194a3.339,3.339,0,0,1,1.053-1.342l14.257-10.755s1.438,8.3.008,13.728a23.179,23.179,0,0,1-2.5,6.142,3.285,3.285,0,0,1-2.813,1.582h-.742a3.194,3.194,0,0,0-3.083,3.915l.022.094c.277,1.22.71,2.833,1.139,4.364a3.337,3.337,0,0,1-3.52,4.247l-7.785-.8a3.313,3.313,0,0,1-2.672-1.942Z" transform="translate(-390.699 -193.717)" fill="#afafaf"/>
                <path id="Trazado_133787" data-name="Trazado 133787" d="M406.15,230.868l-7.783-.809a4.185,4.185,0,0,1-3.354-2.432l-3.118-6.888c-.535-1.129-1.037-2.194-.637-3.173a2.294,2.294,0,0,1,1.434-1.241c3.754-1.389,6.368-2.866,6.642-3.441.761-1.6,1.784-3.945,2.314-5.166a4.175,4.175,0,0,1,1.32-1.678l15.355-11.586.234,1.355c.061.348,1.454,8.55-.008,14.088a24.282,24.282,0,0,1-2.6,6.368,4.107,4.107,0,0,1-3.529,1.983h-.742a2.3,2.3,0,0,0-1.8.87,2.434,2.434,0,0,0-.445,2.111c.277,1.21.706,2.805,1.127,4.322a4.215,4.215,0,0,1-.83,3.86,4.123,4.123,0,0,1-3.162,1.474C406.433,230.886,406.291,230.88,406.15,230.868Zm-2.172-23.484a2.5,2.5,0,0,0-.789,1.005c-.535,1.234-1.572,3.606-2.339,5.217-.779,1.635-5.554,3.549-7.574,4.295a.83.83,0,0,0-.462.3c-.122.293.279,1.139.6,1.82l3.128,6.913a2.476,2.476,0,0,0,1.995,1.45l7.783.809a2.41,2.41,0,0,0,2.127-.864,2.5,2.5,0,0,0,.5-2.325c-.429-1.542-.866-3.169-1.169-4.5a4.064,4.064,0,0,1,.791-3.437,3.979,3.979,0,0,1,3.112-1.5h.742a2.437,2.437,0,0,0,2.1-1.178,22.392,22.392,0,0,0,2.406-5.918c1.027-3.893.508-9.437.181-11.991Z" transform="translate(-391.113 -194.455)" fill="#15100c"/>
              </g>
              <g id="Grupo_138946" data-name="Grupo 138946" transform="translate(0.385 83.467)">
                <path id="Trazado_133788" data-name="Trazado 133788" d="M381.9,233.19a4.487,4.487,0,0,0-4.017,4.4c-.083,4.545.116,11.765,1.985,15.178,2.845,5.192,6.156,8.275,15.229,11.19s26.244,1.776,29.321,1.887l-.816-.073s-1.637,3.449-1.674,11.784a209.884,209.884,0,0,1-.972,21.328l-.332,3.01a4.556,4.556,0,0,0,1.969,4.283l2,1.344a4.424,4.424,0,0,0,5.05-.069h0a4.542,4.542,0,0,0,1.82-2.855l9.677-34.183c.049-.254-.029-.523.081-.755,3.106-6.659.075-13.337-3.276-15.924C434.392,251,414.1,240.05,412.15,239a3.318,3.318,0,0,0-.3-.148c-1.59-.7-15.04-6.583-16.091-6.8C394.987,231.891,386.873,232.682,381.9,233.19Z" transform="translate(-377.024 -231.194)" fill="#afafaf"/>
                <path id="Trazado_133789" data-name="Trazado 133789" d="M424.533,308.634l-2-1.346a5.381,5.381,0,0,1-2.335-5.072l.336-3.01a209.331,209.331,0,0,0,.964-21.237,38.862,38.862,0,0,1,1.294-10.856c-.358.006-.75.016-1.167.024-6.14.138-18.93.427-26.374-1.963-9.553-3.069-12.89-6.441-15.707-11.588-1.9-3.472-2.19-10.4-2.091-15.6a5.325,5.325,0,0,1,4.773-5.225h0c13.1-1.34,13.842-1.178,14.112-1.123,1.233.26,15.648,6.589,16.252,6.85a3.24,3.24,0,0,1,.37.185c3.716,2,22.428,12.125,25.9,14.806s6.89,9.73,3.541,17.023a2.185,2.185,0,0,1-.049.553l-9.66,34.1a5.351,5.351,0,0,1-2.158,3.386,5.291,5.291,0,0,1-6.006.085ZM382.4,234.439h0a3.649,3.649,0,0,0-3.264,3.581c-.075,4.086.067,11.442,1.885,14.759,2.666,4.873,5.68,7.881,14.745,10.793,7.183,2.308,19.774,2.015,25.823,1.887.706-.016,1.334-.033,1.861-.039l.057-.122,1.4.126-.1,1.676c-.073,0-.151-.006-.236-.006-.425,1.251-1.359,4.69-1.385,10.881a210.7,210.7,0,0,1-.98,21.414l-.335,3.01a3.705,3.705,0,0,0,1.605,3.494l2,1.346a3.562,3.562,0,0,0,4.09-.055,3.767,3.767,0,0,0,1.5-2.4l9.664-34.257a1.789,1.789,0,0,1,.142-.8,12.6,12.6,0,0,0-3.028-14.9c-3.447-2.662-23.407-13.443-25.69-14.67a2.214,2.214,0,0,0-.226-.112c-4.608-2.02-15.017-6.532-15.91-6.742a2.192,2.192,0,0,0-.24-.01C394.714,233.283,390.769,233.582,382.4,234.439Z" transform="translate(-377.437 -231.606)" fill="#15100c"/>
              </g>
              <g id="Grupo_138947" data-name="Grupo 138947" transform="translate(81.434 62.413)">
                <path id="Trazado_133790" data-name="Trazado 133790" d="M421.351,223.447a6.277,6.277,0,0,1,2.62-1.208,35.754,35.754,0,0,1,6.833-.9c2.235.155,8.7,3.567,6.7,5.7a5.667,5.667,0,0,1-2.268,1.662l-2.731-1.18-2.943,1.828-.089.053a6.131,6.131,0,0,1-7.741-1.438l-2.483-2.876Z" transform="translate(-418.04 -220.492)" fill="#afafaf"/>
                <path id="Trazado_133791" data-name="Trazado 133791" d="M421.69,228.923l-3.055-3.541,2.794-2.186h0a7.049,7.049,0,0,1,2.967-1.369,35.877,35.877,0,0,1,7.061-.911c1.965.136,6.768,2.434,7.688,4.777a2.124,2.124,0,0,1-.437,2.337,6.367,6.367,0,0,1-2.664,1.895l-.281.075-2.6-1.119-2.67,1.655a6.49,6.49,0,0,1-3.38.94A7.206,7.206,0,0,1,421.69,228.923Zm14.145-.722a6.312,6.312,0,0,0,1.651-1.322.461.461,0,0,0,.1-.573c-.6-1.519-4.617-3.6-6.242-3.714a32.461,32.461,0,0,0-6.608.881,5.37,5.37,0,0,0-2.268,1.049l-1.409,1.1,1.908,2.209a5.335,5.335,0,0,0,6.748,1.218l3.319-2.056Z" transform="translate(-418.635 -220.904)" fill="#15100c"/>
              </g>
              <g id="Grupo_138948" data-name="Grupo 138948" transform="translate(0 32.399)">
                <path id="Trazado_133792" data-name="Trazado 133792" d="M391.348,213.448c5.723-6.288,10.7-7.025,13.667-7.344s.018,2.119,3.541,4.159c4.633,2.68,8.34,1.552,10.533,1.129s7.069,1.108,9.74,6.266a149.939,149.939,0,0,1,6.972,15.983c.71,2.327,3.309,10.992,3.309,10.992s20.594-6.693,22.939-7.645,3.091,6.98,2.434,9.449-28.713,13.169-31.66,12.333-7.543-9.858-9.1-16.061c0,0-.9-.667-2.062,1.45s-4.482,13.667-4.423,18.05,7.189,7.828-2.648,11.918c-13.132,5.461-28.281,7.964-36.488-1.617-1.806-2.107,2.131-35.682,6.48-46.6S391.348,213.448,391.348,213.448Z" transform="translate(-376.843 -205.234)" fill="#64b5f6"/>
                <path id="Trazado_133793" data-name="Trazado 133793" d="M377.868,273.472c-2.327-2.713,2.294-37.311,6.335-47.462,3.964-9.949,6.394-12.316,6.978-12.774,6.114-6.687,11.535-7.271,14.145-7.557a2.5,2.5,0,0,1,1.871.358,2.039,2.039,0,0,1,.614,1.535,2.557,2.557,0,0,0,1.566,2.375,12,12,0,0,0,9.315,1.165l.639-.128c2.636-.515,7.83,1.273,10.641,6.7a149.659,149.659,0,0,1,7.033,16.128c.576,1.887,2.394,7.95,3.061,10.169,3.85-1.251,20.041-6.536,22.066-7.356a1.753,1.753,0,0,1,1.91.34c1.851,1.633,2.253,7.856,1.651,10.1-.124.47-.525,1.07-2.589,2.247-6.362,3.62-27.167,11.525-30.11,10.681-3.427-.968-7.84-9.972-9.5-15.967a3.426,3.426,0,0,0-.693.948c-1.056,1.934-4.383,13.307-4.32,17.637a7.929,7.929,0,0,0,1.241,3.4c.85,1.576,1.725,3.207,1.1,4.983-.578,1.629-2.327,3-5.508,4.322-5.452,2.268-13.38,4.879-21,4.879C388.131,280.193,382.155,278.475,377.868,273.472Zm46.756-31.025.242.177.073.3c1.649,6.561,6.181,14.8,8.515,15.457,2.577.683,29.3-9.565,30.62-11.745.549-2.064-.039-7.439-1.306-8.452-2.347.952-22.154,7.391-23,7.665l-.816.266-.246-.824s-2.6-8.66-3.309-10.984a150.244,150.244,0,0,0-6.913-15.845c-2.5-4.834-6.978-6.168-8.837-5.825l-.614.124a13.672,13.672,0,0,1-10.5-1.352,4.183,4.183,0,0,1-2.4-3.687c-.014-.165-.035-.374.026-.362a1.407,1.407,0,0,0-.657,0c-2.595.279-7.425.8-13.136,7.073l-.148.128c-.024.018-2.363,1.806-6.457,12.079-4.619,11.592-7.877,43.522-6.624,45.743,8.888,10.37,26.067,5.318,35.526,1.389,2.636-1.1,4.173-2.219,4.57-3.335.38-1.074-.256-2.257-1-3.624a9.287,9.287,0,0,1-1.44-4.173c-.063-4.409,3.24-16.116,4.523-18.467a3.463,3.463,0,0,1,2.058-1.944,1.914,1.914,0,0,1,.372-.039A1.487,1.487,0,0,1,424.624,242.447Z" transform="translate(-377.242 -205.648)" fill="#15100c"/>
              </g>
              <g id="Grupo_138949" data-name="Grupo 138949" transform="translate(13.195)">
                <path id="Trazado_133794" data-name="Trazado 133794" d="M385.493,233.169c-2.644-.028-.01-9.7,1.861-11.588,4.2-4.249,9.459-6.234,9.892-11.442.492-5.918,2.113-13.706,7.781-17.771s17.389-3.494,19.86.732,3.372,7.643,2.546,9.8l-1.871,4.871-2.68-5.2s.635-1.733-1.373,4.281c-.938,2.807-.344,11.139-3.313,15.253-4.781,6.63-7.968,9.963-19.67,7.482Z" transform="translate(-383.537 -188.767)" fill="#100b0b"/>
                <path id="Trazado_133795" data-name="Trazado 133795" d="M385.895,234.422a1.793,1.793,0,0,1-1.658-1.208c-1.1-2.685,1.2-10.065,2.931-11.81a42.253,42.253,0,0,1,4.061-3.486c2.975-2.337,5.322-4.183,5.593-7.435.736-8.861,3.47-15.044,8.129-18.383,4.208-3.02,10.775-3.4,15.1-2.483,2.912.622,5.032,1.851,5.977,3.47,2.626,4.489,3.526,8.127,2.607,10.523l-2.544,6.622-2.593-5.04c-.207.633-.462,1.4-.775,2.331a23.213,23.213,0,0,0-.584,4.192c-.331,3.732-.748,8.381-2.843,11.289-4.694,6.5-8.186,10.38-20.325,7.852l-12.839,3.535-.114.03Zm13.219-5.249c11.318,2.392,14.23-.8,18.812-7.153,1.83-2.53,2.219-6.923,2.534-10.451a23.8,23.8,0,0,1,.663-4.576c.75-2.235,1.114-3.348,1.287-3.9l-.03-.059.128-.346c.319-.879.868-.84,1.159-.734.4.14.608.209.5.879l1.7,3.3,1.2-3.122c.718-1.873-.165-5.093-2.489-9.071-.7-1.2-2.436-2.154-4.875-2.674-4.1-.866-10.144-.4-13.769,2.2-4.238,3.036-6.736,8.81-7.433,17.155-.331,3.98-3.2,6.233-6.231,8.615a42.154,42.154,0,0,0-3.9,3.348c-1.216,1.232-2.957,6.736-2.711,9.329a1.613,1.613,0,0,0,.216.8l12.849-3.535.2-.053Z" transform="translate(-383.949 -189.179)" fill="#15100c"/>
              </g>
            </g>
            <g id="Grupo_138955" data-name="Grupo 138955" transform="translate(0 46.273)">
              <g id="Grupo_138952" data-name="Grupo 138952" transform="translate(14.181 59.459)">
                <g id="Grupo_138951" data-name="Grupo 138951">
                  <path id="Trazado_133796" data-name="Trazado 133796" d="M379.885,264.74a7.91,7.91,0,0,1-3.846-.936,7.685,7.685,0,0,1-3.647-4.659l-.063-.529V245.566a2.2,2.2,0,0,1,2.186-2.215h0a2.2,2.2,0,0,1,2.186,2.215v12.7a3.242,3.242,0,0,0,1.45,1.656,4.556,4.556,0,0,0,2.87.275,2.229,2.229,0,0,1,2.526,1.416h0a2.243,2.243,0,0,1-1.741,2.949A11.045,11.045,0,0,1,379.885,264.74Z" transform="translate(-371.49 -242.509)" fill="#636363"/>
                  <path id="Trazado_133797" data-name="Trazado 133797" d="M376.051,264.955a8.523,8.523,0,0,1-4.08-5.3L371.9,245.98a3.026,3.026,0,1,1,6.052,0v12.526a2.362,2.362,0,0,0,1,1.082,3.715,3.715,0,0,0,2.337.2,3.1,3.1,0,0,1,3.461,1.963,3.058,3.058,0,0,1-.24,2.562,3.1,3.1,0,0,1-2.146,1.493,12.073,12.073,0,0,1-2.072.191A8.717,8.717,0,0,1,376.051,264.955Zm5.524-3.516a5.343,5.343,0,0,1-3.4-.36,4.08,4.08,0,0,1-1.841-2.087l-.059-13.012a1.346,1.346,0,1,0-2.691,0l-.006,12.951.045.431a6.776,6.776,0,0,0,3.234,4.118,7.858,7.858,0,0,0,5.217.669,1.44,1.44,0,0,0,.99-.687,1.353,1.353,0,0,0-1.208-2.044A1.684,1.684,0,0,0,381.575,261.44Z" transform="translate(-371.902 -242.923)" fill="#15100c"/>
                </g>
              </g>
              <g id="Grupo_138953" data-name="Grupo 138953" transform="translate(4.763)">
                <path id="Trazado_133798" data-name="Trazado 133798" d="M389.275,219.646l-8.383-4.918c-3.028-1.775-5.808-2.013-8.037-1l-.006-.012-.218.106c-.061.031-.126.057-.187.09l-4.785,2.343,1,2.453a17.976,17.976,0,0,0-.974,6.113l-.028,27.612c-.008,5.794,3.461,12.528,7.745,15.042l17.324,10.165,1.7,4.151,5.125-2.516v-.061c1.729-.911,2.857-3.13,2.861-6.392l.029-27.612C402.45,235.365,396.556,223.919,389.275,219.646Z" transform="translate(-366.588 -212.282)" fill="#636363"/>
                <path id="Trazado_133799" data-name="Trazado 133799" d="M388.847,220.671l-8.383-4.918c-3.026-1.777-5.808-2.013-8.037-1l-.006-.012-.218.106c-.061.031-.124.059-.185.092l-4.787,2.341,1,2.453a17.94,17.94,0,0,0-.972,6.113l-.03,27.614c-.006,5.794,3.461,12.528,7.745,15.04L392.3,278.666l.724,2.638,6.095-1-.97-1.574c1.729-.911,3.826-1.617,3.83-4.879l.03-27.612C402.022,236.388,396.128,224.942,388.847,220.671Z" transform="translate(-367.002 -211.292)" fill="#636363"/>
                <path id="Trazado_133800" data-name="Trazado 133800" d="M392.586,278.642l-17.08-10.02c-4.505-2.646-8.164-9.721-8.159-15.766l.026-27.614a19.111,19.111,0,0,1,.917-6.089l-1.174-2.888,6.646-3.24.029.063c2.418-.809,5.18-.348,8.056,1.332l8.383,4.92c7.5,4.4,13.586,16.193,13.577,26.29l-.03,27.614c0,3.177-1.037,5.642-2.859,6.866l-6.4,3.254Zm7.1.248c1.531-.8,2.406-2.862,2.41-5.646l.03-27.614c.01-9.567-5.709-20.708-12.748-24.838l-8.385-4.92c-2.672-1.572-5.186-1.9-7.261-.958l-4.47,2.172.826,2.028-.11.3a17.174,17.174,0,0,0-.923,5.823l-.026,27.614c-.008,5.516,3.282,11.942,7.328,14.314l17.326,10.165.242.146,1.464,3.579,3.848-1.889Z" transform="translate(-367.115 -212.7)" fill="#15100c"/>
              </g>
              <g id="Grupo_138954" data-name="Grupo 138954" transform="translate(0 2.454)">
                <path id="Trazado_133801" data-name="Trazado 133801" d="M392.105,280.02l-19.239-11.289c-4.285-2.512-7.751-9.246-7.745-15.04l.029-27.614c.01-9.847,5.922-14.367,13.2-10.094l8.383,4.918c7.283,4.271,13.177,15.717,13.165,25.566l-.029,27.612C399.866,279.874,396.388,282.532,392.105,280.02Z" transform="translate(-364.281 -213.536)" fill="#120d0c"/>
                <path id="Trazado_133802" data-name="Trazado 133802" d="M392.089,281.155,372.855,269.87c-4.507-2.646-8.168-9.721-8.161-15.77l.03-27.61c.006-5.52,1.845-9.738,5.044-11.57,2.662-1.517,6-1.255,9.426.748l8.383,4.918c7.5,4.4,13.59,16.2,13.579,26.292l-.029,27.614c0,3.378-1.147,5.965-3.14,7.106a4.747,4.747,0,0,1-2.377.622A7.039,7.039,0,0,1,392.089,281.155ZM370.6,216.38c-2.662,1.523-4.194,5.209-4.2,10.11l-.029,27.61c-.006,5.518,3.281,11.942,7.332,14.318L392.943,279.7c1.6.946,3.059,1.094,4.208.435,1.454-.83,2.292-2.892,2.294-5.646l.029-27.614c.01-9.565-5.711-20.708-12.752-24.842l-8.383-4.916a9.654,9.654,0,0,0-4.822-1.487A5.776,5.776,0,0,0,370.6,216.38Z" transform="translate(-364.694 -213.947)" fill="#15100c"/>
              </g>
            </g>
          </g>
        </g>
      </g>
    </g>
    <g id="Grupo_138960" data-name="Grupo 138960" transform="translate(473.058 838.24)">
      <g id="Grupo_138839-2" data-name="Grupo 138839" transform="translate(7.275)">
        <path id="Trazado_133640-2" data-name="Trazado 133640" d="M440.414,131.345V98.829l5.389,3.345v32.441Z" transform="translate(-438.588 -95.935)" fill="#8b3d9b"/>
        <path id="Trazado_133641-2" data-name="Trazado 133641" d="M444.349,132.451l-6.121-3.711V95.366l6.121,3.8Zm-5.391-4.117,4.661,2.826v-31.6l-4.661-2.892Z" transform="translate(-438.228 -95.366)" fill="#15100c"/>
      </g>
      <g id="Grupo_138840-2" data-name="Grupo 138840" transform="translate(14.35 14.229)">
        <path id="Trazado_133642-2" data-name="Trazado 133642" d="M448.88,138.435V115.858l5.389,3.345v22.5Z" transform="translate(-447.055 -112.965)" fill="#8b3d9b"/>
        <path id="Trazado_133643-2" data-name="Trazado 133643" d="M452.815,139.542,446.7,135.83V112.4l6.119,3.8Zm-5.388-4.118,4.658,2.827V116.594l-4.658-2.892Z" transform="translate(-446.696 -112.396)" fill="#15100c"/>
      </g>
      <g id="Grupo_138841-2" data-name="Grupo 138841" transform="translate(0 15.193)">
        <path id="Trazado_133644-2" data-name="Trazado 133644" d="M431.707,129.845V117.01l5.389,3.345v12.76Z" transform="translate(-429.88 -114.118)" fill="#8b3d9b"/>
        <path id="Trazado_133645-2" data-name="Trazado 133645" d="M435.641,130.952l-6.12-3.712v-13.69l6.12,3.8Zm-5.39-4.118,4.66,2.827V117.747l-4.66-2.891Z" transform="translate(-429.521 -113.549)" fill="#15100c"/>
      </g>
    </g>
  </g>
</svg>
