<svg xmlns="http://www.w3.org/2000/svg" width="610" height="364" viewBox="0 0 610 364">
  <g id="Grupo_160028" data-name="Grupo 160028" transform="translate(3179 9112)">
    <g id="Trazado_226568" data-name="Trazado 226568" transform="translate(-3179 -9064)" fill="#5c22c3">
      <path d="M 121.5 55.5 L 0.5 55.5 L 0.5 0.5 L 121.5 0.5 L 121.5 55.5 Z" stroke="none"/>
      <path d="M 1 1 L 1 55 L 121 55 L 121 1 L 1 1 M 0 0 L 122 0 L 122 56 L 0 56 L 0 0 Z" stroke="none" fill="#5c22c3"/>
    </g>
    <g id="Trazado_226569" data-name="Trazado 226569" transform="translate(-3179 -9009)" fill="#fff">
      <path d="M 121.5 26.5 L 0.5 26.5 L 0.5 0.5 L 121.5 0.5 L 121.5 26.5 Z" stroke="none"/>
      <path d="M 1 1 L 1 26 L 121 26 L 121 1 L 1 1 M 0 0 L 122 0 L 122 27 L 0 27 L 0 0 Z" stroke="none" fill="#5c22c3"/>
    </g>
    <g id="Trazado_226599" data-name="Trazado 226599" transform="translate(-3179 -8801)" fill="#fff">
      <path d="M 121.5 26.5 L 0.5 26.5 L 0.5 0.5 L 121.5 0.5 L 121.5 26.5 Z" stroke="none"/>
      <path d="M 1 1 L 1 26 L 121 26 L 121 1 L 1 1 M 0 0 L 122 0 L 122 27 L 0 27 L 0 0 Z" stroke="none" fill="#5c22c3"/>
    </g>
    <g id="Trazado_226570" data-name="Trazado 226570" transform="translate(-3179 -8905)" fill="#fff">
      <path d="M 121.5 26.5 L 0.5 26.5 L 0.5 0.5 L 121.5 0.5 L 121.5 26.5 Z" stroke="none"/>
      <path d="M 1 1 L 1 26 L 121 26 L 121 1 L 1 1 M 0 0 L 122 0 L 122 27 L 0 27 L 0 0 Z" stroke="none" fill="#5c22c3"/>
    </g>
    <g id="Trazado_226571" data-name="Trazado 226571" transform="translate(-3179 -8957)" fill="#fff">
      <path d="M 121.5 26.5 L 0.5 26.5 L 0.5 0.5 L 121.5 0.5 L 121.5 26.5 Z" stroke="none"/>
      <path d="M 1 1 L 1 26 L 121 26 L 121 1 L 1 1 M 0 0 L 122 0 L 122 27 L 0 27 L 0 0 Z" stroke="none" fill="#5c22c3"/>
    </g>
    <g id="Trazado_226572" data-name="Trazado 226572" transform="translate(-3179 -8853)" fill="#fff">
      <path d="M 121.5 26.5 L 0.5 26.5 L 0.5 0.5 L 121.5 0.5 L 121.5 26.5 Z" stroke="none"/>
      <path d="M 1 1 L 1 26 L 121 26 L 121 1 L 1 1 M 0 0 L 122 0 L 122 27 L 0 27 L 0 0 Z" stroke="none" fill="#5c22c3"/>
    </g>
    <g id="Trazado_226573" data-name="Trazado 226573" transform="translate(-3179 -8983)" fill="#fff">
      <path d="M 121.5 26.5 L 0.5 26.5 L 0.5 0.5 L 121.5 0.5 L 121.5 26.5 Z" stroke="none"/>
      <path d="M 1 1 L 1 26 L 121 26 L 121 1 L 1 1 M 0 0 L 122 0 L 122 27 L 0 27 L 0 0 Z" stroke="none" fill="#5c22c3"/>
    </g>
    <g id="Trazado_226608" data-name="Trazado 226608" transform="translate(-3179 -8775)" fill="#fff">
      <path d="M 121.5 26.5 L 0.5 26.5 L 0.5 0.5 L 121.5 0.5 L 121.5 26.5 Z" stroke="none"/>
      <path d="M 1 1 L 1 26 L 121 26 L 121 1 L 1 1 M 0 0 L 122 0 L 122 27 L 0 27 L 0 0 Z" stroke="none" fill="#5c22c3"/>
    </g>
    <g id="Trazado_226574" data-name="Trazado 226574" transform="translate(-3179 -8879)" fill="#fff">
      <path d="M 121.5 26.5 L 0.5 26.5 L 0.5 0.5 L 121.5 0.5 L 121.5 26.5 Z" stroke="none"/>
      <path d="M 1 1 L 1 26 L 121 26 L 121 1 L 1 1 M 0 0 L 122 0 L 122 27 L 0 27 L 0 0 Z" stroke="none" fill="#5c22c3"/>
    </g>
    <g id="Trazado_226575" data-name="Trazado 226575" transform="translate(-3179 -8931)" fill="#fff">
      <path d="M 121.5 26.5 L 0.5 26.5 L 0.5 0.5 L 121.5 0.5 L 121.5 26.5 Z" stroke="none"/>
      <path d="M 1 1 L 1 26 L 121 26 L 121 1 L 1 1 M 0 0 L 122 0 L 122 27 L 0 27 L 0 0 Z" stroke="none" fill="#5c22c3"/>
    </g>
    <g id="Trazado_226591" data-name="Trazado 226591" transform="translate(-3179 -8827)" fill="#fff">
      <path d="M 121.5 26.5 L 0.5 26.5 L 0.5 0.5 L 121.5 0.5 L 121.5 26.5 Z" stroke="none"/>
      <path d="M 1 1 L 1 26 L 121 26 L 121 1 L 1 1 M 0 0 L 122 0 L 122 27 L 0 27 L 0 0 Z" stroke="none" fill="#5c22c3"/>
    </g>
    <g id="Trazado_226550" data-name="Trazado 226550" transform="translate(-3058 -9064)" fill="#5c22c3">
      <path d="M 122.5 55.5 L 0.5 55.5 L 0.5 0.5 L 122.5 0.5 L 122.5 55.5 Z" stroke="none"/>
      <path d="M 1 1 L 1 55 L 122 55 L 122 1 L 1 1 M 0 0 L 123 0 L 123 56 L 0 56 L 0 0 Z" stroke="none" fill="#5c22c3"/>
    </g>
    <g id="Trazado_226526" data-name="Trazado 226526" transform="translate(-2725 -9064)" fill="#5c22c3">
      <path d="M 155.5 55.5 L 0.5 55.5 L 0.5 0.5 L 155.5 0.5 L 155.5 55.5 Z" stroke="none"/>
      <path d="M 1 1 L 1 55 L 155 55 L 155 1 L 1 1 M 0 0 L 156 0 L 156 56 L 0 56 L 0 0 Z" stroke="none" fill="#5c22c3"/>
    </g>
    <g id="Trazado_226530" data-name="Trazado 226530" transform="translate(-2936 -9064)" fill="#5c22c3">
      <path d="M 210.5 55.5 L 0.5 55.5 L 0.5 0.5 L 210.5 0.5 L 210.5 55.5 Z" stroke="none"/>
      <path d="M 1 1 L 1 55 L 210 55 L 210 1 L 1 1 M 0 0 L 211 0 L 211 56 L 0 56 L 0 0 Z" stroke="none" fill="#5c22c3"/>
    </g>
    <g id="Trazado_226551" data-name="Trazado 226551" transform="translate(-3058 -9009)" fill="#fff">
      <path d="M 122.5 26.5 L 0.5 26.5 L 0.5 0.5 L 122.5 0.5 L 122.5 26.5 Z" stroke="none"/>
      <path d="M 1 1 L 1 26 L 122 26 L 122 1 L 1 1 M 0 0 L 123 0 L 123 27 L 0 27 L 0 0 Z" stroke="none" fill="#5c22c3"/>
    </g>
    <g id="Trazado_226528" data-name="Trazado 226528" transform="translate(-2725 -9009)" fill="#fff">
      <path d="M 155.5 26.5 L 0.5 26.5 L 0.5 0.5 L 155.5 0.5 L 155.5 26.5 Z" stroke="none"/>
      <path d="M 1 1 L 1 26 L 155 26 L 155 1 L 1 1 M 0 0 L 156 0 L 156 27 L 0 27 L 0 0 Z" stroke="none" fill="#5c22c3"/>
    </g>
    <g id="Trazado_226531" data-name="Trazado 226531" transform="translate(-2936 -9009)" fill="#fff">
      <path d="M 210.5 26.5 L 0.5 26.5 L 0.5 0.5 L 210.5 0.5 L 210.5 26.5 Z" stroke="none"/>
      <path d="M 1 1 L 1 26 L 210 26 L 210 1 L 1 1 M 0 0 L 211 0 L 211 27 L 0 27 L 0 0 Z" stroke="none" fill="#5c22c3"/>
    </g>
    <g id="Trazado_226600" data-name="Trazado 226600" transform="translate(-3058 -8801)" fill="#fff">
      <path d="M 122.5 26.5 L 0.5 26.5 L 0.5 0.5 L 122.5 0.5 L 122.5 26.5 Z" stroke="none"/>
      <path d="M 1 1 L 1 26 L 122 26 L 122 1 L 1 1 M 0 0 L 123 0 L 123 27 L 0 27 L 0 0 Z" stroke="none" fill="#5c22c3"/>
    </g>
    <g id="Trazado_226601" data-name="Trazado 226601" transform="translate(-2725 -8801)" fill="#fff">
      <path d="M 155.5 26.5 L 0.5 26.5 L 0.5 0.5 L 155.5 0.5 L 155.5 26.5 Z" stroke="none"/>
      <path d="M 1 1 L 1 26 L 155 26 L 155 1 L 1 1 M 0 0 L 156 0 L 156 27 L 0 27 L 0 0 Z" stroke="none" fill="#5c22c3"/>
    </g>
    <g id="Trazado_226602" data-name="Trazado 226602" transform="translate(-2936 -8801)" fill="#fff">
      <path d="M 210.5 26.5 L 0.5 26.5 L 0.5 0.5 L 210.5 0.5 L 210.5 26.5 Z" stroke="none"/>
      <path d="M 1 1 L 1 26 L 210 26 L 210 1 L 1 1 M 0 0 L 211 0 L 211 27 L 0 27 L 0 0 Z" stroke="none" fill="#5c22c3"/>
    </g>
    <g id="Trazado_226552" data-name="Trazado 226552" transform="translate(-3058 -8905)" fill="#fff">
      <path d="M 122.5 26.5 L 0.5 26.5 L 0.5 0.5 L 122.5 0.5 L 122.5 26.5 Z" stroke="none"/>
      <path d="M 1 1 L 1 26 L 122 26 L 122 1 L 1 1 M 0 0 L 123 0 L 123 27 L 0 27 L 0 0 Z" stroke="none" fill="#5c22c3"/>
    </g>
    <g id="Trazado_226546" data-name="Trazado 226546" transform="translate(-2725 -8905)" fill="#fff">
      <path d="M 155.5 26.5 L 0.5 26.5 L 0.5 0.5 L 155.5 0.5 L 155.5 26.5 Z" stroke="none"/>
      <path d="M 1 1 L 1 26 L 155 26 L 155 1 L 1 1 M 0 0 L 156 0 L 156 27 L 0 27 L 0 0 Z" stroke="none" fill="#5c22c3"/>
    </g>
    <g id="Trazado_226547" data-name="Trazado 226547" transform="translate(-2936 -8905)" fill="#fff">
      <path d="M 210.5 26.5 L 0.5 26.5 L 0.5 0.5 L 210.5 0.5 L 210.5 26.5 Z" stroke="none"/>
      <path d="M 1 1 L 1 26 L 210 26 L 210 1 L 1 1 M 0 0 L 211 0 L 211 27 L 0 27 L 0 0 Z" stroke="none" fill="#5c22c3"/>
    </g>
    <g id="Trazado_226553" data-name="Trazado 226553" transform="translate(-3058 -8957)" fill="#fff">
      <path d="M 122.5 26.5 L 0.5 26.5 L 0.5 0.5 L 122.5 0.5 L 122.5 26.5 Z" stroke="none"/>
      <path d="M 1 1 L 1 26 L 122 26 L 122 1 L 1 1 M 0 0 L 123 0 L 123 27 L 0 27 L 0 0 Z" stroke="none" fill="#5c22c3"/>
    </g>
    <g id="Trazado_226538" data-name="Trazado 226538" transform="translate(-2725 -8957)" fill="#fff">
      <path d="M 155.5 26.5 L 0.5 26.5 L 0.5 0.5 L 155.5 0.5 L 155.5 26.5 Z" stroke="none"/>
      <path d="M 1 1 L 1 26 L 155 26 L 155 1 L 1 1 M 0 0 L 156 0 L 156 27 L 0 27 L 0 0 Z" stroke="none" fill="#5c22c3"/>
    </g>
    <g id="Trazado_226539" data-name="Trazado 226539" transform="translate(-2936 -8957)" fill="#fff">
      <path d="M 210.5 26.5 L 0.5 26.5 L 0.5 0.5 L 210.5 0.5 L 210.5 26.5 Z" stroke="none"/>
      <path d="M 1 1 L 1 26 L 210 26 L 210 1 L 1 1 M 0 0 L 211 0 L 211 27 L 0 27 L 0 0 Z" stroke="none" fill="#5c22c3"/>
    </g>
    <g id="Trazado_226576" data-name="Trazado 226576" transform="translate(-3058 -8853)" fill="#fff">
      <path d="M 122.5 26.5 L 0.5 26.5 L 0.5 0.5 L 122.5 0.5 L 122.5 26.5 Z" stroke="none"/>
      <path d="M 1 1 L 1 26 L 122 26 L 122 1 L 1 1 M 0 0 L 123 0 L 123 27 L 0 27 L 0 0 Z" stroke="none" fill="#5c22c3"/>
    </g>
    <g id="Trazado_226577" data-name="Trazado 226577" transform="translate(-2725 -8853)" fill="#fff">
      <path d="M 155.5 26.5 L 0.5 26.5 L 0.5 0.5 L 155.5 0.5 L 155.5 26.5 Z" stroke="none"/>
      <path d="M 1 1 L 1 26 L 155 26 L 155 1 L 1 1 M 0 0 L 156 0 L 156 27 L 0 27 L 0 0 Z" stroke="none" fill="#5c22c3"/>
    </g>
    <g id="Trazado_226578" data-name="Trazado 226578" transform="translate(-2936 -8853)" fill="#fff">
      <path d="M 210.5 26.5 L 0.5 26.5 L 0.5 0.5 L 210.5 0.5 L 210.5 26.5 Z" stroke="none"/>
      <path d="M 1 1 L 1 26 L 210 26 L 210 1 L 1 1 M 0 0 L 211 0 L 211 27 L 0 27 L 0 0 Z" stroke="none" fill="#5c22c3"/>
    </g>
    <g id="Trazado_226554" data-name="Trazado 226554" transform="translate(-3058 -8983)" fill="#fff">
      <path d="M 122.5 26.5 L 0.5 26.5 L 0.5 0.5 L 122.5 0.5 L 122.5 26.5 Z" stroke="none"/>
      <path d="M 1 1 L 1 26 L 122 26 L 122 1 L 1 1 M 0 0 L 123 0 L 123 27 L 0 27 L 0 0 Z" stroke="none" fill="#5c22c3"/>
    </g>
    <g id="Trazado_226534" data-name="Trazado 226534" transform="translate(-2725 -8983)" fill="#fff">
      <path d="M 155.5 26.5 L 0.5 26.5 L 0.5 0.5 L 155.5 0.5 L 155.5 26.5 Z" stroke="none"/>
      <path d="M 1 1 L 1 26 L 155 26 L 155 1 L 1 1 M 0 0 L 156 0 L 156 27 L 0 27 L 0 0 Z" stroke="none" fill="#5c22c3"/>
    </g>
    <g id="Trazado_226535" data-name="Trazado 226535" transform="translate(-2936 -8983)" fill="#fff">
      <path d="M 210.5 26.5 L 0.5 26.5 L 0.5 0.5 L 210.5 0.5 L 210.5 26.5 Z" stroke="none"/>
      <path d="M 1 1 L 1 26 L 210 26 L 210 1 L 1 1 M 0 0 L 211 0 L 211 27 L 0 27 L 0 0 Z" stroke="none" fill="#5c22c3"/>
    </g>
    <g id="Trazado_226609" data-name="Trazado 226609" transform="translate(-3058 -8775)" fill="#fff">
      <path d="M 122.5 26.5 L 0.5 26.5 L 0.5 0.5 L 122.5 0.5 L 122.5 26.5 Z" stroke="none"/>
      <path d="M 1 1 L 1 26 L 122 26 L 122 1 L 1 1 M 0 0 L 123 0 L 123 27 L 0 27 L 0 0 Z" stroke="none" fill="#5c22c3"/>
    </g>
    <g id="Trazado_226610" data-name="Trazado 226610" transform="translate(-2725 -8775)" fill="#fff">
      <path d="M 155.5 26.5 L 0.5 26.5 L 0.5 0.5 L 155.5 0.5 L 155.5 26.5 Z" stroke="none"/>
      <path d="M 1 1 L 1 26 L 155 26 L 155 1 L 1 1 M 0 0 L 156 0 L 156 27 L 0 27 L 0 0 Z" stroke="none" fill="#5c22c3"/>
    </g>
    <g id="Trazado_226611" data-name="Trazado 226611" transform="translate(-2936 -8775)" fill="#fff">
      <path d="M 210.5 26.5 L 0.5 26.5 L 0.5 0.5 L 210.5 0.5 L 210.5 26.5 Z" stroke="none"/>
      <path d="M 1 1 L 1 26 L 210 26 L 210 1 L 1 1 M 0 0 L 211 0 L 211 27 L 0 27 L 0 0 Z" stroke="none" fill="#5c22c3"/>
    </g>
    <g id="Trazado_226562" data-name="Trazado 226562" transform="translate(-3058 -8879)" fill="#fff">
      <path d="M 122.5 26.5 L 0.5 26.5 L 0.5 0.5 L 122.5 0.5 L 122.5 26.5 Z" stroke="none"/>
      <path d="M 1 1 L 1 26 L 122 26 L 122 1 L 1 1 M 0 0 L 123 0 L 123 27 L 0 27 L 0 0 Z" stroke="none" fill="#5c22c3"/>
    </g>
    <g id="Trazado_226563" data-name="Trazado 226563" transform="translate(-2725 -8879)" fill="#fff">
      <path d="M 155.5 26.5 L 0.5 26.5 L 0.5 0.5 L 155.5 0.5 L 155.5 26.5 Z" stroke="none"/>
      <path d="M 1 1 L 1 26 L 155 26 L 155 1 L 1 1 M 0 0 L 156 0 L 156 27 L 0 27 L 0 0 Z" stroke="none" fill="#5c22c3"/>
    </g>
    <g id="Trazado_226564" data-name="Trazado 226564" transform="translate(-2936 -8879)" fill="#fff">
      <path d="M 210.5 26.5 L 0.5 26.5 L 0.5 0.5 L 210.5 0.5 L 210.5 26.5 Z" stroke="none"/>
      <path d="M 1 1 L 1 26 L 210 26 L 210 1 L 1 1 M 0 0 L 211 0 L 211 27 L 0 27 L 0 0 Z" stroke="none" fill="#5c22c3"/>
    </g>
    <g id="Trazado_226555" data-name="Trazado 226555" transform="translate(-3058 -8931)" fill="#fff">
      <path d="M 122.5 26.5 L 0.5 26.5 L 0.5 0.5 L 122.5 0.5 L 122.5 26.5 Z" stroke="none"/>
      <path d="M 1 1 L 1 26 L 122 26 L 122 1 L 1 1 M 0 0 L 123 0 L 123 27 L 0 27 L 0 0 Z" stroke="none" fill="#5c22c3"/>
    </g>
    <g id="Trazado_226542" data-name="Trazado 226542" transform="translate(-2725 -8931)" fill="#fff">
      <path d="M 155.5 26.5 L 0.5 26.5 L 0.5 0.5 L 155.5 0.5 L 155.5 26.5 Z" stroke="none"/>
      <path d="M 1 1 L 1 26 L 155 26 L 155 1 L 1 1 M 0 0 L 156 0 L 156 27 L 0 27 L 0 0 Z" stroke="none" fill="#5c22c3"/>
    </g>
    <g id="Trazado_226543" data-name="Trazado 226543" transform="translate(-2936 -8931)" fill="#fff">
      <path d="M 210.5 26.5 L 0.5 26.5 L 0.5 0.5 L 210.5 0.5 L 210.5 26.5 Z" stroke="none"/>
      <path d="M 1 1 L 1 26 L 210 26 L 210 1 L 1 1 M 0 0 L 211 0 L 211 27 L 0 27 L 0 0 Z" stroke="none" fill="#5c22c3"/>
    </g>
    <g id="Trazado_226592" data-name="Trazado 226592" transform="translate(-3058 -8827)" fill="#fff">
      <path d="M 122.5 26.5 L 0.5 26.5 L 0.5 0.5 L 122.5 0.5 L 122.5 26.5 Z" stroke="none"/>
      <path d="M 1 1 L 1 26 L 122 26 L 122 1 L 1 1 M 0 0 L 123 0 L 123 27 L 0 27 L 0 0 Z" stroke="none" fill="#5c22c3"/>
    </g>
    <g id="Trazado_226593" data-name="Trazado 226593" transform="translate(-2725 -8827)" fill="#fff">
      <path d="M 155.5 26.5 L 0.5 26.5 L 0.5 0.5 L 155.5 0.5 L 155.5 26.5 Z" stroke="none"/>
      <path d="M 1 1 L 1 26 L 155 26 L 155 1 L 1 1 M 0 0 L 156 0 L 156 27 L 0 27 L 0 0 Z" stroke="none" fill="#5c22c3"/>
    </g>
    <g id="Trazado_226594" data-name="Trazado 226594" transform="translate(-2936 -8827)" fill="#fff">
      <path d="M 210.5 26.5 L 0.5 26.5 L 0.5 0.5 L 210.5 0.5 L 210.5 26.5 Z" stroke="none"/>
      <path d="M 1 1 L 1 26 L 210 26 L 210 1 L 1 1 M 0 0 L 211 0 L 211 27 L 0 27 L 0 0 Z" stroke="none" fill="#5c22c3"/>
    </g>
    <path id="Trazado_226579" data-name="Trazado 226579" d="M49.488,17H47.145L42.582,9.516V17H40.238V5.625h2.344l4.57,7.5v-7.5h2.336Zm1.547-4.3a5.013,5.013,0,0,1,.484-2.242A3.546,3.546,0,0,1,52.914,8.93a4.069,4.069,0,0,1,2.113-.539A3.849,3.849,0,0,1,57.82,9.438a4.2,4.2,0,0,1,1.207,2.844l.016.578a4.418,4.418,0,0,1-1.086,3.121,4.209,4.209,0,0,1-5.832,0,4.5,4.5,0,0,1-1.09-3.187Zm2.258.16a3.16,3.16,0,0,0,.453,1.843,1.628,1.628,0,0,0,2.578.008,3.457,3.457,0,0,0,.461-2.015,3.128,3.128,0,0,0-.461-1.831,1.5,1.5,0,0,0-1.3-.649,1.474,1.474,0,0,0-1.281.646A3.516,3.516,0,0,0,53.293,12.856Zm9.844-6.387V8.547h1.445V10.2H63.137v4.219a1.007,1.007,0,0,0,.18.672.9.9,0,0,0,.688.2,3.6,3.6,0,0,0,.664-.055v1.711a4.648,4.648,0,0,1-1.367.2,2.156,2.156,0,0,1-2.422-2.4V10.2H59.645V8.547h1.234V6.469ZM70.738,17a2.507,2.507,0,0,1-.227-.758,2.732,2.732,0,0,1-2.133.914,3,3,0,0,1-2.059-.719,2.312,2.312,0,0,1-.816-1.812,2.389,2.389,0,0,1,1-2.062,4.915,4.915,0,0,1,2.879-.727h1.039v-.484a1.393,1.393,0,0,0-.3-.937,1.183,1.183,0,0,0-.949-.352,1.345,1.345,0,0,0-.895.273.929.929,0,0,0-.324.75H65.691a2.268,2.268,0,0,1,.453-1.359,3,3,0,0,1,1.281-.98,4.669,4.669,0,0,1,1.859-.355,3.689,3.689,0,0,1,2.48.785,2.747,2.747,0,0,1,.918,2.207v3.664a4.041,4.041,0,0,0,.336,1.82V17Zm-1.867-1.57a1.945,1.945,0,0,0,.922-.223,1.462,1.462,0,0,0,.625-.6V13.156h-.844q-1.7,0-1.8,1.172l-.008.133a.9.9,0,0,0,.3.7A1.153,1.153,0,0,0,68.871,15.43ZM79,14.664a.727.727,0,0,0-.41-.652,4.659,4.659,0,0,0-1.316-.426q-3.016-.633-3.016-2.562a2.323,2.323,0,0,1,.934-1.879,3.766,3.766,0,0,1,2.441-.754,4.053,4.053,0,0,1,2.574.758,2.388,2.388,0,0,1,.965,1.969H78.91a1.092,1.092,0,0,0-.312-.8A1.322,1.322,0,0,0,77.621,10a1.351,1.351,0,0,0-.883.258.814.814,0,0,0-.312.656.7.7,0,0,0,.355.605,3.657,3.657,0,0,0,1.2.4A9.8,9.8,0,0,1,79.4,12.3a2.336,2.336,0,0,1,1.789,2.273,2.2,2.2,0,0,1-.992,1.871,4.28,4.28,0,0,1-2.562.715,4.47,4.47,0,0,1-1.887-.379,3.166,3.166,0,0,1-1.293-1.039,2.414,2.414,0,0,1-.469-1.426h2.141a1.179,1.179,0,0,0,.445.922,1.766,1.766,0,0,0,1.109.32,1.635,1.635,0,0,0,.98-.246A.766.766,0,0,0,79,14.664Z" transform="translate(-3179 -9045)" fill="#fef536"/>
    <path id="Trazado_226580" data-name="Trazado 226580" d="M5.7,17H4.242V7.367L1.328,8.438V7.125L5.469,5.57H5.7Z" transform="translate(-3169 -9005)" fill="#12263f"/>
    <path id="Trazado_226603" data-name="Trazado 226603" d="M6.484,12a3.536,3.536,0,0,1-1.082.867,2.936,2.936,0,0,1-1.379.328,3.031,3.031,0,0,1-1.715-.484A3.149,3.149,0,0,1,1.18,11.348a4.648,4.648,0,0,1-.4-1.941,4.735,4.735,0,0,1,.434-2.055,3.185,3.185,0,0,1,1.23-1.4A3.509,3.509,0,0,1,4.3,5.469,3.177,3.177,0,0,1,6.965,6.73a5.5,5.5,0,0,1,.973,3.441v.422q0,3.32-1.312,4.848a5.043,5.043,0,0,1-3.961,1.566H2.383V15.781h.3a3.979,3.979,0,0,0,2.75-.932A4,4,0,0,0,6.484,12ZM4.258,12a2.232,2.232,0,0,0,1.34-.445,2.625,2.625,0,0,0,.895-1.1V9.875a3.977,3.977,0,0,0-.617-2.312A1.887,1.887,0,0,0,2.781,7.4,3.013,3.013,0,0,0,2.2,9.328a3.136,3.136,0,0,0,.559,1.918A1.769,1.769,0,0,0,4.258,12Z" transform="translate(-3169 -8797)" fill="#12263f"/>
    <path id="Trazado_226581" data-name="Trazado 226581" d="M1.609,11.3l.578-5.672H8.016V6.961h-4.6l-.344,3.1a3.671,3.671,0,0,1,1.9-.492A3.138,3.138,0,0,1,7.438,10.6a4.026,4.026,0,0,1,.914,2.777,3.886,3.886,0,0,1-.949,2.77A3.46,3.46,0,0,1,4.75,17.156a3.6,3.6,0,0,1-2.461-.836A3.337,3.337,0,0,1,1.2,14.008H2.57a2.3,2.3,0,0,0,.7,1.473,2.162,2.162,0,0,0,1.484.5,1.95,1.95,0,0,0,1.582-.687,2.874,2.874,0,0,0,.574-1.9,2.638,2.638,0,0,0-.621-1.832,2.113,2.113,0,0,0-1.652-.691,2.383,2.383,0,0,0-1.484.414l-.383.313Z" transform="translate(-3169 -8901)" fill="#12263f"/>
    <path id="Trazado_226582" data-name="Trazado 226582" d="M3.047,10.609H4.133a2.387,2.387,0,0,0,1.609-.539,1.8,1.8,0,0,0,.586-1.414,1.764,1.764,0,0,0-1.992-2,2.072,2.072,0,0,0-1.5.535,1.873,1.873,0,0,0-.559,1.418H.836a2.9,2.9,0,0,1,.988-2.246,3.6,3.6,0,0,1,2.512-.895,3.558,3.558,0,0,1,2.523.852,3.076,3.076,0,0,1,.914,2.367,2.5,2.5,0,0,1-.48,1.438,2.9,2.9,0,0,1-1.309,1.039,2.8,2.8,0,0,1,1.449.984,2.734,2.734,0,0,1,.512,1.68,3.1,3.1,0,0,1-1,2.43,3.745,3.745,0,0,1-2.6.9,3.844,3.844,0,0,1-2.605-.867A2.877,2.877,0,0,1,.734,14H2.188a1.859,1.859,0,0,0,.586,1.438,2.229,2.229,0,0,0,1.57.539,2.187,2.187,0,0,0,1.6-.547,2.108,2.108,0,0,0,.555-1.57,1.912,1.912,0,0,0-.609-1.523,2.655,2.655,0,0,0-1.758-.547H3.047Z" transform="translate(-3169 -8953)" fill="#12263f"/>
    <path id="Trazado_226586" data-name="Trazado 226586" d="M8.289,6.438,3.578,17H2.063l4.7-10.187H.6V5.625H8.289Z" transform="translate(-3169 -8849)" fill="#12263f"/>
    <path id="Trazado_226583" data-name="Trazado 226583" d="M8.4,17H.945V15.961l3.938-4.375A9.355,9.355,0,0,0,6.09,9.973a2.693,2.693,0,0,0,.332-1.285,2.041,2.041,0,0,0-.539-1.461,1.885,1.885,0,0,0-1.437-.57A2.232,2.232,0,0,0,2.77,7.27a2.343,2.343,0,0,0-.6,1.707H.727A3.355,3.355,0,0,1,1.738,6.438a3.751,3.751,0,0,1,2.707-.969A3.6,3.6,0,0,1,6.953,6.3a2.838,2.838,0,0,1,.922,2.215q0,1.68-2.141,4l-3.047,3.3H8.4Z" transform="translate(-3169 -8979)" fill="#12263f"/>
    <path id="Trazado_226612" data-name="Trazado 226612" d="M5.7,17H4.242V7.367L1.328,8.438V7.125L5.469,5.57H5.7Zm11.367-4.852a6.61,6.61,0,0,1-.867,3.773,3.084,3.084,0,0,1-2.711,1.234,3.107,3.107,0,0,1-2.7-1.207,6.274,6.274,0,0,1-.906-3.605v-1.93a6.463,6.463,0,0,1,.867-3.727,3.108,3.108,0,0,1,2.719-1.219,3.136,3.136,0,0,1,2.7,1.176,6.237,6.237,0,0,1,.891,3.629Zm-1.445-1.977A5.3,5.3,0,0,0,15.1,7.5a1.775,1.775,0,0,0-1.633-.84,1.751,1.751,0,0,0-1.617.836,5.171,5.171,0,0,0-.523,2.57v2.313a5.381,5.381,0,0,0,.535,2.723,1.771,1.771,0,0,0,1.621.879,1.747,1.747,0,0,0,1.59-.828,5.186,5.186,0,0,0,.543-2.609Z" transform="translate(-3169 -8771)" fill="#12263f"/>
    <path id="Trazado_226584" data-name="Trazado 226584" d="M6.617,5.617V6.844H6.352a3.805,3.805,0,0,0-2.687,1A4.161,4.161,0,0,0,2.508,10.57,3.085,3.085,0,0,1,4.961,9.539a2.95,2.95,0,0,1,2.371,1.047,4.038,4.038,0,0,1,.887,2.7A4.025,4.025,0,0,1,7.262,16.1,3.3,3.3,0,0,1,4.7,17.156,3.247,3.247,0,0,1,2.047,15.9a4.97,4.97,0,0,1-1.016-3.23v-.555a7.488,7.488,0,0,1,1.34-4.8,4.921,4.921,0,0,1,3.988-1.7Zm-1.9,5.125a2.306,2.306,0,0,0-1.367.445A2.32,2.32,0,0,0,2.484,12.3v.531A3.731,3.731,0,0,0,3.117,15.1a1.9,1.9,0,0,0,1.578.859,1.838,1.838,0,0,0,1.535-.719,2.982,2.982,0,0,0,.559-1.883,2.983,2.983,0,0,0-.566-1.895A1.816,1.816,0,0,0,4.719,10.742Z" transform="translate(-3169 -8875)" fill="#12263f"/>
    <path id="Trazado_226585" data-name="Trazado 226585" d="M7.047,13.18H8.625v1.18H7.047V17H5.594V14.359H.414v-.852L5.508,5.625H7.047Zm-4.992,0H5.594V7.6l-.172.313Z" transform="translate(-3169 -8927)" fill="#12263f"/>
    <path id="Trazado_226595" data-name="Trazado 226595" d="M7.844,8.594a2.641,2.641,0,0,1-.449,1.516A3.057,3.057,0,0,1,6.18,11.148a3.26,3.26,0,0,1,1.41,1.117,2.811,2.811,0,0,1,.52,1.664,2.972,2.972,0,0,1-1,2.352,3.827,3.827,0,0,1-2.621.875,3.81,3.81,0,0,1-2.629-.879A2.986,2.986,0,0,1,.875,13.93a2.9,2.9,0,0,1,.5-1.664,3.136,3.136,0,0,1,1.395-1.125,2.981,2.981,0,0,1-1.2-1.039,2.679,2.679,0,0,1-.437-1.508,2.94,2.94,0,0,1,.922-2.281,3.458,3.458,0,0,1,2.43-.844,3.461,3.461,0,0,1,2.426.844A2.934,2.934,0,0,1,7.844,8.594Zm-1.18,5.3a2.1,2.1,0,0,0-.605-1.555,2.147,2.147,0,0,0-1.582-.6,2.11,2.11,0,0,0-1.566.594A2.12,2.12,0,0,0,2.32,13.9a2.019,2.019,0,0,0,.574,1.523,2.2,2.2,0,0,0,1.6.555,2.2,2.2,0,0,0,1.594-.559A2.014,2.014,0,0,0,6.664,13.9ZM4.492,6.656a1.865,1.865,0,0,0-1.379.527,1.937,1.937,0,0,0-.527,1.434,1.928,1.928,0,0,0,.52,1.4,1.844,1.844,0,0,0,1.387.535,1.844,1.844,0,0,0,1.387-.535,1.928,1.928,0,0,0,.52-1.4A1.929,1.929,0,0,0,5.859,7.2,1.839,1.839,0,0,0,4.492,6.656Z" transform="translate(-3169 -8823)" fill="#12263f"/>
    <path id="Trazado_226557" data-name="Trazado 226557" d="M8.078,12.148a6.61,6.61,0,0,1-.867,3.773A3.084,3.084,0,0,1,4.5,17.156a3.107,3.107,0,0,1-2.7-1.207A6.274,6.274,0,0,1,.9,12.344v-1.93a6.463,6.463,0,0,1,.867-3.727A3.108,3.108,0,0,1,4.484,5.469a3.136,3.136,0,0,1,2.7,1.176,6.237,6.237,0,0,1,.891,3.629ZM6.633,10.172A5.3,5.3,0,0,0,6.117,7.5a1.775,1.775,0,0,0-1.633-.84,1.751,1.751,0,0,0-1.617.836,5.171,5.171,0,0,0-.523,2.57v2.313A5.381,5.381,0,0,0,2.879,15.1a1.771,1.771,0,0,0,1.621.879,1.747,1.747,0,0,0,1.59-.828,5.186,5.186,0,0,0,.543-2.609Z" transform="translate(-3047 -9005)" fill="#12263f"/>
    <path id="Trazado_226529" data-name="Trazado 226529" d="M8.078,12.148a6.61,6.61,0,0,1-.867,3.773A3.084,3.084,0,0,1,4.5,17.156a3.107,3.107,0,0,1-2.7-1.207A6.274,6.274,0,0,1,.9,12.344v-1.93a6.463,6.463,0,0,1,.867-3.727A3.108,3.108,0,0,1,4.484,5.469a3.136,3.136,0,0,1,2.7,1.176,6.237,6.237,0,0,1,.891,3.629ZM6.633,10.172A5.3,5.3,0,0,0,6.117,7.5a1.775,1.775,0,0,0-1.633-.84,1.751,1.751,0,0,0-1.617.836,5.171,5.171,0,0,0-.523,2.57v2.313A5.381,5.381,0,0,0,2.879,15.1a1.771,1.771,0,0,0,1.621.879,1.747,1.747,0,0,0,1.59-.828,5.186,5.186,0,0,0,.543-2.609Z" transform="translate(-2714 -9005)" fill="#12263f"/>
    <path id="Trazado_226532" data-name="Trazado 226532" d="M8.078,12.148a6.61,6.61,0,0,1-.867,3.773A3.084,3.084,0,0,1,4.5,17.156a3.107,3.107,0,0,1-2.7-1.207A6.274,6.274,0,0,1,.9,12.344v-1.93a6.463,6.463,0,0,1,.867-3.727A3.108,3.108,0,0,1,4.484,5.469a3.136,3.136,0,0,1,2.7,1.176,6.237,6.237,0,0,1,.891,3.629ZM6.633,10.172A5.3,5.3,0,0,0,6.117,7.5a1.775,1.775,0,0,0-1.633-.84,1.751,1.751,0,0,0-1.617.836,5.171,5.171,0,0,0-.523,2.57v2.313A5.381,5.381,0,0,0,2.879,15.1a1.771,1.771,0,0,0,1.621.879,1.747,1.747,0,0,0,1.59-.828,5.186,5.186,0,0,0,.543-2.609Z" transform="translate(-2925 -9005)" fill="#12263f"/>
    <path id="Trazado_226604" data-name="Trazado 226604" d="M8.4,17H.945V15.961l3.938-4.375A9.355,9.355,0,0,0,6.09,9.973a2.693,2.693,0,0,0,.332-1.285,2.041,2.041,0,0,0-.539-1.461,1.885,1.885,0,0,0-1.437-.57A2.232,2.232,0,0,0,2.77,7.27a2.343,2.343,0,0,0-.6,1.707H.727A3.355,3.355,0,0,1,1.738,6.438a3.751,3.751,0,0,1,2.707-.969A3.6,3.6,0,0,1,6.953,6.3a2.838,2.838,0,0,1,.922,2.215q0,1.68-2.141,4l-3.047,3.3H8.4Z" transform="translate(-3047 -8797)" fill="#12263f"/>
    <path id="Trazado_226605" data-name="Trazado 226605" d="M8.078,12.148a6.61,6.61,0,0,1-.867,3.773A3.084,3.084,0,0,1,4.5,17.156a3.107,3.107,0,0,1-2.7-1.207A6.274,6.274,0,0,1,.9,12.344v-1.93a6.463,6.463,0,0,1,.867-3.727A3.108,3.108,0,0,1,4.484,5.469a3.136,3.136,0,0,1,2.7,1.176,6.237,6.237,0,0,1,.891,3.629ZM6.633,10.172A5.3,5.3,0,0,0,6.117,7.5a1.775,1.775,0,0,0-1.633-.84,1.751,1.751,0,0,0-1.617.836,5.171,5.171,0,0,0-.523,2.57v2.313A5.381,5.381,0,0,0,2.879,15.1a1.771,1.771,0,0,0,1.621.879,1.747,1.747,0,0,0,1.59-.828,5.186,5.186,0,0,0,.543-2.609Zm3.4,9.094-.82-.562a3.77,3.77,0,0,0,.766-2.109v-1.3h1.414v1.133A3.559,3.559,0,0,1,11,18,3.7,3.7,0,0,1,10.031,19.266ZM18.609,12a3.536,3.536,0,0,1-1.082.867,2.936,2.936,0,0,1-1.379.328,3.031,3.031,0,0,1-1.715-.484A3.149,3.149,0,0,1,13.3,11.348a4.648,4.648,0,0,1-.4-1.941,4.735,4.735,0,0,1,.434-2.055,3.185,3.185,0,0,1,1.23-1.4,3.509,3.509,0,0,1,1.859-.484A3.177,3.177,0,0,1,19.09,6.73a5.5,5.5,0,0,1,.973,3.441v.422q0,3.32-1.312,4.848a5.043,5.043,0,0,1-3.961,1.566h-.281V15.781h.3a3.979,3.979,0,0,0,2.75-.932A4,4,0,0,0,18.609,12Zm-2.227,0a2.232,2.232,0,0,0,1.34-.445,2.625,2.625,0,0,0,.895-1.1V9.875A3.977,3.977,0,0,0,18,7.563a1.887,1.887,0,0,0-3.094-.16,3.013,3.013,0,0,0-.578,1.926,3.136,3.136,0,0,0,.559,1.918A1.769,1.769,0,0,0,16.383,12Z" transform="translate(-2714 -8797)" fill="#12263f"/>
    <path id="Trazado_226606" data-name="Trazado 226606" d="M6.484,12a3.536,3.536,0,0,1-1.082.867,2.936,2.936,0,0,1-1.379.328,3.031,3.031,0,0,1-1.715-.484A3.149,3.149,0,0,1,1.18,11.348a4.648,4.648,0,0,1-.4-1.941,4.735,4.735,0,0,1,.434-2.055,3.185,3.185,0,0,1,1.23-1.4A3.509,3.509,0,0,1,4.3,5.469,3.177,3.177,0,0,1,6.965,6.73a5.5,5.5,0,0,1,.973,3.441v.422q0,3.32-1.312,4.848a5.043,5.043,0,0,1-3.961,1.566H2.383V15.781h.3a3.979,3.979,0,0,0,2.75-.932A4,4,0,0,0,6.484,12ZM4.258,12a2.232,2.232,0,0,0,1.34-.445,2.625,2.625,0,0,0,.895-1.1V9.875a3.977,3.977,0,0,0-.617-2.312A1.887,1.887,0,0,0,2.781,7.4,3.013,3.013,0,0,0,2.2,9.328a3.136,3.136,0,0,0,.559,1.918A1.769,1.769,0,0,0,4.258,12Z" transform="translate(-2925 -8797)" fill="#12263f"/>
    <path id="Trazado_226558" data-name="Trazado 226558" d="M8.4,17H.945V15.961l3.938-4.375A9.355,9.355,0,0,0,6.09,9.973a2.693,2.693,0,0,0,.332-1.285,2.041,2.041,0,0,0-.539-1.461,1.885,1.885,0,0,0-1.437-.57A2.232,2.232,0,0,0,2.77,7.27a2.343,2.343,0,0,0-.6,1.707H.727A3.355,3.355,0,0,1,1.738,6.438a3.751,3.751,0,0,1,2.707-.969A3.6,3.6,0,0,1,6.953,6.3a2.838,2.838,0,0,1,.922,2.215q0,1.68-2.141,4l-3.047,3.3H8.4Z" transform="translate(-3047 -8901)" fill="#12263f"/>
    <path id="Trazado_226548" data-name="Trazado 226548" d="M8.078,12.148a6.61,6.61,0,0,1-.867,3.773A3.084,3.084,0,0,1,4.5,17.156a3.107,3.107,0,0,1-2.7-1.207A6.274,6.274,0,0,1,.9,12.344v-1.93a6.463,6.463,0,0,1,.867-3.727A3.108,3.108,0,0,1,4.484,5.469a3.136,3.136,0,0,1,2.7,1.176,6.237,6.237,0,0,1,.891,3.629ZM6.633,10.172A5.3,5.3,0,0,0,6.117,7.5a1.775,1.775,0,0,0-1.633-.84,1.751,1.751,0,0,0-1.617.836,5.171,5.171,0,0,0-.523,2.57v2.313A5.381,5.381,0,0,0,2.879,15.1a1.771,1.771,0,0,0,1.621.879,1.747,1.747,0,0,0,1.59-.828,5.186,5.186,0,0,0,.543-2.609Zm3.4,9.094-.82-.562a3.77,3.77,0,0,0,.766-2.109v-1.3h1.414v1.133A3.559,3.559,0,0,1,11,18,3.7,3.7,0,0,1,10.031,19.266Zm5.141-8.656h1.086a2.387,2.387,0,0,0,1.609-.539,1.8,1.8,0,0,0,.586-1.414,1.764,1.764,0,0,0-1.992-2,2.072,2.072,0,0,0-1.5.535,1.873,1.873,0,0,0-.559,1.418H12.961a2.9,2.9,0,0,1,.988-2.246,3.6,3.6,0,0,1,2.512-.895,3.558,3.558,0,0,1,2.523.852A3.076,3.076,0,0,1,19.9,8.688a2.5,2.5,0,0,1-.48,1.438,2.9,2.9,0,0,1-1.309,1.039,2.8,2.8,0,0,1,1.449.984,2.734,2.734,0,0,1,.512,1.68,3.1,3.1,0,0,1-1,2.43,3.745,3.745,0,0,1-2.6.9,3.844,3.844,0,0,1-2.605-.867,2.877,2.877,0,0,1-1-2.289h1.453a1.859,1.859,0,0,0,.586,1.438,2.229,2.229,0,0,0,1.57.539,2.187,2.187,0,0,0,1.6-.547,2.108,2.108,0,0,0,.555-1.57,1.912,1.912,0,0,0-.609-1.523,2.655,2.655,0,0,0-1.758-.547H15.172Z" transform="translate(-2714 -8901)" fill="#12263f"/>
    <path id="Trazado_226549" data-name="Trazado 226549" d="M3.047,10.609H4.133a2.387,2.387,0,0,0,1.609-.539,1.8,1.8,0,0,0,.586-1.414,1.764,1.764,0,0,0-1.992-2,2.072,2.072,0,0,0-1.5.535,1.873,1.873,0,0,0-.559,1.418H.836a2.9,2.9,0,0,1,.988-2.246,3.6,3.6,0,0,1,2.512-.895,3.558,3.558,0,0,1,2.523.852,3.076,3.076,0,0,1,.914,2.367,2.5,2.5,0,0,1-.48,1.438,2.9,2.9,0,0,1-1.309,1.039,2.8,2.8,0,0,1,1.449.984,2.734,2.734,0,0,1,.512,1.68,3.1,3.1,0,0,1-1,2.43,3.745,3.745,0,0,1-2.6.9,3.844,3.844,0,0,1-2.605-.867A2.877,2.877,0,0,1,.734,14H2.188a1.859,1.859,0,0,0,.586,1.438,2.229,2.229,0,0,0,1.57.539,2.187,2.187,0,0,0,1.6-.547,2.108,2.108,0,0,0,.555-1.57,1.912,1.912,0,0,0-.609-1.523,2.655,2.655,0,0,0-1.758-.547H3.047Z" transform="translate(-2925 -8901)" fill="#12263f"/>
    <path id="Trazado_226559" data-name="Trazado 226559" d="M8.078,12.148a6.61,6.61,0,0,1-.867,3.773A3.084,3.084,0,0,1,4.5,17.156a3.107,3.107,0,0,1-2.7-1.207A6.274,6.274,0,0,1,.9,12.344v-1.93a6.463,6.463,0,0,1,.867-3.727A3.108,3.108,0,0,1,4.484,5.469a3.136,3.136,0,0,1,2.7,1.176,6.237,6.237,0,0,1,.891,3.629ZM6.633,10.172A5.3,5.3,0,0,0,6.117,7.5a1.775,1.775,0,0,0-1.633-.84,1.751,1.751,0,0,0-1.617.836,5.171,5.171,0,0,0-.523,2.57v2.313A5.381,5.381,0,0,0,2.879,15.1a1.771,1.771,0,0,0,1.621.879,1.747,1.747,0,0,0,1.59-.828,5.186,5.186,0,0,0,.543-2.609Z" transform="translate(-3047 -8953)" fill="#12263f"/>
    <path id="Trazado_226540" data-name="Trazado 226540" d="M8.078,12.148a6.61,6.61,0,0,1-.867,3.773A3.084,3.084,0,0,1,4.5,17.156a3.107,3.107,0,0,1-2.7-1.207A6.274,6.274,0,0,1,.9,12.344v-1.93a6.463,6.463,0,0,1,.867-3.727A3.108,3.108,0,0,1,4.484,5.469a3.136,3.136,0,0,1,2.7,1.176,6.237,6.237,0,0,1,.891,3.629ZM6.633,10.172A5.3,5.3,0,0,0,6.117,7.5a1.775,1.775,0,0,0-1.633-.84,1.751,1.751,0,0,0-1.617.836,5.171,5.171,0,0,0-.523,2.57v2.313A5.381,5.381,0,0,0,2.879,15.1a1.771,1.771,0,0,0,1.621.879,1.747,1.747,0,0,0,1.59-.828,5.186,5.186,0,0,0,.543-2.609Z" transform="translate(-2714 -8953)" fill="#12263f"/>
    <path id="Trazado_226541" data-name="Trazado 226541" d="M8.078,12.148a6.61,6.61,0,0,1-.867,3.773A3.084,3.084,0,0,1,4.5,17.156a3.107,3.107,0,0,1-2.7-1.207A6.274,6.274,0,0,1,.9,12.344v-1.93a6.463,6.463,0,0,1,.867-3.727A3.108,3.108,0,0,1,4.484,5.469a3.136,3.136,0,0,1,2.7,1.176,6.237,6.237,0,0,1,.891,3.629ZM6.633,10.172A5.3,5.3,0,0,0,6.117,7.5a1.775,1.775,0,0,0-1.633-.84,1.751,1.751,0,0,0-1.617.836,5.171,5.171,0,0,0-.523,2.57v2.313A5.381,5.381,0,0,0,2.879,15.1a1.771,1.771,0,0,0,1.621.879,1.747,1.747,0,0,0,1.59-.828,5.186,5.186,0,0,0,.543-2.609Z" transform="translate(-2925 -8953)" fill="#12263f"/>
    <path id="Trazado_226587" data-name="Trazado 226587" d="M5.7,17H4.242V7.367L1.328,8.438V7.125L5.469,5.57H5.7Z" transform="translate(-3047 -8849)" fill="#12263f"/>
    <path id="Trazado_226588" data-name="Trazado 226588" d="M8.078,12.148a6.61,6.61,0,0,1-.867,3.773A3.084,3.084,0,0,1,4.5,17.156a3.107,3.107,0,0,1-2.7-1.207A6.274,6.274,0,0,1,.9,12.344v-1.93a6.463,6.463,0,0,1,.867-3.727A3.108,3.108,0,0,1,4.484,5.469a3.136,3.136,0,0,1,2.7,1.176,6.237,6.237,0,0,1,.891,3.629ZM6.633,10.172A5.3,5.3,0,0,0,6.117,7.5a1.775,1.775,0,0,0-1.633-.84,1.751,1.751,0,0,0-1.617.836,5.171,5.171,0,0,0-.523,2.57v2.313A5.381,5.381,0,0,0,2.879,15.1a1.771,1.771,0,0,0,1.621.879,1.747,1.747,0,0,0,1.59-.828,5.186,5.186,0,0,0,.543-2.609Zm3.4,9.094-.82-.562a3.77,3.77,0,0,0,.766-2.109v-1.3h1.414v1.133A3.559,3.559,0,0,1,11,18,3.7,3.7,0,0,1,10.031,19.266Zm3.7-7.969.578-5.672h5.828V6.961h-4.6l-.344,3.1a3.671,3.671,0,0,1,1.9-.492A3.138,3.138,0,0,1,19.563,10.6a4.026,4.026,0,0,1,.914,2.777,3.886,3.886,0,0,1-.949,2.77,3.46,3.46,0,0,1-2.652,1.012,3.6,3.6,0,0,1-2.461-.836,3.337,3.337,0,0,1-1.086-2.312H14.7a2.3,2.3,0,0,0,.7,1.473,2.162,2.162,0,0,0,1.484.5,1.95,1.95,0,0,0,1.582-.687,2.874,2.874,0,0,0,.574-1.9,2.638,2.638,0,0,0-.621-1.832,2.113,2.113,0,0,0-1.652-.691,2.383,2.383,0,0,0-1.484.414l-.383.313Z" transform="translate(-2714 -8849)" fill="#12263f"/>
    <path id="Trazado_226589" data-name="Trazado 226589" d="M1.609,11.3l.578-5.672H8.016V6.961h-4.6l-.344,3.1a3.671,3.671,0,0,1,1.9-.492A3.138,3.138,0,0,1,7.438,10.6a4.026,4.026,0,0,1,.914,2.777,3.886,3.886,0,0,1-.949,2.77A3.46,3.46,0,0,1,4.75,17.156a3.6,3.6,0,0,1-2.461-.836A3.337,3.337,0,0,1,1.2,14.008H2.57a2.3,2.3,0,0,0,.7,1.473,2.162,2.162,0,0,0,1.484.5,1.95,1.95,0,0,0,1.582-.687,2.874,2.874,0,0,0,.574-1.9,2.638,2.638,0,0,0-.621-1.832,2.113,2.113,0,0,0-1.652-.691,2.383,2.383,0,0,0-1.484.414l-.383.313Z" transform="translate(-2925 -8849)" fill="#12263f"/>
    <path id="Trazado_226560" data-name="Trazado 226560" d="M8.078,12.148a6.61,6.61,0,0,1-.867,3.773A3.084,3.084,0,0,1,4.5,17.156a3.107,3.107,0,0,1-2.7-1.207A6.274,6.274,0,0,1,.9,12.344v-1.93a6.463,6.463,0,0,1,.867-3.727A3.108,3.108,0,0,1,4.484,5.469a3.136,3.136,0,0,1,2.7,1.176,6.237,6.237,0,0,1,.891,3.629ZM6.633,10.172A5.3,5.3,0,0,0,6.117,7.5a1.775,1.775,0,0,0-1.633-.84,1.751,1.751,0,0,0-1.617.836,5.171,5.171,0,0,0-.523,2.57v2.313A5.381,5.381,0,0,0,2.879,15.1a1.771,1.771,0,0,0,1.621.879,1.747,1.747,0,0,0,1.59-.828,5.186,5.186,0,0,0,.543-2.609Z" transform="translate(-3047 -8979)" fill="#12263f"/>
    <path id="Trazado_226536" data-name="Trazado 226536" d="M8.078,12.148a6.61,6.61,0,0,1-.867,3.773A3.084,3.084,0,0,1,4.5,17.156a3.107,3.107,0,0,1-2.7-1.207A6.274,6.274,0,0,1,.9,12.344v-1.93a6.463,6.463,0,0,1,.867-3.727A3.108,3.108,0,0,1,4.484,5.469a3.136,3.136,0,0,1,2.7,1.176,6.237,6.237,0,0,1,.891,3.629ZM6.633,10.172A5.3,5.3,0,0,0,6.117,7.5a1.775,1.775,0,0,0-1.633-.84,1.751,1.751,0,0,0-1.617.836,5.171,5.171,0,0,0-.523,2.57v2.313A5.381,5.381,0,0,0,2.879,15.1a1.771,1.771,0,0,0,1.621.879,1.747,1.747,0,0,0,1.59-.828,5.186,5.186,0,0,0,.543-2.609Z" transform="translate(-2714 -8979)" fill="#12263f"/>
    <path id="Trazado_226537" data-name="Trazado 226537" d="M8.078,12.148a6.61,6.61,0,0,1-.867,3.773A3.084,3.084,0,0,1,4.5,17.156a3.107,3.107,0,0,1-2.7-1.207A6.274,6.274,0,0,1,.9,12.344v-1.93a6.463,6.463,0,0,1,.867-3.727A3.108,3.108,0,0,1,4.484,5.469a3.136,3.136,0,0,1,2.7,1.176,6.237,6.237,0,0,1,.891,3.629ZM6.633,10.172A5.3,5.3,0,0,0,6.117,7.5a1.775,1.775,0,0,0-1.633-.84,1.751,1.751,0,0,0-1.617.836,5.171,5.171,0,0,0-.523,2.57v2.313A5.381,5.381,0,0,0,2.879,15.1a1.771,1.771,0,0,0,1.621.879,1.747,1.747,0,0,0,1.59-.828,5.186,5.186,0,0,0,.543-2.609Z" transform="translate(-2925 -8979)" fill="#12263f"/>
    <path id="Trazado_226613" data-name="Trazado 226613" d="M5.7,17H4.242V7.367L1.328,8.438V7.125L5.469,5.57H5.7Z" transform="translate(-3047 -8771)" fill="#12263f"/>
    <path id="Trazado_226614" data-name="Trazado 226614" d="M5.7,17H4.242V7.367L1.328,8.438V7.125L5.469,5.57H5.7Z" transform="translate(-2714 -8771)" fill="#12263f"/>
    <path id="Trazado_226615" data-name="Trazado 226615" d="M5.7,17H4.242V7.367L1.328,8.438V7.125L5.469,5.57H5.7Zm11.367-4.852a6.61,6.61,0,0,1-.867,3.773,3.084,3.084,0,0,1-2.711,1.234,3.107,3.107,0,0,1-2.7-1.207,6.274,6.274,0,0,1-.906-3.605v-1.93a6.463,6.463,0,0,1,.867-3.727,3.108,3.108,0,0,1,2.719-1.219,3.136,3.136,0,0,1,2.7,1.176,6.237,6.237,0,0,1,.891,3.629Zm-1.445-1.977A5.3,5.3,0,0,0,15.1,7.5a1.775,1.775,0,0,0-1.633-.84,1.751,1.751,0,0,0-1.617.836,5.171,5.171,0,0,0-.523,2.57v2.313a5.381,5.381,0,0,0,.535,2.723,1.771,1.771,0,0,0,1.621.879,1.747,1.747,0,0,0,1.59-.828,5.186,5.186,0,0,0,.543-2.609Z" transform="translate(-2925 -8771)" fill="#12263f"/>
    <path id="Trazado_226565" data-name="Trazado 226565" d="M5.7,17H4.242V7.367L1.328,8.438V7.125L5.469,5.57H5.7Z" transform="translate(-3047 -8875)" fill="#12263f"/>
    <path id="Trazado_226566" data-name="Trazado 226566" d="M8.078,12.148a6.61,6.61,0,0,1-.867,3.773A3.084,3.084,0,0,1,4.5,17.156a3.107,3.107,0,0,1-2.7-1.207A6.274,6.274,0,0,1,.9,12.344v-1.93a6.463,6.463,0,0,1,.867-3.727A3.108,3.108,0,0,1,4.484,5.469a3.136,3.136,0,0,1,2.7,1.176,6.237,6.237,0,0,1,.891,3.629ZM6.633,10.172A5.3,5.3,0,0,0,6.117,7.5a1.775,1.775,0,0,0-1.633-.84,1.751,1.751,0,0,0-1.617.836,5.171,5.171,0,0,0-.523,2.57v2.313A5.381,5.381,0,0,0,2.879,15.1a1.771,1.771,0,0,0,1.621.879,1.747,1.747,0,0,0,1.59-.828,5.186,5.186,0,0,0,.543-2.609Zm3.4,9.094-.82-.562a3.77,3.77,0,0,0,.766-2.109v-1.3h1.414v1.133A3.559,3.559,0,0,1,11,18,3.7,3.7,0,0,1,10.031,19.266Zm9.141-6.086H20.75v1.18H19.172V17H17.719V14.359h-5.18v-.852l5.094-7.883h1.539Zm-4.992,0h3.539V7.6l-.172.313Z" transform="translate(-2714 -8875)" fill="#12263f"/>
    <path id="Trazado_226567" data-name="Trazado 226567" d="M7.047,13.18H8.625v1.18H7.047V17H5.594V14.359H.414v-.852L5.508,5.625H7.047Zm-4.992,0H5.594V7.6l-.172.313Z" transform="translate(-2925 -8875)" fill="#12263f"/>
    <path id="Trazado_226561" data-name="Trazado 226561" d="M5.7,17H4.242V7.367L1.328,8.438V7.125L5.469,5.57H5.7Z" transform="translate(-3047 -8927)" fill="#12263f"/>
    <path id="Trazado_226544" data-name="Trazado 226544" d="M8.078,12.148a6.61,6.61,0,0,1-.867,3.773A3.084,3.084,0,0,1,4.5,17.156a3.107,3.107,0,0,1-2.7-1.207A6.274,6.274,0,0,1,.9,12.344v-1.93a6.463,6.463,0,0,1,.867-3.727A3.108,3.108,0,0,1,4.484,5.469a3.136,3.136,0,0,1,2.7,1.176,6.237,6.237,0,0,1,.891,3.629ZM6.633,10.172A5.3,5.3,0,0,0,6.117,7.5a1.775,1.775,0,0,0-1.633-.84,1.751,1.751,0,0,0-1.617.836,5.171,5.171,0,0,0-.523,2.57v2.313A5.381,5.381,0,0,0,2.879,15.1a1.771,1.771,0,0,0,1.621.879,1.747,1.747,0,0,0,1.59-.828,5.186,5.186,0,0,0,.543-2.609Zm3.4,9.094-.82-.562a3.77,3.77,0,0,0,.766-2.109v-1.3h1.414v1.133A3.559,3.559,0,0,1,11,18,3.7,3.7,0,0,1,10.031,19.266ZM17.82,17H16.367V7.367l-2.914,1.07V7.125L17.594,5.57h.227Z" transform="translate(-2714 -8927)" fill="#12263f"/>
    <path id="Trazado_226545" data-name="Trazado 226545" d="M5.7,17H4.242V7.367L1.328,8.438V7.125L5.469,5.57H5.7Z" transform="translate(-2925 -8927)" fill="#12263f"/>
    <path id="Trazado_226596" data-name="Trazado 226596" d="M8.4,17H.945V15.961l3.938-4.375A9.355,9.355,0,0,0,6.09,9.973a2.693,2.693,0,0,0,.332-1.285,2.041,2.041,0,0,0-.539-1.461,1.885,1.885,0,0,0-1.437-.57A2.232,2.232,0,0,0,2.77,7.27a2.343,2.343,0,0,0-.6,1.707H.727A3.355,3.355,0,0,1,1.738,6.438a3.751,3.751,0,0,1,2.707-.969A3.6,3.6,0,0,1,6.953,6.3a2.838,2.838,0,0,1,.922,2.215q0,1.68-2.141,4l-3.047,3.3H8.4Z" transform="translate(-3047 -8823)" fill="#12263f"/>
    <path id="Trazado_226597" data-name="Trazado 226597" d="M8.078,12.148a6.61,6.61,0,0,1-.867,3.773A3.084,3.084,0,0,1,4.5,17.156a3.107,3.107,0,0,1-2.7-1.207A6.274,6.274,0,0,1,.9,12.344v-1.93a6.463,6.463,0,0,1,.867-3.727A3.108,3.108,0,0,1,4.484,5.469a3.136,3.136,0,0,1,2.7,1.176,6.237,6.237,0,0,1,.891,3.629ZM6.633,10.172A5.3,5.3,0,0,0,6.117,7.5a1.775,1.775,0,0,0-1.633-.84,1.751,1.751,0,0,0-1.617.836,5.171,5.171,0,0,0-.523,2.57v2.313A5.381,5.381,0,0,0,2.879,15.1a1.771,1.771,0,0,0,1.621.879,1.747,1.747,0,0,0,1.59-.828,5.186,5.186,0,0,0,.543-2.609Zm3.4,9.094-.82-.562a3.77,3.77,0,0,0,.766-2.109v-1.3h1.414v1.133A3.559,3.559,0,0,1,11,18,3.7,3.7,0,0,1,10.031,19.266ZM20.414,6.438,15.7,17H14.188l4.7-10.187H12.727V5.625h7.688Z" transform="translate(-2714 -8823)" fill="#12263f"/>
    <path id="Trazado_226598" data-name="Trazado 226598" d="M8.289,6.438,3.578,17H2.063l4.7-10.187H.6V5.625H8.289Z" transform="translate(-2925 -8823)" fill="#12263f"/>
    <path id="Trazado_226556" data-name="Trazado 226556" d="M29.3,12.352H24.8V17H22.457V5.625h7.406v1.9H24.8v2.938h4.5Zm6.32-1.687a6.134,6.134,0,0,0-.812-.062,1.654,1.654,0,0,0-1.68.867V17H30.871V8.547H33l.063,1.008a2.092,2.092,0,0,1,1.883-1.164,2.366,2.366,0,0,1,.7.1ZM40.6,17.156a4.15,4.15,0,0,1-3.027-1.141A4.054,4.054,0,0,1,36.4,12.977v-.219a5.106,5.106,0,0,1,.492-2.277,3.612,3.612,0,0,1,1.395-1.547,3.914,3.914,0,0,1,2.059-.543,3.508,3.508,0,0,1,2.73,1.094,4.444,4.444,0,0,1,1,3.1v.922H38.691a2.1,2.1,0,0,0,.66,1.328,2,2,0,0,0,1.395.5,2.437,2.437,0,0,0,2.039-.945l1.109,1.242a3.389,3.389,0,0,1-1.375,1.121A4.511,4.511,0,0,1,40.6,17.156Zm-.258-6.945a1.411,1.411,0,0,0-1.09.455,2.357,2.357,0,0,0-.535,1.3h3.141v-.181a1.681,1.681,0,0,0-.406-1.165A1.456,1.456,0,0,0,40.34,10.211Zm8.531,5.125a1.481,1.481,0,0,0,1.016-.344,1.2,1.2,0,0,0,.406-.914H52.41a2.9,2.9,0,0,1-.469,1.574,3.093,3.093,0,0,1-1.262,1.109,3.949,3.949,0,0,1-1.77.395A3.67,3.67,0,0,1,46.051,16,4.56,4.56,0,0,1,45,12.82v-.148a4.508,4.508,0,0,1,1.039-3.117,3.627,3.627,0,0,1,2.852-1.164,3.555,3.555,0,0,1,2.543.9,3.2,3.2,0,0,1,.973,2.4H50.293a1.551,1.551,0,0,0-.406-1.072,1.51,1.51,0,0,0-2.223.163,3.333,3.333,0,0,0-.4,1.866v.235a3.375,3.375,0,0,0,.4,1.878A1.377,1.377,0,0,0,48.871,15.336Zm9.891.8a2.831,2.831,0,0,1-2.312,1.016,2.67,2.67,0,0,1-2.074-.781,3.335,3.335,0,0,1-.73-2.289V8.547H55.9v5.467q0,1.322,1.2,1.322a1.63,1.63,0,0,0,1.578-.8V8.547h2.266V17H58.824Zm7.781,1.016a4.15,4.15,0,0,1-3.027-1.141,4.054,4.054,0,0,1-1.168-3.039v-.219a5.106,5.106,0,0,1,.492-2.277,3.612,3.612,0,0,1,1.395-1.547,3.914,3.914,0,0,1,2.059-.543,3.508,3.508,0,0,1,2.73,1.094,4.444,4.444,0,0,1,1,3.1v.922H64.637a2.1,2.1,0,0,0,.66,1.328,2,2,0,0,0,1.395.5,2.437,2.437,0,0,0,2.039-.945l1.109,1.242a3.389,3.389,0,0,1-1.375,1.121A4.511,4.511,0,0,1,66.543,17.156Zm-.258-6.945a1.411,1.411,0,0,0-1.09.455,2.357,2.357,0,0,0-.535,1.3H67.8v-.181a1.681,1.681,0,0,0-.406-1.165A1.456,1.456,0,0,0,66.285,10.211Zm7.094-1.664.07.977a2.951,2.951,0,0,1,2.43-1.133,2.453,2.453,0,0,1,2,.789,3.682,3.682,0,0,1,.672,2.359V17H76.293V11.594a1.465,1.465,0,0,0-.312-1.043,1.4,1.4,0,0,0-1.039-.324,1.553,1.553,0,0,0-1.43.813V17H71.254V8.547Zm10.4,6.789a1.481,1.481,0,0,0,1.016-.344,1.2,1.2,0,0,0,.406-.914h2.117a2.9,2.9,0,0,1-.469,1.574,3.093,3.093,0,0,1-1.262,1.109,3.949,3.949,0,0,1-1.77.395A3.67,3.67,0,0,1,80.957,16,4.56,4.56,0,0,1,79.91,12.82v-.148a4.508,4.508,0,0,1,1.039-3.117A3.627,3.627,0,0,1,83.8,8.391a3.555,3.555,0,0,1,2.543.9,3.2,3.2,0,0,1,.973,2.4H85.2a1.551,1.551,0,0,0-.406-1.072,1.51,1.51,0,0,0-2.223.163,3.333,3.333,0,0,0-.4,1.866v.235a3.375,3.375,0,0,0,.4,1.878A1.377,1.377,0,0,0,83.777,15.336ZM90.988,17H88.723V8.547h2.266ZM88.59,6.359a1.112,1.112,0,0,1,.34-.836,1.465,1.465,0,0,1,1.848,0,1.105,1.105,0,0,1,.344.836,1.108,1.108,0,0,1-.348.844,1.448,1.448,0,0,1-1.836,0A1.108,1.108,0,0,1,88.59,6.359ZM97.746,17a2.507,2.507,0,0,1-.227-.758,2.732,2.732,0,0,1-2.133.914,3,3,0,0,1-2.059-.719,2.312,2.312,0,0,1-.816-1.812,2.389,2.389,0,0,1,1-2.062,4.915,4.915,0,0,1,2.879-.727h1.039v-.484a1.393,1.393,0,0,0-.3-.937,1.183,1.183,0,0,0-.949-.352,1.345,1.345,0,0,0-.895.273.929.929,0,0,0-.324.75H92.7a2.268,2.268,0,0,1,.453-1.359,3,3,0,0,1,1.281-.98,4.669,4.669,0,0,1,1.859-.355,3.689,3.689,0,0,1,2.48.785,2.747,2.747,0,0,1,.918,2.207v3.664a4.041,4.041,0,0,0,.336,1.82V17Zm-1.867-1.57a1.945,1.945,0,0,0,.922-.223,1.462,1.462,0,0,0,.625-.6V13.156h-.844q-1.7,0-1.8,1.172l-.008.133a.9.9,0,0,0,.3.7A1.153,1.153,0,0,0,95.879,15.43ZM35.746,41a2.507,2.507,0,0,1-.227-.758,2.732,2.732,0,0,1-2.133.914,3,3,0,0,1-2.059-.719,2.312,2.312,0,0,1-.816-1.812,2.389,2.389,0,0,1,1-2.062,4.915,4.915,0,0,1,2.879-.727h1.039v-.484a1.393,1.393,0,0,0-.3-.937,1.183,1.183,0,0,0-.949-.352,1.345,1.345,0,0,0-.895.273.929.929,0,0,0-.324.75H30.7a2.268,2.268,0,0,1,.453-1.359,3,3,0,0,1,1.281-.98,4.669,4.669,0,0,1,1.859-.355,3.689,3.689,0,0,1,2.48.785,2.747,2.747,0,0,1,.918,2.207v3.664a4.041,4.041,0,0,0,.336,1.82V41Zm-1.867-1.57a1.945,1.945,0,0,0,.922-.223,1.462,1.462,0,0,0,.625-.6V37.156h-.844q-1.7,0-1.8,1.172l-.008.133a.9.9,0,0,0,.3.7A1.153,1.153,0,0,0,33.879,39.43Zm13.164-2.578a5.119,5.119,0,0,1-.867,3.168,2.872,2.872,0,0,1-2.422,1.137,2.639,2.639,0,0,1-2.2-1.055l-.1.9H39.426V29h2.258v4.3a2.571,2.571,0,0,1,2.055-.914,2.9,2.9,0,0,1,2.426,1.137,5.126,5.126,0,0,1,.879,3.2Zm-2.258-.164a3.363,3.363,0,0,0-.406-1.871,1.374,1.374,0,0,0-1.211-.59,1.489,1.489,0,0,0-1.484.883v3.336a1.509,1.509,0,0,0,1.5.891,1.394,1.394,0,0,0,1.438-1.078A5.562,5.562,0,0,0,44.785,36.688Zm8.227,1.977a.727.727,0,0,0-.41-.652,4.659,4.659,0,0,0-1.316-.426q-3.016-.633-3.016-2.562a2.323,2.323,0,0,1,.934-1.879,3.766,3.766,0,0,1,2.441-.754,4.053,4.053,0,0,1,2.574.758,2.388,2.388,0,0,1,.965,1.969H52.926a1.092,1.092,0,0,0-.312-.8A1.322,1.322,0,0,0,51.637,34a1.351,1.351,0,0,0-.883.258.814.814,0,0,0-.312.656.7.7,0,0,0,.355.605,3.657,3.657,0,0,0,1.2.4,9.8,9.8,0,0,1,1.422.379,2.336,2.336,0,0,1,1.789,2.273,2.205,2.205,0,0,1-.992,1.871,4.28,4.28,0,0,1-2.562.715,4.47,4.47,0,0,1-1.887-.379,3.166,3.166,0,0,1-1.293-1.039A2.414,2.414,0,0,1,48,38.313h2.141a1.179,1.179,0,0,0,.445.922,1.766,1.766,0,0,0,1.109.32,1.635,1.635,0,0,0,.98-.246A.766.766,0,0,0,53.012,38.664Zm3.3-1.969a5.013,5.013,0,0,1,.484-2.242,3.546,3.546,0,0,1,1.395-1.523,4.069,4.069,0,0,1,2.113-.539,3.849,3.849,0,0,1,2.793,1.047A4.2,4.2,0,0,1,64.3,36.281l.016.578A4.418,4.418,0,0,1,63.23,39.98a4.209,4.209,0,0,1-5.832,0,4.5,4.5,0,0,1-1.09-3.187Zm2.258.16A3.16,3.16,0,0,0,59.02,38.7a1.628,1.628,0,0,0,2.578.008,3.457,3.457,0,0,0,.461-2.015A3.128,3.128,0,0,0,61.6,34.86a1.5,1.5,0,0,0-1.3-.649,1.474,1.474,0,0,0-1.281.646A3.516,3.516,0,0,0,58.566,36.856ZM68.09,41H65.824V29H68.09Zm6.922-.859A2.831,2.831,0,0,1,72.7,41.156a2.67,2.67,0,0,1-2.074-.781,3.335,3.335,0,0,1-.73-2.289V32.547h2.258v5.467q0,1.322,1.2,1.322a1.63,1.63,0,0,0,1.578-.8V32.547H77.2V41H75.074Zm6.594-9.672v2.078h1.445V34.2H81.605v4.219a1.007,1.007,0,0,0,.18.672.9.9,0,0,0,.688.2,3.6,3.6,0,0,0,.664-.055v1.711a4.648,4.648,0,0,1-1.367.2,2.156,2.156,0,0,1-2.422-2.4V34.2H78.113V32.547h1.234V30.469ZM89.207,41a2.507,2.507,0,0,1-.227-.758,2.732,2.732,0,0,1-2.133.914,3,3,0,0,1-2.059-.719,2.312,2.312,0,0,1-.816-1.812,2.389,2.389,0,0,1,1-2.062,4.915,4.915,0,0,1,2.879-.727h1.039v-.484a1.393,1.393,0,0,0-.3-.937,1.183,1.183,0,0,0-.949-.352,1.345,1.345,0,0,0-.895.273.929.929,0,0,0-.324.75H84.16a2.268,2.268,0,0,1,.453-1.359,3,3,0,0,1,1.281-.98,4.669,4.669,0,0,1,1.859-.355,3.689,3.689,0,0,1,2.48.785,2.747,2.747,0,0,1,.918,2.207v3.664a4.041,4.041,0,0,0,.336,1.82V41ZM87.34,39.43a1.945,1.945,0,0,0,.922-.223,1.462,1.462,0,0,0,.625-.6V37.156h-.844q-1.7,0-1.8,1.172l-.008.133a.9.9,0,0,0,.3.7A1.153,1.153,0,0,0,87.34,39.43Z" transform="translate(-3057 -9057)" fill="#fef536"/>
    <path id="Trazado_226527" data-name="Trazado 226527" d="M45.8,12.352H41.3V17H38.957V5.625h7.406v1.9H41.3v2.938h4.5Zm6.32-1.687a6.134,6.134,0,0,0-.812-.062,1.654,1.654,0,0,0-1.68.867V17H47.371V8.547H49.5l.063,1.008a2.092,2.092,0,0,1,1.883-1.164,2.366,2.366,0,0,1,.7.1ZM57.1,17.156a4.15,4.15,0,0,1-3.027-1.141A4.054,4.054,0,0,1,52.9,12.977v-.219a5.106,5.106,0,0,1,.492-2.277,3.612,3.612,0,0,1,1.395-1.547,3.914,3.914,0,0,1,2.059-.543,3.508,3.508,0,0,1,2.73,1.094,4.444,4.444,0,0,1,1,3.1v.922H55.191a2.1,2.1,0,0,0,.66,1.328,2,2,0,0,0,1.395.5,2.437,2.437,0,0,0,2.039-.945l1.109,1.242a3.389,3.389,0,0,1-1.375,1.121A4.511,4.511,0,0,1,57.1,17.156Zm-.258-6.945a1.411,1.411,0,0,0-1.09.455,2.357,2.357,0,0,0-.535,1.3h3.141v-.181a1.681,1.681,0,0,0-.406-1.165A1.456,1.456,0,0,0,56.84,10.211Zm8.531,5.125a1.481,1.481,0,0,0,1.016-.344,1.2,1.2,0,0,0,.406-.914H68.91a2.9,2.9,0,0,1-.469,1.574,3.093,3.093,0,0,1-1.262,1.109,3.949,3.949,0,0,1-1.77.395A3.67,3.67,0,0,1,62.551,16,4.56,4.56,0,0,1,61.5,12.82v-.148a4.508,4.508,0,0,1,1.039-3.117,3.627,3.627,0,0,1,2.852-1.164,3.555,3.555,0,0,1,2.543.9,3.2,3.2,0,0,1,.973,2.4H66.793a1.551,1.551,0,0,0-.406-1.072,1.51,1.51,0,0,0-2.223.163,3.333,3.333,0,0,0-.4,1.866v.235a3.375,3.375,0,0,0,.4,1.878A1.377,1.377,0,0,0,65.371,15.336Zm9.891.8a2.831,2.831,0,0,1-2.312,1.016,2.67,2.67,0,0,1-2.074-.781,3.335,3.335,0,0,1-.73-2.289V8.547H72.4v5.467q0,1.322,1.2,1.322a1.63,1.63,0,0,0,1.578-.8V8.547h2.266V17H75.324Zm7.781,1.016a4.15,4.15,0,0,1-3.027-1.141,4.054,4.054,0,0,1-1.168-3.039v-.219a5.106,5.106,0,0,1,.492-2.277,3.612,3.612,0,0,1,1.395-1.547,3.914,3.914,0,0,1,2.059-.543,3.508,3.508,0,0,1,2.73,1.094,4.444,4.444,0,0,1,1,3.1v.922H81.137a2.1,2.1,0,0,0,.66,1.328,2,2,0,0,0,1.395.5,2.437,2.437,0,0,0,2.039-.945l1.109,1.242a3.389,3.389,0,0,1-1.375,1.121A4.511,4.511,0,0,1,83.043,17.156Zm-.258-6.945a1.411,1.411,0,0,0-1.09.455,2.357,2.357,0,0,0-.535,1.3H84.3v-.181a1.681,1.681,0,0,0-.406-1.165A1.456,1.456,0,0,0,82.785,10.211Zm7.094-1.664.07.977a2.951,2.951,0,0,1,2.43-1.133,2.453,2.453,0,0,1,2,.789,3.682,3.682,0,0,1,.672,2.359V17H92.793V11.594a1.465,1.465,0,0,0-.312-1.043,1.4,1.4,0,0,0-1.039-.324,1.553,1.553,0,0,0-1.43.813V17H87.754V8.547Zm10.4,6.789a1.481,1.481,0,0,0,1.016-.344,1.2,1.2,0,0,0,.406-.914h2.117a2.9,2.9,0,0,1-.469,1.574,3.093,3.093,0,0,1-1.262,1.109,3.949,3.949,0,0,1-1.77.395A3.67,3.67,0,0,1,97.457,16,4.56,4.56,0,0,1,96.41,12.82v-.148a4.508,4.508,0,0,1,1.039-3.117A3.627,3.627,0,0,1,100.3,8.391a3.555,3.555,0,0,1,2.543.9,3.2,3.2,0,0,1,.973,2.4H101.7a1.551,1.551,0,0,0-.406-1.072,1.51,1.51,0,0,0-2.223.163,3.333,3.333,0,0,0-.4,1.866v.235a3.375,3.375,0,0,0,.4,1.878A1.377,1.377,0,0,0,100.277,15.336ZM107.488,17h-2.266V8.547h2.266Zm-2.4-10.641a1.112,1.112,0,0,1,.34-.836,1.465,1.465,0,0,1,1.848,0,1.105,1.105,0,0,1,.344.836,1.108,1.108,0,0,1-.348.844,1.448,1.448,0,0,1-1.836,0A1.108,1.108,0,0,1,105.09,6.359ZM114.246,17a2.507,2.507,0,0,1-.227-.758,2.732,2.732,0,0,1-2.133.914,3,3,0,0,1-2.059-.719,2.312,2.312,0,0,1-.816-1.812,2.389,2.389,0,0,1,1-2.062,4.915,4.915,0,0,1,2.879-.727h1.039v-.484a1.393,1.393,0,0,0-.3-.937,1.183,1.183,0,0,0-.949-.352,1.345,1.345,0,0,0-.895.273.929.929,0,0,0-.324.75H109.2a2.268,2.268,0,0,1,.453-1.359,3,3,0,0,1,1.281-.98,4.669,4.669,0,0,1,1.859-.355,3.689,3.689,0,0,1,2.48.785,2.747,2.747,0,0,1,.918,2.207v3.664a4.041,4.041,0,0,0,.336,1.82V17Zm-1.867-1.57a1.945,1.945,0,0,0,.922-.223,1.462,1.462,0,0,0,.625-.6V13.156h-.844q-1.7,0-1.8,1.172l-.008.133a.9.9,0,0,0,.3.7A1.153,1.153,0,0,0,112.379,15.43ZM56.367,34.664a6.134,6.134,0,0,0-.812-.062,1.654,1.654,0,0,0-1.68.867V41H51.617V32.547H53.75l.063,1.008A2.092,2.092,0,0,1,55.7,32.391a2.366,2.366,0,0,1,.7.1Zm4.977,6.492a4.15,4.15,0,0,1-3.027-1.141,4.054,4.054,0,0,1-1.168-3.039v-.219a5.106,5.106,0,0,1,.492-2.277,3.612,3.612,0,0,1,1.395-1.547,3.914,3.914,0,0,1,2.059-.543,3.508,3.508,0,0,1,2.73,1.094,4.444,4.444,0,0,1,1,3.1v.922H59.438a2.1,2.1,0,0,0,.66,1.328,2,2,0,0,0,1.395.5,2.437,2.437,0,0,0,2.039-.945l1.109,1.242a3.389,3.389,0,0,1-1.375,1.121A4.511,4.511,0,0,1,61.344,41.156Zm-.258-6.945a1.411,1.411,0,0,0-1.09.455,2.357,2.357,0,0,0-.535,1.3H62.6v-.181a1.681,1.681,0,0,0-.406-1.165A1.456,1.456,0,0,0,61.086,34.211ZM68.484,41H66.219V29h2.266Zm6.758,0a2.507,2.507,0,0,1-.227-.758,2.732,2.732,0,0,1-2.133.914,3,3,0,0,1-2.059-.719,2.312,2.312,0,0,1-.816-1.812,2.389,2.389,0,0,1,1-2.062,4.915,4.915,0,0,1,2.879-.727h1.039v-.484a1.393,1.393,0,0,0-.3-.937,1.183,1.183,0,0,0-.949-.352,1.345,1.345,0,0,0-.895.273.929.929,0,0,0-.324.75H70.2a2.268,2.268,0,0,1,.453-1.359,3,3,0,0,1,1.281-.98,4.669,4.669,0,0,1,1.859-.355,3.689,3.689,0,0,1,2.48.785,2.747,2.747,0,0,1,.918,2.207v3.664a4.041,4.041,0,0,0,.336,1.82V41Zm-1.867-1.57a1.945,1.945,0,0,0,.922-.223,1.462,1.462,0,0,0,.625-.6V37.156h-.844q-1.7,0-1.8,1.172l-.008.133a.9.9,0,0,0,.3.7A1.153,1.153,0,0,0,73.375,39.43Zm8.25-8.961v2.078H83.07V34.2H81.625v4.219a1.007,1.007,0,0,0,.18.672.9.9,0,0,0,.688.2,3.6,3.6,0,0,0,.664-.055v1.711a4.648,4.648,0,0,1-1.367.2,2.156,2.156,0,0,1-2.422-2.4V34.2H78.133V32.547h1.234V30.469ZM86.711,41H84.445V32.547h2.266Zm-2.4-10.641a1.112,1.112,0,0,1,.34-.836,1.465,1.465,0,0,1,1.848,0,1.193,1.193,0,0,1,0,1.68,1.448,1.448,0,0,1-1.836,0A1.108,1.108,0,0,1,84.313,30.359Zm7.422,7.883,1.57-5.7h2.359L92.813,41H90.656L87.8,32.547h2.359Zm9.7,2.758a2.507,2.507,0,0,1-.227-.758,2.732,2.732,0,0,1-2.133.914,3,3,0,0,1-2.059-.719,2.312,2.312,0,0,1-.816-1.812,2.389,2.389,0,0,1,1-2.062,4.915,4.915,0,0,1,2.879-.727h1.039v-.484a1.393,1.393,0,0,0-.3-.937,1.183,1.183,0,0,0-.949-.352,1.345,1.345,0,0,0-.895.273.929.929,0,0,0-.324.75H96.391a2.268,2.268,0,0,1,.453-1.359,3,3,0,0,1,1.281-.98,4.669,4.669,0,0,1,1.859-.355,3.689,3.689,0,0,1,2.48.785,2.747,2.747,0,0,1,.918,2.207v3.664a4.041,4.041,0,0,0,.336,1.82V41ZM99.57,39.43a1.945,1.945,0,0,0,.922-.223,1.462,1.462,0,0,0,.625-.6V37.156h-.844q-1.7,0-1.8,1.172l-.008.133a.9.9,0,0,0,.3.7A1.153,1.153,0,0,0,99.57,39.43Z" transform="translate(-2724 -9057)" fill="#fef536"/>
    <path id="Trazado_226533" data-name="Trazado 226533" d="M40.289,12.352h-4.5V17H33.445V5.625h7.406v1.9H35.789v2.938h4.5Zm6.32-1.687A6.134,6.134,0,0,0,45.8,10.6a1.654,1.654,0,0,0-1.68.867V17H41.859V8.547h2.133l.063,1.008a2.092,2.092,0,0,1,1.883-1.164,2.366,2.366,0,0,1,.7.1Zm4.977,6.492a4.15,4.15,0,0,1-3.027-1.141,4.054,4.054,0,0,1-1.168-3.039v-.219a5.106,5.106,0,0,1,.492-2.277,3.612,3.612,0,0,1,1.395-1.547,3.914,3.914,0,0,1,2.059-.543,3.508,3.508,0,0,1,2.73,1.094,4.444,4.444,0,0,1,1,3.1v.922H49.68a2.1,2.1,0,0,0,.66,1.328,2,2,0,0,0,1.395.5,2.437,2.437,0,0,0,2.039-.945l1.109,1.242a3.389,3.389,0,0,1-1.375,1.121A4.511,4.511,0,0,1,51.586,17.156Zm-.258-6.945a1.411,1.411,0,0,0-1.09.455,2.357,2.357,0,0,0-.535,1.3h3.141v-.181a1.681,1.681,0,0,0-.406-1.165A1.456,1.456,0,0,0,51.328,10.211Zm8.531,5.125a1.481,1.481,0,0,0,1.016-.344,1.2,1.2,0,0,0,.406-.914H63.4a2.9,2.9,0,0,1-.469,1.574,3.093,3.093,0,0,1-1.262,1.109,3.949,3.949,0,0,1-1.77.395A3.67,3.67,0,0,1,57.039,16a4.56,4.56,0,0,1-1.047-3.184v-.148a4.508,4.508,0,0,1,1.039-3.117,3.627,3.627,0,0,1,2.852-1.164,3.555,3.555,0,0,1,2.543.9,3.2,3.2,0,0,1,.973,2.4H61.281a1.551,1.551,0,0,0-.406-1.072,1.51,1.51,0,0,0-2.223.163,3.333,3.333,0,0,0-.4,1.866v.235a3.375,3.375,0,0,0,.4,1.878A1.377,1.377,0,0,0,59.859,15.336Zm9.891.8a2.831,2.831,0,0,1-2.312,1.016,2.67,2.67,0,0,1-2.074-.781,3.335,3.335,0,0,1-.73-2.289V8.547h2.258v5.467q0,1.322,1.2,1.322a1.63,1.63,0,0,0,1.578-.8V8.547h2.266V17H69.813Zm7.781,1.016A4.15,4.15,0,0,1,74.5,16.016a4.054,4.054,0,0,1-1.168-3.039v-.219a5.106,5.106,0,0,1,.492-2.277,3.612,3.612,0,0,1,1.395-1.547,3.914,3.914,0,0,1,2.059-.543,3.508,3.508,0,0,1,2.73,1.094,4.444,4.444,0,0,1,1,3.1v.922H75.625a2.1,2.1,0,0,0,.66,1.328,2,2,0,0,0,1.395.5,2.437,2.437,0,0,0,2.039-.945l1.109,1.242a3.389,3.389,0,0,1-1.375,1.121A4.511,4.511,0,0,1,77.531,17.156Zm-.258-6.945a1.411,1.411,0,0,0-1.09.455,2.357,2.357,0,0,0-.535,1.3h3.141v-.181a1.681,1.681,0,0,0-.406-1.165A1.456,1.456,0,0,0,77.273,10.211Zm7.094-1.664.07.977a2.951,2.951,0,0,1,2.43-1.133,2.453,2.453,0,0,1,2,.789,3.682,3.682,0,0,1,.672,2.359V17H87.281V11.594a1.465,1.465,0,0,0-.312-1.043,1.4,1.4,0,0,0-1.039-.324,1.553,1.553,0,0,0-1.43.813V17H82.242V8.547Zm10.4,6.789a1.481,1.481,0,0,0,1.016-.344,1.2,1.2,0,0,0,.406-.914H98.3a2.9,2.9,0,0,1-.469,1.574,3.093,3.093,0,0,1-1.262,1.109,3.949,3.949,0,0,1-1.77.395A3.67,3.67,0,0,1,91.945,16,4.56,4.56,0,0,1,90.9,12.82v-.148a4.508,4.508,0,0,1,1.039-3.117,3.627,3.627,0,0,1,2.852-1.164,3.555,3.555,0,0,1,2.543.9,3.2,3.2,0,0,1,.973,2.4H96.188a1.551,1.551,0,0,0-.406-1.072,1.51,1.51,0,0,0-2.223.163,3.333,3.333,0,0,0-.4,1.866v.235a3.375,3.375,0,0,0,.4,1.878A1.377,1.377,0,0,0,94.766,15.336ZM101.977,17H99.711V8.547h2.266Zm-2.4-10.641a1.112,1.112,0,0,1,.34-.836,1.465,1.465,0,0,1,1.848,0,1.105,1.105,0,0,1,.344.836,1.108,1.108,0,0,1-.348.844,1.448,1.448,0,0,1-1.836,0A1.108,1.108,0,0,1,99.578,6.359ZM108.734,17a2.507,2.507,0,0,1-.227-.758,2.732,2.732,0,0,1-2.133.914,3,3,0,0,1-2.059-.719,2.312,2.312,0,0,1-.816-1.812,2.389,2.389,0,0,1,1-2.062,4.915,4.915,0,0,1,2.879-.727h1.039v-.484a1.393,1.393,0,0,0-.3-.937,1.183,1.183,0,0,0-.949-.352,1.345,1.345,0,0,0-.895.273.929.929,0,0,0-.324.75h-2.258a2.268,2.268,0,0,1,.453-1.359,3,3,0,0,1,1.281-.98,4.669,4.669,0,0,1,1.859-.355,3.689,3.689,0,0,1,2.48.785,2.747,2.747,0,0,1,.918,2.207v3.664a4.041,4.041,0,0,0,.336,1.82V17Zm-1.867-1.57a1.945,1.945,0,0,0,.922-.223,1.462,1.462,0,0,0,.625-.6V13.156h-.844q-1.7,0-1.8,1.172l-.008.133a.9.9,0,0,0,.3.7A1.153,1.153,0,0,0,106.867,15.43ZM121.3,17a2.507,2.507,0,0,1-.227-.758,2.732,2.732,0,0,1-2.133.914,3,3,0,0,1-2.059-.719,2.312,2.312,0,0,1-.816-1.812,2.389,2.389,0,0,1,1-2.062,4.915,4.915,0,0,1,2.879-.727h1.039v-.484a1.393,1.393,0,0,0-.3-.937,1.183,1.183,0,0,0-.949-.352,1.345,1.345,0,0,0-.895.273.929.929,0,0,0-.324.75H116.25a2.268,2.268,0,0,1,.453-1.359,3,3,0,0,1,1.281-.98,4.669,4.669,0,0,1,1.859-.355,3.689,3.689,0,0,1,2.48.785,2.747,2.747,0,0,1,.918,2.207v3.664a4.041,4.041,0,0,0,.336,1.82V17Zm-1.867-1.57a1.945,1.945,0,0,0,.922-.223,1.462,1.462,0,0,0,.625-.6V13.156h-.844q-1.7,0-1.8,1.172l-.008.133a.9.9,0,0,0,.3.7A1.153,1.153,0,0,0,119.43,15.43Zm13.164-2.578a5.119,5.119,0,0,1-.867,3.168,2.872,2.872,0,0,1-2.422,1.137,2.639,2.639,0,0,1-2.2-1.055l-.1.9h-2.031V5h2.258V9.3a2.571,2.571,0,0,1,2.055-.914,2.9,2.9,0,0,1,2.426,1.137,5.126,5.126,0,0,1,.879,3.2Zm-2.258-.164a3.363,3.363,0,0,0-.406-1.871,1.374,1.374,0,0,0-1.211-.59,1.489,1.489,0,0,0-1.484.883v3.336a1.509,1.509,0,0,0,1.5.891,1.394,1.394,0,0,0,1.438-1.078A5.562,5.562,0,0,0,130.336,12.688Zm8.227,1.977a.727.727,0,0,0-.41-.652,4.659,4.659,0,0,0-1.316-.426q-3.016-.633-3.016-2.562a2.323,2.323,0,0,1,.934-1.879,3.766,3.766,0,0,1,2.441-.754,4.053,4.053,0,0,1,2.574.758,2.388,2.388,0,0,1,.965,1.969h-2.258a1.092,1.092,0,0,0-.312-.8,1.322,1.322,0,0,0-.977-.316,1.351,1.351,0,0,0-.883.258.814.814,0,0,0-.312.656.7.7,0,0,0,.355.605,3.657,3.657,0,0,0,1.2.4,9.8,9.8,0,0,1,1.422.379,2.336,2.336,0,0,1,1.789,2.273,2.205,2.205,0,0,1-.992,1.871,4.28,4.28,0,0,1-2.562.715,4.47,4.47,0,0,1-1.887-.379,3.166,3.166,0,0,1-1.293-1.039,2.414,2.414,0,0,1-.469-1.426H135.7a1.179,1.179,0,0,0,.445.922,1.766,1.766,0,0,0,1.109.32,1.635,1.635,0,0,0,.98-.246A.766.766,0,0,0,138.563,14.664Zm3.3-1.969a5.013,5.013,0,0,1,.484-2.242,3.546,3.546,0,0,1,1.395-1.523,4.069,4.069,0,0,1,2.113-.539,3.849,3.849,0,0,1,2.793,1.047,4.2,4.2,0,0,1,1.207,2.844l.016.578a4.418,4.418,0,0,1-1.086,3.121,4.209,4.209,0,0,1-5.832,0,4.5,4.5,0,0,1-1.09-3.187Zm2.258.16a3.16,3.16,0,0,0,.453,1.843,1.628,1.628,0,0,0,2.578.008,3.457,3.457,0,0,0,.461-2.015,3.128,3.128,0,0,0-.461-1.831,1.5,1.5,0,0,0-1.3-.649,1.474,1.474,0,0,0-1.281.646A3.516,3.516,0,0,0,144.117,12.856ZM153.641,17h-2.266V5h2.266Zm6.922-.859a2.831,2.831,0,0,1-2.312,1.016,2.67,2.67,0,0,1-2.074-.781,3.335,3.335,0,0,1-.73-2.289V8.547H157.7v5.467q0,1.322,1.2,1.322a1.63,1.63,0,0,0,1.578-.8V8.547h2.266V17h-2.125Zm6.594-9.672V8.547H168.6V10.2h-1.445v4.219a1.007,1.007,0,0,0,.18.672.9.9,0,0,0,.688.2,3.6,3.6,0,0,0,.664-.055v1.711a4.648,4.648,0,0,1-1.367.2,2.156,2.156,0,0,1-2.422-2.4V10.2h-1.234V8.547H164.9V6.469ZM174.758,17a2.507,2.507,0,0,1-.227-.758,2.732,2.732,0,0,1-2.133.914,3,3,0,0,1-2.059-.719,2.312,2.312,0,0,1-.816-1.812,2.389,2.389,0,0,1,1-2.062,4.915,4.915,0,0,1,2.879-.727h1.039v-.484a1.393,1.393,0,0,0-.3-.937,1.183,1.183,0,0,0-.949-.352,1.345,1.345,0,0,0-.895.273.929.929,0,0,0-.324.75h-2.258a2.268,2.268,0,0,1,.453-1.359,3,3,0,0,1,1.281-.98,4.669,4.669,0,0,1,1.859-.355,3.689,3.689,0,0,1,2.48.785,2.747,2.747,0,0,1,.918,2.207v3.664a4.041,4.041,0,0,0,.336,1.82V17Zm-1.867-1.57a1.945,1.945,0,0,0,.922-.223,1.462,1.462,0,0,0,.625-.6V13.156h-.844q-1.7,0-1.8,1.172l-.008.133a.9.9,0,0,0,.3.7A1.153,1.153,0,0,0,172.891,15.43ZM71.219,41a2.507,2.507,0,0,1-.227-.758,2.732,2.732,0,0,1-2.133.914,3,3,0,0,1-2.059-.719,2.312,2.312,0,0,1-.816-1.812,2.389,2.389,0,0,1,1-2.062,4.915,4.915,0,0,1,2.879-.727H70.9v-.484a1.393,1.393,0,0,0-.3-.937,1.183,1.183,0,0,0-.949-.352,1.345,1.345,0,0,0-.895.273.929.929,0,0,0-.324.75H66.172a2.268,2.268,0,0,1,.453-1.359,3,3,0,0,1,1.281-.98,4.669,4.669,0,0,1,1.859-.355,3.689,3.689,0,0,1,2.48.785,2.747,2.747,0,0,1,.918,2.207v3.664a4.041,4.041,0,0,0,.336,1.82V41Zm-1.867-1.57a1.945,1.945,0,0,0,.922-.223,1.462,1.462,0,0,0,.625-.6V37.156h-.844q-1.7,0-1.8,1.172l-.008.133a.9.9,0,0,0,.3.7A1.153,1.153,0,0,0,69.352,39.43Zm9.063-.094a1.481,1.481,0,0,0,1.016-.344,1.2,1.2,0,0,0,.406-.914h2.117a2.9,2.9,0,0,1-.469,1.574,3.093,3.093,0,0,1-1.262,1.109,3.949,3.949,0,0,1-1.77.395A3.67,3.67,0,0,1,75.594,40a4.56,4.56,0,0,1-1.047-3.184v-.148a4.508,4.508,0,0,1,1.039-3.117,3.627,3.627,0,0,1,2.852-1.164,3.555,3.555,0,0,1,2.543.9,3.2,3.2,0,0,1,.973,2.4H79.836a1.551,1.551,0,0,0-.406-1.072,1.51,1.51,0,0,0-2.223.163,3.333,3.333,0,0,0-.4,1.866v.235a3.375,3.375,0,0,0,.4,1.878A1.377,1.377,0,0,0,78.414,39.336Zm9.891.8a2.831,2.831,0,0,1-2.312,1.016,2.67,2.67,0,0,1-2.074-.781,3.335,3.335,0,0,1-.73-2.289V32.547h2.258v5.467q0,1.322,1.2,1.322a1.63,1.63,0,0,0,1.578-.8V32.547h2.266V41H88.367Zm6.008-7.594.07.945a2.971,2.971,0,0,1,2.43-1.1,2.255,2.255,0,0,1,2.242,1.289,2.9,2.9,0,0,1,2.539-1.289,2.521,2.521,0,0,1,2.047.8,3.681,3.681,0,0,1,.672,2.41V41h-2.266V35.609a1.61,1.61,0,0,0-.281-1.051,1.246,1.246,0,0,0-.992-.332,1.409,1.409,0,0,0-1.406.969l.008,5.8H97.117V35.617a1.59,1.59,0,0,0-.289-1.062,1.259,1.259,0,0,0-.984-.328,1.463,1.463,0,0,0-1.391.8V41H92.2V32.547Zm16.8,7.594a2.831,2.831,0,0,1-2.312,1.016,2.67,2.67,0,0,1-2.074-.781,3.335,3.335,0,0,1-.73-2.289V32.547h2.258v5.467q0,1.322,1.2,1.322a1.63,1.63,0,0,0,1.578-.8V32.547H113.3V41h-2.125Zm6.273.859h-2.266V29h2.266Zm6.758,0a2.507,2.507,0,0,1-.227-.758,2.732,2.732,0,0,1-2.133.914,3,3,0,0,1-2.059-.719,2.312,2.312,0,0,1-.816-1.812,2.389,2.389,0,0,1,1-2.062,4.915,4.915,0,0,1,2.879-.727h1.039v-.484a1.393,1.393,0,0,0-.3-.937,1.183,1.183,0,0,0-.949-.352,1.345,1.345,0,0,0-.895.273.929.929,0,0,0-.324.75h-2.258a2.268,2.268,0,0,1,.453-1.359,3,3,0,0,1,1.281-.98,4.669,4.669,0,0,1,1.859-.355,3.689,3.689,0,0,1,2.48.785,2.747,2.747,0,0,1,.918,2.207v3.664a4.041,4.041,0,0,0,.336,1.82V41Zm-1.867-1.57a1.945,1.945,0,0,0,.922-.223,1.462,1.462,0,0,0,.625-.6V37.156h-.844q-1.7,0-1.8,1.172l-.008.133a.9.9,0,0,0,.3.7A1.153,1.153,0,0,0,122.273,39.43Zm5.2-2.719a5.094,5.094,0,0,1,.887-3.148,2.877,2.877,0,0,1,2.426-1.172,2.589,2.589,0,0,1,2.039.922V29h2.266V41h-2.039l-.109-.9a2.657,2.657,0,0,1-2.172,1.055,2.869,2.869,0,0,1-2.395-1.176A5.258,5.258,0,0,1,127.469,36.711Zm2.258.168a3.337,3.337,0,0,0,.414,1.823,1.349,1.349,0,0,0,1.2.634,1.511,1.511,0,0,0,1.477-.884V35.111a1.489,1.489,0,0,0-1.461-.884Q129.727,34.227,129.727,36.879ZM141.734,41a2.507,2.507,0,0,1-.227-.758,2.732,2.732,0,0,1-2.133.914,3,3,0,0,1-2.059-.719,2.312,2.312,0,0,1-.816-1.812,2.389,2.389,0,0,1,1-2.062,4.915,4.915,0,0,1,2.879-.727h1.039v-.484a1.393,1.393,0,0,0-.3-.937,1.183,1.183,0,0,0-.949-.352,1.345,1.345,0,0,0-.895.273.929.929,0,0,0-.324.75h-2.258a2.268,2.268,0,0,1,.453-1.359,3,3,0,0,1,1.281-.98,4.669,4.669,0,0,1,1.859-.355,3.689,3.689,0,0,1,2.48.785,2.747,2.747,0,0,1,.918,2.207v3.664a4.041,4.041,0,0,0,.336,1.82V41Zm-1.867-1.57a1.945,1.945,0,0,0,.922-.223,1.462,1.462,0,0,0,.625-.6V37.156h-.844q-1.7,0-1.8,1.172l-.008.133a.9.9,0,0,0,.3.7A1.153,1.153,0,0,0,139.867,39.43Z" transform="translate(-2935 -9057)" fill="#fef536"/>
    <path id="Trazado_226607" data-name="Trazado 226607" d="M0,0H5V28H0Z" transform="translate(-3179 -9112)" fill="#5c22c3"/>
    <path id="Trazado_226590" data-name="Trazado 226590" d="M7.782-7.7H4.951V0h-1.9V-7.7H.254V-9.242H7.782ZM11.661,0a2.037,2.037,0,0,1-.184-.616A2.22,2.22,0,0,1,9.744.127,2.439,2.439,0,0,1,8.071-.457,1.878,1.878,0,0,1,7.408-1.93a1.941,1.941,0,0,1,.809-1.676,3.994,3.994,0,0,1,2.339-.59H11.4v-.394a1.132,1.132,0,0,0-.244-.762.961.961,0,0,0-.771-.286,1.093,1.093,0,0,0-.727.222.755.755,0,0,0-.263.609H7.56a1.843,1.843,0,0,1,.368-1.1,2.434,2.434,0,0,1,1.041-.8A3.794,3.794,0,0,1,10.48-7a3,3,0,0,1,2.015.638,2.232,2.232,0,0,1,.746,1.793v2.977a3.284,3.284,0,0,0,.273,1.479V0ZM10.144-1.276a1.58,1.58,0,0,0,.749-.181,1.188,1.188,0,0,0,.508-.486V-3.123h-.686q-1.377,0-1.466.952l-.006.108a.734.734,0,0,0,.241.565A.937.937,0,0,0,10.144-1.276Zm10.7-2.095a4.159,4.159,0,0,1-.7,2.574,2.334,2.334,0,0,1-1.968.924A2.144,2.144,0,0,1,16.383-.73L16.3,0H14.65V-9.75h1.834v3.5A2.089,2.089,0,0,1,18.154-7a2.353,2.353,0,0,1,1.971.924,4.165,4.165,0,0,1,.714,2.6ZM19-3.5a2.732,2.732,0,0,0-.33-1.52,1.116,1.116,0,0,0-.984-.479,1.21,1.21,0,0,0-1.206.717v2.71a1.226,1.226,0,0,0,1.219.724,1.133,1.133,0,0,0,1.168-.876A4.519,4.519,0,0,0,19-3.5Zm4.9,3.5H22.064V-9.75h1.841ZM29.4,0a2.037,2.037,0,0,1-.184-.616,2.22,2.22,0,0,1-1.733.743,2.439,2.439,0,0,1-1.673-.584,1.878,1.878,0,0,1-.663-1.473,1.941,1.941,0,0,1,.809-1.676,3.994,3.994,0,0,1,2.339-.59h.844v-.394a1.132,1.132,0,0,0-.244-.762.961.961,0,0,0-.771-.286,1.093,1.093,0,0,0-.727.222.755.755,0,0,0-.263.609H25.3a1.843,1.843,0,0,1,.368-1.1,2.434,2.434,0,0,1,1.041-.8A3.794,3.794,0,0,1,28.215-7a3,3,0,0,1,2.015.638,2.232,2.232,0,0,1,.746,1.793v2.977A3.284,3.284,0,0,0,31.25-.108V0ZM27.879-1.276a1.58,1.58,0,0,0,.749-.181,1.188,1.188,0,0,0,.508-.486V-3.123H28.45q-1.377,0-1.466.952l-.006.108a.734.734,0,0,0,.241.565A.937.937,0,0,0,27.879-1.276Zm13.1-2.2h1.047V-2H40.974V0H39.14V-2H35.35l-.083-1.155,3.853-6.087h1.854Zm-3.878,0H39.14V-6.741l-.121.209ZM43.177-.9a.924.924,0,0,1,.3-.711,1.047,1.047,0,0,1,.74-.273,1.056,1.056,0,0,1,.746.273.924.924,0,0,1,.3.711.911.911,0,0,1-.292.7,1.06,1.06,0,0,1-.749.27,1.052,1.052,0,0,1-.743-.27A.911.911,0,0,1,43.177-.9Z" transform="translate(-3163 -9093)" fill="#12263f"/>
  </g>
</svg>
