<svg xmlns="http://www.w3.org/2000/svg" width="610" height="288" viewBox="0 0 610 288">
  <g id="Grupo_160026" data-name="Grupo 160026" transform="translate(-705 -2538)">
    <g id="Trazado_226406" data-name="Trazado 226406" transform="translate(705 2538)" fill="#5c22c3">
      <path d="M 306.5 26.5 L 0.5 26.5 L 0.5 0.5 L 306.5 0.5 L 306.5 26.5 Z" stroke="none"/>
      <path d="M 1 1 L 1 26 L 306 26 L 306 1 L 1 1 M 0 0 L 307 0 L 307 27 L 0 27 L 0 0 Z" stroke="none" fill="#5c22c3"/>
    </g>
    <g id="Trazado_226402" data-name="Trazado 226402" transform="translate(705 2565)" fill="#fff">
      <path d="M 306.5 26.5 L 0.5 26.5 L 0.5 0.5 L 306.5 0.5 L 306.5 26.5 Z" stroke="none"/>
      <path d="M 1 1 L 1 26 L 306 26 L 306 1 L 1 1 M 0 0 L 307 0 L 307 27 L 0 27 L 0 0 Z" stroke="none" fill="#5c22c3"/>
    </g>
    <g id="Trazado_226374" data-name="Trazado 226374" transform="translate(705 2773)" fill="#fff">
      <path d="M 306.5 26.5 L 0.5 26.5 L 0.5 0.5 L 306.5 0.5 L 306.5 26.5 Z" stroke="none"/>
      <path d="M 1 1 L 1 26 L 306 26 L 306 1 L 1 1 M 0 0 L 307 0 L 307 27 L 0 27 L 0 0 Z" stroke="none" fill="#5c22c3"/>
    </g>
    <g id="Trazado_226386" data-name="Trazado 226386" transform="translate(705 2669)" fill="#fff">
      <path d="M 306.5 26.5 L 0.5 26.5 L 0.5 0.5 L 306.5 0.5 L 306.5 26.5 Z" stroke="none"/>
      <path d="M 1 1 L 1 26 L 306 26 L 306 1 L 1 1 M 0 0 L 307 0 L 307 27 L 0 27 L 0 0 Z" stroke="none" fill="#5c22c3"/>
    </g>
    <g id="Trazado_226394" data-name="Trazado 226394" transform="translate(705 2617)" fill="#fff">
      <path d="M 306.5 26.5 L 0.5 26.5 L 0.5 0.5 L 306.5 0.5 L 306.5 26.5 Z" stroke="none"/>
      <path d="M 1 1 L 1 26 L 306 26 L 306 1 L 1 1 M 0 0 L 307 0 L 307 27 L 0 27 L 0 0 Z" stroke="none" fill="#5c22c3"/>
    </g>
    <g id="Trazado_226375" data-name="Trazado 226375" transform="translate(705 2721)" fill="#fff">
      <path d="M 306.5 26.5 L 0.5 26.5 L 0.5 0.5 L 306.5 0.5 L 306.5 26.5 Z" stroke="none"/>
      <path d="M 1 1 L 1 26 L 306 26 L 306 1 L 1 1 M 0 0 L 307 0 L 307 27 L 0 27 L 0 0 Z" stroke="none" fill="#5c22c3"/>
    </g>
    <g id="Trazado_226398" data-name="Trazado 226398" transform="translate(705 2591)" fill="#fff">
      <path d="M 306.5 26.5 L 0.5 26.5 L 0.5 0.5 L 306.5 0.5 L 306.5 26.5 Z" stroke="none"/>
      <path d="M 1 1 L 1 26 L 306 26 L 306 1 L 1 1 M 0 0 L 307 0 L 307 27 L 0 27 L 0 0 Z" stroke="none" fill="#5c22c3"/>
    </g>
    <g id="Trazado_226376" data-name="Trazado 226376" transform="translate(705 2799)" fill="#fff">
      <path d="M 306.5 26.5 L 0.5 26.5 L 0.5 0.5 L 306.5 0.5 L 306.5 26.5 Z" stroke="none"/>
      <path d="M 1 1 L 1 26 L 306 26 L 306 1 L 1 1 M 0 0 L 307 0 L 307 27 L 0 27 L 0 0 Z" stroke="none" fill="#5c22c3"/>
    </g>
    <g id="Trazado_226377" data-name="Trazado 226377" transform="translate(705 2695)" fill="#fff">
      <path d="M 306.5 26.5 L 0.5 26.5 L 0.5 0.5 L 306.5 0.5 L 306.5 26.5 Z" stroke="none"/>
      <path d="M 1 1 L 1 26 L 306 26 L 306 1 L 1 1 M 0 0 L 307 0 L 307 27 L 0 27 L 0 0 Z" stroke="none" fill="#5c22c3"/>
    </g>
    <g id="Trazado_226390" data-name="Trazado 226390" transform="translate(705 2643)" fill="#fff">
      <path d="M 306.5 26.5 L 0.5 26.5 L 0.5 0.5 L 306.5 0.5 L 306.5 26.5 Z" stroke="none"/>
      <path d="M 1 1 L 1 26 L 306 26 L 306 1 L 1 1 M 0 0 L 307 0 L 307 27 L 0 27 L 0 0 Z" stroke="none" fill="#5c22c3"/>
    </g>
    <g id="Trazado_226378" data-name="Trazado 226378" transform="translate(705 2747)" fill="#fff">
      <path d="M 306.5 26.5 L 0.5 26.5 L 0.5 0.5 L 306.5 0.5 L 306.5 26.5 Z" stroke="none"/>
      <path d="M 1 1 L 1 26 L 306 26 L 306 1 L 1 1 M 0 0 L 307 0 L 307 27 L 0 27 L 0 0 Z" stroke="none" fill="#5c22c3"/>
    </g>
    <g id="Trazado_226407" data-name="Trazado 226407" transform="translate(1010 2538)" fill="#5c22c3">
      <path d="M 304.5 26.5 L 0.5 26.5 L 0.5 0.5 L 304.5 0.5 L 304.5 26.5 Z" stroke="none"/>
      <path d="M 1 1 L 1 26 L 304 26 L 304 1 L 1 1 M 0 0 L 305 0 L 305 27 L 0 27 L 0 0 Z" stroke="none" fill="#5c22c3"/>
    </g>
    <g id="Trazado_226403" data-name="Trazado 226403" transform="translate(1010 2565)" fill="#fff">
      <path d="M 304.5 26.5 L 0.5 26.5 L 0.5 0.5 L 304.5 0.5 L 304.5 26.5 Z" stroke="none"/>
      <path d="M 1 1 L 1 26 L 304 26 L 304 1 L 1 1 M 0 0 L 305 0 L 305 27 L 0 27 L 0 0 Z" stroke="none" fill="#5c22c3"/>
    </g>
    <g id="Trazado_226368" data-name="Trazado 226368" transform="translate(1010 2773)" fill="#fff">
      <path d="M 304.5 26.5 L 0.5 26.5 L 0.5 0.5 L 304.5 0.5 L 304.5 26.5 Z" stroke="none"/>
      <path d="M 1 1 L 1 26 L 304 26 L 304 1 L 1 1 M 0 0 L 305 0 L 305 27 L 0 27 L 0 0 Z" stroke="none" fill="#5c22c3"/>
    </g>
    <g id="Trazado_226387" data-name="Trazado 226387" transform="translate(1010 2669)" fill="#fff">
      <path d="M 304.5 26.5 L 0.5 26.5 L 0.5 0.5 L 304.5 0.5 L 304.5 26.5 Z" stroke="none"/>
      <path d="M 1 1 L 1 26 L 304 26 L 304 1 L 1 1 M 0 0 L 305 0 L 305 27 L 0 27 L 0 0 Z" stroke="none" fill="#5c22c3"/>
    </g>
    <g id="Trazado_226395" data-name="Trazado 226395" transform="translate(1010 2617)" fill="#fff">
      <path d="M 304.5 26.5 L 0.5 26.5 L 0.5 0.5 L 304.5 0.5 L 304.5 26.5 Z" stroke="none"/>
      <path d="M 1 1 L 1 26 L 304 26 L 304 1 L 1 1 M 0 0 L 305 0 L 305 27 L 0 27 L 0 0 Z" stroke="none" fill="#5c22c3"/>
    </g>
    <g id="Trazado_226369" data-name="Trazado 226369" transform="translate(1010 2721)" fill="#fff">
      <path d="M 304.5 26.5 L 0.5 26.5 L 0.5 0.5 L 304.5 0.5 L 304.5 26.5 Z" stroke="none"/>
      <path d="M 1 1 L 1 26 L 304 26 L 304 1 L 1 1 M 0 0 L 305 0 L 305 27 L 0 27 L 0 0 Z" stroke="none" fill="#5c22c3"/>
    </g>
    <g id="Trazado_226399" data-name="Trazado 226399" transform="translate(1010 2591)" fill="#fff">
      <path d="M 304.5 26.5 L 0.5 26.5 L 0.5 0.5 L 304.5 0.5 L 304.5 26.5 Z" stroke="none"/>
      <path d="M 1 1 L 1 26 L 304 26 L 304 1 L 1 1 M 0 0 L 305 0 L 305 27 L 0 27 L 0 0 Z" stroke="none" fill="#5c22c3"/>
    </g>
    <g id="Trazado_226366" data-name="Trazado 226366" transform="translate(1010 2799)" fill="#fff">
      <path d="M 304.5 26.5 L 0.5 26.5 L 0.5 0.5 L 304.5 0.5 L 304.5 26.5 Z" stroke="none"/>
      <path d="M 1 1 L 1 26 L 304 26 L 304 1 L 1 1 M 0 0 L 305 0 L 305 27 L 0 27 L 0 0 Z" stroke="none" fill="#5c22c3"/>
    </g>
    <g id="Trazado_226379" data-name="Trazado 226379" transform="translate(1010 2695)" fill="#fff">
      <path d="M 304.5 26.5 L 0.5 26.5 L 0.5 0.5 L 304.5 0.5 L 304.5 26.5 Z" stroke="none"/>
      <path d="M 1 1 L 1 26 L 304 26 L 304 1 L 1 1 M 0 0 L 305 0 L 305 27 L 0 27 L 0 0 Z" stroke="none" fill="#5c22c3"/>
    </g>
    <g id="Trazado_226391" data-name="Trazado 226391" transform="translate(1010 2643)" fill="#fff">
      <path d="M 304.5 26.5 L 0.5 26.5 L 0.5 0.5 L 304.5 0.5 L 304.5 26.5 Z" stroke="none"/>
      <path d="M 1 1 L 1 26 L 304 26 L 304 1 L 1 1 M 0 0 L 305 0 L 305 27 L 0 27 L 0 0 Z" stroke="none" fill="#5c22c3"/>
    </g>
    <g id="Trazado_226370" data-name="Trazado 226370" transform="translate(1010 2747)" fill="#fff">
      <path d="M 304.5 26.5 L 0.5 26.5 L 0.5 0.5 L 304.5 0.5 L 304.5 26.5 Z" stroke="none"/>
      <path d="M 1 1 L 1 26 L 304 26 L 304 1 L 1 1 M 0 0 L 305 0 L 305 27 L 0 27 L 0 0 Z" stroke="none" fill="#5c22c3"/>
    </g>
    <path id="Trazado_226408" data-name="Trazado 226408" d="M122.641,12.07h-4.5v3.047h5.281V17H115.8V5.625h7.609v1.9h-5.266v2.711h4.5Zm6.586,2.594a.727.727,0,0,0-.41-.652,4.659,4.659,0,0,0-1.316-.426q-3.016-.633-3.016-2.562a2.323,2.323,0,0,1,.934-1.879,3.766,3.766,0,0,1,2.441-.754,4.053,4.053,0,0,1,2.574.758,2.388,2.388,0,0,1,.965,1.969h-2.258a1.092,1.092,0,0,0-.312-.8,1.322,1.322,0,0,0-.977-.316,1.351,1.351,0,0,0-.883.258.814.814,0,0,0-.312.656.7.7,0,0,0,.355.605,3.657,3.657,0,0,0,1.2.4,9.8,9.8,0,0,1,1.422.379,2.336,2.336,0,0,1,1.789,2.273,2.205,2.205,0,0,1-.992,1.871,4.28,4.28,0,0,1-2.562.715,4.47,4.47,0,0,1-1.887-.379,3.166,3.166,0,0,1-1.293-1.039,2.414,2.414,0,0,1-.469-1.426h2.141a1.179,1.179,0,0,0,.445.922,1.766,1.766,0,0,0,1.109.32,1.635,1.635,0,0,0,.98-.246A.766.766,0,0,0,129.227,14.664Zm6.352-8.2V8.547h1.445V10.2h-1.445v4.219a1.007,1.007,0,0,0,.18.672.9.9,0,0,0,.688.2,3.6,3.6,0,0,0,.664-.055v1.711a4.648,4.648,0,0,1-1.367.2,2.156,2.156,0,0,1-2.422-2.4V10.2h-1.234V8.547h1.234V6.469Zm7.766,9.672a2.831,2.831,0,0,1-2.312,1.016,2.67,2.67,0,0,1-2.074-.781,3.335,3.335,0,0,1-.73-2.289V8.547h2.258v5.467q0,1.322,1.2,1.322a1.63,1.63,0,0,0,1.578-.8V8.547h2.266V17h-2.125Zm3.539-3.43a5.094,5.094,0,0,1,.887-3.148A2.877,2.877,0,0,1,150.2,8.391a2.589,2.589,0,0,1,2.039.922V5H154.5V17h-2.039l-.109-.9a2.657,2.657,0,0,1-2.172,1.055,2.869,2.869,0,0,1-2.395-1.176A5.258,5.258,0,0,1,146.883,12.711Zm2.258.168a3.337,3.337,0,0,0,.414,1.823,1.349,1.349,0,0,0,1.2.634,1.511,1.511,0,0,0,1.477-.884V11.111a1.489,1.489,0,0,0-1.461-.884Q149.141,10.227,149.141,12.879ZM158.633,17h-2.266V8.547h2.266Zm-2.4-10.641a1.112,1.112,0,0,1,.34-.836,1.465,1.465,0,0,1,1.848,0,1.105,1.105,0,0,1,.344.836,1.109,1.109,0,0,1-.348.844,1.448,1.448,0,0,1-1.836,0A1.109,1.109,0,0,1,156.234,6.359ZM165.391,17a2.507,2.507,0,0,1-.227-.758,2.732,2.732,0,0,1-2.133.914,3,3,0,0,1-2.059-.719,2.312,2.312,0,0,1-.816-1.812,2.389,2.389,0,0,1,1-2.062,4.915,4.915,0,0,1,2.879-.727h1.039v-.484a1.393,1.393,0,0,0-.3-.937,1.183,1.183,0,0,0-.949-.352,1.345,1.345,0,0,0-.895.273.929.929,0,0,0-.324.75h-2.258a2.268,2.268,0,0,1,.453-1.359,3,3,0,0,1,1.281-.98,4.669,4.669,0,0,1,1.859-.355,3.689,3.689,0,0,1,2.48.785,2.747,2.747,0,0,1,.918,2.207v3.664a4.041,4.041,0,0,0,.336,1.82V17Zm-1.867-1.57a1.945,1.945,0,0,0,.922-.223,1.462,1.462,0,0,0,.625-.6V13.156h-.844q-1.7,0-1.8,1.172l-.008.133a.9.9,0,0,0,.3.7A1.153,1.153,0,0,0,163.523,15.43Zm7.625-6.883.07.977a2.951,2.951,0,0,1,2.43-1.133,2.453,2.453,0,0,1,2,.789,3.682,3.682,0,0,1,.672,2.359V17h-2.258V11.594a1.465,1.465,0,0,0-.312-1.043,1.4,1.4,0,0,0-1.039-.324,1.553,1.553,0,0,0-1.43.813V17h-2.258V8.547Zm9.586-2.078V8.547h1.445V10.2h-1.445v4.219a1.007,1.007,0,0,0,.18.672.9.9,0,0,0,.688.2,3.6,3.6,0,0,0,.664-.055v1.711a4.648,4.648,0,0,1-1.367.2,2.156,2.156,0,0,1-2.422-2.4V10.2h-1.234V8.547h1.234V6.469Zm6.594,10.688a4.15,4.15,0,0,1-3.027-1.141,4.054,4.054,0,0,1-1.168-3.039v-.219a5.106,5.106,0,0,1,.492-2.277,3.612,3.612,0,0,1,1.395-1.547,3.914,3.914,0,0,1,2.059-.543,3.508,3.508,0,0,1,2.73,1.094,4.444,4.444,0,0,1,1,3.1v.922h-5.383a2.1,2.1,0,0,0,.66,1.328,2,2,0,0,0,1.395.5,2.437,2.437,0,0,0,2.039-.945l1.109,1.242a3.389,3.389,0,0,1-1.375,1.121A4.511,4.511,0,0,1,187.328,17.156Zm-.258-6.945a1.411,1.411,0,0,0-1.09.455,2.357,2.357,0,0,0-.535,1.3h3.141v-.181a1.681,1.681,0,0,0-.406-1.165A1.456,1.456,0,0,0,187.07,10.211Z" transform="translate(705 2542)" fill="#fef536"/>
    <path id="Trazado_226404" data-name="Trazado 226404" d="M5.7,17H4.242V7.367L1.328,8.438V7.125L5.469,5.57H5.7Z" transform="translate(715 2569)" fill="#12263f"/>
    <path id="Trazado_226380" data-name="Trazado 226380" d="M6.484,12a3.536,3.536,0,0,1-1.082.867,2.936,2.936,0,0,1-1.379.328,3.031,3.031,0,0,1-1.715-.484A3.149,3.149,0,0,1,1.18,11.348a4.648,4.648,0,0,1-.4-1.941,4.735,4.735,0,0,1,.434-2.055,3.185,3.185,0,0,1,1.23-1.4A3.509,3.509,0,0,1,4.3,5.469,3.177,3.177,0,0,1,6.965,6.73a5.5,5.5,0,0,1,.973,3.441v.422q0,3.32-1.312,4.848a5.043,5.043,0,0,1-3.961,1.566H2.383V15.781h.3a3.979,3.979,0,0,0,2.75-.932A4,4,0,0,0,6.484,12ZM4.258,12a2.232,2.232,0,0,0,1.34-.445,2.625,2.625,0,0,0,.895-1.1V9.875a3.977,3.977,0,0,0-.617-2.312A1.887,1.887,0,0,0,2.781,7.4,3.013,3.013,0,0,0,2.2,9.328a3.136,3.136,0,0,0,.559,1.918A1.769,1.769,0,0,0,4.258,12Z" transform="translate(715 2777)" fill="#12263f"/>
    <path id="Trazado_226388" data-name="Trazado 226388" d="M1.609,11.3l.578-5.672H8.016V6.961h-4.6l-.344,3.1a3.671,3.671,0,0,1,1.9-.492A3.138,3.138,0,0,1,7.438,10.6a4.026,4.026,0,0,1,.914,2.777,3.886,3.886,0,0,1-.949,2.77A3.46,3.46,0,0,1,4.75,17.156a3.6,3.6,0,0,1-2.461-.836A3.337,3.337,0,0,1,1.2,14.008H2.57a2.3,2.3,0,0,0,.7,1.473,2.162,2.162,0,0,0,1.484.5,1.95,1.95,0,0,0,1.582-.687,2.874,2.874,0,0,0,.574-1.9,2.638,2.638,0,0,0-.621-1.832,2.113,2.113,0,0,0-1.652-.691,2.383,2.383,0,0,0-1.484.414l-.383.313Z" transform="translate(715 2673)" fill="#12263f"/>
    <path id="Trazado_226396" data-name="Trazado 226396" d="M3.047,10.609H4.133a2.387,2.387,0,0,0,1.609-.539,1.8,1.8,0,0,0,.586-1.414,1.764,1.764,0,0,0-1.992-2,2.072,2.072,0,0,0-1.5.535,1.873,1.873,0,0,0-.559,1.418H.836a2.9,2.9,0,0,1,.988-2.246,3.6,3.6,0,0,1,2.512-.895,3.558,3.558,0,0,1,2.523.852,3.076,3.076,0,0,1,.914,2.367,2.5,2.5,0,0,1-.48,1.438,2.9,2.9,0,0,1-1.309,1.039,2.8,2.8,0,0,1,1.449.984,2.734,2.734,0,0,1,.512,1.68,3.1,3.1,0,0,1-1,2.43,3.745,3.745,0,0,1-2.6.9,3.844,3.844,0,0,1-2.605-.867A2.877,2.877,0,0,1,.734,14H2.188a1.859,1.859,0,0,0,.586,1.438,2.229,2.229,0,0,0,1.57.539,2.187,2.187,0,0,0,1.6-.547,2.108,2.108,0,0,0,.555-1.57,1.912,1.912,0,0,0-.609-1.523,2.655,2.655,0,0,0-1.758-.547H3.047Z" transform="translate(715 2621)" fill="#12263f"/>
    <path id="Trazado_226381" data-name="Trazado 226381" d="M8.289,6.438,3.578,17H2.063l4.7-10.187H.6V5.625H8.289Z" transform="translate(715 2725)" fill="#12263f"/>
    <path id="Trazado_226400" data-name="Trazado 226400" d="M8.4,17H.945V15.961l3.938-4.375A9.355,9.355,0,0,0,6.09,9.973a2.693,2.693,0,0,0,.332-1.285,2.041,2.041,0,0,0-.539-1.461,1.885,1.885,0,0,0-1.437-.57A2.232,2.232,0,0,0,2.77,7.27a2.343,2.343,0,0,0-.6,1.707H.727A3.355,3.355,0,0,1,1.738,6.438a3.751,3.751,0,0,1,2.707-.969A3.6,3.6,0,0,1,6.953,6.3a2.838,2.838,0,0,1,.922,2.215q0,1.68-2.141,4l-3.047,3.3H8.4Z" transform="translate(715 2595)" fill="#12263f"/>
    <path id="Trazado_226382" data-name="Trazado 226382" d="M5.7,17H4.242V7.367L1.328,8.438V7.125L5.469,5.57H5.7Zm11.367-4.852a6.61,6.61,0,0,1-.867,3.773,3.084,3.084,0,0,1-2.711,1.234,3.107,3.107,0,0,1-2.7-1.207,6.274,6.274,0,0,1-.906-3.605v-1.93a6.463,6.463,0,0,1,.867-3.727,3.108,3.108,0,0,1,2.719-1.219,3.136,3.136,0,0,1,2.7,1.176,6.237,6.237,0,0,1,.891,3.629Zm-1.445-1.977A5.3,5.3,0,0,0,15.1,7.5a1.775,1.775,0,0,0-1.633-.84,1.751,1.751,0,0,0-1.617.836,5.171,5.171,0,0,0-.523,2.57v2.313a5.381,5.381,0,0,0,.535,2.723,1.771,1.771,0,0,0,1.621.879,1.747,1.747,0,0,0,1.59-.828,5.186,5.186,0,0,0,.543-2.609Z" transform="translate(715 2803)" fill="#12263f"/>
    <path id="Trazado_226384" data-name="Trazado 226384" d="M6.617,5.617V6.844H6.352a3.805,3.805,0,0,0-2.687,1A4.161,4.161,0,0,0,2.508,10.57,3.085,3.085,0,0,1,4.961,9.539a2.95,2.95,0,0,1,2.371,1.047,4.038,4.038,0,0,1,.887,2.7A4.025,4.025,0,0,1,7.262,16.1,3.3,3.3,0,0,1,4.7,17.156,3.247,3.247,0,0,1,2.047,15.9a4.97,4.97,0,0,1-1.016-3.23v-.555a7.488,7.488,0,0,1,1.34-4.8,4.921,4.921,0,0,1,3.988-1.7Zm-1.9,5.125a2.306,2.306,0,0,0-1.367.445A2.32,2.32,0,0,0,2.484,12.3v.531A3.731,3.731,0,0,0,3.117,15.1a1.9,1.9,0,0,0,1.578.859,1.838,1.838,0,0,0,1.535-.719,2.982,2.982,0,0,0,.559-1.883,2.983,2.983,0,0,0-.566-1.895A1.816,1.816,0,0,0,4.719,10.742Z" transform="translate(715 2699)" fill="#12263f"/>
    <path id="Trazado_226392" data-name="Trazado 226392" d="M7.047,13.18H8.625v1.18H7.047V17H5.594V14.359H.414v-.852L5.508,5.625H7.047Zm-4.992,0H5.594V7.6l-.172.313Z" transform="translate(715 2647)" fill="#12263f"/>
    <path id="Trazado_226383" data-name="Trazado 226383" d="M7.844,8.594a2.641,2.641,0,0,1-.449,1.516A3.057,3.057,0,0,1,6.18,11.148a3.26,3.26,0,0,1,1.41,1.117,2.811,2.811,0,0,1,.52,1.664,2.972,2.972,0,0,1-1,2.352,3.827,3.827,0,0,1-2.621.875,3.81,3.81,0,0,1-2.629-.879A2.986,2.986,0,0,1,.875,13.93a2.9,2.9,0,0,1,.5-1.664,3.136,3.136,0,0,1,1.395-1.125,2.981,2.981,0,0,1-1.2-1.039,2.679,2.679,0,0,1-.437-1.508,2.94,2.94,0,0,1,.922-2.281,3.458,3.458,0,0,1,2.43-.844,3.461,3.461,0,0,1,2.426.844A2.934,2.934,0,0,1,7.844,8.594Zm-1.18,5.3a2.1,2.1,0,0,0-.605-1.555,2.147,2.147,0,0,0-1.582-.6,2.11,2.11,0,0,0-1.566.594A2.12,2.12,0,0,0,2.32,13.9a2.019,2.019,0,0,0,.574,1.523,2.2,2.2,0,0,0,1.6.555,2.2,2.2,0,0,0,1.594-.559A2.014,2.014,0,0,0,6.664,13.9ZM4.492,6.656a1.865,1.865,0,0,0-1.379.527,1.937,1.937,0,0,0-.527,1.434,1.928,1.928,0,0,0,.52,1.4,1.844,1.844,0,0,0,1.387.535,1.844,1.844,0,0,0,1.387-.535,1.928,1.928,0,0,0,.52-1.4A1.929,1.929,0,0,0,5.859,7.2,1.839,1.839,0,0,0,4.492,6.656Z" transform="translate(715 2751)" fill="#12263f"/>
    <path id="Trazado_226405" data-name="Trazado 226405" d="M7.844,8.594a2.641,2.641,0,0,1-.449,1.516A3.057,3.057,0,0,1,6.18,11.148a3.26,3.26,0,0,1,1.41,1.117,2.811,2.811,0,0,1,.52,1.664,2.972,2.972,0,0,1-1,2.352,3.827,3.827,0,0,1-2.621.875,3.81,3.81,0,0,1-2.629-.879A2.986,2.986,0,0,1,.875,13.93a2.9,2.9,0,0,1,.5-1.664,3.136,3.136,0,0,1,1.395-1.125,2.981,2.981,0,0,1-1.2-1.039,2.679,2.679,0,0,1-.437-1.508,2.94,2.94,0,0,1,.922-2.281,3.458,3.458,0,0,1,2.43-.844,3.461,3.461,0,0,1,2.426.844A2.934,2.934,0,0,1,7.844,8.594Zm-1.18,5.3a2.1,2.1,0,0,0-.605-1.555,2.147,2.147,0,0,0-1.582-.6,2.11,2.11,0,0,0-1.566.594A2.12,2.12,0,0,0,2.32,13.9a2.019,2.019,0,0,0,.574,1.523,2.2,2.2,0,0,0,1.6.555,2.2,2.2,0,0,0,1.594-.559A2.014,2.014,0,0,0,6.664,13.9ZM4.492,6.656a1.865,1.865,0,0,0-1.379.527,1.937,1.937,0,0,0-.527,1.434,1.928,1.928,0,0,0,.52,1.4,1.844,1.844,0,0,0,1.387.535,1.844,1.844,0,0,0,1.387-.535,1.928,1.928,0,0,0,.52-1.4A1.929,1.929,0,0,0,5.859,7.2,1.839,1.839,0,0,0,4.492,6.656Z" transform="translate(1021 2569)" fill="#12263f"/>
    <path id="Trazado_226371" data-name="Trazado 226371" d="M5.7,17H4.242V7.367L1.328,8.438V7.125L5.469,5.57H5.7Zm11.367-4.852a6.61,6.61,0,0,1-.867,3.773,3.084,3.084,0,0,1-2.711,1.234,3.107,3.107,0,0,1-2.7-1.207,6.274,6.274,0,0,1-.906-3.605v-1.93a6.463,6.463,0,0,1,.867-3.727,3.108,3.108,0,0,1,2.719-1.219,3.136,3.136,0,0,1,2.7,1.176,6.237,6.237,0,0,1,.891,3.629Zm-1.445-1.977A5.3,5.3,0,0,0,15.1,7.5a1.775,1.775,0,0,0-1.633-.84,1.751,1.751,0,0,0-1.617.836,5.171,5.171,0,0,0-.523,2.57v2.313a5.381,5.381,0,0,0,.535,2.723,1.771,1.771,0,0,0,1.621.879,1.747,1.747,0,0,0,1.59-.828,5.186,5.186,0,0,0,.543-2.609Z" transform="translate(1021 2777)" fill="#12263f"/>
    <path id="Trazado_226389" data-name="Trazado 226389" d="M7.047,13.18H8.625v1.18H7.047V17H5.594V14.359H.414v-.852L5.508,5.625H7.047Zm-4.992,0H5.594V7.6l-.172.313Z" transform="translate(1021 2673)" fill="#12263f"/>
    <path id="Trazado_226397" data-name="Trazado 226397" d="M1.609,11.3l.578-5.672H8.016V6.961h-4.6l-.344,3.1a3.671,3.671,0,0,1,1.9-.492A3.138,3.138,0,0,1,7.438,10.6a4.026,4.026,0,0,1,.914,2.777,3.886,3.886,0,0,1-.949,2.77A3.46,3.46,0,0,1,4.75,17.156a3.6,3.6,0,0,1-2.461-.836A3.337,3.337,0,0,1,1.2,14.008H2.57a2.3,2.3,0,0,0,.7,1.473,2.162,2.162,0,0,0,1.484.5,1.95,1.95,0,0,0,1.582-.687,2.874,2.874,0,0,0,.574-1.9,2.638,2.638,0,0,0-.621-1.832,2.113,2.113,0,0,0-1.652-.691,2.383,2.383,0,0,0-1.484.414l-.383.313Z" transform="translate(1021 2621)" fill="#12263f"/>
    <path id="Trazado_226372" data-name="Trazado 226372" d="M7.844,8.594a2.641,2.641,0,0,1-.449,1.516A3.057,3.057,0,0,1,6.18,11.148a3.26,3.26,0,0,1,1.41,1.117,2.811,2.811,0,0,1,.52,1.664,2.972,2.972,0,0,1-1,2.352,3.827,3.827,0,0,1-2.621.875,3.81,3.81,0,0,1-2.629-.879A2.986,2.986,0,0,1,.875,13.93a2.9,2.9,0,0,1,.5-1.664,3.136,3.136,0,0,1,1.395-1.125,2.981,2.981,0,0,1-1.2-1.039,2.679,2.679,0,0,1-.437-1.508,2.94,2.94,0,0,1,.922-2.281,3.458,3.458,0,0,1,2.43-.844,3.461,3.461,0,0,1,2.426.844A2.934,2.934,0,0,1,7.844,8.594Zm-1.18,5.3a2.1,2.1,0,0,0-.605-1.555,2.147,2.147,0,0,0-1.582-.6,2.11,2.11,0,0,0-1.566.594A2.12,2.12,0,0,0,2.32,13.9a2.019,2.019,0,0,0,.574,1.523,2.2,2.2,0,0,0,1.6.555,2.2,2.2,0,0,0,1.594-.559A2.014,2.014,0,0,0,6.664,13.9ZM4.492,6.656a1.865,1.865,0,0,0-1.379.527,1.937,1.937,0,0,0-.527,1.434,1.928,1.928,0,0,0,.52,1.4,1.844,1.844,0,0,0,1.387.535,1.844,1.844,0,0,0,1.387-.535,1.928,1.928,0,0,0,.52-1.4A1.929,1.929,0,0,0,5.859,7.2,1.839,1.839,0,0,0,4.492,6.656Z" transform="translate(1021 2725)" fill="#12263f"/>
    <path id="Trazado_226401" data-name="Trazado 226401" d="M8.289,6.438,3.578,17H2.063l4.7-10.187H.6V5.625H8.289Z" transform="translate(1021 2595)" fill="#12263f"/>
    <path id="Trazado_226367" data-name="Trazado 226367" d="M1.609,11.3l.578-5.672H8.016V6.961h-4.6l-.344,3.1a3.671,3.671,0,0,1,1.9-.492A3.138,3.138,0,0,1,7.438,10.6a4.026,4.026,0,0,1,.914,2.777,3.886,3.886,0,0,1-.949,2.77A3.46,3.46,0,0,1,4.75,17.156a3.6,3.6,0,0,1-2.461-.836A3.337,3.337,0,0,1,1.2,14.008H2.57a2.3,2.3,0,0,0,.7,1.473,2.162,2.162,0,0,0,1.484.5,1.95,1.95,0,0,0,1.582-.687,2.874,2.874,0,0,0,.574-1.9,2.638,2.638,0,0,0-.621-1.832,2.113,2.113,0,0,0-1.652-.691,2.383,2.383,0,0,0-1.484.414l-.383.313Z" transform="translate(1021 2803)" fill="#12263f"/>
    <path id="Trazado_226385" data-name="Trazado 226385" d="M6.617,5.617V6.844H6.352a3.805,3.805,0,0,0-2.687,1A4.161,4.161,0,0,0,2.508,10.57,3.085,3.085,0,0,1,4.961,9.539a2.95,2.95,0,0,1,2.371,1.047,4.038,4.038,0,0,1,.887,2.7A4.025,4.025,0,0,1,7.262,16.1,3.3,3.3,0,0,1,4.7,17.156,3.247,3.247,0,0,1,2.047,15.9a4.97,4.97,0,0,1-1.016-3.23v-.555a7.488,7.488,0,0,1,1.34-4.8,4.921,4.921,0,0,1,3.988-1.7Zm-1.9,5.125a2.306,2.306,0,0,0-1.367.445A2.32,2.32,0,0,0,2.484,12.3v.531A3.731,3.731,0,0,0,3.117,15.1a1.9,1.9,0,0,0,1.578.859,1.838,1.838,0,0,0,1.535-.719,2.982,2.982,0,0,0,.559-1.883,2.983,2.983,0,0,0-.566-1.895A1.816,1.816,0,0,0,4.719,10.742Z" transform="translate(1021 2699)" fill="#12263f"/>
    <path id="Trazado_226393" data-name="Trazado 226393" d="M6.484,12a3.536,3.536,0,0,1-1.082.867,2.936,2.936,0,0,1-1.379.328,3.031,3.031,0,0,1-1.715-.484A3.149,3.149,0,0,1,1.18,11.348a4.648,4.648,0,0,1-.4-1.941,4.735,4.735,0,0,1,.434-2.055,3.185,3.185,0,0,1,1.23-1.4A3.509,3.509,0,0,1,4.3,5.469,3.177,3.177,0,0,1,6.965,6.73a5.5,5.5,0,0,1,.973,3.441v.422q0,3.32-1.312,4.848a5.043,5.043,0,0,1-3.961,1.566H2.383V15.781h.3a3.979,3.979,0,0,0,2.75-.932A4,4,0,0,0,6.484,12ZM4.258,12a2.232,2.232,0,0,0,1.34-.445,2.625,2.625,0,0,0,.895-1.1V9.875a3.977,3.977,0,0,0-.617-2.312A1.887,1.887,0,0,0,2.781,7.4,3.013,3.013,0,0,0,2.2,9.328a3.136,3.136,0,0,0,.559,1.918A1.769,1.769,0,0,0,4.258,12Z" transform="translate(1021 2647)" fill="#12263f"/>
    <path id="Trazado_226373" data-name="Trazado 226373" d="M6.484,12a3.536,3.536,0,0,1-1.082.867,2.936,2.936,0,0,1-1.379.328,3.031,3.031,0,0,1-1.715-.484A3.149,3.149,0,0,1,1.18,11.348a4.648,4.648,0,0,1-.4-1.941,4.735,4.735,0,0,1,.434-2.055,3.185,3.185,0,0,1,1.23-1.4A3.509,3.509,0,0,1,4.3,5.469,3.177,3.177,0,0,1,6.965,6.73a5.5,5.5,0,0,1,.973,3.441v.422q0,3.32-1.312,4.848a5.043,5.043,0,0,1-3.961,1.566H2.383V15.781h.3a3.979,3.979,0,0,0,2.75-.932A4,4,0,0,0,6.484,12ZM4.258,12a2.232,2.232,0,0,0,1.34-.445,2.625,2.625,0,0,0,.895-1.1V9.875a3.977,3.977,0,0,0-.617-2.312A1.887,1.887,0,0,0,2.781,7.4,3.013,3.013,0,0,0,2.2,9.328a3.136,3.136,0,0,0,.559,1.918A1.769,1.769,0,0,0,4.258,12Z" transform="translate(1021 2751)" fill="#12263f"/>
    <path id="Trazado_226409" data-name="Trazado 226409" d="M119.555,13.211A4.025,4.025,0,0,1,118.2,16.1a4.76,4.76,0,0,1-3.223,1.055,4.28,4.28,0,0,1-3.441-1.473,6.038,6.038,0,0,1-1.254-4.043v-.7a6.819,6.819,0,0,1,.578-2.891,4.332,4.332,0,0,1,1.652-1.918,5.164,5.164,0,0,1,5.668.387,4.326,4.326,0,0,1,1.391,2.961h-2.344a2.376,2.376,0,0,0-.613-1.6,2.271,2.271,0,0,0-1.605-.5,1.991,1.991,0,0,0-1.754.84,4.707,4.707,0,0,0-.6,2.605V11.7a5.038,5.038,0,0,0,.559,2.7,1.954,1.954,0,0,0,1.762.852,2.314,2.314,0,0,0,1.621-.5,2.241,2.241,0,0,0,.613-1.535ZM125.844,17a2.507,2.507,0,0,1-.227-.758,2.732,2.732,0,0,1-2.133.914,3,3,0,0,1-2.059-.719,2.312,2.312,0,0,1-.816-1.812,2.389,2.389,0,0,1,1-2.062,4.915,4.915,0,0,1,2.879-.727h1.039v-.484a1.393,1.393,0,0,0-.3-.937,1.183,1.183,0,0,0-.949-.352,1.345,1.345,0,0,0-.895.273.929.929,0,0,0-.324.75H120.8a2.268,2.268,0,0,1,.453-1.359,3,3,0,0,1,1.281-.98,4.669,4.669,0,0,1,1.859-.355,3.689,3.689,0,0,1,2.48.785,2.747,2.747,0,0,1,.918,2.207v3.664a4.041,4.041,0,0,0,.336,1.82V17Zm-1.867-1.57a1.945,1.945,0,0,0,.922-.223,1.462,1.462,0,0,0,.625-.6V13.156h-.844q-1.7,0-1.8,1.172l-.008.133a.9.9,0,0,0,.3.7A1.153,1.153,0,0,0,123.977,15.43Zm7.93,1.57h-2.266V5h2.266Zm4.242,0h-2.266V8.547h2.266Zm-2.4-10.641a1.112,1.112,0,0,1,.34-.836,1.465,1.465,0,0,1,1.848,0,1.105,1.105,0,0,1,.344.836,1.109,1.109,0,0,1-.348.844,1.448,1.448,0,0,1-1.836,0A1.109,1.109,0,0,1,133.75,6.359ZM138.555,17V10.2H137.3V8.547h1.258V8.156a3.17,3.17,0,0,1,.98-2.457,3.945,3.945,0,0,1,2.723-.863,9.031,9.031,0,0,1,2.563.461l-.328,1.867a10,10,0,0,0-1.187-.293A5.834,5.834,0,0,0,142.4,6.8q-1.578,0-1.578,1.4v.344h1.664V10.2H140.82V17Zm7.32,0h-2.266V8.547h2.266Zm5.383-1.664a1.481,1.481,0,0,0,1.016-.344,1.2,1.2,0,0,0,.406-.914H154.8a2.9,2.9,0,0,1-.469,1.574,3.093,3.093,0,0,1-1.262,1.109,3.949,3.949,0,0,1-1.77.395A3.67,3.67,0,0,1,148.438,16a4.56,4.56,0,0,1-1.047-3.184v-.148a4.508,4.508,0,0,1,1.039-3.117,3.627,3.627,0,0,1,2.852-1.164,3.555,3.555,0,0,1,2.543.9,3.2,3.2,0,0,1,.973,2.4H152.68a1.551,1.551,0,0,0-.406-1.072,1.51,1.51,0,0,0-2.223.163,3.333,3.333,0,0,0-.4,1.866v.235a3.375,3.375,0,0,0,.4,1.878A1.377,1.377,0,0,0,151.258,15.336ZM160.984,17a2.507,2.507,0,0,1-.227-.758,2.732,2.732,0,0,1-2.133.914,3,3,0,0,1-2.059-.719,2.312,2.312,0,0,1-.816-1.812,2.389,2.389,0,0,1,1-2.062,4.915,4.915,0,0,1,2.879-.727h1.039v-.484a1.393,1.393,0,0,0-.3-.937,1.183,1.183,0,0,0-.949-.352,1.345,1.345,0,0,0-.895.273.929.929,0,0,0-.324.75h-2.258a2.268,2.268,0,0,1,.453-1.359,3,3,0,0,1,1.281-.98,4.669,4.669,0,0,1,1.859-.355,3.689,3.689,0,0,1,2.48.785,2.747,2.747,0,0,1,.918,2.207v3.664a4.041,4.041,0,0,0,.336,1.82V17Zm-1.867-1.57a1.945,1.945,0,0,0,.922-.223,1.462,1.462,0,0,0,.625-.6V13.156h-.844q-1.7,0-1.8,1.172l-.008.133a.9.9,0,0,0,.3.7A1.153,1.153,0,0,0,159.117,15.43Zm9.063-.094a1.481,1.481,0,0,0,1.016-.344,1.2,1.2,0,0,0,.406-.914h2.117a2.9,2.9,0,0,1-.469,1.574,3.093,3.093,0,0,1-1.262,1.109,3.949,3.949,0,0,1-1.77.395A3.67,3.67,0,0,1,165.359,16a4.56,4.56,0,0,1-1.047-3.184v-.148a4.508,4.508,0,0,1,1.039-3.117A3.627,3.627,0,0,1,168.2,8.391a3.555,3.555,0,0,1,2.543.9,3.2,3.2,0,0,1,.973,2.4H169.6a1.551,1.551,0,0,0-.406-1.072,1.51,1.51,0,0,0-2.223.163,3.333,3.333,0,0,0-.4,1.866v.235a3.375,3.375,0,0,0,.4,1.878A1.377,1.377,0,0,0,168.18,15.336ZM175.391,17h-2.266V8.547h2.266Zm-2.4-10.641a1.112,1.112,0,0,1,.34-.836,1.465,1.465,0,0,1,1.848,0,1.105,1.105,0,0,1,.344.836,1.109,1.109,0,0,1-.348.844,1.448,1.448,0,0,1-1.836,0A1.109,1.109,0,0,1,172.992,6.359ZM176.9,12.7a5.013,5.013,0,0,1,.484-2.242,3.546,3.546,0,0,1,1.395-1.523,4.069,4.069,0,0,1,2.113-.539,3.849,3.849,0,0,1,2.793,1.047,4.2,4.2,0,0,1,1.207,2.844l.016.578a4.418,4.418,0,0,1-1.086,3.121,4.209,4.209,0,0,1-5.832,0A4.5,4.5,0,0,1,176.9,12.8Zm2.258.16a3.16,3.16,0,0,0,.453,1.843,1.628,1.628,0,0,0,2.578.008,3.457,3.457,0,0,0,.461-2.015,3.128,3.128,0,0,0-.461-1.831,1.5,1.5,0,0,0-1.3-.649,1.474,1.474,0,0,0-1.281.646A3.516,3.516,0,0,0,179.156,12.856ZM181.336,5H183.8l-2.164,2.422H179.8Zm7.039,3.547.07.977a2.951,2.951,0,0,1,2.43-1.133,2.453,2.453,0,0,1,2,.789,3.682,3.682,0,0,1,.672,2.359V17h-2.258V11.594a1.465,1.465,0,0,0-.312-1.043,1.4,1.4,0,0,0-1.039-.324,1.553,1.553,0,0,0-1.43.813V17H186.25V8.547Z" transform="translate(1011 2542)" fill="#fef536"/>
  </g>
</svg>
