<svg xmlns="http://www.w3.org/2000/svg" width="610" height="342" viewBox="0 0 610 342">
  <g id="Grupo_160030" data-name="Grupo 160030" transform="translate(6400 7421.139)">
    <g id="Trazado_226716" data-name="Trazado 226716" transform="translate(-6400 -7421.139)" fill="#5c22c3">
      <path d="M 84.5 55.5 L 0.5 55.5 L 0.5 0.5 L 84.5 0.5 L 84.5 55.5 Z" stroke="none"/>
      <path d="M 1 1 L 1 55 L 84 55 L 84 1 L 1 1 M 0 0 L 85 0 L 85 56 L 0 56 L 0 0 Z" stroke="none" fill="#5c22c3"/>
    </g>
    <g id="Trazado_226706" data-name="Trazado 226706" transform="translate(-6400 -7366.139)" fill="#fff">
      <path d="M 84.5 26.5 L 0.5 26.5 L 0.5 0.5 L 84.5 0.5 L 84.5 26.5 Z" stroke="none"/>
      <path d="M 1 1 L 1 26 L 84 26 L 84 1 L 1 1 M 0 0 L 85 0 L 85 27 L 0 27 L 0 0 Z" stroke="none" fill="#5c22c3"/>
    </g>
    <g id="Trazado_226686" data-name="Trazado 226686" transform="translate(-6400 -7158.139)" fill="#fff">
      <path d="M 84.5 26.5 L 0.5 26.5 L 0.5 0.5 L 84.5 0.5 L 84.5 26.5 Z" stroke="none"/>
      <path d="M 1 1 L 1 26 L 84 26 L 84 1 L 1 1 M 0 0 L 85 0 L 85 27 L 0 27 L 0 0 Z" stroke="none" fill="#5c22c3"/>
    </g>
    <g id="Trazado_226687" data-name="Trazado 226687" transform="translate(-6400 -7262.139)" fill="#fff">
      <path d="M 84.5 26.5 L 0.5 26.5 L 0.5 0.5 L 84.5 0.5 L 84.5 26.5 Z" stroke="none"/>
      <path d="M 1 1 L 1 26 L 84 26 L 84 1 L 1 1 M 0 0 L 85 0 L 85 27 L 0 27 L 0 0 Z" stroke="none" fill="#5c22c3"/>
    </g>
    <g id="Trazado_226688" data-name="Trazado 226688" transform="translate(-6400 -7314.139)" fill="#fff">
      <path d="M 84.5 26.5 L 0.5 26.5 L 0.5 0.5 L 84.5 0.5 L 84.5 26.5 Z" stroke="none"/>
      <path d="M 1 1 L 1 26 L 84 26 L 84 1 L 1 1 M 0 0 L 85 0 L 85 27 L 0 27 L 0 0 Z" stroke="none" fill="#5c22c3"/>
    </g>
    <g id="Trazado_226689" data-name="Trazado 226689" transform="translate(-6400 -7210.139)" fill="#fff">
      <path d="M 84.5 26.5 L 0.5 26.5 L 0.5 0.5 L 84.5 0.5 L 84.5 26.5 Z" stroke="none"/>
      <path d="M 1 1 L 1 26 L 84 26 L 84 1 L 1 1 M 0 0 L 85 0 L 85 27 L 0 27 L 0 0 Z" stroke="none" fill="#5c22c3"/>
    </g>
    <g id="Trazado_226690" data-name="Trazado 226690" transform="translate(-6400 -7340.139)" fill="#fff">
      <path d="M 84.5 26.5 L 0.5 26.5 L 0.5 0.5 L 84.5 0.5 L 84.5 26.5 Z" stroke="none"/>
      <path d="M 1 1 L 1 26 L 84 26 L 84 1 L 1 1 M 0 0 L 85 0 L 85 27 L 0 27 L 0 0 Z" stroke="none" fill="#5c22c3"/>
    </g>
    <g id="Trazado_226691" data-name="Trazado 226691" transform="translate(-6400 -7132.139)" fill="#fff">
      <path d="M 84.5 26.5 L 0.5 26.5 L 0.5 0.5 L 84.5 0.5 L 84.5 26.5 Z" stroke="none"/>
      <path d="M 1 1 L 1 26 L 84 26 L 84 1 L 1 1 M 0 0 L 85 0 L 85 27 L 0 27 L 0 0 Z" stroke="none" fill="#5c22c3"/>
    </g>
    <g id="Trazado_226692" data-name="Trazado 226692" transform="translate(-6400 -7106.139)" fill="#fff">
      <path d="M 84.5 26.5 L 0.5 26.5 L 0.5 0.5 L 84.5 0.5 L 84.5 26.5 Z" stroke="none"/>
      <path d="M 1 1 L 1 26 L 84 26 L 84 1 L 1 1 M 0 0 L 85 0 L 85 27 L 0 27 L 0 0 Z" stroke="none" fill="#5c22c3"/>
    </g>
    <g id="Trazado_226693" data-name="Trazado 226693" transform="translate(-6400 -7236.139)" fill="#fff">
      <path d="M 84.5 26.5 L 0.5 26.5 L 0.5 0.5 L 84.5 0.5 L 84.5 26.5 Z" stroke="none"/>
      <path d="M 1 1 L 1 26 L 84 26 L 84 1 L 1 1 M 0 0 L 85 0 L 85 27 L 0 27 L 0 0 Z" stroke="none" fill="#5c22c3"/>
    </g>
    <g id="Trazado_226694" data-name="Trazado 226694" transform="translate(-6400 -7288.139)" fill="#fff">
      <path d="M 84.5 26.5 L 0.5 26.5 L 0.5 0.5 L 84.5 0.5 L 84.5 26.5 Z" stroke="none"/>
      <path d="M 1 1 L 1 26 L 84 26 L 84 1 L 1 1 M 0 0 L 85 0 L 85 27 L 0 27 L 0 0 Z" stroke="none" fill="#5c22c3"/>
    </g>
    <g id="Trazado_226695" data-name="Trazado 226695" transform="translate(-6400 -7184.139)" fill="#fff">
      <path d="M 84.5 26.5 L 0.5 26.5 L 0.5 0.5 L 84.5 0.5 L 84.5 26.5 Z" stroke="none"/>
      <path d="M 1 1 L 1 26 L 84 26 L 84 1 L 1 1 M 0 0 L 85 0 L 85 27 L 0 27 L 0 0 Z" stroke="none" fill="#5c22c3"/>
    </g>
    <g id="Trazado_226717" data-name="Trazado 226717" transform="translate(-6316 -7421.139)" fill="#5c22c3">
      <path d="M 99.5 55.5 L 0.5 55.5 L 0.5 0.5 L 99.5 0.5 L 99.5 55.5 Z" stroke="none"/>
      <path d="M 1 1 L 1 55 L 99 55 L 99 1 L 1 1 M 0 0 L 100 0 L 100 56 L 0 56 L 0 0 Z" stroke="none" fill="#5c22c3"/>
    </g>
    <g id="Trazado_226718" data-name="Trazado 226718" transform="translate(-5941 -7421.139)" fill="#5c22c3">
      <path d="M 150.5 55.5 L 0.5 55.5 L 0.5 0.5 L 150.5 0.5 L 150.5 55.5 Z" stroke="none"/>
      <path d="M 1 1 L 1 55 L 150 55 L 150 1 L 1 1 M 0 0 L 151 0 L 151 56 L 0 56 L 0 0 Z" stroke="none" fill="#5c22c3"/>
    </g>
    <g id="Trazado_226719" data-name="Trazado 226719" transform="translate(-6058 -7421.139)" fill="#5c22c3">
      <path d="M 117.5 55.5 L 0.5 55.5 L 0.5 0.5 L 117.5 0.5 L 117.5 55.5 Z" stroke="none"/>
      <path d="M 1 1 L 1 55 L 117 55 L 117 1 L 1 1 M 0 0 L 118 0 L 118 56 L 0 56 L 0 0 Z" stroke="none" fill="#5c22c3"/>
    </g>
    <g id="Trazado_226720" data-name="Trazado 226720" transform="translate(-6217 -7421.139)" fill="#5c22c3">
      <path d="M 161.5 55.5 L 0.5 55.5 L 0.5 0.5 L 161.5 0.5 L 161.5 55.5 Z" stroke="none"/>
      <path d="M 1 1 L 1 55 L 161 55 L 161 1 L 1 1 M 0 0 L 162 0 L 162 56 L 0 56 L 0 0 Z" stroke="none" fill="#5c22c3"/>
    </g>
    <g id="Trazado_226707" data-name="Trazado 226707" transform="translate(-6316 -7366.139)" fill="#fff">
      <path d="M 99.5 26.5 L 0.5 26.5 L 0.5 0.5 L 99.5 0.5 L 99.5 26.5 Z" stroke="none"/>
      <path d="M 1 1 L 1 26 L 99 26 L 99 1 L 1 1 M 0 0 L 100 0 L 100 27 L 0 27 L 0 0 Z" stroke="none" fill="#5c22c3"/>
    </g>
    <g id="Trazado_226708" data-name="Trazado 226708" transform="translate(-5941 -7366.139)" fill="#fff">
      <path d="M 150.5 26.5 L 0.5 26.5 L 0.5 0.5 L 150.5 0.5 L 150.5 26.5 Z" stroke="none"/>
      <path d="M 1 1 L 1 26 L 150 26 L 150 1 L 1 1 M 0 0 L 151 0 L 151 27 L 0 27 L 0 0 Z" stroke="none" fill="#5c22c3"/>
    </g>
    <g id="Trazado_226709" data-name="Trazado 226709" transform="translate(-6058 -7366.139)" fill="#fff">
      <path d="M 117.5 26.5 L 0.5 26.5 L 0.5 0.5 L 117.5 0.5 L 117.5 26.5 Z" stroke="none"/>
      <path d="M 1 1 L 1 26 L 117 26 L 117 1 L 1 1 M 0 0 L 118 0 L 118 27 L 0 27 L 0 0 Z" stroke="none" fill="#5c22c3"/>
    </g>
    <g id="Trazado_226710" data-name="Trazado 226710" transform="translate(-6217 -7366.139)" fill="#fff">
      <path d="M 161.5 26.5 L 0.5 26.5 L 0.5 0.5 L 161.5 0.5 L 161.5 26.5 Z" stroke="none"/>
      <path d="M 1 1 L 1 26 L 161 26 L 161 1 L 1 1 M 0 0 L 162 0 L 162 27 L 0 27 L 0 0 Z" stroke="none" fill="#5c22c3"/>
    </g>
    <g id="Trazado_226654" data-name="Trazado 226654" transform="translate(-6316 -7158.139)" fill="#fff">
      <path d="M 99.5 26.5 L 0.5 26.5 L 0.5 0.5 L 99.5 0.5 L 99.5 26.5 Z" stroke="none"/>
      <path d="M 1 1 L 1 26 L 99 26 L 99 1 L 1 1 M 0 0 L 100 0 L 100 27 L 0 27 L 0 0 Z" stroke="none" fill="#5c22c3"/>
    </g>
    <g id="Trazado_226611" data-name="Trazado 226611" transform="translate(-5941 -7158.139)" fill="#fff">
      <path d="M 150.5 26.5 L 0.5 26.5 L 0.5 0.5 L 150.5 0.5 L 150.5 26.5 Z" stroke="none"/>
      <path d="M 1 1 L 1 26 L 150 26 L 150 1 L 1 1 M 0 0 L 151 0 L 151 27 L 0 27 L 0 0 Z" stroke="none" fill="#5c22c3"/>
    </g>
    <g id="Trazado_226612" data-name="Trazado 226612" transform="translate(-6058 -7158.139)" fill="#fff">
      <path d="M 117.5 26.5 L 0.5 26.5 L 0.5 0.5 L 117.5 0.5 L 117.5 26.5 Z" stroke="none"/>
      <path d="M 1 1 L 1 26 L 117 26 L 117 1 L 1 1 M 0 0 L 118 0 L 118 27 L 0 27 L 0 0 Z" stroke="none" fill="#5c22c3"/>
    </g>
    <g id="Trazado_226625" data-name="Trazado 226625" transform="translate(-6217 -7158.139)" fill="#fff">
      <path d="M 161.5 26.5 L 0.5 26.5 L 0.5 0.5 L 161.5 0.5 L 161.5 26.5 Z" stroke="none"/>
      <path d="M 1 1 L 1 26 L 161 26 L 161 1 L 1 1 M 0 0 L 162 0 L 162 27 L 0 27 L 0 0 Z" stroke="none" fill="#5c22c3"/>
    </g>
    <g id="Trazado_226655" data-name="Trazado 226655" transform="translate(-6316 -7262.139)" fill="#fff">
      <path d="M 99.5 26.5 L 0.5 26.5 L 0.5 0.5 L 99.5 0.5 L 99.5 26.5 Z" stroke="none"/>
      <path d="M 1 1 L 1 26 L 99 26 L 99 1 L 1 1 M 0 0 L 100 0 L 100 27 L 0 27 L 0 0 Z" stroke="none" fill="#5c22c3"/>
    </g>
    <g id="Trazado_226642" data-name="Trazado 226642" transform="translate(-5941 -7262.139)" fill="#fff">
      <path d="M 150.5 26.5 L 0.5 26.5 L 0.5 0.5 L 150.5 0.5 L 150.5 26.5 Z" stroke="none"/>
      <path d="M 1 1 L 1 26 L 150 26 L 150 1 L 1 1 M 0 0 L 151 0 L 151 27 L 0 27 L 0 0 Z" stroke="none" fill="#5c22c3"/>
    </g>
    <g id="Trazado_226643" data-name="Trazado 226643" transform="translate(-6058 -7262.139)" fill="#fff">
      <path d="M 117.5 26.5 L 0.5 26.5 L 0.5 0.5 L 117.5 0.5 L 117.5 26.5 Z" stroke="none"/>
      <path d="M 1 1 L 1 26 L 117 26 L 117 1 L 1 1 M 0 0 L 118 0 L 118 27 L 0 27 L 0 0 Z" stroke="none" fill="#5c22c3"/>
    </g>
    <g id="Trazado_226644" data-name="Trazado 226644" transform="translate(-6217 -7262.139)" fill="#fff">
      <path d="M 161.5 26.5 L 0.5 26.5 L 0.5 0.5 L 161.5 0.5 L 161.5 26.5 Z" stroke="none"/>
      <path d="M 1 1 L 1 26 L 161 26 L 161 1 L 1 1 M 0 0 L 162 0 L 162 27 L 0 27 L 0 0 Z" stroke="none" fill="#5c22c3"/>
    </g>
    <g id="Trazado_226670" data-name="Trazado 226670" transform="translate(-6316 -7314.139)" fill="#fff">
      <path d="M 99.5 26.5 L 0.5 26.5 L 0.5 0.5 L 99.5 0.5 L 99.5 26.5 Z" stroke="none"/>
      <path d="M 1 1 L 1 26 L 99 26 L 99 1 L 1 1 M 0 0 L 100 0 L 100 27 L 0 27 L 0 0 Z" stroke="none" fill="#5c22c3"/>
    </g>
    <g id="Trazado_226671" data-name="Trazado 226671" transform="translate(-5941 -7314.139)" fill="#fff">
      <path d="M 150.5 26.5 L 0.5 26.5 L 0.5 0.5 L 150.5 0.5 L 150.5 26.5 Z" stroke="none"/>
      <path d="M 1 1 L 1 26 L 150 26 L 150 1 L 1 1 M 0 0 L 151 0 L 151 27 L 0 27 L 0 0 Z" stroke="none" fill="#5c22c3"/>
    </g>
    <g id="Trazado_226672" data-name="Trazado 226672" transform="translate(-6058 -7314.139)" fill="#fff">
      <path d="M 117.5 26.5 L 0.5 26.5 L 0.5 0.5 L 117.5 0.5 L 117.5 26.5 Z" stroke="none"/>
      <path d="M 1 1 L 1 26 L 117 26 L 117 1 L 1 1 M 0 0 L 118 0 L 118 27 L 0 27 L 0 0 Z" stroke="none" fill="#5c22c3"/>
    </g>
    <g id="Trazado_226673" data-name="Trazado 226673" transform="translate(-6217 -7314.139)" fill="#fff">
      <path d="M 161.5 26.5 L 0.5 26.5 L 0.5 0.5 L 161.5 0.5 L 161.5 26.5 Z" stroke="none"/>
      <path d="M 1 1 L 1 26 L 161 26 L 161 1 L 1 1 M 0 0 L 162 0 L 162 27 L 0 27 L 0 0 Z" stroke="none" fill="#5c22c3"/>
    </g>
    <g id="Trazado_226656" data-name="Trazado 226656" transform="translate(-6316 -7210.139)" fill="#fff">
      <path d="M 99.5 26.5 L 0.5 26.5 L 0.5 0.5 L 99.5 0.5 L 99.5 26.5 Z" stroke="none"/>
      <path d="M 1 1 L 1 26 L 99 26 L 99 1 L 1 1 M 0 0 L 100 0 L 100 27 L 0 27 L 0 0 Z" stroke="none" fill="#5c22c3"/>
    </g>
    <g id="Trazado_226623" data-name="Trazado 226623" transform="translate(-5941 -7210.139)" fill="#fff">
      <path d="M 150.5 26.5 L 0.5 26.5 L 0.5 0.5 L 150.5 0.5 L 150.5 26.5 Z" stroke="none"/>
      <path d="M 1 1 L 1 26 L 150 26 L 150 1 L 1 1 M 0 0 L 151 0 L 151 27 L 0 27 L 0 0 Z" stroke="none" fill="#5c22c3"/>
    </g>
    <g id="Trazado_226624" data-name="Trazado 226624" transform="translate(-6058 -7210.139)" fill="#fff">
      <path d="M 117.5 26.5 L 0.5 26.5 L 0.5 0.5 L 117.5 0.5 L 117.5 26.5 Z" stroke="none"/>
      <path d="M 1 1 L 1 26 L 117 26 L 117 1 L 1 1 M 0 0 L 118 0 L 118 27 L 0 27 L 0 0 Z" stroke="none" fill="#5c22c3"/>
    </g>
    <g id="Trazado_226626" data-name="Trazado 226626" transform="translate(-6217 -7210.139)" fill="#fff">
      <path d="M 161.5 26.5 L 0.5 26.5 L 0.5 0.5 L 161.5 0.5 L 161.5 26.5 Z" stroke="none"/>
      <path d="M 1 1 L 1 26 L 161 26 L 161 1 L 1 1 M 0 0 L 162 0 L 162 27 L 0 27 L 0 0 Z" stroke="none" fill="#5c22c3"/>
    </g>
    <g id="Trazado_226678" data-name="Trazado 226678" transform="translate(-6316 -7340.139)" fill="#fff">
      <path d="M 99.5 26.5 L 0.5 26.5 L 0.5 0.5 L 99.5 0.5 L 99.5 26.5 Z" stroke="none"/>
      <path d="M 1 1 L 1 26 L 99 26 L 99 1 L 1 1 M 0 0 L 100 0 L 100 27 L 0 27 L 0 0 Z" stroke="none" fill="#5c22c3"/>
    </g>
    <g id="Trazado_226679" data-name="Trazado 226679" transform="translate(-5941 -7340.139)" fill="#fff">
      <path d="M 150.5 26.5 L 0.5 26.5 L 0.5 0.5 L 150.5 0.5 L 150.5 26.5 Z" stroke="none"/>
      <path d="M 1 1 L 1 26 L 150 26 L 150 1 L 1 1 M 0 0 L 151 0 L 151 27 L 0 27 L 0 0 Z" stroke="none" fill="#5c22c3"/>
    </g>
    <g id="Trazado_226680" data-name="Trazado 226680" transform="translate(-6058 -7340.139)" fill="#fff">
      <path d="M 117.5 26.5 L 0.5 26.5 L 0.5 0.5 L 117.5 0.5 L 117.5 26.5 Z" stroke="none"/>
      <path d="M 1 1 L 1 26 L 117 26 L 117 1 L 1 1 M 0 0 L 118 0 L 118 27 L 0 27 L 0 0 Z" stroke="none" fill="#5c22c3"/>
    </g>
    <g id="Trazado_226681" data-name="Trazado 226681" transform="translate(-6217 -7340.139)" fill="#fff">
      <path d="M 161.5 26.5 L 0.5 26.5 L 0.5 0.5 L 161.5 0.5 L 161.5 26.5 Z" stroke="none"/>
      <path d="M 1 1 L 1 26 L 161 26 L 161 1 L 1 1 M 0 0 L 162 0 L 162 27 L 0 27 L 0 0 Z" stroke="none" fill="#5c22c3"/>
    </g>
    <g id="Trazado_226657" data-name="Trazado 226657" transform="translate(-6316 -7132.139)" fill="#fff">
      <path d="M 99.5 26.5 L 0.5 26.5 L 0.5 0.5 L 99.5 0.5 L 99.5 26.5 Z" stroke="none"/>
      <path d="M 1 1 L 1 26 L 99 26 L 99 1 L 1 1 M 0 0 L 100 0 L 100 27 L 0 27 L 0 0 Z" stroke="none" fill="#5c22c3"/>
    </g>
    <g id="Trazado_226658" data-name="Trazado 226658" transform="translate(-6316 -7106.139)" fill="#fff">
      <path d="M 99.5 26.5 L 0.5 26.5 L 0.5 0.5 L 99.5 0.5 L 99.5 26.5 Z" stroke="none"/>
      <path d="M 1 1 L 1 26 L 99 26 L 99 1 L 1 1 M 0 0 L 100 0 L 100 27 L 0 27 L 0 0 Z" stroke="none" fill="#5c22c3"/>
    </g>
    <g id="Trazado_226609" data-name="Trazado 226609" transform="translate(-5941 -7132.139)" fill="#fff">
      <path d="M 150.5 26.5 L 0.5 26.5 L 0.5 0.5 L 150.5 0.5 L 150.5 26.5 Z" stroke="none"/>
      <path d="M 1 1 L 1 26 L 150 26 L 150 1 L 1 1 M 0 0 L 151 0 L 151 27 L 0 27 L 0 0 Z" stroke="none" fill="#5c22c3"/>
    </g>
    <g id="Trazado_226608" data-name="Trazado 226608" transform="translate(-5941 -7106.139)" fill="#fff">
      <path d="M 150.5 26.5 L 0.5 26.5 L 0.5 0.5 L 150.5 0.5 L 150.5 26.5 Z" stroke="none"/>
      <path d="M 1 1 L 1 26 L 150 26 L 150 1 L 1 1 M 0 0 L 151 0 L 151 27 L 0 27 L 0 0 Z" stroke="none" fill="#5c22c3"/>
    </g>
    <g id="Trazado_226613" data-name="Trazado 226613" transform="translate(-6058 -7132.139)" fill="#fff">
      <path d="M 117.5 26.5 L 0.5 26.5 L 0.5 0.5 L 117.5 0.5 L 117.5 26.5 Z" stroke="none"/>
      <path d="M 1 1 L 1 26 L 117 26 L 117 1 L 1 1 M 0 0 L 118 0 L 118 27 L 0 27 L 0 0 Z" stroke="none" fill="#5c22c3"/>
    </g>
    <g id="Trazado_226614" data-name="Trazado 226614" transform="translate(-6058 -7106.139)" fill="#fff">
      <path d="M 117.5 26.5 L 0.5 26.5 L 0.5 0.5 L 117.5 0.5 L 117.5 26.5 Z" stroke="none"/>
      <path d="M 1 1 L 1 26 L 117 26 L 117 1 L 1 1 M 0 0 L 118 0 L 118 27 L 0 27 L 0 0 Z" stroke="none" fill="#5c22c3"/>
    </g>
    <g id="Trazado_226627" data-name="Trazado 226627" transform="translate(-6217 -7132.139)" fill="#fff">
      <path d="M 161.5 26.5 L 0.5 26.5 L 0.5 0.5 L 161.5 0.5 L 161.5 26.5 Z" stroke="none"/>
      <path d="M 1 1 L 1 26 L 161 26 L 161 1 L 1 1 M 0 0 L 162 0 L 162 27 L 0 27 L 0 0 Z" stroke="none" fill="#5c22c3"/>
    </g>
    <g id="Trazado_226628" data-name="Trazado 226628" transform="translate(-6217 -7106.139)" fill="#fff">
      <path d="M 161.5 26.5 L 0.5 26.5 L 0.5 0.5 L 161.5 0.5 L 161.5 26.5 Z" stroke="none"/>
      <path d="M 1 1 L 1 26 L 161 26 L 161 1 L 1 1 M 0 0 L 162 0 L 162 27 L 0 27 L 0 0 Z" stroke="none" fill="#5c22c3"/>
    </g>
    <g id="Trazado_226659" data-name="Trazado 226659" transform="translate(-6316 -7236.139)" fill="#fff">
      <path d="M 99.5 26.5 L 0.5 26.5 L 0.5 0.5 L 99.5 0.5 L 99.5 26.5 Z" stroke="none"/>
      <path d="M 1 1 L 1 26 L 99 26 L 99 1 L 1 1 M 0 0 L 100 0 L 100 27 L 0 27 L 0 0 Z" stroke="none" fill="#5c22c3"/>
    </g>
    <g id="Trazado_226636" data-name="Trazado 226636" transform="translate(-5941 -7236.139)" fill="#fff">
      <path d="M 150.5 26.5 L 0.5 26.5 L 0.5 0.5 L 150.5 0.5 L 150.5 26.5 Z" stroke="none"/>
      <path d="M 1 1 L 1 26 L 150 26 L 150 1 L 1 1 M 0 0 L 151 0 L 151 27 L 0 27 L 0 0 Z" stroke="none" fill="#5c22c3"/>
    </g>
    <g id="Trazado_226637" data-name="Trazado 226637" transform="translate(-6058 -7236.139)" fill="#fff">
      <path d="M 117.5 26.5 L 0.5 26.5 L 0.5 0.5 L 117.5 0.5 L 117.5 26.5 Z" stroke="none"/>
      <path d="M 1 1 L 1 26 L 117 26 L 117 1 L 1 1 M 0 0 L 118 0 L 118 27 L 0 27 L 0 0 Z" stroke="none" fill="#5c22c3"/>
    </g>
    <g id="Trazado_226638" data-name="Trazado 226638" transform="translate(-6217 -7236.139)" fill="#fff">
      <path d="M 161.5 26.5 L 0.5 26.5 L 0.5 0.5 L 161.5 0.5 L 161.5 26.5 Z" stroke="none"/>
      <path d="M 1 1 L 1 26 L 161 26 L 161 1 L 1 1 M 0 0 L 162 0 L 162 27 L 0 27 L 0 0 Z" stroke="none" fill="#5c22c3"/>
    </g>
    <g id="Trazado_226660" data-name="Trazado 226660" transform="translate(-6316 -7288.139)" fill="#fff">
      <path d="M 99.5 26.5 L 0.5 26.5 L 0.5 0.5 L 99.5 0.5 L 99.5 26.5 Z" stroke="none"/>
      <path d="M 1 1 L 1 26 L 99 26 L 99 1 L 1 1 M 0 0 L 100 0 L 100 27 L 0 27 L 0 0 Z" stroke="none" fill="#5c22c3"/>
    </g>
    <g id="Trazado_226648" data-name="Trazado 226648" transform="translate(-5941 -7288.139)" fill="#fff">
      <path d="M 150.5 26.5 L 0.5 26.5 L 0.5 0.5 L 150.5 0.5 L 150.5 26.5 Z" stroke="none"/>
      <path d="M 1 1 L 1 26 L 150 26 L 150 1 L 1 1 M 0 0 L 151 0 L 151 27 L 0 27 L 0 0 Z" stroke="none" fill="#5c22c3"/>
    </g>
    <g id="Trazado_226649" data-name="Trazado 226649" transform="translate(-6058 -7288.139)" fill="#fff">
      <path d="M 117.5 26.5 L 0.5 26.5 L 0.5 0.5 L 117.5 0.5 L 117.5 26.5 Z" stroke="none"/>
      <path d="M 1 1 L 1 26 L 117 26 L 117 1 L 1 1 M 0 0 L 118 0 L 118 27 L 0 27 L 0 0 Z" stroke="none" fill="#5c22c3"/>
    </g>
    <g id="Trazado_226650" data-name="Trazado 226650" transform="translate(-6217 -7288.139)" fill="#fff">
      <path d="M 161.5 26.5 L 0.5 26.5 L 0.5 0.5 L 161.5 0.5 L 161.5 26.5 Z" stroke="none"/>
      <path d="M 1 1 L 1 26 L 161 26 L 161 1 L 1 1 M 0 0 L 162 0 L 162 27 L 0 27 L 0 0 Z" stroke="none" fill="#5c22c3"/>
    </g>
    <g id="Trazado_226661" data-name="Trazado 226661" transform="translate(-6316 -7184.139)" fill="#fff">
      <path d="M 99.5 26.5 L 0.5 26.5 L 0.5 0.5 L 99.5 0.5 L 99.5 26.5 Z" stroke="none"/>
      <path d="M 1 1 L 1 26 L 99 26 L 99 1 L 1 1 M 0 0 L 100 0 L 100 27 L 0 27 L 0 0 Z" stroke="none" fill="#5c22c3"/>
    </g>
    <g id="Trazado_226619" data-name="Trazado 226619" transform="translate(-5941 -7184.139)" fill="#fff">
      <path d="M 150.5 26.5 L 0.5 26.5 L 0.5 0.5 L 150.5 0.5 L 150.5 26.5 Z" stroke="none"/>
      <path d="M 1 1 L 1 26 L 150 26 L 150 1 L 1 1 M 0 0 L 151 0 L 151 27 L 0 27 L 0 0 Z" stroke="none" fill="#5c22c3"/>
    </g>
    <g id="Trazado_226620" data-name="Trazado 226620" transform="translate(-6058 -7184.139)" fill="#fff">
      <path d="M 117.5 26.5 L 0.5 26.5 L 0.5 0.5 L 117.5 0.5 L 117.5 26.5 Z" stroke="none"/>
      <path d="M 1 1 L 1 26 L 117 26 L 117 1 L 1 1 M 0 0 L 118 0 L 118 27 L 0 27 L 0 0 Z" stroke="none" fill="#5c22c3"/>
    </g>
    <g id="Trazado_226629" data-name="Trazado 226629" transform="translate(-6217 -7184.139)" fill="#fff">
      <path d="M 161.5 26.5 L 0.5 26.5 L 0.5 0.5 L 161.5 0.5 L 161.5 26.5 Z" stroke="none"/>
      <path d="M 1 1 L 1 26 L 161 26 L 161 1 L 1 1 M 0 0 L 162 0 L 162 27 L 0 27 L 0 0 Z" stroke="none" fill="#5c22c3"/>
    </g>
    <path id="Trazado_226725" data-name="Trazado 226725" d="M30.988,17H28.645L24.082,9.516V17H21.738V5.625h2.344l4.57,7.5v-7.5h2.336Zm1.547-4.3a5.013,5.013,0,0,1,.484-2.242A3.546,3.546,0,0,1,34.414,8.93a4.069,4.069,0,0,1,2.113-.539A3.849,3.849,0,0,1,39.32,9.438a4.2,4.2,0,0,1,1.207,2.844l.016.578a4.418,4.418,0,0,1-1.086,3.121,4.209,4.209,0,0,1-5.832,0,4.5,4.5,0,0,1-1.09-3.187Zm2.258.16a3.16,3.16,0,0,0,.453,1.843,1.628,1.628,0,0,0,2.578.008,3.457,3.457,0,0,0,.461-2.015,3.128,3.128,0,0,0-.461-1.831,1.5,1.5,0,0,0-1.3-.649,1.474,1.474,0,0,0-1.281.646A3.516,3.516,0,0,0,34.793,12.856Zm9.844-6.387V8.547h1.445V10.2H44.637v4.219a1.007,1.007,0,0,0,.18.672.9.9,0,0,0,.688.2,3.6,3.6,0,0,0,.664-.055v1.711a4.648,4.648,0,0,1-1.367.2,2.156,2.156,0,0,1-2.422-2.4V10.2H41.145V8.547h1.234V6.469ZM52.238,17a2.507,2.507,0,0,1-.227-.758,2.732,2.732,0,0,1-2.133.914,3,3,0,0,1-2.059-.719A2.312,2.312,0,0,1,47,14.625a2.389,2.389,0,0,1,1-2.062,4.915,4.915,0,0,1,2.879-.727h1.039v-.484a1.393,1.393,0,0,0-.3-.937,1.183,1.183,0,0,0-.949-.352,1.345,1.345,0,0,0-.895.273.929.929,0,0,0-.324.75H47.191a2.268,2.268,0,0,1,.453-1.359,3,3,0,0,1,1.281-.98,4.669,4.669,0,0,1,1.859-.355,3.689,3.689,0,0,1,2.48.785,2.747,2.747,0,0,1,.918,2.207v3.664a4.041,4.041,0,0,0,.336,1.82V17Zm-1.867-1.57a1.945,1.945,0,0,0,.922-.223,1.462,1.462,0,0,0,.625-.6V13.156h-.844q-1.7,0-1.8,1.172l-.008.133a.9.9,0,0,0,.3.7A1.153,1.153,0,0,0,50.371,15.43ZM60.5,14.664a.727.727,0,0,0-.41-.652,4.659,4.659,0,0,0-1.316-.426q-3.016-.633-3.016-2.562a2.323,2.323,0,0,1,.934-1.879,3.766,3.766,0,0,1,2.441-.754,4.053,4.053,0,0,1,2.574.758,2.388,2.388,0,0,1,.965,1.969H60.41a1.092,1.092,0,0,0-.312-.8A1.322,1.322,0,0,0,59.121,10a1.351,1.351,0,0,0-.883.258.814.814,0,0,0-.312.656.7.7,0,0,0,.355.605,3.657,3.657,0,0,0,1.2.4A9.8,9.8,0,0,1,60.9,12.3a2.336,2.336,0,0,1,1.789,2.273,2.2,2.2,0,0,1-.992,1.871,4.28,4.28,0,0,1-2.562.715,4.47,4.47,0,0,1-1.887-.379,3.166,3.166,0,0,1-1.293-1.039,2.414,2.414,0,0,1-.469-1.426h2.141a1.179,1.179,0,0,0,.445.922,1.766,1.766,0,0,0,1.109.32,1.635,1.635,0,0,0,.98-.246A.766.766,0,0,0,60.5,14.664Z" transform="translate(-6400 -7402.139)" fill="#fef536"/>
    <path id="Trazado_226711" data-name="Trazado 226711" d="M5.7,17H4.242V7.367L1.328,8.438V7.125L5.469,5.57H5.7Z" transform="translate(-6390 -7362.139)" fill="#12263f"/>
    <path id="Trazado_226696" data-name="Trazado 226696" d="M6.484,12a3.536,3.536,0,0,1-1.082.867,2.936,2.936,0,0,1-1.379.328,3.031,3.031,0,0,1-1.715-.484A3.149,3.149,0,0,1,1.18,11.348a4.648,4.648,0,0,1-.4-1.941,4.735,4.735,0,0,1,.434-2.055,3.185,3.185,0,0,1,1.23-1.4A3.509,3.509,0,0,1,4.3,5.469,3.177,3.177,0,0,1,6.965,6.73a5.5,5.5,0,0,1,.973,3.441v.422q0,3.32-1.312,4.848a5.043,5.043,0,0,1-3.961,1.566H2.383V15.781h.3a3.979,3.979,0,0,0,2.75-.932A4,4,0,0,0,6.484,12ZM4.258,12a2.232,2.232,0,0,0,1.34-.445,2.625,2.625,0,0,0,.895-1.1V9.875a3.977,3.977,0,0,0-.617-2.312A1.887,1.887,0,0,0,2.781,7.4,3.013,3.013,0,0,0,2.2,9.328a3.136,3.136,0,0,0,.559,1.918A1.769,1.769,0,0,0,4.258,12Z" transform="translate(-6390 -7154.139)" fill="#12263f"/>
    <path id="Trazado_226697" data-name="Trazado 226697" d="M1.609,11.3l.578-5.672H8.016V6.961h-4.6l-.344,3.1a3.671,3.671,0,0,1,1.9-.492A3.138,3.138,0,0,1,7.438,10.6a4.026,4.026,0,0,1,.914,2.777,3.886,3.886,0,0,1-.949,2.77A3.46,3.46,0,0,1,4.75,17.156a3.6,3.6,0,0,1-2.461-.836A3.337,3.337,0,0,1,1.2,14.008H2.57a2.3,2.3,0,0,0,.7,1.473,2.162,2.162,0,0,0,1.484.5,1.95,1.95,0,0,0,1.582-.687,2.874,2.874,0,0,0,.574-1.9,2.638,2.638,0,0,0-.621-1.832,2.113,2.113,0,0,0-1.652-.691,2.383,2.383,0,0,0-1.484.414l-.383.313Z" transform="translate(-6390 -7258.139)" fill="#12263f"/>
    <path id="Trazado_226698" data-name="Trazado 226698" d="M3.047,10.609H4.133a2.387,2.387,0,0,0,1.609-.539,1.8,1.8,0,0,0,.586-1.414,1.764,1.764,0,0,0-1.992-2,2.072,2.072,0,0,0-1.5.535,1.873,1.873,0,0,0-.559,1.418H.836a2.9,2.9,0,0,1,.988-2.246,3.6,3.6,0,0,1,2.512-.895,3.558,3.558,0,0,1,2.523.852,3.076,3.076,0,0,1,.914,2.367,2.5,2.5,0,0,1-.48,1.438,2.9,2.9,0,0,1-1.309,1.039,2.8,2.8,0,0,1,1.449.984,2.734,2.734,0,0,1,.512,1.68,3.1,3.1,0,0,1-1,2.43,3.745,3.745,0,0,1-2.6.9,3.844,3.844,0,0,1-2.605-.867A2.877,2.877,0,0,1,.734,14H2.188a1.859,1.859,0,0,0,.586,1.438,2.229,2.229,0,0,0,1.57.539,2.187,2.187,0,0,0,1.6-.547,2.108,2.108,0,0,0,.555-1.57,1.912,1.912,0,0,0-.609-1.523,2.655,2.655,0,0,0-1.758-.547H3.047Z" transform="translate(-6390 -7310.139)" fill="#12263f"/>
    <path id="Trazado_226699" data-name="Trazado 226699" d="M8.289,6.438,3.578,17H2.063l4.7-10.187H.6V5.625H8.289Z" transform="translate(-6390 -7206.139)" fill="#12263f"/>
    <path id="Trazado_226700" data-name="Trazado 226700" d="M8.4,17H.945V15.961l3.938-4.375A9.355,9.355,0,0,0,6.09,9.973a2.693,2.693,0,0,0,.332-1.285,2.041,2.041,0,0,0-.539-1.461,1.885,1.885,0,0,0-1.437-.57A2.232,2.232,0,0,0,2.77,7.27a2.343,2.343,0,0,0-.6,1.707H.727A3.355,3.355,0,0,1,1.738,6.438a3.751,3.751,0,0,1,2.707-.969A3.6,3.6,0,0,1,6.953,6.3a2.838,2.838,0,0,1,.922,2.215q0,1.68-2.141,4l-3.047,3.3H8.4Z" transform="translate(-6390 -7336.139)" fill="#12263f"/>
    <path id="Trazado_226701" data-name="Trazado 226701" d="M5.7,17H4.242V7.367L1.328,8.438V7.125L5.469,5.57H5.7Zm11.367-4.852a6.61,6.61,0,0,1-.867,3.773,3.084,3.084,0,0,1-2.711,1.234,3.107,3.107,0,0,1-2.7-1.207,6.274,6.274,0,0,1-.906-3.605v-1.93a6.463,6.463,0,0,1,.867-3.727,3.108,3.108,0,0,1,2.719-1.219,3.136,3.136,0,0,1,2.7,1.176,6.237,6.237,0,0,1,.891,3.629Zm-1.445-1.977A5.3,5.3,0,0,0,15.1,7.5a1.775,1.775,0,0,0-1.633-.84,1.751,1.751,0,0,0-1.617.836,5.171,5.171,0,0,0-.523,2.57v2.313a5.381,5.381,0,0,0,.535,2.723,1.771,1.771,0,0,0,1.621.879,1.747,1.747,0,0,0,1.59-.828,5.186,5.186,0,0,0,.543-2.609Z" transform="translate(-6390 -7128.139)" fill="#12263f"/>
    <path id="Trazado_226702" data-name="Trazado 226702" d="M9.18,6.852H5.523V17H4.031V6.852H.383V5.625h8.8Zm.3,5.844a4.993,4.993,0,0,1,.488-2.234A3.643,3.643,0,0,1,11.332,8.93a3.7,3.7,0,0,1,1.988-.539,3.565,3.565,0,0,1,2.793,1.2,4.6,4.6,0,0,1,1.066,3.18v.1a5.036,5.036,0,0,1-.473,2.215,3.589,3.589,0,0,1-1.352,1.527,3.743,3.743,0,0,1-2.02.547,3.556,3.556,0,0,1-2.785-1.2A4.575,4.575,0,0,1,9.484,12.8Zm1.453.172a3.616,3.616,0,0,0,.652,2.258,2.211,2.211,0,0,0,3.5-.012,3.955,3.955,0,0,0,.648-2.418,3.61,3.61,0,0,0-.66-2.254,2.1,2.1,0,0,0-1.754-.863,2.075,2.075,0,0,0-1.727.852A3.925,3.925,0,0,0,10.938,12.867ZM20.953,6.5V8.547h1.578V9.664H20.953v5.249a1.173,1.173,0,0,0,.211.763.888.888,0,0,0,.719.254,3.5,3.5,0,0,0,.688-.094V17a4.215,4.215,0,0,1-1.109.155A1.8,1.8,0,0,1,20,16.57a2.517,2.517,0,0,1-.492-1.664V9.664H17.969V8.547h1.539V6.5ZM29.438,17a3.036,3.036,0,0,1-.2-.891,3.225,3.225,0,0,1-2.406,1.047,2.984,2.984,0,0,1-2.051-.707,2.287,2.287,0,0,1-.8-1.793,2.39,2.39,0,0,1,1-2.051,4.733,4.733,0,0,1,2.824-.73h1.406v-.664A1.623,1.623,0,0,0,28.758,10a1.821,1.821,0,0,0-1.336-.449,2.107,2.107,0,0,0-1.3.391,1.151,1.151,0,0,0-.523.945H24.148A2,2,0,0,1,24.6,9.668a3.066,3.066,0,0,1,1.219-.934,4.1,4.1,0,0,1,1.691-.344,3.342,3.342,0,0,1,2.289.73,2.635,2.635,0,0,1,.859,2.012v3.891a4.757,4.757,0,0,0,.3,1.852V17Zm-2.4-1.1a2.54,2.54,0,0,0,1.289-.352,2.127,2.127,0,0,0,.883-.914V12.9H28.078q-2.656,0-2.656,1.555a1.316,1.316,0,0,0,.453,1.063A1.742,1.742,0,0,0,27.039,15.9ZM34.492,17H33.047V5h1.445Z" transform="translate(-6390 -7102.139)" fill="#12263f"/>
    <path id="Trazado_226703" data-name="Trazado 226703" d="M6.617,5.617V6.844H6.352a3.805,3.805,0,0,0-2.687,1A4.161,4.161,0,0,0,2.508,10.57,3.085,3.085,0,0,1,4.961,9.539a2.95,2.95,0,0,1,2.371,1.047,4.038,4.038,0,0,1,.887,2.7A4.025,4.025,0,0,1,7.262,16.1,3.3,3.3,0,0,1,4.7,17.156,3.247,3.247,0,0,1,2.047,15.9a4.97,4.97,0,0,1-1.016-3.23v-.555a7.488,7.488,0,0,1,1.34-4.8,4.921,4.921,0,0,1,3.988-1.7Zm-1.9,5.125a2.306,2.306,0,0,0-1.367.445A2.32,2.32,0,0,0,2.484,12.3v.531A3.731,3.731,0,0,0,3.117,15.1a1.9,1.9,0,0,0,1.578.859,1.838,1.838,0,0,0,1.535-.719,2.982,2.982,0,0,0,.559-1.883,2.983,2.983,0,0,0-.566-1.895A1.816,1.816,0,0,0,4.719,10.742Z" transform="translate(-6390 -7232.139)" fill="#12263f"/>
    <path id="Trazado_226704" data-name="Trazado 226704" d="M7.047,13.18H8.625v1.18H7.047V17H5.594V14.359H.414v-.852L5.508,5.625H7.047Zm-4.992,0H5.594V7.6l-.172.313Z" transform="translate(-6390 -7284.139)" fill="#12263f"/>
    <path id="Trazado_226705" data-name="Trazado 226705" d="M7.844,8.594a2.641,2.641,0,0,1-.449,1.516A3.057,3.057,0,0,1,6.18,11.148a3.26,3.26,0,0,1,1.41,1.117,2.811,2.811,0,0,1,.52,1.664,2.972,2.972,0,0,1-1,2.352,3.827,3.827,0,0,1-2.621.875,3.81,3.81,0,0,1-2.629-.879A2.986,2.986,0,0,1,.875,13.93a2.9,2.9,0,0,1,.5-1.664,3.136,3.136,0,0,1,1.395-1.125,2.981,2.981,0,0,1-1.2-1.039,2.679,2.679,0,0,1-.437-1.508,2.94,2.94,0,0,1,.922-2.281,3.458,3.458,0,0,1,2.43-.844,3.461,3.461,0,0,1,2.426.844A2.934,2.934,0,0,1,7.844,8.594Zm-1.18,5.3a2.1,2.1,0,0,0-.605-1.555,2.147,2.147,0,0,0-1.582-.6,2.11,2.11,0,0,0-1.566.594A2.12,2.12,0,0,0,2.32,13.9a2.019,2.019,0,0,0,.574,1.523,2.2,2.2,0,0,0,1.6.555,2.2,2.2,0,0,0,1.594-.559A2.014,2.014,0,0,0,6.664,13.9ZM4.492,6.656a1.865,1.865,0,0,0-1.379.527,1.937,1.937,0,0,0-.527,1.434,1.928,1.928,0,0,0,.52,1.4,1.844,1.844,0,0,0,1.387.535,1.844,1.844,0,0,0,1.387-.535,1.928,1.928,0,0,0,.52-1.4A1.929,1.929,0,0,0,5.859,7.2,1.839,1.839,0,0,0,4.492,6.656Z" transform="translate(-6390 -7180.139)" fill="#12263f"/>
    <path id="Trazado_226712" data-name="Trazado 226712" d="M8.078,12.148a6.61,6.61,0,0,1-.867,3.773A3.084,3.084,0,0,1,4.5,17.156a3.107,3.107,0,0,1-2.7-1.207A6.274,6.274,0,0,1,.9,12.344v-1.93a6.463,6.463,0,0,1,.867-3.727A3.108,3.108,0,0,1,4.484,5.469a3.136,3.136,0,0,1,2.7,1.176,6.237,6.237,0,0,1,.891,3.629ZM6.633,10.172A5.3,5.3,0,0,0,6.117,7.5a1.775,1.775,0,0,0-1.633-.84,1.751,1.751,0,0,0-1.617.836,5.171,5.171,0,0,0-.523,2.57v2.313A5.381,5.381,0,0,0,2.879,15.1a1.771,1.771,0,0,0,1.621.879,1.747,1.747,0,0,0,1.59-.828,5.186,5.186,0,0,0,.543-2.609Z" transform="translate(-6305 -7362.139)" fill="#12263f"/>
    <path id="Trazado_226713" data-name="Trazado 226713" d="M8.078,12.148a6.61,6.61,0,0,1-.867,3.773A3.084,3.084,0,0,1,4.5,17.156a3.107,3.107,0,0,1-2.7-1.207A6.274,6.274,0,0,1,.9,12.344v-1.93a6.463,6.463,0,0,1,.867-3.727A3.108,3.108,0,0,1,4.484,5.469a3.136,3.136,0,0,1,2.7,1.176,6.237,6.237,0,0,1,.891,3.629ZM6.633,10.172A5.3,5.3,0,0,0,6.117,7.5a1.775,1.775,0,0,0-1.633-.84,1.751,1.751,0,0,0-1.617.836,5.171,5.171,0,0,0-.523,2.57v2.313A5.381,5.381,0,0,0,2.879,15.1a1.771,1.771,0,0,0,1.621.879,1.747,1.747,0,0,0,1.59-.828,5.186,5.186,0,0,0,.543-2.609Z" transform="translate(-5930 -7362.139)" fill="#12263f"/>
    <path id="Trazado_226714" data-name="Trazado 226714" d="M8.078,12.148a6.61,6.61,0,0,1-.867,3.773A3.084,3.084,0,0,1,4.5,17.156a3.107,3.107,0,0,1-2.7-1.207A6.274,6.274,0,0,1,.9,12.344v-1.93a6.463,6.463,0,0,1,.867-3.727A3.108,3.108,0,0,1,4.484,5.469a3.136,3.136,0,0,1,2.7,1.176,6.237,6.237,0,0,1,.891,3.629ZM6.633,10.172A5.3,5.3,0,0,0,6.117,7.5a1.775,1.775,0,0,0-1.633-.84,1.751,1.751,0,0,0-1.617.836,5.171,5.171,0,0,0-.523,2.57v2.313A5.381,5.381,0,0,0,2.879,15.1a1.771,1.771,0,0,0,1.621.879,1.747,1.747,0,0,0,1.59-.828,5.186,5.186,0,0,0,.543-2.609Z" transform="translate(-6047 -7362.139)" fill="#12263f"/>
    <path id="Trazado_226715" data-name="Trazado 226715" d="M8.078,12.148a6.61,6.61,0,0,1-.867,3.773A3.084,3.084,0,0,1,4.5,17.156a3.107,3.107,0,0,1-2.7-1.207A6.274,6.274,0,0,1,.9,12.344v-1.93a6.463,6.463,0,0,1,.867-3.727A3.108,3.108,0,0,1,4.484,5.469a3.136,3.136,0,0,1,2.7,1.176,6.237,6.237,0,0,1,.891,3.629ZM6.633,10.172A5.3,5.3,0,0,0,6.117,7.5a1.775,1.775,0,0,0-1.633-.84,1.751,1.751,0,0,0-1.617.836,5.171,5.171,0,0,0-.523,2.57v2.313A5.381,5.381,0,0,0,2.879,15.1a1.771,1.771,0,0,0,1.621.879,1.747,1.747,0,0,0,1.59-.828,5.186,5.186,0,0,0,.543-2.609Z" transform="translate(-6206 -7362.139)" fill="#12263f"/>
    <path id="Trazado_226662" data-name="Trazado 226662" d="M8.4,17H.945V15.961l3.938-4.375A9.355,9.355,0,0,0,6.09,9.973a2.693,2.693,0,0,0,.332-1.285,2.041,2.041,0,0,0-.539-1.461,1.885,1.885,0,0,0-1.437-.57A2.232,2.232,0,0,0,2.77,7.27a2.343,2.343,0,0,0-.6,1.707H.727A3.355,3.355,0,0,1,1.738,6.438a3.751,3.751,0,0,1,2.707-.969A3.6,3.6,0,0,1,6.953,6.3a2.838,2.838,0,0,1,.922,2.215q0,1.68-2.141,4l-3.047,3.3H8.4Z" transform="translate(-6305 -7154.139)" fill="#12263f"/>
    <path id="Trazado_226615" data-name="Trazado 226615" d="M8.078,12.148a6.61,6.61,0,0,1-.867,3.773A3.084,3.084,0,0,1,4.5,17.156a3.107,3.107,0,0,1-2.7-1.207A6.274,6.274,0,0,1,.9,12.344v-1.93a6.463,6.463,0,0,1,.867-3.727A3.108,3.108,0,0,1,4.484,5.469a3.136,3.136,0,0,1,2.7,1.176,6.237,6.237,0,0,1,.891,3.629ZM6.633,10.172A5.3,5.3,0,0,0,6.117,7.5a1.775,1.775,0,0,0-1.633-.84,1.751,1.751,0,0,0-1.617.836,5.171,5.171,0,0,0-.523,2.57v2.313A5.381,5.381,0,0,0,2.879,15.1a1.771,1.771,0,0,0,1.621.879,1.747,1.747,0,0,0,1.59-.828,5.186,5.186,0,0,0,.543-2.609Zm3.4,9.094-.82-.562a3.77,3.77,0,0,0,.766-2.109v-1.3h1.414v1.133A3.559,3.559,0,0,1,11,18,3.7,3.7,0,0,1,10.031,19.266ZM18.609,12a3.536,3.536,0,0,1-1.082.867,2.936,2.936,0,0,1-1.379.328,3.031,3.031,0,0,1-1.715-.484A3.149,3.149,0,0,1,13.3,11.348a4.648,4.648,0,0,1-.4-1.941,4.735,4.735,0,0,1,.434-2.055,3.185,3.185,0,0,1,1.23-1.4,3.509,3.509,0,0,1,1.859-.484A3.177,3.177,0,0,1,19.09,6.73a5.5,5.5,0,0,1,.973,3.441v.422q0,3.32-1.312,4.848a5.043,5.043,0,0,1-3.961,1.566h-.281V15.781h.3a3.979,3.979,0,0,0,2.75-.932A4,4,0,0,0,18.609,12Zm-2.227,0a2.232,2.232,0,0,0,1.34-.445,2.625,2.625,0,0,0,.895-1.1V9.875A3.977,3.977,0,0,0,18,7.563a1.887,1.887,0,0,0-3.094-.16,3.013,3.013,0,0,0-.578,1.926,3.136,3.136,0,0,0,.559,1.918A1.769,1.769,0,0,0,16.383,12Z" transform="translate(-5930 -7154.139)" fill="#12263f"/>
    <path id="Trazado_226616" data-name="Trazado 226616" d="M8.078,12.148a6.61,6.61,0,0,1-.867,3.773A3.084,3.084,0,0,1,4.5,17.156a3.107,3.107,0,0,1-2.7-1.207A6.274,6.274,0,0,1,.9,12.344v-1.93a6.463,6.463,0,0,1,.867-3.727A3.108,3.108,0,0,1,4.484,5.469a3.136,3.136,0,0,1,2.7,1.176,6.237,6.237,0,0,1,.891,3.629ZM6.633,10.172A5.3,5.3,0,0,0,6.117,7.5a1.775,1.775,0,0,0-1.633-.84,1.751,1.751,0,0,0-1.617.836,5.171,5.171,0,0,0-.523,2.57v2.313A5.381,5.381,0,0,0,2.879,15.1a1.771,1.771,0,0,0,1.621.879,1.747,1.747,0,0,0,1.59-.828,5.186,5.186,0,0,0,.543-2.609Zm3.4,9.094-.82-.562a3.77,3.77,0,0,0,.766-2.109v-1.3h1.414v1.133A3.559,3.559,0,0,1,11,18,3.7,3.7,0,0,1,10.031,19.266ZM20.523,17H13.07V15.961l3.938-4.375a9.354,9.354,0,0,0,1.207-1.613,2.693,2.693,0,0,0,.332-1.285,2.041,2.041,0,0,0-.539-1.461,1.885,1.885,0,0,0-1.437-.57,2.232,2.232,0,0,0-1.676.613,2.343,2.343,0,0,0-.6,1.707H12.852a3.355,3.355,0,0,1,1.012-2.539,3.751,3.751,0,0,1,2.707-.969,3.6,3.6,0,0,1,2.508.832A2.838,2.838,0,0,1,20,8.516q0,1.68-2.141,4l-3.047,3.3h5.711Z" transform="translate(-6047 -7154.139)" fill="#12263f"/>
    <path id="Trazado_226632" data-name="Trazado 226632" d="M6.484,12a3.536,3.536,0,0,1-1.082.867,2.936,2.936,0,0,1-1.379.328,3.031,3.031,0,0,1-1.715-.484A3.149,3.149,0,0,1,1.18,11.348a4.648,4.648,0,0,1-.4-1.941,4.735,4.735,0,0,1,.434-2.055,3.185,3.185,0,0,1,1.23-1.4A3.509,3.509,0,0,1,4.3,5.469,3.177,3.177,0,0,1,6.965,6.73a5.5,5.5,0,0,1,.973,3.441v.422q0,3.32-1.312,4.848a5.043,5.043,0,0,1-3.961,1.566H2.383V15.781h.3a3.979,3.979,0,0,0,2.75-.932A4,4,0,0,0,6.484,12ZM4.258,12a2.232,2.232,0,0,0,1.34-.445,2.625,2.625,0,0,0,.895-1.1V9.875a3.977,3.977,0,0,0-.617-2.312A1.887,1.887,0,0,0,2.781,7.4,3.013,3.013,0,0,0,2.2,9.328a3.136,3.136,0,0,0,.559,1.918A1.769,1.769,0,0,0,4.258,12Z" transform="translate(-6206 -7154.139)" fill="#12263f"/>
    <path id="Trazado_226663" data-name="Trazado 226663" d="M8.4,17H.945V15.961l3.938-4.375A9.355,9.355,0,0,0,6.09,9.973a2.693,2.693,0,0,0,.332-1.285,2.041,2.041,0,0,0-.539-1.461,1.885,1.885,0,0,0-1.437-.57A2.232,2.232,0,0,0,2.77,7.27a2.343,2.343,0,0,0-.6,1.707H.727A3.355,3.355,0,0,1,1.738,6.438a3.751,3.751,0,0,1,2.707-.969A3.6,3.6,0,0,1,6.953,6.3a2.838,2.838,0,0,1,.922,2.215q0,1.68-2.141,4l-3.047,3.3H8.4Z" transform="translate(-6305 -7258.139)" fill="#12263f"/>
    <path id="Trazado_226645" data-name="Trazado 226645" d="M8.078,12.148a6.61,6.61,0,0,1-.867,3.773A3.084,3.084,0,0,1,4.5,17.156a3.107,3.107,0,0,1-2.7-1.207A6.274,6.274,0,0,1,.9,12.344v-1.93a6.463,6.463,0,0,1,.867-3.727A3.108,3.108,0,0,1,4.484,5.469a3.136,3.136,0,0,1,2.7,1.176,6.237,6.237,0,0,1,.891,3.629ZM6.633,10.172A5.3,5.3,0,0,0,6.117,7.5a1.775,1.775,0,0,0-1.633-.84,1.751,1.751,0,0,0-1.617.836,5.171,5.171,0,0,0-.523,2.57v2.313A5.381,5.381,0,0,0,2.879,15.1a1.771,1.771,0,0,0,1.621.879,1.747,1.747,0,0,0,1.59-.828,5.186,5.186,0,0,0,.543-2.609Zm3.4,9.094-.82-.562a3.77,3.77,0,0,0,.766-2.109v-1.3h1.414v1.133A3.559,3.559,0,0,1,11,18,3.7,3.7,0,0,1,10.031,19.266Zm5.141-8.656h1.086a2.387,2.387,0,0,0,1.609-.539,1.8,1.8,0,0,0,.586-1.414,1.764,1.764,0,0,0-1.992-2,2.072,2.072,0,0,0-1.5.535,1.873,1.873,0,0,0-.559,1.418H12.961a2.9,2.9,0,0,1,.988-2.246,3.6,3.6,0,0,1,2.512-.895,3.558,3.558,0,0,1,2.523.852A3.076,3.076,0,0,1,19.9,8.688a2.5,2.5,0,0,1-.48,1.438,2.9,2.9,0,0,1-1.309,1.039,2.8,2.8,0,0,1,1.449.984,2.734,2.734,0,0,1,.512,1.68,3.1,3.1,0,0,1-1,2.43,3.745,3.745,0,0,1-2.6.9,3.844,3.844,0,0,1-2.605-.867,2.877,2.877,0,0,1-1-2.289h1.453a1.859,1.859,0,0,0,.586,1.438,2.229,2.229,0,0,0,1.57.539,2.187,2.187,0,0,0,1.6-.547,2.108,2.108,0,0,0,.555-1.57,1.912,1.912,0,0,0-.609-1.523,2.655,2.655,0,0,0-1.758-.547H15.172Z" transform="translate(-5930 -7258.139)" fill="#12263f"/>
    <path id="Trazado_226646" data-name="Trazado 226646" d="M8.078,12.148a6.61,6.61,0,0,1-.867,3.773A3.084,3.084,0,0,1,4.5,17.156a3.107,3.107,0,0,1-2.7-1.207A6.274,6.274,0,0,1,.9,12.344v-1.93a6.463,6.463,0,0,1,.867-3.727A3.108,3.108,0,0,1,4.484,5.469a3.136,3.136,0,0,1,2.7,1.176,6.237,6.237,0,0,1,.891,3.629ZM6.633,10.172A5.3,5.3,0,0,0,6.117,7.5a1.775,1.775,0,0,0-1.633-.84,1.751,1.751,0,0,0-1.617.836,5.171,5.171,0,0,0-.523,2.57v2.313A5.381,5.381,0,0,0,2.879,15.1a1.771,1.771,0,0,0,1.621.879,1.747,1.747,0,0,0,1.59-.828,5.186,5.186,0,0,0,.543-2.609Zm3.4,9.094-.82-.562a3.77,3.77,0,0,0,.766-2.109v-1.3h1.414v1.133A3.559,3.559,0,0,1,11,18,3.7,3.7,0,0,1,10.031,19.266ZM20.523,17H13.07V15.961l3.938-4.375a9.354,9.354,0,0,0,1.207-1.613,2.693,2.693,0,0,0,.332-1.285,2.041,2.041,0,0,0-.539-1.461,1.885,1.885,0,0,0-1.437-.57,2.232,2.232,0,0,0-1.676.613,2.343,2.343,0,0,0-.6,1.707H12.852a3.355,3.355,0,0,1,1.012-2.539,3.751,3.751,0,0,1,2.707-.969,3.6,3.6,0,0,1,2.508.832A2.838,2.838,0,0,1,20,8.516q0,1.68-2.141,4l-3.047,3.3h5.711Z" transform="translate(-6047 -7258.139)" fill="#12263f"/>
    <path id="Trazado_226647" data-name="Trazado 226647" d="M3.047,10.609H4.133a2.387,2.387,0,0,0,1.609-.539,1.8,1.8,0,0,0,.586-1.414,1.764,1.764,0,0,0-1.992-2,2.072,2.072,0,0,0-1.5.535,1.873,1.873,0,0,0-.559,1.418H.836a2.9,2.9,0,0,1,.988-2.246,3.6,3.6,0,0,1,2.512-.895,3.558,3.558,0,0,1,2.523.852,3.076,3.076,0,0,1,.914,2.367,2.5,2.5,0,0,1-.48,1.438,2.9,2.9,0,0,1-1.309,1.039,2.8,2.8,0,0,1,1.449.984,2.734,2.734,0,0,1,.512,1.68,3.1,3.1,0,0,1-1,2.43,3.745,3.745,0,0,1-2.6.9,3.844,3.844,0,0,1-2.605-.867A2.877,2.877,0,0,1,.734,14H2.188a1.859,1.859,0,0,0,.586,1.438,2.229,2.229,0,0,0,1.57.539,2.187,2.187,0,0,0,1.6-.547,2.108,2.108,0,0,0,.555-1.57,1.912,1.912,0,0,0-.609-1.523,2.655,2.655,0,0,0-1.758-.547H3.047Z" transform="translate(-6206 -7258.139)" fill="#12263f"/>
    <path id="Trazado_226674" data-name="Trazado 226674" d="M8.078,12.148a6.61,6.61,0,0,1-.867,3.773A3.084,3.084,0,0,1,4.5,17.156a3.107,3.107,0,0,1-2.7-1.207A6.274,6.274,0,0,1,.9,12.344v-1.93a6.463,6.463,0,0,1,.867-3.727A3.108,3.108,0,0,1,4.484,5.469a3.136,3.136,0,0,1,2.7,1.176,6.237,6.237,0,0,1,.891,3.629ZM6.633,10.172A5.3,5.3,0,0,0,6.117,7.5a1.775,1.775,0,0,0-1.633-.84,1.751,1.751,0,0,0-1.617.836,5.171,5.171,0,0,0-.523,2.57v2.313A5.381,5.381,0,0,0,2.879,15.1a1.771,1.771,0,0,0,1.621.879,1.747,1.747,0,0,0,1.59-.828,5.186,5.186,0,0,0,.543-2.609Z" transform="translate(-6305 -7310.139)" fill="#12263f"/>
    <path id="Trazado_226675" data-name="Trazado 226675" d="M8.078,12.148a6.61,6.61,0,0,1-.867,3.773A3.084,3.084,0,0,1,4.5,17.156a3.107,3.107,0,0,1-2.7-1.207A6.274,6.274,0,0,1,.9,12.344v-1.93a6.463,6.463,0,0,1,.867-3.727A3.108,3.108,0,0,1,4.484,5.469a3.136,3.136,0,0,1,2.7,1.176,6.237,6.237,0,0,1,.891,3.629ZM6.633,10.172A5.3,5.3,0,0,0,6.117,7.5a1.775,1.775,0,0,0-1.633-.84,1.751,1.751,0,0,0-1.617.836,5.171,5.171,0,0,0-.523,2.57v2.313A5.381,5.381,0,0,0,2.879,15.1a1.771,1.771,0,0,0,1.621.879,1.747,1.747,0,0,0,1.59-.828,5.186,5.186,0,0,0,.543-2.609Z" transform="translate(-5930 -7310.139)" fill="#12263f"/>
    <path id="Trazado_226676" data-name="Trazado 226676" d="M8.078,12.148a6.61,6.61,0,0,1-.867,3.773A3.084,3.084,0,0,1,4.5,17.156a3.107,3.107,0,0,1-2.7-1.207A6.274,6.274,0,0,1,.9,12.344v-1.93a6.463,6.463,0,0,1,.867-3.727A3.108,3.108,0,0,1,4.484,5.469a3.136,3.136,0,0,1,2.7,1.176,6.237,6.237,0,0,1,.891,3.629ZM6.633,10.172A5.3,5.3,0,0,0,6.117,7.5a1.775,1.775,0,0,0-1.633-.84,1.751,1.751,0,0,0-1.617.836,5.171,5.171,0,0,0-.523,2.57v2.313A5.381,5.381,0,0,0,2.879,15.1a1.771,1.771,0,0,0,1.621.879,1.747,1.747,0,0,0,1.59-.828,5.186,5.186,0,0,0,.543-2.609Z" transform="translate(-6047 -7310.139)" fill="#12263f"/>
    <path id="Trazado_226677" data-name="Trazado 226677" d="M8.078,12.148a6.61,6.61,0,0,1-.867,3.773A3.084,3.084,0,0,1,4.5,17.156a3.107,3.107,0,0,1-2.7-1.207A6.274,6.274,0,0,1,.9,12.344v-1.93a6.463,6.463,0,0,1,.867-3.727A3.108,3.108,0,0,1,4.484,5.469a3.136,3.136,0,0,1,2.7,1.176,6.237,6.237,0,0,1,.891,3.629ZM6.633,10.172A5.3,5.3,0,0,0,6.117,7.5a1.775,1.775,0,0,0-1.633-.84,1.751,1.751,0,0,0-1.617.836,5.171,5.171,0,0,0-.523,2.57v2.313A5.381,5.381,0,0,0,2.879,15.1a1.771,1.771,0,0,0,1.621.879,1.747,1.747,0,0,0,1.59-.828,5.186,5.186,0,0,0,.543-2.609Z" transform="translate(-6206 -7310.139)" fill="#12263f"/>
    <path id="Trazado_226664" data-name="Trazado 226664" d="M5.7,17H4.242V7.367L1.328,8.438V7.125L5.469,5.57H5.7Z" transform="translate(-6305 -7206.139)" fill="#12263f"/>
    <path id="Trazado_226630" data-name="Trazado 226630" d="M8.078,12.148a6.61,6.61,0,0,1-.867,3.773A3.084,3.084,0,0,1,4.5,17.156a3.107,3.107,0,0,1-2.7-1.207A6.274,6.274,0,0,1,.9,12.344v-1.93a6.463,6.463,0,0,1,.867-3.727A3.108,3.108,0,0,1,4.484,5.469a3.136,3.136,0,0,1,2.7,1.176,6.237,6.237,0,0,1,.891,3.629ZM6.633,10.172A5.3,5.3,0,0,0,6.117,7.5a1.775,1.775,0,0,0-1.633-.84,1.751,1.751,0,0,0-1.617.836,5.171,5.171,0,0,0-.523,2.57v2.313A5.381,5.381,0,0,0,2.879,15.1a1.771,1.771,0,0,0,1.621.879,1.747,1.747,0,0,0,1.59-.828,5.186,5.186,0,0,0,.543-2.609Zm3.4,9.094-.82-.562a3.77,3.77,0,0,0,.766-2.109v-1.3h1.414v1.133A3.559,3.559,0,0,1,11,18,3.7,3.7,0,0,1,10.031,19.266Zm3.7-7.969.578-5.672h5.828V6.961h-4.6l-.344,3.1a3.671,3.671,0,0,1,1.9-.492A3.138,3.138,0,0,1,19.563,10.6a4.026,4.026,0,0,1,.914,2.777,3.886,3.886,0,0,1-.949,2.77,3.46,3.46,0,0,1-2.652,1.012,3.6,3.6,0,0,1-2.461-.836,3.337,3.337,0,0,1-1.086-2.312H14.7a2.3,2.3,0,0,0,.7,1.473,2.162,2.162,0,0,0,1.484.5,1.95,1.95,0,0,0,1.582-.687,2.874,2.874,0,0,0,.574-1.9,2.638,2.638,0,0,0-.621-1.832,2.113,2.113,0,0,0-1.652-.691,2.383,2.383,0,0,0-1.484.414l-.383.313Z" transform="translate(-5930 -7206.139)" fill="#12263f"/>
    <path id="Trazado_226631" data-name="Trazado 226631" d="M8.078,12.148a6.61,6.61,0,0,1-.867,3.773A3.084,3.084,0,0,1,4.5,17.156a3.107,3.107,0,0,1-2.7-1.207A6.274,6.274,0,0,1,.9,12.344v-1.93a6.463,6.463,0,0,1,.867-3.727A3.108,3.108,0,0,1,4.484,5.469a3.136,3.136,0,0,1,2.7,1.176,6.237,6.237,0,0,1,.891,3.629ZM6.633,10.172A5.3,5.3,0,0,0,6.117,7.5a1.775,1.775,0,0,0-1.633-.84,1.751,1.751,0,0,0-1.617.836,5.171,5.171,0,0,0-.523,2.57v2.313A5.381,5.381,0,0,0,2.879,15.1a1.771,1.771,0,0,0,1.621.879,1.747,1.747,0,0,0,1.59-.828,5.186,5.186,0,0,0,.543-2.609Zm3.4,9.094-.82-.562a3.77,3.77,0,0,0,.766-2.109v-1.3h1.414v1.133A3.559,3.559,0,0,1,11,18,3.7,3.7,0,0,1,10.031,19.266ZM17.82,17H16.367V7.367l-2.914,1.07V7.125L17.594,5.57h.227Z" transform="translate(-6047 -7206.139)" fill="#12263f"/>
    <path id="Trazado_226633" data-name="Trazado 226633" d="M1.609,11.3l.578-5.672H8.016V6.961h-4.6l-.344,3.1a3.671,3.671,0,0,1,1.9-.492A3.138,3.138,0,0,1,7.438,10.6a4.026,4.026,0,0,1,.914,2.777,3.886,3.886,0,0,1-.949,2.77A3.46,3.46,0,0,1,4.75,17.156a3.6,3.6,0,0,1-2.461-.836A3.337,3.337,0,0,1,1.2,14.008H2.57a2.3,2.3,0,0,0,.7,1.473,2.162,2.162,0,0,0,1.484.5,1.95,1.95,0,0,0,1.582-.687,2.874,2.874,0,0,0,.574-1.9,2.638,2.638,0,0,0-.621-1.832,2.113,2.113,0,0,0-1.652-.691,2.383,2.383,0,0,0-1.484.414l-.383.313Z" transform="translate(-6206 -7206.139)" fill="#12263f"/>
    <path id="Trazado_226682" data-name="Trazado 226682" d="M8.078,12.148a6.61,6.61,0,0,1-.867,3.773A3.084,3.084,0,0,1,4.5,17.156a3.107,3.107,0,0,1-2.7-1.207A6.274,6.274,0,0,1,.9,12.344v-1.93a6.463,6.463,0,0,1,.867-3.727A3.108,3.108,0,0,1,4.484,5.469a3.136,3.136,0,0,1,2.7,1.176,6.237,6.237,0,0,1,.891,3.629ZM6.633,10.172A5.3,5.3,0,0,0,6.117,7.5a1.775,1.775,0,0,0-1.633-.84,1.751,1.751,0,0,0-1.617.836,5.171,5.171,0,0,0-.523,2.57v2.313A5.381,5.381,0,0,0,2.879,15.1a1.771,1.771,0,0,0,1.621.879,1.747,1.747,0,0,0,1.59-.828,5.186,5.186,0,0,0,.543-2.609Z" transform="translate(-6305 -7336.139)" fill="#12263f"/>
    <path id="Trazado_226683" data-name="Trazado 226683" d="M8.078,12.148a6.61,6.61,0,0,1-.867,3.773A3.084,3.084,0,0,1,4.5,17.156a3.107,3.107,0,0,1-2.7-1.207A6.274,6.274,0,0,1,.9,12.344v-1.93a6.463,6.463,0,0,1,.867-3.727A3.108,3.108,0,0,1,4.484,5.469a3.136,3.136,0,0,1,2.7,1.176,6.237,6.237,0,0,1,.891,3.629ZM6.633,10.172A5.3,5.3,0,0,0,6.117,7.5a1.775,1.775,0,0,0-1.633-.84,1.751,1.751,0,0,0-1.617.836,5.171,5.171,0,0,0-.523,2.57v2.313A5.381,5.381,0,0,0,2.879,15.1a1.771,1.771,0,0,0,1.621.879,1.747,1.747,0,0,0,1.59-.828,5.186,5.186,0,0,0,.543-2.609Z" transform="translate(-5930 -7336.139)" fill="#12263f"/>
    <path id="Trazado_226684" data-name="Trazado 226684" d="M8.078,12.148a6.61,6.61,0,0,1-.867,3.773A3.084,3.084,0,0,1,4.5,17.156a3.107,3.107,0,0,1-2.7-1.207A6.274,6.274,0,0,1,.9,12.344v-1.93a6.463,6.463,0,0,1,.867-3.727A3.108,3.108,0,0,1,4.484,5.469a3.136,3.136,0,0,1,2.7,1.176,6.237,6.237,0,0,1,.891,3.629ZM6.633,10.172A5.3,5.3,0,0,0,6.117,7.5a1.775,1.775,0,0,0-1.633-.84,1.751,1.751,0,0,0-1.617.836,5.171,5.171,0,0,0-.523,2.57v2.313A5.381,5.381,0,0,0,2.879,15.1a1.771,1.771,0,0,0,1.621.879,1.747,1.747,0,0,0,1.59-.828,5.186,5.186,0,0,0,.543-2.609Z" transform="translate(-6047 -7336.139)" fill="#12263f"/>
    <path id="Trazado_226685" data-name="Trazado 226685" d="M8.078,12.148a6.61,6.61,0,0,1-.867,3.773A3.084,3.084,0,0,1,4.5,17.156a3.107,3.107,0,0,1-2.7-1.207A6.274,6.274,0,0,1,.9,12.344v-1.93a6.463,6.463,0,0,1,.867-3.727A3.108,3.108,0,0,1,4.484,5.469a3.136,3.136,0,0,1,2.7,1.176,6.237,6.237,0,0,1,.891,3.629ZM6.633,10.172A5.3,5.3,0,0,0,6.117,7.5a1.775,1.775,0,0,0-1.633-.84,1.751,1.751,0,0,0-1.617.836,5.171,5.171,0,0,0-.523,2.57v2.313A5.381,5.381,0,0,0,2.879,15.1a1.771,1.771,0,0,0,1.621.879,1.747,1.747,0,0,0,1.59-.828,5.186,5.186,0,0,0,.543-2.609Z" transform="translate(-6206 -7336.139)" fill="#12263f"/>
    <path id="Trazado_226665" data-name="Trazado 226665" d="M5.7,17H4.242V7.367L1.328,8.438V7.125L5.469,5.57H5.7Z" transform="translate(-6305 -7128.139)" fill="#12263f"/>
    <path id="Trazado_226666" data-name="Trazado 226666" d="M5.7,17H4.242V7.367L1.328,8.438V7.125L5.469,5.57H5.7Zm11.367-4.852a6.61,6.61,0,0,1-.867,3.773,3.084,3.084,0,0,1-2.711,1.234,3.107,3.107,0,0,1-2.7-1.207,6.274,6.274,0,0,1-.906-3.605v-1.93a6.463,6.463,0,0,1,.867-3.727,3.108,3.108,0,0,1,2.719-1.219,3.136,3.136,0,0,1,2.7,1.176,6.237,6.237,0,0,1,.891,3.629Zm-1.445-1.977A5.3,5.3,0,0,0,15.1,7.5a1.775,1.775,0,0,0-1.633-.84,1.751,1.751,0,0,0-1.617.836,5.171,5.171,0,0,0-.523,2.57v2.313a5.381,5.381,0,0,0,.535,2.723,1.771,1.771,0,0,0,1.621.879,1.747,1.747,0,0,0,1.59-.828,5.186,5.186,0,0,0,.543-2.609Z" transform="translate(-6305 -7102.139)" fill="#12263f"/>
    <path id="Trazado_226610" data-name="Trazado 226610" d="M5.7,17H4.242V7.367L1.328,8.438V7.125L5.469,5.57H5.7Z" transform="translate(-5930 -7128.139)" fill="#12263f"/>
    <path id="Trazado_226617" data-name="Trazado 226617" d="M8.078,12.148a6.61,6.61,0,0,1-.867,3.773A3.084,3.084,0,0,1,4.5,17.156a3.107,3.107,0,0,1-2.7-1.207A6.274,6.274,0,0,1,.9,12.344v-1.93a6.463,6.463,0,0,1,.867-3.727A3.108,3.108,0,0,1,4.484,5.469a3.136,3.136,0,0,1,2.7,1.176,6.237,6.237,0,0,1,.891,3.629ZM6.633,10.172A5.3,5.3,0,0,0,6.117,7.5a1.775,1.775,0,0,0-1.633-.84,1.751,1.751,0,0,0-1.617.836,5.171,5.171,0,0,0-.523,2.57v2.313A5.381,5.381,0,0,0,2.879,15.1a1.771,1.771,0,0,0,1.621.879,1.747,1.747,0,0,0,1.59-.828,5.186,5.186,0,0,0,.543-2.609Zm3.4,9.094-.82-.562a3.77,3.77,0,0,0,.766-2.109v-1.3h1.414v1.133A3.559,3.559,0,0,1,11,18,3.7,3.7,0,0,1,10.031,19.266ZM17.82,17H16.367V7.367l-2.914,1.07V7.125L17.594,5.57h.227Z" transform="translate(-6047 -7128.139)" fill="#12263f"/>
    <path id="Trazado_226618" data-name="Trazado 226618" d="M5.7,17H4.242V7.367L1.328,8.438V7.125L5.469,5.57H5.7Z" transform="translate(-6047 -7102.139)" fill="#12263f"/>
    <path id="Trazado_226634" data-name="Trazado 226634" d="M5.7,17H4.242V7.367L1.328,8.438V7.125L5.469,5.57H5.7Zm11.367-4.852a6.61,6.61,0,0,1-.867,3.773,3.084,3.084,0,0,1-2.711,1.234,3.107,3.107,0,0,1-2.7-1.207,6.274,6.274,0,0,1-.906-3.605v-1.93a6.463,6.463,0,0,1,.867-3.727,3.108,3.108,0,0,1,2.719-1.219,3.136,3.136,0,0,1,2.7,1.176,6.237,6.237,0,0,1,.891,3.629Zm-1.445-1.977A5.3,5.3,0,0,0,15.1,7.5a1.775,1.775,0,0,0-1.633-.84,1.751,1.751,0,0,0-1.617.836,5.171,5.171,0,0,0-.523,2.57v2.313a5.381,5.381,0,0,0,.535,2.723,1.771,1.771,0,0,0,1.621.879,1.747,1.747,0,0,0,1.59-.828,5.186,5.186,0,0,0,.543-2.609Z" transform="translate(-6206 -7128.139)" fill="#12263f"/>
    <path id="Trazado_226667" data-name="Trazado 226667" d="M5.7,17H4.242V7.367L1.328,8.438V7.125L5.469,5.57H5.7Z" transform="translate(-6305 -7232.139)" fill="#12263f"/>
    <path id="Trazado_226639" data-name="Trazado 226639" d="M8.078,12.148a6.61,6.61,0,0,1-.867,3.773A3.084,3.084,0,0,1,4.5,17.156a3.107,3.107,0,0,1-2.7-1.207A6.274,6.274,0,0,1,.9,12.344v-1.93a6.463,6.463,0,0,1,.867-3.727A3.108,3.108,0,0,1,4.484,5.469a3.136,3.136,0,0,1,2.7,1.176,6.237,6.237,0,0,1,.891,3.629ZM6.633,10.172A5.3,5.3,0,0,0,6.117,7.5a1.775,1.775,0,0,0-1.633-.84,1.751,1.751,0,0,0-1.617.836,5.171,5.171,0,0,0-.523,2.57v2.313A5.381,5.381,0,0,0,2.879,15.1a1.771,1.771,0,0,0,1.621.879,1.747,1.747,0,0,0,1.59-.828,5.186,5.186,0,0,0,.543-2.609Zm3.4,9.094-.82-.562a3.77,3.77,0,0,0,.766-2.109v-1.3h1.414v1.133A3.559,3.559,0,0,1,11,18,3.7,3.7,0,0,1,10.031,19.266Zm9.141-6.086H20.75v1.18H19.172V17H17.719V14.359h-5.18v-.852l5.094-7.883h1.539Zm-4.992,0h3.539V7.6l-.172.313Z" transform="translate(-5930 -7232.139)" fill="#12263f"/>
    <path id="Trazado_226640" data-name="Trazado 226640" d="M8.078,12.148a6.61,6.61,0,0,1-.867,3.773A3.084,3.084,0,0,1,4.5,17.156a3.107,3.107,0,0,1-2.7-1.207A6.274,6.274,0,0,1,.9,12.344v-1.93a6.463,6.463,0,0,1,.867-3.727A3.108,3.108,0,0,1,4.484,5.469a3.136,3.136,0,0,1,2.7,1.176,6.237,6.237,0,0,1,.891,3.629ZM6.633,10.172A5.3,5.3,0,0,0,6.117,7.5a1.775,1.775,0,0,0-1.633-.84,1.751,1.751,0,0,0-1.617.836,5.171,5.171,0,0,0-.523,2.57v2.313A5.381,5.381,0,0,0,2.879,15.1a1.771,1.771,0,0,0,1.621.879,1.747,1.747,0,0,0,1.59-.828,5.186,5.186,0,0,0,.543-2.609Zm3.4,9.094-.82-.562a3.77,3.77,0,0,0,.766-2.109v-1.3h1.414v1.133A3.559,3.559,0,0,1,11,18,3.7,3.7,0,0,1,10.031,19.266ZM17.82,17H16.367V7.367l-2.914,1.07V7.125L17.594,5.57h.227Z" transform="translate(-6047 -7232.139)" fill="#12263f"/>
    <path id="Trazado_226641" data-name="Trazado 226641" d="M7.047,13.18H8.625v1.18H7.047V17H5.594V14.359H.414v-.852L5.508,5.625H7.047Zm-4.992,0H5.594V7.6l-.172.313Z" transform="translate(-6206 -7232.139)" fill="#12263f"/>
    <path id="Trazado_226668" data-name="Trazado 226668" d="M5.7,17H4.242V7.367L1.328,8.438V7.125L5.469,5.57H5.7Z" transform="translate(-6305 -7284.139)" fill="#12263f"/>
    <path id="Trazado_226651" data-name="Trazado 226651" d="M8.078,12.148a6.61,6.61,0,0,1-.867,3.773A3.084,3.084,0,0,1,4.5,17.156a3.107,3.107,0,0,1-2.7-1.207A6.274,6.274,0,0,1,.9,12.344v-1.93a6.463,6.463,0,0,1,.867-3.727A3.108,3.108,0,0,1,4.484,5.469a3.136,3.136,0,0,1,2.7,1.176,6.237,6.237,0,0,1,.891,3.629ZM6.633,10.172A5.3,5.3,0,0,0,6.117,7.5a1.775,1.775,0,0,0-1.633-.84,1.751,1.751,0,0,0-1.617.836,5.171,5.171,0,0,0-.523,2.57v2.313A5.381,5.381,0,0,0,2.879,15.1a1.771,1.771,0,0,0,1.621.879,1.747,1.747,0,0,0,1.59-.828,5.186,5.186,0,0,0,.543-2.609Zm3.4,9.094-.82-.562a3.77,3.77,0,0,0,.766-2.109v-1.3h1.414v1.133A3.559,3.559,0,0,1,11,18,3.7,3.7,0,0,1,10.031,19.266ZM17.82,17H16.367V7.367l-2.914,1.07V7.125L17.594,5.57h.227Z" transform="translate(-5930 -7284.139)" fill="#12263f"/>
    <path id="Trazado_226652" data-name="Trazado 226652" d="M8.078,12.148a6.61,6.61,0,0,1-.867,3.773A3.084,3.084,0,0,1,4.5,17.156a3.107,3.107,0,0,1-2.7-1.207A6.274,6.274,0,0,1,.9,12.344v-1.93a6.463,6.463,0,0,1,.867-3.727A3.108,3.108,0,0,1,4.484,5.469a3.136,3.136,0,0,1,2.7,1.176,6.237,6.237,0,0,1,.891,3.629ZM6.633,10.172A5.3,5.3,0,0,0,6.117,7.5a1.775,1.775,0,0,0-1.633-.84,1.751,1.751,0,0,0-1.617.836,5.171,5.171,0,0,0-.523,2.57v2.313A5.381,5.381,0,0,0,2.879,15.1a1.771,1.771,0,0,0,1.621.879,1.747,1.747,0,0,0,1.59-.828,5.186,5.186,0,0,0,.543-2.609Zm3.4,9.094-.82-.562a3.77,3.77,0,0,0,.766-2.109v-1.3h1.414v1.133A3.559,3.559,0,0,1,11,18,3.7,3.7,0,0,1,10.031,19.266ZM17.82,17H16.367V7.367l-2.914,1.07V7.125L17.594,5.57h.227Z" transform="translate(-6047 -7284.139)" fill="#12263f"/>
    <path id="Trazado_226653" data-name="Trazado 226653" d="M5.7,17H4.242V7.367L1.328,8.438V7.125L5.469,5.57H5.7Z" transform="translate(-6206 -7284.139)" fill="#12263f"/>
    <path id="Trazado_226669" data-name="Trazado 226669" d="M8.4,17H.945V15.961l3.938-4.375A9.355,9.355,0,0,0,6.09,9.973a2.693,2.693,0,0,0,.332-1.285,2.041,2.041,0,0,0-.539-1.461,1.885,1.885,0,0,0-1.437-.57A2.232,2.232,0,0,0,2.77,7.27a2.343,2.343,0,0,0-.6,1.707H.727A3.355,3.355,0,0,1,1.738,6.438a3.751,3.751,0,0,1,2.707-.969A3.6,3.6,0,0,1,6.953,6.3a2.838,2.838,0,0,1,.922,2.215q0,1.68-2.141,4l-3.047,3.3H8.4Z" transform="translate(-6305 -7180.139)" fill="#12263f"/>
    <path id="Trazado_226621" data-name="Trazado 226621" d="M8.078,12.148a6.61,6.61,0,0,1-.867,3.773A3.084,3.084,0,0,1,4.5,17.156a3.107,3.107,0,0,1-2.7-1.207A6.274,6.274,0,0,1,.9,12.344v-1.93a6.463,6.463,0,0,1,.867-3.727A3.108,3.108,0,0,1,4.484,5.469a3.136,3.136,0,0,1,2.7,1.176,6.237,6.237,0,0,1,.891,3.629ZM6.633,10.172A5.3,5.3,0,0,0,6.117,7.5a1.775,1.775,0,0,0-1.633-.84,1.751,1.751,0,0,0-1.617.836,5.171,5.171,0,0,0-.523,2.57v2.313A5.381,5.381,0,0,0,2.879,15.1a1.771,1.771,0,0,0,1.621.879,1.747,1.747,0,0,0,1.59-.828,5.186,5.186,0,0,0,.543-2.609Zm3.4,9.094-.82-.562a3.77,3.77,0,0,0,.766-2.109v-1.3h1.414v1.133A3.559,3.559,0,0,1,11,18,3.7,3.7,0,0,1,10.031,19.266ZM20.414,6.438,15.7,17H14.188l4.7-10.187H12.727V5.625h7.688Z" transform="translate(-5930 -7180.139)" fill="#12263f"/>
    <path id="Trazado_226622" data-name="Trazado 226622" d="M8.078,12.148a6.61,6.61,0,0,1-.867,3.773A3.084,3.084,0,0,1,4.5,17.156a3.107,3.107,0,0,1-2.7-1.207A6.274,6.274,0,0,1,.9,12.344v-1.93a6.463,6.463,0,0,1,.867-3.727A3.108,3.108,0,0,1,4.484,5.469a3.136,3.136,0,0,1,2.7,1.176,6.237,6.237,0,0,1,.891,3.629ZM6.633,10.172A5.3,5.3,0,0,0,6.117,7.5a1.775,1.775,0,0,0-1.633-.84,1.751,1.751,0,0,0-1.617.836,5.171,5.171,0,0,0-.523,2.57v2.313A5.381,5.381,0,0,0,2.879,15.1a1.771,1.771,0,0,0,1.621.879,1.747,1.747,0,0,0,1.59-.828,5.186,5.186,0,0,0,.543-2.609Zm3.4,9.094-.82-.562a3.77,3.77,0,0,0,.766-2.109v-1.3h1.414v1.133A3.559,3.559,0,0,1,11,18,3.7,3.7,0,0,1,10.031,19.266ZM20.523,17H13.07V15.961l3.938-4.375a9.354,9.354,0,0,0,1.207-1.613,2.693,2.693,0,0,0,.332-1.285,2.041,2.041,0,0,0-.539-1.461,1.885,1.885,0,0,0-1.437-.57,2.232,2.232,0,0,0-1.676.613,2.343,2.343,0,0,0-.6,1.707H12.852a3.355,3.355,0,0,1,1.012-2.539,3.751,3.751,0,0,1,2.707-.969,3.6,3.6,0,0,1,2.508.832A2.838,2.838,0,0,1,20,8.516q0,1.68-2.141,4l-3.047,3.3h5.711Z" transform="translate(-6047 -7180.139)" fill="#12263f"/>
    <path id="Trazado_226635" data-name="Trazado 226635" d="M8.289,6.438,3.578,17H2.063l4.7-10.187H.6V5.625H8.289Z" transform="translate(-6206 -7180.139)" fill="#12263f"/>
    <path id="Trazado_226721" data-name="Trazado 226721" d="M17.8,12.352H13.3V17H10.957V5.625h7.406v1.9H13.3v2.938h4.5Zm6.32-1.687a6.134,6.134,0,0,0-.812-.062,1.654,1.654,0,0,0-1.68.867V17H19.371V8.547H21.5l.063,1.008a2.092,2.092,0,0,1,1.883-1.164,2.366,2.366,0,0,1,.7.1ZM29.1,17.156a4.15,4.15,0,0,1-3.027-1.141A4.054,4.054,0,0,1,24.9,12.977v-.219a5.106,5.106,0,0,1,.492-2.277,3.612,3.612,0,0,1,1.395-1.547,3.914,3.914,0,0,1,2.059-.543,3.508,3.508,0,0,1,2.73,1.094,4.444,4.444,0,0,1,1,3.1v.922H27.191a2.1,2.1,0,0,0,.66,1.328,2,2,0,0,0,1.395.5,2.437,2.437,0,0,0,2.039-.945l1.109,1.242a3.389,3.389,0,0,1-1.375,1.121A4.511,4.511,0,0,1,29.1,17.156Zm-.258-6.945a1.411,1.411,0,0,0-1.09.455,2.357,2.357,0,0,0-.535,1.3h3.141v-.181a1.681,1.681,0,0,0-.406-1.165A1.456,1.456,0,0,0,28.84,10.211Zm8.531,5.125a1.481,1.481,0,0,0,1.016-.344,1.2,1.2,0,0,0,.406-.914H40.91a2.9,2.9,0,0,1-.469,1.574,3.093,3.093,0,0,1-1.262,1.109,3.949,3.949,0,0,1-1.77.395A3.67,3.67,0,0,1,34.551,16,4.56,4.56,0,0,1,33.5,12.82v-.148a4.508,4.508,0,0,1,1.039-3.117,3.627,3.627,0,0,1,2.852-1.164,3.555,3.555,0,0,1,2.543.9,3.2,3.2,0,0,1,.973,2.4H38.793a1.551,1.551,0,0,0-.406-1.072,1.51,1.51,0,0,0-2.223.163,3.333,3.333,0,0,0-.4,1.866v.235a3.375,3.375,0,0,0,.4,1.878A1.377,1.377,0,0,0,37.371,15.336Zm9.891.8a2.831,2.831,0,0,1-2.312,1.016,2.67,2.67,0,0,1-2.074-.781,3.335,3.335,0,0,1-.73-2.289V8.547H44.4v5.467q0,1.322,1.2,1.322a1.63,1.63,0,0,0,1.578-.8V8.547h2.266V17H47.324Zm7.781,1.016a4.15,4.15,0,0,1-3.027-1.141,4.054,4.054,0,0,1-1.168-3.039v-.219a5.106,5.106,0,0,1,.492-2.277,3.612,3.612,0,0,1,1.395-1.547,3.914,3.914,0,0,1,2.059-.543,3.508,3.508,0,0,1,2.73,1.094,4.444,4.444,0,0,1,1,3.1v.922H53.137a2.1,2.1,0,0,0,.66,1.328,2,2,0,0,0,1.395.5,2.437,2.437,0,0,0,2.039-.945l1.109,1.242a3.389,3.389,0,0,1-1.375,1.121A4.511,4.511,0,0,1,55.043,17.156Zm-.258-6.945a1.411,1.411,0,0,0-1.09.455,2.357,2.357,0,0,0-.535,1.3H56.3v-.181a1.681,1.681,0,0,0-.406-1.165A1.456,1.456,0,0,0,54.785,10.211Zm7.094-1.664.07.977a2.951,2.951,0,0,1,2.43-1.133,2.453,2.453,0,0,1,2,.789,3.682,3.682,0,0,1,.672,2.359V17H64.793V11.594a1.465,1.465,0,0,0-.312-1.043,1.4,1.4,0,0,0-1.039-.324,1.553,1.553,0,0,0-1.43.813V17H59.754V8.547Zm10.4,6.789a1.481,1.481,0,0,0,1.016-.344,1.2,1.2,0,0,0,.406-.914h2.117a2.9,2.9,0,0,1-.469,1.574,3.093,3.093,0,0,1-1.262,1.109,3.949,3.949,0,0,1-1.77.395A3.67,3.67,0,0,1,69.457,16,4.56,4.56,0,0,1,68.41,12.82v-.148a4.508,4.508,0,0,1,1.039-3.117A3.627,3.627,0,0,1,72.3,8.391a3.555,3.555,0,0,1,2.543.9,3.2,3.2,0,0,1,.973,2.4H73.7a1.551,1.551,0,0,0-.406-1.072,1.51,1.51,0,0,0-2.223.163,3.333,3.333,0,0,0-.4,1.866v.235a3.375,3.375,0,0,0,.4,1.878A1.377,1.377,0,0,0,72.277,15.336ZM79.488,17H77.223V8.547h2.266ZM77.09,6.359a1.112,1.112,0,0,1,.34-.836,1.465,1.465,0,0,1,1.848,0,1.105,1.105,0,0,1,.344.836,1.108,1.108,0,0,1-.348.844,1.448,1.448,0,0,1-1.836,0A1.108,1.108,0,0,1,77.09,6.359ZM86.246,17a2.507,2.507,0,0,1-.227-.758,2.732,2.732,0,0,1-2.133.914,3,3,0,0,1-2.059-.719,2.312,2.312,0,0,1-.816-1.812,2.389,2.389,0,0,1,1-2.062,4.915,4.915,0,0,1,2.879-.727h1.039v-.484a1.393,1.393,0,0,0-.3-.937,1.183,1.183,0,0,0-.949-.352,1.345,1.345,0,0,0-.895.273.929.929,0,0,0-.324.75H81.2a2.268,2.268,0,0,1,.453-1.359,3,3,0,0,1,1.281-.98,4.669,4.669,0,0,1,1.859-.355,3.689,3.689,0,0,1,2.48.785,2.747,2.747,0,0,1,.918,2.207v3.664a4.041,4.041,0,0,0,.336,1.82V17Zm-1.867-1.57a1.945,1.945,0,0,0,.922-.223,1.462,1.462,0,0,0,.625-.6V13.156h-.844q-1.7,0-1.8,1.172l-.008.133a.9.9,0,0,0,.3.7A1.153,1.153,0,0,0,84.379,15.43ZM24.246,41a2.507,2.507,0,0,1-.227-.758,2.732,2.732,0,0,1-2.133.914,3,3,0,0,1-2.059-.719,2.312,2.312,0,0,1-.816-1.812,2.389,2.389,0,0,1,1-2.062,4.915,4.915,0,0,1,2.879-.727h1.039v-.484a1.393,1.393,0,0,0-.3-.937,1.183,1.183,0,0,0-.949-.352,1.345,1.345,0,0,0-.895.273.929.929,0,0,0-.324.75H19.2a2.268,2.268,0,0,1,.453-1.359,3,3,0,0,1,1.281-.98,4.669,4.669,0,0,1,1.859-.355,3.689,3.689,0,0,1,2.48.785,2.747,2.747,0,0,1,.918,2.207v3.664a4.041,4.041,0,0,0,.336,1.82V41Zm-1.867-1.57a1.945,1.945,0,0,0,.922-.223,1.462,1.462,0,0,0,.625-.6V37.156h-.844q-1.7,0-1.8,1.172l-.008.133a.9.9,0,0,0,.3.7A1.153,1.153,0,0,0,22.379,39.43Zm13.164-2.578a5.119,5.119,0,0,1-.867,3.168,2.872,2.872,0,0,1-2.422,1.137,2.639,2.639,0,0,1-2.2-1.055l-.1.9H27.926V29h2.258v4.3a2.571,2.571,0,0,1,2.055-.914,2.9,2.9,0,0,1,2.426,1.137,5.126,5.126,0,0,1,.879,3.2Zm-2.258-.164a3.363,3.363,0,0,0-.406-1.871,1.374,1.374,0,0,0-1.211-.59,1.489,1.489,0,0,0-1.484.883v3.336a1.509,1.509,0,0,0,1.5.891,1.394,1.394,0,0,0,1.438-1.078A5.562,5.562,0,0,0,33.285,36.688Zm8.227,1.977a.727.727,0,0,0-.41-.652,4.659,4.659,0,0,0-1.316-.426q-3.016-.633-3.016-2.562a2.323,2.323,0,0,1,.934-1.879,3.766,3.766,0,0,1,2.441-.754,4.053,4.053,0,0,1,2.574.758,2.388,2.388,0,0,1,.965,1.969H41.426a1.092,1.092,0,0,0-.312-.8A1.322,1.322,0,0,0,40.137,34a1.351,1.351,0,0,0-.883.258.814.814,0,0,0-.312.656.7.7,0,0,0,.355.605,3.657,3.657,0,0,0,1.2.4,9.8,9.8,0,0,1,1.422.379,2.336,2.336,0,0,1,1.789,2.273,2.205,2.205,0,0,1-.992,1.871,4.28,4.28,0,0,1-2.562.715,4.47,4.47,0,0,1-1.887-.379,3.166,3.166,0,0,1-1.293-1.039,2.414,2.414,0,0,1-.469-1.426h2.141a1.179,1.179,0,0,0,.445.922,1.766,1.766,0,0,0,1.109.32,1.635,1.635,0,0,0,.98-.246A.766.766,0,0,0,41.512,38.664Zm3.3-1.969a5.013,5.013,0,0,1,.484-2.242,3.546,3.546,0,0,1,1.395-1.523,4.069,4.069,0,0,1,2.113-.539,3.849,3.849,0,0,1,2.793,1.047A4.2,4.2,0,0,1,52.8,36.281l.016.578A4.418,4.418,0,0,1,51.73,39.98a4.209,4.209,0,0,1-5.832,0,4.5,4.5,0,0,1-1.09-3.187Zm2.258.16A3.16,3.16,0,0,0,47.52,38.7a1.628,1.628,0,0,0,2.578.008,3.457,3.457,0,0,0,.461-2.015A3.128,3.128,0,0,0,50.1,34.86a1.5,1.5,0,0,0-1.3-.649,1.474,1.474,0,0,0-1.281.646A3.516,3.516,0,0,0,47.066,36.856ZM56.59,41H54.324V29H56.59Zm6.922-.859A2.831,2.831,0,0,1,61.2,41.156a2.67,2.67,0,0,1-2.074-.781,3.335,3.335,0,0,1-.73-2.289V32.547h2.258v5.467q0,1.322,1.2,1.322a1.63,1.63,0,0,0,1.578-.8V32.547H65.7V41H63.574Zm6.594-9.672v2.078h1.445V34.2H70.105v4.219a1.007,1.007,0,0,0,.18.672.9.9,0,0,0,.688.2,3.6,3.6,0,0,0,.664-.055v1.711a4.648,4.648,0,0,1-1.367.2,2.156,2.156,0,0,1-2.422-2.4V34.2H66.613V32.547h1.234V30.469ZM77.707,41a2.507,2.507,0,0,1-.227-.758,2.732,2.732,0,0,1-2.133.914,3,3,0,0,1-2.059-.719,2.312,2.312,0,0,1-.816-1.812,2.389,2.389,0,0,1,1-2.062,4.915,4.915,0,0,1,2.879-.727h1.039v-.484a1.393,1.393,0,0,0-.3-.937,1.183,1.183,0,0,0-.949-.352,1.345,1.345,0,0,0-.895.273.929.929,0,0,0-.324.75H72.66a2.268,2.268,0,0,1,.453-1.359,3,3,0,0,1,1.281-.98,4.669,4.669,0,0,1,1.859-.355,3.689,3.689,0,0,1,2.48.785,2.747,2.747,0,0,1,.918,2.207v3.664a4.041,4.041,0,0,0,.336,1.82V41ZM75.84,39.43a1.945,1.945,0,0,0,.922-.223,1.462,1.462,0,0,0,.625-.6V37.156h-.844q-1.7,0-1.8,1.172l-.008.133a.9.9,0,0,0,.3.7A1.153,1.153,0,0,0,75.84,39.43Z" transform="translate(-6315 -7414.139)" fill="#fef536"/>
    <path id="Trazado_226722" data-name="Trazado 226722" d="M14.559,12.352h-4.5V17H7.715V5.625h7.406v1.9H10.059v2.938h4.5Zm6.32-1.687a6.134,6.134,0,0,0-.812-.062,1.654,1.654,0,0,0-1.68.867V17H16.129V8.547h2.133l.063,1.008a2.092,2.092,0,0,1,1.883-1.164,2.366,2.366,0,0,1,.7.1Zm4.977,6.492a4.15,4.15,0,0,1-3.027-1.141,4.054,4.054,0,0,1-1.168-3.039v-.219a5.106,5.106,0,0,1,.492-2.277,3.612,3.612,0,0,1,1.395-1.547,3.914,3.914,0,0,1,2.059-.543,3.508,3.508,0,0,1,2.73,1.094,4.444,4.444,0,0,1,1,3.1v.922H23.949a2.1,2.1,0,0,0,.66,1.328,2,2,0,0,0,1.395.5,2.437,2.437,0,0,0,2.039-.945l1.109,1.242a3.389,3.389,0,0,1-1.375,1.121A4.511,4.511,0,0,1,25.855,17.156ZM25.6,10.211a1.411,1.411,0,0,0-1.09.455,2.357,2.357,0,0,0-.535,1.3h3.141v-.181a1.681,1.681,0,0,0-.406-1.165A1.456,1.456,0,0,0,25.6,10.211Zm8.531,5.125a1.481,1.481,0,0,0,1.016-.344,1.2,1.2,0,0,0,.406-.914h2.117a2.9,2.9,0,0,1-.469,1.574,3.093,3.093,0,0,1-1.262,1.109,3.949,3.949,0,0,1-1.77.395A3.67,3.67,0,0,1,31.309,16a4.56,4.56,0,0,1-1.047-3.184v-.148A4.508,4.508,0,0,1,31.3,9.555a3.627,3.627,0,0,1,2.852-1.164,3.555,3.555,0,0,1,2.543.9,3.2,3.2,0,0,1,.973,2.4H35.551a1.551,1.551,0,0,0-.406-1.072,1.51,1.51,0,0,0-2.223.163,3.333,3.333,0,0,0-.4,1.866v.235a3.375,3.375,0,0,0,.4,1.878A1.377,1.377,0,0,0,34.129,15.336Zm9.891.8a2.831,2.831,0,0,1-2.312,1.016,2.67,2.67,0,0,1-2.074-.781,3.335,3.335,0,0,1-.73-2.289V8.547H41.16v5.467q0,1.322,1.2,1.322a1.63,1.63,0,0,0,1.578-.8V8.547h2.266V17H44.082ZM51.8,17.156a4.15,4.15,0,0,1-3.027-1.141,4.054,4.054,0,0,1-1.168-3.039v-.219A5.106,5.106,0,0,1,48.1,10.48a3.612,3.612,0,0,1,1.395-1.547,3.914,3.914,0,0,1,2.059-.543,3.508,3.508,0,0,1,2.73,1.094,4.444,4.444,0,0,1,1,3.1v.922H49.895a2.1,2.1,0,0,0,.66,1.328,2,2,0,0,0,1.395.5,2.437,2.437,0,0,0,2.039-.945L55.1,15.633a3.389,3.389,0,0,1-1.375,1.121A4.511,4.511,0,0,1,51.8,17.156Zm-.258-6.945a1.411,1.411,0,0,0-1.09.455,2.357,2.357,0,0,0-.535,1.3h3.141v-.181a1.681,1.681,0,0,0-.406-1.165A1.456,1.456,0,0,0,51.543,10.211Zm7.094-1.664.07.977a2.951,2.951,0,0,1,2.43-1.133,2.453,2.453,0,0,1,2,.789,3.682,3.682,0,0,1,.672,2.359V17H61.551V11.594a1.465,1.465,0,0,0-.312-1.043,1.4,1.4,0,0,0-1.039-.324,1.553,1.553,0,0,0-1.43.813V17H56.512V8.547Zm10.4,6.789a1.481,1.481,0,0,0,1.016-.344,1.2,1.2,0,0,0,.406-.914h2.117a2.9,2.9,0,0,1-.469,1.574,3.093,3.093,0,0,1-1.262,1.109,3.949,3.949,0,0,1-1.77.395A3.67,3.67,0,0,1,66.215,16a4.56,4.56,0,0,1-1.047-3.184v-.148a4.508,4.508,0,0,1,1.039-3.117,3.627,3.627,0,0,1,2.852-1.164,3.555,3.555,0,0,1,2.543.9,3.2,3.2,0,0,1,.973,2.4H70.457a1.551,1.551,0,0,0-.406-1.072,1.51,1.51,0,0,0-2.223.163,3.333,3.333,0,0,0-.4,1.866v.235a3.375,3.375,0,0,0,.4,1.878A1.377,1.377,0,0,0,69.035,15.336ZM76.246,17H73.98V8.547h2.266Zm-2.4-10.641a1.112,1.112,0,0,1,.34-.836,1.465,1.465,0,0,1,1.848,0,1.105,1.105,0,0,1,.344.836,1.108,1.108,0,0,1-.348.844,1.448,1.448,0,0,1-1.836,0A1.108,1.108,0,0,1,73.848,6.359ZM83,17a2.507,2.507,0,0,1-.227-.758,2.732,2.732,0,0,1-2.133.914,3,3,0,0,1-2.059-.719,2.312,2.312,0,0,1-.816-1.812,2.389,2.389,0,0,1,1-2.062,4.915,4.915,0,0,1,2.879-.727h1.039v-.484a1.393,1.393,0,0,0-.3-.937,1.183,1.183,0,0,0-.949-.352,1.345,1.345,0,0,0-.895.273.929.929,0,0,0-.324.75H77.957a2.268,2.268,0,0,1,.453-1.359,3,3,0,0,1,1.281-.98,4.669,4.669,0,0,1,1.859-.355,3.689,3.689,0,0,1,2.48.785,2.747,2.747,0,0,1,.918,2.207v3.664a4.041,4.041,0,0,0,.336,1.82V17Zm-1.867-1.57a1.945,1.945,0,0,0,.922-.223,1.462,1.462,0,0,0,.625-.6V13.156H81.84q-1.7,0-1.8,1.172l-.008.133a.9.9,0,0,0,.3.7A1.153,1.153,0,0,0,81.137,15.43Zm14.281-4.766a6.134,6.134,0,0,0-.812-.062,1.654,1.654,0,0,0-1.68.867V17H90.668V8.547H92.8l.063,1.008a2.092,2.092,0,0,1,1.883-1.164,2.366,2.366,0,0,1,.7.1Zm4.977,6.492a4.15,4.15,0,0,1-3.027-1.141A4.054,4.054,0,0,1,96.2,12.977v-.219a5.106,5.106,0,0,1,.492-2.277,3.612,3.612,0,0,1,1.395-1.547,3.914,3.914,0,0,1,2.059-.543,3.508,3.508,0,0,1,2.73,1.094,4.444,4.444,0,0,1,1,3.1v.922H98.488a2.1,2.1,0,0,0,.66,1.328,2,2,0,0,0,1.395.5,2.437,2.437,0,0,0,2.039-.945l1.109,1.242a3.389,3.389,0,0,1-1.375,1.121A4.511,4.511,0,0,1,100.395,17.156Zm-.258-6.945a1.411,1.411,0,0,0-1.09.455,2.357,2.357,0,0,0-.535,1.3h3.141v-.181a1.681,1.681,0,0,0-.406-1.165A1.456,1.456,0,0,0,100.137,10.211Zm7.4,6.789H105.27V5h2.266Zm6.758,0a2.507,2.507,0,0,1-.227-.758,2.732,2.732,0,0,1-2.133.914,3,3,0,0,1-2.059-.719,2.312,2.312,0,0,1-.816-1.812,2.389,2.389,0,0,1,1-2.062,4.915,4.915,0,0,1,2.879-.727h1.039v-.484a1.393,1.393,0,0,0-.3-.937,1.183,1.183,0,0,0-.949-.352,1.345,1.345,0,0,0-.895.273.929.929,0,0,0-.324.75h-2.258a2.268,2.268,0,0,1,.453-1.359,3,3,0,0,1,1.281-.98,4.669,4.669,0,0,1,1.859-.355,3.689,3.689,0,0,1,2.48.785,2.747,2.747,0,0,1,.918,2.207v3.664a4.041,4.041,0,0,0,.336,1.82V17Zm-1.867-1.57a1.945,1.945,0,0,0,.922-.223,1.462,1.462,0,0,0,.625-.6V13.156h-.844q-1.7,0-1.8,1.172l-.008.133a.9.9,0,0,0,.3.7A1.153,1.153,0,0,0,112.426,15.43Zm8.25-8.961V8.547h1.445V10.2h-1.445v4.219a1.007,1.007,0,0,0,.18.672.9.9,0,0,0,.688.2,3.6,3.6,0,0,0,.664-.055v1.711a4.648,4.648,0,0,1-1.367.2,2.156,2.156,0,0,1-2.422-2.4V10.2h-1.234V8.547h1.234V6.469ZM125.762,17H123.5V8.547h2.266Zm-2.4-10.641a1.112,1.112,0,0,1,.34-.836,1.465,1.465,0,0,1,1.848,0,1.105,1.105,0,0,1,.344.836,1.108,1.108,0,0,1-.348.844,1.448,1.448,0,0,1-1.836,0A1.108,1.108,0,0,1,123.363,6.359Zm7.422,7.883,1.57-5.7h2.359L131.863,17h-2.156l-2.852-8.453h2.359Zm9.7,2.758a2.507,2.507,0,0,1-.227-.758,2.732,2.732,0,0,1-2.133.914,3,3,0,0,1-2.059-.719,2.312,2.312,0,0,1-.816-1.812,2.389,2.389,0,0,1,1-2.062,4.915,4.915,0,0,1,2.879-.727h1.039v-.484a1.393,1.393,0,0,0-.3-.937,1.183,1.183,0,0,0-.949-.352,1.345,1.345,0,0,0-.895.273.929.929,0,0,0-.324.75h-2.258a2.268,2.268,0,0,1,.453-1.359,3,3,0,0,1,1.281-.98,4.669,4.669,0,0,1,1.859-.355,3.689,3.689,0,0,1,2.48.785,2.747,2.747,0,0,1,.918,2.207v3.664a4.041,4.041,0,0,0,.336,1.82V17Zm-1.867-1.57a1.945,1.945,0,0,0,.922-.223,1.462,1.462,0,0,0,.625-.6V13.156h-.844q-1.7,0-1.8,1.172l-.008.133a.9.9,0,0,0,.3.7A1.153,1.153,0,0,0,138.621,15.43ZM41.219,41a2.507,2.507,0,0,1-.227-.758,2.732,2.732,0,0,1-2.133.914,3,3,0,0,1-2.059-.719,2.312,2.312,0,0,1-.816-1.812,2.389,2.389,0,0,1,1-2.062,4.915,4.915,0,0,1,2.879-.727H40.9v-.484a1.393,1.393,0,0,0-.3-.937,1.183,1.183,0,0,0-.949-.352,1.345,1.345,0,0,0-.895.273.929.929,0,0,0-.324.75H36.172a2.268,2.268,0,0,1,.453-1.359,3,3,0,0,1,1.281-.98,4.669,4.669,0,0,1,1.859-.355,3.689,3.689,0,0,1,2.48.785,2.747,2.747,0,0,1,.918,2.207v3.664a4.041,4.041,0,0,0,.336,1.82V41Zm-1.867-1.57a1.945,1.945,0,0,0,.922-.223,1.462,1.462,0,0,0,.625-.6V37.156h-.844q-1.7,0-1.8,1.172l-.008.133a.9.9,0,0,0,.3.7A1.153,1.153,0,0,0,39.352,39.43Zm9.063-.094a1.481,1.481,0,0,0,1.016-.344,1.2,1.2,0,0,0,.406-.914h2.117a2.9,2.9,0,0,1-.469,1.574,3.093,3.093,0,0,1-1.262,1.109,3.949,3.949,0,0,1-1.77.395A3.67,3.67,0,0,1,45.594,40a4.56,4.56,0,0,1-1.047-3.184v-.148a4.508,4.508,0,0,1,1.039-3.117,3.627,3.627,0,0,1,2.852-1.164,3.555,3.555,0,0,1,2.543.9,3.2,3.2,0,0,1,.973,2.4H49.836a1.551,1.551,0,0,0-.406-1.072,1.51,1.51,0,0,0-2.223.163,3.333,3.333,0,0,0-.4,1.866v.235a3.375,3.375,0,0,0,.4,1.878A1.377,1.377,0,0,0,48.414,39.336Zm9.891.8a2.831,2.831,0,0,1-2.312,1.016,2.67,2.67,0,0,1-2.074-.781,3.335,3.335,0,0,1-.73-2.289V32.547h2.258v5.467q0,1.322,1.2,1.322a1.63,1.63,0,0,0,1.578-.8V32.547h2.266V41H58.367Zm6.008-7.594.07.945a2.971,2.971,0,0,1,2.43-1.1,2.255,2.255,0,0,1,2.242,1.289,2.9,2.9,0,0,1,2.539-1.289,2.521,2.521,0,0,1,2.047.8,3.681,3.681,0,0,1,.672,2.41V41H72.047V35.609a1.61,1.61,0,0,0-.281-1.051,1.246,1.246,0,0,0-.992-.332,1.409,1.409,0,0,0-1.406.969l.008,5.8H67.117V35.617a1.59,1.59,0,0,0-.289-1.062,1.259,1.259,0,0,0-.984-.328,1.463,1.463,0,0,0-1.391.8V41H62.2V32.547Zm16.8,7.594A2.831,2.831,0,0,1,78.8,41.156a2.67,2.67,0,0,1-2.074-.781,3.335,3.335,0,0,1-.73-2.289V32.547H78.25v5.467q0,1.322,1.2,1.322a1.63,1.63,0,0,0,1.578-.8V32.547H83.3V41H81.172ZM87.383,41H85.117V29h2.266Zm6.758,0a2.507,2.507,0,0,1-.227-.758,2.732,2.732,0,0,1-2.133.914,3,3,0,0,1-2.059-.719,2.312,2.312,0,0,1-.816-1.812,2.389,2.389,0,0,1,1-2.062,4.915,4.915,0,0,1,2.879-.727H93.82v-.484a1.393,1.393,0,0,0-.3-.937,1.183,1.183,0,0,0-.949-.352,1.345,1.345,0,0,0-.895.273.929.929,0,0,0-.324.75H89.094a2.268,2.268,0,0,1,.453-1.359,3,3,0,0,1,1.281-.98,4.669,4.669,0,0,1,1.859-.355,3.689,3.689,0,0,1,2.48.785,2.747,2.747,0,0,1,.918,2.207v3.664a4.041,4.041,0,0,0,.336,1.82V41Zm-1.867-1.57a1.945,1.945,0,0,0,.922-.223,1.462,1.462,0,0,0,.625-.6V37.156h-.844q-1.7,0-1.8,1.172l-.008.133a.9.9,0,0,0,.3.7A1.153,1.153,0,0,0,92.273,39.43Zm5.2-2.719a5.094,5.094,0,0,1,.887-3.148,2.877,2.877,0,0,1,2.426-1.172,2.589,2.589,0,0,1,2.039.922V29h2.266V41h-2.039l-.109-.9a2.657,2.657,0,0,1-2.172,1.055,2.869,2.869,0,0,1-2.395-1.176A5.258,5.258,0,0,1,97.469,36.711Zm2.258.168a3.337,3.337,0,0,0,.414,1.823,1.349,1.349,0,0,0,1.2.634,1.511,1.511,0,0,0,1.477-.884V35.111a1.489,1.489,0,0,0-1.461-.884Q99.727,34.227,99.727,36.879ZM111.734,41a2.507,2.507,0,0,1-.227-.758,2.732,2.732,0,0,1-2.133.914,3,3,0,0,1-2.059-.719,2.312,2.312,0,0,1-.816-1.812,2.389,2.389,0,0,1,1-2.062,4.915,4.915,0,0,1,2.879-.727h1.039v-.484a1.393,1.393,0,0,0-.3-.937,1.183,1.183,0,0,0-.949-.352,1.345,1.345,0,0,0-.895.273.929.929,0,0,0-.324.75h-2.258a2.268,2.268,0,0,1,.453-1.359,3,3,0,0,1,1.281-.98,4.669,4.669,0,0,1,1.859-.355,3.689,3.689,0,0,1,2.48.785,2.747,2.747,0,0,1,.918,2.207v3.664a4.041,4.041,0,0,0,.336,1.82V41Zm-1.867-1.57a1.945,1.945,0,0,0,.922-.223,1.462,1.462,0,0,0,.625-.6V37.156h-.844q-1.7,0-1.8,1.172l-.008.133a.9.9,0,0,0,.3.7A1.153,1.153,0,0,0,109.867,39.43Z" transform="translate(-5940 -7414.139)" fill="#fef536"/>
    <path id="Trazado_226723" data-name="Trazado 226723" d="M26.8,12.352H22.3V17H19.957V5.625h7.406v1.9H22.3v2.938h4.5Zm6.32-1.687a6.134,6.134,0,0,0-.812-.062,1.654,1.654,0,0,0-1.68.867V17H28.371V8.547H30.5l.063,1.008a2.092,2.092,0,0,1,1.883-1.164,2.366,2.366,0,0,1,.7.1ZM38.1,17.156a4.15,4.15,0,0,1-3.027-1.141A4.054,4.054,0,0,1,33.9,12.977v-.219a5.106,5.106,0,0,1,.492-2.277,3.612,3.612,0,0,1,1.395-1.547,3.914,3.914,0,0,1,2.059-.543,3.508,3.508,0,0,1,2.73,1.094,4.444,4.444,0,0,1,1,3.1v.922H36.191a2.1,2.1,0,0,0,.66,1.328,2,2,0,0,0,1.395.5,2.437,2.437,0,0,0,2.039-.945l1.109,1.242a3.389,3.389,0,0,1-1.375,1.121A4.511,4.511,0,0,1,38.1,17.156Zm-.258-6.945a1.411,1.411,0,0,0-1.09.455,2.357,2.357,0,0,0-.535,1.3h3.141v-.181a1.681,1.681,0,0,0-.406-1.165A1.456,1.456,0,0,0,37.84,10.211Zm8.531,5.125a1.481,1.481,0,0,0,1.016-.344,1.2,1.2,0,0,0,.406-.914H49.91a2.9,2.9,0,0,1-.469,1.574,3.093,3.093,0,0,1-1.262,1.109,3.949,3.949,0,0,1-1.77.395A3.67,3.67,0,0,1,43.551,16,4.56,4.56,0,0,1,42.5,12.82v-.148a4.508,4.508,0,0,1,1.039-3.117,3.627,3.627,0,0,1,2.852-1.164,3.555,3.555,0,0,1,2.543.9,3.2,3.2,0,0,1,.973,2.4H47.793a1.551,1.551,0,0,0-.406-1.072,1.51,1.51,0,0,0-2.223.163,3.333,3.333,0,0,0-.4,1.866v.235a3.375,3.375,0,0,0,.4,1.878A1.377,1.377,0,0,0,46.371,15.336Zm9.891.8a2.831,2.831,0,0,1-2.312,1.016,2.67,2.67,0,0,1-2.074-.781,3.335,3.335,0,0,1-.73-2.289V8.547H53.4v5.467q0,1.322,1.2,1.322a1.63,1.63,0,0,0,1.578-.8V8.547h2.266V17H56.324Zm7.781,1.016a4.15,4.15,0,0,1-3.027-1.141,4.054,4.054,0,0,1-1.168-3.039v-.219a5.106,5.106,0,0,1,.492-2.277,3.612,3.612,0,0,1,1.395-1.547,3.914,3.914,0,0,1,2.059-.543,3.508,3.508,0,0,1,2.73,1.094,4.444,4.444,0,0,1,1,3.1v.922H62.137a2.1,2.1,0,0,0,.66,1.328,2,2,0,0,0,1.395.5,2.437,2.437,0,0,0,2.039-.945l1.109,1.242a3.389,3.389,0,0,1-1.375,1.121A4.511,4.511,0,0,1,64.043,17.156Zm-.258-6.945a1.411,1.411,0,0,0-1.09.455,2.357,2.357,0,0,0-.535,1.3H65.3v-.181a1.681,1.681,0,0,0-.406-1.165A1.456,1.456,0,0,0,63.785,10.211Zm7.094-1.664.07.977a2.951,2.951,0,0,1,2.43-1.133,2.453,2.453,0,0,1,2,.789,3.682,3.682,0,0,1,.672,2.359V17H73.793V11.594a1.465,1.465,0,0,0-.312-1.043,1.4,1.4,0,0,0-1.039-.324,1.553,1.553,0,0,0-1.43.813V17H68.754V8.547Zm10.4,6.789a1.481,1.481,0,0,0,1.016-.344,1.2,1.2,0,0,0,.406-.914h2.117a2.9,2.9,0,0,1-.469,1.574,3.093,3.093,0,0,1-1.262,1.109,3.949,3.949,0,0,1-1.77.395A3.67,3.67,0,0,1,78.457,16,4.56,4.56,0,0,1,77.41,12.82v-.148a4.508,4.508,0,0,1,1.039-3.117A3.627,3.627,0,0,1,81.3,8.391a3.555,3.555,0,0,1,2.543.9,3.2,3.2,0,0,1,.973,2.4H82.7a1.551,1.551,0,0,0-.406-1.072,1.51,1.51,0,0,0-2.223.163,3.333,3.333,0,0,0-.4,1.866v.235a3.375,3.375,0,0,0,.4,1.878A1.377,1.377,0,0,0,81.277,15.336ZM88.488,17H86.223V8.547h2.266ZM86.09,6.359a1.112,1.112,0,0,1,.34-.836,1.465,1.465,0,0,1,1.848,0,1.105,1.105,0,0,1,.344.836,1.108,1.108,0,0,1-.348.844,1.448,1.448,0,0,1-1.836,0A1.108,1.108,0,0,1,86.09,6.359ZM95.246,17a2.507,2.507,0,0,1-.227-.758,2.732,2.732,0,0,1-2.133.914,3,3,0,0,1-2.059-.719,2.312,2.312,0,0,1-.816-1.812,2.389,2.389,0,0,1,1-2.062,4.915,4.915,0,0,1,2.879-.727h1.039v-.484a1.393,1.393,0,0,0-.3-.937,1.183,1.183,0,0,0-.949-.352,1.345,1.345,0,0,0-.895.273.929.929,0,0,0-.324.75H90.2a2.268,2.268,0,0,1,.453-1.359,3,3,0,0,1,1.281-.98,4.669,4.669,0,0,1,1.859-.355,3.689,3.689,0,0,1,2.48.785,2.747,2.747,0,0,1,.918,2.207v3.664a4.041,4.041,0,0,0,.336,1.82V17Zm-1.867-1.57a1.945,1.945,0,0,0,.922-.223,1.462,1.462,0,0,0,.625-.6V13.156h-.844q-1.7,0-1.8,1.172l-.008.133a.9.9,0,0,0,.3.7A1.153,1.153,0,0,0,93.379,15.43ZM37.367,34.664a6.134,6.134,0,0,0-.812-.062,1.654,1.654,0,0,0-1.68.867V41H32.617V32.547H34.75l.063,1.008A2.092,2.092,0,0,1,36.7,32.391a2.366,2.366,0,0,1,.7.1Zm4.977,6.492a4.15,4.15,0,0,1-3.027-1.141,4.054,4.054,0,0,1-1.168-3.039v-.219a5.106,5.106,0,0,1,.492-2.277,3.612,3.612,0,0,1,1.395-1.547,3.914,3.914,0,0,1,2.059-.543,3.508,3.508,0,0,1,2.73,1.094,4.444,4.444,0,0,1,1,3.1v.922H40.438a2.1,2.1,0,0,0,.66,1.328,2,2,0,0,0,1.395.5,2.437,2.437,0,0,0,2.039-.945l1.109,1.242a3.389,3.389,0,0,1-1.375,1.121A4.511,4.511,0,0,1,42.344,41.156Zm-.258-6.945a1.411,1.411,0,0,0-1.09.455,2.357,2.357,0,0,0-.535,1.3H43.6v-.181a1.681,1.681,0,0,0-.406-1.165A1.456,1.456,0,0,0,42.086,34.211ZM49.484,41H47.219V29h2.266Zm6.758,0a2.507,2.507,0,0,1-.227-.758,2.732,2.732,0,0,1-2.133.914,3,3,0,0,1-2.059-.719,2.312,2.312,0,0,1-.816-1.812,2.389,2.389,0,0,1,1-2.062,4.915,4.915,0,0,1,2.879-.727h1.039v-.484a1.393,1.393,0,0,0-.3-.937,1.183,1.183,0,0,0-.949-.352,1.345,1.345,0,0,0-.895.273.929.929,0,0,0-.324.75H51.2a2.268,2.268,0,0,1,.453-1.359,3,3,0,0,1,1.281-.98,4.669,4.669,0,0,1,1.859-.355,3.689,3.689,0,0,1,2.48.785,2.747,2.747,0,0,1,.918,2.207v3.664a4.041,4.041,0,0,0,.336,1.82V41Zm-1.867-1.57a1.945,1.945,0,0,0,.922-.223,1.462,1.462,0,0,0,.625-.6V37.156h-.844q-1.7,0-1.8,1.172l-.008.133a.9.9,0,0,0,.3.7A1.153,1.153,0,0,0,54.375,39.43Zm8.25-8.961v2.078H64.07V34.2H62.625v4.219a1.007,1.007,0,0,0,.18.672.9.9,0,0,0,.688.2,3.6,3.6,0,0,0,.664-.055v1.711a4.648,4.648,0,0,1-1.367.2,2.156,2.156,0,0,1-2.422-2.4V34.2H59.133V32.547h1.234V30.469ZM67.711,41H65.445V32.547h2.266Zm-2.4-10.641a1.112,1.112,0,0,1,.34-.836,1.465,1.465,0,0,1,1.848,0,1.193,1.193,0,0,1,0,1.68,1.448,1.448,0,0,1-1.836,0A1.108,1.108,0,0,1,65.313,30.359Zm7.422,7.883,1.57-5.7h2.359L73.813,41H71.656L68.8,32.547h2.359ZM82.438,41a2.507,2.507,0,0,1-.227-.758,2.732,2.732,0,0,1-2.133.914,3,3,0,0,1-2.059-.719,2.312,2.312,0,0,1-.816-1.812,2.389,2.389,0,0,1,1-2.062,4.915,4.915,0,0,1,2.879-.727h1.039v-.484a1.393,1.393,0,0,0-.3-.937,1.183,1.183,0,0,0-.949-.352,1.345,1.345,0,0,0-.895.273.929.929,0,0,0-.324.75H77.391a2.268,2.268,0,0,1,.453-1.359,3,3,0,0,1,1.281-.98,4.669,4.669,0,0,1,1.859-.355,3.689,3.689,0,0,1,2.48.785,2.747,2.747,0,0,1,.918,2.207v3.664a4.041,4.041,0,0,0,.336,1.82V41ZM80.57,39.43a1.945,1.945,0,0,0,.922-.223,1.462,1.462,0,0,0,.625-.6V37.156h-.844q-1.7,0-1.8,1.172l-.008.133a.9.9,0,0,0,.3.7A1.153,1.153,0,0,0,80.57,39.43Z" transform="translate(-6057 -7414.139)" fill="#fef536"/>
    <path id="Trazado_226724" data-name="Trazado 226724" d="M15.789,12.352h-4.5V17H8.945V5.625h7.406v1.9H11.289v2.938h4.5Zm6.32-1.687A6.134,6.134,0,0,0,21.3,10.6a1.654,1.654,0,0,0-1.68.867V17H17.359V8.547h2.133l.063,1.008a2.092,2.092,0,0,1,1.883-1.164,2.366,2.366,0,0,1,.7.1Zm4.977,6.492a4.15,4.15,0,0,1-3.027-1.141,4.054,4.054,0,0,1-1.168-3.039v-.219a5.106,5.106,0,0,1,.492-2.277,3.612,3.612,0,0,1,1.395-1.547,3.914,3.914,0,0,1,2.059-.543,3.508,3.508,0,0,1,2.73,1.094,4.444,4.444,0,0,1,1,3.1v.922H25.18a2.1,2.1,0,0,0,.66,1.328,2,2,0,0,0,1.395.5,2.437,2.437,0,0,0,2.039-.945l1.109,1.242a3.389,3.389,0,0,1-1.375,1.121A4.511,4.511,0,0,1,27.086,17.156Zm-.258-6.945a1.411,1.411,0,0,0-1.09.455,2.357,2.357,0,0,0-.535,1.3h3.141v-.181a1.681,1.681,0,0,0-.406-1.165A1.456,1.456,0,0,0,26.828,10.211Zm8.531,5.125a1.481,1.481,0,0,0,1.016-.344,1.2,1.2,0,0,0,.406-.914H38.9a2.9,2.9,0,0,1-.469,1.574,3.093,3.093,0,0,1-1.262,1.109,3.949,3.949,0,0,1-1.77.395A3.67,3.67,0,0,1,32.539,16a4.56,4.56,0,0,1-1.047-3.184v-.148a4.508,4.508,0,0,1,1.039-3.117,3.627,3.627,0,0,1,2.852-1.164,3.555,3.555,0,0,1,2.543.9,3.2,3.2,0,0,1,.973,2.4H36.781a1.551,1.551,0,0,0-.406-1.072,1.51,1.51,0,0,0-2.223.163,3.333,3.333,0,0,0-.4,1.866v.235a3.375,3.375,0,0,0,.4,1.878A1.377,1.377,0,0,0,35.359,15.336Zm9.891.8a2.831,2.831,0,0,1-2.312,1.016,2.67,2.67,0,0,1-2.074-.781,3.335,3.335,0,0,1-.73-2.289V8.547h2.258v5.467q0,1.322,1.2,1.322a1.63,1.63,0,0,0,1.578-.8V8.547h2.266V17H45.313Zm7.781,1.016A4.15,4.15,0,0,1,50,16.016a4.054,4.054,0,0,1-1.168-3.039v-.219a5.106,5.106,0,0,1,.492-2.277,3.612,3.612,0,0,1,1.395-1.547,3.914,3.914,0,0,1,2.059-.543,3.508,3.508,0,0,1,2.73,1.094,4.444,4.444,0,0,1,1,3.1v.922H51.125a2.1,2.1,0,0,0,.66,1.328,2,2,0,0,0,1.395.5,2.437,2.437,0,0,0,2.039-.945l1.109,1.242a3.389,3.389,0,0,1-1.375,1.121A4.511,4.511,0,0,1,53.031,17.156Zm-.258-6.945a1.411,1.411,0,0,0-1.09.455,2.357,2.357,0,0,0-.535,1.3h3.141v-.181a1.681,1.681,0,0,0-.406-1.165A1.456,1.456,0,0,0,52.773,10.211Zm7.094-1.664.07.977a2.951,2.951,0,0,1,2.43-1.133,2.453,2.453,0,0,1,2,.789,3.682,3.682,0,0,1,.672,2.359V17H62.781V11.594a1.465,1.465,0,0,0-.312-1.043,1.4,1.4,0,0,0-1.039-.324,1.553,1.553,0,0,0-1.43.813V17H57.742V8.547Zm10.4,6.789a1.481,1.481,0,0,0,1.016-.344,1.2,1.2,0,0,0,.406-.914H73.8a2.9,2.9,0,0,1-.469,1.574,3.093,3.093,0,0,1-1.262,1.109,3.949,3.949,0,0,1-1.77.395A3.67,3.67,0,0,1,67.445,16,4.56,4.56,0,0,1,66.4,12.82v-.148a4.508,4.508,0,0,1,1.039-3.117,3.627,3.627,0,0,1,2.852-1.164,3.555,3.555,0,0,1,2.543.9,3.2,3.2,0,0,1,.973,2.4H71.688a1.551,1.551,0,0,0-.406-1.072,1.51,1.51,0,0,0-2.223.163,3.333,3.333,0,0,0-.4,1.866v.235a3.375,3.375,0,0,0,.4,1.878A1.377,1.377,0,0,0,70.266,15.336ZM77.477,17H75.211V8.547h2.266Zm-2.4-10.641a1.112,1.112,0,0,1,.34-.836,1.465,1.465,0,0,1,1.848,0,1.105,1.105,0,0,1,.344.836,1.108,1.108,0,0,1-.348.844,1.448,1.448,0,0,1-1.836,0A1.108,1.108,0,0,1,75.078,6.359ZM84.234,17a2.507,2.507,0,0,1-.227-.758,2.732,2.732,0,0,1-2.133.914,3,3,0,0,1-2.059-.719A2.312,2.312,0,0,1,79,14.625a2.389,2.389,0,0,1,1-2.062,4.915,4.915,0,0,1,2.879-.727h1.039v-.484a1.393,1.393,0,0,0-.3-.937,1.183,1.183,0,0,0-.949-.352,1.345,1.345,0,0,0-.895.273.929.929,0,0,0-.324.75H79.188a2.268,2.268,0,0,1,.453-1.359,3,3,0,0,1,1.281-.98,4.669,4.669,0,0,1,1.859-.355,3.689,3.689,0,0,1,2.48.785,2.747,2.747,0,0,1,.918,2.207v3.664a4.041,4.041,0,0,0,.336,1.82V17Zm-1.867-1.57a1.945,1.945,0,0,0,.922-.223,1.462,1.462,0,0,0,.625-.6V13.156H83.07q-1.7,0-1.8,1.172l-.008.133a.9.9,0,0,0,.3.7A1.153,1.153,0,0,0,82.367,15.43ZM96.8,17a2.507,2.507,0,0,1-.227-.758,2.732,2.732,0,0,1-2.133.914,3,3,0,0,1-2.059-.719,2.312,2.312,0,0,1-.816-1.812,2.389,2.389,0,0,1,1-2.062,4.915,4.915,0,0,1,2.879-.727h1.039v-.484a1.393,1.393,0,0,0-.3-.937,1.183,1.183,0,0,0-.949-.352,1.345,1.345,0,0,0-.895.273.929.929,0,0,0-.324.75H91.75A2.268,2.268,0,0,1,92.2,9.727a3,3,0,0,1,1.281-.98,4.669,4.669,0,0,1,1.859-.355,3.689,3.689,0,0,1,2.48.785,2.747,2.747,0,0,1,.918,2.207v3.664a4.041,4.041,0,0,0,.336,1.82V17ZM94.93,15.43a1.945,1.945,0,0,0,.922-.223,1.462,1.462,0,0,0,.625-.6V13.156h-.844q-1.7,0-1.8,1.172l-.008.133a.9.9,0,0,0,.3.7A1.153,1.153,0,0,0,94.93,15.43Zm13.164-2.578a5.119,5.119,0,0,1-.867,3.168,2.872,2.872,0,0,1-2.422,1.137,2.639,2.639,0,0,1-2.2-1.055l-.1.9h-2.031V5h2.258V9.3a2.571,2.571,0,0,1,2.055-.914,2.9,2.9,0,0,1,2.426,1.137,5.126,5.126,0,0,1,.879,3.2Zm-2.258-.164a3.363,3.363,0,0,0-.406-1.871,1.374,1.374,0,0,0-1.211-.59,1.489,1.489,0,0,0-1.484.883v3.336a1.509,1.509,0,0,0,1.5.891,1.394,1.394,0,0,0,1.438-1.078A5.562,5.562,0,0,0,105.836,12.688Zm8.227,1.977a.727.727,0,0,0-.41-.652,4.659,4.659,0,0,0-1.316-.426q-3.016-.633-3.016-2.562a2.323,2.323,0,0,1,.934-1.879,3.766,3.766,0,0,1,2.441-.754,4.053,4.053,0,0,1,2.574.758,2.388,2.388,0,0,1,.965,1.969h-2.258a1.092,1.092,0,0,0-.312-.8,1.322,1.322,0,0,0-.977-.316,1.351,1.351,0,0,0-.883.258.814.814,0,0,0-.312.656.7.7,0,0,0,.355.605,3.657,3.657,0,0,0,1.2.4,9.8,9.8,0,0,1,1.422.379,2.336,2.336,0,0,1,1.789,2.273,2.2,2.2,0,0,1-.992,1.871,4.28,4.28,0,0,1-2.562.715,4.47,4.47,0,0,1-1.887-.379,3.166,3.166,0,0,1-1.293-1.039,2.414,2.414,0,0,1-.469-1.426H111.2a1.179,1.179,0,0,0,.445.922,1.766,1.766,0,0,0,1.109.32,1.635,1.635,0,0,0,.98-.246A.766.766,0,0,0,114.063,14.664Zm3.3-1.969a5.013,5.013,0,0,1,.484-2.242,3.546,3.546,0,0,1,1.395-1.523,4.069,4.069,0,0,1,2.113-.539,3.849,3.849,0,0,1,2.793,1.047,4.2,4.2,0,0,1,1.207,2.844l.016.578a4.418,4.418,0,0,1-1.086,3.121,4.209,4.209,0,0,1-5.832,0,4.5,4.5,0,0,1-1.09-3.187Zm2.258.16a3.16,3.16,0,0,0,.453,1.843,1.628,1.628,0,0,0,2.578.008,3.457,3.457,0,0,0,.461-2.015,3.128,3.128,0,0,0-.461-1.831,1.5,1.5,0,0,0-1.3-.649,1.474,1.474,0,0,0-1.281.646A3.516,3.516,0,0,0,119.617,12.856ZM129.141,17h-2.266V5h2.266Zm6.922-.859a2.831,2.831,0,0,1-2.312,1.016,2.67,2.67,0,0,1-2.074-.781,3.335,3.335,0,0,1-.73-2.289V8.547H133.2v5.467q0,1.322,1.2,1.322a1.63,1.63,0,0,0,1.578-.8V8.547h2.266V17h-2.125Zm6.594-9.672V8.547H144.1V10.2h-1.445v4.219a1.007,1.007,0,0,0,.18.672.9.9,0,0,0,.688.2,3.6,3.6,0,0,0,.664-.055v1.711a4.648,4.648,0,0,1-1.367.2,2.156,2.156,0,0,1-2.422-2.4V10.2h-1.234V8.547H140.4V6.469ZM150.258,17a2.507,2.507,0,0,1-.227-.758,2.732,2.732,0,0,1-2.133.914,3,3,0,0,1-2.059-.719,2.312,2.312,0,0,1-.816-1.812,2.389,2.389,0,0,1,1-2.062,4.915,4.915,0,0,1,2.879-.727h1.039v-.484a1.393,1.393,0,0,0-.3-.937,1.183,1.183,0,0,0-.949-.352,1.345,1.345,0,0,0-.895.273.929.929,0,0,0-.324.75h-2.258a2.268,2.268,0,0,1,.453-1.359,3,3,0,0,1,1.281-.98,4.669,4.669,0,0,1,1.859-.355,3.689,3.689,0,0,1,2.48.785,2.747,2.747,0,0,1,.918,2.207v3.664a4.041,4.041,0,0,0,.336,1.82V17Zm-1.867-1.57a1.945,1.945,0,0,0,.922-.223,1.462,1.462,0,0,0,.625-.6V13.156h-.844q-1.7,0-1.8,1.172l-.008.133a.9.9,0,0,0,.3.7A1.153,1.153,0,0,0,148.391,15.43ZM46.719,41a2.507,2.507,0,0,1-.227-.758,2.732,2.732,0,0,1-2.133.914,3,3,0,0,1-2.059-.719,2.312,2.312,0,0,1-.816-1.812,2.389,2.389,0,0,1,1-2.062,4.915,4.915,0,0,1,2.879-.727H46.4v-.484a1.393,1.393,0,0,0-.3-.937,1.183,1.183,0,0,0-.949-.352,1.345,1.345,0,0,0-.895.273.929.929,0,0,0-.324.75H41.672a2.268,2.268,0,0,1,.453-1.359,3,3,0,0,1,1.281-.98,4.669,4.669,0,0,1,1.859-.355,3.689,3.689,0,0,1,2.48.785,2.747,2.747,0,0,1,.918,2.207v3.664A4.041,4.041,0,0,0,49,40.867V41Zm-1.867-1.57a1.945,1.945,0,0,0,.922-.223,1.462,1.462,0,0,0,.625-.6V37.156h-.844q-1.7,0-1.8,1.172l-.008.133a.9.9,0,0,0,.3.7A1.153,1.153,0,0,0,44.852,39.43Zm9.063-.094a1.481,1.481,0,0,0,1.016-.344,1.2,1.2,0,0,0,.406-.914h2.117a2.9,2.9,0,0,1-.469,1.574,3.093,3.093,0,0,1-1.262,1.109,3.949,3.949,0,0,1-1.77.395A3.67,3.67,0,0,1,51.094,40a4.56,4.56,0,0,1-1.047-3.184v-.148a4.508,4.508,0,0,1,1.039-3.117,3.627,3.627,0,0,1,2.852-1.164,3.555,3.555,0,0,1,2.543.9,3.2,3.2,0,0,1,.973,2.4H55.336a1.551,1.551,0,0,0-.406-1.072,1.51,1.51,0,0,0-2.223.163,3.333,3.333,0,0,0-.4,1.866v.235a3.375,3.375,0,0,0,.4,1.878A1.377,1.377,0,0,0,53.914,39.336Zm9.891.8a2.831,2.831,0,0,1-2.312,1.016,2.67,2.67,0,0,1-2.074-.781,3.335,3.335,0,0,1-.73-2.289V32.547h2.258v5.467q0,1.322,1.2,1.322a1.63,1.63,0,0,0,1.578-.8V32.547h2.266V41H63.867Zm6.008-7.594.07.945a2.971,2.971,0,0,1,2.43-1.1,2.255,2.255,0,0,1,2.242,1.289,2.9,2.9,0,0,1,2.539-1.289,2.521,2.521,0,0,1,2.047.8,3.681,3.681,0,0,1,.672,2.41V41H77.547V35.609a1.61,1.61,0,0,0-.281-1.051,1.246,1.246,0,0,0-.992-.332,1.409,1.409,0,0,0-1.406.969l.008,5.8H72.617V35.617a1.59,1.59,0,0,0-.289-1.062,1.259,1.259,0,0,0-.984-.328,1.463,1.463,0,0,0-1.391.8V41H67.7V32.547Zm16.8,7.594A2.831,2.831,0,0,1,84.3,41.156a2.67,2.67,0,0,1-2.074-.781,3.335,3.335,0,0,1-.73-2.289V32.547H83.75v5.467q0,1.322,1.2,1.322a1.63,1.63,0,0,0,1.578-.8V32.547H88.8V41H86.672ZM92.883,41H90.617V29h2.266Zm6.758,0a2.507,2.507,0,0,1-.227-.758,2.732,2.732,0,0,1-2.133.914,3,3,0,0,1-2.059-.719,2.312,2.312,0,0,1-.816-1.812,2.389,2.389,0,0,1,1-2.062,4.915,4.915,0,0,1,2.879-.727H99.32v-.484a1.393,1.393,0,0,0-.3-.937,1.183,1.183,0,0,0-.949-.352,1.345,1.345,0,0,0-.895.273.929.929,0,0,0-.324.75H94.594a2.268,2.268,0,0,1,.453-1.359,3,3,0,0,1,1.281-.98,4.669,4.669,0,0,1,1.859-.355,3.689,3.689,0,0,1,2.48.785,2.747,2.747,0,0,1,.918,2.207v3.664a4.041,4.041,0,0,0,.336,1.82V41Zm-1.867-1.57a1.945,1.945,0,0,0,.922-.223,1.462,1.462,0,0,0,.625-.6V37.156h-.844q-1.7,0-1.8,1.172l-.008.133a.9.9,0,0,0,.3.7A1.153,1.153,0,0,0,97.773,39.43Zm5.2-2.719a5.094,5.094,0,0,1,.887-3.148,2.877,2.877,0,0,1,2.426-1.172,2.589,2.589,0,0,1,2.039.922V29h2.266V41h-2.039l-.109-.9a2.657,2.657,0,0,1-2.172,1.055,2.869,2.869,0,0,1-2.395-1.176A5.258,5.258,0,0,1,102.969,36.711Zm2.258.168a3.337,3.337,0,0,0,.414,1.823,1.349,1.349,0,0,0,1.2.634,1.511,1.511,0,0,0,1.477-.884V35.111a1.489,1.489,0,0,0-1.461-.884Q105.227,34.227,105.227,36.879ZM117.234,41a2.507,2.507,0,0,1-.227-.758,2.732,2.732,0,0,1-2.133.914,3,3,0,0,1-2.059-.719A2.312,2.312,0,0,1,112,38.625a2.389,2.389,0,0,1,1-2.062,4.915,4.915,0,0,1,2.879-.727h1.039v-.484a1.393,1.393,0,0,0-.3-.937,1.183,1.183,0,0,0-.949-.352,1.345,1.345,0,0,0-.895.273.929.929,0,0,0-.324.75h-2.258a2.268,2.268,0,0,1,.453-1.359,3,3,0,0,1,1.281-.98,4.669,4.669,0,0,1,1.859-.355,3.689,3.689,0,0,1,2.48.785,2.747,2.747,0,0,1,.918,2.207v3.664a4.041,4.041,0,0,0,.336,1.82V41Zm-1.867-1.57a1.945,1.945,0,0,0,.922-.223,1.462,1.462,0,0,0,.625-.6V37.156h-.844q-1.7,0-1.8,1.172l-.008.133a.9.9,0,0,0,.3.7A1.153,1.153,0,0,0,115.367,39.43Z" transform="translate(-6216 -7414.139)" fill="#fef536"/>
  </g>
</svg>
