<svg xmlns="http://www.w3.org/2000/svg" width="274.154" height="275.846" viewBox="0 0 274.154 275.846">
  <g id="Grupo_138821" data-name="Grupo 138821" transform="translate(-8 -7.556)">
    <path id="blob_3_" data-name="blob(3)" d="M213.534,37.34c21.317,59.826,2.063,139.365-41.489,166.413s-111.171,1.6-158.62-36.217C-34.023,129.486-61.3,78.828-48.922,31.609-36.773-15.61,15.259-59.161,72.335-60.766,129.41-62.6,191.987-22.486,213.534,37.34Z" transform="translate(59.898 68.382)" fill="#b2dafb"/>
    <g id="Grupo_24" data-name="Grupo 24" transform="translate(17.519 19.825)">
      <text id="_" data-name="+" transform="translate(133.75 163.462)" fill="#5c22c3" font-size="35" font-family="Montserrat-Bold, Montserrat" font-weight="700"><tspan x="-10.483" y="0">+</tspan></text>
      <text id="_2" data-name="+" transform="translate(19.519 193.923)" fill="#5c22c3" font-size="35" font-family="Montserrat-Bold, Montserrat" font-weight="700"><tspan x="-10.483" y="0">+</tspan></text>
      <text id="_3" data-name="+" transform="translate(171.827 34)" fill="#5c22c3" font-size="35" font-family="Montserrat-Bold, Montserrat" font-weight="700"><tspan x="-10.483" y="0">+</tspan></text>
      <circle id="Elipse_1" data-name="Elipse 1" cx="7.615" cy="7.615" r="7.615" transform="translate(1.904 41.885)" fill="#5c22c3"/>
      <circle id="Elipse_2" data-name="Elipse 2" cx="7.615" cy="7.615" r="7.615" transform="translate(53.308 218.942)" fill="#5c22c3"/>
      <circle id="Elipse_5" data-name="Elipse 5" cx="7.615" cy="7.615" r="7.615" transform="translate(198 211.327)" fill="#5c22c3"/>
      <circle id="Elipse_6" data-name="Elipse 6" cx="19.038" cy="19.038" r="19.038" transform="translate(78.058 19.038)" fill="#5c22c3" opacity="0.1"/>
      <circle id="Elipse_7" data-name="Elipse 7" cx="19.038" cy="19.038" r="19.038" transform="translate(198 144.692)" fill="#5c22c3" opacity="0.1"/>
      <circle id="Elipse_11" data-name="Elipse 11" cx="13.327" cy="13.327" r="13.327" transform="translate(228.462 3.808)" fill="#5c22c3" opacity="0.1"/>
      <circle id="Elipse_12" data-name="Elipse 12" cx="13.327" cy="13.327" r="13.327" transform="translate(0 224.654)" fill="#5c22c3" opacity="0.1"/>
      <circle id="Elipse_8" data-name="Elipse 8" cx="19.038" cy="19.038" r="19.038" transform="translate(72.346 199.904)" fill="#5c22c3" opacity="0.1"/>
      <g id="Elipse_3" data-name="Elipse 3" transform="translate(190.385 137.077)" fill="none" stroke="#ff6b00" stroke-width="2">
        <circle cx="7.615" cy="7.615" r="7.615" stroke="none"/>
        <circle cx="7.615" cy="7.615" r="6.615" fill="none"/>
      </g>
      <g id="Elipse_4" data-name="Elipse 4" transform="translate(13.327 99)" fill="none" stroke="#5c22c3" stroke-width="2">
        <circle cx="7.615" cy="7.615" r="7.615" stroke="none"/>
        <circle cx="7.615" cy="7.615" r="6.615" fill="none"/>
      </g>
    </g>
    <g id="Grupo_26" data-name="Grupo 26" transform="translate(59.404 57.902)">
      <g id="Rectángulo_8" data-name="Rectángulo 8" transform="translate(0 0)" fill="#fff" stroke="#404040" stroke-linecap="round" stroke-linejoin="round" stroke-width="3">
        <rect width="123.75" height="51.404" stroke="none"/>
        <rect x="1.5" y="1.5" width="120.75" height="48.404" fill="none"/>
      </g>
      <g id="Rectángulo_9" data-name="Rectángulo 9" transform="translate(47.596 62.827)" fill="#fff" stroke="#404040" stroke-linecap="round" stroke-linejoin="round" stroke-width="3">
        <rect width="123.75" height="51.404" stroke="none"/>
        <rect x="1.5" y="1.5" width="120.75" height="48.404" fill="none"/>
      </g>
      <g id="Rectángulo_10" data-name="Rectángulo 10" transform="translate(0 125.654)" fill="#fff" stroke="#404040" stroke-linecap="round" stroke-linejoin="round" stroke-width="3">
        <rect width="123.75" height="51.404" stroke="none"/>
        <rect x="1.5" y="1.5" width="120.75" height="48.404" fill="none"/>
      </g>
      <path id="Trazado_51" data-name="Trazado 51" d="M-4.953,7.728H-16.224l-2.094,5.178H-26.01l11.766-26.654h7.425l11.8,26.654H-2.859ZM-7.162,2.169-10.589-6.36l-3.427,8.529Zm40.1-3.16A7.473,7.473,0,0,1,36.512,1.5,6.544,6.544,0,0,1,37.807,5.6,6.145,6.145,0,0,1,34.989,11q-2.818,1.9-8.148,1.9H12.448V-13.747H26.079q5.1,0,7.768,1.885a5.916,5.916,0,0,1,2.665,5.083,6.332,6.332,0,0,1-.933,3.408A6.524,6.524,0,0,1,32.933-.991ZM19.911-8.3v5.14h5.178q3.808,0,3.808-2.589Q28.9-8.3,25.089-8.3ZM26.232,7.462q3.96,0,3.96-2.7t-3.96-2.7H19.911V7.462ZM60.348,13.44a15.774,15.774,0,0,1-7.52-1.771,13.24,13.24,0,0,1-5.236-4.931,13.6,13.6,0,0,1-1.9-7.158,13.6,13.6,0,0,1,1.9-7.158,13.24,13.24,0,0,1,5.236-4.931,15.774,15.774,0,0,1,7.52-1.771,16.142,16.142,0,0,1,6.587,1.295A12.674,12.674,0,0,1,71.81-9.254l-4.8,4.341a7.892,7.892,0,0,0-6.283-3.122,7.754,7.754,0,0,0-3.865.952A6.607,6.607,0,0,0,54.237-4.4,8.262,8.262,0,0,0,53.3-.42a8.262,8.262,0,0,0,.933,3.979,6.607,6.607,0,0,0,2.627,2.684,7.754,7.754,0,0,0,3.865.952,7.892,7.892,0,0,0,6.283-3.122l4.8,4.341a12.674,12.674,0,0,1-4.874,3.732A16.142,16.142,0,0,1,60.348,13.44Z" transform="translate(37.414 25.17)" fill="#404040"/>
      <path id="Trazado_49" data-name="Trazado 49" d="M12.917,7.475H1.646L-.448,12.654H-8.14L3.626-14h7.425l11.8,26.654H15.011ZM10.708,1.916,7.281-6.613,3.854,1.916Z" transform="translate(21.2 152.981)" fill="#404040"/>
      <path id="Trazado_50" data-name="Trazado 50" d="M3.827,7.475H-7.444l-2.094,5.178H-17.23L-5.464-14H1.961l11.8,26.654H5.921ZM1.618,1.916-1.809-6.613-5.236,1.916Zm40.1-3.16A7.473,7.473,0,0,1,45.292,1.25a6.544,6.544,0,0,1,1.295,4.093,6.145,6.145,0,0,1-2.818,5.407q-2.818,1.9-8.148,1.9H21.228V-14H34.859q5.1,0,7.768,1.885a5.916,5.916,0,0,1,2.665,5.083,6.332,6.332,0,0,1-.933,3.408A6.524,6.524,0,0,1,41.713-1.244ZM28.691-8.555v5.14h5.178q3.808,0,3.808-2.589,0-2.551-3.808-2.551ZM35.012,7.209q3.96,0,3.96-2.7t-3.96-2.7H28.691V7.209Z" transform="translate(77.715 88.25)" fill="#404040"/>
    </g>
  </g>
</svg>
