<svg xmlns="http://www.w3.org/2000/svg" width="71.734" height="105.919" viewBox="0 0 71.734 105.919">
  <g id="Grupo_159744" data-name="Grupo 159744" transform="translate(-4248.633 82.985)">
    <g id="Grupo_159728" data-name="Grupo 159728" transform="translate(4248.633 -82.985)">
      <g id="Grupo_159674" data-name="Grupo 159674" transform="translate(0.388 0.006)">
        <g id="Grupo_159671" data-name="Grupo 159671" transform="translate(0.542 0.528)">
          <g id="Grupo_159670" data-name="Grupo 159670">
            <path id="Trazado_225625" data-name="Trazado 225625" d="M4251.9-76.741a.155.155,0,0,1,.062-.2l6.563-4.017c.3-.264.8-.214,1.314.22l2.439,2.049c.123.1,11.972,9.9,25.056,7.495a3,3,0,0,1,.836-.036,6.857,6.857,0,0,1,4.046,2.35h0a11.565,11.565,0,0,1,.87,1.051c12.571,17.085,24.551,21.219,25.052,21.386l2.425.783a2.758,2.758,0,0,1,1.583,2.41L4322.1-40.4c-.581,36.721-10.8,51.017-19.293,56.554h0l-7.951,4.86-.537-1.573a13.173,13.173,0,0,1-2.854.133h-.024a4.181,4.181,0,0,1-2.486-1.435l-.023-.024c-1.1-1.167-24.561-26.707-29.685-78.425l-3.544-7.752Z" transform="translate(-4251.884 81.116)"/>
          </g>
        </g>
        <g id="Grupo_159673" data-name="Grupo 159673">
          <g id="Grupo_159672" data-name="Grupo 159672">
            <path id="Trazado_225626" data-name="Trazado 225626" d="M4292.595,18.713a13.153,13.153,0,0,1-2.556.077,4.722,4.722,0,0,1-2.856-1.63c-1-1.068-24.655-26.745-29.82-78.653l-3.509-7.671-3.808-8.671h0a.708.708,0,0,1,.277-.878l6.529-3.994a1.535,1.535,0,0,1,1.984.245l2.437,2.047c.482.4,11.949,9.706,24.609,7.379a3.576,3.576,0,0,1,.991-.042,7.341,7.341,0,0,1,4.388,2.519,12.652,12.652,0,0,1,.908,1.1c12.468,16.942,24.291,21.028,24.782,21.192l2.426.782a3.3,3.3,0,0,1,1.959,2.935l-.044,2.842c-.583,36.961-10.949,51.4-19.555,57.009l-8.53,5.215Zm-6.519-90.687c-13.147,2.414-25-7.2-25.5-7.613l-2.438-2.048c-.3-.254-.54-.288-.6-.231l-6.354,3.9,3.667,8.358,3.543,7.748.048.172c5.111,51.6,28.544,77.047,29.564,78.13a3.685,3.685,0,0,0,2.164,1.268,12.585,12.585,0,0,0,2.729-.129l.445-.064.463,1.358,7.358-4.5c8.372-5.457,18.473-19.622,19.047-56.1l.045-2.842a2.236,2.236,0,0,0-1.2-1.88l-2.43-.785c-.511-.169-12.651-4.362-25.319-21.579a10.921,10.921,0,0,0-.828-1,6.378,6.378,0,0,0-3.7-2.18c-.082-.007-.161-.011-.244-.011A2.52,2.52,0,0,0,4286.076-71.974Z" transform="translate(-4249.99 82.963)"/>
          </g>
        </g>
      </g>
      <g id="Grupo_159679" data-name="Grupo 159679" transform="translate(0.386 0)">
        <g id="Grupo_159676" data-name="Grupo 159676" transform="translate(0.541 0.534)">
          <g id="Grupo_159675" data-name="Grupo 159675">
            <path id="Trazado_225627" data-name="Trazado 225627" d="M4258.516-80.954c.3-.264.8-.214,1.314.22l2.438,2.049c.123.1,11.971,9.9,25.057,7.495a2.988,2.988,0,0,1,.834-.036,6.859,6.859,0,0,1,4.047,2.35h0a11.652,11.652,0,0,1,.87,1.051c12.569,17.085,24.55,21.219,25.052,21.386l2.425.784a2.321,2.321,0,0,1,1.148,1.016l-19.726,11.191-41.572-17.5q-.678-4.53-1.163-9.366l-3.546-7.747-3.809-8.676a.156.156,0,0,1,.062-.2Z" transform="translate(-4251.873 81.116)" fill="#fff"/>
          </g>
        </g>
        <g id="Grupo_159678" data-name="Grupo 159678">
          <g id="Grupo_159677" data-name="Grupo 159677">
            <path id="Trazado_225628" data-name="Trazado 225628" d="M4258.559-51.9l-.044-.3c-.458-3.056-.848-6.186-1.157-9.3l-3.509-7.675-3.811-8.677a.71.71,0,0,1,.278-.878l6.529-3.994a1.536,1.536,0,0,1,1.985.245l2.436,2.047c.481.4,11.949,9.706,24.609,7.379a3.557,3.557,0,0,1,.99-.042,7.334,7.334,0,0,1,4.388,2.519,12.579,12.579,0,0,1,.91,1.1c12.466,16.942,24.289,21.028,24.781,21.192l2.426.782a2.845,2.845,0,0,1,1.44,1.247l.3.481-20.453,11.6Zm60.479,5.432-2.431-.785c-.51-.169-12.65-4.363-25.319-21.579a10.657,10.657,0,0,0-.829-1,6.371,6.371,0,0,0-3.7-2.18,2.51,2.51,0,0,0-.688.029c-13.148,2.414-25-7.2-25.505-7.613l-2.438-2.049c-.3-.254-.539-.288-.6-.231l-6.354,3.9,3.667,8.358,3.543,7.749.048.172c.3,3.03.672,6.064,1.112,9.037l41.044,17.282,18.946-10.75a1.325,1.325,0,0,0-.5-.336Z" transform="translate(-4249.982 82.985)"/>
          </g>
        </g>
      </g>
      <g id="Grupo_159684" data-name="Grupo 159684" transform="translate(0 4.123)">
        <g id="Grupo_159681" data-name="Grupo 159681" transform="translate(0.547 0.536)">
          <g id="Grupo_159680" data-name="Grupo 159680">
            <path id="Trazado_225629" data-name="Trazado 225629" d="M4281.234,32.539c-1.21-1.288-29.668-32.263-30.64-95.353l-.046-2.913c-.015-.985.767-1.267,1.591-.575l2.439,2.048c.123.1,11.972,9.9,25.055,7.495a3.011,3.011,0,0,1,.835-.036h0a6.861,6.861,0,0,1,4.046,2.35h0a11.47,11.47,0,0,1,.868,1.051c12.572,17.085,24.551,21.218,25.053,21.386l2.425.782a2.762,2.762,0,0,1,1.582,2.41l-.045,2.842c-.976,61.962-29.427,60.084-30.638,59.973h-.022a4.191,4.191,0,0,1-2.485-1.436Zm25.255-58.864c-5.329-2.962-13.974-9.035-22.984-20.6a2.583,2.583,0,0,0-2.067-1.206c-9.16,1.045-17.688-2.774-22.949-5.909-.685-.408-1.231-.061-1.2.749,1.9,42.6,16.8,67.478,23.39,76.495,1.086,1.483,3.077,3.4,4.157,3.159,6.545-1.48,20.948-10.375,22.863-50.543A2.608,2.608,0,0,0,4306.489-26.325Z" transform="translate(-4250.548 66.684)" fill="#ba68c8"/>
          </g>
        </g>
        <g id="Grupo_159683" data-name="Grupo 159683">
          <g id="Grupo_159682" data-name="Grupo 159682">
            <path id="Trazado_225630" data-name="Trazado 225630" d="M4282.327,33.2a4.692,4.692,0,0,1-2.829-1.608l-.023-.025c-1.216-1.293-29.81-32.417-30.791-95.715l-.043-2.915a1.421,1.421,0,0,1,.731-1.393,1.628,1.628,0,0,1,1.75.393l2.437,2.047c.482.4,11.953,9.7,24.61,7.379a3.6,3.6,0,0,1,.99-.042,7.334,7.334,0,0,1,4.388,2.519,12.237,12.237,0,0,1,.909,1.1c12.469,16.945,24.3,21.031,24.786,21.194l2.425.784a3.3,3.3,0,0,1,1.959,2.935l-.044,2.842c-.522,33.41-9.174,48.094-16.334,54.534-6.053,5.44-11.911,6.007-14.1,6.007C4282.737,33.232,4282.452,33.213,4282.327,33.2Zm-3.962-90.764c-13.146,2.411-25-7.2-25.5-7.613l-2.439-2.05c-.292-.243-.51-.278-.583-.242-.058.026-.117.162-.114.393l.046,2.914c.972,62.882,29.289,93.71,30.494,94.989l.023.025a3.683,3.683,0,0,0,2.162,1.263c.288.026,7.092.566,14.068-5.7,7-6.29,15.453-20.72,15.974-53.737l.046-2.842a2.24,2.24,0,0,0-1.206-1.88l-2.429-.785c-.511-.17-12.653-4.363-25.319-21.579a11.376,11.376,0,0,0-.828-1,6.375,6.375,0,0,0-3.7-2.18c-.08-.007-.162-.012-.242-.012A2.447,2.447,0,0,0,4278.364-57.563Zm.512,79.749c-6.425-8.791-21.577-33.873-23.5-76.786a1.4,1.4,0,0,1,.6-1.329,1.36,1.36,0,0,1,1.416.089c5.405,3.222,13.708,6.855,22.608,5.836a3.069,3.069,0,0,1,2.559,1.412c8.831,11.333,17.284,17.381,22.82,20.459a3.149,3.149,0,0,1,1.492,2.647h0c-2.046,42.937-18.34,49.929-23.286,51.048a1.4,1.4,0,0,1-.314.033C4281.773,25.588,4279.775,23.415,4278.876,22.186Zm26.915-47.731a2.092,2.092,0,0,0-.933-1.643c-5.626-3.128-14.208-9.265-23.151-20.742-.581-.747-1.194-1.051-1.576-1-9.194,1.045-17.739-2.675-23.29-5.983-.183-.1-.281-.1-.3-.089a.505.505,0,0,0-.073.347c1.905,42.624,16.924,67.488,23.285,76.2,1.215,1.66,2.963,3.089,3.6,2.949,4.755-1.076,20.43-7.864,22.439-50.042Z" transform="translate(-4248.632 68.56)"/>
          </g>
        </g>
      </g>
      <g id="Grupo_159689" data-name="Grupo 159689" transform="translate(6.738 16.596)">
        <g id="Grupo_159686" data-name="Grupo 159686" transform="translate(0.55 0.537)">
          <g id="Grupo_159685" data-name="Grupo 159685">
            <path id="Trazado_225631" data-name="Trazado 225631" d="M4275.328-22.876c5.26,3.134,13.79,6.953,22.949,5.909a2.587,2.587,0,0,1,2.067,1.206C4309.355-4.2,4318,1.876,4323.327,4.838a2.609,2.609,0,0,1,1.214,2.146c-1.915,40.168-16.318,49.063-22.863,50.543-1.079.244-3.072-1.672-4.157-3.159-6.589-9.017-21.485-33.89-23.39-76.495C4274.1-22.937,4274.645-23.284,4275.328-22.876Z" transform="translate(-4274.129 23.048)" fill="#64b5f6"/>
          </g>
        </g>
        <g id="Grupo_159688" data-name="Grupo 159688">
          <g id="Grupo_159687" data-name="Grupo 159687">
            <path id="Trazado_225632" data-name="Trazado 225632" d="M4295.71,53.346c-6.424-8.79-21.576-33.87-23.494-76.786a1.4,1.4,0,0,1,.6-1.329,1.357,1.357,0,0,1,1.414.088h0c5.4,3.222,13.707,6.855,22.609,5.836a3.069,3.069,0,0,1,2.558,1.411C4308.231-6.1,4316.685-.053,4322.22,3.025a3.151,3.151,0,0,1,1.493,2.647c-2.047,42.937-18.342,49.929-23.288,51.048a1.419,1.419,0,0,1-.313.033C4298.607,56.749,4296.608,54.576,4295.71,53.346Zm1.254-71.114c-9.193,1.045-17.739-2.676-23.29-5.983-.183-.1-.281-.1-.3-.089a.492.492,0,0,0-.074.347c1.9,42.624,16.924,67.488,23.288,76.2,1.211,1.66,2.966,3.093,3.6,2.949,4.755-1.076,20.428-7.864,22.439-50.042a2.087,2.087,0,0,0-.933-1.643c-5.625-3.127-14.208-9.263-23.15-20.742a2.23,2.23,0,0,0-1.507-1,.477.477,0,0,0-.069.007Z" transform="translate(-4272.206 24.926)"/>
          </g>
        </g>
      </g>
      <g id="Grupo_159694" data-name="Grupo 159694" transform="translate(6.738 16.596)">
        <g id="Grupo_159691" data-name="Grupo 159691" transform="translate(0.549 0.537)">
          <g id="Grupo_159690" data-name="Grupo 159690">
            <path id="Trazado_225633" data-name="Trazado 225633" d="M4275.326-22.876c.965.575,2.042,1.172,3.21,1.759,2.242,41.487,16.8,65.79,23.29,74.677a11.019,11.019,0,0,0,2.983,2.849,14.949,14.949,0,0,1-3.134,1.118c-1.079.244-3.072-1.672-4.157-3.159-6.588-9.017-21.485-33.89-23.389-76.495C4274.093-22.937,4274.642-23.284,4275.326-22.876Z" transform="translate(-4274.127 23.048)"/>
          </g>
        </g>
        <g id="Grupo_159693" data-name="Grupo 159693">
          <g id="Grupo_159692" data-name="Grupo 159692">
            <path id="Trazado_225634" data-name="Trazado 225634" d="M4295.71,53.346c-6.424-8.79-21.576-33.87-23.494-76.786a1.4,1.4,0,0,1,.6-1.329,1.357,1.357,0,0,1,1.414.088h0c1.03.613,2.1,1.2,3.175,1.74l.281.141.018.313c2.246,41.579,16.962,65.87,23.186,74.383a10.638,10.638,0,0,0,2.81,2.7l.912.512-.94.452a15.371,15.371,0,0,1-3.246,1.159,1.42,1.42,0,0,1-.313.033C4298.607,56.749,4296.608,54.576,4295.71,53.346Zm4.305-.808c-6.269-8.572-21.058-32.977-23.377-74.654-1-.513-2-1.063-2.962-1.636-.184-.1-.282-.1-.3-.089a.5.5,0,0,0-.073.347c1.9,42.624,16.924,67.488,23.287,76.2,1.211,1.66,2.965,3.093,3.6,2.949a13.488,13.488,0,0,0,2.141-.687A13.282,13.282,0,0,1,4300.015,52.539Z" transform="translate(-4272.206 24.926)"/>
          </g>
        </g>
      </g>
      <g id="Grupo_159697" data-name="Grupo 159697" transform="translate(63.596 36.538)">
        <g id="Grupo_159696" data-name="Grupo 159696" transform="translate(0 0)">
          <g id="Grupo_159695" data-name="Grupo 159695" transform="translate(0)">
            <rect id="Rectángulo_44755" data-name="Rectángulo 44755" width="7.923" height="1.088" transform="translate(0 3.91) rotate(-29.568)"/>
          </g>
        </g>
      </g>
      <g id="Grupo_159700" data-name="Grupo 159700" transform="translate(59.402 34.583)">
        <g id="Grupo_159699" data-name="Grupo 159699" transform="translate(0 0)">
          <g id="Grupo_159698" data-name="Grupo 159698" transform="translate(0)">
            <rect id="Rectángulo_44756" data-name="Rectángulo 44756" width="7.924" height="1.088" transform="translate(0 3.91) rotate(-29.566)"/>
          </g>
        </g>
      </g>
      <g id="Grupo_159703" data-name="Grupo 159703" transform="translate(30.361 10.041)">
        <g id="Grupo_159702" data-name="Grupo 159702" transform="translate(0)">
          <g id="Grupo_159701" data-name="Grupo 159701">
            <rect id="Rectángulo_44757" data-name="Rectángulo 44757" width="7.924" height="1.088" transform="translate(0 3.91) rotate(-29.564)"/>
          </g>
        </g>
      </g>
      <g id="Grupo_159706" data-name="Grupo 159706" transform="translate(36.722 15.897)">
        <g id="Grupo_159705" data-name="Grupo 159705" transform="translate(0 0)">
          <g id="Grupo_159704" data-name="Grupo 159704" transform="translate(0)">
            <rect id="Rectángulo_44758" data-name="Rectángulo 44758" width="7.924" height="1.088" transform="matrix(0.87, -0.493, 0.493, 0.87, 0, 3.907)"/>
          </g>
        </g>
      </g>
      <g id="Grupo_159709" data-name="Grupo 159709" transform="translate(3.665 2.238)">
        <g id="Grupo_159708" data-name="Grupo 159708" transform="translate(0 0)">
          <g id="Grupo_159707" data-name="Grupo 159707">
            <rect id="Rectángulo_44759" data-name="Rectángulo 44759" width="8.471" height="1.087" transform="matrix(0.859, -0.511, 0.511, 0.859, 0, 4.331)"/>
          </g>
        </g>
      </g>
      <g id="Grupo_159712" data-name="Grupo 159712" transform="translate(64.601 48.335)">
        <g id="Grupo_159711" data-name="Grupo 159711" transform="translate(0 0)">
          <g id="Grupo_159710" data-name="Grupo 159710">
            <path id="Trazado_225635" data-name="Trazado 225635" d="M4475.177,90.162l5.225-3.12-.556-.94-5.224,3.12Z" transform="translate(-4474.622 -86.102)" fill="#636363"/>
          </g>
        </g>
      </g>
      <g id="Grupo_159715" data-name="Grupo 159715" transform="translate(55.911 86.68)">
        <g id="Grupo_159714" data-name="Grupo 159714">
          <g id="Grupo_159713" data-name="Grupo 159713">
            <path id="Trazado_225636" data-name="Trazado 225636" d="M4444.779,223.937l4.608-2.755-.555-.94L4444.222,223Z" transform="translate(-4444.222 -220.242)" fill="#636363"/>
          </g>
        </g>
      </g>
      <g id="Grupo_159718" data-name="Grupo 159718" transform="translate(22.635 10.215)">
        <g id="Grupo_159717" data-name="Grupo 159717">
          <g id="Grupo_159716" data-name="Grupo 159716">
            <path id="Trazado_225637" data-name="Trazado 225637" d="M4328.337-42.25l7.381-4.05-.522-.952-7.381,4.05Z" transform="translate(-4327.815 47.252)"/>
          </g>
        </g>
      </g>
      <g id="Grupo_159721" data-name="Grupo 159721" transform="translate(30.84 92.205)">
        <g id="Grupo_159720" data-name="Grupo 159720">
          <g id="Grupo_159719" data-name="Grupo 159719">
            <path id="Trazado_225638" data-name="Trazado 225638" d="M4357.092,241.98l2.366-1.483-.573-.924-2.366,1.483Z" transform="translate(-4356.519 -239.572)" fill="#afafaf"/>
          </g>
        </g>
      </g>
      <g id="Grupo_159724" data-name="Grupo 159724" transform="translate(8.146 23.202)">
        <g id="Grupo_159723" data-name="Grupo 159723" transform="translate(0 0)">
          <g id="Grupo_159722" data-name="Grupo 159722">
            <path id="Trazado_225639" data-name="Trazado 225639" d="M4277.7,1.008l3.029-1.9-.577-.922-3.024,1.9Z" transform="translate(-4277.128 1.818)" fill="#636363"/>
          </g>
        </g>
      </g>
      <g id="Grupo_159727" data-name="Grupo 159727" transform="translate(8.756 29.261)">
        <g id="Grupo_159726" data-name="Grupo 159726" transform="translate(0 0)">
          <g id="Grupo_159725" data-name="Grupo 159725">
            <path id="Trazado_225640" data-name="Trazado 225640" d="M4279.839,22.2l3.024-1.9-.577-.922-3.023,1.9Z" transform="translate(-4279.264 -19.379)" fill="#636363"/>
          </g>
        </g>
      </g>
    </g>
    <g id="Grupo_159743" data-name="Grupo 159743" transform="translate(4275.93 -42.383)">
      <g id="Grupo_159733" data-name="Grupo 159733" transform="translate(0 6.946)">
        <g id="Grupo_159730" data-name="Grupo 159730" transform="translate(0.745 0.737)">
          <g id="Grupo_159729" data-name="Grupo 159729">
            <path id="Trazado_225641" data-name="Trazado 225641" d="M4354.594,107.7l-1.02-.589c-3.779-2.183-6.843-8.036-6.843-13.075v-6.2c0-1.606.976-2.343,2.18-1.649l10.342,5.974a5.226,5.226,0,0,1,2.181,4.165v6.2C4361.438,107.564,4358.374,109.88,4354.594,107.7Z" transform="translate(-4346.731 -85.93)" fill="#64b5f6"/>
          </g>
        </g>
        <g id="Grupo_159732" data-name="Grupo 159732">
          <g id="Grupo_159731" data-name="Grupo 159731">
            <path id="Trazado_225642" data-name="Trazado 225642" d="M4355.454,107.414a6.225,6.225,0,0,1-3.087-.92l-1.022-.589c-3.976-2.3-7.208-8.447-7.208-13.712V86a2.638,2.638,0,0,1,1.121-2.4,2.108,2.108,0,0,1,2.162.115l10.342,5.974a5.954,5.954,0,0,1,2.548,4.806v6.2c0,2.92-1,5.168-2.733,6.172A4.206,4.206,0,0,1,4355.454,107.414Zm-9.267-22.591a.385.385,0,0,0-.194.048c-.186.1-.385.46-.385,1.126v6.2c0,4.8,2.9,10.375,6.477,12.432l1.021.589a3.712,3.712,0,0,0,3.741.362c1.269-.731,2-2.518,2-4.9v-6.2a4.485,4.485,0,0,0-1.812-3.528l-10.342-5.974A1.093,1.093,0,0,0,4346.187,84.824Z" transform="translate(-4344.126 -83.351)" fill="#fff"/>
          </g>
        </g>
      </g>
      <g id="Grupo_159736" data-name="Grupo 159736" transform="translate(7.362 18.276)">
        <g id="Grupo_159735" data-name="Grupo 159735">
          <g id="Grupo_159734" data-name="Grupo 159734">
            <path id="Trazado_225643" data-name="Trazado 225643" d="M4371.352,129.075l-1.472-.866v-5.223h1.472Z" transform="translate(-4369.88 -122.985)" fill="#fff"/>
          </g>
        </g>
      </g>
      <g id="Grupo_159739" data-name="Grupo 159739" transform="translate(5.601 14.741)">
        <g id="Grupo_159738" data-name="Grupo 159738">
          <g id="Grupo_159737" data-name="Grupo 159737">
            <path id="Trazado_225644" data-name="Trazado 225644" d="M4368.712,115.287c0,1.592-1.117,2.238-2.5,1.442a5.522,5.522,0,0,1-2.5-4.326c0-1.592,1.117-2.238,2.5-1.442A5.519,5.519,0,0,1,4368.712,115.287Z" transform="translate(-4363.718 -110.62)" fill="#fff"/>
          </g>
        </g>
      </g>
      <g id="Grupo_159742" data-name="Grupo 159742" transform="translate(2.352 0)">
        <g id="Grupo_159741" data-name="Grupo 159741">
          <g id="Grupo_159740" data-name="Grupo 159740">
            <path id="Trazado_225645" data-name="Trazado 225645" d="M4363.69,74.062l-11.338-6.547V63.8c0-2.048.712-3.634,1.955-4.35a3.655,3.655,0,0,1,3.739.24l.685.4c2.781,1.6,4.959,5.739,4.959,9.41Zm-9.866-7.4,8.395,4.846V69.5c0-3.088-1.934-6.813-4.223-8.134h0l-.684-.395a2.3,2.3,0,0,0-2.268-.241c-.773.447-1.219,1.567-1.219,3.076Z" transform="translate(-4352.352 -59.051)" fill="#fff"/>
          </g>
        </g>
      </g>
    </g>
  </g>
</svg>
