<svg xmlns="http://www.w3.org/2000/svg" width="109.275" height="116.821" viewBox="0 0 109.275 116.821">
  <g id="Grupo_159669" data-name="Grupo 159669" transform="translate(-315.413 -91.444)">
    <g id="Grupo_159657" data-name="Grupo 159657" transform="translate(332.375 143.203)">
      <g id="Grupo_159650" data-name="Grupo 159650">
        <path id="Trazado_225616" data-name="Trazado 225616" d="M384.4,177.97l-13.277-7.551a18.867,18.867,0,0,1-8.325-9.805,25.3,25.3,0,0,0-11.349-13.21l-27.031-15.669,27.233-15.786,26.168,14.81a25.309,25.309,0,0,1,11.853,13.8l.265.744a18.749,18.749,0,0,0,8.823,10.247l12.062,6.735Z" transform="translate(-321.798 -114.431)" fill="#fff"/>
        <path id="Trazado_225617" data-name="Trazado 225617" d="M385.834,180.314l-13.943-7.929a20.234,20.234,0,0,1-8.905-10.488,24.015,24.015,0,0,0-10.76-12.525l-29.011-16.817,29.849-17.3,26.826,15.182a26.55,26.55,0,0,1,12.445,14.5l.265.744a17.4,17.4,0,0,0,8.2,9.527l14.082,7.862Zm-57.368-47.759,25.065,14.527a26.636,26.636,0,0,1,11.921,13.89,17.6,17.6,0,0,0,7.742,9.123l12.614,7.17,23.8-14.13-10.066-5.62a20.035,20.035,0,0,1-9.421-10.953l-.265-.744a23.93,23.93,0,0,0-11.234-13.08l-25.539-14.454Z" transform="translate(-323.215 -115.251)" fill="#150035"/>
      </g>
      <g id="Grupo_159651" data-name="Grupo 159651" transform="translate(55.91 44.537)">
        <path id="Trazado_225618" data-name="Trazado 225618" d="M366.539,140.651l-9.129,5.383a3.713,3.713,0,0,1-3.35-.139l-4.307-2.5c-.994-.572-1.1-1.439-.241-1.935l9.129-5.385a3.726,3.726,0,0,1,3.35.139l4.307,2.5C367.291,139.288,367.4,140.154,366.539,140.651Z" transform="translate(-348.931 -135.736)" fill="#39a1ff"/>
      </g>
      <g id="Grupo_159652" data-name="Grupo 159652" transform="translate(44.124 28.581)">
        <path id="Trazado_225619" data-name="Trazado 225619" d="M343.743,136.957l14.121-8.183Z" transform="translate(-343.236 -127.954)" fill="#39a1ff"/>
        <path id="Trazado_225620" data-name="Trazado 225620" d="M344.525,138.276l-1.015-1.754,3.5-2.031,1.017,1.752Zm5.259-3.048-1.017-1.752,3.507-2.031,1.018,1.752Zm5.259-3.046-1.018-1.755,3.507-2.031,1.015,1.752Z" transform="translate(-343.51 -128.397)" fill="#150035"/>
      </g>
      <g id="Grupo_159653" data-name="Grupo 159653" transform="translate(40.922 24.209)">
        <rect id="Rectángulo_44745" data-name="Rectángulo 44745" width="16.319" height="2.027" transform="matrix(0.865, -0.502, 0.502, 0.865, 0, 8.19)" fill="#150035"/>
      </g>
      <g id="Grupo_159654" data-name="Grupo 159654" transform="translate(19.689 9.599)">
        <rect id="Rectángulo_44746" data-name="Rectángulo 44746" width="16.202" height="2.026" transform="translate(0 8.099) rotate(-29.992)" fill="#150035"/>
      </g>
      <g id="Grupo_159655" data-name="Grupo 159655" transform="translate(25.164 12.687)">
        <rect id="Rectángulo_44747" data-name="Rectángulo 44747" width="16.202" height="2.026" transform="translate(0 8.099) rotate(-29.992)" fill="#150035"/>
      </g>
      <g id="Grupo_159656" data-name="Grupo 159656" transform="translate(30.636 15.901)">
        <rect id="Rectángulo_44748" data-name="Rectángulo 44748" width="16.202" height="2.026" transform="translate(0 8.099) rotate(-29.993)" fill="#150035"/>
      </g>
    </g>
    <g id="Grupo_159668" data-name="Grupo 159668" transform="translate(315.413 91.444)">
      <g id="Grupo_159667" data-name="Grupo 159667">
        <g id="Grupo_159658" data-name="Grupo 159658">
          <path id="Trazado_225621" data-name="Trazado 225621" d="M376.61,164.048,363.333,156.5a18.861,18.861,0,0,1-8.325-9.807,25.3,25.3,0,0,0-11.349-13.21l-27.033-15.669,44.806-25.672,26.168,14.81a25.284,25.284,0,0,1,11.853,13.8l.265.744a18.765,18.765,0,0,0,8.823,10.247l12.062,6.735Z" transform="translate(-313.989 -90.626)" fill="#fff"/>
          <path id="Trazado_225622" data-name="Trazado 225622" d="M378.041,166.386,364.1,158.461a20.236,20.236,0,0,1-8.907-10.488A24,24,0,0,0,344.44,135.45l-29.027-16.828,47.439-27.179,26.822,15.18a26.547,26.547,0,0,1,12.445,14.5l.265.744a17.385,17.385,0,0,0,8.2,9.529l14.1,7.872Zm-57.353-47.748,25.055,14.523a26.611,26.611,0,0,1,11.921,13.888,17.592,17.592,0,0,0,7.744,9.123l12.619,7.177,41.345-24.035L409.324,133.7a19.994,19.994,0,0,1-9.42-10.953l-.265-.744A23.939,23.939,0,0,0,388.4,108.93L362.861,94.475Z" transform="translate(-315.413 -91.444)" fill="#150035"/>
        </g>
        <g id="Grupo_159659" data-name="Grupo 159659" transform="translate(55.17 43.232)">
          <path id="Trazado_225623" data-name="Trazado 225623" d="M341.793,131.9l-1-1.761,3.52-2.007,1,1.761Zm5.281-3.009-1.007-1.761,3.52-2.007,1.007,1.761Zm5.279-3.011-1.007-1.761,3.522-2.007,1,1.761Zm5.279-3.009-1-1.761,3.52-2.009,1,1.761Zm5.281-3.011-1-1.761,3.52-2.007,1,1.761Zm5.281-3.011-1-1.759,3.52-2.009,1,1.761Zm5.277-3.011-1-1.761,1.322-.752,1,1.761Z" transform="translate(-340.789 -111.329)" fill="#150035"/>
        </g>
        <g id="Grupo_159660" data-name="Grupo 159660" transform="translate(36.874 10.431)">
          <path id="Trazado_225624" data-name="Trazado 225624" d="M358.949,105.534l-10.479,6.051a3.72,3.72,0,0,1-3.35-.139l-11.925-6.883c-.991-.574-1.1-1.439-.241-1.937l10.479-6.048a3.724,3.724,0,0,1,3.353.139l11.923,6.883C359.7,104.173,359.807,105.039,358.949,105.534Z" transform="translate(-332.373 -96.242)" fill="#5c22c3"/>
        </g>
        <g id="Grupo_159661" data-name="Grupo 159661" transform="translate(44.148 28.51)">
          <rect id="Rectángulo_44749" data-name="Rectángulo 44749" width="36.48" height="2.027" transform="translate(0 18.084) rotate(-29.718)" fill="#150035"/>
        </g>
        <g id="Grupo_159662" data-name="Grupo 159662" transform="translate(40.945 24.197)">
          <rect id="Rectángulo_44750" data-name="Rectángulo 44750" width="36.482" height="2.027" transform="translate(0 18.085) rotate(-29.718)" fill="#150035"/>
        </g>
        <g id="Grupo_159663" data-name="Grupo 159663" transform="translate(19.525 19.753)">
          <rect id="Rectángulo_44751" data-name="Rectángulo 44751" width="15.74" height="2.027" transform="translate(0 7.801) rotate(-29.713)" fill="#150035"/>
        </g>
        <g id="Grupo_159664" data-name="Grupo 159664" transform="translate(24.998 22.841)">
          <rect id="Rectángulo_44752" data-name="Rectángulo 44752" width="15.74" height="2.028" transform="matrix(0.869, -0.496, 0.496, 0.869, 0, 7.802)" fill="#150035"/>
        </g>
        <g id="Grupo_159665" data-name="Grupo 159665" transform="translate(30.471 26.054)">
          <rect id="Rectángulo_44753" data-name="Rectángulo 44753" width="15.741" height="2.027" transform="translate(0 7.804) rotate(-29.718)" fill="#150035"/>
        </g>
        <g id="Grupo_159666" data-name="Grupo 159666" transform="translate(60.534 46.047)">
          <rect id="Rectángulo_44754" data-name="Rectángulo 44754" width="36.48" height="2.027" transform="translate(0 18.084) rotate(-29.718)" fill="#150035"/>
        </g>
      </g>
    </g>
  </g>
</svg>
