<svg xmlns="http://www.w3.org/2000/svg" width="251.899" height="263.269" viewBox="0 0 251.899 263.269">
  <g id="Grupo_160033" data-name="Grupo 160033" transform="translate(-404.551 -4432.033)">
    <g id="Grupo_80321" data-name="Grupo 80321" transform="translate(-431.81 3901.618)">
      <path id="Trazado_115208" data-name="Trazado 115208" d="M1046.785,597.359a106.859,106.859,0,0,1,19.064,45c6.754,40.278-12.3,75.136-44.563,87.759-14.318,28.59-45.147,44.616-80.217,38.027-47.479-8.918-84.757-55.9-83.263-104.938a122.788,122.788,0,0,1,15.36-54.848,102.91,102.91,0,0,1,34.941-36.847c16.677-10.5,36.174-16.154,57.948-16.8,31.245-.941,61.557,16.268,80.733,42.653Zm-17.137,100.347c.043-.746.068-1.481.092-2.2C1029.716,696.241,1029.688,696.974,1029.648,697.706Z" fill="#64b5f6"/>
      <g id="Sparkles">
        <path id="Trazado_115414" data-name="Trazado 115414" d="M940.943,733.7l1.034-.086a.211.211,0,0,0,.2-.226v-.009a.2.2,0,0,0-.131-.18l-.958-.4a1.121,1.121,0,0,1-.682-.938l-.086-1.035a.214.214,0,0,0-.228-.2h-.007a.206.206,0,0,0-.18.131l-.4.958a1.12,1.12,0,0,1-.939.682l-1.034.086a.215.215,0,0,0-.2.229v.006a.212.212,0,0,0,.131.18l.958.4a1.121,1.121,0,0,1,.682.939l.086,1.034a.213.213,0,0,0,.228.2h.006a.2.2,0,0,0,.18-.131l.4-.958A1.122,1.122,0,0,1,940.943,733.7Z" fill="#3d3d3d"/>
        <path id="Trazado_115415" data-name="Trazado 115415" d="M1046.782,574.494l1.386-.117a.289.289,0,0,0,.267-.309h0a.3.3,0,0,0-.18-.245l-1.282-.538a1.5,1.5,0,0,1-.915-1.263l-.116-1.386a.292.292,0,0,0-.315-.267h0a.291.291,0,0,0-.245.178l-.539,1.282a1.5,1.5,0,0,1-1.26.915l-1.387.119a.289.289,0,0,0-.266.31h0a.292.292,0,0,0,.178.245l1.283.539a1.5,1.5,0,0,1,.915,1.259l.117,1.387a.292.292,0,0,0,.315.267h0a.3.3,0,0,0,.246-.178l.539-1.282A1.5,1.5,0,0,1,1046.782,574.494Z" fill="#3d3d3d"/>
        <path id="Trazado_115416" data-name="Trazado 115416" d="M961.758,663.353l.772-.064a.164.164,0,0,0,.142-.182h0a.168.168,0,0,0-.093-.128l-.714-.3a.837.837,0,0,1-.509-.7l-.063-.771a.165.165,0,0,0-.184-.142h0a.161.161,0,0,0-.125.092l-.3.713a.838.838,0,0,1-.7.509l-.776.064a.164.164,0,0,0-.049.311l.714.3a.839.839,0,0,1,.509.7l.063.775a.164.164,0,0,0,.184.142.167.167,0,0,0,.127-.092l.3-.715A.839.839,0,0,1,961.758,663.353Z" fill="#3d3d3d"/>
        <path id="Trazado_115417" data-name="Trazado 115417" d="M1008.024,576.935l.826-.069a.172.172,0,0,0,.158-.185h0a.173.173,0,0,0-.1-.145l-.764-.321a.89.89,0,0,1-.542-.745l-.068-.825a.172.172,0,0,0-.186-.157h0a.186.186,0,0,0-.145.1l-.32.763a.89.89,0,0,1-.745.541l-.824.07a.173.173,0,0,0-.159.185h0a.173.173,0,0,0,.105.145l.764.32a.89.89,0,0,1,.541.745l.07.826a.171.171,0,0,0,.185.158h0a.182.182,0,0,0,.144-.1l.32-.764A.89.89,0,0,1,1008.024,576.935Z" fill="#3d3d3d"/>
        <path id="Trazado_115418" data-name="Trazado 115418" d="M1026.181,763.377l1.278-.107a.266.266,0,0,0,.243-.289h0a.267.267,0,0,0-.162-.223l-1.182-.5a1.378,1.378,0,0,1-.843-1.161l-.108-1.278a.268.268,0,0,0-.513-.082l-.5,1.183a1.385,1.385,0,0,1-1.161.843l-1.278.107a.267.267,0,0,0-.244.29h0a.268.268,0,0,0,.162.224l1.182.5a1.377,1.377,0,0,1,.843,1.159l.108,1.279a.268.268,0,0,0,.514.081l.5-1.183A1.381,1.381,0,0,1,1026.181,763.377Z" fill="#3d3d3d"/>
      </g>
      <rect id="Rectángulo_33823" data-name="Rectángulo 33823" width="231.975" height="218.298" transform="translate(836.36 759.534) rotate(-81)" fill="none"/>
    </g>
    <g id="documents_stack" data-name="documents stack" transform="translate(284.402 2907.183)">
      <g id="Grupo_139269" data-name="Grupo 139269">
        <path id="Trazado_134118" data-name="Trazado 134118" d="M331.069,1641.418v19.564l-46.143,26.641-.221-.39,14.312-27.306Z" fill="#ba68c8"/>
        <path id="Trazado_134119" data-name="Trazado 134119" d="M331.069,1641.418l-32.052,18.51,14.892-28.413Z" fill="#dae0e5"/>
        <path id="Trazado_134120" data-name="Trazado 134120" d="M222.426,1618.764l9.1,1.592-1.793-6.075Zm98.666-.96-36.387,69.43-17.128-2.995-5.189,9.893-89.1-15.567-3.734-2.152,40.859-77.941,66.318,11.58.011.011Z" fill="#fff"/>
        <path id="Trazado_134121" data-name="Trazado 134121" d="M284.7,1687.234l.221.39-47.978,27.7v-19.564l8.079-4.662,17.36,3.037Z" fill="#ba68c8"/>
        <path id="Trazado_134122" data-name="Trazado 134122" d="M284.7,1687.234l-22.317,6.9,5.189-9.893Z" fill="#fff"/>
        <path id="Trazado_134123" data-name="Trazado 134123" d="M276.731,1610.052l-33-5.759,11.507-6.645Z" fill="#dae0e5"/>
        <path id="Trazado_134124" data-name="Trazado 134124" d="M245.028,1691.094l-8.079,4.662-15.082-8.7Z" fill="#dae0e5"/>
        <path id="Trazado_134125" data-name="Trazado 134125" d="M236.949,1695.756v19.564l-63.661-36.756,48.579,8.49Z" fill="#fff"/>
        <path id="Trazado_134126" data-name="Trazado 134126" d="M229.735,1614.281l1.793,6.075-9.1-1.593Z" fill="#fff"/>
        <path id="Trazado_134127" data-name="Trazado 134127" d="M191.576,1634.394l-14.143,27-16.305-9.408Z" fill="#dae0e5"/>
        <path id="Trazado_134128" data-name="Trazado 134128" d="M177.433,1661.394l-7.878,15.019-8.427-4.873v-19.554Z" fill="#fff"/>
        <path id="Trazado_134129" data-name="Trazado 134129" d="M169.554,1676.413l3.734,2.152-4.451-.78Z" fill="#fff"/>
      </g>
      <g id="Grupo_139270" data-name="Grupo 139270">
        <line id="Línea_393" data-name="Línea 393" x2="48.199" y2="8.427" transform="translate(245.608 1618.669)" fill="none" stroke="#373a3a" stroke-linecap="round" stroke-linejoin="round" stroke-width="3"/>
        <line id="Línea_394" data-name="Línea 394" x2="28.002" y2="4.894" transform="translate(241.99 1625.556)" fill="none" stroke="#373a3a" stroke-linecap="round" stroke-linejoin="round" stroke-width="3"/>
        <line id="Línea_395" data-name="Línea 395" x2="13.089" y2="2.289" transform="translate(277.111 1631.694)" fill="none" stroke="#373a3a" stroke-linecap="round" stroke-linejoin="round" stroke-width="3"/>
        <line id="Línea_396" data-name="Línea 396" x2="68.766" y2="12.013" transform="translate(217.827 1628.847)" fill="none" stroke="#373a3a" stroke-linecap="round" stroke-linejoin="round" stroke-width="3"/>
        <line id="Línea_397" data-name="Línea 397" x2="16.073" y2="2.806" transform="translate(214.22 1635.734)" fill="none" stroke="#373a3a" stroke-linecap="round" stroke-linejoin="round" stroke-width="3"/>
        <line id="Línea_398" data-name="Línea 398" x2="43.917" y2="7.668" transform="translate(239.069 1640.079)" fill="none" stroke="#373a3a" stroke-linecap="round" stroke-linejoin="round" stroke-width="3"/>
        <line id="Línea_399" data-name="Línea 399" x2="68.766" y2="12.013" transform="translate(210.613 1642.621)" fill="none" stroke="#373a3a" stroke-linecap="round" stroke-linejoin="round" stroke-width="3"/>
        <line id="Línea_400" data-name="Línea 400" x2="34.33" y2="5.991" transform="translate(207.006 1649.508)" fill="none" stroke="#373a3a" stroke-linecap="round" stroke-linejoin="round" stroke-width="3"/>
        <line id="Línea_401" data-name="Línea 401" x2="25.175" y2="4.398" transform="translate(250.586 1657.123)" fill="none" stroke="#373a3a" stroke-linecap="round" stroke-linejoin="round" stroke-width="3"/>
        <line id="Línea_402" data-name="Línea 402" x2="68.755" y2="12.013" transform="translate(203.399 1656.395)" fill="none" stroke="#373a3a" stroke-linecap="round" stroke-linejoin="round" stroke-width="3"/>
        <line id="Línea_403" data-name="Línea 403" x2="23.667" y2="4.134" transform="translate(199.781 1663.271)" fill="none" stroke="#373a3a" stroke-linecap="round" stroke-linejoin="round" stroke-width="3"/>
        <line id="Línea_404" data-name="Línea 404" x2="34.425" y2="6.012" transform="translate(234.122 1669.273)" fill="none" stroke="#373a3a" stroke-linecap="round" stroke-linejoin="round" stroke-width="3"/>
        <path id="Trazado_134130" data-name="Trazado 134130" d="M218.133,1621.39l11.6-7.109,2.837,9.629" fill="none" stroke="#373a3a" stroke-linecap="round" stroke-linejoin="round" stroke-width="3"/>
        <line id="Línea_405" data-name="Línea 405" x2="9.102" y2="1.593" transform="translate(222.426 1618.764)" fill="none" stroke="#373a3a" stroke-linecap="round" stroke-linejoin="round" stroke-width="3"/>
        <path id="Trazado_134131" data-name="Trazado 134131" d="M276.731,1610.052l-66.319-11.58-41.576,79.313,93.551,16.348,22.317-6.9,36.387-69.43-44.35-7.741Z" fill="none" stroke="#373a3a" stroke-linecap="round" stroke-linejoin="round" stroke-width="3"/>
        <path id="Trazado_134132" data-name="Trazado 134132" d="M262.388,1694.132l5.189-9.893,17.128,3" fill="none" stroke="#373a3a" stroke-linecap="round" stroke-linejoin="round" stroke-width="3"/>
        <path id="Trazado_134133" data-name="Trazado 134133" d="M191.576,1634.394l-30.449,17.592,16.305,9.408" fill="none" stroke="#373a3a" stroke-linecap="round" stroke-linejoin="round" stroke-width="3"/>
        <path id="Trazado_134134" data-name="Trazado 134134" d="M221.867,1687.055l15.082,8.7,8.079-4.662" fill="none" stroke="#373a3a" stroke-linecap="round" stroke-linejoin="round" stroke-width="3"/>
        <path id="Trazado_134135" data-name="Trazado 134135" d="M299.017,1659.928l32.052-18.51-17.16-9.9" fill="none" stroke="#373a3a" stroke-linecap="round" stroke-linejoin="round" stroke-width="3"/>
        <path id="Trazado_134136" data-name="Trazado 134136" d="M276.742,1610.063l-.01-.01-21.495-12.4-11.507,6.645" fill="none" stroke="#373a3a" stroke-linecap="round" stroke-linejoin="round" stroke-width="3"/>
        <line id="Línea_406" data-name="Línea 406" y1="19.564" transform="translate(236.949 1695.756)" fill="none" stroke="#373a3a" stroke-linecap="round" stroke-linejoin="round" stroke-width="3"/>
        <path id="Trazado_134137" data-name="Trazado 134137" d="M161.127,1651.986v19.554l75.821,43.78,94.12-54.338v-19.564" fill="none" stroke="#373a3a" stroke-linecap="round" stroke-linejoin="round" stroke-width="3"/>
      </g>
    </g>
  </g>
</svg>
