<svg xmlns="http://www.w3.org/2000/svg" width="256.951" height="284.08" viewBox="0 0 256.951 284.08">
  <g id="Grupo_138974" data-name="Grupo 138974" transform="translate(-180 -399.92)">
    <path id="Trazado_115208" data-name="Trazado 115208" d="M-1650.225,724.785a120.527,120.527,0,0,1,21.507,50.764c7.62,45.436-13.878,84.756-50.268,99-16.15,32.251-50.927,50.329-90.489,42.9-53.558-10.06-95.609-63.061-93.924-118.374a138.518,138.518,0,0,1,17.327-61.871,116.081,116.081,0,0,1,39.415-41.565c18.812-11.841,40.8-18.222,65.367-18.959,35.245-1.062,69.439,18.35,91.07,48.114Zm-19.331,113.194c.049-.841.077-1.67.1-2.481C-1669.48,836.33-1669.511,837.155-1669.556,837.979Z" transform="translate(2054.448 -264.089)" fill="#64b5f6"/>
    <g id="Grupo_138969" data-name="Grupo 138969" transform="translate(72.544 267.979)">
      <path id="Trazado_133821" data-name="Trazado 133821" d="M278.595,418c2.485,1.027,5.267,1.452,7.689,2.572,2.174,1,3.3,3.892,5.028,5.486,3.711,3.418,8.474,4.933,12.835,7.278,4.986,2.68,8.5,7.49,14.031,9.228a10.892,10.892,0,0,0,9.283-1.034,9.323,9.323,0,0,0,4.166-6.444c1.248-2.477.975-5.574,1.062-8.26q.15-4.611.3-9.222c.4-12.406.807-24.845.73-37.258a3.422,3.422,0,0,0-2.473-3.247,3.947,3.947,0,0,0-1.79,0,3.417,3.417,0,0,0-2.473,3.247c-.512,9.206-.731,18.45-.944,27.667-.105,4.549-.155,9.1-.231,13.649q-.056,3.32-.112,6.64c-.007.4-.025.807-.044,1.214a3.561,3.561,0,0,0-3.917,2.452,4.31,4.31,0,0,0,.508,3.82,4.574,4.574,0,0,1-1.243-.024c-2.94-.473-5.32-2.871-7.524-4.673a36.329,36.329,0,0,0-7.694-4.915c-2.4-1.127-4.88-2.11-7.17-3.462-2.359-1.393-3.733-3.264-5.423-5.346-2.184-2.69-5.038-3.625-8.3-4.313a69.931,69.931,0,0,1-17.629-6.673c-.886-.462-2.2.55-1.5,1.5A30.017,30.017,0,0,0,278.595,418Z" transform="translate(-68.809 -137.511)" fill="#d7dce0" style="mix-blend-mode: multiply;isolation: isolate"/>
      <g id="Grupo_138969-2" data-name="Grupo 138969" transform="translate(163.796 159.296)">
        <path id="Trazado_133822" data-name="Trazado 133822" d="M303.089,348.307a14.854,14.854,0,0,0,.856-5.205V255.86c0-8.139-4.983-17.635-11.107-21.168l-111.6-64.432a10.26,10.26,0,0,0-3.189-1.234l-.945-.181L187.4,162.53l.056-.036a4.919,4.919,0,0,1,2.622-.719,8.135,8.135,0,0,1,4.022,1.216l111.6,64.435c5.816,3.361,10.548,12.423,10.548,20.2v87.241c0,3.91-1.226,6.9-3.363,8.213l-10.175,6.241Z" transform="translate(-177.107 -161.775)" fill="#ba68c8"/>
      </g>
      <g id="Grupo_138970" data-name="Grupo 138970" transform="translate(246.05 196.9)">
        <line id="Línea_358" data-name="Línea 358" x2="32.106" y2="18.538" fill="#3a3a3a"/>
      </g>
      <g id="Grupo_138971" data-name="Grupo 138971" transform="translate(242.716 328.362)">
        <path id="Trazado_133823" data-name="Trazado 133823" d="M388.923,615.535l22.893,13.212,1.891,9.675L390.89,651.6Z" transform="translate(-388.923 -615.535)" fill="#3a3a3a"/>
      </g>
      <g id="Grupo_138972" data-name="Grupo 138972" transform="translate(188.742 200.064)">
        <path id="Trazado_133824" data-name="Trazado 133824" d="M309.025,362.812V313.884a.556.556,0,0,0-.339-.514c-15.433-6.527-23.671-11.376-33.88-19.944l-.01,0-.035-.028a.537.537,0,0,0-.119-.076l-2.088-.931c-10.742-4.78-20.02-8.909-28.338-14.889l-.155-.111v-6.194l69.488,40.119a.972.972,0,0,1,.358.71V365.6Z" transform="translate(-244.061 -271.192)" fill="#d7dce0"/>
      </g>
      <g id="Grupo_138973" data-name="Grupo 138973" transform="translate(200.23 307.665)">
        <path id="Trazado_133825" data-name="Trazado 133825" d="M274.895,591.669l3.587-17.135.013-.032,3.04-14.514,34.689,20.031,2,36.668Z" transform="translate(-274.895 -559.988)" fill="#d7dce0"/>
      </g>
      <path id="Trazado_133826" data-name="Trazado 133826" d="M244.559,195.608l-63.027-36.387a9.987,9.987,0,0,0-4.221-1.4l-2.016.138a6.256,6.256,0,0,0-1.926.782l-13.376,8.208h0s0,0-.007,0l-.037.026s0,0,0,0c-2.575,1.583-4.05,5.034-4.05,9.464v87.238c0,8.257,5.063,17.9,11.293,21.495l38.246,22.083-2.955,14.1a27.95,27.95,0,0,0-4.832,2.172l-7.3,4.218c-4.62,2.668-7.265,6.267-7.265,9.874,0,3.048,1.87,5.8,5.272,7.768L232.5,370.9a25.507,25.507,0,0,0,12.519,2.876,33.23,33.23,0,0,0,16.182-4.031l7.3-4.214c4.62-2.664,7.265-6.263,7.265-9.877,0-3.048-1.87-5.8-5.268-7.768,0,0-.887-.514-2.411-1.393l-.671-3.435,11.364,6.561a9.648,9.648,0,0,0,4.769,1.423,6.391,6.391,0,0,0,3.394-.939l.064-.041.011-.007,13.316-8.167.03-.019c2.576-1.576,4.053-5.017,4.06-9.442v-87.31c-.015-8.245-5.075-17.861-11.292-21.455l-13.487-7.787M204.175,322.322a.328.328,0,0,0,.019-.056l2.936-14.02L241.2,327.918l1.952,35.78-42.5-24.539Zm38.95,6.707,22.15,12.784,1.807,9.248L245.021,363.8Zm25.463,23.313a.928.928,0,0,0,.451-.984l-.477-2.444c.644.373,1,.581,1,.581,2.8,1.613,4.341,3.8,4.341,6.155,0,2.929-2.306,5.943-6.334,8.264l-7.3,4.214a31.011,31.011,0,0,1-14.089,3.792c-4.769.168-9.385-.695-12.749-2.636l-44.152-25.5c-2.8-1.613-4.341-3.8-4.341-6.155,0-2.925,2.307-5.935,6.334-8.26l7.3-4.218a25.594,25.594,0,0,1,3.45-1.639l-3.335,15.924a.931.931,0,0,0,.447,1l44.573,25.731a.132.132,0,0,0,.034.015,1.211,1.211,0,0,0,.16.067c.019,0,.037.011.056.015a.841.841,0,0,0,.216.03h.052a1.023,1.023,0,0,0,.186-.03s0,0,.007,0a.92.92,0,0,0,.2-.082c.008,0,.015,0,.022-.011Zm20.556-11.718c0,3.733-1.136,6.6-3.119,7.854l-.052.03s0,0,0,0c-1.68,1.028-3.9.85-6.256-.51l-13.1-7.56c-.007-.007-.015-.011-.022-.019s-.011-.007-.015-.007l-24-13.853-.012-.007-74.45-42.985c-5.715-3.3-10.362-12.217-10.362-19.881V176.45c0-3.774,1.155-6.651,3.171-7.888,0,0,0,0,.007,0h0l.026-.015c1.677-1.01,3.886-.82,6.222.529l2.593,1.5,109,62.934c5.712,3.3,10.362,12.213,10.362,19.878Zm13.421-8.234c0,3.778-1.155,6.651-3.186,7.9l-9.251,5.675a15.278,15.278,0,0,0,.879-5.335V253.382c0-8.257-5.067-17.9-11.293-21.491l-109-62.934-2.593-1.5a10.621,10.621,0,0,0-3.3-1.278l9.475-5.812.063-.041c1.673-1.028,3.9-.849,6.256.507L292.2,225.27c5.712,3.3,10.362,12.217,10.362,19.878Z" fill="#3a3a3a"/>
      <path id="Trazado_133827" data-name="Trazado 133827" d="M317.507,631.351a.928.928,0,0,0,.451-.984l-.477-2.444c.644.373,1,.581,1,.581,2.8,1.613,4.341,3.8,4.341,6.155,0,2.929-2.306,5.943-6.334,8.264l-7.3,4.214a31.012,31.012,0,0,1-14.089,3.791c-4.769.168-9.385-.695-12.749-2.636L238.2,622.8c-2.8-1.613-4.341-3.8-4.341-6.155,0-2.925,2.307-5.935,6.334-8.26l7.3-4.218a25.6,25.6,0,0,1,3.45-1.639l-3.335,15.924a.931.931,0,0,0,.447,1l44.573,25.731a.132.132,0,0,0,.034.015,1.206,1.206,0,0,0,.16.067c.019,0,.037.011.056.015a.841.841,0,0,0,.216.03h.052a1.023,1.023,0,0,0,.186-.03s0,0,.007,0a.921.921,0,0,0,.2-.082c.008,0,.015,0,.022-.011Z" transform="translate(-48.919 -279.01)" fill="#636363"/>
      <path id="Trazado_133828" data-name="Trazado 133828" d="M292.28,357.6c0,3.733-1.136,6.6-3.119,7.854l-.052.03s0,0,0,0c-1.68,1.028-3.9.85-6.256-.51l-13.1-7.56c-.007-.007-.015-.011-.022-.019s-.011-.007-.015-.007l-24-13.853-.012-.007-74.45-42.985c-5.715-3.3-10.362-12.217-10.362-19.881V193.422c0-3.774,1.155-6.651,3.171-7.888,0,0,0,0,.007,0h0l.026-.015c1.677-1.01,3.886-.82,6.222.529l2.593,1.5,109,62.934c5.712,3.3,10.362,12.213,10.362,19.878Z" transform="translate(-3.137 -16.972)" fill="#fff"/>
      <path id="Trazado_133829" data-name="Trazado 133829" d="M297.109,367.281a.939.939,0,0,0,.346.067.918.918,0,0,0,.525-.16.932.932,0,0,0,.406-.771V361.83l4.326,2.467a.923.923,0,0,0,.462.123,1.008,1.008,0,0,0,.276-.041,1.4,1.4,0,0,0,.935-1.423V309.108a2.409,2.409,0,0,0-1.088-1.993l-69.916-40.366a1.306,1.306,0,0,0-1.416.019.93.93,0,0,0-.406.768V272.9c-1.181-.905-2.351-1.852-3.506-2.854a.931.931,0,0,0-1.543.7v54.048a.918.918,0,0,0,.283.667c7.1,6.9,18.238,13.372,36.1,20.98C272.824,355.473,282.749,361.517,297.109,367.281Zm-.585-2.247c-13.365-5.484-22.791-11.289-32.184-19.8V292.9c9.46,7.735,17.9,12.62,32.184,18.689Zm-63.1-96.109,68.929,39.8a.627.627,0,0,1,.171.387v52.934l-4.136-2.358V310.971a.928.928,0,0,0-.566-.857C282.422,303.6,274.2,298.765,264,290.2a.081.081,0,0,0-.019-.011.92.92,0,0,0-.2-.127l-2.09-.931c-10.943-4.87-20-8.9-28.272-14.851Zm29.054,75.311c-16.74-7.2-27.318-13.354-34.1-19.837V272.755c9.508,7.821,19.758,12.381,32.564,18.082l1.539.686Z" transform="translate(-44.308 -68.216)" fill="#3a3a3a"/>
      <path id="Trazado_133830" data-name="Trazado 133830" d="M338.452,369.4a112.02,112.02,0,0,0,22.389,12.97.93.93,0,0,0,.768-1.7,110.3,110.3,0,0,1-22.039-12.765.931.931,0,0,0-1.118,1.49Z" transform="translate(-114.307 -131.697)" fill="#3a3a3a"/>
      <path id="Trazado_133831" data-name="Trazado 133831" d="M373.952,408.439a125.047,125.047,0,0,1-14.773-7.772.931.931,0,1,0-.987,1.58,127.066,127.066,0,0,0,14.993,7.891.932.932,0,0,0,.768-1.7Z" transform="translate(-126.651 -152.274)" fill="#3a3a3a"/>
      <path id="Trazado_133832" data-name="Trazado 133832" d="M338.452,407.971a112.2,112.2,0,0,0,22.389,12.97.93.93,0,0,0,.768-1.7,110.477,110.477,0,0,1-22.039-12.765.931.931,0,0,0-1.118,1.49Z" transform="translate(-114.307 -155.893)" fill="#3a3a3a"/>
      <path id="Trazado_133833" data-name="Trazado 133833" d="M384.67,453.178c-3.145-1.427-5.913-2.78-8.465-4.139a.931.931,0,0,0-.876,1.643c2.589,1.379,5.391,2.75,8.573,4.192a.873.873,0,0,0,.384.086.933.933,0,0,0,.384-1.781Z" transform="translate(-137.369 -182.643)" fill="#3a3a3a"/>
      <path id="Trazado_133834" data-name="Trazado 133834" d="M338.452,446.541a112.093,112.093,0,0,0,22.389,12.97.93.93,0,0,0,.768-1.7,110.477,110.477,0,0,1-22.039-12.765.931.931,0,0,0-1.118,1.49Z" transform="translate(-114.307 -180.093)" fill="#3a3a3a"/>
      <path id="Trazado_133835" data-name="Trazado 133835" d="M391.031,495c-1.684-.764-3.227-1.49-4.713-2.224a.932.932,0,0,0-.823,1.673c1.505.741,3.066,1.475,4.769,2.247a.873.873,0,0,0,.384.086.933.933,0,0,0,.384-1.781Z" transform="translate(-143.729 -210.094)" fill="#3a3a3a"/>
      <path id="Trazado_133836" data-name="Trazado 133836" d="M338.452,465.825a103.426,103.426,0,0,0,14.345,9.058.921.921,0,0,0,.436.108.93.93,0,0,0,.432-1.755,102,102,0,0,1-14.1-8.9.93.93,0,1,0-1.118,1.487Z" transform="translate(-114.307 -192.193)" fill="#3a3a3a"/>
      <path id="Trazado_133837" data-name="Trazado 133837" d="M338.452,427.259a103.223,103.223,0,0,0,9.587,6.408.949.949,0,0,0,.473.127.931.931,0,0,0,.473-1.733,101.509,101.509,0,0,1-9.415-6.293.931.931,0,1,0-1.118,1.49Z" transform="translate(-114.307 -167.994)" fill="#3a3a3a"/>
      <path id="Trazado_133838" data-name="Trazado 133838" d="M338.452,388.689c1.412,1.058,2.783,2.038,4.184,2.988a.909.909,0,0,0,.522.164.931.931,0,0,0,.525-1.7c-1.379-.935-2.724-1.9-4.113-2.94a.931.931,0,1,0-1.118,1.49Z" transform="translate(-114.307 -143.795)" fill="#3a3a3a"/>
      <path id="Trazado_133839" data-name="Trazado 133839" d="M267.716,325.131c-8.245-3.726-15-7.075-21.193-11.312a.933.933,0,0,0-1.054,1.539c6.3,4.311,13.145,7.705,21.48,11.472a.924.924,0,0,0,.384.082.932.932,0,0,0,.384-1.781Z" transform="translate(-55.948 -97.771)" fill="#3a3a3a"/>
      <path id="Trazado_133840" data-name="Trazado 133840" d="M293.022,359.183c-2.463-1.114-4.464-2.042-6.289-2.921a.932.932,0,0,0-.809,1.68c1.841.883,3.853,1.818,6.33,2.94a.923.923,0,0,0,.384.082.932.932,0,0,0,.384-1.781Z" transform="translate(-81.254 -124.445)" fill="#3a3a3a"/>
      <path id="Trazado_133841" data-name="Trazado 133841" d="M267.716,364.727c-8.245-3.73-15-7.079-21.193-11.315a.933.933,0,0,0-1.054,1.539c6.3,4.315,13.145,7.705,21.48,11.472a.93.93,0,1,0,.768-1.7Z" transform="translate(-55.948 -122.612)" fill="#3a3a3a"/>
      <path id="Trazado_133842" data-name="Trazado 133842" d="M282.882,393.652c-3.718-1.68-8.089-3.7-12.277-5.943a.932.932,0,0,0-.879,1.643c4.236,2.265,8.64,4.3,12.389,6a.932.932,0,1,0,.768-1.7Z" transform="translate(-71.114 -144.164)" fill="#3a3a3a"/>
      <path id="Trazado_133843" data-name="Trazado 133843" d="M267.716,404.321c-8.245-3.726-15-7.075-21.193-11.312a.933.933,0,0,0-1.054,1.539c6.3,4.311,13.145,7.705,21.48,11.472a.924.924,0,0,0,.384.082.932.932,0,0,0,.384-1.781Z" transform="translate(-55.948 -147.456)" fill="#3a3a3a"/>
      <path id="Trazado_133844" data-name="Trazado 133844" d="M292.567,438.155c-2.582-1.166-4.665-2.135-6.558-3.048a.931.931,0,1,0-.809,1.677c1.9.92,4,1.893,6.6,3.07a.924.924,0,0,0,.384.082.932.932,0,0,0,.384-1.781Z" transform="translate(-80.799 -173.913)" fill="#3a3a3a"/>
      <path id="Trazado_133845" data-name="Trazado 133845" d="M245.469,335.154a103.8,103.8,0,0,0,12.247,7.109.894.894,0,0,0,.417.1.931.931,0,0,0,.421-1.762,102.2,102.2,0,0,1-12.031-6.982.931.931,0,1,0-1.054,1.535Z" transform="translate(-55.948 -110.194)" fill="#3a3a3a"/>
      <path id="Trazado_133846" data-name="Trazado 133846" d="M257.717,419.363a100.859,100.859,0,0,1-11.193-6.554.931.931,0,1,0-1.054,1.535,103.385,103.385,0,0,0,11.4,6.68.96.96,0,0,0,.425.1.932.932,0,0,0,.425-1.762Z" transform="translate(-55.949 -159.879)" fill="#3a3a3a"/>
      <path id="Trazado_133847" data-name="Trazado 133847" d="M245.469,374.748c1.617,1.107,3.275,2.157,5.071,3.215a.907.907,0,0,0,.473.13.933.933,0,0,0,.473-1.736c-1.759-1.036-3.383-2.064-4.963-3.148a.933.933,0,0,0-1.054,1.539Z" transform="translate(-55.948 -135.033)" fill="#3a3a3a"/>
    </g>
    <g id="Circles" transform="translate(180 399.92)">
      <circle id="Elipse_4731" data-name="Elipse 4731" cx="5.188" cy="5.188" r="5.188" transform="translate(0.827 104.383)" fill="#3a3a3a"/>
      <g id="Grupo_80272" data-name="Grupo 80272" transform="translate(0 105.787)">
        <circle id="Elipse_4732" data-name="Elipse 4732" cx="4.612" cy="4.612" r="4.612" transform="translate(0.58 0.58)" fill="#fff"/>
        <path id="Trazado_115031" data-name="Trazado 115031" d="M6441.928,4549.906a4.039,4.039,0,1,0-4.925-2.893,4.04,4.04,0,0,0,4.925,2.893m.291,1.117a5.191,5.191,0,1,1,3.721-6.334,5.191,5.191,0,0,1-3.721,6.334h0Z" transform="translate(-6435.724 -4540.806)" fill="#3a3a3a"/>
      </g>
      <circle id="Elipse_4733" data-name="Elipse 4733" cx="5.188" cy="5.188" r="5.188" transform="translate(144.75 1.547)" fill="#3a3a3a"/>
      <g id="Grupo_80273" data-name="Grupo 80273" transform="translate(145.277)">
        <circle id="Elipse_4734" data-name="Elipse 4734" cx="4.612" cy="4.612" r="4.612" transform="translate(0.578 0.583)" fill="#fff"/>
        <path id="Trazado_115032" data-name="Trazado 115032" d="M6600.855,4424.623a3.986,3.986,0,1,0,.008,0l-.008,0m-.5-1.039a5.576,5.576,0,1,1-.01.006l.007,0Z" transform="translate(-6597.421 -4423.064)" fill="#3a3a3a"/>
      </g>
      <circle id="Elipse_4735" data-name="Elipse 4735" cx="3.804" cy="3.804" r="3.804" transform="translate(171.61 50.386)" fill="#3a3a3a"/>
      <g id="Grupo_80274" data-name="Grupo 80274" transform="translate(171.569 49.193)">
        <circle id="Elipse_4736" data-name="Elipse 4736" cx="3.381" cy="3.381" r="3.381" transform="translate(0.425 0.421)" fill="#fff"/>
        <path id="Trazado_115033" data-name="Trazado 115033" d="M6628.329,4479.594a2.956,2.956,0,1,0,4.18-.132h0a2.954,2.954,0,0,0-4.177.13h0m-.616-.576a3.8,3.8,0,1,1,.173,5.374,3.8,3.8,0,0,1-.173-5.374Z" transform="translate(-6626.685 -4477.817)" fill="#3a3a3a"/>
      </g>
      <circle id="Elipse_4737" data-name="Elipse 4737" cx="3.528" cy="3.528" r="3.528" transform="translate(118.937 277.023)" fill="#3a3a3a"/>
      <g id="Grupo_80275" data-name="Grupo 80275" transform="translate(119.296 275.974)">
        <circle id="Elipse_4738" data-name="Elipse 4738" cx="3.139" cy="3.139" r="3.139" transform="translate(0.389 0.393)" fill="#fff"/>
        <path id="Trazado_115034" data-name="Trazado 115034" d="M6570.836,4731.29a2.746,2.746,0,1,0,3.668,1.273,2.745,2.745,0,0,0-3.668-1.273m-.342-.707a3.531,3.531,0,1,1-1.637,4.718,3.531,3.531,0,0,1,1.637-4.718Z" transform="translate(-6568.503 -4730.229)" fill="#3a3a3a"/>
      </g>
      <circle id="Elipse_4739" data-name="Elipse 4739" cx="3.607" cy="3.607" r="3.607" transform="translate(61.543 10.732)" fill="#fff" stroke="#3a3a3a" stroke-linecap="round" stroke-miterlimit="10" stroke-width="1.17"/>
    </g>
    <g id="Grupo_80276" data-name="Grupo 80276" transform="translate(404.954 475.521)">
      <path id="Trazado_115035" data-name="Trazado 115035" d="M6712.042,4562.419c.295-.49.318-.622-.828-1.455-.892-.65-2.543-1.853-1.317-3.9.957-1.6,2.858-2.3,4.7-2.983,1.612-.6,3.135-1.165,3.756-2.2a.92.92,0,1,1,1.61.892c-.009.017-.02.034-.029.05-.958,1.6-2.858,2.3-4.7,2.984-1.611.6-3.135,1.165-3.757,2.2-.3.492-.318.624.828,1.457.891.648,2.542,1.852,1.316,3.9-.951,1.594-2.857,2.3-4.7,2.988-1.613.6-3.14,1.167-3.763,2.206-.294.491-.318.623.828,1.456.891.649,2.542,1.853,1.326,3.892-.957,1.6-2.861,2.3-4.705,2.986-1.611.6-3.136,1.164-3.759,2.2-.3.491-.316.627.829,1.46.892.649,2.543,1.853,1.327,3.892a5.237,5.237,0,0,1-2.031,1.842,19.386,19.386,0,0,1-2.674,1.144c-1.612.6-3.135,1.164-3.76,2.2a.92.92,0,0,1-1.577-.949c.96-1.594,2.858-2.3,4.7-2.981,1.611-.6,3.142-1.163,3.762-2.207.294-.491.316-.626-.831-1.46-.892-.65-2.543-1.853-1.319-3.9.96-1.594,2.858-2.3,4.7-2.981,1.611-.6,3.141-1.163,3.761-2.207.3-.49.318-.622-.827-1.455-.891-.649-2.543-1.853-1.326-3.891.957-1.6,2.857-2.3,4.7-2.987,1.612-.6,3.135-1.165,3.757-2.206Z" transform="translate(-6688.083 -4530.697)" fill="#fef536"/>
      <path id="Trazado_115036" data-name="Trazado 115036" d="M6700.525,4544.517c.958-1.6,2.858-2.3,4.7-2.987,1.612-.6,3.136-1.165,3.758-2.205.3-.491.317-.623-.828-1.456-.891-.649-2.543-1.853-1.316-3.9.956-1.6,2.858-2.3,4.7-2.987,1.612-.6,3.136-1.165,3.757-2.2a.92.92,0,0,1,1.58.943c-.957,1.6-2.858,2.3-4.7,2.988-1.612.6-3.136,1.164-3.759,2.2-.294.492-.317.624.828,1.457.892.649,2.543,1.853,1.316,3.9-.951,1.595-2.857,2.3-4.7,2.987-1.612.6-3.141,1.167-3.763,2.206-.3.491-.318.624.828,1.457.891.648,2.542,1.852,1.326,3.89-.957,1.6-2.862,2.3-4.706,2.987-1.611.6-3.135,1.165-3.759,2.2-.3.49-.316.626.83,1.459.891.65,2.543,1.853,1.327,3.892a5.246,5.246,0,0,1-2.032,1.841,19.67,19.67,0,0,1-2.674,1.145c-1.612.6-3.136,1.164-3.761,2.2a.92.92,0,1,1-1.576-.949c.959-1.594,2.858-2.3,4.7-2.98,1.612-.6,3.14-1.167,3.762-2.207.295-.491.315-.627-.83-1.46-.892-.648-2.543-1.853-1.317-3.9.961-1.594,2.858-2.3,4.7-2.981,1.611-.6,3.139-1.167,3.762-2.207.294-.491.318-.623-.829-1.455-.892-.65-2.543-1.853-1.326-3.891Z" transform="translate(-6687.772 -4528.357)" fill="#3a3a3a"/>
    </g>
  </g>
</svg>
