<svg id="Grupo_139314" data-name="Grupo 139314" xmlns="http://www.w3.org/2000/svg" width="143.743" height="273.759" viewBox="0 0 143.743 273.759">
  <g id="Grupo_139308" data-name="Grupo 139308">
    <g id="Grupo_139296" data-name="Grupo 139296">
      <path id="Trazado_134162" data-name="Trazado 134162" d="M481.555,100.227c-15.876,9.166-28.748,31.459-28.748,49.792V305.745l-110.913-64.3V85.714c0-18.333,12.872-40.625,28.745-49.789Z" transform="translate(-340.531 -34.349)" fill="#fff"/>
      <path id="Trazado_134163" data-name="Trazado 134163" d="M455.008,309.077,341.369,243.194V86.683c0-18.738,13.2-41.6,29.428-50.971l.683-.395L485.112,101.2l-2.038,1.179c-15.476,8.933-28.065,30.74-28.065,48.61ZM344.1,241.625l108.186,62.723V150.988c0-17.972,12.145-39.74,27.455-49.755L371.483,38.47c-15.162,9.172-27.387,30.6-27.387,48.213Z" transform="translate(-341.369 -35.318)" fill="#150035"/>
    </g>
    <g id="Grupo_139307" data-name="Grupo 139307" transform="translate(14.575 63.941)">
      <g id="Grupo_139297" data-name="Grupo 139297">
        <path id="Trazado_134164" data-name="Trazado 134164" d="M385.489,140.623l-33.1-19.112c-2.7-1.555-4.882-5.731-4.882-9.325V64.742c0-3.594,2.186-5.245,4.882-3.687l33.1,19.109c2.7,1.555,4.879,5.731,4.879,9.325v47.444C390.368,140.527,388.184,142.178,385.489,140.623Z" transform="translate(-346.144 -59.102)" fill="#64b5f6"/>
        <path id="Trazado_134165" data-name="Trazado 134165" d="M388.267,143.413a5.271,5.271,0,0,1-2.62-.771l-33.1-19.109c-3.121-1.8-5.565-6.416-5.565-10.506V65.582c0-2.389.865-4.259,2.371-5.126a4.442,4.442,0,0,1,4.557.257l33.1,19.112c3.116,1.8,5.559,6.414,5.559,10.5v47.444c0,2.389-.862,4.259-2.368,5.126A3.826,3.826,0,0,1,388.267,143.413ZM351.29,62.671a1.14,1.14,0,0,0-.576.145c-.631.364-1,1.4-1,2.765v47.444c0,3.1,1.921,6.829,4.2,8.146l33.1,19.109a1.954,1.954,0,0,0,1.828.257c.631-.361,1-1.4,1-2.765V90.328c0-3.1-1.922-6.829-4.2-8.143l-33.1-19.112A2.684,2.684,0,0,0,351.29,62.671Z" transform="translate(-346.982 -59.942)" fill="#150035"/>
      </g>
      <g id="Grupo_139298" data-name="Grupo 139298" transform="translate(6.814 10.656)">
        <path id="Trazado_134166" data-name="Trazado 134166" d="M377.674,123.8l-25.85-14.923a4.058,4.058,0,0,1-1.693-3.236V66.054c0-1.246.758-1.82,1.693-1.28L377.674,79.7a4.058,4.058,0,0,1,1.693,3.235v39.589C379.367,123.768,378.609,124.34,377.674,123.8Z" transform="translate(-348.768 -63.207)" fill="#fff"/>
        <path id="Trazado_134167" data-name="Trazado 134167" d="M379.188,126.2a2.72,2.72,0,0,1-1.358-.384l-25.848-14.926a5.4,5.4,0,0,1-2.376-4.414V66.893a2.81,2.81,0,0,1,1.267-2.55,2.422,2.422,0,0,1,2.47.088l25.85,14.926a5.393,5.393,0,0,1,2.373,4.414V123.36a2.806,2.806,0,0,1-1.267,2.547A2.213,2.213,0,0,1,379.188,126.2Zm-26.855-59.21v39.485a2.714,2.714,0,0,0,1.013,2.054l25.494,14.723V83.771a2.773,2.773,0,0,0-1.008-2.054Z" transform="translate(-349.606 -64.046)" fill="#150035"/>
      </g>
      <g id="Grupo_139299" data-name="Grupo 139299" transform="translate(0 68.874)">
        <path id="Trazado_134168" data-name="Trazado 134168" d="M421.482,136.951l-70.69-40.815a7.855,7.855,0,0,1-3.285-6.271h0c0-2.418,1.47-3.529,3.285-2.482l70.69,40.812a7.865,7.865,0,0,1,3.282,6.274h0C424.764,136.887,423.294,138,421.482,136.951Z" transform="translate(-346.144 -85.629)" fill="#64b5f6"/>
        <path id="Trazado_134169" data-name="Trazado 134169" d="M423.629,139.541a4,4,0,0,1-1.992-.574l-70.69-40.812a9.235,9.235,0,0,1-3.965-7.453,4.226,4.226,0,0,1,1.815-3.835,3.455,3.455,0,0,1,3.513.174L423,127.85a9.24,9.24,0,0,1,3.965,7.455,4.221,4.221,0,0,1-1.818,3.835A3.02,3.02,0,0,1,423.629,139.541ZM423,136.606c.332.192.628.265.784.174.218-.127.454-.641.454-1.475a6.585,6.585,0,0,0-2.6-5.095L350.947,89.4a.946.946,0,0,0-.787-.174c-.218.127-.452.644-.452,1.478a6.576,6.576,0,0,0,2.6,5.092Z" transform="translate(-346.982 -86.466)" fill="#150035"/>
      </g>
      <g id="Grupo_139300" data-name="Grupo 139300" transform="translate(0 85.463)">
        <path id="Trazado_134170" data-name="Trazado 134170" d="M409.612,136.743l-58.82-34.217a7.856,7.856,0,0,1-3.285-6.274h0c0-2.418,1.47-3.529,3.285-2.48l58.82,34.214a7.864,7.864,0,0,1,3.285,6.274h0C412.9,136.678,411.427,137.79,409.612,136.743Z" transform="translate(-346.144 -92.018)" fill="#64b5f6"/>
        <path id="Trazado_134171" data-name="Trazado 134171" d="M411.762,139.332a3.992,3.992,0,0,1-1.992-.571l-.005,0-58.82-34.217a9.236,9.236,0,0,1-3.963-7.453,4.221,4.221,0,0,1,1.818-3.835,3.463,3.463,0,0,1,3.511.174l58.826,34.219a9.229,9.229,0,0,1,3.96,7.45,4.213,4.213,0,0,1-1.818,3.835A3,3,0,0,1,411.762,139.332Zm-.628-2.932c.335.192.628.262.784.171.218-.125.454-.641.454-1.475a6.589,6.589,0,0,0-2.6-5.095L350.945,95.785c-.33-.192-.636-.26-.784-.171-.218.127-.452.641-.452,1.475a6.577,6.577,0,0,0,2.6,5.095L411.136,136.4Z" transform="translate(-346.982 -92.854)" fill="#150035"/>
      </g>
      <g id="Grupo_139301" data-name="Grupo 139301" transform="translate(50.534 30.427)">
        <path id="Trazado_134172" data-name="Trazado 134172" d="M385.106,89.708l-14.853-8.377a7.855,7.855,0,0,1-3.285-6.271h0c0-2.42,1.47-3.529,3.285-2.482l14.853,8.377a7.86,7.86,0,0,1,3.282,6.271h0C388.388,89.643,386.918,90.754,385.106,89.708Z" transform="translate(-365.605 -70.823)" fill="#64b5f6"/>
        <path id="Trazado_134173" data-name="Trazado 134173" d="M387.253,92.3a3.988,3.988,0,0,1-1.984-.569l-14.848-8.372a9.239,9.239,0,0,1-3.978-7.463,4.217,4.217,0,0,1,1.818-3.833,3.456,3.456,0,0,1,3.511.171L386.614,80.6a9.243,9.243,0,0,1,3.976,7.46,4.213,4.213,0,0,1-1.818,3.835A3.006,3.006,0,0,1,387.253,92.3ZM369.787,74.382a.338.338,0,0,0-.164.036c-.221.127-.454.641-.454,1.475a6.585,6.585,0,0,0,2.6,5.095l14.853,8.377c.335.192.636.262.787.171.218-.125.452-.639.452-1.475a6.577,6.577,0,0,0-2.6-5.092L370.421,74.6A1.38,1.38,0,0,0,369.787,74.382Z" transform="translate(-366.443 -71.659)" fill="#150035"/>
      </g>
      <g id="Grupo_139302" data-name="Grupo 139302" transform="translate(50.534 47.017)">
        <path id="Trazado_134174" data-name="Trazado 134174" d="M390.11,99.188,370.253,87.721a7.86,7.86,0,0,1-3.285-6.274h0c0-2.418,1.47-3.529,3.285-2.482L390.11,90.432a7.86,7.86,0,0,1,3.285,6.274h0C393.395,99.123,391.925,100.235,390.11,99.188Z" transform="translate(-365.605 -77.213)" fill="#64b5f6"/>
        <path id="Trazado_134175" data-name="Trazado 134175" d="M392.257,101.776a4.011,4.011,0,0,1-1.992-.574L370.408,89.738a9.24,9.24,0,0,1-3.965-7.455,4.221,4.221,0,0,1,1.818-3.835,3.462,3.462,0,0,1,3.511.174l19.857,11.464a9.246,9.246,0,0,1,3.968,7.455,4.211,4.211,0,0,1-1.818,3.833A3.01,3.01,0,0,1,392.257,101.776Zm-.628-2.934c.335.195.639.262.787.174.218-.127.454-.641.454-1.475a6.572,6.572,0,0,0-2.6-5.095L370.408,80.982c-.332-.192-.631-.265-.784-.174-.218.127-.454.641-.454,1.475a6.585,6.585,0,0,0,2.6,5.095Z" transform="translate(-366.443 -78.048)" fill="#150035"/>
      </g>
      <g id="Grupo_139303" data-name="Grupo 139303" transform="translate(50.534 63.607)">
        <path id="Trazado_134176" data-name="Trazado 134176" d="M390.11,105.575,370.253,94.11a7.86,7.86,0,0,1-3.285-6.274h0c0-2.418,1.47-3.529,3.285-2.482L390.11,96.821a7.855,7.855,0,0,1,3.285,6.271h0C393.395,105.51,391.925,106.621,390.11,105.575Z" transform="translate(-365.605 -83.602)" fill="#64b5f6"/>
        <path id="Trazado_134177" data-name="Trazado 134177" d="M392.257,108.162a4.007,4.007,0,0,1-1.992-.571L370.408,96.124a9.235,9.235,0,0,1-3.965-7.453,4.221,4.221,0,0,1,1.818-3.835,3.463,3.463,0,0,1,3.511.174l19.857,11.464a9.246,9.246,0,0,1,3.968,7.455,4.214,4.214,0,0,1-1.818,3.833A3.008,3.008,0,0,1,392.257,108.162Zm-.628-2.932c.335.192.639.262.787.174.218-.127.454-.644.454-1.475a6.572,6.572,0,0,0-2.6-5.095L370.408,87.368c-.332-.192-.636-.26-.784-.171-.221.125-.454.641-.454,1.475a6.584,6.584,0,0,0,2.6,5.092Z" transform="translate(-366.443 -84.437)" fill="#150035"/>
      </g>
      <g id="Grupo_139304" data-name="Grupo 139304" transform="translate(50.534 80.195)">
        <path id="Trazado_134178" data-name="Trazado 134178" d="M390.11,111.964,370.253,100.5a7.864,7.864,0,0,1-3.285-6.274h0c0-2.418,1.47-3.529,3.285-2.482l19.857,11.464a7.86,7.86,0,0,1,3.285,6.274h0C393.395,111.9,391.925,113.01,390.11,111.964Z" transform="translate(-365.605 -89.989)" fill="#64b5f6"/>
        <path id="Trazado_134179" data-name="Trazado 134179" d="M392.257,114.553a4.011,4.011,0,0,1-1.992-.574l-19.857-11.464a9.235,9.235,0,0,1-3.965-7.453,4.221,4.221,0,0,1,1.818-3.835,3.45,3.45,0,0,1,3.511.174l19.857,11.464a9.237,9.237,0,0,1,3.968,7.453,4.216,4.216,0,0,1-1.818,3.835A3.008,3.008,0,0,1,392.257,114.553Zm-.628-2.934c.338.195.639.26.789.174.216-.125.452-.641.452-1.475a6.571,6.571,0,0,0-2.6-5.092L370.408,93.758a.94.94,0,0,0-.784-.174c-.221.127-.454.644-.454,1.478a6.584,6.584,0,0,0,2.6,5.092Z" transform="translate(-366.443 -90.826)" fill="#150035"/>
      </g>
      <g id="Grupo_139305" data-name="Grupo 139305" transform="translate(0 102.054)">
        <path id="Trazado_134180" data-name="Trazado 134180" d="M388.727,131.118l-37.935-22.2a7.86,7.86,0,0,1-3.285-6.274h0c0-2.418,1.47-3.529,3.285-2.482l37.935,22.2a7.867,7.867,0,0,1,3.285,6.274h0C392.012,131.053,390.539,132.164,388.727,131.118Z" transform="translate(-346.144 -98.408)" fill="#64b5f6"/>
        <path id="Trazado_134181" data-name="Trazado 134181" d="M390.876,133.706a4,4,0,0,1-1.992-.574l-.008,0-37.935-22.2a9.236,9.236,0,0,1-3.96-7.45,4.221,4.221,0,0,1,1.818-3.835,3.463,3.463,0,0,1,3.511.174l37.943,22.2a9.233,9.233,0,0,1,3.957,7.45,4.22,4.22,0,0,1-1.815,3.835A3.013,3.013,0,0,1,390.876,133.706Zm-.628-2.932c.332.192.636.26.784.171.221-.125.454-.641.454-1.475a6.584,6.584,0,0,0-2.6-5.092l-37.943-22.207c-.327-.187-.626-.26-.782-.169-.218.127-.452.641-.452,1.475a6.582,6.582,0,0,0,2.6,5.095Z" transform="translate(-346.982 -99.243)" fill="#150035"/>
      </g>
      <g id="Grupo_139306" data-name="Grupo 139306" transform="translate(0 118.643)">
        <path id="Trazado_134182" data-name="Trazado 134182" d="M370.651,126.77l-19.86-11.464a7.86,7.86,0,0,1-3.285-6.274h0c0-2.418,1.47-3.529,3.285-2.482l19.86,11.464a7.868,7.868,0,0,1,3.282,6.274h0C373.934,126.7,372.464,127.816,370.651,126.77Z" transform="translate(-346.144 -104.796)" fill="#64b5f6"/>
        <path id="Trazado_134183" data-name="Trazado 134183" d="M372.8,129.358a4,4,0,0,1-1.992-.574l-19.86-11.464a9.235,9.235,0,0,1-3.965-7.453,4.218,4.218,0,0,1,1.818-3.835,3.462,3.462,0,0,1,3.511.171l19.86,11.467a9.235,9.235,0,0,1,3.965,7.453,4.213,4.213,0,0,1-1.818,3.835A3.012,3.012,0,0,1,372.8,129.358Zm-22.472-21a.334.334,0,0,0-.166.039c-.216.125-.452.641-.452,1.475a6.582,6.582,0,0,0,2.6,5.095l19.86,11.464c.335.192.639.262.787.171.218-.125.452-.639.452-1.475a6.577,6.577,0,0,0-2.6-5.092l-19.86-11.467A1.367,1.367,0,0,0,350.326,108.354Z" transform="translate(-346.982 -105.632)" fill="#150035"/>
      </g>
    </g>
  </g>
  <g id="Grupo_139309" data-name="Grupo 139309" transform="translate(102.622 55.085)">
    <rect id="Rectángulo_42849" data-name="Rectángulo 42849" width="2.725" height="33.13" transform="translate(0 2.366) rotate(-60.271)" fill="#150035"/>
  </g>
  <g id="Grupo_139310" data-name="Grupo 139310" transform="translate(87.212 46.285)">
    <rect id="Rectángulo_42850" data-name="Rectángulo 42850" width="2.725" height="11.837" transform="matrix(0.496, -0.868, 0.868, 0.496, 0, 2.366)" fill="#150035"/>
  </g>
  <g id="Grupo_139311" data-name="Grupo 139311" transform="translate(20.168 7.996)">
    <rect id="Rectángulo_42851" data-name="Rectángulo 42851" width="2.725" height="72.712" transform="matrix(0.496, -0.868, 0.868, 0.496, 0, 2.366)" fill="#150035"/>
  </g>
  <g id="Grupo_139312" data-name="Grupo 139312" transform="translate(46.446 47.576)">
    <rect id="Rectángulo_42852" data-name="Rectángulo 42852" width="2.726" height="10.029" transform="matrix(0.502, -0.865, 0.865, 0.502, 0, 2.358)" fill="#150035"/>
  </g>
  <g id="Grupo_139313" data-name="Grupo 139313" transform="translate(7.419 24.949)">
    <rect id="Rectángulo_42853" data-name="Rectángulo 42853" width="2.725" height="39.617" transform="matrix(0.502, -0.865, 0.865, 0.502, 0, 2.358)" fill="#150035"/>
  </g>
</svg>
