<svg xmlns="http://www.w3.org/2000/svg" width="85" height="94" viewBox="0 0 85 94">
  <g id="Grupo_132232" data-name="Grupo 132232" transform="translate(-180 -979)">
    <path id="Rectángulo_33876" data-name="Rectángulo 33876" d="M20,0H85a0,0,0,0,1,0,0V74A20,20,0,0,1,65,94H0a0,0,0,0,1,0,0V20A20,20,0,0,1,20,0Z" transform="translate(180 979)" fill="#64b5f6"/>
    <g id="Grupo_80735" data-name="Grupo 80735" transform="translate(194.362 997.465)">
      <circle id="Elipse_4740" data-name="Elipse 4740" cx="28.345" cy="28.345" r="28.345" transform="translate(-0.362 -0.465)" fill="#fff"/>
      <g id="Grupo_138826" data-name="Grupo 138826" transform="translate(-620.288 -559.366)">
        <path id="Trazado_133524" data-name="Trazado 133524" d="M635.4,597.965l.045-.024,21.1-12.184.275-.16a1.343,1.343,0,0,0,.634-1.194l-1.608-15.168c-.045-.431-.4-.595-.8-.366l-21.379,12.344a1.343,1.343,0,0,0-.634,1.194S635.019,598.156,635.4,597.965Z" transform="translate(-2.123 -2.451)" fill="#fef536"/>
        <path id="Trazado_133526" data-name="Trazado 133526" d="M766.7,679.037l-.274.159a1.341,1.341,0,0,1,1.168.065l13.719,7.92a.441.441,0,0,1,.191.171s-.013.029-.08.068l-19.263,11.122v.869L781.8,688.072a.831.831,0,0,0,.455-.714,1,1,0,0,0-.567-.829l-13.717-7.919a2.015,2.015,0,0,0-.653-.229A1.678,1.678,0,0,1,766.7,679.037Z" transform="translate(-111.817 -95.236)" fill="#3a3a3a"/>
        <path id="Trazado_133527" data-name="Trazado 133527" d="M658.778,772.9a1.354,1.354,0,0,1-1.169-.064l-13.719-7.92a.428.428,0,0,1-.191-.173.206.206,0,0,1,.081-.069l.227-.132-.018.009a1.047,1.047,0,0,1-.47.118.81.81,0,0,1-.39-.1.762.762,0,0,1-.133-.094.727.727,0,0,0-.049.259,1,1,0,0,0,.567.83l13.719,7.92a2.16,2.16,0,0,0,1.059.27,1.75,1.75,0,0,0,.861-.205l1.74-1v-.869Z" transform="translate(-10.548 -168.376)" fill="#3a3a3a"/>
        <path id="Trazado_133528" data-name="Trazado 133528" d="M632.855,595.651l.229-.133a.376.376,0,0,1,.379.65l.044-.023,21.1-12.184a.376.376,0,0,1-.376-.652,1.947,1.947,0,0,1,1.269-.164,1.583,1.583,0,0,0,.2-.9L654.1,567.074a.881.881,0,0,0-.456-.719.942.942,0,0,0-.906.066l-21.378,12.344a1.726,1.726,0,0,0-.82,1.56l1.608,15.168a.925.925,0,0,0,.3.614A.9.9,0,0,1,632.855,595.651Zm-1.569-15.407a.979.979,0,0,1,.448-.827l21.379-12.344a.337.337,0,0,1,.157-.053.069.069,0,0,1,.03.005c.018.009.042.053.05.127l1.608,15.169a.978.978,0,0,1-.448.828L633.125,595.5l-.019.01c-.093.047-.148.043-.164.034a.179.179,0,0,1-.049-.126Z" transform="translate(0 0)" fill="#3a3a3a"/>
        <path id="Trazado_133529" data-name="Trazado 133529" d="M786.93,678.336a.376.376,0,0,0,.376.652l.275-.159a1.679,1.679,0,0,0,.618-.656A1.946,1.946,0,0,0,786.93,678.336Z" transform="translate(-132.696 -95.027)" fill="#3a3a3a"/>
        <path id="Trazado_133530" data-name="Trazado 133530" d="M712.369,630.333a.376.376,0,0,0-.376-.652l-4.391,2.535.376.652Z" transform="translate(-65.469 -53.824)" fill="#3a3a3a"/>
        <path id="Trazado_133531" data-name="Trazado 133531" d="M744.419,620.3a.375.375,0,0,0,.188-.05l1.587-.915a.376.376,0,1,0-.376-.652l-1.586.915a.376.376,0,0,0,.188.7Z" transform="translate(-96.424 -44.481)" fill="#3a3a3a"/>
        <path id="Trazado_133532" data-name="Trazado 133532" d="M708.626,656.57s.894-.515,2.054-1.185a.376.376,0,0,0-.377-.652l-2.053,1.184a.376.376,0,1,0,.376.652Z" transform="translate(-65.86 -75.105)" fill="#3a3a3a"/>
        <path id="Trazado_133533" data-name="Trazado 133533" d="M733.272,634.761l-4.111,2.374a.376.376,0,1,0,.376.652l4.111-2.374a.376.376,0,0,0-.376-.652Z" transform="translate(-83.623 -58.139)" fill="#3a3a3a"/>
        <path id="Trazado_133534" data-name="Trazado 133534" d="M713.815,663.872,709.95,666.1a.376.376,0,1,0,.376.652l3.864-2.231a.376.376,0,1,0-.376-.652Z" transform="translate(-67.304 -82.868)" fill="#3a3a3a"/>
        <path id="Trazado_133535" data-name="Trazado 133535" d="M746.457,650.842l-2.077,1.2a.376.376,0,1,0,.376.652l2.078-1.2a.376.376,0,0,0-.377-.652Z" transform="translate(-96.551 -71.799)" fill="#3a3a3a"/>
        <path id="Trazado_133536" data-name="Trazado 133536" d="M644.508,758.287l-.6.348a1.76,1.76,0,0,1-.4.158l-.2.34-.039.086.308.437.476-.241.451-.259.109-.5" transform="translate(-10.825 -163.113)" fill="#3a3a3a"/>
        <g id="Grupo_138825" data-name="Grupo 138825" transform="translate(638.299 586.51)">
          <path id="Trazado_133537" data-name="Trazado 133537" d="M697.4,761.3a3.237,3.237,0,0,0,2.672-.71c.683-.484,1.344-1.454.534-2.181a.744.744,0,0,0-1.236.706q-.14.09-.282.176c-.2.118-.393.234-.586.357a10.975,10.975,0,0,1-1.232.653A.553.553,0,0,0,697.4,761.3Z" transform="translate(-694.765 -749.56)" fill="#d7dce0" style="mix-blend-mode: multiply;isolation: isolate"/>
          <path id="Trazado_133538" data-name="Trazado 133538" d="M728.887,739.205a4.54,4.54,0,0,0,1.893-.748,2.825,2.825,0,0,0,1.479-1.163,1.435,1.435,0,0,0-.528-1.872,3.686,3.686,0,0,0-2-.337.787.787,0,0,0-.208,1.538,4.4,4.4,0,0,0,.6.2l-.045.026c-.58.318-1.671.806-1.805,1.543A.65.65,0,0,0,728.887,739.205Z" transform="translate(-721.314 -729.904)" fill="#d7dce0" style="mix-blend-mode: multiply;isolation: isolate"/>
          <path id="Trazado_133539" data-name="Trazado 133539" d="M762.935,722.021a4.087,4.087,0,0,0,1.837-.655c.481-.236,1.184-.449,1.382-1.006.449-1.258-1.632-1.7-2.426-1.9-.761-.186-1.086.988-.324,1.174a9.708,9.708,0,0,1,1.24.378c.02.007.038.017.058.024l-.09.052a5.079,5.079,0,0,0-2.017,1.336l.027,0A.369.369,0,0,0,762.935,722.021Z" transform="translate(-750.45 -715.778)" fill="#d7dce0" style="mix-blend-mode: multiply;isolation: isolate"/>
          <path id="Trazado_133540" data-name="Trazado 133540" d="M791.981,704.792a3.191,3.191,0,0,0,1.832-.4c.493-.2,1.309-.47,1.532-1.005.245-.588-.21-1.062-.711-1.3a13.815,13.815,0,0,1-1.432-.588c-.73-.445-1.3.629-.653,1.117a2.674,2.674,0,0,0,.872.431c.109.033.226.058.342.087l-.039.025c-.258.155-.51.318-.765.479a2.971,2.971,0,0,0-1.086.89A.182.182,0,0,0,791.981,704.792Z" transform="translate(-775.334 -701.295)" fill="#d7dce0" style="mix-blend-mode: multiply;isolation: isolate"/>
          <path id="Trazado_133541" data-name="Trazado 133541" d="M730.98,775.388a.3.3,0,0,0,.405.405,10.7,10.7,0,0,0,2.982-1.783.625.625,0,0,0-.124-.965,3.116,3.116,0,0,0-2.088-.6c-.8.072-.828,1.272,0,1.265a2.993,2.993,0,0,1,.632.056A4.759,4.759,0,0,0,730.98,775.388Z" transform="translate(-723.599 -761.64)" fill="#d7dce0" style="mix-blend-mode: multiply;isolation: isolate"/>
          <path id="Trazado_133542" data-name="Trazado 133542" d="M762.239,753.883c.334.043.666.068,1,.141l.162.037c-.168.119-.334.24-.505.354a2.406,2.406,0,0,0-.938.815.269.269,0,0,0,.158.389,2.774,2.774,0,0,0,1.82-.411c.509-.223,1.307-.53,1.34-1.182.066-1.31-2.342-1.6-3.237-1.563a.691.691,0,0,0-.6.343C761.125,753.438,761.651,753.808,762.239,753.883Z" transform="translate(-749.42 -744.673)" fill="#d7dce0" style="mix-blend-mode: multiply;isolation: isolate"/>
          <path id="Trazado_133543" data-name="Trazado 133543" d="M793.688,737.167c.414.4,1.249.009,1.682-.182.516-.228,1.508-.571,1.672-1.195.205-.781-.633-1.09-1.193-1.318-.653-.265-1.56-.788-2.17-.249a.559.559,0,0,0-.144.546c.14.544.588.612,1.058.771.175.059.349.122.523.186C794.374,736.181,793.331,736.822,793.688,737.167Z" transform="translate(-776.748 -728.982)" fill="#d7dce0" style="mix-blend-mode: multiply;isolation: isolate"/>
          <path id="Trazado_133544" data-name="Trazado 133544" d="M822.516,720.813a.1.1,0,0,0,.067.117,2.246,2.246,0,0,0,1.615-.255,3.586,3.586,0,0,0,1.593-1.151c.779-1.294-1.32-2.2-2.324-2.084a.7.7,0,0,0-.186,1.372c.23.068.467.085.7.145a2.315,2.315,0,0,1,.3.122c-.111.1-.224.227-.306.292C823.477,719.762,822.756,720.205,822.516,720.813Z" transform="translate(-801.379 -714.916)" fill="#d7dce0" style="mix-blend-mode: multiply;isolation: isolate"/>
          <path id="Trazado_133545" data-name="Trazado 133545" d="M767.451,748.047c-.111.126-.049.392.154.37a9.764,9.764,0,0,0,3.121-1.15c1.167-.567,2.3-1.195,3.433-1.829,1.088-.611,2.156-1.258,3.218-1.913.889-.548,2.314-1.1,2.725-2.1.145-.353-.215-.69-.536-.7a2.514,2.514,0,0,0-1.461.622q-.792.5-1.59.988c-1.023.627-2.057,1.236-3.087,1.853s-2.075,1.206-3.1,1.83A11.846,11.846,0,0,0,767.451,748.047Z" transform="translate(-754.562 -734.704)" fill="#d7dce0" style="mix-blend-mode: multiply;isolation: isolate"/>
          <path id="Trazado_133546" data-name="Trazado 133546" d="M769.966,744.4l-12.085,6.977a.376.376,0,1,0,.376.652l12.085-6.977a.376.376,0,0,0-.376-.652Z" transform="translate(-746.318 -737.785)" fill="#3a3a3a"/>
          <path id="Trazado_133547" data-name="Trazado 133547" d="M687.448,755.586a.376.376,0,0,0-.188-.326l-2.281-1.317a.376.376,0,0,0-.376,0l-2.282,1.317a.376.376,0,0,0,0,.652l2.282,1.317a.376.376,0,0,0,.376,0l2.281-1.317A.376.376,0,0,0,687.448,755.586Zm-2.657.883-1.529-.883,1.529-.883,1.528.883Z" transform="translate(-682.133 -745.89)" fill="#3a3a3a"/>
          <path id="Trazado_133548" data-name="Trazado 133548" d="M713.011,738.192l2.282,1.317a.376.376,0,0,0,.376,0l2.282-1.317a.376.376,0,0,0,0-.652l-2.282-1.317a.376.376,0,0,0-.376,0l-2.282,1.317a.376.376,0,0,0,0,.652Zm2.47-1.209,1.529.883-1.529.883-1.529-.883Z" transform="translate(-708.203 -730.837)" fill="#3a3a3a"/>
          <path id="Trazado_133549" data-name="Trazado 133549" d="M743.71,720.472l2.281,1.317a.376.376,0,0,0,.376,0l2.282-1.317a.376.376,0,0,0,0-.652l-2.282-1.317a.377.377,0,0,0-.376,0l-2.281,1.317a.376.376,0,0,0,0,.652Zm2.469-1.208,1.529.883-1.529.883-1.528-.883Z" transform="translate(-734.281 -715.785)" fill="#3a3a3a"/>
          <path id="Trazado_133550" data-name="Trazado 133550" d="M774.4,702.752l2.282,1.317a.376.376,0,0,0,.376,0l2.281-1.317a.377.377,0,0,0,0-.652l-2.281-1.317a.377.377,0,0,0-.376,0L774.4,702.1a.376.376,0,0,0,0,.652Zm2.47-1.208,1.528.883-1.528.883-1.529-.883Z" transform="translate(-760.351 -700.732)" fill="#3a3a3a"/>
          <path id="Trazado_133551" data-name="Trazado 133551" d="M716.58,772.19l-2.281-1.317a.376.376,0,0,0-.376,0l-2.282,1.317a.376.376,0,0,0,0,.652l2.282,1.317a.376.376,0,0,0,.376,0l2.281-1.317a.376.376,0,0,0,0-.652Zm-2.469,1.209-1.529-.883,1.529-.883,1.528.883Z" transform="translate(-707.039 -760.271)" fill="#3a3a3a"/>
          <path id="Trazado_133552" data-name="Trazado 133552" d="M744.8,756.49a.376.376,0,0,0,.188-.05l2.282-1.317a.377.377,0,0,0,0-.652l-2.282-1.317a.376.376,0,0,0-.376,0l-2.282,1.317a.376.376,0,0,0,0,.652l2.282,1.317A.376.376,0,0,0,744.8,756.49Zm0-2.576,1.529.883-1.529.883-1.529-.883Z" transform="translate(-733.109 -745.219)" fill="#3a3a3a"/>
          <path id="Trazado_133553" data-name="Trazado 133553" d="M775.688,735.423a.377.377,0,0,0-.377,0l-2.281,1.319a.376.376,0,0,0,0,.652l2.281,1.317a.376.376,0,0,0,.376,0l2.282-1.317a.376.376,0,0,0,0-.652Zm-.188,2.527-1.529-.883,1.529-.884,1.53.884Z" transform="translate(-759.188 -730.158)" fill="#3a3a3a"/>
          <path id="Trazado_133554" data-name="Trazado 133554" d="M803.533,719.346a.377.377,0,0,0,.188.326L806,720.99a.376.376,0,0,0,.377,0l2.282-1.319a.376.376,0,0,0,0-.652l-2.282-1.317a.376.376,0,0,0-.376,0l-2.282,1.317A.376.376,0,0,0,803.533,719.346Zm2.658-.883,1.529.883-1.529.884-1.53-.884Z" transform="translate(-785.258 -715.105)" fill="#3a3a3a"/>
        </g>
        <path id="Trazado_133555" data-name="Trazado 133555" d="M670.982,665.538l1.742-1.006.423.894,1.365-.789-2.558-4.615-1.2.691-1.325,6.857,1.358-.784Zm.545-3.562.78,1.663-1.134.655Z" transform="translate(-33.046 -79.641)" fill="#3a3a3a"/>
      </g>
    </g>
  </g>
</svg>
