<svg xmlns="http://www.w3.org/2000/svg" width="241.867" height="292.712" viewBox="0 0 241.867 292.712">
  <g id="Grupo_138963" data-name="Grupo 138963" transform="translate(-1781.961 -2080.012)">
    <path id="Trazado_133803" data-name="Trazado 133803" d="M1866.679,2103.61l36.119-22.176,33.68,22.176,2.878,55.836-.439,9.428,9.454,5.46,26.665,15.4v123.851l-36.119,20.859-36.109-20.859-36.119,20.859-36.119-20.859v-60.354l34.824-20.848Z" transform="translate(2.673)" fill="#fff"/>
    <ellipse id="Elipse_4822" data-name="Elipse 4822" cx="117.431" cy="69.858" rx="117.431" ry="69.858" transform="translate(1784.711 2232.382)" fill="#fff"/>
    <path id="Trazado_133805" data-name="Trazado 133805" d="M1932.761,2314.483c-7.51-2.048-14.6-5.636-22.143-7.57-.159-3.914-4.459-7.906-9.142-5.555l-16.3,8.185c-3.2,1.41-6.321,3.052-9.346,4.692a5.341,5.341,0,0,0-2.979,4.106,12.339,12.339,0,0,0-6.645,2.87,1.43,1.43,0,0,0,0,1.987c3.105,3.344,8.766,3.5,13.066,4.094,5.948.823,11.827,1.381,17.825,1.689a144.108,144.108,0,0,0,35.665-2.239C1939.059,2325.449,1938.571,2316.065,1932.761,2314.483Z" transform="translate(4.726 12.777)" fill="#d7dce0"/>
    <path id="Trazado_133806" data-name="Trazado 133806" d="M1969.07,2183.768v123.851l-36.119,20.859V2204.627Z" transform="translate(8.64 5.964)" fill="#fef536"/>
    <path id="Trazado_133807" data-name="Trazado 133807" d="M1934.94,2102.388v65.264l-36.119,20.859v-65.253Z" transform="translate(6.651 1.222)" fill="#64b5f6"/>
    <path id="Trazado_133808" data-name="Trazado 133808" d="M1900.809,2304.122v.01L1864.7,2324.98v-60.343l36.109-20.859Z" transform="translate(4.662 9.462)" fill="#afafaf"/>
    <path id="Trazado_133809" data-name="Trazado 133809" d="M1864.691,2103.536l36.119,20.859,36.119-20.859-36.119-20.848Z" transform="translate(4.662 0.073)" fill="none" stroke="#3a3a3a" stroke-linecap="round" stroke-linejoin="round" stroke-width="5.5"/>
    <path id="Trazado_133810" data-name="Trazado 133810" d="M1900.81,2123.258l-36.119-20.87v128.783" transform="translate(4.662 1.222)" fill="none" stroke="#3a3a3a" stroke-linecap="round" stroke-linejoin="round" stroke-width="5.5"/>
    <path id="Trazado_133811" data-name="Trazado 133811" d="M1934.94,2167.652v-65.264l-36.119,20.87v65.253" transform="translate(6.651 1.222)" fill="none" stroke="#3a3a3a" stroke-linecap="round" stroke-linejoin="round" stroke-width="5.5"/>
    <line id="Línea_355" data-name="Línea 355" y1="0.011" x2="0.011" transform="translate(1905.472 2313.583)" fill="none" stroke="#3a3a3a" stroke-linecap="round" stroke-linejoin="round" stroke-width="5.5"/>
    <path id="Trazado_133812" data-name="Trazado 133812" d="M1902.8,2244.906l-36.109-20.838-.011.011-10.4,6-25.706,14.837" transform="translate(2.673 8.313)" fill="none" stroke="#3a3a3a" stroke-linecap="round" stroke-linejoin="round" stroke-width="5.5"/>
    <path id="Trazado_133813" data-name="Trazado 133813" d="M1866.679,2264.627l-36.109-20.859v60.354l36.119,20.859" transform="translate(2.673 9.462)" fill="none" stroke="#3a3a3a" stroke-linecap="round" stroke-linejoin="round" stroke-width="5.5"/>
    <path id="Trazado_133814" data-name="Trazado 133814" d="M1864.7,2263.489l-.011-.01v18.647l.011.011" transform="translate(4.662 10.61)" fill="none" stroke="#3a3a3a" stroke-linecap="round" stroke-linejoin="round" stroke-width="5.5"/>
    <path id="Trazado_133815" data-name="Trazado 133815" d="M1900.809,2243.778l-36.109,20.859v60.343l36.109-20.848v-.01" transform="translate(4.662 9.462)" fill="none" stroke="#3a3a3a" stroke-linecap="round" stroke-linejoin="round" stroke-width="5.5"/>
    <line id="Línea_356" data-name="Línea 356" x1="0.011" y2="0.011" transform="translate(1905.472 2253.23)" fill="none" stroke="#3a3a3a" stroke-linecap="round" stroke-linejoin="round" stroke-width="5.5"/>
    <path id="Trazado_133816" data-name="Trazado 133816" d="M1971.059,2184.917l-36.119-20.859-36.119,20.859" transform="translate(6.651 4.816)" fill="none" stroke="#3a3a3a" stroke-linecap="round" stroke-linejoin="round" stroke-width="5.5"/>
    <path id="Trazado_133817" data-name="Trazado 133817" d="M1934.94,2204.627l-36.119-20.859v63.486" transform="translate(6.651 5.964)" fill="none" stroke="#3a3a3a" stroke-linecap="round" stroke-linejoin="round" stroke-width="5.5"/>
    <line id="Línea_357" data-name="Línea 357" x2="36.109" y2="20.859" transform="translate(1905.482 2313.583)" fill="none" stroke="#3a3a3a" stroke-linecap="round" stroke-linejoin="round" stroke-width="5.5"/>
    <path id="Trazado_133818" data-name="Trazado 133818" d="M1898.821,2243.758v60.364h.01v-60.354Z" transform="translate(6.651 9.461)" fill="none" stroke="#3a3a3a" stroke-linecap="round" stroke-linejoin="round" stroke-width="5.5"/>
    <path id="Trazado_133819" data-name="Trazado 133819" d="M1932.951,2204.627v123.851l36.119-20.859V2183.768Z" transform="translate(8.64 5.964)" fill="none" stroke="#3a3a3a" stroke-linecap="round" stroke-linejoin="round" stroke-width="5.5"/>
    <path id="Trazado_133820" data-name="Trazado 133820" d="M1981.308,2242.056c1.757.9,3.471,1.841,5.154,2.8,23.071,13.313,34.616,30.785,34.616,48.258a43.632,43.632,0,0,1-7.1,23.356c-5.725,9.059-14.911,17.6-27.515,24.87-46.141,26.647-120.983,26.647-167.124,0-12.646-7.271-21.8-15.811-27.494-24.87a43.6,43.6,0,0,1-7.133-23.388c0-17.472,11.556-34.913,34.627-48.226a144.566,144.566,0,0,1,39.612-15.112" transform="translate(0 8.644)" fill="none" stroke="#3a3a3a" stroke-linecap="round" stroke-linejoin="round" stroke-width="5.5"/>
  </g>
</svg>
