<svg xmlns="http://www.w3.org/2000/svg" width="350.121" height="486.631" viewBox="0 0 350.121 486.631">
  <g id="Grupo_138822" data-name="Grupo 138822" transform="translate(-603.591 -575.992)">
    <path id="Trazado_133458" data-name="Trazado 133458" d="M809.888,750.068l-1.034,7.042L806.4,769.48l-7.035,9.395-8.83.985-3.979-2.98.482-8.6,1.981-8.1,9.2-8.933Z" fill="#fff"/>
    <g id="Grupo_138823" data-name="Grupo 138823">
      <path id="Trazado_133459" data-name="Trazado 133459" d="M895.7,771.879l3.7,14.1,3.242,4.756-10.763,12.31-10.938-3.857,1.893-12.182,1.367-8.078Z" fill="#fff"/>
      <path id="Trazado_133460" data-name="Trazado 133460" d="M883.342,759.431l-.5,12.448-.4,8.817-7.249-1.821-2.681-9.43,4.209-8.56,2.807-4.063Z" fill="#fff"/>
      <path id="Trazado_133461" data-name="Trazado 133461" d="M866.931,796.245l-1.966-6.408-7.114-.861-4.119,7.812,1.616,6.26Z" fill="#fff"/>
      <path id="Trazado_133462" data-name="Trazado 133462" d="M763.657,696.947c2.271-15.342,2.271-14.462,2.271-14.462l9.864-18.8,20.077-19.61,23.758-9.59,10.138,4.384,5.479,11.781v10.194l-6.027,20.492-6.3,11.237-10.451,18.078-5.04,15.32v4.407L790.8,740.991l-5.165-3.453,5.8-14.031,7.1-21.486,11.55-19.48,2.134-16.553-3.374-5.149-8.73,2.252-8.174,7.828-4.218,9.669-2.1,6.513-9.843,5.467Z" fill="#fff"/>
      <path id="Trazado_133463" data-name="Trazado 133463" d="M619.5,677.352l167.537-97.319,1.049,46.127,1.477,212.373-171.93,99.918v-261.1" fill="#fff"/>
      <path id="Trazado_133464" data-name="Trazado 133464" d="M865.077,798.538l12.943-2.389,4.467.755,6.361,1.423,6.393-.22,6.913-8.27s-9.85-2.086,3.461-1.658l13.311.428,5.376,5.583s2.385,7.494,2.646,9.092-.612,17.146-.612,17.146l-3.421,10.462-3.447,15.838v24.7l-1.155,7.662L896.6,887.538l-26.375-.426-3.98-5.521-.61-22.472-.668-21.29-3,4.54-2.428,6.986-1.495,5.364-7.38,2.325L845.4,850.8s1.017-10.171,1.017-10.607,2.47-22.667,2.47-22.667l4.843-12.22,12.607-6.512Z" fill="#64b5f6"/>
      <path id="Trazado_133465" data-name="Trazado 133465" d="M627.98,932.11c-2.216,1.027-4.458,2-6.665,3.044-.647.322-1.3.639-1.944.957a3.552,3.552,0,0,0-1.733-.432A9.065,9.065,0,0,0,617,929.9c-1.219-2.835-6.017-2.025-6.6.862-.477,2.373-4.43,4.288-5.634,6.584a9.455,9.455,0,0,0,.836,10.43c4.935,6.075,13.42,5.154,20.212,3.722,18.547-3.912,36.164-12.8,52.7-21.786,34.7-18.865,68.441-39.727,101.486-61.347,9.109-5.96,18.629-11.676,27.289-18.277,4.3-3.275,6.326-8.23,3.878-13.407-2.13-4.5-6.772-8.235-10.137-11.841-5.795-6.209-14.584,1.316-12.016,8a5.67,5.67,0,0,0,.547,5.693c-1.414.92-2.846,1.816-4.264,2.726l-11.1,7.125q-11.3,7.251-22.606,14.48c-14.531,9.258-29.133,18.408-43.957,27.189-14.784,8.756-29.781,17.211-45.047,25.1-7.618,3.936-15.367,7.6-23.048,11.411Q633.8,929.413,627.98,932.11Z" fill="#d7dce0" style="mix-blend-mode: multiply;isolation: isolate"/>
      <path id="Trazado_133466" data-name="Trazado 133466" d="M763.667,773.157c.317,4.4,2.736,7.227,5.635,10.385,2.021,2.2,5.563,4.4,6.586,7.12,1.225,3.26,1.294,7.275,2.23,10.681a89.133,89.133,0,0,0,4.031,11.244c.753,1.771,3.026,2.706,4.8,2.755a5.093,5.093,0,0,0,3.932-1.629,5.557,5.557,0,0,0,1.431-5.411,60.365,60.365,0,0,1-2.12-13.825c-.091-3.964.461-7.983-1.567-11.613-1.791-3.2-5.1-5.69-7.832-8.03-3.649-3.122-7.227-6.531-12.254-6.552C766.046,768.271,763.477,770.528,763.667,773.157Z" fill="#d7dce0" style="mix-blend-mode: multiply;isolation: isolate"/>
      <path id="Trazado_133467" data-name="Trazado 133467" d="M764.341,712.177a5.466,5.466,0,0,0,8.466-1.091c2.889-4.344,8.172-10.683,5.242-16a5.223,5.223,0,0,0-5.792-2.357l-.38.1a5,5,0,0,0-3.545,4.368c-.694,1.139-1.387,2.277-2.063,3.424a28.844,28.844,0,0,0-3.337-1.646c-2.385-.986-4.841-2.427-7.476-2.021a.423.423,0,0,0-.31.406c-.068,2.562,1.673,4.823,2.9,6.967A35.761,35.761,0,0,0,764.341,712.177Z" fill="#d7dce0" style="mix-blend-mode: multiply;isolation: isolate"/>
      <path id="Trazado_133468" data-name="Trazado 133468" d="M853.874,1043.405c-.17,4.863,4.451,10.315,8.429,12.745,9.868,6.025,21.2,8.66,32.214,4.332a138.979,138.979,0,0,0,27.8-14.213c1.854-1.271,3.982-2.707,6.107-4.305a76,76,0,0,0,19.672-16.61c5.854-7.018,7.708-16.358,2.8-24.488-4.391-7.265-15.112-12.611-22.88-7.231a3.393,3.393,0,0,0-1.392,2.219c-4.36,2.567-6.411,9.66-1.959,13.1a10.345,10.345,0,0,1,3.631,4.414,16.18,16.18,0,0,1-5.957,3.709,22.332,22.332,0,0,1-19.355-1.689,7.03,7.03,0,0,0-1.3-.584c-.139-.835-.3-1.666-.495-2.485-.793-3.269-4.256-3.944-6.925-2.818-4.019,1.7-8.018,4.6-7.73,9.431a1.741,1.741,0,0,0,1.153,1.584,18.194,18.194,0,0,0-2.039,1.322,15.117,15.117,0,0,0-6.094,9.434c-.686,3.738-.211,7.193-3.566,9.766-.315.061-.63.106-.946.138-4.273-.554-8.647-2.283-10.919-5.836-3.7-5.778-14.275-2.178-11.649,4.911A27.624,27.624,0,0,0,853.874,1043.405Z" fill="#d7dce0" style="mix-blend-mode: multiply;isolation: isolate"/>
      <path id="Trazado_133469" data-name="Trazado 133469" d="M877.794,758.631c2.46,1.18,4.89,2.41,4.89,6.2,0,4.22-3.98,8.61,1.52,14.1,2.68,2.69,7.49,3.6,12.09.45a15.33,15.33,0,0,0,6.82-12.19c0-17.33-11.06-8.15-13.61-22.69-7.95-1.39-16.82,3.75-16.82,7.96C872.684,756.281,875.254,757.431,877.794,758.631Z" fill="#3a3a3a"/>
      <path id="Trazado_133470" data-name="Trazado 133470" d="M870,1029.141c.01.59.01,1.19.02,1.79a4.045,4.045,0,0,0,1,2.61,4.026,4.026,0,0,0,6.69-.99,1.048,1.048,0,0,0,.04-.1c6.93-15.4,14.2-35.6,14.78-56.86.07-2.49.05-4.98-.08-7.49-.98-19.76,1.37-37.18,5.57-51.33l.18.05c3.26,17.58,6.51,34.4,9.28,50.13,2.48,14.08,4.56,27.29,5.92,39.37.04.42.1.85.14,1.27a5.423,5.423,0,0,0,5.14,4.81,5.489,5.489,0,0,0,4.91-2.62,5.249,5.249,0,0,0,.65-1.68c3.5-17,3.08-34.83,1.65-51.77-1.92-22.67-5.67-43.76-4.31-59.17,1.08-13.02,2.24-15.71-1.17-24.43-6.13,7.47-14.21,18.13-34.95,16.48a36.507,36.507,0,0,1-19.22-7.62c1.54,37.93,2.56,71.03,3.2,107.33C869.674,1001.811,869.864,1015.1,870,1029.141Z" fill="#3a3a3a"/>
      <path id="Trazado_133471" data-name="Trazado 133471" d="M663.724,852.791c4.7-2.72,8.52-9.32,8.52-14.75s-3.82-7.64-8.52-4.92-8.52,9.32-8.52,14.75S659.024,855.5,663.724,852.791Z" fill="#3a3a3a"/>
      <path id="Trazado_133472" data-name="Trazado 133472" d="M663.724,809.311c4.7-2.72,8.52-9.32,8.52-14.76s-3.82-7.63-8.52-4.91-8.52,9.32-8.52,14.75S659.024,812.021,663.724,809.311Z" fill="#3a3a3a"/>
      <path id="Trazado_133473" data-name="Trazado 133473" d="M663.724,765.821c4.7-2.71,8.52-9.32,8.52-14.75s-3.82-7.63-8.52-4.92-8.52,9.32-8.52,14.76S659.024,768.541,663.724,765.821Z" fill="#3a3a3a"/>
      <path id="Trazado_133474" data-name="Trazado 133474" d="M663.724,722.341c4.7-2.71,8.52-9.32,8.52-14.75s-3.82-7.64-8.52-4.92-8.52,9.32-8.52,14.75S659.024,725.061,663.724,722.341Z" fill="#3a3a3a"/>
      <path id="Trazado_133475" data-name="Trazado 133475" d="M773.9,666.541a73.683,73.683,0,0,1,26.22-25.01q16.77-9.675,26.02-5.65c.15.06.3.13.44.2l-17.56-8.52c-.16-.07-.32-.15-.48-.22q-7.35-3.2-19.45,2.26-3.12,1.41-6.57,3.4a73.6,73.6,0,0,0-26.22,25.01,62.282,62.282,0,0,0-9.77,32.97l17.6,8.54A62.406,62.406,0,0,1,773.9,666.541Z" fill="#fef536"/>
      <path id="Trazado_133476" data-name="Trazado 133476" d="M771.724,751.241a23.487,23.487,0,0,0-3.6,12.14c0,4,1.18,6.63,3.52,7.89.07.03.14.07.2.1l17.25,8.35a1.193,1.193,0,0,0,.16.08q-3.525-1.875-3.52-7.89c0-4.07,19.34-23.99,21.69-22.94l-16.55-8.02-.07.04-2.78,1.6-4.16-2.02a19.07,19.07,0,0,0-2.92,1.39A25.481,25.481,0,0,0,771.724,751.241Z" fill="#fef536"/>
      <path id="Trazado_133477" data-name="Trazado 133477" d="M788.054,739.951a75.166,75.166,0,0,1,2.66-19.3q2.685-9.135,9.85-20.63t9.53-17.48a30.415,30.415,0,0,0,2.37-11.12q0-15.45-12.34-8.33a25.058,25.058,0,0,0-9.37,9.57,28.385,28.385,0,0,0-3.68,13.61l-1.44.83c-.83,1.39-1.72,2.84-2.68,4.38q-7.155,11.5-9.84,20.64a78.127,78.127,0,0,0-2.69,21.94l13.44,6.51A9.109,9.109,0,0,1,788.054,739.951Z" fill="#fef536"/>
      <path id="Trazado_133478" data-name="Trazado 133478" d="M764.133,702.021c.046,0,.089-.016.135-.019a2.92,2.92,0,0,1-.3,0C764.026,702,764.079,702.021,764.133,702.021Z" fill="#3a3a3a"/>
      <path id="Trazado_133479" data-name="Trazado 133479" d="M827.722,633.855c-.047-.023-1.1,2.246-1.1,2.246l-1.118,2.236c4.919,2.379,7.4,8.654,7.4,18.664a47.576,47.576,0,0,1-2.872,15.59c-1.933,5.565-5.4,12.61-10.306,20.93l-6.4,10.744c-4.186,7.057-6.619,14-7.236,20.741l-.237,4.407-15.108,8.726c.107.046.22.074.325.124l.8.389-.751-.367a.239.239,0,0,0,.049.035c-.025-.014-.046-.031-.071-.044a1.093,1.093,0,0,0-.393-.111c0-.036-.041-.053-.082-.064a8.6,8.6,0,0,0-2.266-.633,9,9,0,0,1,2.267.623,70.472,70.472,0,0,1,2.5-16.735c1.722-5.859,4.942-12.592,9.573-20.014,4.9-7.869,8.084-13.718,9.734-17.883a33.054,33.054,0,0,0,2.544-12.038c0-6.386-1.5-10.357-4.594-12.141a7.214,7.214,0,0,0-3.676-.953c-2.231,0-4.82.864-7.819,2.6a27.632,27.632,0,0,0-10.295,10.5A30.717,30.717,0,0,0,784.708,684a2.5,2.5,0,0,0-.5.593l-.394.67-16.973,9.8a60.514,60.514,0,0,1,9.185-27.207A71.539,71.539,0,0,1,801.374,643.7c10.411-6.007,18.411-7.865,23.847-5.492.076.03.151.067.222.1s1.181-2.205,1.181-2.205l1.051-2.269-17.649-8.562-.485-.222c-4.783-2.08-10.81-1.794-17.946.831V578.491a2.5,2.5,0,0,0-3.75-2.165l-172.091,99.36a2.5,2.5,0,0,0-1.25,2.165V939.03a2.5,2.5,0,0,0,3.75,2.165l172.091-99.359a2.5,2.5,0,0,0,1.25-2.165V782.954a8.284,8.284,0,0,1-3.236-.806l-.272-.129c-.035-.016-.064-.039-.1-.056,0,0,.017.008.054.021a.59.59,0,0,0,.1.048.379.379,0,0,1-.064-.024c-.057-.028-.028-.005.007.011l.254.12c-.039-.02-.078-.052-.123-.078.045.026.084.058.131.081a8.278,8.278,0,0,0,3.246.812c.158.008.314.025.475.025a15.794,15.794,0,0,0,7.723-2.462,28.006,28.006,0,0,0,10.193-10.173,25.845,25.845,0,0,0,3.868-13.233c0-5.02-1.643-8.441-4.883-10.17-.081-.045-.165-.087-.262-.133a2.494,2.494,0,0,1,1.179,3.26,2.5,2.5,0,0,0-1.223-3.276c-.043-.025-12.459-6.037-12.459-6.037l-.053.03.053-.03,13.319-7.689a2.5,2.5,0,0,0,1.246-2.031l.3-5.665c.542-5.9,2.746-12.14,6.548-18.55l6.406-10.75c5.078-8.614,8.687-15.962,10.727-21.835A52.539,52.539,0,0,0,837.905,657C837.905,644.916,834.478,637.129,827.722,633.855ZM788.449,742.6a3.918,3.918,0,0,0-.717-.168A3.918,3.918,0,0,1,788.449,742.6Zm.624.256c-.027-.015-.149-.074-.149-.074l0,0-.044-.022.048.024.13.063Zm3.811-.475a2.5,2.5,0,0,1-.892.809l.086-.05-.128.073A2.558,2.558,0,0,0,792.884,742.379Zm.045-68.486a22.706,22.706,0,0,1,8.447-8.638c2.967-1.716,5.333-2.312,6.5-1.644.629.363,2.092,1.851,2.092,7.81a28.108,28.108,0,0,1-2.194,10.2c-1.515,3.827-4.653,9.573-9.327,17.077-4.869,7.8-8.277,14.954-10.128,21.251a75.128,75.128,0,0,0-2.676,17.59,12.82,12.82,0,0,0-1.575.355L772.935,732.5a73.82,73.82,0,0,1,2.578-19.673c1.718-5.846,4.937-12.584,9.563-20.023.841-1.35,1.62-2.621,2.363-3.856l.884-.51a2.5,2.5,0,0,0,1.251-2.111A25.73,25.73,0,0,1,792.929,673.893Zm14.616-44.261,6.705,3.25a56.479,56.479,0,0,0-15.376,6.484,76.479,76.479,0,0,0-27.091,25.852,65.34,65.34,0,0,0-9.989,30.388l-12.726-6.175a60.187,60.187,0,0,1,9.359-30.1,71.442,71.442,0,0,1,25.349-24.167c2.191-1.267,4.327-2.373,6.346-3.285C797.48,628.562,803.342,627.806,807.545,629.632Zm-20.95,208.595L619.5,934.7V679.294l167.091-96.473v45.191c-1.725.831-3.507,1.775-5.321,2.824a76.379,76.379,0,0,0-27.091,25.852,65.033,65.033,0,0,0-10.149,34.271,2.5,2.5,0,0,0,1.409,2.271l17.6,8.54a2.387,2.387,0,0,0,.3.1c.061.021.12.049.182.065a2.323,2.323,0,0,0,.446.06,2.92,2.92,0,0,0,.3,0,2.508,2.508,0,0,0,.526-.073,2.283,2.283,0,0,0,.246-.1,2.46,2.46,0,0,0,.345-.142l13.082-7.556a82.031,82.031,0,0,0-7.75,17.283,80.928,80.928,0,0,0-2.792,22.649,2.5,2.5,0,0,0,1.41,2.25l8.97,4.348a28.386,28.386,0,0,0-8.727,9.3,26.035,26.035,0,0,0-3.954,13.421c0,4.969,1.627,8.364,4.835,10.091a1.622,1.622,0,0,0,.162.08c.023.013.111.058.134.069l15.84,7.667Zm3.669-60.712c.017.011.056.041.117.076s.107.062.157.1c-.051-.037-.108-.067-.162-.1a2.575,2.575,0,0,0-.247-.135h0a2.568,2.568,0,0,1,.236.128c-.046-.027-.088-.059-.136-.084l-.071-.031.071.031Zm-1.581-.248c-.038.007-.068.015-.1.023.023-.005.044-.015.067-.019a2.95,2.95,0,0,1,.448-.045A2.542,2.542,0,0,0,788.683,777.267Zm1.012.041a2.4,2.4,0,0,1,.407.135l.026.011A2.51,2.51,0,0,0,789.7,777.308Zm-3.1,2.435v-.028a2.5,2.5,0,0,0,.892,1.916A2.5,2.5,0,0,1,786.6,779.743ZM805.682,767.8a23.054,23.054,0,0,1-8.388,8.387c-2.037,1.176-4.862,2.384-6.744,1.467l.008.005c-.034-.015-.06-.022-.081-.032.024.011.049.015.072.027,0,0-.146-.073-.12-.059l-.085-.042.024.011c-.531-.285-2.134-1.2-2.134-5.652a20.884,20.884,0,0,1,3.237-10.859,23.209,23.209,0,0,1,8.323-8.4c2.823-1.628,5.048-2.1,6.609-1.4l-6.124-2.968,6.126,2.969c.02.009.041.012.061.02s.07.038.1.053a2.526,2.526,0,0,0,1.037.225,2.493,2.493,0,0,1-1.016-.216c.569.3,2.267,1.2,2.267,5.776A20.647,20.647,0,0,1,805.682,767.8Zm-6.92-20.25.606.293-.606-.293c-.482.235-.969.489-1.465.775a28.132,28.132,0,0,0-10.12,10.167,26.082,26.082,0,0,0-3.943,13.42,19.288,19.288,0,0,0,.142,2.264l-10.436-5.052c-.052-.028-.107-.055-.162-.082-1.429-.8-2.154-2.709-2.154-5.66a21.139,21.139,0,0,1,3.248-10.861,23.142,23.142,0,0,1,8.325-8.4,17.546,17.546,0,0,1,1.59-.809l3.145,1.524a2.536,2.536,0,0,0,.306.108c.062.02.122.049.184.064a2.514,2.514,0,0,0,.6.079,2.657,2.657,0,0,0,.661-.092,2.291,2.291,0,0,0,.219-.09,2.482,2.482,0,0,0,.367-.151l1.7-.984-.624-.3c-.034-.052-.085-.053-.135-.065.05.012.1.013.151.022a3.609,3.609,0,0,0,.608.346Zm-3.045-6.512.152-.088Zm-.694.4.43-.248Z" fill="#3a3a3a"/>
      <path id="Trazado_133480" data-name="Trazado 133480" d="M806.493,751.291a.646.646,0,0,0-.09-.039l.163.074Z" fill="#3a3a3a"/>
      <path id="Trazado_133481" data-name="Trazado 133481" d="M670.993,699.907c-2.383-1.375-5.488-1.155-8.521.6-5.477,3.17-9.768,10.6-9.768,16.914,0,3.51,1.367,6.312,3.749,7.686A6.84,6.84,0,0,0,659.9,726a10.218,10.218,0,0,0,5.069-1.493c5.479-3.159,9.771-10.59,9.771-16.916C674.744,704.083,673.377,701.282,670.993,699.907Zm-8.521,20.27c-1.446.838-2.73,1.056-3.521.6s-1.247-1.68-1.247-3.355c0-4.541,3.33-10.3,7.272-12.586a5.324,5.324,0,0,1,2.542-.831,1.946,1.946,0,0,1,.977.234c.794.458,1.249,1.68,1.249,3.353C669.744,712.141,666.416,717.9,662.472,720.177Z" fill="#3a3a3a"/>
      <path id="Trazado_133482" data-name="Trazado 133482" d="M687.487,701.291a2.49,2.49,0,0,0,1.247-.335l56.49-32.61a2.5,2.5,0,0,0-2.5-4.33l-56.49,32.61a2.5,2.5,0,0,0,1.253,4.665Z" fill="#3a3a3a"/>
      <path id="Trazado_133483" data-name="Trazado 133483" d="M671,743.4c-2.381-1.375-5.488-1.161-8.527.592-5.477,3.17-9.768,10.6-9.768,16.924,0,3.505,1.366,6.3,3.747,7.676a6.842,6.842,0,0,0,3.451.893,10.222,10.222,0,0,0,5.071-1.493c5.479-3.159,9.771-10.59,9.771-16.916C674.744,747.568,673.38,744.77,671,743.4Zm-8.527,20.262c-1.446.837-2.731,1.055-3.523.6s-1.245-1.675-1.245-3.344c0-4.547,3.33-10.315,7.269-12.594a5.347,5.347,0,0,1,2.543-.829,1.94,1.94,0,0,1,.982.236c.792.457,1.246,1.677,1.246,3.347C669.744,755.621,666.416,761.383,662.472,763.657Z" fill="#3a3a3a"/>
      <path id="Trazado_133484" data-name="Trazado 133484" d="M742.724,707.5l-56.49,32.61a2.5,2.5,0,1,0,2.5,4.33l56.49-32.61a2.5,2.5,0,0,0-2.5-4.33Z" fill="#3a3a3a"/>
      <path id="Trazado_133485" data-name="Trazado 133485" d="M671,786.874c-2.382-1.373-5.489-1.153-8.521.6-5.48,3.159-9.772,10.59-9.772,16.916,0,3.5,1.365,6.3,3.745,7.676a6.845,6.845,0,0,0,3.458.9,10.243,10.243,0,0,0,5.069-1.488c5.478-3.17,9.768-10.6,9.768-16.924C674.744,791.046,673.379,788.248,671,786.874Zm-8.521,20.271c-1.447.834-2.733,1.049-3.526.592s-1.246-1.677-1.246-3.346c0-4.55,3.329-10.313,7.273-12.587a5.343,5.343,0,0,1,2.546-.832,1.93,1.93,0,0,1,.976.234c.792.456,1.245,1.675,1.245,3.345C669.744,799.1,666.414,804.866,662.476,807.145Z" fill="#3a3a3a"/>
      <path id="Trazado_133486" data-name="Trazado 133486" d="M742.724,750.976l-56.49,32.61a2.5,2.5,0,1,0,2.5,4.33l56.49-32.61a2.5,2.5,0,0,0-2.5-4.33Z" fill="#3a3a3a"/>
      <path id="Trazado_133487" data-name="Trazado 133487" d="M670.995,830.355c-2.382-1.374-5.488-1.155-8.519.6-5.48,3.159-9.772,10.59-9.772,16.916,0,3.5,1.365,6.3,3.745,7.676a6.845,6.845,0,0,0,3.458.9,10.243,10.243,0,0,0,5.069-1.488c5.478-3.17,9.768-10.6,9.768-16.914C674.744,834.53,673.378,831.729,670.995,830.355Zm-8.519,20.27c-1.447.834-2.733,1.049-3.526.592s-1.246-1.677-1.246-3.346c0-4.55,3.329-10.313,7.273-12.587a5.343,5.343,0,0,1,2.545-.832,1.926,1.926,0,0,1,.975.234c.793.457,1.247,1.68,1.247,3.355C669.744,842.582,666.414,848.346,662.476,850.625Z" fill="#3a3a3a"/>
      <path id="Trazado_133488" data-name="Trazado 133488" d="M742.724,794.456l-56.49,32.62a2.5,2.5,0,1,0,2.5,4.33l56.49-32.62a2.5,2.5,0,0,0-2.5-4.33Z" fill="#3a3a3a"/>
      <path id="Trazado_133489" data-name="Trazado 133489" d="M866.234,879.091a2.535,2.535,0,0,1,1.513.5c.312.235.63.443.945.666-.145-3.558-.3-7.152-.453-10.8L868.1,866.3c-.148-7.985-.032-20.428.094-29.637l-.132.322c-.014.04-.029.08-.044.12l-4.958,12.246c-.043,6.184-.045,12.386.043,17.1l.136,3.209q.258,6.04.5,11.906A2.5,2.5,0,0,1,866.234,879.091Z" fill="#3a3a3a"/>
      <path id="Trazado_133490" data-name="Trazado 133490" d="M870.915,1026.812a2.5,2.5,0,0,1,1.589,2.26c-.135-13.46-.317-26.608-.56-40.2-.589-33.422-1.522-65.243-3.006-102.5a45.852,45.852,0,0,1-4.133-2.743,2.5,2.5,0,0,1-1.062-2.014l0,.07c1.6,39.349,2.585,72.433,3.2,107.273.219,12.262.387,24.179.517,36.292l.553.254C869,1025.966,869.971,1026.412,870.915,1026.812Z" fill="#3a3a3a"/>
      <path id="Trazado_133491" data-name="Trazado 133491" d="M897.748,914.363a2.5,2.5,0,0,1,2.914,2c.013.067.025.133.038.2.575-1.914,1.2-3.833,1.893-5.717,1.729-4.733,3.387-9.352,4.657-13.837a2.5,2.5,0,1,0-4.811-1.362c-1.223,4.319-2.846,8.842-4.542,13.482-.835,2.283-1.6,4.615-2.274,6.931-.009.033-.018.066-.026.1-4.607,15.572-6.557,33.573-5.639,52.069.123,2.38.148,4.764.077,7.293-.46,16.867-5.223,35.152-14.561,55.9-.02.045-.038.09-.055.135a1.527,1.527,0,0,1-2.51.341,1.561,1.561,0,0,1-.385-1.01l-.019-1.708a2.494,2.494,0,0,1-2.491,2.459,2.547,2.547,0,0,1-.982-.2c-.5-.209-1-.432-1.51-.661l0,.174a6.526,6.526,0,0,0,5.6,6.388,6.381,6.381,0,0,0,.932.068,6.5,6.5,0,0,0,2.953-.727,4.17,4.17,0,0,0-1.091-2.565,2.5,2.5,0,0,1,3.739-3.32,9.5,9.5,0,0,1,.977,1.316c9.214-20.807,13.934-39.291,14.4-56.456.075-2.661.048-5.176-.082-7.684a160.679,160.679,0,0,1,2.824-39.836c-.674-3.591-1.35-7.205-2.029-10.865A2.5,2.5,0,0,1,897.748,914.363Z" fill="#3a3a3a"/>
      <path id="Trazado_133492" data-name="Trazado 133492" d="M904.658,788.315a4.4,4.4,0,0,1-.086.487,14.664,14.664,0,0,1-.4,1.643c8.086-1.433,13.856-.331,17.162,3.287,2.8,3.062,6.568,11.238.366,31.592-.116.381-.2.669-.252.847-7.627,27.422-5.09,41.6-3.832,46.033l.342-.417.526-.642a2.5,2.5,0,1,1,3.865,3.172l-.521.636c-.734.9-1.515,1.851-2.358,2.829,1.06,4.056.771,7.073.175,13.19-.17,1.737-.361,3.7-.549,5.969-.961,10.886.58,24.629,2.211,39.178.741,6.6,1.506,13.435,2.1,20.422,1.206,14.28,2.112,32.987-1.612,51.077a2.714,2.714,0,0,1-.332.863,3.041,3.041,0,0,1-2.661,1.422,2.923,2.923,0,0,1-2.765-2.549c-.022-.228-.048-.458-.076-.689-.022-.2-.046-.389-.068-.624-1.233-10.943-3.121-23.5-5.943-39.524-1.87-10.619-3.934-21.6-6.118-33.229q-1.547-8.232-3.128-16.722c-.08.265-.169.53-.247.794-.009.041-.02.082-.032.122-1.02,3.434-1.9,7-2.646,10.659.381,2.031.762,4.063,1.139,6.07,2.182,11.613,4.243,22.582,6.108,33.173,2.467,14,4.213,25.332,5.426,35.205,1.009.346,2,.711,2.954,1.065l.865.32a2.5,2.5,0,0,1-1.725,4.693l-.876-.324-.565-.208a7.973,7.973,0,0,0,7.485,6.764c.106,0,.211.005.317.005a7.99,7.99,0,0,0,4.176-1.19,4.364,4.364,0,0,0-1.224-2.138,2.5,2.5,0,0,1,3.479-3.591,9.721,9.721,0,0,1,1.167,1.367,7.3,7.3,0,0,0,.192-.747c3.849-18.7,2.926-37.87,1.693-52.485-.6-7.056-1.368-13.92-2.112-20.557-1.6-14.294-3.116-27.795-2.2-38.2.187-2.252.377-4.194.544-5.91.819-8.4,1.158-11.877-1.884-19.657-.212-.529-5.085-13.319,3.529-44.293.043-.155.118-.4.217-.726,6.577-21.588,2.838-31.722-1.458-36.422-4.567-5-11.95-6.6-21.938-4.794a5.576,5.576,0,0,0,.5.4A2.5,2.5,0,0,1,904.658,788.315Z" fill="#3a3a3a"/>
      <path id="Trazado_133493" data-name="Trazado 133493" d="M900.453,917.36c.078-.264.167-.529.247-.794-.013-.068-.025-.134-.038-.2a2.5,2.5,0,0,0-4.916.911c.679,3.66,1.355,7.274,2.029,10.865.748-3.661,1.626-7.225,2.646-10.659C900.433,917.442,900.444,917.4,900.453,917.36Z" fill="#3a3a3a"/>
      <path id="Trazado_133494" data-name="Trazado 133494" d="M885.66,886.718a33.71,33.71,0,0,1-16.968-6.46c.016.41.034.825.05,1.233.067,1.646.131,3.265.2,4.889a37.635,37.635,0,0,0,16.328,5.323c1.5.119,2.933.176,4.314.176,15.983,0,24.31-7.615,29.888-14.1a37.241,37.241,0,0,0-1.382-4.141,15.054,15.054,0,0,1-.472-1.437C911.68,879.449,904.146,888.187,885.66,886.718Z" fill="#3a3a3a"/>
      <path id="Trazado_133495" data-name="Trazado 133495" d="M864.8,883.637a45.852,45.852,0,0,0,4.133,2.743c-.065-1.624-.129-3.243-.2-4.889-.016-.408-.034-.823-.05-1.233-.315-.223-.633-.431-.945-.666a2.535,2.535,0,0,0-1.513-.5,2.5,2.5,0,0,0-2.493,2.481l0,.051A2.5,2.5,0,0,0,864.8,883.637Z" fill="#3a3a3a"/>
      <path id="Trazado_133496" data-name="Trazado 133496" d="M919.468,877.782c.843-.978,1.624-1.932,2.358-2.829l.521-.636a2.5,2.5,0,1,0-3.865-3.172l-.526.642-.342.417a15.054,15.054,0,0,0,.472,1.437A37.241,37.241,0,0,1,919.468,877.782Z" fill="#3a3a3a"/>
      <path id="Trazado_133497" data-name="Trazado 133497" d="M895.163,782.84a23,23,0,0,0,4.239,6.133,10.178,10.178,0,0,1-10.168,7.388,14.046,14.046,0,0,1-5.245-.921c-.22.718-.444,1.409-.693,2.1a2.5,2.5,0,0,1-3.7,1.256,17.487,17.487,0,0,0,9.639,2.566,15.209,15.209,0,0,0,14.936-10.916c-.5.089-1.007.185-1.525.293a2.5,2.5,0,1,1-1.021-4.895c.495-.1.978-.19,1.461-.278a18.116,18.116,0,0,1-3.682-5.428,17.962,17.962,0,0,1-1.7,1.311A14.633,14.633,0,0,1,895.163,782.84Z" fill="#3a3a3a"/>
      <path id="Trazado_133498" data-name="Trazado 133498" d="M899.687,788.8a2.5,2.5,0,0,0,2.958,1.937c.518-.108,1.025-.2,1.525-.293a14.664,14.664,0,0,0,.4-1.643,4.4,4.4,0,0,0,.086-.487,2.5,2.5,0,0,0-1.069-2.345,5.576,5.576,0,0,1-.5-.4c-.483.088-.966.175-1.461.278A2.5,2.5,0,0,0,899.687,788.8Z" fill="#3a3a3a"/>
      <path id="Trazado_133499" data-name="Trazado 133499" d="M878.885,798.107l-.171.054c.285.221.574.436.874.629A2.49,2.49,0,0,1,878.885,798.107Z" fill="#3a3a3a"/>
      <path id="Trazado_133500" data-name="Trazado 133500" d="M884,793.708a2.478,2.478,0,0,1-.027,1.726.5.5,0,0,0,.078-.163,61.817,61.817,0,0,0,1.625-6.661,8.655,8.655,0,0,0-1.378-6.456,10.294,10.294,0,0,1-1.863-1.459c-.394-.393-.735-.783-1.054-1.171a8.522,8.522,0,0,0-.964-.456,7.919,7.919,0,0,1-5.191-7.937,16.208,16.208,0,0,1,3.2-9.349c-.464-.281-1.023-.567-1.711-.9l-.11-.052a21.128,21.128,0,0,1-2.624-1.4,21.355,21.355,0,0,0-3.755,11.7,12.973,12.973,0,0,0,8.384,12.6,3.557,3.557,0,0,1,2.147,3.978c-.295,1.606-.676,3.222-1.145,4.9.4-.136.783-.263,1.192-.41A2.5,2.5,0,0,1,884,793.708Z" fill="#3a3a3a"/>
      <path id="Trazado_133501" data-name="Trazado 133501" d="M882.487,796.9c-.831.3-1.642.575-2.421.831-.039.014-.079.025-.118.037-.366.12-.707.222-1.063.335a2.5,2.5,0,0,0,4.411-.568c.249-.69.473-1.381.678-2.055A2.55,2.55,0,0,1,882.487,796.9Z" fill="#3a3a3a"/>
      <path id="Trazado_133502" data-name="Trazado 133502" d="M870.184,752.461a7.78,7.78,0,0,0,3.795,6.97,19.59,19.59,0,0,1,2.007-2.526,2.5,2.5,0,1,1,3.617,3.452,14.674,14.674,0,0,0-1.179,1.425,3.068,3.068,0,0,1,1.76,3.049,12.835,12.835,0,0,1-.58,3.051c-.819,3.062-1.9,7.165,1.775,11.642a8.432,8.432,0,0,1,2.917,2.63,11.4,11.4,0,0,0,6.016,1.712,12.352,12.352,0,0,0,4.851-1.026c-.393-.772-.78-1.587-1.161-2.46a2.5,2.5,0,0,1,4.584-2c.27.62.543,1.2.817,1.755a17.681,17.681,0,0,0,6.212-12.946c0-9.963-3.383-12.568-7.8-14.939-2.718-1.457-4.865-2.608-5.843-8.184a2.5,2.5,0,0,0-2.032-2.03,21.11,21.11,0,0,0-16.327,4.317C871.368,748.237,870.184,750.348,870.184,752.461Zm6.64-2.278a16.488,16.488,0,0,1,9.967-3.412q.322,0,.645.015c1.639,6.456,5.147,8.337,8.012,9.873,3,1.608,5.167,2.77,5.167,10.532a12.745,12.745,0,0,1-5.721,10.119c-3.606,2.468-7.075,1.707-8.924-.149-2.9-2.894-2.327-5.03-1.536-7.987a16.622,16.622,0,0,0,.75-4.343c0-5.429-3.8-7.249-6.322-8.46l-.125-.059c-2.685-1.268-3.553-1.847-3.553-3.851C875.184,752.127,875.53,751.271,876.824,750.183Z" fill="#3a3a3a"/>
      <path id="Trazado_133503" data-name="Trazado 133503" d="M895.3,777.089A2.5,2.5,0,0,0,894,780.38c.381.873.768,1.688,1.161,2.46a14.633,14.633,0,0,0,2.537-1.392,17.962,17.962,0,0,0,1.7-1.311c-.274-.558-.547-1.135-.817-1.755A2.5,2.5,0,0,0,895.3,777.089Z" fill="#3a3a3a"/>
      <path id="Trazado_133504" data-name="Trazado 133504" d="M884.3,782.154a8.432,8.432,0,0,0-2.917-2.63c.319.388.66.778,1.054,1.171A10.294,10.294,0,0,0,884.3,782.154Z" fill="#3a3a3a"/>
      <path id="Trazado_133505" data-name="Trazado 133505" d="M876.713,760.885c.688.33,1.247.616,1.711.9a14.674,14.674,0,0,1,1.179-1.425,2.5,2.5,0,1,0-3.617-3.452,19.59,19.59,0,0,0-2.007,2.526,21.128,21.128,0,0,0,2.624,1.4Z" fill="#3a3a3a"/>
      <path id="Trazado_133506" data-name="Trazado 133506" d="M872.5,1029.072v.11A.853.853,0,0,0,872.5,1029.072Z" fill="#3a3a3a"/>
      <path id="Trazado_133507" data-name="Trazado 133507" d="M880.027,1033.5c-.011.026-.022.052-.034.078a6.5,6.5,0,0,1-2.987,3.107c.005.081.008.161.008.235a3.484,3.484,0,0,1-3.55,3.64c-5.867,0-14.312-9.264-16.419-13.665,2.789.355,5.879,1.777,8.881,3.158.537.247,1.07.492,1.6.729l-.017-1.6c-.013-1.315-.029-2.616-.043-3.926-3.634-1.668-7.693-3.447-11.688-3.447-.364,0-.7.011-1.079.035a2.5,2.5,0,0,0-1.721.847c-.317.362-.611.724-.906,1.109a2.511,2.511,0,0,0-.514,1.54c.054,6.182,12.8,20.219,21.91,20.219a8.5,8.5,0,0,0,8.55-8.64,9.13,9.13,0,0,0-1.383-4.8c-.191.433-.373.86-.568,1.3C880.051,1033.443,880.039,1033.473,880.027,1033.5Z" fill="#3a3a3a"/>
      <path id="Trazado_133508" data-name="Trazado 133508" d="M876.124,1030.592a2.5,2.5,0,0,0-.209,3.529,4.17,4.17,0,0,1,1.091,2.565,6.5,6.5,0,0,0,2.987-3.107c.012-.026.023-.052.034-.078s.024-.058.036-.089c.2-.435.377-.862.568-1.3a9.5,9.5,0,0,0-.977-1.316A2.5,2.5,0,0,0,876.124,1030.592Z" fill="#3a3a3a"/>
      <path id="Trazado_133509" data-name="Trazado 133509" d="M867.522,1030.783c.51.229,1.014.452,1.51.661a2.547,2.547,0,0,0,.982.2,2.494,2.494,0,0,0,2.491-2.459v-.066a2.515,2.515,0,0,0-1.589-2.3c-.944-.4-1.913-.846-2.9-1.3l-.553-.254c.014,1.31.03,2.611.043,3.926Z" fill="#3a3a3a"/>
      <path id="Trazado_133510" data-name="Trazado 133510" d="M923.079,1013.714a3.77,3.77,0,0,1,.1.574,3.5,3.5,0,0,1-3.281,3.91c-5.838.45-14.951-8.115-17.412-12.346a31.276,31.276,0,0,1,8.613,2.283c-.013-.091-.032-.18-.042-.272-.022-.227-.045-.421-.068-.617-.027-.23-.053-.461-.075-.688q-.219-1.947-.468-3.969a24.716,24.716,0,0,0-9.676-1.706c-.274.026-.539.06-.815.1l-.163.021a2.5,2.5,0,0,0-1.664.96c-.294.383-.565.756-.836,1.163a2.5,2.5,0,0,0-.409,1.611c.541,5.994,13.646,18.476,22.682,18.476.243,0,.485-.01.722-.028a8.53,8.53,0,0,0,7.878-9.28,9.149,9.149,0,0,0-1.666-4.551,7.807,7.807,0,0,1-.762,1.714A7.969,7.969,0,0,1,923.079,1013.714Z" fill="#3a3a3a"/>
      <path id="Trazado_133511" data-name="Trazado 133511" d="M910.991,1007.246c.023.2.046.39.068.617.01.092.029.181.042.272l.565.208.876.324a2.5,2.5,0,0,0,1.725-4.693l-.865-.32c-.957-.354-1.945-.719-2.954-1.065q.247,2.023.468,3.969C910.938,1006.785,910.964,1007.016,910.991,1007.246Z" fill="#3a3a3a"/>
      <path id="Trazado_133512" data-name="Trazado 133512" d="M921.8,1008.041a2.5,2.5,0,0,0,.056,3.535,4.364,4.364,0,0,1,1.224,2.138,7.969,7.969,0,0,0,2.66-2.648,7.807,7.807,0,0,0,.762-1.714,9.721,9.721,0,0,0-1.167-1.367A2.5,2.5,0,0,0,921.8,1008.041Z" fill="#3a3a3a"/>
      <path id="Trazado_133513" data-name="Trazado 133513" d="M865.739,833.671a2.5,2.5,0,0,1,2.465,2.534c0,.151,0,.309-.006.462l.812-1.993a2.5,2.5,0,0,0-4.63-1.887l-.991,2.43q-.025.065-.048.129L857.2,850.523a2.542,2.542,0,0,0-.134.446,4.751,4.751,0,0,1-9.408-.958c0-.141.006-.289.019-.433,2.1-23.031,4.249-34.379,7.669-40.47a2.5,2.5,0,0,1-2.176,1.273,2.5,2.5,0,0,1-2.477-2.859l.064-.441c-3.706,6.9-5.908,18.425-8.06,42.053-.027.306-.039.6-.039.877a9.752,9.752,0,0,0,19.258,2.187l1.151-2.843c.032-4.627.085-9.244.141-13.219A2.539,2.539,0,0,1,865.739,833.671Z" fill="#3a3a3a"/>
      <path id="Trazado_133514" data-name="Trazado 133514" d="M870.072,798.784a2.5,2.5,0,0,1-2.5,2.377l-.125,0a2.5,2.5,0,0,1-2.374-2.62,8.116,8.116,0,0,0-.111-1.751,28.729,28.729,0,0,0-8.164,3.436l-1.164,8.017a2.489,2.489,0,0,1-.289.857c2.845-5.043,6.761-6.394,12.868-8.02q.995-.264,2.057-.538c2.5-.648,5.308-1.388,8.44-2.378a13.144,13.144,0,0,1-1.18-1.015,2.5,2.5,0,0,1,2.007-4.272c.026-.091.044-.177.069-.267-.332.114-.675.237-1,.343-.042.012-.083.024-.124.038-3.215,1.064-6.094,1.831-8.683,2.505A12.906,12.906,0,0,1,870.072,798.784Z" fill="#3a3a3a"/>
      <path id="Trazado_133515" data-name="Trazado 133515" d="M868.066,836.989l.132-.322c0-.153,0-.311.006-.462a2.5,2.5,0,0,0-2.465-2.534,2.539,2.539,0,0,0-2.534,2.465c-.056,3.975-.109,8.592-.141,13.219l4.958-12.246C868.037,837.069,868.052,837.029,868.066,836.989Z" fill="#3a3a3a"/>
      <path id="Trazado_133516" data-name="Trazado 133516" d="M877.5,793.611a2.5,2.5,0,0,0,.035,3.535,13.144,13.144,0,0,0,1.18,1.015l.171-.054a2.5,2.5,0,0,1,3.416-3.517,9.824,9.824,0,0,0,1.67.844A2.487,2.487,0,0,0,880.8,792.2c-.409.147-.795.274-1.192.41-.025.09-.043.176-.069.267A2.489,2.489,0,0,0,877.5,793.611Z" fill="#3a3a3a"/>
      <path id="Trazado_133517" data-name="Trazado 133517" d="M880.066,797.735c.779-.256,1.59-.533,2.421-.831a2.477,2.477,0,0,0,1.484-1.47,9.824,9.824,0,0,1-1.67-.844,2.5,2.5,0,0,0-3.416,3.517c.356-.113.7-.215,1.063-.335C879.987,797.76,880.027,797.749,880.066,797.735Z" fill="#3a3a3a"/>
      <path id="Trazado_133518" data-name="Trazado 133518" d="M856.8,800.223l.888-6.115a8.81,8.81,0,0,1,1.847-4.269,16.046,16.046,0,0,0-1.685-.863,2.5,2.5,0,0,1,1.985-4.59,20.249,20.249,0,0,1,2.827,1.5l3.35-4.235a2.5,2.5,0,0,0-3.92-3.1l-6.474,8.183a13.791,13.791,0,0,0-2.88,6.669l-1.986,13.68c.077-.142.152-.285.23-.424A18.064,18.064,0,0,1,856.8,800.223Z" fill="#3a3a3a"/>
      <path id="Trazado_133519" data-name="Trazado 133519" d="M852.8,810.355a2.477,2.477,0,0,0,.362.026,2.5,2.5,0,0,0,2.471-2.141l1.164-8.017a18.064,18.064,0,0,0-5.818,6.434c-.078.139-.153.282-.23.424l-.064.441A2.5,2.5,0,0,0,852.8,810.355Z" fill="#3a3a3a"/>
      <path id="Trazado_133520" data-name="Trazado 133520" d="M864.966,796.787c.641-.183,1.292-.363,1.965-.542s1.369-.36,2.087-.546l.788-.206a15.381,15.381,0,0,0-7.142-9.606l-3.125,3.95C861.581,791.03,864.38,793.276,864.966,796.787Z" fill="#3a3a3a"/>
      <path id="Trazado_133521" data-name="Trazado 133521" d="M866.931,796.245c-.673.179-1.324.359-1.965.542a8.116,8.116,0,0,1,.111,1.751,2.5,2.5,0,0,0,2.374,2.62l.125,0a2.5,2.5,0,0,0,2.5-2.377,12.906,12.906,0,0,0-.266-3.291l-.788.206Q867.941,795.978,866.931,796.245Z" fill="#3a3a3a"/>
      <path id="Trazado_133522" data-name="Trazado 133522" d="M856.55,785.689a2.5,2.5,0,0,0,1.3,3.287,16.044,16.044,0,0,1,1.687.861l3.125-3.95a20.249,20.249,0,0,0-2.827-1.5A2.5,2.5,0,0,0,856.55,785.689Z" fill="#3a3a3a"/>
    </g>
  </g>
</svg>
