<svg xmlns="http://www.w3.org/2000/svg" width="341.641" height="261.979" viewBox="0 0 341.641 261.979">
  <g id="Grupo_139456" data-name="Grupo 139456" transform="translate(-452.869 -552.875)">
    <g id="Grupo_139428" data-name="Grupo 139428" transform="translate(669.82 552.875)">
      <g id="Grupo_139413" data-name="Grupo 139413" transform="translate(0)">
        <path id="Trazado_134240" data-name="Trazado 134240" d="M1592.853,696.975l18-10.393a37.283,37.283,0,0,0,5.159-11.429c-5.274-4.425-9.287-13.56-9.287-21.795a17.831,17.831,0,0,1,1.052-6.313l8.234-4.757a112.39,112.39,0,0,0-5.156-17.376c-4.581.693-11.6-4.906-16.656-13.652s-6.387-17.613-3.5-21.227a110.747,110.747,0,0,0-12.484-13.151l-8.208,4.737a17.891,17.891,0,0,1-6.039-2.253c-7.139-4.121-13.043-12.16-14.244-18.939a37.262,37.262,0,0,0-12.491-1.259l-14.132,8.161a.105.105,0,0,0-.017-.02l-24,13.858a37.366,37.366,0,0,0-5.163,11.422c5.278,4.432,9.294,13.56,9.294,21.795a17.765,17.765,0,0,1-1.056,6.313l-8.234,4.757a112.331,112.331,0,0,0,5.156,17.38c4.578-.694,11.6,4.906,16.656,13.645s6.387,17.617,3.5,21.233a112.356,112.356,0,0,0,12.481,13.154l8.208-4.737a17.812,17.812,0,0,1,6.043,2.25c7.138,4.124,13.049,12.163,14.243,18.943a37.326,37.326,0,0,0,12.491,1.252l20.127-11.618A.057.057,0,0,1,1592.853,696.975Zm-18.489-29.563a30.1,30.1,0,0,1-10.393-3.844c-16.707-9.649-30.25-33.088-30.253-52.359a30.055,30.055,0,0,1,1.861-10.874,26.179,26.179,0,0,1,4.689,1.2.023.023,0,0,1,0-.02c.057.024.115.054.173.074.663.237,1.343.528,2.016.826.23.1.45.176.677.284.934.433,1.878.917,2.835,1.472,16.71,9.646,30.253,33.092,30.256,52.356,0,1.1-.054,2.152-.142,3.17-.027.274-.074.527-.1.795-.078.7-.159,1.4-.278,2.064-.01.064-.017.135-.027.2,0,0-.01-.007-.017-.007A26.523,26.523,0,0,1,1574.363,667.412Z" transform="translate(-1492.624 -557.766)" fill="#64b5f6"/>
        <path id="Trazado_134241" data-name="Trazado 134241" d="M1565.243,705.084a40.635,40.635,0,0,1-10.253-1.4,1.3,1.3,0,0,1-.951-1.032c-1.157-6.565-6.883-14.154-13.614-18.043a17.011,17.011,0,0,0-5.153-2.013l-7.8,4.5a1.3,1.3,0,0,1-1.514-.156,113.859,113.859,0,0,1-12.626-13.306,1.3,1.3,0,0,1-.005-1.627c2.2-2.752,1.676-10.618-3.612-19.773s-11.84-13.53-15.336-13.01a1.3,1.3,0,0,1-1.407-.817,113.9,113.9,0,0,1-5.215-17.581,1.3,1.3,0,0,1,.622-1.39l7.822-4.518a16.958,16.958,0,0,0,.819-5.427c0-7.756-3.713-16.5-8.83-20.8a1.3,1.3,0,0,1-.416-1.34,38.713,38.713,0,0,1,5.347-11.818,1.3,1.3,0,0,1,.418-.384l24-13.858a1.267,1.267,0,0,1,.237-.107l13.912-8.034a1.28,1.28,0,0,1,.543-.169,38.671,38.671,0,0,1,12.927,1.3,1.3,1.3,0,0,1,.949,1.03c1.164,6.572,6.89,14.159,13.614,18.041a17.039,17.039,0,0,0,5.153,2.015l7.795-4.5a1.3,1.3,0,0,1,1.514.154,112.333,112.333,0,0,1,12.631,13.307,1.3,1.3,0,0,1,0,1.626c-2.2,2.752-1.678,10.613,3.612,19.767s11.858,13.509,15.336,13.017a1.3,1.3,0,0,1,1.407.817,113.975,113.975,0,0,1,5.216,17.578,1.3,1.3,0,0,1-.623,1.39l-7.82,4.518a16.914,16.914,0,0,0-.817,5.425c0,7.765,3.71,16.512,8.823,20.8a1.3,1.3,0,0,1,.418,1.338,38.662,38.662,0,0,1-5.346,11.825,1.285,1.285,0,0,1-.418.386l-18,10.393a1.321,1.321,0,0,1-.245.11l-19.9,11.488a1.288,1.288,0,0,1-.543.169Q1566.6,705.084,1565.243,705.084Zm-8.813-3.715a36.037,36.037,0,0,0,10.985,1.039l19.871-11.471a1.26,1.26,0,0,1,.245-.11l17.522-10.116a35.741,35.741,0,0,0,4.591-10.018c-5.318-4.907-9.112-14.086-9.112-22.228a19.182,19.182,0,0,1,1.135-6.77,1.3,1.3,0,0,1,.567-.668l7.416-4.285a111.331,111.331,0,0,0-4.562-15.367c-5.159-.066-11.936-5.758-16.906-14.358s-6.511-17.3-3.987-21.8a109.756,109.756,0,0,0-11.041-11.631l-7.391,4.264a1.312,1.312,0,0,1-.859.157,19.251,19.251,0,0,1-6.479-2.411c-7.052-4.072-13.11-11.946-14.7-19.006a35.807,35.807,0,0,0-10.986-1.045l-13.876,8.013a1.282,1.282,0,0,1-.237.106L1495.1,577.252a35.771,35.771,0,0,0-4.593,10.013c5.32,4.912,9.118,14.091,9.118,22.226a19.186,19.186,0,0,1-1.138,6.772,1.3,1.3,0,0,1-.567.666l-7.416,4.285a111,111,0,0,0,4.562,15.37c5.158.066,11.934,5.755,16.906,14.35s6.509,17.3,3.989,21.805a111.445,111.445,0,0,0,11.036,11.637l7.391-4.265a1.224,1.224,0,0,1,.854-.157,19.157,19.157,0,0,1,6.486,2.405C1548.786,686.439,1554.842,694.316,1556.43,701.37Zm13.037-37.551a1.334,1.334,0,0,1-.2-.015,31.478,31.478,0,0,1-10.845-4c-17.036-9.84-30.9-33.832-30.9-53.484a31.411,31.411,0,0,1,1.949-11.344,1.306,1.306,0,0,1,1.407-.814,27.263,27.263,0,0,1,4.7,1.184,1.2,1.2,0,0,1,.293.083c.807.3,1.517.6,2.221.913.4.162.553.225.71.3.956.443,1.933.944,2.926,1.521,17.036,9.833,30.9,33.824,30.9,53.479,0,1.14-.056,2.229-.147,3.282l-.066.516c-.123,1.044-.208,1.769-.331,2.46a1.519,1.519,0,0,1-.051.2l.005,0a27.822,27.822,0,0,1-1.362,4.89A1.3,1.3,0,0,1,1569.467,663.819Zm-37.936-66.9a29.715,29.715,0,0,0-1.411,9.4c0,18.823,13.283,41.807,29.6,51.232a29.707,29.707,0,0,0,8.891,3.5,26.437,26.437,0,0,0,.871-3.431,1.532,1.532,0,0,1,.047-.181c.122-.748.191-1.358.26-1.974l.1-.78c.083-.969.132-1.984.135-3.047,0-18.823-13.284-41.805-29.607-51.227-.923-.535-1.834-1-2.732-1.418l-.322-.137c-.015-.005-.32-.132-.333-.137-.645-.286-1.294-.565-1.929-.792v-.005a1.245,1.245,0,0,1-.169-.046A26.464,26.464,0,0,0,1531.531,596.915Z" transform="translate(-1487.729 -552.875)"/>
      </g>
      <g id="Grupo_139417" data-name="Grupo 139417" transform="translate(0 10.394)">
        <g id="Grupo_139414" data-name="Grupo 139414" transform="translate(1.299 1.297)">
          <path id="Trazado_134242" data-name="Trazado 134242" d="M1598.015,691.864a112.957,112.957,0,0,0-5.159-17.38c-4.581.694-11.6-4.9-16.653-13.648s-6.391-17.61-3.5-21.223a111.093,111.093,0,0,0-12.488-13.154c-1.2,5.386-7.1,6.6-14.243,2.483s-13.046-12.159-14.247-18.939a37.255,37.255,0,0,0-12.491-1.259c2.892,6.946,1.556,14.277-3.495,17.187s-12.072.392-16.652-5.582a37.364,37.364,0,0,0-5.163,11.422c5.278,4.432,9.294,13.56,9.294,21.795s-4.012,12.731-9.29,11.07a112.322,112.322,0,0,0,5.156,17.38c4.578-.694,11.6,4.906,16.656,13.645s6.387,17.617,3.5,21.233a112.361,112.361,0,0,0,12.481,13.154c1.2-5.386,7.108-6.611,14.25-2.487s13.049,12.163,14.243,18.943a37.322,37.322,0,0,0,12.491,1.252c-2.893-6.946-1.557-14.274,3.495-17.183s12.072-.4,16.652,5.586a37.286,37.286,0,0,0,5.163-11.429c-5.274-4.429-9.29-13.56-9.29-21.795S1592.738,690.206,1598.015,691.864Zm-21.788,3.85c0,19.278-13.554,27.08-30.256,17.431s-30.253-33.088-30.253-52.359,13.54-27.073,30.253-17.427S1576.224,676.45,1576.227,695.714Z" transform="translate(-1493.923 -608.64)" fill="#fff"/>
        </g>
        <g id="Grupo_139416" data-name="Grupo 139416">
          <g id="Grupo_139415" data-name="Grupo 139415">
            <path id="Trazado_134243" data-name="Trazado 134243" d="M1565.243,744.271a40.644,40.644,0,0,1-10.253-1.4,1.3,1.3,0,0,1-.951-1.032c-1.157-6.565-6.883-14.154-13.614-18.043-3.781-2.184-7.306-2.845-9.673-1.806a4.617,4.617,0,0,0-2.661,3.452,1.3,1.3,0,0,1-2.131.685,113.845,113.845,0,0,1-12.626-13.306,1.3,1.3,0,0,1-.005-1.627c2.2-2.752,1.676-10.618-3.612-19.774s-11.84-13.529-15.336-13.01a1.3,1.3,0,0,1-1.407-.817,113.9,113.9,0,0,1-5.215-17.581,1.3,1.3,0,0,1,1.663-1.505,4.61,4.61,0,0,0,4.332-.57c2.077-1.524,3.268-4.9,3.268-9.26,0-7.756-3.713-16.5-8.83-20.8a1.3,1.3,0,0,1-.416-1.34,38.713,38.713,0,0,1,5.347-11.818,1.3,1.3,0,0,1,1.037-.558,1.344,1.344,0,0,1,1.061.509c4.273,5.574,10.574,7.776,14.974,5.246s5.641-9.081,2.943-15.561a1.3,1.3,0,0,1,1.093-1.793,38.732,38.732,0,0,1,12.927,1.3,1.3,1.3,0,0,1,.949,1.03c1.164,6.572,6.892,14.159,13.618,18.041,3.784,2.182,7.309,2.844,9.674,1.807a4.6,4.6,0,0,0,2.651-3.448,1.3,1.3,0,0,1,2.133-.688,112.682,112.682,0,0,1,12.633,13.308,1.3,1.3,0,0,1,.005,1.629c-2.2,2.752-1.685,10.613,3.612,19.76s11.831,13.524,15.333,13.015a1.3,1.3,0,0,1,1.407.817,114.581,114.581,0,0,1,5.219,17.581,1.3,1.3,0,0,1-.4,1.228,1.316,1.316,0,0,1-1.262.277,4.621,4.621,0,0,0-4.336.574c-2.076,1.524-3.266,4.9-3.266,9.257,0,7.758,3.711,16.505,8.827,20.8a1.3,1.3,0,0,1,.416,1.34,38.644,38.644,0,0,1-5.347,11.824,1.3,1.3,0,0,1-2.1.049c-4.266-5.572-10.563-7.783-14.973-5.249s-5.641,9.079-2.943,15.558a1.3,1.3,0,0,1-1.093,1.793Q1566.6,744.27,1565.243,744.271Zm-8.813-3.715a36.482,36.482,0,0,0,9.551,1.106c-2.306-7.137-.467-14.142,4.676-17.1s12.139-1.039,17.172,4.527a36.958,36.958,0,0,0,3.818-8.812c-5.32-4.912-9.116-14.091-9.116-22.228,0-5.271,1.538-9.3,4.327-11.351a6.892,6.892,0,0,1,4.574-1.35,112.182,112.182,0,0,0-4.346-14.392c-5.165-.064-11.939-5.755-16.9-14.355s-6.518-17.293-3.989-21.795a110.375,110.375,0,0,0-10.306-10.96,6.872,6.872,0,0,1-3.444,3.272c-3.177,1.4-7.442.7-12.019-1.935-7.054-4.072-13.113-11.948-14.709-19.005a36.061,36.061,0,0,0-9.551-1.113c2.307,7.139.469,14.146-4.676,17.107s-12.132,1.042-17.172-4.525a36.977,36.977,0,0,0-3.818,8.808c5.322,4.912,9.12,14.091,9.12,22.226,0,5.275-1.538,9.306-4.329,11.354a6.93,6.93,0,0,1-4.574,1.348,111.661,111.661,0,0,0,4.344,14.391c5.158.066,11.934,5.755,16.906,14.35s6.509,17.3,3.989,21.8a111.846,111.846,0,0,0,10.3,10.96,6.887,6.887,0,0,1,3.451-3.273c3.178-1.391,7.445-.7,12.017,1.935C1548.786,725.625,1554.842,733.5,1556.43,740.556Zm-1.83-26.849c-4.375,0-9.2-1.452-14.174-4.326-17.04-9.833-30.9-33.827-30.9-53.484,0-9.8,3.373-17.14,9.495-20.675s14.2-2.788,22.707,2.123c17.038,9.835,30.9,33.826,30.906,53.48h0c0,9.8-3.378,17.146-9.505,20.682A16.827,16.827,0,0,1,1554.6,713.706Zm-27.044-78.084a14.281,14.281,0,0,0-7.237,1.849c-5.286,3.053-8.2,9.6-8.2,18.425,0,18.829,13.279,41.813,29.6,51.234,7.668,4.428,14.805,5.185,20.1,2.126s8.2-9.6,8.206-18.432c0-18.826-13.284-41.808-29.607-51.231C1535.855,636.957,1531.472,635.623,1527.556,635.623Z" transform="translate(-1487.729 -602.455)"/>
          </g>
        </g>
      </g>
      <g id="Grupo_139418" data-name="Grupo 139418" transform="translate(21.795 41.016)">
        <path id="Trazado_134244" data-name="Trazado 134244" d="M1603.146,798.952a57.355,57.355,0,0,1-5.261-22.691c0-15.052,8.275-23.06,19.86-21.267a30.06,30.06,0,0,0-1.861,10.874,57.368,57.368,0,0,0,5.264,22.692Z" transform="translate(-1596.586 -753.441)"/>
        <path id="Trazado_134245" data-name="Trazado 134245" d="M1598.249,795.333a1.3,1.3,0,0,1-1.187-.775,58.5,58.5,0,0,1-5.372-23.216c0-8.411,2.458-14.961,7.1-18.939,3.762-3.226,8.7-4.483,14.255-3.612a1.3,1.3,0,0,1,1.013,1.754,28.808,28.808,0,0,0-1.773,10.405,55.926,55.926,0,0,0,5.155,22.165,1.3,1.3,0,0,1-.54,1.649l-18,10.393A1.306,1.306,0,0,1,1598.249,795.333Zm11.475-44.206a13.868,13.868,0,0,0-9.241,3.248c-3.994,3.422-6.193,9.448-6.195,16.967a55.041,55.041,0,0,0,4.577,20.836l15.735-9.084a57.836,57.836,0,0,1-4.912-22.145,32.629,32.629,0,0,1,1.4-9.771C1610.625,751.145,1610.17,751.128,1609.723,751.128Z" transform="translate(-1591.689 -748.523)"/>
      </g>
      <g id="Grupo_139419" data-name="Grupo 139419" transform="translate(104.092 83.223)">
        <path id="Trazado_134246" data-name="Trazado 134246" d="M1985.55,962.839a1.3,1.3,0,0,1-.651-2.424l18-10.394a1.3,1.3,0,1,1,1.3,2.25l-18,10.393A1.289,1.289,0,0,1,1985.55,962.839Z" transform="translate(-1984.249 -949.848)"/>
      </g>
      <g id="Grupo_139420" data-name="Grupo 139420" transform="translate(98.933 65.846)">
        <path id="Trazado_134247" data-name="Trazado 134247" d="M1960.939,879.949a1.3,1.3,0,0,1-.651-2.424l18-10.39a1.3,1.3,0,0,1,1.3,2.25l-18,10.39A1.291,1.291,0,0,1,1960.939,879.949Z" transform="translate(-1959.638 -866.96)"/>
      </g>
      <g id="Grupo_139421" data-name="Grupo 139421" transform="translate(104.092 116.087)">
        <path id="Trazado_134248" data-name="Trazado 134248" d="M1985.55,1119.6a1.3,1.3,0,0,1-.651-2.424l18-10.393a1.3,1.3,0,1,1,1.3,2.25l-18,10.393A1.29,1.29,0,0,1,1985.55,1119.6Z" transform="translate(-1984.249 -1106.611)"/>
      </g>
      <g id="Grupo_139422" data-name="Grupo 139422" transform="translate(78.779 30.968)">
        <path id="Trazado_134249" data-name="Trazado 134249" d="M1864.8,713.586a1.3,1.3,0,0,1-.651-2.424l18-10.4a1.3,1.3,0,1,1,1.3,2.25l-18,10.4A1.292,1.292,0,0,1,1864.8,713.586Z" transform="translate(-1863.504 -700.59)"/>
      </g>
      <g id="Grupo_139423" data-name="Grupo 139423" transform="translate(66.291 17.817)">
        <path id="Trazado_134250" data-name="Trazado 134250" d="M1805.239,650.854a1.3,1.3,0,0,1-.651-2.424l18-10.393a1.3,1.3,0,0,1,1.3,2.25l-18,10.393A1.29,1.29,0,0,1,1805.239,650.854Z" transform="translate(-1803.938 -637.862)"/>
      </g>
      <g id="Grupo_139424" data-name="Grupo 139424" transform="translate(37.801 1.36)">
        <path id="Trazado_134251" data-name="Trazado 134251" d="M1669.339,572.354a1.3,1.3,0,0,1-.651-2.424l18-10.394a1.3,1.3,0,0,1,1.3,2.25l-18,10.393A1.292,1.292,0,0,1,1669.339,572.354Z" transform="translate(-1668.038 -559.361)"/>
      </g>
      <g id="Grupo_139425" data-name="Grupo 139425" transform="translate(77.271 131.114)">
        <path id="Trazado_134252" data-name="Trazado 134252" d="M1867.536,1185.694c5.055-2.906,12.072-.4,16.653,5.586a.057.057,0,0,0-.021-.021l-20.127,11.618C1861.149,1195.931,1862.485,1188.6,1867.536,1185.694Z" transform="translate(-1861.232 -1183.185)"/>
        <path id="Trazado_134253" data-name="Trazado 134253" d="M1859.122,1199.281a1.255,1.255,0,0,1-.416-.069,1.3,1.3,0,0,1-.783-.731c-3.208-7.7-1.506-15.61,4.046-18.807v0c5.552-3.194,13.257-.7,18.332,5.922h0a1.3,1.3,0,0,1-.342,1.891,1.263,1.263,0,0,1-.286.134l-19.9,11.488A1.3,1.3,0,0,1,1859.122,1199.281Zm4.143-17.356c-4.087,2.355-5.447,8.162-3.463,14.164l17.468-10.084c-4.212-4.7-9.923-6.433-14-4.08Z" transform="translate(-1856.312 -1178.29)"/>
      </g>
      <g id="Grupo_139426" data-name="Grupo 139426" transform="translate(94.801 87.981)">
        <path id="Trazado_134254" data-name="Trazado 134254" d="M1946.13,995.439c0-8.235,4.013-12.728,9.291-11.07l9.764-5.636a17.823,17.823,0,0,0-1.052,6.313c0,8.235,4.012,17.37,9.287,21.8l-18,10.393C1950.146,1012.806,1946.13,1003.674,1946.13,995.439Z" transform="translate(-1944.831 -977.436)" fill="#64b5f6"/>
        <path id="Trazado_134255" data-name="Trazado 134255" d="M1950.523,1013.643a1.3,1.3,0,0,1-.836-.3c-5.652-4.745-9.754-14.33-9.754-22.79,0-5.271,1.537-9.3,4.327-11.351a7.088,7.088,0,0,1,6.086-1.118l9.291-5.363a1.3,1.3,0,0,1,1.866,1.582,16.577,16.577,0,0,0-.969,5.855c0,7.765,3.709,16.512,8.823,20.8a1.3,1.3,0,0,1-.186,2.119l-18,10.394A1.3,1.3,0,0,1,1950.523,1013.643Zm-2.118-33.208a4.306,4.306,0,0,0-2.607.858c-2.076,1.524-3.266,4.9-3.266,9.257,0,7.413,3.39,15.73,8.154,20.2l15.664-9.045c-4.949-5.041-8.414-13.768-8.414-21.55a21.186,21.186,0,0,1,.294-3.625l-7.058,4.073a1.3,1.3,0,0,1-1.039.115A5.764,5.764,0,0,0,1948.4,980.434Z" transform="translate(-1939.933 -972.545)"/>
      </g>
      <g id="Grupo_139427" data-name="Grupo 139427" transform="translate(98.929 116.086)">
        <path id="Trazado_134256" data-name="Trazado 134256" d="M1970.982,1123.2l18-10.393a37.288,37.288,0,0,1-5.159,11.429l-18,10.393A37.281,37.281,0,0,0,1970.982,1123.2Z" transform="translate(-1964.52 -1111.508)"/>
        <path id="Trazado_134257" data-name="Trazado 134257" d="M1960.92,1131.029a1.3,1.3,0,0,1-1.068-2.04,36.138,36.138,0,0,0,4.979-11.033,1.3,1.3,0,0,1,.6-.78l18-10.393a1.3,1.3,0,0,1,1.9,1.468,38.656,38.656,0,0,1-5.346,11.824,1.28,1.28,0,0,1-.417.386l-18,10.393A1.3,1.3,0,0,1,1960.92,1131.029Zm6.271-11.867a42.081,42.081,0,0,1-2.673,6.99l13.5-7.793a34.136,34.136,0,0,0,3.821-7.656Z" transform="translate(-1959.621 -1106.608)"/>
      </g>
    </g>
    <g id="Grupo_139447" data-name="Grupo 139447" transform="translate(544.771 566.044)">
      <g id="Grupo_139429" data-name="Grupo 139429" transform="translate(0 36.28)">
        <path id="Trazado_134258" data-name="Trazado 134258" d="M907.28,794.952l-9.838,5.677V889.1c.007,7.829,5.508,17.342,12.295,21.26l143.037,82.578c3.4,1.962,6.465,2.152,8.7.88h0l9.909-5.724-.01-.014c2.182-1.3,3.532-4.012,3.532-7.876V891.726Z" transform="translate(-896.143 -793.652)"/>
        <path id="Trazado_134259" data-name="Trazado 134259" d="M1053.385,991.029a12.487,12.487,0,0,1-6.159-1.864l-143.037-82.58c-7.13-4.116-12.938-14.157-12.944-22.384V795.727a1.3,1.3,0,0,1,.65-1.125l9.838-5.677a1.292,1.292,0,0,1,1.3,0l167.62,96.774a1.3,1.3,0,0,1,.649,1.125V975.3c0,4.1-1.409,7.24-3.975,8.874a1.137,1.137,0,0,1-.2.142l-9.909,5.725A7.661,7.661,0,0,1,1053.385,991.029ZM893.843,796.479V884.2c.007,7.4,5.231,16.432,11.645,20.135l143.037,82.577c2.866,1.658,5.5,1.976,7.4.876l9.725-5.616a1.373,1.373,0,0,1,.154-.108c1.869-1.113,2.9-3.512,2.9-6.76V887.574l-166.32-96.023Z" transform="translate(-891.245 -788.75)"/>
      </g>
      <g id="Grupo_139430" data-name="Grupo 139430" transform="translate(0 41.957)">
        <path id="Trazado_134260" data-name="Trazado 134260" d="M897.442,822.031V910.5c.007,7.829,5.508,17.342,12.295,21.26l143.037,82.578c6.79,3.925,12.292.758,12.292-7.057V918.805Z" transform="translate(-896.143 -820.731)" fill="#fff"/>
        <path id="Trazado_134261" data-name="Trazado 134261" d="M1053.38,1012.432a12.451,12.451,0,0,1-6.154-1.868L904.189,927.988c-7.13-4.116-12.938-14.158-12.944-22.384V817.13a1.3,1.3,0,0,1,1.949-1.125l167.623,96.775a1.3,1.3,0,0,1,.65,1.125v88.479c0,4.26-1.506,7.474-4.241,9.05A7.585,7.585,0,0,1,1053.38,1012.432ZM893.843,819.38V905.6c.007,7.4,5.231,16.432,11.645,20.135l143.037,82.576c2.869,1.661,5.5,1.966,7.4.87s2.94-3.508,2.94-6.8V914.654Z" transform="translate(-891.245 -815.83)"/>
      </g>
      <g id="Grupo_139431" data-name="Grupo 139431" transform="translate(0 0)">
        <path id="Trazado_134262" data-name="Trazado 134262" d="M1062.6,706.169,919.568,623.59c-3.386-1.955-6.452-2.145-8.675-.873l0-.007-9.882,5.711h0c-2.2,1.292-3.559,4.019-3.559,7.91l-.007,27.533,167.623,96.774,9.835-5.677V727.429C1074.9,719.607,1069.4,710.087,1062.6,706.169Z" transform="translate(-896.143 -620.607)" fill="#ba68c8"/>
        <path id="Trazado_134263" data-name="Trazado 134263" d="M1060.167,757.025a1.293,1.293,0,0,1-.649-.174L891.895,660.076a1.3,1.3,0,0,1-.65-1.125l.007-27.533c0-4.231,1.492-7.438,4.2-9.03l9.891-5.716a1.117,1.117,0,0,1,.142-.071c2.723-1.477,6.2-1.145,9.835.951l143.034,82.578c7.142,4.119,12.951,14.161,12.948,22.385v27.533a1.3,1.3,0,0,1-.649,1.125l-9.835,5.677A1.292,1.292,0,0,1,1060.167,757.025ZM893.843,658.2l166.324,96.023,8.536-4.926V722.515c0-7.4-5.222-16.429-11.648-20.135h0L914.021,619.8c-2.859-1.651-5.478-1.961-7.381-.869a1.045,1.045,0,0,1-.12.059l-9.761,5.642c-1.873,1.1-2.91,3.512-2.91,6.785ZM1070,750.048h0Z" transform="translate(-891.245 -615.694)"/>
      </g>
      <g id="Grupo_139432" data-name="Grupo 139432" transform="translate(131.649 93.559)">
        <path id="Trazado_134264" data-name="Trazado 134264" d="M1561.383,1113.344l9.835-5.677v-27.533a24.969,24.969,0,0,0-3.536-11.963l-42.273,24.407Z" transform="translate(-1524.11 -1066.871)"/>
        <path id="Trazado_134265" data-name="Trazado 134265" d="M1556.485,1109.744a1.293,1.293,0,0,1-.65-.174l-35.974-20.766a1.3,1.3,0,0,1,0-2.25l42.274-24.407a1.283,1.283,0,0,1,.988-.129,1.3,1.3,0,0,1,.79.609,26.186,26.186,0,0,1,3.706,12.607v27.533a1.3,1.3,0,0,1-.65,1.125l-9.835,5.677A1.291,1.291,0,0,1,1556.485,1109.744Zm-33.376-22.066,33.376,19.266,8.536-4.926v-26.784a22.848,22.848,0,0,0-2.742-10.172Z" transform="translate(-1519.212 -1061.972)"/>
      </g>
      <g id="Grupo_139433" data-name="Grupo 139433" transform="translate(0 5.669)">
        <path id="Trazado_134266" data-name="Trazado 134266" d="M1065.069,754.491c0-7.822-5.5-17.343-12.3-21.254L909.737,650.652c-6.79-3.925-12.288-.758-12.288,7.064l-.007,27.533,167.623,96.774Z" transform="translate(-896.143 -647.66)" fill="#ba68c8"/>
        <path id="Trazado_134267" data-name="Trazado 134267" d="M1060.167,778.4a1.293,1.293,0,0,1-.649-.174L891.895,681.447a1.3,1.3,0,0,1-.65-1.125l.007-27.533c0-4.263,1.506-7.48,4.241-9.059s6.289-1.274,10,.87l143.033,82.585c7.135,4.107,12.944,14.147,12.948,22.378h0l0,27.533a1.3,1.3,0,0,1-1.3,1.3ZM893.843,679.573l165.025,95.274,0-25.283c0-7.4-5.229-16.432-11.647-20.127L904.189,646.85c-2.869-1.656-5.494-1.969-7.4-.868s-2.942,3.512-2.942,6.807Z" transform="translate(-891.245 -642.734)"/>
      </g>
      <g id="Grupo_139434" data-name="Grupo 139434" transform="translate(40.244 37.544)">
        <path id="Trazado_134268" data-name="Trazado 134268" d="M1141.575,837.917c0,6.07-4.266,8.526-9.537,5.481l-33.1-19.109c-5.271-3.045-9.537-10.434-9.537-16.5h0c0-6.069,4.263-8.526,9.537-5.487l33.1,19.109c5.268,3.045,9.534,10.427,9.537,16.5Z" transform="translate(-1088.106 -799.698)" fill="#fff"/>
        <path id="Trazado_134269" data-name="Trazado 134269" d="M1131.413,841.092a9.958,9.958,0,0,1-4.923-1.487L1093.4,820.5c-5.713-3.3-10.187-11.04-10.187-17.621,0-3.414,1.216-6,3.429-7.279s5.082-1.046,8.056.666l33.1,19.109c5.709,3.3,10.184,11.043,10.187,17.628h0c0,3.416-1.22,6-3.436,7.279A6.162,6.162,0,0,1,1131.413,841.092Zm-41.629-43.712a3.636,3.636,0,0,0-1.846.465c-1.375.8-2.133,2.581-2.132,5.029,0,5.645,3.987,12.54,8.888,15.372l33.095,19.109c2.132,1.231,4.068,1.472,5.452.673s2.137-2.582,2.137-5.029c0-5.648-3.991-12.547-8.888-15.379L1093.4,798.513A7.431,7.431,0,0,0,1089.783,797.38Z" transform="translate(-1083.208 -794.78)"/>
      </g>
      <g id="Grupo_139437" data-name="Grupo 139437" transform="translate(76.708 63.678)">
        <g id="Grupo_139435" data-name="Grupo 139435" transform="translate(1.695)">
          <path id="Trazado_134270" data-name="Trazado 134270" d="M1271.766,931.354a4.584,4.584,0,0,1-2.279-.67,9.31,9.31,0,0,1-4.258-7.382,3.473,3.473,0,0,1,5.56-3.2,9.289,9.289,0,0,1,4.271,7.384,3.81,3.81,0,0,1-1.71,3.459A3.157,3.157,0,0,1,1271.766,931.354Zm-3.238-9.323a.583.583,0,0,0-.3.068,1.414,1.414,0,0,0-.4,1.2,6.678,6.678,0,0,0,2.964,5.138.97.97,0,0,0,1.671-.954,6.764,6.764,0,0,0-2.969-5.134A2.087,2.087,0,0,0,1268.529,922.031Z" transform="translate(-1265.23 -919.437)"/>
        </g>
        <g id="Grupo_139436" data-name="Grupo 139436" transform="translate(0 6.126)">
          <path id="Trazado_134271" data-name="Trazado 134271" d="M1258.445,952.838a1.3,1.3,0,0,1-.65-2.426l2.754-1.583a1.3,1.3,0,0,1,1.3,2.253l-2.754,1.583A1.3,1.3,0,0,1,1258.445,952.838Z" transform="translate(-1257.143 -948.657)"/>
        </g>
      </g>
      <g id="Grupo_139440" data-name="Grupo 139440" transform="translate(13.431 25.199)">
        <g id="Grupo_139438" data-name="Grupo 139438">
          <path id="Trazado_134272" data-name="Trazado 134272" d="M962.994,753.186a1.3,1.3,0,0,1-1.127-.648l-6.381-11.029a1.3,1.3,0,0,1,.477-1.778l6.377-3.668a1.3,1.3,0,0,1,1.3,2.253l-5.249,3.018,5.729,9.9a1.3,1.3,0,0,1-1.123,1.95Z" transform="translate(-955.312 -735.892)"/>
        </g>
        <g id="Grupo_139439" data-name="Grupo 139439" transform="translate(0 3.667)">
          <path id="Trazado_134273" data-name="Trazado 134273" d="M969.139,763.207a1.289,1.289,0,0,1-.648-.174l-12.528-7.227a1.3,1.3,0,0,1,1.3-2.25l12.528,7.227a1.3,1.3,0,0,1-.651,2.424Z" transform="translate(-955.314 -753.382)"/>
        </g>
      </g>
      <g id="Grupo_139443" data-name="Grupo 139443" transform="translate(107.347 79.478)">
        <g id="Grupo_139441" data-name="Grupo 139441" transform="translate(0 3.607)">
          <path id="Trazado_134274" data-name="Trazado 134274" d="M1417.111,1021.836a1.292,1.292,0,0,1-.648-.174l-12.521-7.227a1.3,1.3,0,1,1,1.3-2.25l12.521,7.227a1.3,1.3,0,0,1-.651,2.424Z" transform="translate(-1403.292 -1012.012)"/>
        </g>
        <g id="Grupo_139442" data-name="Grupo 139442" transform="translate(6.259)">
          <path id="Trazado_134275" data-name="Trazado 134275" d="M1434.447,1011.838h0a1.3,1.3,0,0,1-1.3-1.3l0-14.433a1.3,1.3,0,0,1,1.3-1.3h0a1.3,1.3,0,0,1,1.3,1.3l0,14.433A1.3,1.3,0,0,1,1434.447,1011.838Z" transform="translate(-1433.148 -994.806)"/>
        </g>
      </g>
      <g id="Grupo_139446" data-name="Grupo 139446" transform="translate(134.048 93.707)">
        <g id="Grupo_139444" data-name="Grupo 139444" transform="translate(0 2.348)">
          <path id="Trazado_134276" data-name="Trazado 134276" d="M1543.426,1092.758a1.289,1.289,0,0,1-.65-.174l-11.473-6.624a1.3,1.3,0,0,1-.649-1.125l0-9.656a1.3,1.3,0,0,1,1.949-1.125l11.473,6.618a1.3,1.3,0,0,1,.65,1.125l0,9.663a1.3,1.3,0,0,1-1.3,1.3Zm-10.174-8.673,8.874,5.124,0-6.661-8.874-5.12Z" transform="translate(-1530.654 -1073.879)"/>
        </g>
        <g id="Grupo_139445" data-name="Grupo 139445" transform="translate(4.195)">
          <path id="Trazado_134277" data-name="Trazado 134277" d="M1563.447,1081.566a1.292,1.292,0,0,1-.65-.174l-4.2-2.422a1.3,1.3,0,1,1,1.3-2.25l2.252,1.3,0-6.661-8.876-5.124v2.511a1.3,1.3,0,0,1-1.3,1.3h0a1.3,1.3,0,0,1-1.3-1.3l0-4.764a1.3,1.3,0,0,1,1.949-1.126l11.476,6.624a1.3,1.3,0,0,1,.65,1.123l.007,9.662a1.3,1.3,0,0,1-.649,1.126A1.284,1.284,0,0,1,1563.447,1081.566Z" transform="translate(-1550.665 -1062.68)"/>
        </g>
      </g>
    </g>
    <g id="Grupo_139455" data-name="Grupo 139455" transform="translate(452.869 625.441)">
      <g id="Grupo_139448" data-name="Grupo 139448" transform="translate(0 0)">
        <path id="Trazado_134278" data-name="Trazado 134278" d="M585.068,1044.956l-117-67.553c-4.974-2.869-9-9.842-9-15.577l0-44.974c0-2.872,1.005-4.882,2.636-5.822h0l9.006-5.2h0c1.627-.934,3.877-.8,6.36.639l117.007,67.55,0,65.743Z" transform="translate(-457.766 -903.933)" fill="#fef536"/>
        <path id="Trazado_134279" data-name="Trazado 134279" d="M580.17,1041.337a1.3,1.3,0,0,1-.649-.172l-117-67.555c-5.415-3.123-9.652-10.459-9.649-16.7l0-44.974c0-3.258,1.167-5.726,3.285-6.948l9.006-5.2c2.12-1.216,4.841-.99,7.66.639l117.006,67.55a1.3,1.3,0,0,1,.65,1.125l0,65.743a1.3,1.3,0,0,1-.65,1.127l-9,5.193A1.31,1.31,0,0,1,580.17,1041.337ZM468.149,901.616a3.367,3.367,0,0,0-1.693.423l-9,5.2c-1.281.739-1.986,2.407-1.986,4.7l0,44.974c0,5.312,3.742,11.794,8.35,14.451l116.35,67.18,7.7-4.446,0-64.243L471.521,902.677A6.928,6.928,0,0,0,468.149,901.616Z" transform="translate(-452.869 -899.015)"/>
      </g>
      <g id="Grupo_139449" data-name="Grupo 139449" transform="translate(0 5.195)">
        <path id="Trazado_134280" data-name="Trazado 134280" d="M468.068,997c-4.974-2.869-9-9.842-9-15.576l0-44.974c0-5.741,4.03-8.056,9-5.186l117,67.553,0,65.736Z" transform="translate(-457.766 -928.723)" fill="#fff"/>
        <path id="Trazado_134281" data-name="Trazado 134281" d="M580.17,1060.924a1.3,1.3,0,0,1-.649-.173l-117-67.555c-5.415-3.123-9.652-10.459-9.649-16.7l0-44.973c0-3.256,1.165-5.723,3.28-6.944s4.843-1.005,7.671.633l117,67.553a1.3,1.3,0,0,1,.649,1.125l0,65.736a1.3,1.3,0,0,1-1.3,1.3ZM459.15,926.4a3.358,3.358,0,0,0-1.7.428c-1.277.737-1.981,2.405-1.981,4.694l0,44.973c0,5.312,3.742,11.794,8.35,14.452h0l115.051,66.428,0-62.737L462.521,927.46A6.934,6.934,0,0,0,459.15,926.4Z" transform="translate(-452.869 -923.798)"/>
      </g>
      <g id="Grupo_139450" data-name="Grupo 139450" transform="translate(126.005 68.786)">
        <path id="Trazado_134282" data-name="Trazado 134282" d="M1145.9,1350.751h0c-1.634.937-3.881.8-6.367-.633l-79.418-45.857,0-65.736,9-5.2,79.422,45.856c4.97,2.869,9,9.839,9,15.573l0,44.984c0,2.906-1.045,4.923-2.72,5.843l.01.013Z" transform="translate(-1058.815 -1232.028)" fill="#fef536"/>
        <path id="Trazado_134283" data-name="Trazado 134283" d="M1138.662,1347.75a9.49,9.49,0,0,1-4.674-1.407l-79.418-45.857a1.3,1.3,0,0,1-.65-1.126l0-65.737a1.3,1.3,0,0,1,.65-1.125l9-5.2a1.292,1.292,0,0,1,1.3,0l79.422,45.857c5.413,3.124,9.649,10.459,9.646,16.7l0,44.984c0,3.2-1.132,5.623-3.192,6.865a1.444,1.444,0,0,1-.167.119l-8.925,5.153h0A5.925,5.925,0,0,1,1138.662,1347.75Zm2.343-1.9h0Zm-84.487-47.24,78.769,45.481c1.988,1.15,3.786,1.367,5.07.632l8.746-5.048a1.353,1.353,0,0,1,.191-.132c1.319-.724,2.047-2.4,2.047-4.7l0-44.984c0-5.308-3.742-11.789-8.347-14.448l-78.772-45.481-7.7,4.446Z" transform="translate(-1053.917 -1227.126)"/>
      </g>
      <g id="Grupo_139451" data-name="Grupo 139451" transform="translate(157.267 121.167)">
        <path id="Trazado_134284" data-name="Trazado 134284" d="M1275.391,1492.23l0,44.983c0,2.907-1.045,4.923-2.72,5.843l.01.013-8.925,5.153c-1.634.937-3.881.8-6.368-.633l-48.16-27.8,63.4-36.607A18.492,18.492,0,0,1,1275.391,1492.23Z" transform="translate(-1207.932 -1481.881)"/>
        <path id="Trazado_134285" data-name="Trazado 134285" d="M1256.518,1545.228a9.485,9.485,0,0,1-4.674-1.408l-48.161-27.8a1.3,1.3,0,0,1,0-2.253l63.4-36.6a1.3,1.3,0,0,1,1.77.465,19.686,19.686,0,0,1,2.937,9.711l0,44.982c0,3.2-1.132,5.623-3.192,6.865a1.538,1.538,0,0,1-.167.118l-8.925,5.153A5.945,5.945,0,0,1,1256.518,1545.228Zm-49.586-30.338,46.212,26.677c1.988,1.15,3.791,1.367,5.072.633l8.744-5.048a1.333,1.333,0,0,1,.191-.132c1.319-.724,2.047-2.4,2.047-4.7l0-44.984v0a16.313,16.313,0,0,0-1.955-7.26Z" transform="translate(-1203.034 -1476.986)"/>
      </g>
      <g id="Grupo_139452" data-name="Grupo 139452" transform="translate(126.005 73.983)">
        <path id="Trazado_134286" data-name="Trazado 134286" d="M1139.536,1369.709l-79.418-45.857,0-65.737,79.419,45.857c4.973,2.869,9,9.838,9,15.576v44.977C1148.535,1370.257,1144.509,1372.581,1139.536,1369.709Z" transform="translate(-1058.815 -1256.816)" fill="#fef536"/>
        <path id="Trazado_134287" data-name="Trazado 134287" d="M1138.666,1367.346a9.475,9.475,0,0,1-4.677-1.411l-79.418-45.856a1.3,1.3,0,0,1-.65-1.127l0-65.736a1.3,1.3,0,0,1,1.949-1.125l79.418,45.857c5.413,3.123,9.652,10.458,9.652,16.7v44.977c0,3.255-1.165,5.721-3.282,6.942A5.925,5.925,0,0,1,1138.666,1367.346Zm-82.147-49.145,78.769,45.481h0c1.986,1.154,3.784,1.37,5.068.636s1.983-2.406,1.983-4.693v-44.977c0-5.312-3.747-11.794-8.353-14.452l-77.47-44.731Z" transform="translate(-1053.917 -1251.915)"/>
      </g>
      <g id="Grupo_139453" data-name="Grupo 139453" transform="translate(23.5 41.969)">
        <path id="Trazado_134288" data-name="Trazado 134288" d="M579.162,1106.518c-4.419-2.551-8-.494-8,4.6s3.583,11.29,8,13.844,8,.491,8-4.6S583.581,1109.069,579.162,1106.518Zm33.007,19.054c-4.422-2.551-8.008-.494-8.005,4.608s3.579,11.286,8,13.837,8.005.494,8.005-4.6A17.668,17.668,0,0,0,612.17,1125.573Zm33,19.054c-4.419-2.551-8.005-.494-8,4.608s3.583,11.29,8,13.841,8,.49,8-4.6A17.669,17.669,0,0,0,645.17,1144.627Z" transform="translate(-569.862 -1104.12)"/>
        <path id="Trazado_134289" data-name="Trazado 134289" d="M643.851,1160.561a8.549,8.549,0,0,1-4.229-1.274,18.845,18.845,0,0,1-8.651-14.966c0-2.945,1.059-5.182,2.986-6.294s4.4-.917,6.964.562a18.847,18.847,0,0,1,8.648,14.969c0,2.945-1.062,5.18-2.989,6.293A5.389,5.389,0,0,1,643.851,1160.561Zm-7.154-20.646a2.844,2.844,0,0,0-1.441.362c-1.09.629-1.688,2.065-1.687,4.043,0,4.594,3.366,10.417,7.352,12.717,1.721.995,3.27,1.194,4.359.562s1.69-2.063,1.69-4.041c0-4.594-3.365-10.419-7.348-12.719A6.026,6.026,0,0,0,636.7,1139.914Zm-25.848,1.592a8.56,8.56,0,0,1-4.234-1.277,18.84,18.84,0,0,1-8.648-14.962c0-2.945,1.057-5.182,2.984-6.295s4.407-.917,6.97.562h0a18.847,18.847,0,0,1,8.648,14.969c0,2.945-1.061,5.178-2.987,6.291A5.4,5.4,0,0,1,610.849,1141.506ZM603.7,1120.86a2.847,2.847,0,0,0-1.443.362c-1.09.629-1.688,2.065-1.687,4.043,0,4.593,3.365,10.414,7.348,12.714,1.724,1,3.27,1.193,4.368.565s1.688-2.064,1.688-4.041c0-4.594-3.365-10.419-7.349-12.719h0A6.029,6.029,0,0,0,603.7,1120.86Zm-25.85,1.592a8.554,8.554,0,0,1-4.231-1.274,18.861,18.861,0,0,1-8.651-14.969c0-2.945,1.061-5.18,2.987-6.293s4.407-.912,6.963.563a18.846,18.846,0,0,1,8.651,14.969c0,2.947-1.064,5.182-2.991,6.293A5.393,5.393,0,0,1,577.846,1122.452Zm-7.154-20.646a2.841,2.841,0,0,0-1.441.36c-1.089.629-1.688,2.065-1.688,4.043a16.27,16.27,0,0,0,7.352,12.719c1.722.993,3.268,1.191,4.361.563s1.69-2.065,1.692-4.045c0-4.593-3.366-10.417-7.352-12.718A6.028,6.028,0,0,0,570.692,1101.806Z" transform="translate(-564.964 -1099.206)"/>
      </g>
      <g id="Grupo_139454" data-name="Grupo 139454" transform="translate(140.195 105.451)">
        <path id="Trazado_134290" data-name="Trazado 134290" d="M1187.84,1458.766l-4.158-14.91-4.831.592-3.18-5.224-5.065-.515-4.128-4.784-12.931-7.474c-2.091-6.648-6.8-13.178-12.295-16.355-7.429-4.286-13.455-.822-13.455,7.751s6.026,18.994,13.458,23.283c5.494,3.177,10.2,2.077,12.291-2.165Zm-40.24-29.482c0,4.04-2.849,5.681-6.35,3.661a14.041,14.041,0,0,1-6.347-11c0-4.046,2.838-5.684,6.35-3.654A14,14,0,0,1,1147.6,1429.284Z" transform="translate(-1126.498 -1406.951)" fill="#fff"/>
        <path id="Trazado_134291" data-name="Trazado 134291" d="M1182.943,1455.131a1.311,1.311,0,0,1-.65-.172l-33.175-19.156a7.886,7.886,0,0,1-4.263,3.167c-2.7.819-5.867.254-9.146-1.648-7.78-4.488-14.108-15.438-14.108-24.407,0-4.625,1.627-8.111,4.583-9.818s6.8-1.377,10.821.942c5.449,3.148,10.4,9.629,12.728,16.605l12.5,7.223a1.274,1.274,0,0,1,.333.276l3.791,4.393,4.551.462a1.3,1.3,0,0,1,.978.616l2.744,4.51,4-.49a1.316,1.316,0,0,1,1.409.94l4.158,14.91a1.3,1.3,0,0,1-1.252,1.648Zm-34.292-22.4a1.316,1.316,0,0,1,.65.172l31.537,18.209-3-10.769-3.723.457a1.3,1.3,0,0,1-1.267-.613l-2.844-4.672-4.424-.45a1.3,1.3,0,0,1-.851-.443l-3.985-4.618-12.74-7.364a1.3,1.3,0,0,1-.59-.736c-2.067-6.573-6.662-12.7-11.7-15.619-3.182-1.837-6.107-2.168-8.221-.942s-3.285,3.911-3.285,7.568c0,8.142,5.747,18.082,12.809,22.157,2.644,1.529,5.1,2.023,7.093,1.411a5.576,5.576,0,0,0,3.383-3.024,1.3,1.3,0,0,1,1.166-.724Zm-9.463-2.554a7.041,7.041,0,0,1-3.485-1.044,15.27,15.27,0,0,1-7-12.121c0-2.439.89-4.3,2.505-5.229s3.681-.773,5.794.45a15.217,15.217,0,0,1,7,12.114c0,2.434-.888,4.29-2.505,5.225A4.55,4.55,0,0,1,1139.187,1430.18Zm-5.677-16.388a1.977,1.977,0,0,0-1,.245c-.766.441-1.206,1.528-1.206,2.979a12.819,12.819,0,0,0,5.7,9.871,2.62,2.62,0,0,0,4.4-2.534v0a12.764,12.764,0,0,0-5.7-9.861A4.536,4.536,0,0,0,1133.51,1413.792Z" transform="translate(-1121.601 -1402.017)"/>
      </g>
    </g>
  </g>
</svg>
