<svg xmlns="http://www.w3.org/2000/svg" width="56.435" height="56.435" viewBox="0 0 56.435 56.435">
  <g id="Grupo_138828" data-name="Grupo 138828" transform="translate(-16 -16)">
    <path id="Trazado_133591" data-name="Trazado 133591" d="M216,96h9.406v1.881H216Z" transform="translate(-176.486 -70.594)" fill="#5c22c3"/>
    <path id="Trazado_133592" data-name="Trazado 133592" d="M216,128h9.406v1.881H216Z" transform="translate(-176.486 -98.832)" fill="#5c22c3"/>
    <path id="Trazado_133593" data-name="Trazado 133593" d="M103.029,64.91V57.385a.941.941,0,0,0-.677-.9L80.455,50.1V38.574h6.584a.94.94,0,0,0,.941-.941V22.584a.938.938,0,0,0-.276-.665l-5.643-5.643A.936.936,0,0,0,81.4,16H71.99a.94.94,0,0,0-.941.941V37.633a.94.94,0,0,0,.941.941h6.584V50.1l-21.9,6.387a.941.941,0,0,0-.677.9V64.91a.941.941,0,0,0,.677.9L79.251,72.4a.941.941,0,0,0,.527,0l22.574-6.584A.941.941,0,0,0,103.029,64.91Zm-20.693-45.7,2.432,2.432H82.336Zm-9.406-1.33h7.525v4.7a.94.94,0,0,0,.941.941h4.7V36.693H72.93Zm5.643,34.174V57l-2.157-2.157-1.33,1.33,3.762,3.762a.94.94,0,0,0,1.33,0l3.762-3.762-1.33-1.33L80.455,57V52.055l18.274,5.33-19.215,5.6L60.3,57.385ZM57.881,58.639l20.693,6.036V70.24L57.881,64.2Zm22.574,11.6V64.675l20.693-6.036V64.2Z" transform="translate(-35.297 0)" fill="#5c22c3"/>
    <path id="Trazado_133594" data-name="Trazado 133594" d="M216,64h3.762v1.881H216Z" transform="translate(-176.486 -42.357)" fill="#5c22c3"/>
    <path id="Trazado_133595" data-name="Trazado 133595" d="M16.941,38.574h6.584a4.708,4.708,0,0,0,4.7,4.7h2.822A2.825,2.825,0,0,1,33.871,46.1V47.59l-2.157-2.157-1.33,1.33,3.762,3.762a.94.94,0,0,0,1.33,0l3.762-3.762-1.33-1.33L35.752,47.59V46.1a4.708,4.708,0,0,0-4.7-4.7H28.227a2.825,2.825,0,0,1-2.822-2.822H31.99a.94.94,0,0,0,.941-.941V22.584a.938.938,0,0,0-.276-.665l-5.643-5.643A.936.936,0,0,0,26.346,16H16.941a.94.94,0,0,0-.941.941V37.633a.94.94,0,0,0,.941.941ZM27.287,19.211l2.432,2.432H27.287Zm-9.406-1.33h7.525v4.7a.94.94,0,0,0,.941.941h4.7V36.693H17.881Z" transform="translate(0 0)" fill="#5c22c3"/>
    <path id="Trazado_133596" data-name="Trazado 133596" d="M48,96h9.406v1.881H48Z" transform="translate(-28.238 -70.594)" fill="#5c22c3"/>
    <path id="Trazado_133597" data-name="Trazado 133597" d="M48,128h9.406v1.881H48Z" transform="translate(-28.238 -98.832)" fill="#5c22c3"/>
    <path id="Trazado_133598" data-name="Trazado 133598" d="M48,160h9.406v1.881H48Z" transform="translate(-28.238 -127.07)" fill="#5c22c3"/>
    <path id="Trazado_133599" data-name="Trazado 133599" d="M48,64h3.762v1.881H48Z" transform="translate(-28.238 -42.357)" fill="#5c22c3"/>
    <path id="Trazado_133600" data-name="Trazado 133600" d="M321.583,37.633V22.584a.938.938,0,0,0-.276-.665l-5.643-5.643A.936.936,0,0,0,315,16h-9.406a.94.94,0,0,0-.941.941V37.633a.94.94,0,0,0,.941.941h6.584a2.825,2.825,0,0,1-2.822,2.822h-2.822a4.708,4.708,0,0,0-4.7,4.7V47.59l-2.157-2.157-1.33,1.33,3.762,3.762a.94.94,0,0,0,1.33,0l3.762-3.762-1.33-1.33-2.157,2.157V46.1a2.825,2.825,0,0,1,2.822-2.822h2.822a4.708,4.708,0,0,0,4.7-4.7h6.584A.94.94,0,0,0,321.583,37.633Zm-5.643-18.422,2.432,2.432h-2.432Zm-9.406,17.482V17.881h7.525v4.7a.94.94,0,0,0,.941.941h4.7V36.693Z" transform="translate(-249.148 0)" fill="#5c22c3"/>
    <path id="Trazado_133601" data-name="Trazado 133601" d="M384,96h9.406v1.881H384Z" transform="translate(-324.733 -70.594)" fill="#5c22c3"/>
    <path id="Trazado_133602" data-name="Trazado 133602" d="M384,128h9.406v1.881H384Z" transform="translate(-324.733 -98.832)" fill="#5c22c3"/>
    <path id="Trazado_133603" data-name="Trazado 133603" d="M384,160h9.406v1.881H384Z" transform="translate(-324.733 -127.07)" fill="#5c22c3"/>
    <path id="Trazado_133604" data-name="Trazado 133604" d="M384,64h3.762v1.881H384Z" transform="translate(-324.733 -42.357)" fill="#5c22c3"/>
    <path id="Trazado_133605" data-name="Trazado 133605" d="M216,160h1.881v1.881H216Z" transform="translate(-176.486 -127.07)" fill="#5c22c3"/>
    <path id="Trazado_133606" data-name="Trazado 133606" d="M248,160h1.881v1.881H248Z" transform="translate(-204.723 -127.07)" fill="#5c22c3"/>
    <path id="Trazado_133607" data-name="Trazado 133607" d="M280,160h1.881v1.881H280Z" transform="translate(-232.961 -127.07)" fill="#5c22c3"/>
    <path id="Trazado_133608" data-name="Trazado 133608" d="M264,390.265V384.7l20.693-6.036v5.565Z" transform="translate(-218.842 -320.025)" fill="#ba68c8"/>
    <path id="Trazado_133609" data-name="Trazado 133609" d="M72,378.664,92.693,384.7v5.565L72,384.229Z" transform="translate(-49.416 -320.025)" fill="#ba68c8"/>
  </g>
</svg>
