<svg xmlns="http://www.w3.org/2000/svg" width="466" height="508.947" viewBox="0 0 466 508.947">
  <g id="Grupo_139236" data-name="Grupo 139236" transform="translate(-217 -1790.555)">
    <g id="Grupo_139231" data-name="Grupo 139231" transform="translate(104.761 -520.193)">
      <path id="Trazado_115208" data-name="Trazado 115208" d="M3356.448,620.469a155.665,155.665,0,0,1-25.112-63.259c-8.9-56.618,16.205-105.614,58.694-123.36,18.856-40.188,59.463-62.717,105.656-53.453,62.534,12.536,111.634,78.582,109.667,147.509-.353,12.393-3.033,44.711-20.231,77.1a141.164,141.164,0,0,1-46.022,51.8c-21.966,14.755-47.644,22.707-76.324,23.626-41.153,1.323-81.078-22.866-106.335-59.956Zm22.572-141.054c-.056,1.047-.091,2.074-.122,3.093.033-1.039.068-2.067.122-3.093Z" transform="translate(-3027.171 2046.708)" fill="#64b5f6"/>
      <path id="Trazado_123003" data-name="Trazado 123003" d="M3750.467,349.689l-6.851,11.859-8.309-4.8a1.336,1.336,0,0,0-1.826.489l-8.8,15.24-8.587-4.958a1.337,1.337,0,0,0-1.827.489l-8.069,13.98a1.337,1.337,0,1,0,2.315,1.337l7.4-12.822,8.587,4.958a1.336,1.336,0,0,0,1.826-.489l8.8-15.239,8.309,4.8a1.337,1.337,0,0,0,1.826-.489l6.851-11.859,7.469,4.311a1.337,1.337,0,0,0,1.827-.489l9.466-16.4a1.337,1.337,0,1,0-2.315-1.337l-8.8,15.24-7.469-4.311A1.338,1.338,0,0,0,3750.467,349.689Z" transform="translate(-3202.301 2065.653)" fill="#3a3a3a"/>
    </g>
    <g id="Grupo_139235" data-name="Grupo 139235" transform="translate(-42)">
      <g id="Grupo_139229" data-name="Grupo 139229" transform="translate(-40.258 1747.281)">
        <g id="Grupo_139039" data-name="Grupo 139039" transform="translate(375.326 43.274)">
          <g id="Grupo_139015" data-name="Grupo 139015" transform="translate(0 64.053)">
            <rect id="Rectángulo_42820" data-name="Rectángulo 42820" width="2.066" height="53.702" fill="#150035"/>
          </g>
          <g id="Grupo_139016" data-name="Grupo 139016" transform="translate(0 42.019)">
            <rect id="Rectángulo_42821" data-name="Rectángulo 42821" width="2.066" height="18.793" fill="#150035"/>
          </g>
          <g id="Grupo_139017" data-name="Grupo 139017" transform="translate(1.033 206.651)">
            <rect id="Rectángulo_42822" data-name="Rectángulo 42822" width="2.066" height="18.793" fill="#150035"/>
          </g>
          <g id="Grupo_139018" data-name="Grupo 139018" transform="translate(306.175 155.369)">
            <path id="Trazado_133848" data-name="Trazado 133848" d="M518.373,212.551h2.066V153.373c.011-.105,1.437-19.232-16.618-27.293l-.841,1.886c16.692,7.453,15.457,24.593,15.4,25.319Z" transform="translate(-502.98 -126.08)" fill="#150035"/>
          </g>
          <g id="Grupo_139024" data-name="Grupo 139024" transform="translate(62.921 265.306)">
            <g id="Grupo_139019" data-name="Grupo 139019" transform="translate(0.026 8.948)">
              <path id="Trazado_133849" data-name="Trazado 133849" d="M375.007,216.076l11.271.235a1.085,1.085,0,0,0,.565-.146l43.144-24.91c2.647-1.527,6.65-1.692,8.942-.37l97.862,56.5a1.04,1.04,0,0,0,.2.088l32.486,10.916a1.082,1.082,0,0,1,.739,1.03l0,8.164c.278,1.148-.443,2.432-2.124,3.4l-53.925,31.135c-2.647,1.527-6.65,1.694-8.941.37l-129.8-74.939a2.619,2.619,0,0,1-1.522-2.267v-8.122A1.087,1.087,0,0,1,375.007,216.076Z" transform="translate(-372.866 -188.959)" fill="#150035"/>
              <path id="Trazado_133850" data-name="Trazado 133850" d="M505.184,303.867l-129.8-74.937a3.619,3.619,0,0,1-2.038-3.162v-8.122a2.1,2.1,0,0,1,.634-1.512,1.831,1.831,0,0,1,1.529-.606l11.3.227,43.145-24.908c2.981-1.721,7.359-1.88,9.974-.372l97.871,56.5,32.486,10.914a2.117,2.117,0,0,1,1.445,2.009l-.006,8.053c.323,1.621-.655,3.261-2.638,4.407L515.159,303.5a11.378,11.378,0,0,1-5.565,1.405A8.948,8.948,0,0,1,505.184,303.867Zm-74.2-111.234-43.14,24.906a1.654,1.654,0,0,1-1.107.287l-11.269-.235.021-1.032-.075,9.22a1.7,1.7,0,0,0,1,1.362l129.8,74.939c1.966,1.139,5.59.968,7.907-.371l53.927-31.132c1.182-.685,1.809-1.554,1.636-2.27l-.06-8.456-32.492-10.916a2.222,2.222,0,0,1-.379-.173l-97.862-56.5a6.894,6.894,0,0,0-3.355-.754A9.43,9.43,0,0,0,430.984,192.632Z" transform="translate(-373.348 -189.441)" fill="#150035"/>
            </g>
            <g id="Grupo_139020" data-name="Grupo 139020">
              <path id="Trazado_133851" data-name="Trazado 133851" d="M375.432,222.784l129.8,74.939c2.291,1.325,6.3,1.158,8.94-.37L568.1,266.218c2.648-1.527,2.935-3.839.644-5.162l-129.8-74.939c-2.293-1.323-6.295-1.158-8.942.37l-53.925,31.135C373.428,219.149,373.139,221.461,375.432,222.784Z" transform="translate(-372.852 -184.189)" fill="#fff"/>
              <path id="Trazado_133852" data-name="Trazado 133852" d="M505.2,299.1,375.4,224.16a3.651,3.651,0,0,1-2.064-3.135c0-1.432.985-2.822,2.706-3.814l53.925-31.135c2.974-1.715,7.355-1.88,9.974-.37l129.8,74.941a3.651,3.651,0,0,1,2.062,3.135c0,1.432-.987,2.82-2.7,3.813L515.171,298.73a11.384,11.384,0,0,1-5.565,1.405A8.948,8.948,0,0,1,505.2,299.1ZM431,187.863,377.071,219c-1.047.6-1.672,1.36-1.672,2.025a1.749,1.749,0,0,0,1.03,1.349l129.8,74.939c1.968,1.135,5.591.968,7.907-.37l53.927-31.135c1.049-.6,1.674-1.362,1.674-2.026a1.748,1.748,0,0,0-1.032-1.349l-129.8-74.939a6.873,6.873,0,0,0-3.355-.752A9.422,9.422,0,0,0,431,187.863Z" transform="translate(-373.334 -184.672)" fill="#150035"/>
            </g>
            <g id="Grupo_139021" data-name="Grupo 139021" transform="translate(135.496 115.046)">
              <rect id="Rectángulo_42823" data-name="Rectángulo 42823" width="1.588" height="7.692" fill="#39a1ff"/>
            </g>
            <g id="Grupo_139022" data-name="Grupo 139022" transform="translate(190.732 84.387)">
              <rect id="Rectángulo_42824" data-name="Rectángulo 42824" width="1.588" height="7.693" fill="#39a1ff"/>
            </g>
            <g id="Grupo_139023" data-name="Grupo 139023" transform="translate(6.069 41.321)">
              <rect id="Rectángulo_42825" data-name="Rectángulo 42825" width="1.588" height="7.694" fill="#39a1ff"/>
            </g>
          </g>
          <g id="Grupo_139025" data-name="Grupo 139025" transform="translate(9.386)">
            <path id="Trazado_133853" data-name="Trazado 133853" d="M345.408,49.9a.289.289,0,0,1,.092-.424l9.625-5.344a1.745,1.745,0,0,1,2.025.038L648.1,212.145a6.811,6.811,0,0,1,2.845,5.434V440.211a2.678,2.678,0,0,1-.833,2.2l-10.147,5.625-10.106-12.175,3.974-1.737L357.15,274.382a6.815,6.815,0,0,1-2.844-5.436V61.961Z" transform="translate(-344.32 -42.79)" fill="#ba68c8"/>
            <path id="Trazado_133854" data-name="Trazado 133854" d="M628.671,435.951l3.36-1.471L357.116,275.759a7.841,7.841,0,0,1-3.36-6.329V62.784L345.063,51a1.322,1.322,0,0,1,.418-1.942l9.494-5.256a2.744,2.744,0,0,1,3.173-.043L649.1,211.734a7.84,7.84,0,0,1,3.362,6.329V440.695a3.653,3.653,0,0,1-1.368,3.1l-10.894,6.04ZM356.108,45.515l-8.884,4.933,8.6,11.657V269.43a5.775,5.775,0,0,0,2.327,4.541L636.6,434.735l-4.589,2.006,8.684,10.462,9.276-5.132a1.768,1.768,0,0,0,.424-1.377V218.063a5.777,5.777,0,0,0-2.328-4.541L357.118,45.543a1.156,1.156,0,0,0-.565-.18A.736.736,0,0,0,356.108,45.515Z" transform="translate(-344.802 -43.274)" fill="#150035"/>
          </g>
          <g id="Grupo_139030" data-name="Grupo 139030" transform="translate(8.17 5.642)">
            <g id="Grupo_139026" data-name="Grupo 139026" transform="translate(0.002)">
              <path id="Trazado_133855" data-name="Trazado 133855" d="M347.548,277.391,638.5,445.37c1.572.906,2.844-.056,2.844-2.15V220.588a6.806,6.806,0,0,0-2.844-5.434L347.548,47.175c-1.57-.908-2.843.054-2.843,2.15V271.957A6.812,6.812,0,0,0,347.548,277.391Z" transform="translate(-343.673 -45.797)" fill="#150035"/>
              <path id="Trazado_133856" data-name="Trazado 133856" d="M638.463,446.747,347.514,278.767a7.843,7.843,0,0,1-3.359-6.327V49.809a3.516,3.516,0,0,1,1.5-3.2,2.815,2.815,0,0,1,2.893.15L639.5,214.744a7.837,7.837,0,0,1,3.362,6.327V443.7a3.51,3.51,0,0,1-1.5,3.194,2.476,2.476,0,0,1-1.246.334A3.3,3.3,0,0,1,638.463,446.747ZM346.686,48.4c-.214.126-.465.567-.465,1.407V272.44a5.78,5.78,0,0,0,2.327,4.541L639.5,444.96c.165.094.58.3.829.148.216-.124.467-.567.467-1.405V221.071a5.77,5.77,0,0,0-2.329-4.539L347.514,48.551a1.389,1.389,0,0,0-.612-.2A.427.427,0,0,0,346.686,48.4Z" transform="translate(-344.155 -46.281)" fill="#150035"/>
            </g>
            <g id="Grupo_139027" data-name="Grupo 139027" transform="translate(2.434 3.484)">
              <path id="Trazado_133857" data-name="Trazado 133857" d="M346.836,271.608,636.939,439.1c.462.266.835-.017.835-.632V217.875a2,2,0,0,0-.835-1.6L346.836,48.789c-.462-.266-.835.015-.835.63V270.014A2,2,0,0,0,346.836,271.608Z" transform="translate(-344.969 -47.655)" fill="#f6f6f6"/>
              <path id="Trazado_133858" data-name="Trazado 133858" d="M636.9,440.476,346.8,272.986l0,0a3,3,0,0,1-1.349-2.488V49.9a1.738,1.738,0,0,1,.807-1.57,1.549,1.549,0,0,1,1.576.045l290.1,167.489a3.007,3.007,0,0,1,1.355,2.492V438.95a1.735,1.735,0,0,1-.8,1.569,1.442,1.442,0,0,1-.732.2A1.71,1.71,0,0,1,636.9,440.476ZM347.517,270.5a1.047,1.047,0,0,0,.317.7l289.39,167.079V218.358a1.04,1.04,0,0,0-.321-.7L347.517,50.578Z" transform="translate(-345.451 -48.137)" fill="#150035"/>
            </g>
            <g id="Grupo_139028" data-name="Grupo 139028" transform="translate(0 211.9)">
              <path id="Trazado_133859" data-name="Trazado 133859" d="M344.7,172.9V160.169L641.342,331.432v12.734c0,1.95-1.368,2.739-3.057,1.766L347.761,178.2A6.751,6.751,0,0,1,344.7,172.9Z" transform="translate(-343.671 -158.381)" fill="#150035"/>
              <path id="Trazado_133860" data-name="Trazado 133860" d="M638.252,347.66,347.727,179.925a7.79,7.79,0,0,1-3.573-6.186V159.216L642.341,331.374l.518.3V345a3.167,3.167,0,0,1-1.411,2.873,2.612,2.612,0,0,1-1.308.338A3.786,3.786,0,0,1,638.252,347.66ZM346.22,162.792v10.946a5.714,5.714,0,0,0,2.54,4.4L639.284,345.874a1.271,1.271,0,0,0,1.129.214,1.253,1.253,0,0,0,.379-1.085V332.862Z" transform="translate(-344.154 -159.216)" fill="#150035"/>
            </g>
            <g id="Grupo_139029" data-name="Grupo 139029" transform="translate(130.178 295.911)">
              <rect id="Rectángulo_42826" data-name="Rectángulo 42826" width="1.587" height="43.376" transform="matrix(0.5, -0.866, 0.866, 0.5, 0, 1.374)" fill="#39a1ff"/>
            </g>
          </g>
          <g id="Grupo_139031" data-name="Grupo 139031" transform="translate(305.512 170.642)">
            <rect id="Rectángulo_42827" data-name="Rectángulo 42827" width="11.626" height="2.065" transform="translate(0 5.984) rotate(-30.979)" fill="#150035"/>
          </g>
          <g id="Grupo_139032" data-name="Grupo 139032" transform="translate(27.99 9.679)">
            <rect id="Rectángulo_42828" data-name="Rectángulo 42828" width="11.624" height="2.065" transform="matrix(0.857, -0.515, 0.515, 0.857, 0, 5.983)" fill="#150035"/>
          </g>
          <g id="Grupo_139033" data-name="Grupo 139033" transform="translate(305.512 381.585)">
            <rect id="Rectángulo_42829" data-name="Rectángulo 42829" width="11.626" height="2.066" transform="translate(0 5.983) rotate(-30.975)" fill="#150035"/>
          </g>
          <g id="Grupo_139034" data-name="Grupo 139034" transform="translate(229.821 363.6)">
            <path id="Trazado_133861" data-name="Trazado 133861" d="M468.587,242.1l.8-1.374-6.3-3.666-.8,1.374Z" transform="translate(-462.286 -237.059)" fill="#39a1ff"/>
          </g>
          <g id="Grupo_139035" data-name="Grupo 139035" transform="translate(85.046 308.665)">
            <path id="Trazado_133862" data-name="Trazado 133862" d="M499.822,274.1a5.889,5.889,0,0,0,3.086-.876l11.293-6.961-1.083-1.758-11.293,6.959a3.813,3.813,0,0,1-3.906.064L386.15,207.781l-1.024,1.792L496.9,273.322A5.875,5.875,0,0,0,499.822,274.1Z" transform="translate(-385.126 -207.781)" fill="#150035"/>
          </g>
          <g id="Grupo_139036" data-name="Grupo 139036" transform="translate(306.064 373.919)">
            <rect id="Rectángulo_42830" data-name="Rectángulo 42830" width="11.624" height="2.066" transform="matrix(0.857, -0.515, 0.515, 0.857, 0, 5.983)" fill="#150035"/>
          </g>
          <g id="Grupo_139037" data-name="Grupo 139037" transform="translate(34.415 13.304)">
            <rect id="Rectángulo_42831" data-name="Rectángulo 42831" width="11.625" height="2.065" transform="matrix(0.857, -0.515, 0.515, 0.857, 0, 5.984)" fill="#150035"/>
          </g>
          <g id="Grupo_139038" data-name="Grupo 139038" transform="translate(306.031 181.241)">
            <rect id="Rectángulo_42832" data-name="Rectángulo 42832" width="11.624" height="2.065" transform="matrix(0.857, -0.515, 0.515, 0.857, 0, 5.983)" fill="#150035"/>
          </g>
        </g>
        <g id="Grupo_139136" data-name="Grupo 139136" transform="translate(435.049 252.631)">
          <g id="Grupo_139040" data-name="Grupo 139040" transform="translate(107.496 90.826)">
            <path id="Trazado_133863" data-name="Trazado 133863" d="M431.848,203.3c.313,2.3,2.464,4.569,2.846,4.955.021.021.021.053,0,.051-.383-.056-2.533-.281-2.846,1.661,0,.028-.038.008-.043-.024-.313-2.3-2.482-4.573-2.869-4.961-.019-.021-.021-.053,0-.051.387.058,2.556.287,2.869-1.655C431.81,203.246,431.844,203.267,431.848,203.3Z" transform="translate(-428.921 -203.261)" fill="#150035"/>
          </g>
          <g id="Grupo_139041" data-name="Grupo 139041" transform="translate(99.227 86.053)">
            <path id="Trazado_133864" data-name="Trazado 133864" d="M427.441,200.755c.313,2.3,2.464,4.569,2.846,4.955.021.021.021.053,0,.049-.383-.056-2.533-.28-2.846,1.662,0,.026-.038.008-.043-.024-.313-2.3-2.482-4.574-2.869-4.963-.019-.021-.019-.053,0-.049.386.056,2.555.287,2.869-1.655C427.4,200.7,427.437,200.723,427.441,200.755Z" transform="translate(-424.514 -200.717)" fill="#150035"/>
          </g>
          <g id="Grupo_139042" data-name="Grupo 139042" transform="translate(90.959 81.278)">
            <path id="Trazado_133865" data-name="Trazado 133865" d="M423.034,198.209c.313,2.306,2.464,4.569,2.846,4.957.021.019.021.051,0,.049-.383-.056-2.533-.281-2.846,1.661,0,.028-.038.009-.043-.024-.313-2.3-2.482-4.573-2.869-4.961-.019-.021-.019-.053,0-.049.387.056,2.555.285,2.869-1.657C423,198.159,423.03,198.177,423.034,198.209Z" transform="translate(-420.107 -198.172)" fill="#150035"/>
          </g>
          <g id="Grupo_139043" data-name="Grupo 139043" transform="translate(82.69 76.504)">
            <path id="Trazado_133866" data-name="Trazado 133866" d="M418.627,195.666c.313,2.3,2.464,4.569,2.846,4.955.021.021.021.053,0,.049-.383-.056-2.533-.28-2.846,1.662,0,.028-.038.008-.043-.024-.313-2.3-2.482-4.574-2.869-4.963-.019-.019-.019-.051,0-.049.387.058,2.556.287,2.869-1.655C418.589,195.613,418.623,195.634,418.627,195.666Z" transform="translate(-415.7 -195.628)" fill="#150035"/>
          </g>
          <g id="Grupo_139044" data-name="Grupo 139044" transform="translate(74.42 71.73)">
            <path id="Trazado_133867" data-name="Trazado 133867" d="M414.22,193.122c.313,2.3,2.464,4.567,2.846,4.955.021.019.021.051,0,.049-.383-.056-2.533-.28-2.846,1.662,0,.026-.037.008-.043-.026-.313-2.3-2.482-4.573-2.869-4.961-.021-.021-.021-.053,0-.049.387.056,2.556.287,2.869-1.655C414.183,193.069,414.216,193.088,414.22,193.122Z" transform="translate(-411.293 -193.084)" fill="#150035"/>
          </g>
          <g id="Grupo_139045" data-name="Grupo 139045" transform="translate(66.151 66.956)">
            <path id="Trazado_133868" data-name="Trazado 133868" d="M409.813,190.577c.313,2.3,2.464,4.569,2.846,4.955.021.021.021.053,0,.049-.383-.054-2.533-.28-2.846,1.662,0,.028-.038.008-.043-.024-.313-2.3-2.482-4.573-2.869-4.961-.021-.021-.021-.053,0-.049.387.056,2.556.285,2.869-1.657C409.776,190.524,409.809,190.545,409.813,190.577Z" transform="translate(-406.886 -190.539)" fill="#150035"/>
          </g>
          <g id="Grupo_139046" data-name="Grupo 139046" transform="translate(57.883 62.182)">
            <path id="Trazado_133869" data-name="Trazado 133869" d="M405.406,188.033c.313,2.3,2.464,4.569,2.846,4.955.021.021.021.053,0,.049-.383-.056-2.533-.28-2.846,1.662,0,.026-.038.008-.043-.024-.313-2.3-2.482-4.574-2.869-4.963-.019-.021-.019-.051,0-.049.387.056,2.556.287,2.869-1.655C405.368,187.98,405.4,188,405.406,188.033Z" transform="translate(-402.479 -187.995)" fill="#150035"/>
          </g>
          <g id="Grupo_139047" data-name="Grupo 139047" transform="translate(49.614 57.408)">
            <path id="Trazado_133870" data-name="Trazado 133870" d="M401,185.487c.313,2.306,2.464,4.569,2.846,4.957.021.019.021.051,0,.049-.383-.056-2.533-.281-2.846,1.661,0,.028-.039.009-.043-.024-.313-2.3-2.482-4.573-2.869-4.961-.019-.021-.019-.053,0-.049.387.056,2.556.285,2.869-1.657C400.959,185.437,400.995,185.455,401,185.487Z" transform="translate(-398.072 -185.45)" fill="#150035"/>
          </g>
          <g id="Grupo_139048" data-name="Grupo 139048" transform="translate(41.346 52.634)">
            <path id="Trazado_133871" data-name="Trazado 133871" d="M396.592,182.944c.313,2.3,2.464,4.569,2.846,4.955.021.021.021.053,0,.049-.383-.056-2.533-.28-2.846,1.662,0,.028-.039.007-.043-.024-.313-2.3-2.482-4.574-2.869-4.963-.019-.019-.019-.051,0-.049.387.058,2.556.287,2.869-1.655C396.552,182.891,396.588,182.912,396.592,182.944Z" transform="translate(-393.665 -182.906)" fill="#150035"/>
          </g>
          <g id="Grupo_139049" data-name="Grupo 139049" transform="translate(33.075 47.86)">
            <path id="Trazado_133872" data-name="Trazado 133872" d="M392.185,180.4c.313,2.3,2.464,4.567,2.846,4.955.021.021.021.051,0,.049-.383-.056-2.533-.28-2.846,1.662,0,.026-.038.007-.043-.024-.313-2.306-2.482-4.574-2.869-4.963-.021-.021-.021-.053,0-.049.387.056,2.556.285,2.869-1.655C392.148,180.347,392.181,180.366,392.185,180.4Z" transform="translate(-389.258 -180.362)" fill="#150035"/>
          </g>
          <g id="Grupo_139050" data-name="Grupo 139050" transform="translate(190.185 138.566)">
            <path id="Trazado_133873" data-name="Trazado 133873" d="M475.918,228.743c.313,2.3,2.464,4.569,2.846,4.955.021.021.021.053,0,.049-.383-.054-2.533-.28-2.846,1.662,0,.028-.038.007-.041-.024-.315-2.3-2.484-4.573-2.871-4.963-.019-.019-.019-.051,0-.049.387.058,2.556.287,2.871-1.655C475.88,228.69,475.914,228.711,475.918,228.743Z" transform="translate(-472.991 -228.705)" fill="#150035"/>
          </g>
          <g id="Grupo_139051" data-name="Grupo 139051" transform="translate(181.916 133.793)">
            <path id="Trazado_133874" data-name="Trazado 133874" d="M471.511,226.2c.313,2.3,2.464,4.569,2.848,4.955.019.021.019.053,0,.049-.383-.056-2.533-.28-2.846,1.662,0,.026-.038.008-.043-.024-.313-2.306-2.482-4.574-2.869-4.963-.019-.021-.019-.053,0-.049.387.056,2.556.285,2.869-1.655C471.473,226.146,471.507,226.165,471.511,226.2Z" transform="translate(-468.584 -226.161)" fill="#150035"/>
          </g>
          <g id="Grupo_139052" data-name="Grupo 139052" transform="translate(173.647 129.019)">
            <path id="Trazado_133875" data-name="Trazado 133875" d="M467.1,223.653c.313,2.306,2.464,4.569,2.846,4.957.021.019.021.051,0,.049-.383-.056-2.533-.281-2.846,1.661,0,.028-.038.009-.041-.024-.315-2.3-2.484-4.573-2.871-4.961-.019-.021-.019-.053,0-.049.386.056,2.555.285,2.871-1.657C467.066,223.6,467.1,223.621,467.1,223.653Z" transform="translate(-464.177 -223.616)" fill="#150035"/>
          </g>
          <g id="Grupo_139053" data-name="Grupo 139053" transform="translate(165.378 124.245)">
            <path id="Trazado_133876" data-name="Trazado 133876" d="M462.7,221.11c.313,2.3,2.464,4.569,2.846,4.955.021.021.021.053,0,.049-.383-.056-2.533-.28-2.846,1.662,0,.028-.038.007-.043-.024-.313-2.3-2.482-4.574-2.869-4.963-.019-.019-.019-.051,0-.049.386.056,2.556.287,2.869-1.655C462.659,221.057,462.693,221.078,462.7,221.11Z" transform="translate(-459.77 -221.072)" fill="#150035"/>
          </g>
          <g id="Grupo_139054" data-name="Grupo 139054" transform="translate(157.109 119.47)">
            <path id="Trazado_133877" data-name="Trazado 133877" d="M458.29,218.566c.313,2.3,2.464,4.567,2.846,4.955.021.019.021.051,0,.049-.383-.056-2.533-.281-2.846,1.662,0,.026-.038.007-.043-.026-.313-2.3-2.482-4.573-2.869-4.961-.019-.021-.019-.053,0-.049.386.056,2.555.285,2.869-1.657C458.252,218.513,458.286,218.532,458.29,218.566Z" transform="translate(-455.363 -218.527)" fill="#150035"/>
          </g>
          <g id="Grupo_139055" data-name="Grupo 139055" transform="translate(148.841 114.696)">
            <path id="Trazado_133878" data-name="Trazado 133878" d="M453.882,216.021c.313,2.3,2.464,4.569,2.846,4.957.021.019.021.051,0,.047-.383-.054-2.533-.28-2.846,1.662,0,.028-.038.007-.043-.024-.313-2.3-2.482-4.573-2.869-4.963-.019-.019-.019-.051,0-.049.387.058,2.555.287,2.869-1.655C453.845,215.968,453.879,215.989,453.882,216.021Z" transform="translate(-450.956 -215.983)" fill="#150035"/>
          </g>
          <g id="Grupo_139056" data-name="Grupo 139056" transform="translate(140.572 109.923)">
            <path id="Trazado_133879" data-name="Trazado 133879" d="M449.476,213.477c.313,2.3,2.464,4.569,2.846,4.955.021.021.021.053,0,.049-.383-.056-2.533-.28-2.846,1.662,0,.026-.038.008-.041-.024-.315-2.3-2.484-4.574-2.871-4.963-.019-.021-.019-.053,0-.049.387.056,2.556.287,2.871-1.655C449.438,213.424,449.472,213.445,449.476,213.477Z" transform="translate(-446.549 -213.439)" fill="#150035"/>
          </g>
          <g id="Grupo_139057" data-name="Grupo 139057" transform="translate(132.303 105.149)">
            <path id="Trazado_133880" data-name="Trazado 133880" d="M445.069,210.931c.313,2.306,2.464,4.569,2.846,4.957.021.019.021.051,0,.049-.383-.056-2.533-.281-2.846,1.661,0,.028-.038.007-.043-.024-.313-2.3-2.482-4.573-2.869-4.961-.019-.021-.019-.053,0-.049.387.056,2.556.285,2.869-1.657C445.031,210.881,445.065,210.9,445.069,210.931Z" transform="translate(-442.142 -210.894)" fill="#150035"/>
          </g>
          <g id="Grupo_139058" data-name="Grupo 139058" transform="translate(124.034 100.374)">
            <path id="Trazado_133881" data-name="Trazado 133881" d="M440.662,208.388c.313,2.3,2.464,4.569,2.846,4.955.021.021.021.053,0,.049-.383-.056-2.533-.28-2.846,1.662,0,.028-.038.008-.043-.024-.313-2.3-2.482-4.574-2.869-4.963-.019-.019-.019-.051,0-.049.387.058,2.556.287,2.869-1.655C440.624,208.335,440.658,208.356,440.662,208.388Z" transform="translate(-437.735 -208.35)" fill="#150035"/>
          </g>
          <g id="Grupo_139059" data-name="Grupo 139059" transform="translate(115.765 95.6)">
            <path id="Trazado_133882" data-name="Trazado 133882" d="M436.255,205.844c.313,2.3,2.464,4.567,2.846,4.955.021.019.021.051,0,.049-.383-.056-2.533-.28-2.846,1.662,0,.026-.038.008-.043-.026-.313-2.3-2.482-4.573-2.869-4.961-.019-.021-.019-.053,0-.049.386.056,2.556.285,2.869-1.657C436.217,205.792,436.251,205.81,436.255,205.844Z" transform="translate(-433.328 -205.805)" fill="#150035"/>
          </g>
          <g id="Grupo_139060" data-name="Grupo 139060" transform="translate(107.496 81.239)">
            <path id="Trazado_133883" data-name="Trazado 133883" d="M431.848,198.188c.313,2.3,2.464,4.569,2.846,4.957.021.019.021.051,0,.049-.383-.056-2.533-.281-2.846,1.66,0,.028-.038.008-.043-.024-.313-2.3-2.482-4.573-2.869-4.961-.019-.021-.021-.053,0-.051.387.058,2.556.287,2.869-1.655C431.81,198.138,431.844,198.156,431.848,198.188Z" transform="translate(-428.921 -198.151)" fill="#150035"/>
          </g>
          <g id="Grupo_139061" data-name="Grupo 139061" transform="translate(99.227 76.465)">
            <path id="Trazado_133884" data-name="Trazado 133884" d="M427.441,195.645c.313,2.3,2.464,4.569,2.846,4.955.021.021.021.053,0,.049-.383-.056-2.533-.28-2.846,1.662,0,.026-.038.008-.043-.024-.313-2.3-2.482-4.574-2.869-4.963-.019-.019-.019-.051,0-.049.386.056,2.555.287,2.869-1.655C427.4,195.592,427.437,195.613,427.441,195.645Z" transform="translate(-424.514 -195.607)" fill="#150035"/>
          </g>
          <g id="Grupo_139062" data-name="Grupo 139062" transform="translate(90.959 71.69)">
            <path id="Trazado_133885" data-name="Trazado 133885" d="M423.034,193.1c.313,2.306,2.464,4.569,2.846,4.957.021.019.021.051,0,.049-.383-.056-2.533-.281-2.846,1.662,0,.026-.038.008-.043-.026-.313-2.3-2.482-4.573-2.869-4.961-.019-.021-.019-.053,0-.049.387.056,2.555.285,2.869-1.657C423,193.049,423.03,193.067,423.034,193.1Z" transform="translate(-420.107 -193.062)" fill="#150035"/>
          </g>
          <g id="Grupo_139063" data-name="Grupo 139063" transform="translate(82.69 66.916)">
            <path id="Trazado_133886" data-name="Trazado 133886" d="M418.627,190.556c.313,2.3,2.464,4.569,2.846,4.955.021.021.021.053,0,.049-.383-.054-2.533-.28-2.846,1.662,0,.028-.038.008-.043-.024-.313-2.3-2.482-4.574-2.869-4.963-.019-.019-.019-.051,0-.049.387.058,2.556.287,2.869-1.655C418.589,190.5,418.623,190.524,418.627,190.556Z" transform="translate(-415.7 -190.518)" fill="#150035"/>
          </g>
          <g id="Grupo_139064" data-name="Grupo 139064" transform="translate(74.42 62.143)">
            <path id="Trazado_133887" data-name="Trazado 133887" d="M414.22,188.012c.313,2.3,2.464,4.567,2.846,4.955.021.019.021.051,0,.049-.383-.056-2.533-.28-2.846,1.662,0,.026-.037.007-.043-.024-.313-2.306-2.482-4.574-2.869-4.963-.021-.021-.021-.053,0-.049.387.056,2.556.287,2.869-1.655C414.183,187.959,414.216,187.978,414.22,188.012Z" transform="translate(-411.293 -187.974)" fill="#150035"/>
          </g>
          <g id="Grupo_139065" data-name="Grupo 139065" transform="translate(66.151 57.368)">
            <path id="Trazado_133888" data-name="Trazado 133888" d="M409.813,185.467c.313,2.3,2.464,4.569,2.846,4.957.021.019.021.051,0,.049-.383-.056-2.533-.281-2.846,1.661,0,.028-.038.008-.043-.024-.313-2.3-2.482-4.573-2.869-4.961-.021-.021-.021-.053,0-.049.387.056,2.556.285,2.869-1.657C409.776,185.414,409.809,185.435,409.813,185.467Z" transform="translate(-406.886 -185.429)" fill="#150035"/>
          </g>
          <g id="Grupo_139066" data-name="Grupo 139066" transform="translate(57.883 52.594)">
            <path id="Trazado_133889" data-name="Trazado 133889" d="M405.406,182.923c.313,2.3,2.464,4.569,2.846,4.955.021.021.021.053,0,.049-.383-.056-2.533-.28-2.846,1.662,0,.026-.038.008-.043-.024-.313-2.3-2.482-4.574-2.869-4.963-.019-.019-.019-.051,0-.049.387.056,2.556.287,2.869-1.655C405.368,182.87,405.4,182.891,405.406,182.923Z" transform="translate(-402.479 -182.885)" fill="#150035"/>
          </g>
          <g id="Grupo_139067" data-name="Grupo 139067" transform="translate(49.614 47.82)">
            <path id="Trazado_133890" data-name="Trazado 133890" d="M401,180.379c.313,2.3,2.464,4.567,2.846,4.955.021.019.021.051,0,.049-.383-.056-2.533-.281-2.846,1.662,0,.026-.039.007-.043-.026-.313-2.3-2.482-4.573-2.869-4.961-.019-.021-.019-.053,0-.049.387.056,2.556.285,2.869-1.657C400.959,180.326,400.995,180.345,401,180.379Z" transform="translate(-398.072 -180.34)" fill="#150035"/>
          </g>
          <g id="Grupo_139068" data-name="Grupo 139068" transform="translate(41.346 43.046)">
            <path id="Trazado_133891" data-name="Trazado 133891" d="M396.592,177.834c.313,2.3,2.464,4.569,2.846,4.955.021.021.021.053,0,.049-.383-.054-2.533-.28-2.846,1.662,0,.028-.039.007-.043-.024-.313-2.3-2.482-4.574-2.869-4.963-.019-.019-.019-.051,0-.049.387.058,2.556.287,2.869-1.655C396.552,177.781,396.588,177.8,396.592,177.834Z" transform="translate(-393.665 -177.796)" fill="#150035"/>
          </g>
          <g id="Grupo_139069" data-name="Grupo 139069" transform="translate(33.075 38.272)">
            <path id="Trazado_133892" data-name="Trazado 133892" d="M392.185,175.29c.313,2.3,2.464,4.569,2.846,4.955.021.021.021.051,0,.049-.383-.056-2.533-.28-2.846,1.662,0,.026-.038.008-.043-.024-.313-2.306-2.482-4.574-2.869-4.963-.021-.021-.021-.053,0-.049.387.056,2.556.287,2.869-1.655C392.148,175.237,392.181,175.256,392.185,175.29Z" transform="translate(-389.258 -175.252)" fill="#150035"/>
          </g>
          <g id="Grupo_139070" data-name="Grupo 139070" transform="translate(190.185 128.979)">
            <path id="Trazado_133893" data-name="Trazado 133893" d="M475.918,223.633c.313,2.3,2.464,4.569,2.846,4.955.021.021.021.053,0,.049-.383-.054-2.533-.28-2.846,1.662,0,.028-.038.007-.041-.024-.315-2.3-2.484-4.573-2.871-4.961-.019-.021-.019-.053,0-.051.387.058,2.556.287,2.871-1.655C475.88,223.58,475.914,223.6,475.918,223.633Z" transform="translate(-472.991 -223.595)" fill="#150035"/>
          </g>
          <g id="Grupo_139071" data-name="Grupo 139071" transform="translate(181.916 124.205)">
            <path id="Trazado_133894" data-name="Trazado 133894" d="M471.511,221.089c.313,2.3,2.464,4.569,2.848,4.955.019.021.019.053,0,.049-.383-.056-2.533-.28-2.846,1.662,0,.026-.038.008-.043-.024-.313-2.3-2.482-4.574-2.869-4.963-.019-.019-.019-.051,0-.049.387.056,2.556.287,2.869-1.655C471.473,221.036,471.507,221.055,471.511,221.089Z" transform="translate(-468.584 -221.051)" fill="#150035"/>
          </g>
          <g id="Grupo_139072" data-name="Grupo 139072" transform="translate(173.647 119.431)">
            <path id="Trazado_133895" data-name="Trazado 133895" d="M467.1,218.543c.313,2.306,2.464,4.569,2.846,4.957.021.019.021.051,0,.049-.383-.056-2.533-.281-2.846,1.661,0,.028-.038.009-.041-.024-.315-2.3-2.484-4.573-2.871-4.961-.019-.021-.019-.053,0-.049.386.056,2.555.285,2.871-1.657C467.066,218.493,467.1,218.511,467.1,218.543Z" transform="translate(-464.177 -218.506)" fill="#150035"/>
          </g>
          <g id="Grupo_139073" data-name="Grupo 139073" transform="translate(165.378 114.657)">
            <path id="Trazado_133896" data-name="Trazado 133896" d="M462.7,216c.313,2.3,2.464,4.569,2.846,4.955.021.021.021.053,0,.049-.383-.054-2.533-.28-2.846,1.662,0,.028-.038.008-.043-.024-.313-2.3-2.482-4.574-2.869-4.963-.019-.019-.019-.051,0-.049.386.058,2.556.287,2.869-1.655C462.659,215.947,462.693,215.968,462.7,216Z" transform="translate(-459.77 -215.962)" fill="#150035"/>
          </g>
          <g id="Grupo_139074" data-name="Grupo 139074" transform="translate(157.109 109.882)">
            <path id="Trazado_133897" data-name="Trazado 133897" d="M458.29,213.456c.313,2.3,2.464,4.567,2.846,4.955.021.019.021.051,0,.049-.383-.056-2.533-.28-2.846,1.662,0,.026-.038.008-.043-.026-.313-2.3-2.482-4.573-2.869-4.961-.019-.021-.019-.053,0-.049.386.056,2.555.285,2.869-1.657C458.252,213.4,458.286,213.422,458.29,213.456Z" transform="translate(-455.363 -213.417)" fill="#150035"/>
          </g>
          <g id="Grupo_139075" data-name="Grupo 139075" transform="translate(148.841 105.109)">
            <path id="Trazado_133898" data-name="Trazado 133898" d="M453.882,210.91c.313,2.3,2.464,4.569,2.846,4.957.021.019.021.051,0,.047-.383-.054-2.533-.28-2.846,1.662,0,.028-.038.008-.043-.024-.313-2.3-2.482-4.573-2.869-4.961-.019-.021-.019-.053,0-.049.387.056,2.555.285,2.869-1.657C453.845,210.86,453.879,210.878,453.882,210.91Z" transform="translate(-450.956 -210.873)" fill="#150035"/>
          </g>
          <g id="Grupo_139076" data-name="Grupo 139076" transform="translate(140.572 100.335)">
            <path id="Trazado_133899" data-name="Trazado 133899" d="M449.476,208.367c.313,2.3,2.464,4.569,2.846,4.955.021.021.021.053,0,.049-.383-.056-2.533-.28-2.846,1.662,0,.028-.038.008-.041-.024-.315-2.3-2.484-4.574-2.871-4.963-.019-.019-.019-.051,0-.049.387.056,2.556.287,2.871-1.655C449.438,208.314,449.472,208.335,449.476,208.367Z" transform="translate(-446.549 -208.329)" fill="#150035"/>
          </g>
          <g id="Grupo_139077" data-name="Grupo 139077" transform="translate(132.303 95.561)">
            <path id="Trazado_133900" data-name="Trazado 133900" d="M445.069,205.821c.313,2.306,2.464,4.569,2.846,4.957.021.019.021.051,0,.049-.383-.056-2.533-.281-2.846,1.661,0,.028-.038.009-.043-.024-.313-2.3-2.482-4.573-2.869-4.961-.019-.021-.019-.053,0-.049.387.056,2.556.285,2.869-1.657C445.031,205.771,445.065,205.789,445.069,205.821Z" transform="translate(-442.142 -205.784)" fill="#150035"/>
          </g>
          <g id="Grupo_139078" data-name="Grupo 139078" transform="translate(124.034 90.786)">
            <path id="Trazado_133901" data-name="Trazado 133901" d="M440.662,203.278c.313,2.3,2.464,4.569,2.846,4.955.021.021.021.053,0,.049-.383-.054-2.533-.28-2.846,1.662,0,.028-.038.008-.043-.024-.313-2.3-2.482-4.574-2.869-4.963-.019-.019-.019-.051,0-.049.387.058,2.556.287,2.869-1.655C440.624,203.225,440.658,203.246,440.662,203.278Z" transform="translate(-437.735 -203.24)" fill="#150035"/>
          </g>
          <g id="Grupo_139079" data-name="Grupo 139079" transform="translate(115.765 86.012)">
            <path id="Trazado_133902" data-name="Trazado 133902" d="M436.255,200.734c.313,2.3,2.464,4.567,2.846,4.955.021.021.021.051,0,.049-.383-.056-2.533-.28-2.846,1.662,0,.026-.038.008-.043-.024-.313-2.306-2.482-4.574-2.869-4.963-.019-.021-.019-.053,0-.049.386.056,2.556.285,2.869-1.657C436.217,200.682,436.251,200.7,436.255,200.734Z" transform="translate(-433.328 -200.695)" fill="#150035"/>
          </g>
          <g id="Grupo_139080" data-name="Grupo 139080" transform="translate(107.496 71.651)">
            <path id="Trazado_133903" data-name="Trazado 133903" d="M431.848,193.078c.313,2.3,2.464,4.569,2.846,4.957.021.019.021.051,0,.049-.383-.056-2.533-.281-2.846,1.661,0,.028-.038.007-.043-.024-.313-2.3-2.482-4.573-2.869-4.961-.019-.021-.021-.053,0-.049.387.056,2.556.285,2.869-1.657C431.81,193.028,431.844,193.046,431.848,193.078Z" transform="translate(-428.921 -193.041)" fill="#150035"/>
          </g>
          <g id="Grupo_139081" data-name="Grupo 139081" transform="translate(99.227 66.877)">
            <path id="Trazado_133904" data-name="Trazado 133904" d="M427.441,190.535c.313,2.3,2.464,4.569,2.846,4.955.021.021.021.053,0,.049-.383-.056-2.533-.28-2.846,1.662,0,.028-.038.007-.043-.024-.313-2.3-2.482-4.574-2.869-4.963-.019-.019-.019-.051,0-.049.386.056,2.555.287,2.869-1.655C427.4,190.482,427.437,190.5,427.441,190.535Z" transform="translate(-424.514 -190.497)" fill="#150035"/>
          </g>
          <g id="Grupo_139082" data-name="Grupo 139082" transform="translate(90.959 62.103)">
            <path id="Trazado_133905" data-name="Trazado 133905" d="M423.034,187.991c.313,2.3,2.464,4.567,2.846,4.955.021.019.021.051,0,.049-.383-.056-2.533-.281-2.846,1.662,0,.026-.038.007-.043-.026-.313-2.3-2.482-4.573-2.869-4.961-.019-.021-.019-.053,0-.049.387.056,2.555.285,2.869-1.657C423,187.938,423.03,187.957,423.034,187.991Z" transform="translate(-420.107 -187.952)" fill="#150035"/>
          </g>
          <g id="Grupo_139083" data-name="Grupo 139083" transform="translate(82.69 57.328)">
            <path id="Trazado_133906" data-name="Trazado 133906" d="M418.627,185.446c.313,2.3,2.464,4.569,2.846,4.955.021.021.021.053,0,.049-.383-.054-2.533-.28-2.846,1.662,0,.028-.038.007-.043-.024-.313-2.3-2.482-4.573-2.869-4.963-.019-.019-.019-.051,0-.049.387.058,2.556.287,2.869-1.655C418.589,185.393,418.623,185.414,418.627,185.446Z" transform="translate(-415.7 -185.408)" fill="#150035"/>
          </g>
          <g id="Grupo_139084" data-name="Grupo 139084" transform="translate(74.42 52.555)">
            <path id="Trazado_133907" data-name="Trazado 133907" d="M414.22,182.9c.313,2.3,2.464,4.567,2.846,4.955.021.021.021.053,0,.049-.383-.056-2.533-.28-2.846,1.662,0,.026-.037.007-.043-.024-.313-2.306-2.482-4.574-2.869-4.963-.021-.021-.021-.053,0-.049.387.056,2.556.287,2.869-1.655C414.183,182.849,414.216,182.87,414.22,182.9Z" transform="translate(-411.293 -182.864)" fill="#150035"/>
          </g>
          <g id="Grupo_139085" data-name="Grupo 139085" transform="translate(66.151 47.781)">
            <path id="Trazado_133908" data-name="Trazado 133908" d="M409.813,180.356c.313,2.3,2.464,4.569,2.846,4.957.021.019.021.051,0,.049-.383-.056-2.533-.281-2.846,1.661,0,.028-.038.007-.043-.024-.313-2.3-2.482-4.573-2.869-4.961-.021-.021-.021-.053,0-.049.387.056,2.556.285,2.869-1.657C409.776,180.306,409.809,180.324,409.813,180.356Z" transform="translate(-406.886 -180.319)" fill="#150035"/>
          </g>
          <g id="Grupo_139086" data-name="Grupo 139086" transform="translate(57.883 43.007)">
            <path id="Trazado_133909" data-name="Trazado 133909" d="M405.406,177.813c.313,2.3,2.464,4.569,2.846,4.955.021.021.021.053,0,.049-.383-.056-2.533-.28-2.846,1.662,0,.026-.038.007-.043-.024-.313-2.3-2.482-4.574-2.869-4.963-.019-.019-.019-.051,0-.049.387.056,2.556.287,2.869-1.655C405.368,177.76,405.4,177.781,405.406,177.813Z" transform="translate(-402.479 -177.775)" fill="#150035"/>
          </g>
          <g id="Grupo_139087" data-name="Grupo 139087" transform="translate(49.614 38.232)">
            <path id="Trazado_133910" data-name="Trazado 133910" d="M401,175.269c.313,2.3,2.464,4.567,2.846,4.955.021.019.021.051,0,.049-.383-.056-2.533-.281-2.846,1.662,0,.026-.039.007-.043-.026-.313-2.3-2.482-4.573-2.869-4.961-.019-.021-.019-.053,0-.049.387.056,2.556.285,2.869-1.657C400.959,175.217,400.995,175.235,401,175.269Z" transform="translate(-398.072 -175.23)" fill="#150035"/>
          </g>
          <g id="Grupo_139088" data-name="Grupo 139088" transform="translate(41.346 33.458)">
            <path id="Trazado_133911" data-name="Trazado 133911" d="M396.592,172.724c.313,2.3,2.464,4.569,2.846,4.955.021.021.021.053,0,.049-.383-.054-2.533-.28-2.846,1.662,0,.028-.039.007-.043-.024-.313-2.3-2.482-4.574-2.869-4.963-.019-.019-.019-.051,0-.049.387.058,2.556.287,2.869-1.655C396.552,172.671,396.588,172.692,396.592,172.724Z" transform="translate(-393.665 -172.686)" fill="#150035"/>
          </g>
          <g id="Grupo_139089" data-name="Grupo 139089" transform="translate(33.075 28.684)">
            <path id="Trazado_133912" data-name="Trazado 133912" d="M392.185,170.18c.313,2.3,2.464,4.569,2.846,4.955.021.021.021.053,0,.049-.383-.056-2.533-.28-2.846,1.662,0,.026-.038.007-.043-.024-.313-2.306-2.482-4.574-2.869-4.963-.021-.021-.021-.053,0-.049.387.056,2.556.287,2.869-1.655C392.148,170.127,392.181,170.146,392.185,170.18Z" transform="translate(-389.258 -170.142)" fill="#150035"/>
          </g>
          <g id="Grupo_139090" data-name="Grupo 139090" transform="translate(190.185 119.391)">
            <path id="Trazado_133913" data-name="Trazado 133913" d="M475.918,218.523c.313,2.3,2.464,4.569,2.846,4.955.021.021.021.053,0,.049-.383-.054-2.533-.28-2.846,1.662,0,.028-.038.008-.041-.024-.315-2.3-2.484-4.573-2.871-4.961-.019-.021-.019-.053,0-.051.387.058,2.556.287,2.871-1.655C475.88,218.47,475.914,218.491,475.918,218.523Z" transform="translate(-472.991 -218.485)" fill="#150035"/>
          </g>
          <g id="Grupo_139091" data-name="Grupo 139091" transform="translate(181.916 114.617)">
            <path id="Trazado_133914" data-name="Trazado 133914" d="M471.511,215.979c.313,2.3,2.464,4.569,2.848,4.955.019.021.019.053,0,.049-.383-.056-2.533-.28-2.846,1.662,0,.026-.038.008-.043-.024-.313-2.3-2.482-4.574-2.869-4.963-.019-.019-.019-.051,0-.049.387.056,2.556.287,2.869-1.655C471.473,215.926,471.507,215.945,471.511,215.979Z" transform="translate(-468.584 -215.941)" fill="#150035"/>
          </g>
          <g id="Grupo_139092" data-name="Grupo 139092" transform="translate(173.647 109.843)">
            <path id="Trazado_133915" data-name="Trazado 133915" d="M467.1,213.433c.313,2.306,2.464,4.569,2.846,4.957.021.019.021.051,0,.049-.383-.056-2.533-.281-2.846,1.661,0,.028-.038.009-.041-.024-.315-2.3-2.484-4.573-2.871-4.961-.019-.021-.019-.053,0-.049.386.056,2.555.285,2.871-1.657C467.066,213.383,467.1,213.4,467.1,213.433Z" transform="translate(-464.177 -213.396)" fill="#150035"/>
          </g>
          <g id="Grupo_139093" data-name="Grupo 139093" transform="translate(165.378 105.069)">
            <path id="Trazado_133916" data-name="Trazado 133916" d="M462.7,210.89c.313,2.3,2.464,4.569,2.846,4.955.021.021.021.053,0,.049-.383-.054-2.533-.28-2.846,1.662,0,.028-.038.008-.043-.024-.313-2.3-2.482-4.574-2.869-4.963-.019-.019-.019-.051,0-.049.386.058,2.556.287,2.869-1.655C462.659,210.837,462.693,210.858,462.7,210.89Z" transform="translate(-459.77 -210.852)" fill="#150035"/>
          </g>
          <g id="Grupo_139094" data-name="Grupo 139094" transform="translate(157.109 100.295)">
            <path id="Trazado_133917" data-name="Trazado 133917" d="M458.29,208.346c.313,2.3,2.464,4.567,2.846,4.955.021.021.021.051,0,.049-.383-.056-2.533-.28-2.846,1.662,0,.026-.038.008-.043-.024-.313-2.306-2.482-4.574-2.869-4.963-.019-.021-.019-.053,0-.049.386.056,2.555.285,2.869-1.655C458.252,208.293,458.286,208.312,458.29,208.346Z" transform="translate(-455.363 -208.308)" fill="#150035"/>
          </g>
          <g id="Grupo_139095" data-name="Grupo 139095" transform="translate(148.841 95.521)">
            <path id="Trazado_133918" data-name="Trazado 133918" d="M453.882,205.8c.313,2.3,2.464,4.569,2.846,4.957.021.019.021.051,0,.047-.383-.054-2.533-.28-2.846,1.662,0,.028-.038.008-.043-.024-.313-2.3-2.482-4.573-2.869-4.961-.019-.021-.019-.053,0-.049.387.056,2.555.285,2.869-1.657C453.845,205.75,453.879,205.768,453.882,205.8Z" transform="translate(-450.956 -205.763)" fill="#150035"/>
          </g>
          <g id="Grupo_139096" data-name="Grupo 139096" transform="translate(140.572 90.747)">
            <path id="Trazado_133919" data-name="Trazado 133919" d="M449.476,203.257c.313,2.3,2.464,4.569,2.846,4.955.021.021.021.053,0,.049-.383-.056-2.533-.28-2.846,1.662,0,.028-.038.008-.041-.024-.315-2.3-2.484-4.574-2.871-4.963-.019-.019-.019-.051,0-.049.387.056,2.556.287,2.871-1.655C449.438,203.2,449.472,203.225,449.476,203.257Z" transform="translate(-446.549 -203.219)" fill="#150035"/>
          </g>
          <g id="Grupo_139097" data-name="Grupo 139097" transform="translate(132.303 85.973)">
            <path id="Trazado_133920" data-name="Trazado 133920" d="M445.069,200.713c.313,2.3,2.464,4.567,2.846,4.955.021.019.021.051,0,.049-.383-.056-2.533-.281-2.846,1.661,0,.028-.038.009-.043-.024-.313-2.3-2.482-4.573-2.869-4.961-.019-.021-.019-.053,0-.049.387.056,2.556.285,2.869-1.657C445.031,200.661,445.065,200.679,445.069,200.713Z" transform="translate(-442.142 -200.674)" fill="#150035"/>
          </g>
          <g id="Grupo_139098" data-name="Grupo 139098" transform="translate(124.034 81.199)">
            <path id="Trazado_133921" data-name="Trazado 133921" d="M440.662,198.168c.313,2.3,2.464,4.569,2.846,4.955.021.021.021.053,0,.049-.383-.054-2.533-.28-2.846,1.662,0,.028-.038.008-.043-.024-.313-2.3-2.482-4.574-2.869-4.963-.019-.019-.019-.051,0-.049.387.058,2.556.287,2.869-1.655C440.624,198.115,440.658,198.136,440.662,198.168Z" transform="translate(-437.735 -198.13)" fill="#150035"/>
          </g>
          <g id="Grupo_139099" data-name="Grupo 139099" transform="translate(115.765 76.424)">
            <path id="Trazado_133922" data-name="Trazado 133922" d="M436.255,195.624c.313,2.3,2.464,4.569,2.846,4.955.021.021.021.051,0,.049-.383-.056-2.533-.28-2.846,1.662,0,.026-.038.007-.043-.024-.313-2.306-2.482-4.574-2.869-4.963-.019-.021-.019-.053,0-.049.386.056,2.556.285,2.869-1.657C436.217,195.572,436.251,195.59,436.255,195.624Z" transform="translate(-433.328 -195.585)" fill="#150035"/>
          </g>
          <g id="Grupo_139100" data-name="Grupo 139100" transform="translate(107.496 62.063)">
            <path id="Trazado_133923" data-name="Trazado 133923" d="M431.848,187.968c.313,2.306,2.464,4.569,2.846,4.957.021.019.021.051,0,.049-.383-.056-2.533-.281-2.846,1.661,0,.028-.038.009-.043-.024-.313-2.3-2.482-4.573-2.869-4.961-.019-.021-.021-.053,0-.049.387.056,2.556.285,2.869-1.657C431.81,187.917,431.844,187.936,431.848,187.968Z" transform="translate(-428.921 -187.931)" fill="#150035"/>
          </g>
          <g id="Grupo_139101" data-name="Grupo 139101" transform="translate(99.227 57.289)">
            <path id="Trazado_133924" data-name="Trazado 133924" d="M427.441,185.425c.313,2.3,2.464,4.569,2.846,4.955.021.021.021.053,0,.049-.383-.056-2.533-.28-2.846,1.662,0,.028-.038.007-.043-.024-.313-2.3-2.482-4.574-2.869-4.963-.019-.019-.019-.051,0-.049.386.056,2.555.287,2.869-1.655C427.4,185.372,427.437,185.393,427.441,185.425Z" transform="translate(-424.514 -185.387)" fill="#150035"/>
          </g>
          <g id="Grupo_139102" data-name="Grupo 139102" transform="translate(90.959 52.515)">
            <path id="Trazado_133925" data-name="Trazado 133925" d="M423.034,182.881c.313,2.3,2.464,4.567,2.846,4.955.021.019.021.051,0,.049-.383-.056-2.533-.281-2.846,1.662,0,.026-.038.007-.043-.026-.313-2.3-2.482-4.573-2.869-4.961-.019-.021-.019-.053,0-.049.387.056,2.555.285,2.869-1.657C423,182.828,423.03,182.847,423.034,182.881Z" transform="translate(-420.107 -182.842)" fill="#150035"/>
          </g>
          <g id="Grupo_139103" data-name="Grupo 139103" transform="translate(82.69 47.74)">
            <path id="Trazado_133926" data-name="Trazado 133926" d="M418.627,180.336c.313,2.3,2.464,4.569,2.846,4.955.021.021.021.053,0,.049-.383-.054-2.533-.28-2.846,1.662,0,.028-.038.007-.043-.024-.313-2.3-2.482-4.573-2.869-4.963-.019-.019-.019-.051,0-.049.387.058,2.556.287,2.869-1.655C418.589,180.283,418.623,180.3,418.627,180.336Z" transform="translate(-415.7 -180.298)" fill="#150035"/>
          </g>
          <g id="Grupo_139104" data-name="Grupo 139104" transform="translate(74.42 42.967)">
            <path id="Trazado_133927" data-name="Trazado 133927" d="M414.22,177.792c.313,2.3,2.464,4.569,2.846,4.955.021.021.021.053,0,.049-.383-.056-2.533-.28-2.846,1.662,0,.026-.037.007-.043-.024-.313-2.3-2.482-4.574-2.869-4.963-.021-.021-.021-.053,0-.049.387.056,2.556.287,2.869-1.655C414.183,177.739,414.216,177.76,414.22,177.792Z" transform="translate(-411.293 -177.754)" fill="#150035"/>
          </g>
          <g id="Grupo_139105" data-name="Grupo 139105" transform="translate(66.151 38.193)">
            <path id="Trazado_133928" data-name="Trazado 133928" d="M409.813,175.246c.313,2.306,2.464,4.569,2.846,4.957.021.019.021.051,0,.049-.383-.056-2.533-.281-2.846,1.661,0,.028-.038.009-.043-.024-.313-2.3-2.482-4.573-2.869-4.961-.021-.021-.021-.053,0-.049.387.056,2.556.285,2.869-1.657C409.776,175.2,409.809,175.214,409.813,175.246Z" transform="translate(-406.886 -175.209)" fill="#150035"/>
          </g>
          <g id="Grupo_139106" data-name="Grupo 139106" transform="translate(57.883 33.419)">
            <path id="Trazado_133929" data-name="Trazado 133929" d="M405.406,172.7c.313,2.3,2.464,4.569,2.846,4.955.021.021.021.053,0,.049-.383-.056-2.533-.28-2.846,1.662,0,.028-.038.007-.043-.024-.313-2.3-2.482-4.574-2.869-4.963-.019-.019-.019-.051,0-.049.387.058,2.556.287,2.869-1.655C405.368,172.65,405.4,172.671,405.406,172.7Z" transform="translate(-402.479 -172.665)" fill="#150035"/>
          </g>
          <g id="Grupo_139107" data-name="Grupo 139107" transform="translate(49.614 28.644)">
            <path id="Trazado_133930" data-name="Trazado 133930" d="M401,170.159c.313,2.3,2.464,4.567,2.846,4.955.021.019.021.051,0,.049-.383-.056-2.533-.281-2.846,1.662,0,.026-.039.007-.043-.026-.313-2.3-2.482-4.573-2.869-4.961-.019-.021-.019-.053,0-.049.387.056,2.556.285,2.869-1.657C400.959,170.107,400.995,170.125,401,170.159Z" transform="translate(-398.072 -170.12)" fill="#150035"/>
          </g>
          <g id="Grupo_139108" data-name="Grupo 139108" transform="translate(41.346 23.87)">
            <path id="Trazado_133931" data-name="Trazado 133931" d="M396.592,167.614c.313,2.3,2.464,4.569,2.846,4.957.021.019.021.051,0,.047-.383-.054-2.533-.28-2.846,1.662,0,.028-.039.007-.043-.024-.313-2.3-2.482-4.573-2.869-4.963-.019-.019-.019-.051,0-.049.387.058,2.556.287,2.869-1.655C396.552,167.561,396.588,167.582,396.592,167.614Z" transform="translate(-393.665 -167.576)" fill="#150035"/>
          </g>
          <g id="Grupo_139109" data-name="Grupo 139109" transform="translate(33.075 19.097)">
            <path id="Trazado_133932" data-name="Trazado 133932" d="M392.185,165.07c.313,2.3,2.464,4.569,2.846,4.955.021.021.021.053,0,.049-.383-.056-2.533-.28-2.846,1.662,0,.026-.038.007-.043-.024-.313-2.3-2.482-4.574-2.869-4.963-.021-.021-.021-.053,0-.049.387.056,2.556.287,2.869-1.655C392.148,165.017,392.181,165.038,392.185,165.07Z" transform="translate(-389.258 -165.032)" fill="#150035"/>
          </g>
          <g id="Grupo_139110" data-name="Grupo 139110" transform="translate(24.806 43.086)">
            <path id="Trazado_133933" data-name="Trazado 133933" d="M387.778,177.854c.313,2.3,2.464,4.569,2.846,4.957.021.019.021.051,0,.049-.383-.056-2.533-.281-2.846,1.661,0,.028-.038.009-.043-.024-.313-2.3-2.482-4.573-2.869-4.961-.021-.021-.021-.053,0-.049.387.056,2.556.285,2.869-1.657C387.741,177.8,387.774,177.822,387.778,177.854Z" transform="translate(-384.851 -177.817)" fill="#150035"/>
          </g>
          <g id="Grupo_139111" data-name="Grupo 139111" transform="translate(16.538 38.312)">
            <path id="Trazado_133934" data-name="Trazado 133934" d="M383.371,175.311c.313,2.3,2.464,4.569,2.846,4.955.021.021.021.053,0,.049-.383-.056-2.533-.28-2.846,1.662,0,.028-.038.008-.043-.024-.313-2.3-2.482-4.574-2.869-4.963-.019-.019-.021-.051,0-.049.386.056,2.556.287,2.869-1.655C383.333,175.258,383.367,175.279,383.371,175.311Z" transform="translate(-380.444 -175.273)" fill="#150035"/>
          </g>
          <g id="Grupo_139112" data-name="Grupo 139112" transform="translate(8.269 33.538)">
            <path id="Trazado_133935" data-name="Trazado 133935" d="M378.964,172.765c.313,2.306,2.464,4.569,2.846,4.957.021.019.021.051,0,.049-.383-.056-2.533-.281-2.846,1.662,0,.026-.039.007-.043-.026-.313-2.3-2.482-4.573-2.869-4.961-.021-.021-.021-.053,0-.049.387.056,2.556.285,2.869-1.657C378.925,172.715,378.96,172.733,378.964,172.765Z" transform="translate(-376.037 -172.728)" fill="#150035"/>
          </g>
          <g id="Grupo_139113" data-name="Grupo 139113" transform="translate(0 28.764)">
            <path id="Trazado_133936" data-name="Trazado 133936" d="M374.557,170.222c.313,2.3,2.464,4.569,2.846,4.955.021.021.021.053,0,.049-.383-.054-2.533-.28-2.846,1.662,0,.028-.038.007-.043-.024-.313-2.3-2.482-4.573-2.869-4.963-.021-.019-.021-.051,0-.049.387.058,2.556.287,2.869-1.655C374.52,170.169,374.553,170.19,374.557,170.222Z" transform="translate(-371.63 -170.184)" fill="#150035"/>
          </g>
          <g id="Grupo_139114" data-name="Grupo 139114" transform="translate(24.806 33.498)">
            <path id="Trazado_133937" data-name="Trazado 133937" d="M387.778,172.744c.313,2.3,2.464,4.569,2.846,4.957.021.019.021.051,0,.049-.383-.056-2.533-.281-2.846,1.661,0,.028-.038.009-.043-.024-.313-2.3-2.482-4.573-2.869-4.961-.021-.021-.021-.053,0-.049.387.056,2.556.285,2.869-1.657C387.741,172.694,387.774,172.712,387.778,172.744Z" transform="translate(-384.851 -172.707)" fill="#150035"/>
          </g>
          <g id="Grupo_139115" data-name="Grupo 139115" transform="translate(16.538 28.724)">
            <path id="Trazado_133938" data-name="Trazado 133938" d="M383.371,170.2c.313,2.3,2.464,4.569,2.846,4.955.021.021.021.053,0,.049-.383-.056-2.533-.28-2.846,1.662,0,.028-.038.008-.043-.024-.313-2.3-2.482-4.574-2.869-4.963-.019-.019-.021-.051,0-.049.386.056,2.556.287,2.869-1.655C383.333,170.148,383.367,170.169,383.371,170.2Z" transform="translate(-380.444 -170.163)" fill="#150035"/>
          </g>
          <g id="Grupo_139116" data-name="Grupo 139116" transform="translate(8.269 23.95)">
            <path id="Trazado_133939" data-name="Trazado 133939" d="M378.964,167.657c.313,2.3,2.464,4.567,2.846,4.955.021.019.021.051,0,.049-.383-.056-2.533-.281-2.846,1.662,0,.026-.039.007-.043-.026-.313-2.3-2.482-4.573-2.869-4.961-.021-.021-.021-.053,0-.049.387.056,2.556.285,2.869-1.657C378.925,167.6,378.96,167.623,378.964,167.657Z" transform="translate(-376.037 -167.618)" fill="#150035"/>
          </g>
          <g id="Grupo_139117" data-name="Grupo 139117" transform="translate(0 19.176)">
            <path id="Trazado_133940" data-name="Trazado 133940" d="M374.557,165.112c.313,2.3,2.464,4.569,2.846,4.955.021.021.021.053,0,.049-.383-.054-2.533-.28-2.846,1.662,0,.028-.038.007-.043-.024-.313-2.3-2.482-4.573-2.869-4.963-.021-.019-.021-.051,0-.049.387.058,2.556.287,2.869-1.655C374.52,165.059,374.553,165.08,374.557,165.112Z" transform="translate(-371.63 -165.074)" fill="#150035"/>
          </g>
          <g id="Grupo_139118" data-name="Grupo 139118" transform="translate(24.806 23.91)">
            <path id="Trazado_133941" data-name="Trazado 133941" d="M387.778,167.634c.313,2.3,2.464,4.569,2.846,4.957.021.019.021.051,0,.049-.383-.056-2.533-.281-2.846,1.661,0,.028-.038.009-.043-.024-.313-2.3-2.482-4.573-2.869-4.961-.021-.021-.021-.053,0-.049.387.056,2.556.285,2.869-1.657C387.741,167.584,387.774,167.6,387.778,167.634Z" transform="translate(-384.851 -167.597)" fill="#150035"/>
          </g>
          <g id="Grupo_139119" data-name="Grupo 139119" transform="translate(16.538 19.136)">
            <path id="Trazado_133942" data-name="Trazado 133942" d="M383.371,165.091c.313,2.3,2.464,4.569,2.846,4.955.021.021.021.053,0,.049-.383-.056-2.533-.28-2.846,1.662,0,.028-.038.007-.043-.024-.313-2.3-2.482-4.574-2.869-4.963-.019-.019-.021-.051,0-.049.386.056,2.556.287,2.869-1.655C383.333,165.038,383.367,165.059,383.371,165.091Z" transform="translate(-380.444 -165.053)" fill="#150035"/>
          </g>
          <g id="Grupo_139120" data-name="Grupo 139120" transform="translate(8.269 14.362)">
            <path id="Trazado_133943" data-name="Trazado 133943" d="M378.964,162.547c.313,2.3,2.464,4.567,2.846,4.955.021.019.021.051,0,.049-.383-.056-2.533-.28-2.846,1.662,0,.026-.039.007-.043-.026-.313-2.3-2.482-4.573-2.869-4.961-.021-.021-.021-.053,0-.049.387.056,2.556.285,2.869-1.657C378.925,162.494,378.96,162.513,378.964,162.547Z" transform="translate(-376.037 -162.508)" fill="#150035"/>
          </g>
          <g id="Grupo_139121" data-name="Grupo 139121" transform="translate(0 9.588)">
            <path id="Trazado_133944" data-name="Trazado 133944" d="M374.557,160c.313,2.3,2.464,4.569,2.846,4.955.021.021.021.053,0,.049-.383-.054-2.533-.28-2.846,1.662,0,.028-.038.008-.043-.024-.313-2.3-2.482-4.573-2.869-4.961-.021-.021-.021-.053,0-.049.387.056,2.556.285,2.869-1.657C374.52,159.949,374.553,159.97,374.557,160Z" transform="translate(-371.63 -159.964)" fill="#150035"/>
          </g>
          <g id="Grupo_139122" data-name="Grupo 139122" transform="translate(24.806 14.323)">
            <path id="Trazado_133945" data-name="Trazado 133945" d="M387.778,162.524c.313,2.306,2.464,4.569,2.846,4.957.021.019.021.051,0,.049-.383-.056-2.533-.281-2.846,1.662,0,.026-.038.007-.043-.026-.313-2.3-2.482-4.573-2.869-4.961-.021-.021-.021-.053,0-.049.387.056,2.556.285,2.869-1.657C387.741,162.474,387.774,162.492,387.778,162.524Z" transform="translate(-384.851 -162.487)" fill="#150035"/>
          </g>
          <g id="Grupo_139123" data-name="Grupo 139123" transform="translate(16.538 9.548)">
            <path id="Trazado_133946" data-name="Trazado 133946" d="M383.371,159.981c.313,2.3,2.464,4.569,2.846,4.955.021.021.021.053,0,.049-.383-.056-2.533-.28-2.846,1.662,0,.028-.038.007-.043-.024-.313-2.3-2.482-4.574-2.869-4.963-.019-.019-.021-.051,0-.049.386.058,2.556.287,2.869-1.655C383.333,159.928,383.367,159.949,383.371,159.981Z" transform="translate(-380.444 -159.943)" fill="#150035"/>
          </g>
          <g id="Grupo_139124" data-name="Grupo 139124" transform="translate(8.269 4.774)">
            <path id="Trazado_133947" data-name="Trazado 133947" d="M378.964,157.437c.313,2.3,2.464,4.567,2.846,4.955.021.019.021.051,0,.049-.383-.056-2.533-.28-2.846,1.662,0,.026-.039.007-.043-.026-.313-2.3-2.482-4.573-2.869-4.961-.021-.021-.021-.053,0-.049.387.056,2.556.285,2.869-1.657C378.925,157.384,378.96,157.4,378.964,157.437Z" transform="translate(-376.037 -157.398)" fill="#150035"/>
          </g>
          <g id="Grupo_139125" data-name="Grupo 139125">
            <path id="Trazado_133948" data-name="Trazado 133948" d="M374.557,154.892c.313,2.3,2.464,4.569,2.846,4.955.021.021.021.053,0,.051-.383-.056-2.533-.281-2.846,1.661,0,.028-.038.007-.043-.024-.313-2.3-2.482-4.573-2.869-4.961-.021-.021-.021-.053,0-.049.387.056,2.556.285,2.869-1.657C374.52,154.839,374.553,154.86,374.557,154.892Z" transform="translate(-371.63 -154.854)" fill="#150035"/>
          </g>
          <g id="Grupo_139126" data-name="Grupo 139126" transform="translate(190.185 109.803)">
            <path id="Trazado_133949" data-name="Trazado 133949" d="M475.918,213.413c.313,2.3,2.464,4.569,2.846,4.955.021.021.021.053,0,.049-.383-.054-2.533-.28-2.846,1.662,0,.028-.038.008-.041-.024-.315-2.3-2.484-4.573-2.871-4.961-.019-.021-.019-.053,0-.049.387.056,2.556.285,2.871-1.657C475.88,213.36,475.914,213.381,475.918,213.413Z" transform="translate(-472.991 -213.375)" fill="#150035"/>
          </g>
          <g id="Grupo_139127" data-name="Grupo 139127" transform="translate(181.916 105.029)">
            <path id="Trazado_133950" data-name="Trazado 133950" d="M471.511,210.869c.313,2.3,2.464,4.569,2.848,4.955.019.021.019.053,0,.049-.383-.056-2.533-.28-2.846,1.662,0,.028-.038.008-.043-.024-.313-2.3-2.482-4.574-2.869-4.963-.019-.019-.019-.051,0-.049.387.056,2.556.287,2.869-1.655C471.473,210.816,471.507,210.837,471.511,210.869Z" transform="translate(-468.584 -210.831)" fill="#150035"/>
          </g>
          <g id="Grupo_139128" data-name="Grupo 139128" transform="translate(173.647 100.255)">
            <path id="Trazado_133951" data-name="Trazado 133951" d="M467.1,208.323c.313,2.306,2.464,4.569,2.846,4.957.021.019.021.051,0,.049-.383-.056-2.533-.281-2.846,1.662,0,.026-.038.007-.041-.026-.315-2.3-2.484-4.573-2.871-4.961-.019-.021-.019-.053,0-.049.386.056,2.555.285,2.871-1.657C467.066,208.273,467.1,208.291,467.1,208.323Z" transform="translate(-464.177 -208.286)" fill="#150035"/>
          </g>
          <g id="Grupo_139129" data-name="Grupo 139129" transform="translate(165.378 95.481)">
            <path id="Trazado_133952" data-name="Trazado 133952" d="M462.7,205.78c.313,2.3,2.464,4.569,2.846,4.955.021.021.021.053,0,.049-.383-.054-2.533-.28-2.846,1.662,0,.028-.038.008-.043-.024-.313-2.3-2.482-4.573-2.869-4.963-.019-.019-.019-.051,0-.049.386.058,2.556.287,2.869-1.655C462.659,205.727,462.693,205.748,462.7,205.78Z" transform="translate(-459.77 -205.742)" fill="#150035"/>
          </g>
          <g id="Grupo_139130" data-name="Grupo 139130" transform="translate(157.109 90.707)">
            <path id="Trazado_133953" data-name="Trazado 133953" d="M458.29,203.236c.313,2.3,2.464,4.567,2.846,4.955.021.021.021.051,0,.049-.383-.056-2.533-.28-2.846,1.662,0,.026-.038.007-.043-.024-.313-2.306-2.482-4.574-2.869-4.963-.019-.021-.019-.053,0-.049.386.056,2.555.287,2.869-1.655C458.252,203.183,458.286,203.2,458.29,203.236Z" transform="translate(-455.363 -203.198)" fill="#150035"/>
          </g>
          <g id="Grupo_139131" data-name="Grupo 139131" transform="translate(148.841 85.933)">
            <path id="Trazado_133954" data-name="Trazado 133954" d="M453.882,200.69c.313,2.3,2.464,4.569,2.846,4.957.021.019.021.051,0,.047-.383-.054-2.533-.28-2.846,1.662,0,.028-.038.007-.043-.024-.313-2.3-2.482-4.573-2.869-4.961-.019-.021-.019-.053,0-.049.387.056,2.555.285,2.869-1.657C453.845,200.64,453.879,200.658,453.882,200.69Z" transform="translate(-450.956 -200.653)" fill="#150035"/>
          </g>
          <g id="Grupo_139132" data-name="Grupo 139132" transform="translate(140.572 81.159)">
            <path id="Trazado_133955" data-name="Trazado 133955" d="M449.476,198.147c.313,2.3,2.464,4.569,2.846,4.955.021.021.021.053,0,.049-.383-.056-2.533-.28-2.846,1.662,0,.028-.038.008-.041-.024-.315-2.3-2.484-4.574-2.871-4.963-.019-.019-.019-.051,0-.049.387.056,2.556.287,2.871-1.655C449.438,198.094,449.472,198.115,449.476,198.147Z" transform="translate(-446.549 -198.109)" fill="#150035"/>
          </g>
          <g id="Grupo_139133" data-name="Grupo 139133" transform="translate(132.303 76.385)">
            <path id="Trazado_133956" data-name="Trazado 133956" d="M445.069,195.6c.313,2.3,2.464,4.567,2.846,4.955.021.019.021.051,0,.049-.383-.056-2.533-.28-2.846,1.662,0,.026-.038.008-.043-.026-.313-2.3-2.482-4.573-2.869-4.961-.019-.021-.019-.053,0-.049.387.056,2.556.285,2.869-1.657C445.031,195.551,445.065,195.569,445.069,195.6Z" transform="translate(-442.142 -195.564)" fill="#150035"/>
          </g>
          <g id="Grupo_139134" data-name="Grupo 139134" transform="translate(124.034 71.611)">
            <path id="Trazado_133957" data-name="Trazado 133957" d="M440.662,193.058c.313,2.3,2.464,4.569,2.846,4.955.021.021.021.053,0,.049-.383-.054-2.533-.28-2.846,1.662,0,.028-.038.008-.043-.024-.313-2.3-2.482-4.573-2.869-4.963-.019-.019-.019-.051,0-.049.387.058,2.556.287,2.869-1.655C440.624,193.005,440.658,193.026,440.662,193.058Z" transform="translate(-437.735 -193.02)" fill="#150035"/>
          </g>
          <g id="Grupo_139135" data-name="Grupo 139135" transform="translate(115.765 66.837)">
            <path id="Trazado_133958" data-name="Trazado 133958" d="M436.255,190.514c.313,2.3,2.464,4.569,2.846,4.955.021.021.021.051,0,.049-.383-.056-2.533-.28-2.846,1.662,0,.026-.038.007-.043-.024-.313-2.3-2.482-4.574-2.869-4.963-.019-.021-.019-.053,0-.049.386.056,2.556.285,2.869-1.655C436.217,190.461,436.251,190.48,436.255,190.514Z" transform="translate(-433.328 -190.476)" fill="#150035"/>
          </g>
        </g>
        <g id="Grupo_139186" data-name="Grupo 139186" transform="translate(582.943 143.044)">
          <rect id="Rectángulo_42833" data-name="Rectángulo 42833" width="2.401" height="20.805" transform="matrix(0.5, -0.866, 0.866, 0.5, 0, 2.079)" fill="#150035"/>
        </g>
        <g id="Grupo_139187" data-name="Grupo 139187" transform="translate(608.24 157.651)">
          <rect id="Rectángulo_42834" data-name="Rectángulo 42834" width="2.4" height="73.753" transform="matrix(0.5, -0.866, 0.866, 0.5, 0, 2.079)" fill="#150035"/>
        </g>
        <g id="Grupo_139188" data-name="Grupo 139188" transform="translate(679.141 391.982)">
          <path id="Trazado_134007" data-name="Trazado 134007" d="M502.977,294.386l-1.255-2.045,12.22-7.5a8.7,8.7,0,0,0,4.119-7.366V229.123h2.4v48.352a11.115,11.115,0,0,1-5.265,9.411Z" transform="translate(-501.722 -229.123)" fill="#150035"/>
        </g>
        <g id="Grupo_139225" data-name="Grupo 139225" transform="translate(299.258 231.536)">
          <g id="Grupo_139190" data-name="Grupo 139190">
            <g id="Grupo_139189" data-name="Grupo 139189">
              <path id="Trazado_134008" data-name="Trazado 134008" d="M595.94,219.331l-40.665,23.444a73.8,73.8,0,0,0-33.139,40.567l-14.605,43.75A97.67,97.67,0,0,1,463.47,380.9l-33.023,18.861L300.532,324.209l33.625-19.483a97.679,97.679,0,0,0,43.378-52.782l15.419-44.92a73.805,73.805,0,0,1,32.689-39.828l39.267-22.846Z" transform="translate(-298.142 -142.964)" fill="#64b5f6"/>
              <path id="Trazado_134009" data-name="Trazado 134009" d="M431.558,401.793l-132.3-76.937,35.413-20.523A96.474,96.474,0,0,0,377.516,252.2l15.417-44.919A75.035,75.035,0,0,1,426.156,166.8l39.866-23.193,133.442,76.363L556.99,244.464a72.531,72.531,0,0,0-32.6,39.905L509.784,328.12a98.75,98.75,0,0,1-44.6,54.467ZM304.039,324.859l127.53,74.164,32.422-18.517a96.378,96.378,0,0,0,43.519-53.148l14.6-43.75a74.936,74.936,0,0,1,33.68-41.226l38.854-22.4-128.614-73.6-38.669,22.5a72.615,72.615,0,0,0-32.158,39.181l-15.417,44.918a98.9,98.9,0,0,1-43.913,53.431Z" transform="translate(-299.258 -143.611)" fill="#150035"/>
            </g>
          </g>
          <g id="Grupo_139224" data-name="Grupo 139224" transform="translate(33.987 10.729)">
            <g id="Grupo_139204" data-name="Grupo 139204" transform="translate(75.497 202.065)">
              <g id="Grupo_139201" data-name="Grupo 139201">
                <g id="Grupo_139194" data-name="Grupo 139194">
                  <g id="Grupo_139191" data-name="Grupo 139191" transform="translate(3.078 1.619)">
                    <path id="Trazado_134010" data-name="Trazado 134010" d="M363.281,259.485c5.1-2.522,13.08-2.006,17.814,1.152s4.439,7.764-.664,10.286-13.08,2.006-17.815-1.152S358.177,262.007,363.281,259.485Z" transform="translate(-359.25 -257.885)" fill="#39a1ff"/>
                  </g>
                  <g id="Grupo_139192" data-name="Grupo 139192">
                    <path id="Trazado_134011" data-name="Trazado 134011" d="M361.641,258.622c5.1-2.522,13.08-2.006,17.815,1.152s4.438,7.764-.666,10.286-13.08,2.006-17.815-1.152S356.537,261.144,361.641,258.622Z" transform="translate(-357.609 -257.022)" fill="#fff"/>
                  </g>
                  <g id="Grupo_139193" data-name="Grupo 139193" transform="translate(1.679 0.476)">
                    <path id="Trazado_134012" data-name="Trazado 134012" d="M362.384,271.2c-2.646-1.766-4.021-4.027-3.869-6.366s1.8-4.4,4.657-5.811h0c5.569-2.751,14.3-2.188,19.459,1.257,2.647,1.766,4.021,4.027,3.871,6.366s-1.805,4.4-4.655,5.813a19.125,19.125,0,0,1-8.335,1.745A20.665,20.665,0,0,1,362.384,271.2Zm1.514-10.712h0c-2.306,1.139-3.638,2.721-3.753,4.452s1.006,3.471,3.145,4.9c4.734,3.154,12.731,3.674,17.83,1.152,2.306-1.139,3.636-2.721,3.749-4.452s-1.006-3.471-3.145-4.9a18.9,18.9,0,0,0-10.194-2.751A17.522,17.522,0,0,0,363.9,260.486Z" transform="translate(-358.504 -257.276)" fill="#150035"/>
                  </g>
                </g>
                <g id="Grupo_139197" data-name="Grupo 139197" transform="translate(7.691 4.293)">
                  <g id="Grupo_139196" data-name="Grupo 139196">
                    <g id="Grupo_139195" data-name="Grupo 139195">
                      <path id="Trazado_134013" data-name="Trazado 134013" d="M371.042,260.1l1,3.861a.821.821,0,0,1-.221.824,2.829,2.829,0,0,1-2.372.514l-6.593-1.167c-.8-.141-1.295-.623-1.109-1.077h0c.184-.452.979-.705,1.777-.565l5.424.961-.833-3.22c-.124-.475.434-.887,1.242-.923h0C370.166,259.277,370.92,259.632,371.042,260.1Z" transform="translate(-361.708 -259.311)" fill="#39a1ff"/>
                    </g>
                  </g>
                </g>
                <g id="Grupo_139200" data-name="Grupo 139200" transform="translate(9.489 5.494)">
                  <g id="Grupo_139199" data-name="Grupo 139199">
                    <g id="Grupo_139198" data-name="Grupo 139198">
                      <path id="Trazado_134014" data-name="Trazado 134014" d="M372,260.745l1,3.861a.821.821,0,0,1-.221.824,2.836,2.836,0,0,1-2.372.514l-6.593-1.167c-.8-.141-1.293-.623-1.109-1.077h0c.184-.454.979-.706,1.777-.565l5.424.961-.833-3.222c-.122-.473.433-.886,1.242-.921h0C371.124,259.918,371.878,260.27,372,260.745Z" transform="translate(-362.667 -259.951)" fill="#150035"/>
                    </g>
                  </g>
                </g>
              </g>
              <g id="Grupo_139202" data-name="Grupo 139202" transform="translate(30.073 5.103)">
                <path id="Trazado_134015" data-name="Trazado 134015" d="M375.827,267.637c.882-1.661,1.454-4.377-.816-7.9l-1.373.887c1.477,2.289,1.728,4.391.747,6.242Z" transform="translate(-373.637 -259.742)" fill="#150035"/>
              </g>
              <g id="Grupo_139203" data-name="Grupo 139203" transform="translate(27.386 13.405)">
                <path id="Trazado_134016" data-name="Trazado 134016" d="M372.9,267.679a10.471,10.471,0,0,0,3.167-2.441l-1.235-1.071a8.906,8.906,0,0,1-2.623,2.03Z" transform="translate(-372.205 -264.167)" fill="#150035"/>
              </g>
            </g>
            <g id="Grupo_139205" data-name="Grupo 139205" transform="translate(121.314 14.44)">
              <path id="Trazado_134017" data-name="Trazado 134017" d="M486.965,220.627,383.31,161.106l5.791-3.343,103.655,59.521Z" transform="translate(-380.905 -156.379)" fill="#fff"/>
              <path id="Trazado_134018" data-name="Trazado 134018" d="M488.089,222.658l-.6-.343L382.028,161.755l8.194-4.73.6.343,105.465,60.557ZM386.837,161.75l101.249,58.139,3.389-1.955L390.225,159.793Z" transform="translate(-382.028 -157.025)" fill="#150035"/>
            </g>
            <g id="Grupo_139206" data-name="Grupo 139206" transform="translate(119.46)">
              <path id="Trazado_134019" data-name="Trazado 134019" d="M499.145,220.715l-116.824-67.3,5.791-3.343,116.824,67.3Z" transform="translate(-379.918 -148.682)" fill="#fff"/>
              <path id="Trazado_134020" data-name="Trazado 134020" d="M500.265,222.747,381.04,154.059l8.192-4.73.6.347,118.627,68.342ZM385.843,154.057l114.422,65.92,3.391-1.955L389.232,152.1Z" transform="translate(-381.04 -149.329)" fill="#150035"/>
            </g>
            <g id="Grupo_139207" data-name="Grupo 139207" transform="translate(132.181 34.22)">
              <path id="Trazado_134021" data-name="Trazado 134021" d="M470.546,218.2,389.1,171.649l5.791-3.344,81.441,46.547Z" transform="translate(-386.694 -166.92)" fill="#fff"/>
              <path id="Trazado_134022" data-name="Trazado 134022" d="M471.675,220.227,387.82,172.3l8.2-4.734,83.852,47.926ZM392.64,172.29l79.028,45.17,3.387-1.955-79.03-45.168Z" transform="translate(-387.82 -167.567)" fill="#150035"/>
            </g>
            <g id="Grupo_139208" data-name="Grupo 139208" transform="translate(0 158.136)">
              <path id="Trazado_134023" data-name="Trazado 134023" d="M382.561,274.041l-63.9-36.35,5.791-3.344,63.9,36.351Z" transform="translate(-316.246 -232.964)" fill="#fff"/>
              <path id="Trazado_134024" data-name="Trazado 134024" d="M383.692,276.071l-.6-.34-65.721-37.385,8.2-4.736.6.34,65.721,37.387Zm-61.5-37.74L383.682,273.3l3.383-1.953-61.484-34.976Z" transform="translate(-317.372 -233.61)" fill="#150035"/>
            </g>
            <g id="Grupo_139209" data-name="Grupo 139209" transform="translate(98.984 40.616)">
              <path id="Trazado_134025" data-name="Trazado 134025" d="M375.039,171.778c-1.37,1.422-2.689,2.889-3.938,4.415l95.207,54.279c1.274-1.51,2.6-2.976,3.995-4.381Z" transform="translate(-369.273 -170.273)" fill="#fff"/>
              <path id="Trazado_134026" data-name="Trazado 134026" d="M467.435,232.714l-97.308-55.48.9-1.1c1.208-1.473,2.556-2.983,4-4.484l.647-.674,97.434,55.551-1.1,1.113c-1.317,1.327-2.638,2.775-3.931,4.31ZM373.8,176.565l93.1,53.077c.769-.889,1.546-1.751,2.325-2.572l-93.1-53.08C375.3,174.851,374.527,175.714,373.8,176.565Z" transform="translate(-370.127 -170.976)" fill="#150035"/>
            </g>
            <g id="Grupo_139210" data-name="Grupo 139210" transform="translate(91.963 52.097)">
              <path id="Trazado_134027" data-name="Trazado 134027" d="M367.246,182.93,462.267,237.1q1.416-2.533,3.025-4.942L370.2,177.95Q368.633,180.379,367.246,182.93Z" transform="translate(-365.63 -176.346)" fill="#fff"/>
              <path id="Trazado_134028" data-name="Trazado 134028" d="M463.48,239.495l-97.095-55.354.561-1.034c.921-1.7,1.931-3.4,3-5.06l.615-.951,97.19,55.409-.711,1.071c-1.069,1.606-2.07,3.242-2.976,4.861Zm-93.856-56.272,92.95,52.994c.561-.966,1.154-1.934,1.769-2.9l-92.987-53.015C370.753,181.27,370.175,182.245,369.623,183.223Z" transform="translate(-366.385 -177.095)" fill="#150035"/>
            </g>
            <g id="Grupo_139211" data-name="Grupo 139211" transform="translate(77.598 28.197)">
              <path id="Trazado_134029" data-name="Trazado 134029" d="M363.626,165.171c-1.37,1.422-2.689,2.889-3.938,4.413l5.439,3.338c1.274-1.51,2.6-2.976,3.995-4.381Z" transform="translate(-357.889 -163.644)" fill="#fff"/>
              <path id="Trazado_134030" data-name="Trazado 134030" d="M366.221,175.2l-7.492-4.6.872-1.064c1.207-1.473,2.554-2.981,4-4.486l.67-.694,7.607,4.665-1.066,1.075c-1.308,1.323-2.629,2.773-3.929,4.314Zm-3.878-5.2,3.379,2.073c.775-.895,1.557-1.758,2.338-2.582l-3.392-2.079C363.851,168.28,363.074,169.147,362.343,170Z" transform="translate(-358.729 -164.357)" fill="#150035"/>
            </g>
            <g id="Grupo_139212" data-name="Grupo 139212" transform="translate(70.569 39.667)">
              <path id="Trazado_134031" data-name="Trazado 134031" d="M355.833,176.323l5.254,3.231q1.416-2.533,3.025-4.942l-5.319-3.269Q357.219,173.772,355.833,176.323Z" transform="translate(-354.238 -169.705)" fill="#fff"/>
              <path id="Trazado_134032" data-name="Trazado 134032" d="M362.271,182l-7.288-4.482.54-1c.912-1.689,1.925-3.39,3-5.06l.636-.987L366.545,175l-.69,1.036c-1.06,1.589-2.06,3.225-2.974,4.861Zm-4.087-5.332,3.22,1.979c.565-.97,1.156-1.938,1.771-2.893l-3.261-2C359.31,174.718,358.73,175.694,358.184,176.666Z" transform="translate(-354.983 -170.47)" fill="#150035"/>
            </g>
            <g id="Grupo_139213" data-name="Grupo 139213" transform="translate(80.544 82.655)">
              <path id="Trazado_134033" data-name="Trazado 134033" d="M361.076,199.9l94.04,53.945,1.872-5.607-94-53.919Z" transform="translate(-359.618 -192.558)" fill="#fff"/>
              <path id="Trazado_134034" data-name="Trazado 134034" d="M456.47,256.44,360.3,201.275l2.711-7.894,96.108,55.131Zm-93.258-56.261,91.91,52.72,1.1-3.284-91.882-52.707Z" transform="translate(-360.299 -193.381)" fill="#150035"/>
            </g>
            <g id="Grupo_139214" data-name="Grupo 139214" transform="translate(76.21 96.207)">
              <path id="Trazado_134035" data-name="Trazado 134035" d="M358.765,207.126l94.04,53.945,1.872-5.608-94-53.919Z" transform="translate(-357.309 -199.78)" fill="#fff"/>
              <path id="Trazado_134036" data-name="Trazado 134036" d="M454.16,263.664,357.989,208.5,360.7,200.6l96.11,55.131ZM360.9,207.4l91.91,52.722,1.1-3.285L362.025,204.13Z" transform="translate(-357.989 -200.604)" fill="#150035"/>
            </g>
            <g id="Grupo_139215" data-name="Grupo 139215" transform="translate(71.455 108.958)">
              <path id="Trazado_134037" data-name="Trazado 134037" d="M356.231,213.921l94.04,53.945,1.872-5.608-94-53.919Z" transform="translate(-354.775 -206.577)" fill="#fff"/>
              <path id="Trazado_134038" data-name="Trazado 134038" d="M451.626,270.459l-96.172-55.167,2.709-7.892,96.108,55.129ZM358.369,214.2l91.908,52.722,1.1-3.285-91.882-52.707Z" transform="translate(-355.455 -207.4)" fill="#150035"/>
            </g>
            <g id="Grupo_139216" data-name="Grupo 139216" transform="translate(60.312 70.761)">
              <path id="Trazado_134039" data-name="Trazado 134039" d="M350.286,193.591l5.582,3.472,1.872-5.608-5.537-3.447Z" transform="translate(-348.841 -186.195)" fill="#fff"/>
              <path id="Trazado_134040" data-name="Trazado 134040" d="M357.2,199.733l-7.683-4.781,2.717-7.91,7.62,4.745Zm-4.792-5.809,3.48,2.163,1.088-3.267-3.452-2.148Z" transform="translate(-349.516 -187.042)" fill="#150035"/>
            </g>
            <g id="Grupo_139217" data-name="Grupo 139217" transform="translate(55.976 84.311)">
              <path id="Trazado_134041" data-name="Trazado 134041" d="M347.976,200.814l5.582,3.472,1.872-5.608-5.538-3.447Z" transform="translate(-346.529 -193.416)" fill="#fff"/>
              <path id="Trazado_134042" data-name="Trazado 134042" d="M354.888,206.955l-7.683-4.779,2.717-7.912,7.623,4.745ZM350.1,201.15l3.481,2.165,1.09-3.27-3.454-2.15Z" transform="translate(-347.205 -194.264)" fill="#150035"/>
            </g>
            <g id="Grupo_139218" data-name="Grupo 139218" transform="translate(51.221 97.063)">
              <path id="Trazado_134043" data-name="Trazado 134043" d="M345.442,207.609l5.582,3.472,1.872-5.608-5.538-3.447Z" transform="translate(-343.995 -200.212)" fill="#fff"/>
              <path id="Trazado_134044" data-name="Trazado 134044" d="M352.356,213.751l-7.685-4.781,2.717-7.91,7.622,4.741Zm-4.792-5.807,3.479,2.163,1.088-3.267-3.452-2.15Z" transform="translate(-344.671 -201.06)" fill="#150035"/>
            </g>
            <g id="Grupo_139219" data-name="Grupo 139219" transform="translate(28.85 126.768)">
              <rect id="Rectángulo_42835" data-name="Rectángulo 42835" width="2.401" height="150.335" transform="matrix(0.505, -0.863, 0.863, 0.505, 0, 2.073)" fill="#150035"/>
            </g>
            <g id="Grupo_139220" data-name="Grupo 139220" transform="translate(28.126 136.717)">
              <rect id="Rectángulo_42836" data-name="Rectángulo 42836" width="2.399" height="118.845" transform="matrix(0.503, -0.864, 0.864, 0.503, 0, 2.074)" fill="#150035"/>
            </g>
            <g id="Grupo_139221" data-name="Grupo 139221" transform="translate(59.677 52.726)">
              <rect id="Rectángulo_42837" data-name="Rectángulo 42837" width="2.401" height="150.335" transform="matrix(0.505, -0.863, 0.863, 0.505, 0, 2.073)" fill="#150035"/>
            </g>
            <g id="Grupo_139222" data-name="Grupo 139222" transform="translate(22.529 142.01)">
              <rect id="Rectángulo_42838" data-name="Rectángulo 42838" width="2.4" height="118.845" transform="matrix(0.503, -0.864, 0.864, 0.503, 0, 2.074)" fill="#150035"/>
            </g>
            <g id="Grupo_139223" data-name="Grupo 139223" transform="translate(47.362 111.422)">
              <rect id="Rectángulo_42839" data-name="Rectángulo 42839" width="2.399" height="118.845" transform="matrix(0.503, -0.864, 0.864, 0.503, 0, 2.074)" fill="#150035"/>
            </g>
          </g>
        </g>
        <g id="Grupo_139228" data-name="Grupo 139228" transform="translate(493.386 173.729)">
          <g id="Grupo_139226" data-name="Grupo 139226" transform="translate(4.918 9.464)">
            <path id="Trazado_134045" data-name="Trazado 134045" d="M492.517,210.033a7.294,7.294,0,0,1-3.619-1.077l-76.523-44.181c-4.633-2.674-8.4-9.837-8.4-15.967V127.167c0-3.413,1.169-6.045,3.207-7.22,1.736-1.006,3.91-.856,6.117.418l76.523,44.181c4.634,2.676,8.4,9.837,8.4,15.967v21.643c0,3.411-1.169,6.044-3.207,7.218A4.929,4.929,0,0,1,492.517,210.033Zm-82.827-88.9a3.13,3.13,0,0,0-1.585.415c-1.452.837-2.283,2.886-2.283,5.621v21.641c0,5.543,3.353,11.988,7.477,14.369l76.523,44.181c1.634.944,3.111,1.088,4.274.418,1.449-.837,2.282-2.886,2.282-5.62V180.514c0-5.541-3.355-11.986-7.479-14.369l-76.523-44.181A5.468,5.468,0,0,0,409.69,121.131Z" transform="translate(-403.975 -119.288)" fill="#fff"/>
          </g>
          <g id="Grupo_139227" data-name="Grupo 139227" transform="translate(0 0)">
            <path id="Trazado_134046" data-name="Trazado 134046" d="M490.176,205.545a7.583,7.583,0,0,1-3.758-1.115l-76.523-44.181c-4.788-2.766-8.541-9.884-8.541-16.207V122.4c0-3.514,1.221-6.233,3.344-7.46,1.831-1.054,4.1-.908,6.4.418l76.523,44.181c4.786,2.764,8.539,9.884,8.539,16.207V197.39c0,3.512-1.22,6.231-3.345,7.458A5.206,5.206,0,0,1,490.176,205.545Zm-2.557-3.193c1.079.623,2.647,1.2,3.993.42,1.364-.788,2.145-2.749,2.145-5.381V175.747c0-5.454-3.291-11.793-7.338-14.129l-76.523-44.181c-1.077-.621-2.642-1.2-4-.418s-2.143,2.747-2.143,5.381v21.641c0,5.453,3.291,11.791,7.34,14.129Z" transform="translate(-401.354 -114.244)" fill="#150035"/>
          </g>
        </g>
      </g>
      <g id="Grupo_139233" data-name="Grupo 139233">
        <path id="Trazado_115035" data-name="Trazado 115035" d="M792.87,2178.786c1.255.752,1.466,1.022-.112,4.274-1.222,2.535-3.5,7.238,1.721,10.36,4.077,2.45,9.2,1.746,14.175,1.068,4.35-.591,8.463-1.151,11.114.445a2.354,2.354,0,1,0,2.55-3.957l-.128-.077c-4.078-2.45-9.206-1.746-14.175-1.068-4.351.591-8.463,1.151-11.117-.444-1.254-.75-1.465-1.021.113-4.275,1.221-2.533,3.5-7.238-1.722-10.36-4.058-2.45-9.2-1.746-14.175-1.079-4.349.589-8.477,1.149-11.128-.444-1.254-.753-1.466-1.023.112-4.277,1.222-2.532,3.5-7.237-1.7-10.36-4.08-2.449-9.221-1.746-14.19-1.065-4.349.591-8.463,1.15-11.114-.428-1.254-.753-1.466-1.031.112-4.288,1.222-2.533,3.5-7.238-1.7-10.36a13.339,13.339,0,0,0-6.771-1.7,49.4,49.4,0,0,0-7.4.645c-4.351.59-8.466,1.149-11.1-.43a2.354,2.354,0,1,0-2.548,3.96c.04.026.081.051.123.074,4.08,2.425,9.206,1.744,14.163,1.066,4.353-.591,8.478-1.162,11.129.444,1.255.751,1.465,1.031-.113,4.287-1.221,2.534-3.5,7.238,1.721,10.374,4.081,2.425,9.207,1.744,14.164,1.064,4.351-.59,8.478-1.161,11.129.444,1.253.75,1.465,1.021-.113,4.275-1.221,2.535-3.5,7.238,1.7,10.362,4.08,2.448,9.206,1.745,14.178,1.078,4.351-.59,8.463-1.149,11.114.443Z" transform="translate(-232.842 42.035)" fill="#393939"/>
        <path id="Trazado_115036" data-name="Trazado 115036" d="M781.029,2222.437c4.077,2.45,9.205,1.746,14.175,1.076,4.35-.59,8.463-1.149,11.114.447,1.257.752,1.466,1.021-.112,4.276-1.222,2.533-3.5,7.238,1.721,10.361,4.08,2.448,9.206,1.744,14.175,1.076,4.353-.59,8.463-1.149,11.114.447a2.355,2.355,0,0,0,2.425-4.025c-4.08-2.448-9.205-1.744-14.175-1.077-4.351.589-8.463,1.149-11.117-.444-1.254-.752-1.465-1.022.113-4.277,1.221-2.532,3.5-7.237-1.722-10.36-4.058-2.448-9.206-1.746-14.176-1.079-4.351.591-8.477,1.149-11.128-.443-1.254-.752-1.466-1.021.112-4.276,1.222-2.533,3.5-7.238-1.7-10.361-4.08-2.448-9.221-1.744-14.191-1.066-4.351.59-8.463,1.149-11.117-.43-1.257-.75-1.465-1.031.113-4.286,1.221-2.534,3.5-7.238-1.7-10.359a13.328,13.328,0,0,0-6.765-1.713,50,50,0,0,0-7.4.649c-4.351.59-8.465,1.149-11.1-.433a2.354,2.354,0,0,0-2.425,4.035c4.08,2.425,9.206,1.746,14.163,1.064,4.353-.59,8.478-1.146,11.129.446,1.255.752,1.465,1.034-.113,4.288-1.221,2.532-3.5,7.238,1.722,10.359,4.08,2.425,9.205,1.744,14.163,1.066,4.35-.591,8.478-1.149,11.129.444,1.255.752,1.465,1.021-.113,4.275-1.221,2.534-3.5,7.238,1.7,10.362Z" transform="translate(-227.731 59.121)" fill="#fef536"/>
        <path id="Trazado_115027" data-name="Trazado 115027" d="M706.515,2208.5l-7.8-1.848a1.619,1.619,0,0,1-1.24-1.922l.007-.03a1.682,1.682,0,0,1,1.233-1.193l7.8-1.845a8.54,8.54,0,0,0,6.356-6.156l1.907-7.546a1.7,1.7,0,0,1,2.053-1.177,1.659,1.659,0,0,1,1.228,1.177l1.91,7.546a8.533,8.533,0,0,0,6.356,6.156l7.8,1.845a1.618,1.618,0,0,1,1.24,1.922l-.007.03a1.682,1.682,0,0,1-1.233,1.193l-7.8,1.848a8.531,8.531,0,0,0-6.356,6.155l-1.91,7.548a1.691,1.691,0,0,1-2.052,1.188,1.661,1.661,0,0,1-1.229-1.187l-1.907-7.548A8.535,8.535,0,0,0,706.515,2208.5Z" transform="translate(-238.571 59.469)" fill="#3a3a3a"/>
      </g>
      <g id="Grupo_139234" data-name="Grupo 139234" transform="translate(-86 -177)">
        <ellipse id="Elipse_4818" data-name="Elipse 4818" cx="19.498" cy="18.279" rx="19.498" ry="18.279" transform="translate(716.004 2182.626)" fill="#fff"/>
        <ellipse id="Elipse_4819" data-name="Elipse 4819" cx="18.321" cy="17.102" rx="18.321" ry="17.102" transform="translate(717.181 2183.803)" fill="none" stroke="#3a3a3a" stroke-width="1"/>
        <path id="Trazado_115418" data-name="Trazado 115418" d="M513.553,2050.077l1.761-.147a.37.37,0,0,0,.336-.4h0a.371.371,0,0,0-.225-.309l-1.629-.685a1.9,1.9,0,0,1-1.162-1.6l-.147-1.761a.369.369,0,0,0-.707-.113l-.686,1.63a1.9,1.9,0,0,1-1.6,1.16l-1.761.148a.371.371,0,0,0-.336.4h0a.37.37,0,0,0,.225.309l1.629.684a1.9,1.9,0,0,1,1.161,1.6l.147,1.761a.37.37,0,0,0,.4.334.365.365,0,0,0,.309-.223l.683-1.629A1.9,1.9,0,0,1,513.553,2050.077Z" transform="translate(161.782 162.041)" fill="#3d3d3d"/>
        <path id="Trazado_115027-2" data-name="Trazado 115027-2" d="M502.544,2018.491l-3.005-.763a.675.675,0,0,1,0-1.3l3.005-.763a3.407,3.407,0,0,0,2.451-2.545l.734-3.124a.65.65,0,0,1,.774-.495l.017,0a.666.666,0,0,1,.473.492l.736,3.124a3.405,3.405,0,0,0,2.451,2.545l3.005.763a.677.677,0,0,1,0,1.3l-3.005.763a3.409,3.409,0,0,0-2.451,2.546l-.736,3.122a.65.65,0,0,1-.773.5l-.018-.006a.661.661,0,0,1-.474-.492l-.734-3.122A3.412,3.412,0,0,0,502.544,2018.491Z" transform="translate(166.055 241.582)" fill="#3a3a3a"/>
      </g>
      <g id="Grupo_139232" data-name="Grupo 139232" transform="translate(-581.318 -769)">
        <path id="Trazado_115415" data-name="Trazado 115415" d="M534.3,1861.316l1.91-.16a.4.4,0,0,0,.367-.426h0a.406.406,0,0,0-.247-.337l-1.768-.743a2.068,2.068,0,0,1-1.259-1.739l-.16-1.91a.4.4,0,0,0-.434-.368h0a.4.4,0,0,0-.336.244l-.744,1.768a2.065,2.065,0,0,1-1.736,1.261l-1.911.164a.4.4,0,0,0-.367.426h0a.408.408,0,0,0,.247.338l1.766.743a2.065,2.065,0,0,1,1.261,1.735l.162,1.91a.4.4,0,0,0,.434.369h0a.408.408,0,0,0,.339-.245l.741-1.766A2.069,2.069,0,0,1,534.3,1861.316Z" transform="translate(357.421 885.893)" fill="#3d3d3d"/>
        <path id="Trazado_115416" data-name="Trazado 115416" d="M448.461,1949.482l1.062-.088a.224.224,0,0,0,.2-.252h0a.226.226,0,0,0-.128-.175l-.982-.41a1.157,1.157,0,0,1-.7-.966l-.087-1.062a.225.225,0,0,0-.252-.2h0a.226.226,0,0,0-.174.128l-.412.982a1.156,1.156,0,0,1-.965.7l-1.068.087a.228.228,0,0,0-.2.253.231.231,0,0,0,.128.177l.984.411a1.149,1.149,0,0,1,.7.964l.087,1.068a.226.226,0,0,0,.429.068l.412-.984A1.155,1.155,0,0,1,448.461,1949.482Z" transform="translate(395.672 920.164)" fill="#3d3d3d"/>
        <path id="Trazado_115417" data-name="Trazado 115417" d="M494.8,1863.124l1.137-.095a.238.238,0,0,0,.219-.255h0a.241.241,0,0,0-.145-.2l-1.054-.442a1.226,1.226,0,0,1-.745-1.026l-.094-1.137a.239.239,0,0,0-.256-.218h0a.255.255,0,0,0-.2.144l-.442,1.052a1.224,1.224,0,0,1-1.025.745l-1.137.1a.239.239,0,0,0-.219.255v0h0a.234.234,0,0,0,.145.2l1.053.442a1.22,1.22,0,0,1,.744,1.026l.1,1.138a.238.238,0,0,0,.256.218h0a.257.257,0,0,0,.2-.145l.441-1.053A1.221,1.221,0,0,1,494.8,1863.124Z" transform="translate(349.486 887.448)" fill="#3d3d3d"/>
        <circle id="Elipse_4783" data-name="Elipse 4783" cx="15.692" cy="15.692" r="15.692" transform="translate(859.815 2797.44)" fill="#3a3a3a"/>
        <ellipse id="Elipse_4820" data-name="Elipse 4820" cx="14.266" cy="13.553" rx="14.266" ry="13.553" transform="translate(858.389 2796.015)" fill="#fff"/>
        <ellipse id="Elipse_4821" data-name="Elipse 4821" cx="13.577" cy="12.864" rx="13.577" ry="12.864" transform="translate(859.078 2796.703)" fill="none" stroke="#3a3a3a" stroke-width="1"/>
      </g>
    </g>
  </g>
</svg>
