<svg xmlns="http://www.w3.org/2000/svg" width="60.539" height="55.231" viewBox="0 0 60.539 55.231">
  <g id="Grupo_138829" data-name="Grupo 138829" transform="translate(0 -22.446)">
    <g id="Grupo_138829-2" data-name="Grupo 138829" transform="translate(0 22.446)">
      <path id="Trazado_133610" data-name="Trazado 133610" d="M56.445,22.446H4.093A4.1,4.1,0,0,0,0,26.539V61.385a4.1,4.1,0,0,0,4.093,4.093h7.021a.887.887,0,1,0,0-1.774H4.093a2.323,2.323,0,0,1-2.32-2.32V58.633a4.069,4.069,0,0,0,2.32.723H56.445a4.069,4.069,0,0,0,2.32-.723v2.751a2.323,2.323,0,0,1-2.32,2.32H14.662a.887.887,0,1,0,0,1.774H25.726L23.17,71.411H21.565a3.831,3.831,0,0,0-3.827,3.827v.575A1.865,1.865,0,0,0,19.6,77.677H40.937A1.865,1.865,0,0,0,42.8,75.813v-.575a3.831,3.831,0,0,0-3.827-3.827H37.369l-2.556-5.933H56.445a4.1,4.1,0,0,0,4.093-4.093V26.539a4.1,4.1,0,0,0-4.093-4.093ZM41.027,75.238v.575a.09.09,0,0,1-.09.09H19.6a.09.09,0,0,1-.09-.09v-.575a2.056,2.056,0,0,1,2.053-2.053H38.974a2.056,2.056,0,0,1,2.053,2.053Zm-5.59-3.827H25.1l2.556-5.933h5.224ZM56.445,57.583H4.093a2.323,2.323,0,0,1-2.32-2.32V26.539a2.323,2.323,0,0,1,2.32-2.32H56.445a2.323,2.323,0,0,1,2.32,2.32V55.263A2.323,2.323,0,0,1,56.445,57.583Z" transform="translate(0 -22.446)" fill="#5c22c3"/>
      <path id="Trazado_133611" data-name="Trazado 133611" d="M227.724,73.19l1.288-.732v3.116a.887.887,0,1,0,1.774,0V72.457l1.288.732a.887.887,0,1,0,.877-1.542c-2.864-1.628-2.639-1.505-2.728-1.54a.888.888,0,0,0-.757.052l-.005,0-2.613,1.486a.887.887,0,1,0,.877,1.541Z" transform="translate(-199.63 -64.419)" fill="#5c22c3"/>
      <path id="Trazado_133612" data-name="Trazado 133612" d="M143.6,234.548l-2.7,1.555v-1.472a.887.887,0,0,0-1.774,0c0,3.155-.135,3.453.451,3.778l2.592,1.514a.887.887,0,0,0,.894-1.532l-1.283-.749,2.7-1.557a.887.887,0,0,0-.885-1.537Z" transform="translate(-122.664 -208.76)" fill="#5c22c3"/>
      <path id="Trazado_133613" data-name="Trazado 133613" d="M328.617,233.745a.887.887,0,0,0-.887.887V236.1l-2.7-1.555a.887.887,0,1,0-.885,1.537l2.7,1.557-1.283.749a.887.887,0,1,0,.894,1.532c2.41-1.448,2.872-1.5,3.015-2.067a31.665,31.665,0,0,0,.028-3.225A.887.887,0,0,0,328.617,233.745Z" transform="translate(-285.427 -208.761)" fill="#5c22c3"/>
      <path id="Trazado_133614" data-name="Trazado 133614" d="M208.152,136.935l-6.454-3.727a.887.887,0,0,0-.887,0l-6.454,3.727a.887.887,0,0,0-.443.768c0,.022,0,.044,0,.066v7.387a.887.887,0,0,0,.443.768l6.386,3.687c.02.013.038.028.059.039a.886.886,0,0,0,.443.119h.009a.886.886,0,0,0,.443-.119c.021-.012.04-.026.059-.039l6.386-3.687a.886.886,0,0,0,.443-.768V137.77c0-.022,0-.044,0-.066a.886.886,0,0,0-.443-.768Zm-6.9-1.935,4.678,2.7-4.678,2.7-4.678-2.7Zm-5.563,4.241,4.671,2.7v5.4l-4.671-2.7Zm6.454,8.1v-5.4l4.671-2.7v5.4Z" transform="translate(-170.986 -120.008)" fill="#5c22c3"/>
      <path id="Trazado_133615" data-name="Trazado 133615" d="M39.353,65.678H35.214A1.716,1.716,0,0,0,33.5,67.392v21A1.716,1.716,0,0,0,35.214,90.1h4.138a1.716,1.716,0,0,0,1.714-1.714v-21A1.716,1.716,0,0,0,39.353,65.678Zm-.059,22.651h-4.02V67.452h4.02Z" transform="translate(-29.539 -60.566)" fill="#5c22c3"/>
      <path id="Trazado_133616" data-name="Trazado 133616" d="M56.054,104.514h.67a.887.887,0,0,0,0-1.774h-.67a.887.887,0,0,0,0,1.774Z" transform="translate(-48.644 -93.246)" fill="#5c22c3"/>
      <path id="Trazado_133617" data-name="Trazado 133617" d="M56.054,143.664h.67a.887.887,0,0,0,0-1.774h-.67a.887.887,0,0,0,0,1.774Z" transform="translate(-48.644 -127.767)" fill="#5c22c3"/>
      <path id="Trazado_133618" data-name="Trazado 133618" d="M56.054,182.814h.67a.887.887,0,0,0,0-1.774h-.67a.887.887,0,0,0,0,1.774Z" transform="translate(-48.644 -162.288)" fill="#5c22c3"/>
      <path id="Trazado_133619" data-name="Trazado 133619" d="M56.054,221.964h.67a.887.887,0,1,0,0-1.774h-.67a.887.887,0,1,0,0,1.774Z" transform="translate(-48.644 -196.809)" fill="#5c22c3"/>
      <path id="Trazado_133620" data-name="Trazado 133620" d="M370.711,56.066H359.338a1.48,1.48,0,0,0-1.478,1.478v9.642a1.48,1.48,0,0,0,1.478,1.478h11.373a1.48,1.48,0,0,0,1.478-1.478V57.544A1.48,1.48,0,0,0,370.711,56.066Zm-.3,10.825H359.634V57.84h10.782Z" transform="translate(-315.547 -52.091)" fill="#5c22c3"/>
      <path id="Trazado_133621" data-name="Trazado 133621" d="M387.842,90.615h2.719a.887.887,0,0,0,0-1.774h-2.719a.887.887,0,1,0,0,1.774Z" transform="translate(-341.202 -80.991)" fill="#5c22c3"/>
      <path id="Trazado_133622" data-name="Trazado 133622" d="M387.842,116.615h5.675a.887.887,0,1,0,0-1.774h-5.675a.887.887,0,1,0,0,1.774Z" transform="translate(-341.202 -103.916)" fill="#5c22c3"/>
    </g>
    <path id="Trazado_133623" data-name="Trazado 133623" d="M208.952,185.12l4.671,2.7v5.4l-4.671-2.7Z" transform="translate(-184.246 -143.44)" fill="#ba68c8"/>
    <path id="Trazado_133624" data-name="Trazado 133624" d="M263.54,193.219v-5.4l4.671-2.7v5.4Z" transform="translate(-232.379 -143.44)" fill="#ba68c8"/>
  </g>
</svg>
