<svg xmlns="http://www.w3.org/2000/svg" width="251.899" height="263.269" viewBox="0 0 251.899 263.269">
  <g id="Grupo_160028" data-name="Grupo 160028" transform="translate(-937 -3110.993)">
    <g id="Grupo_80321" data-name="Grupo 80321" transform="translate(100.64 2580.578)">
      <path id="Trazado_115208" data-name="Trazado 115208" d="M1046.785,597.359a106.859,106.859,0,0,1,19.064,45c6.754,40.278-12.3,75.136-44.563,87.759-14.318,28.59-45.147,44.616-80.217,38.027-47.479-8.918-84.757-55.9-83.263-104.938a122.788,122.788,0,0,1,15.36-54.848,102.91,102.91,0,0,1,34.941-36.847c16.677-10.5,36.174-16.154,57.948-16.8,31.245-.941,61.557,16.268,80.733,42.653Zm-17.137,100.347c.043-.746.068-1.481.092-2.2C1029.716,696.241,1029.688,696.974,1029.648,697.706Z" fill="#64b5f6"/>
      <g id="Sparkles">
        <path id="Trazado_115414" data-name="Trazado 115414" d="M940.943,733.7l1.034-.086a.211.211,0,0,0,.2-.226v-.009a.2.2,0,0,0-.131-.18l-.958-.4a1.121,1.121,0,0,1-.682-.938l-.086-1.035a.214.214,0,0,0-.228-.2h-.007a.206.206,0,0,0-.18.131l-.4.958a1.12,1.12,0,0,1-.939.682l-1.034.086a.215.215,0,0,0-.2.229v.006a.212.212,0,0,0,.131.18l.958.4a1.121,1.121,0,0,1,.682.939l.086,1.034a.213.213,0,0,0,.228.2h.006a.2.2,0,0,0,.18-.131l.4-.958A1.122,1.122,0,0,1,940.943,733.7Z" fill="#3d3d3d"/>
        <path id="Trazado_115415" data-name="Trazado 115415" d="M1046.782,574.494l1.386-.117a.289.289,0,0,0,.267-.309h0a.3.3,0,0,0-.18-.245l-1.282-.538a1.5,1.5,0,0,1-.915-1.263l-.116-1.386a.292.292,0,0,0-.315-.267h0a.291.291,0,0,0-.245.178l-.539,1.282a1.5,1.5,0,0,1-1.26.915l-1.387.119a.289.289,0,0,0-.266.31h0a.292.292,0,0,0,.178.245l1.283.539a1.5,1.5,0,0,1,.915,1.259l.117,1.387a.292.292,0,0,0,.315.267h0a.3.3,0,0,0,.246-.178l.539-1.282A1.5,1.5,0,0,1,1046.782,574.494Z" fill="#3d3d3d"/>
        <path id="Trazado_115416" data-name="Trazado 115416" d="M961.758,663.353l.772-.064a.164.164,0,0,0,.142-.182h0a.168.168,0,0,0-.093-.128l-.714-.3a.837.837,0,0,1-.509-.7l-.063-.771a.165.165,0,0,0-.184-.142h0a.161.161,0,0,0-.125.092l-.3.713a.838.838,0,0,1-.7.509l-.776.064a.164.164,0,0,0-.049.311l.714.3a.839.839,0,0,1,.509.7l.063.775a.164.164,0,0,0,.184.142.167.167,0,0,0,.127-.092l.3-.715A.839.839,0,0,1,961.758,663.353Z" fill="#3d3d3d"/>
        <path id="Trazado_115417" data-name="Trazado 115417" d="M1008.024,576.935l.826-.069a.172.172,0,0,0,.158-.185h0a.173.173,0,0,0-.1-.145l-.764-.321a.89.89,0,0,1-.542-.745l-.068-.825a.172.172,0,0,0-.186-.157h0a.186.186,0,0,0-.145.1l-.32.763a.89.89,0,0,1-.745.541l-.824.07a.173.173,0,0,0-.159.185h0a.173.173,0,0,0,.105.145l.764.32a.89.89,0,0,1,.541.745l.07.826a.171.171,0,0,0,.185.158h0a.182.182,0,0,0,.144-.1l.32-.764A.89.89,0,0,1,1008.024,576.935Z" fill="#3d3d3d"/>
        <path id="Trazado_115418" data-name="Trazado 115418" d="M1026.181,763.377l1.278-.107a.266.266,0,0,0,.243-.289h0a.267.267,0,0,0-.162-.223l-1.182-.5a1.378,1.378,0,0,1-.843-1.161l-.108-1.278a.268.268,0,0,0-.513-.082l-.5,1.183a1.385,1.385,0,0,1-1.161.843l-1.278.107a.267.267,0,0,0-.244.29h0a.268.268,0,0,0,.162.224l1.182.5a1.377,1.377,0,0,1,.843,1.159l.108,1.279a.268.268,0,0,0,.514.081l.5-1.183A1.381,1.381,0,0,1,1026.181,763.377Z" fill="#3d3d3d"/>
      </g>
      <rect id="Rectángulo_33823" data-name="Rectángulo 33823" width="231.975" height="218.298" transform="translate(836.36 759.534) rotate(-81)" fill="none"/>
    </g>
    <g id="blackboard" transform="translate(-1656.594 2689.247)">
      <g id="Grupo_139260" data-name="Grupo 139260">
        <path id="Trazado_134063" data-name="Trazado 134063" d="M2759.6,516.536V594.6l-5.54,4.177V520.713Z" fill="#ba68c8"/>
        <path id="Trazado_134064" data-name="Trazado 134064" d="M2759.6,516.536l-5.54,4.177-67.3-50.752,5.539-4.176Z" fill="#ba68c8"/>
        <path id="Trazado_134065" data-name="Trazado 134065" d="M2701.2,522.369l9.642,7.267-4.821-18.225Zm52.859-1.656v78.068l-67.3-50.762V469.961ZM2726.988,543.6c0-4.978-1.865-8.174-3.908-9.714l-1.7-1.287c1.47,1.118,2.811.833,2.811-2.742s-1.341-5.885-2.811-6.992l-4.376-3.3V542.83l6.072,4.588C2725.123,548.957,2726.988,548.567,2726.988,543.6Z" fill="#fff"/>
        <path id="Trazado_134066" data-name="Trazado 134066" d="M2754.056,598.781l-7.259,5.474-67.3-50.752,7.259-5.484Z" fill="#dae0e5"/>
        <path id="Trazado_134067" data-name="Trazado 134067" d="M2736.783,596.7l-13.292.844V586.684Z" fill="#fff"/>
        <path id="Trazado_134068" data-name="Trazado 134068" d="M2723.08,533.886c2.043,1.54,3.908,4.736,3.908,9.714s-1.865,5.357-3.908,3.818l-6.072-4.588V529.309Z" fill="#fff"/>
        <path id="Trazado_134069" data-name="Trazado 134069" d="M2721.384,522.865c1.47,1.107,2.811,3.417,2.811,6.992s-1.341,3.86-2.811,2.742l-4.376-3.29v-9.746Z" fill="#fff"/>
        <path id="Trazado_134070" data-name="Trazado 134070" d="M2723.492,597.547v1.919a2.081,2.081,0,0,1-.816,1.572.827.827,0,0,1-.088.074,3.851,3.851,0,0,1-4.369,0,2.077,2.077,0,0,1-.9-1.646V582.022l6.177,4.662Z" fill="#969a9e"/>
        <path id="Trazado_134071" data-name="Trazado 134071" d="M2710.839,529.636l-9.642-7.267,4.821-10.958Z" fill="#fff"/>
      </g>
      <g id="Grupo_139261" data-name="Grupo 139261">
        <path id="Trazado_134072" data-name="Trazado 134072" d="M2698.371,528.781l7.647-17.371,7.639,28.9" fill="none" stroke="#373a3a" stroke-linecap="round" stroke-linejoin="round" stroke-width="3"/>
        <line id="Línea_362" data-name="Línea 362" x2="9.642" y2="7.267" transform="translate(2701.197 522.369)" fill="none" stroke="#373a3a" stroke-linecap="round" stroke-linejoin="round" stroke-width="3"/>
        <line id="Línea_363" data-name="Línea 363" y2="23.266" transform="translate(2717.008 519.563)" fill="none" stroke="#373a3a" stroke-linecap="round" stroke-linejoin="round" stroke-width="3"/>
        <path id="Trazado_134073" data-name="Trazado 134073" d="M2717.008,519.563l4.376,3.3c1.47,1.107,2.811,3.417,2.811,6.992s-1.341,3.86-2.811,2.742l-4.376-3.29" fill="none" stroke="#373a3a" stroke-linecap="round" stroke-linejoin="round" stroke-width="3"/>
        <path id="Trazado_134074" data-name="Trazado 134074" d="M2721.384,532.6l1.7,1.287c2.043,1.54,3.908,4.736,3.908,9.714s-1.865,5.357-3.908,3.818l-6.072-4.588" fill="none" stroke="#373a3a" stroke-linecap="round" stroke-linejoin="round" stroke-width="3"/>
        <path id="Trazado_134075" data-name="Trazado 134075" d="M2740.821,537.588l-2.366-1.782c-4.248-3.207-7.687-.612-7.687,5.8a25.32,25.32,0,0,0,2.252,9.9,19.274,19.274,0,0,0,5.435,7.5l2.366,1.782" fill="none" stroke="#373a3a" stroke-linecap="round" stroke-linejoin="round" stroke-width="3"/>
        <path id="Trazado_134076" data-name="Trazado 134076" d="M2686.751,469.961l5.539-4.176,67.3,50.751V594.6l-5.54,4.177" fill="none" stroke="#373a3a" stroke-linecap="round" stroke-linejoin="round" stroke-width="3"/>
        <path id="Trazado_134077" data-name="Trazado 134077" d="M2754.056,598.781l-67.3-50.762V469.961l67.3,50.752Z" fill="none" stroke="#373a3a" stroke-linecap="round" stroke-linejoin="round" stroke-width="3"/>
        <path id="Trazado_134078" data-name="Trazado 134078" d="M2686.751,548.019l-7.259,5.484,67.3,50.752,7.259-5.474" fill="none" stroke="#373a3a" stroke-linecap="round" stroke-linejoin="round" stroke-width="3"/>
        <line id="Línea_364" data-name="Línea 364" y1="4.177" x2="5.539" transform="translate(2754.056 516.536)" fill="none" stroke="#373a3a" stroke-linecap="round" stroke-linejoin="round" stroke-width="3"/>
        <path id="Trazado_134079" data-name="Trazado 134079" d="M2723.492,586.684v12.782a2.081,2.081,0,0,1-.816,1.572.827.827,0,0,1-.088.074,3.851,3.851,0,0,1-4.369,0,2.077,2.077,0,0,1-.9-1.646V582.022" fill="none" stroke="#373a3a" stroke-linecap="round" stroke-linejoin="round" stroke-width="3"/>
        <line id="Línea_365" data-name="Línea 365" x2="20.002" y2="28.888" transform="translate(2722.677 601.038)" fill="none" stroke="#373a3a" stroke-linecap="round" stroke-linejoin="round" stroke-width="3"/>
        <line id="Línea_366" data-name="Línea 366" y1="28.888" x2="20.002" transform="translate(2698.121 601.038)" fill="none" stroke="#373a3a" stroke-linecap="round" stroke-linejoin="round" stroke-width="3"/>
        <line id="Línea_367" data-name="Línea 367" x1="19.194" y1="1.223" transform="translate(2698.121 596.323)" fill="none" stroke="#373a3a" stroke-linecap="round" stroke-linejoin="round" stroke-width="3"/>
        <line id="Línea_368" data-name="Línea 368" y1="0.844" x2="13.291" transform="translate(2723.492 596.703)" fill="none" stroke="#373a3a" stroke-linecap="round" stroke-linejoin="round" stroke-width="3"/>
      </g>
    </g>
  </g>
</svg>
