<svg xmlns="http://www.w3.org/2000/svg" width="507.828" height="569.782" viewBox="0 0 507.828 569.782">
  <g id="Grupo_139343" data-name="Grupo 139343" transform="translate(-177.172 -2543.991)">
    <path id="Trazado_115208" data-name="Trazado 115208" d="M3356.448,620.469a155.665,155.665,0,0,1-25.112-63.259c-8.9-56.618,16.205-105.614,58.694-123.36,18.856-40.188,59.463-62.717,105.656-53.453,62.534,12.536,111.634,78.582,109.667,147.509-.353,12.393-3.033,44.711-20.231,77.1a141.164,141.164,0,0,1-46.022,51.8c-21.966,14.755-47.644,22.707-76.324,23.626-41.153,1.323-81.078-22.866-106.335-59.956Zm22.572-141.054c-.056,1.047-.091,2.074-.122,3.093.033-1.039.068-2.067.122-3.093Z" transform="translate(-2920.41 2199.708)" fill="#64b5f6"/>
    <path id="Trazado_134232" data-name="Trazado 134232" d="M3750.467,349.689l-6.851,11.859-8.309-4.8a1.336,1.336,0,0,0-1.826.489l-8.8,15.24-8.587-4.958a1.337,1.337,0,0,0-1.827.489l-8.069,13.98a1.337,1.337,0,1,0,2.315,1.337l7.4-12.822,8.587,4.958a1.336,1.336,0,0,0,1.826-.489l8.8-15.239,8.309,4.8a1.337,1.337,0,0,0,1.826-.489l6.851-11.859,7.469,4.311a1.337,1.337,0,0,0,1.827-.489l9.466-16.4a1.337,1.337,0,1,0-2.315-1.337l-8.8,15.24-7.469-4.311A1.338,1.338,0,0,0,3750.467,349.689Z" transform="translate(-3095.54 2218.653)" fill="#3a3a3a"/>
    <g id="Grupo_139341" data-name="Grupo 139341" transform="translate(-1483.067 2307.987)">
      <g id="Grupo_139327" data-name="Grupo 139327" transform="translate(1660.239 257.291)">
        <g id="Grupo_139323" data-name="Grupo 139323" transform="translate(0 205.701)">
          <g id="Grupo_139316" data-name="Grupo 139316">
            <path id="Trazado_134184" data-name="Trazado 134184" d="M2097.305,934.288h-.012c-.032-1.906-1.3-3.806-3.824-5.265L1849.548,788.192c-5.105-2.948-13.374-2.952-18.47-.01L1666.3,883.317c-2.52,1.455-3.782,3.355-3.8,5.265h-.011v4.334h0v.034h.006c.019,1.92,1.293,3.835,3.829,5.3l243.924,140.83c5.106,2.948,13.373,2.953,18.47.01l164.776-95.134c2.519-1.455,3.78-3.355,3.806-5.265h.009Z" transform="translate(-1661.554 -785.048)" fill="#4b8dec"/>
            <path id="Trazado_134185" data-name="Trazado 134185" d="M1918.179,1040.909a19.749,19.749,0,0,1-9.716-2.338l-243.923-140.83c-2.7-1.559-4.22-3.679-4.292-5.98a.823.823,0,0,1-.009-.125v-4.3a1.115,1.115,0,0,1,.012-.154c.06-2.307,1.572-4.429,4.269-5.985L1829.3,786.062a21.33,21.33,0,0,1,19.4.01L2092.619,926.9c2.663,1.541,4.178,3.628,4.285,5.895a.934.934,0,0,1,.017.177v4.4a.961.961,0,0,1-.013.16c-.092,2.278-1.6,4.372-4.268,5.911l-164.776,95.134A19.677,19.677,0,0,1,1918.179,1040.909ZM1662.1,891.53a.912.912,0,0,1,.006.1c.017,1.661,1.211,3.261,3.364,4.5l243.923,140.83a19.5,19.5,0,0,0,17.539.009l164.776-95.134c2.132-1.231,3.318-2.819,3.341-4.471a.97.97,0,0,1,.01-.123v-4.118a1.008,1.008,0,0,1-.012-.133c-.028-1.65-1.222-3.239-3.358-4.475L1847.767,787.683a19.5,19.5,0,0,0-17.539-.01l-164.777,95.135c-2.133,1.231-3.32,2.819-3.339,4.47a1.017,1.017,0,0,1-.011.132Z" transform="translate(-1660.239 -783.733)" fill="#000102"/>
          </g>
          <g id="Grupo_139317" data-name="Grupo 139317" transform="translate(256.468 42.285)">
            <path id="Trazado_134186" data-name="Trazado 134186" d="M2459.69,994.038c-.032-1.906-1.3-3.806-3.824-5.265L2281.351,888.014v213a19.029,19.029,0,0,0,9.76-2.172l164.777-95.134c2.519-1.455,3.78-3.355,3.806-5.265h.01v-4.4Z" transform="translate(-2280.42 -887.083)" fill="#000102"/>
            <path id="Trazado_134187" data-name="Trazado 134187" d="M2280.613,1100.635l-.6-.007a.931.931,0,0,1-.908-.931v-213a.931.931,0,0,1,1.4-.806l174.515,100.758c2.663,1.54,4.178,3.628,4.285,5.893a.938.938,0,0,1,.017.178v4.4a.961.961,0,0,1-.013.16c-.092,2.278-1.6,4.372-4.268,5.911L2290.26,1098.33A19.591,19.591,0,0,1,2280.613,1100.635Zm.353-212.324v210.46a17.533,17.533,0,0,0,8.363-2.052l164.776-95.135c2.132-1.231,3.318-2.819,3.34-4.471a1.017,1.017,0,0,1,.01-.123v-4.118a.967.967,0,0,1-.012-.133c-.028-1.65-1.222-3.239-3.358-4.475Z" transform="translate(-2279.104 -885.767)" fill="#000102"/>
          </g>
          <g id="Grupo_139318" data-name="Grupo 139318">
            <path id="Trazado_134188" data-name="Trazado 134188" d="M1928.712,1034.823c-5.1,2.938-13.363,2.933-18.47-.014l-243.924-140.83c-5.105-2.948-5.116-7.719-.019-10.662l164.777-95.134c5.1-2.943,13.365-2.938,18.47.01l243.921,140.831c5.106,2.948,5.117,7.724.021,10.662Z" transform="translate(-1661.553 -785.048)" fill="#fff"/>
            <path id="Trazado_134189" data-name="Trazado 134189" d="M1918.184,1036.639a19.751,19.751,0,0,1-9.721-2.339L1664.539,893.47c-2.773-1.6-4.3-3.784-4.3-6.148s1.52-4.532,4.281-6.126L1829.3,786.062a21.33,21.33,0,0,1,19.4.01L2092.619,926.9c2.775,1.6,4.3,3.787,4.3,6.152s-1.521,4.531-4.281,6.122l-164.776,95.14A19.7,19.7,0,0,1,1918.184,1036.639Zm-79.2-251.044a17.808,17.808,0,0,0-8.754,2.079l-164.777,95.135c-2.161,1.247-3.35,2.851-3.35,4.514s1.2,3.281,3.37,4.536l243.923,140.83a19.509,19.509,0,0,0,17.539.015l164.776-95.14c2.16-1.246,3.35-2.847,3.35-4.511s-1.2-3.282-3.371-4.538L1847.767,787.683A17.875,17.875,0,0,0,1838.982,785.595Z" transform="translate(-1660.239 -783.733)" fill="#000102"/>
          </g>
          <g id="Grupo_139319" data-name="Grupo 139319" transform="translate(62.533 11.066)">
            <path id="Trazado_134190" data-name="Trazado 134190" d="M2075.793,1016.557l-262.414-151.5,90.707-52.372L2166.5,964.189Z" transform="translate(-1812.448 -811.752)" fill="#afafaf"/>
            <path id="Trazado_134191" data-name="Trazado 134191" d="M2074.477,1016.171a.93.93,0,0,1-.466-.124L1811.6,864.545a.931.931,0,0,1,0-1.612l90.706-52.372a.928.928,0,0,1,.931,0l262.415,151.507a.93.93,0,0,1,0,1.612l-90.708,52.367A.927.927,0,0,1,2074.477,1016.171ZM1813.925,863.739l260.552,150.426,88.846-51.292L1902.771,812.442Z" transform="translate(-1811.133 -810.436)" fill="#000102"/>
          </g>
          <g id="Grupo_139320" data-name="Grupo 139320" transform="translate(83.813 23.387)">
            <path id="Trazado_134192" data-name="Trazado 134192" d="M1882.427,894.516a7.67,7.67,0,0,1-6.959,0l-9.292-5.362c-1.922-1.11-1.929-2.909-.007-4.014l5.792-3.346a7.685,7.685,0,0,1,6.958,0l9.291,5.362c1.923,1.111,1.928,2.909.008,4.019Zm23.79,7.05c1.92-1.106,1.915-2.909-.008-4.019L1900.4,894.2a7.689,7.689,0,0,0-6.96,0l-5.79,3.345c-1.924,1.106-1.917,2.9.008,4.014l5.806,3.355a7.686,7.686,0,0,0,6.96.005Zm26.078-5c1.917-1.111,1.915-2.909-.008-4.019l-5.806-3.35a7.688,7.688,0,0,0-6.96-.005l-5.79,3.341c-1.921,1.11-1.916,2.909.008,4.019l5.8,3.355a7.7,7.7,0,0,0,6.96,0Zm18,10.39c1.918-1.106,1.916-2.9-.008-4.019l-5.806-3.35a7.7,7.7,0,0,0-6.961,0l-5.79,3.345c-1.92,1.105-1.916,2.9.009,4.014l5.806,3.355a7.7,7.7,0,0,0,6.96,0Zm18,10.39c1.917-1.105,1.916-2.9-.007-4.014l-5.806-3.355a7.7,7.7,0,0,0-6.961-.005l-5.791,3.346c-1.919,1.11-1.915,2.909.008,4.019l5.807,3.35a7.688,7.688,0,0,0,6.96,0Zm18,10.395c1.918-1.105,1.916-2.909-.007-4.019l-5.806-3.35a7.673,7.673,0,0,0-6.96,0l-5.791,3.341c-1.92,1.11-1.915,2.909.009,4.019l5.806,3.351a7.672,7.672,0,0,0,6.96,0Zm18,10.39c1.918-1.106,1.915-2.909-.007-4.014l-5.807-3.355a7.687,7.687,0,0,0-6.96,0l-5.79,3.345c-1.921,1.105-1.916,2.9.009,4.014l5.806,3.355a7.684,7.684,0,0,0,6.958,0Zm18,10.39c1.919-1.105,1.916-2.9-.007-4.014l-5.806-3.35a7.692,7.692,0,0,0-6.961-.009l-5.79,3.346c-1.92,1.105-1.917,2.909.008,4.019l5.806,3.35a7.685,7.685,0,0,0,6.958,0Zm18,10.395c1.918-1.11,1.917-2.909-.007-4.019l-5.806-3.35a7.691,7.691,0,0,0-6.961,0l-5.79,3.346c-1.92,1.105-1.916,2.9.007,4.014l5.806,3.351a7.674,7.674,0,0,0,6.961,0Zm18,10.39c1.919-1.106,1.918-2.9-.007-4.014l-5.806-3.355a7.7,7.7,0,0,0-6.959,0l-5.791,3.346c-1.92,1.105-1.917,2.9.007,4.014l5.807,3.355a7.7,7.7,0,0,0,6.958,0Zm18,10.395c1.919-1.11,1.917-2.909-.008-4.019l-5.806-3.355a7.688,7.688,0,0,0-6.958,0l-5.791,3.341c-1.92,1.11-1.917,2.9.007,4.019l5.807,3.35a7.687,7.687,0,0,0,6.959.005Zm18,10.39c1.917-1.111,1.915-2.909-.008-4.019l-5.806-3.351a7.69,7.69,0,0,0-6.96,0l-5.79,3.341c-1.92,1.11-1.917,2.909.007,4.019l5.806,3.355a7.7,7.7,0,0,0,6.958,0Zm30.038,17.342c1.918-1.105,1.916-2.909-.008-4.019l-17.847-10.3a7.7,7.7,0,0,0-6.958,0l-5.791,3.346c-1.92,1.105-1.917,2.9.007,4.019l17.847,10.3a7.685,7.685,0,0,0,6.958,0Zm-209.441-121.6c1.92-1.106,1.916-2.9-.008-4.014l-18-10.4a7.7,7.7,0,0,0-6.958,0l-5.793,3.345c-1.922,1.11-1.914,2.909.009,4.019l18,10.39a7.684,7.684,0,0,0,6.958.005ZM1959.5,870.8c1.918-1.106,1.915-2.9-.007-4.019l-5.807-3.35a7.706,7.706,0,0,0-6.961-.005l-5.789,3.346c-1.923,1.11-1.916,2.9.009,4.019l5.806,3.351a7.687,7.687,0,0,0,6.959.005Zm18,10.395c1.919-1.11,1.916-2.909-.007-4.019l-5.807-3.356a7.718,7.718,0,0,0-6.96,0l-5.79,3.345c-1.923,1.111-1.916,2.909.008,4.019l5.806,3.35a7.688,7.688,0,0,0,6.96.005Zm18,10.39c1.92-1.106,1.916-2.909-.007-4.019l-5.806-3.35a7.7,7.7,0,0,0-6.96-.005l-5.789,3.345c-1.923,1.111-1.916,2.9.007,4.014l5.806,3.355a7.673,7.673,0,0,0,6.96,0Zm18,10.39c1.919-1.105,1.915-2.9-.007-4.015l-5.807-3.355a7.7,7.7,0,0,0-6.959-.005l-5.79,3.346c-1.922,1.11-1.916,2.9.007,4.014l5.807,3.355a7.688,7.688,0,0,0,6.959.005Zm18,10.39c1.917-1.105,1.916-2.9-.007-4.014l-5.807-3.35a7.672,7.672,0,0,0-6.96-.005l-5.79,3.341c-1.922,1.111-1.917,2.909.007,4.019l5.807,3.35a7.688,7.688,0,0,0,6.96.005Zm18,10.395c1.919-1.105,1.917-2.909-.007-4.019l-5.807-3.35a7.684,7.684,0,0,0-6.958-.005l-5.79,3.345c-1.924,1.106-1.916,2.9.007,4.014l5.806,3.35a7.674,7.674,0,0,0,6.96.01Zm18,10.39c1.92-1.105,1.917-2.9-.007-4.015l-5.806-3.355a7.7,7.7,0,0,0-6.96-.005l-5.789,3.345c-1.922,1.111-1.918,2.909.007,4.015l5.806,3.355a7.689,7.689,0,0,0,6.96,0Zm18,10.395c1.919-1.11,1.917-2.909-.007-4.019l-5.806-3.351a7.671,7.671,0,0,0-6.96,0l-5.79,3.34c-1.922,1.111-1.916,2.909.007,4.019l5.806,3.35a7.674,7.674,0,0,0,6.96.005Zm18,10.39c1.919-1.11,1.917-2.909-.007-4.019l-5.806-3.35a7.7,7.7,0,0,0-6.96-.005l-5.79,3.345c-1.923,1.106-1.916,2.9.007,4.014l5.807,3.355a7.7,7.7,0,0,0,6.96.005Zm18,10.39c1.919-1.105,1.916-2.9-.008-4.015l-5.807-3.355a7.7,7.7,0,0,0-6.959-.005l-5.79,3.346c-1.923,1.11-1.917,2.9.007,4.019l5.807,3.35a7.685,7.685,0,0,0,6.958,0Zm17.973,10.38c1.92-1.11,1.919-2.909-.006-4.02l-5.807-3.355a7.687,7.687,0,0,0-6.959,0l-5.79,3.341c-1.923,1.11-1.916,2.909.007,4.019l5.807,3.35a7.686,7.686,0,0,0,6.959,0ZM1951.63,850.542c1.921-1.11,1.916-2.909-.009-4.019l-5.806-3.355a7.7,7.7,0,0,0-6.958,0l-.863.495c-1.921,1.11-1.916,2.909.008,4.019l5.806,3.355a7.719,7.719,0,0,0,6.96,0Zm18,10.39c1.922-1.11,1.916-2.909-.007-4.019l-5.807-3.351a7.686,7.686,0,0,0-6.959,0l-.863.5c-1.92,1.11-1.916,2.9.007,4.019l5.806,3.35a7.687,7.687,0,0,0,6.96,0Zm18,10.39c1.92-1.106,1.915-2.9-.008-4.019l-5.807-3.35a7.7,7.7,0,0,0-6.96,0l-.863.5c-1.919,1.11-1.915,2.909.007,4.019l5.807,3.35a7.688,7.688,0,0,0,6.96.005Zm18,10.395c1.92-1.11,1.915-2.909-.009-4.019l-5.806-3.35a7.688,7.688,0,0,0-6.96-.005l-.864.495c-1.919,1.11-1.915,2.909.008,4.019l5.806,3.355a7.692,7.692,0,0,0,6.961,0Zm18,10.39c1.921-1.11,1.916-2.9-.008-4.019l-5.8-3.35a7.687,7.687,0,0,0-6.96,0l-.863.5c-1.921,1.11-1.916,2.9.007,4.015l5.806,3.355a7.686,7.686,0,0,0,6.96,0Zm18,10.395c1.922-1.11,1.916-2.909-.008-4.019l-5.806-3.355a7.7,7.7,0,0,0-6.96,0l-.863.5c-1.92,1.11-1.916,2.909.009,4.019l5.8,3.35a7.688,7.688,0,0,0,6.96.005Zm18,10.39c1.921-1.11,1.916-2.909-.008-4.019l-5.805-3.35a7.69,7.69,0,0,0-6.961-.01l-.863.5c-1.92,1.11-1.917,2.909.008,4.019l5.806,3.351a7.674,7.674,0,0,0,6.96,0Zm18,10.39c1.92-1.105,1.915-2.9-.007-4.019l-5.807-3.35a7.7,7.7,0,0,0-6.96,0l-.863.5c-1.92,1.105-1.916,2.909.007,4.014l5.807,3.355a7.687,7.687,0,0,0,6.96,0Zm18,10.39c1.922-1.106,1.917-2.9-.007-4.014l-5.807-3.355a7.7,7.7,0,0,0-6.959,0l-.863.5c-1.92,1.11-1.915,2.909.008,4.019l5.807,3.35a7.685,7.685,0,0,0,6.958,0Zm18,10.395c1.921-1.11,1.916-2.909-.008-4.019l-5.806-3.35a7.673,7.673,0,0,0-6.96-.005l-.862.5c-1.921,1.106-1.917,2.9.008,4.014l5.806,3.355a7.7,7.7,0,0,0,6.959.005Zm17.973,10.375c1.921-1.105,1.917-2.909-.007-4.014l-5.806-3.355a7.687,7.687,0,0,0-6.96,0l-.863.5c-1.921,1.106-1.917,2.909.007,4.019l5.807,3.35a7.7,7.7,0,0,0,6.959,0Zm18,10.39c1.919-1.105,1.915-2.9-.008-4.014l-5.806-3.35a7.689,7.689,0,0,0-6.96-.01l-.863.5c-1.92,1.11-1.916,2.909.008,4.019l5.806,3.35a7.673,7.673,0,0,0,6.96.005Zm24.257,14.007c1.922-1.111,1.918-2.9-.006-4.019l-12.092-6.977a7.687,7.687,0,0,0-6.96-.005l-.863.495c-1.921,1.11-1.914,2.909.009,4.019l12.091,6.982a7.686,7.686,0,0,0,6.958,0Zm-13.616,7.859c1.917-1.105,1.917-2.9-.006-4.014l-8.583-4.955a7.7,7.7,0,0,0-6.958,0l-5.792,3.341c-1.924,1.115-1.916,2.909.007,4.019l8.581,4.955a7.689,7.689,0,0,0,6.96.005ZM1942.086,860.073c1.919-1.105,1.917-2.909-.007-4.019l-9.291-5.363a7.687,7.687,0,0,0-6.959,0l-5.792,3.345c-1.921,1.106-1.915,2.9.009,4.014l9.291,5.367a7.685,7.685,0,0,0,6.958,0Zm2.939,23.108c1.919-1.106,1.915-2.9-.01-4.014l-5.806-3.355a7.684,7.684,0,0,0-6.957-.005l-5.793,3.346c-1.92,1.105-1.916,2.909.007,4.015l5.806,3.355a7.687,7.687,0,0,0,6.96,0Zm18,10.39c1.919-1.106,1.916-2.9-.009-4.015l-5.806-3.35a7.687,7.687,0,0,0-6.958-.01l-5.793,3.345c-1.918,1.11-1.916,2.909.008,4.019l5.807,3.35a7.673,7.673,0,0,0,6.96.005Zm18,10.395c1.918-1.106,1.915-2.909-.009-4.015l-5.806-3.355a7.682,7.682,0,0,0-6.957-.005l-5.793,3.345c-1.92,1.106-1.916,2.9.007,4.014l5.806,3.355a7.686,7.686,0,0,0,6.96,0Zm18,10.39c1.917-1.106,1.914-2.9-.01-4.014l-5.807-3.355a7.7,7.7,0,0,0-6.956-.005l-5.793,3.346c-1.921,1.11-1.918,2.909.007,4.019l5.806,3.351a7.685,7.685,0,0,0,6.958,0Zm18,10.395c1.917-1.11,1.912-2.909-.011-4.019l-5.806-3.351a7.685,7.685,0,0,0-6.958,0l-5.793,3.341c-1.92,1.11-1.916,2.909.007,4.019l5.806,3.35a7.688,7.688,0,0,0,6.96.01Zm18,10.39c1.919-1.111,1.915-2.9-.01-4.019l-5.806-3.35a7.686,7.686,0,0,0-6.959-.005l-5.792,3.341c-1.919,1.11-1.915,2.909.007,4.019l5.807,3.355a7.706,7.706,0,0,0,6.961.005Zm18,10.39c1.917-1.106,1.914-2.9-.011-4.014l-5.806-3.355a7.7,7.7,0,0,0-6.957-.005l-5.793,3.346c-1.92,1.11-1.915,2.9.007,4.019l5.807,3.35a7.689,7.689,0,0,0,6.96.005Zm18,10.395c1.919-1.11,1.914-2.909-.01-4.019l-5.807-3.351a7.682,7.682,0,0,0-6.956,0l-5.792,3.341c-1.921,1.111-1.916,2.909.007,4.019l5.806,3.35a7.7,7.7,0,0,0,6.96.01Zm18,10.39c1.917-1.111,1.914-2.9-.01-4.019l-5.807-3.35a7.683,7.683,0,0,0-6.957,0l-5.793,3.345c-1.92,1.106-1.916,2.9.007,4.014l5.806,3.356a7.7,7.7,0,0,0,6.96,0Zm18,10.39c1.917-1.106,1.914-2.9-.01-4.014l-5.806-3.355a7.718,7.718,0,0,0-6.959-.005l-5.792,3.346c-1.92,1.11-1.916,2.909.009,4.019l5.8,3.351a7.7,7.7,0,0,0,6.962,0Zm35.264,20.363c1.919-1.11,1.912-2.909-.01-4.019L2119.2,979.731a7.7,7.7,0,0,0-6.959-.01l-5.792,3.345c-1.92,1.111-1.915,2.909.009,4.019l23.071,13.319a7.692,7.692,0,0,0,6.961.009ZM1927.613,872.451c1.921-1.106,1.916-2.909-.009-4.019l-12.773-7.375a7.687,7.687,0,0,0-6.958,0l-5.79,3.341c-1.923,1.11-1.916,2.9.007,4.019l12.774,7.375a7.687,7.687,0,0,0,6.959,0Zm-3.4,39.5c1.92-1.106,1.917-2.9-.007-4.014l-5.806-3.355a7.705,7.705,0,0,0-6.961,0l-5.789,3.346c-1.922,1.11-1.916,2.909.007,4.019l5.807,3.35a7.683,7.683,0,0,0,6.959.005Zm18,10.395c1.922-1.11,1.916-2.909-.007-4.019l-5.806-3.355a7.687,7.687,0,0,0-6.958,0l-5.79,3.341c-1.922,1.11-1.917,2.909.007,4.02l5.806,3.35a7.673,7.673,0,0,0,6.96,0Zm142.692,89.069c-1.919,1.106-1.915,2.9.009,4.019l9.289,5.362a7.707,7.707,0,0,0,6.962,0l5.789-3.345c1.92-1.106,1.914-2.909-.01-4.019l-9.289-5.362a7.7,7.7,0,0,0-6.96,0Zm-18-10.395c-1.921,1.111-1.916,2.909.009,4.019l5.8,3.355a7.7,7.7,0,0,0,6.959,0l5.791-3.345c1.92-1.11,1.916-2.909-.009-4.019l-5.8-3.351a7.69,7.69,0,0,0-6.961,0Zm-18-10.39c-1.921,1.11-1.916,2.909.007,4.019l5.806,3.35a7.691,7.691,0,0,0,6.961,0l5.79-3.341c1.92-1.11,1.915-2.909-.009-4.019l-5.807-3.355a7.685,7.685,0,0,0-6.958,0Zm-36-20.78c-1.92,1.106-1.915,2.9.007,4.014l5.807,3.35a7.688,7.688,0,0,0,6.96.01l5.789-3.346c1.922-1.11,1.916-2.909-.008-4.019l-5.806-3.351a7.685,7.685,0,0,0-6.958,0Zm18,10.39c-1.921,1.106-1.916,2.9.007,4.015l5.806,3.355a7.7,7.7,0,0,0,6.96,0l5.791-3.346c1.92-1.11,1.915-2.909-.009-4.014l-5.807-3.355a7.687,7.687,0,0,0-6.96,0Zm-17.436-16.756c1.921-1.105,1.918-2.9-.007-4.014l-59.066-34.1a7.689,7.689,0,0,0-6.96,0l-5.79,3.341c-1.922,1.115-1.916,2.909.007,4.019l59.069,34.1a7.686,7.686,0,0,0,6.958.005Z" transform="translate(-1863.799 -841.437)" fill="#fff"/>
            <path id="Trazado_134193" data-name="Trazado 134193" d="M2096.373,1021.3h0a8.038,8.038,0,0,1-3.951-.959l-9.289-5.362a3.033,3.033,0,0,1-.008-5.633l5.789-3.344a8.871,8.871,0,0,1,7.891,0l9.289,5.362a3.372,3.372,0,0,1,1.912,2.823,3.314,3.314,0,0,1-1.9,2.81l-5.788,3.344A8.033,8.033,0,0,1,2096.373,1021.3Zm-3.52-14.39a6.225,6.225,0,0,0-3.01.705l-5.79,3.344c-.616.355-.97.791-.972,1.2s.357.851.982,1.213l9.288,5.361a6.264,6.264,0,0,0,3.02.709h0a6.231,6.231,0,0,0,3.012-.705l5.788-3.344c.616-.355.97-.792.97-1.2s-.358-.851-.98-1.211l-9.289-5.362A6.247,6.247,0,0,0,2092.853,1006.906Zm20.884,4.362a8.013,8.013,0,0,1-3.945-.958l-17.847-10.3a3.033,3.033,0,0,1-.006-5.632l5.79-3.344a8.873,8.873,0,0,1,7.89,0l17.847,10.3a3.032,3.032,0,0,1,.006,5.631l-5.79,3.341A8,8,0,0,1,2113.737,1011.268Zm-12.07-19.329a6.222,6.222,0,0,0-3.008.7l-5.791,3.346c-.618.355-.973.792-.973,1.2s.357.85.981,1.212l17.846,10.3a7.07,7.07,0,0,0,6.028,0l5.792-3.34c.618-.356.971-.793.971-1.2s-.356-.85-.979-1.208l-17.847-10.3A6.248,6.248,0,0,0,2101.667,991.939Zm-26.778,16.955h0a8.042,8.042,0,0,1-3.951-.959l-5.8-3.355a3.032,3.032,0,0,1-.009-5.631l5.789-3.34a8.859,8.859,0,0,1,7.892,0l5.8,3.35a3.032,3.032,0,0,1,.009,5.632l-5.791,3.346A8.024,8.024,0,0,1,2074.89,1008.894Zm-.039-12.379a6.2,6.2,0,0,0-3.006.705l-5.789,3.341c-.618.358-.973.8-.972,1.2s.358.847.981,1.207l5.8,3.355a6.265,6.265,0,0,0,3.021.709h0a6.223,6.223,0,0,0,3.01-.705l5.789-3.344c.618-.358.972-.8.972-1.2s-.358-.847-.981-1.207l-5.8-3.35A6.256,6.256,0,0,0,2074.851,996.515Zm56.851,4.388h0a8,8,0,0,1-3.955-.964l-23.069-13.317a3.032,3.032,0,0,1-.009-5.631l5.792-3.345a8.886,8.886,0,0,1,7.89.01l23.071,13.318a3.034,3.034,0,0,1,.011,5.632l-5.792,3.345A8.02,8.02,0,0,1,2131.7,1000.9Zm-17.313-22.347a6.2,6.2,0,0,0-3,.7L2105.6,982.6c-.617.358-.972.8-.972,1.2s.357.847.981,1.207l23.071,13.318a6.219,6.219,0,0,0,3.023.713h0a6.23,6.23,0,0,0,3.007-.7l5.79-3.344c.616-.356.971-.794.969-1.2s-.356-.847-.979-1.207l-23.071-13.319A6.259,6.259,0,0,0,2114.389,978.555ZM2056.895,998.5h0a8.031,8.031,0,0,1-3.955-.96l-5.806-3.351a3.032,3.032,0,0,1-.007-5.631l5.79-3.341a8.871,8.871,0,0,1,7.89,0l5.807,3.355a3.032,3.032,0,0,1,.008,5.631l-5.79,3.341A7.991,7.991,0,0,1,2056.895,998.5Zm-.035-12.378a6.218,6.218,0,0,0-3.013.708l-5.79,3.341c-.618.358-.974.8-.974,1.2s.358.847.981,1.207l5.806,3.35a6.262,6.262,0,0,0,3.024.71h0a6.2,6.2,0,0,0,3.005-.705l5.79-3.341c.617-.357.972-.795.972-1.2s-.357-.848-.98-1.207l-5.807-3.355A6.229,6.229,0,0,0,2056.86,986.122Zm26.844,7.8a8.026,8.026,0,0,1-3.951-.959l-5.806-3.355a3.032,3.032,0,0,1-.007-5.631l5.79-3.341a8.868,8.868,0,0,1,7.891,0l5.805,3.35a3.033,3.033,0,0,1,.01,5.631l-5.793,3.346A8.014,8.014,0,0,1,2083.7,993.927Zm-.038-12.379a6.192,6.192,0,0,0-3,.705l-5.792,3.341c-.618.357-.973.795-.972,1.2s.357.847.98,1.206l5.806,3.355a7.091,7.091,0,0,0,6.029.005l5.792-3.345c.617-.358.971-.8.97-1.2s-.357-.847-.979-1.206l-5.806-3.35A6.256,6.256,0,0,0,2083.666,981.548Zm65.992,8.986h0a8.022,8.022,0,0,1-3.953-.96l-8.582-4.955a3.031,3.031,0,0,1-.009-5.63l5.792-3.342a8.868,8.868,0,0,1,7.888,0l8.583,4.955a3.029,3.029,0,0,1,.006,5.627l-5.789,3.346A8,8,0,0,1,2149.658,990.534Zm-2.813-13.979a6.214,6.214,0,0,0-3.007.7l-5.792,3.341c-.618.358-.974.8-.974,1.2s.358.845.981,1.2l8.582,4.955a6.249,6.249,0,0,0,3.022.71h0a6.212,6.212,0,0,0,3.006-.7l5.789-3.346c.618-.356.972-.793.972-1.2s-.357-.846-.978-1.2l-8.583-4.955A6.247,6.247,0,0,0,2146.844,976.555Zm-107.952,11.554a8.021,8.021,0,0,1-3.951-.959l-5.806-3.355a3.029,3.029,0,0,1-.006-5.628l5.788-3.344a8.857,8.857,0,0,1,7.89.005l5.807,3.355a3.028,3.028,0,0,1,.009,5.627l-5.791,3.345A8.021,8.021,0,0,1,2038.892,988.109Zm-.039-12.379a6.2,6.2,0,0,0-3.006.705l-5.789,3.345c-.618.356-.972.792-.972,1.2s.356.848.979,1.207l5.806,3.355a7.084,7.084,0,0,0,6.03,0l5.79-3.344c.618-.357.972-.795.972-1.2s-.357-.845-.979-1.2l-5.808-3.356A6.249,6.249,0,0,0,2038.853,975.73Zm26.857,7.8a8.031,8.031,0,0,1-3.955-.96l-5.807-3.35a3.033,3.033,0,0,1-.007-5.631l5.792-3.341a8.864,8.864,0,0,1,7.889,0l5.806,3.355a3.033,3.033,0,0,1,.009,5.632l-5.792,3.341A7.977,7.977,0,0,1,2065.709,983.533Zm-.035-12.378a6.2,6.2,0,0,0-3.011.708l-5.793,3.341c-.617.357-.972.794-.972,1.2s.357.848.981,1.21l5.806,3.349a7.078,7.078,0,0,0,6.027,0l5.791-3.341c.618-.358.972-.8.972-1.2s-.357-.848-.98-1.206l-5.806-3.355A6.228,6.228,0,0,0,2065.674,971.155Zm30.762,9.387h0a8.035,8.035,0,0,1-3.956-.96l-5.8-3.351a3.032,3.032,0,0,1-.008-5.631l5.792-3.346a8.894,8.894,0,0,1,7.889,0l5.807,3.356a3.029,3.029,0,0,1,.01,5.626l-5.792,3.345A7.991,7.991,0,0,1,2096.437,980.542Zm-.042-12.377a6.227,6.227,0,0,0-3,.7l-5.791,3.346c-.618.358-.972.8-.972,1.2s.358.846.981,1.206l5.8,3.35a6.26,6.26,0,0,0,3.025.71h0a6.21,6.21,0,0,0,3.006-.7l5.792-3.346c.617-.355.97-.792.97-1.2s-.357-.847-.979-1.207l-5.806-3.355A6.274,6.274,0,0,0,2096.395,968.165Zm71.807,11.664h0a8.035,8.035,0,0,1-3.955-.96l-12.09-6.982a3.032,3.032,0,0,1-.009-5.631l.865-.5a8.86,8.86,0,0,1,7.888.006l12.092,6.977a3.031,3.031,0,0,1,.007,5.631l-.862.5A7.989,7.989,0,0,1,2168.2,979.829Zm-11.254-13.161a6.213,6.213,0,0,0-3.006.705l-.865.5c-.615.355-.97.793-.97,1.2s.358.848.98,1.208l12.091,6.982a6.257,6.257,0,0,0,3.024.71h0a6.2,6.2,0,0,0,3-.705l.862-.5c.62-.358.976-.794.976-1.2s-.358-.847-.982-1.208l-12.091-6.977A6.251,6.251,0,0,0,2156.947,966.668Zm-28.064,11.871h0a8.024,8.024,0,0,1-3.954-.96l-5.807-3.35a3.032,3.032,0,0,1-.007-5.632l5.79-3.341a8.875,8.875,0,0,1,7.891,0l5.807,3.355a3.032,3.032,0,0,1,.006,5.632l-5.789,3.34A8,8,0,0,1,2128.883,978.539Zm-.034-12.378a6.218,6.218,0,0,0-3.013.708l-5.79,3.341c-.618.358-.973.8-.973,1.2s.358.847.98,1.208l5.807,3.35a6.249,6.249,0,0,0,3.023.71h0a6.2,6.2,0,0,0,3.006-.706l5.789-3.34c.618-.358.973-.8.973-1.2s-.358-.846-.98-1.2l-5.807-3.355A6.234,6.234,0,0,0,2128.849,966.161ZM2020.9,977.718h0a8,8,0,0,1-3.956-.964l-5.806-3.349a3.029,3.029,0,0,1-.006-5.628l5.789-3.344a8.853,8.853,0,0,1,7.889,0l5.806,3.351a3.031,3.031,0,0,1,.008,5.631l-5.789,3.346A8.019,8.019,0,0,1,2020.9,977.718Zm-.043-12.378a6.2,6.2,0,0,0-3,.705l-5.79,3.346c-.618.356-.972.792-.972,1.2s.356.847.979,1.207l5.807,3.35a6.225,6.225,0,0,0,3.024.713h0a6.226,6.226,0,0,0,3.006-.7l5.788-3.344c.618-.358.974-.8.974-1.2s-.358-.847-.982-1.207l-5.806-3.351A6.252,6.252,0,0,0,2020.854,965.34Zm26.853,7.8h0a8.034,8.034,0,0,1-3.951-.959l-5.807-3.355a3.03,3.03,0,0,1-.006-5.628l5.79-3.344a8.872,8.872,0,0,1,7.89,0l5.806,3.355a3.029,3.029,0,0,1,.006,5.627l-5.789,3.345A8.021,8.021,0,0,1,2047.707,973.142Zm-.037-12.378a6.214,6.214,0,0,0-3.006.7l-5.791,3.345c-.618.356-.972.792-.972,1.2s.356.846.979,1.206l5.807,3.355a6.248,6.248,0,0,0,3.02.709h0a6.223,6.223,0,0,0,3.009-.706l5.789-3.344c.618-.356.972-.793.972-1.2s-.356-.847-.979-1.206l-5.806-3.355A6.254,6.254,0,0,0,2047.67,960.764Zm30.764,9.387h0a8.036,8.036,0,0,1-3.951-.959l-5.806-3.355a3.029,3.029,0,0,1-.006-5.628l5.792-3.344a8.852,8.852,0,0,1,7.888.005l5.807,3.35a3.034,3.034,0,0,1,.011,5.632l-5.795,3.345A8.015,8.015,0,0,1,2078.434,970.151Zm-.037-12.379a6.19,6.19,0,0,0-3,.705l-5.794,3.345c-.618.356-.972.792-.972,1.2s.356.846.979,1.206l5.806,3.355a6.263,6.263,0,0,0,3.02.709h0a6.232,6.232,0,0,0,3.009-.7l5.792-3.345c.616-.356.969-.794.969-1.2s-.357-.849-.98-1.211l-5.806-3.349A6.25,6.25,0,0,0,2078.4,957.772Zm32.513,10.392h0a8.02,8.02,0,0,1-3.953-.96l-5.807-3.351a3.031,3.031,0,0,1-.008-5.631l5.79-3.346a8.88,8.88,0,0,1,7.89.005l5.807,3.355a3.029,3.029,0,0,1,.006,5.627l-5.789,3.346A8,8,0,0,1,2110.909,968.164Zm-.038-12.379a6.232,6.232,0,0,0-3.01.7l-5.789,3.346c-.618.358-.974.794-.974,1.2s.357.848.982,1.211l5.806,3.349a6.253,6.253,0,0,0,3.022.71h0a6.206,6.206,0,0,0,3-.705l5.79-3.345c.618-.356.972-.792.972-1.2s-.356-.846-.979-1.206l-5.807-3.355A6.251,6.251,0,0,0,2110.872,955.785ZM2002.9,967.325h0a8.021,8.021,0,0,1-3.953-.96l-59.069-34.1a3.031,3.031,0,0,1-.008-5.63l5.792-3.342a8.86,8.86,0,0,1,7.891,0l59.066,34.1a3.029,3.029,0,0,1,.006,5.628l-5.788,3.344A8,8,0,0,1,2002.9,967.325Zm-53.3-43.128a6.2,6.2,0,0,0-3,.705l-5.79,3.341c-.618.358-.974.8-.974,1.2s.358.845.981,1.2l59.069,34.1a6.248,6.248,0,0,0,3.022.71h0a6.212,6.212,0,0,0,3.006-.705l5.789-3.345c.618-.356.973-.792.973-1.2s-.357-.846-.981-1.206l-59.066-34.1A6.265,6.265,0,0,0,1949.594,924.2Zm194.346,41.628h0a8,8,0,0,1-3.952-.964l-5.8-3.349a3.032,3.032,0,0,1-.009-5.631l.862-.5a8.865,8.865,0,0,1,7.893.011l5.8,3.349a3.029,3.029,0,0,1,.007,5.627l-.861.5A8,8,0,0,1,2143.94,965.825Zm-4.967-9.534a6.226,6.226,0,0,0-3.006.7l-.861.5c-.619.358-.973.8-.973,1.2s.358.847.98,1.207l5.806,3.35a6.225,6.225,0,0,0,3.02.712h0a6.213,6.213,0,0,0,3.009-.707l.862-.5c.618-.356.972-.791.972-1.195s-.356-.847-.979-1.208L2142,957A6.221,6.221,0,0,0,2138.973,956.29Zm-109.266,6.459h0a8.024,8.024,0,0,1-3.953-.961l-5.8-3.35a3.029,3.029,0,0,1-.006-5.628l5.789-3.344a8.866,8.866,0,0,1,7.892,0l5.806,3.351a3.034,3.034,0,0,1,.009,5.631l-5.792,3.341A8,8,0,0,1,2029.707,962.75Zm-.039-12.377a6.191,6.191,0,0,0-3,.705l-5.792,3.346c-.618.356-.972.791-.972,1.2s.356.846.979,1.206l5.806,3.35a6.209,6.209,0,0,0,3.02.712h0a6.207,6.207,0,0,0,3.009-.707l5.79-3.34c.617-.358.972-.8.971-1.2s-.356-.847-.978-1.206l-5.806-3.35A6.262,6.262,0,0,0,2029.668,950.373Zm30.777,9.384h0a8.047,8.047,0,0,1-3.96-.96l-5.806-3.35a3.033,3.033,0,0,1-.007-5.631l5.792-3.341a8.859,8.859,0,0,1,7.887.005l5.807,3.351a3.033,3.033,0,0,1,.01,5.631l-5.794,3.346A7.992,7.992,0,0,1,2060.445,959.757Zm-.05-12.376a6.18,6.18,0,0,0-3,.705l-5.794,3.341c-.618.358-.973.8-.972,1.2s.356.847.979,1.207l5.806,3.35a6.258,6.258,0,0,0,3.029.71h0a6.223,6.223,0,0,0,3-.7l5.792-3.346c.616-.358.971-.794.971-1.2s-.358-.847-.98-1.208l-5.807-3.35A6.256,6.256,0,0,0,2060.4,947.381Zm32.512,10.391h0a8.032,8.032,0,0,1-3.95-.959l-5.807-3.355a3.029,3.029,0,0,1-.006-5.628l5.789-3.344a8.88,8.88,0,0,1,7.891,0l5.805,3.35a3.033,3.033,0,0,1,.009,5.632l-5.79,3.345A8.032,8.032,0,0,1,2092.907,957.773Zm-.035-12.378a6.234,6.234,0,0,0-3.01.7l-5.789,3.345c-.618.356-.973.792-.973,1.2s.358.848.981,1.207l5.807,3.355a6.261,6.261,0,0,0,3.019.709h0a6.232,6.232,0,0,0,3.011-.705l5.788-3.344c.618-.357.972-.8.972-1.2s-.358-.847-.979-1.206l-5.806-3.35A6.244,6.244,0,0,0,2092.873,945.395Zm33.069,10.036h0a8.031,8.031,0,0,1-3.95-.959l-5.807-3.35a3.37,3.37,0,0,1-1.91-2.823,3.312,3.312,0,0,1,1.9-2.81l.86-.5a8.86,8.86,0,0,1,7.892,0l5.806,3.355a3.029,3.029,0,0,1,.006,5.628l-.86.5A8.021,8.021,0,0,1,2125.942,955.431Zm-4.967-9.533a6.192,6.192,0,0,0-3,.706l-.862.5c-.619.357-.973.793-.973,1.2s.356.85.979,1.209l5.807,3.351a6.267,6.267,0,0,0,3.019.709h0a6.233,6.233,0,0,0,3.009-.7l.86-.5c.62-.356.974-.793.974-1.2s-.357-.846-.979-1.2L2124,946.608A6.256,6.256,0,0,0,2120.974,945.9Zm-109.262,6.46h0a8.027,8.027,0,0,1-3.955-.96l-5.806-3.35a3.374,3.374,0,0,1-1.911-2.822,3.313,3.313,0,0,1,1.9-2.811l5.788-3.344a8.862,8.862,0,0,1,7.893.011l5.8,3.349a3.029,3.029,0,0,1,.006,5.627l-5.79,3.346A7.978,7.978,0,0,1,2011.712,952.358Zm-.044-12.378a6.233,6.233,0,0,0-3.006.7l-5.789,3.346c-.618.356-.972.792-.972,1.2s.358.85.98,1.21l5.806,3.35a6.254,6.254,0,0,0,3.024.71h0a6.187,6.187,0,0,0,3-.705l5.793-3.346c.618-.356.972-.792.972-1.2s-.357-.848-.979-1.206l-5.806-3.35A6.223,6.223,0,0,0,2011.668,939.98Zm30.773,9.387h0a8.026,8.026,0,0,1-3.955-.961l-5.807-3.35a3.032,3.032,0,0,1-.007-5.631l5.793-3.346a8.876,8.876,0,0,1,7.888,0l5.806,3.355a3.029,3.029,0,0,1,.011,5.627l-5.793,3.345A7.985,7.985,0,0,1,2042.441,949.367Zm-.039-12.38a6.222,6.222,0,0,0-3.007.7l-5.792,3.346c-.617.358-.972.794-.972,1.2s.358.848.98,1.21l5.806,3.349a6.255,6.255,0,0,0,3.024.71h0a6.208,6.208,0,0,0,3-.705l5.792-3.346c.617-.355.97-.792.97-1.2s-.357-.847-.981-1.207l-5.806-3.355A6.247,6.247,0,0,0,2042.4,936.988Zm32.506,10.393h0a8.012,8.012,0,0,1-3.952-.961l-5.8-3.35a3.032,3.032,0,0,1-.007-5.632l5.79-3.34a8.851,8.851,0,0,1,7.892,0l5.8,3.35a3.033,3.033,0,0,1,.009,5.632l-5.791,3.341A8.008,8.008,0,0,1,2074.908,947.38ZM2074.874,935a6.2,6.2,0,0,0-3.007.707l-5.791,3.341c-.618.358-.973.8-.973,1.2s.357.847.98,1.207l5.806,3.35a6.224,6.224,0,0,0,3.019.712h0a6.218,6.218,0,0,0,3.01-.707l5.79-3.341c.617-.358.972-.8.972-1.2s-.357-.847-.979-1.206l-5.806-3.351A6.216,6.216,0,0,0,2074.874,935Zm33.093,10.053a8.022,8.022,0,0,1-3.95-.959l-5.805-3.355a3.028,3.028,0,0,1-.006-5.627l.859-.5a8.848,8.848,0,0,1,7.893.006l5.8,3.349a3.032,3.032,0,0,1,.008,5.631l-.864.5A8.012,8.012,0,0,1,2107.966,945.055Zm-4.961-9.534a6.215,6.215,0,0,0-3.01.707l-.86.5c-.62.357-.975.792-.975,1.2s.357.846.981,1.206l5.805,3.355a7.092,7.092,0,0,0,6.029,0l.863-.5c.618-.358.973-.8.972-1.2s-.358-.847-.98-1.207l-5.806-3.35A6.212,6.212,0,0,0,2103.006,935.521Zm-109.292,6.447h0a8.033,8.033,0,0,1-3.955-.96l-5.806-3.355a3.029,3.029,0,0,1-.007-5.628l5.789-3.344a8.866,8.866,0,0,1,7.891,0l5.807,3.355a3.03,3.03,0,0,1,.007,5.626l-5.792,3.345A7.978,7.978,0,0,1,1993.714,941.968Zm-.043-12.38a6.187,6.187,0,0,0-3,.706l-5.791,3.345c-.618.356-.972.792-.972,1.2s.356.847.98,1.207l5.806,3.355a6.254,6.254,0,0,0,3.024.71h0a6.186,6.186,0,0,0,3-.706l5.792-3.345c.617-.356.971-.793.971-1.2s-.356-.846-.977-1.2l-5.808-3.356A6.254,6.254,0,0,0,1993.67,929.588Zm30.767,9.388h0a8.037,8.037,0,0,1-3.951-.959l-5.807-3.355a3.033,3.033,0,0,1-.009-5.631l5.794-3.341a8.863,8.863,0,0,1,7.89,0l5.806,3.35a3.033,3.033,0,0,1,.011,5.632l-5.793,3.345A8.026,8.026,0,0,1,2024.438,938.976ZM2024.4,926.6a6.188,6.188,0,0,0-3,.705l-5.794,3.341c-.617.357-.972.795-.971,1.2s.356.848.979,1.206l5.807,3.355a6.265,6.265,0,0,0,3.021.709h0a6.229,6.229,0,0,0,3.011-.705l5.79-3.344c.617-.358.971-.794.971-1.2s-.358-.848-.982-1.21l-5.8-3.35A6.253,6.253,0,0,0,2024.4,926.6Zm32.514,10.392a8.032,8.032,0,0,1-3.954-.96l-5.806-3.356a3.028,3.028,0,0,1-.007-5.626l5.789-3.346a8.883,8.883,0,0,1,7.891.005l5.806,3.355a3.029,3.029,0,0,1,.006,5.628l-5.788,3.344A8,8,0,0,1,2056.913,936.989Zm-.039-12.379a6.236,6.236,0,0,0-3.01.7l-5.787,3.346c-.619.358-.974.8-.973,1.2s.358.843.978,1.2l5.809,3.356a7.072,7.072,0,0,0,6.029,0l5.789-3.345c.618-.357.972-.792.972-1.2s-.356-.846-.979-1.206l-5.806-3.355A6.248,6.248,0,0,0,2056.874,924.61Zm33.1,10.052a8.027,8.027,0,0,1-3.954-.96l-5.807-3.35a3.032,3.032,0,0,1-.008-5.632l.862-.5a8.876,8.876,0,0,1,7.892.005l5.807,3.355a3.029,3.029,0,0,1,.006,5.628l-.861.5A7.989,7.989,0,0,1,2089.972,934.662Zm-4.966-9.533a6.228,6.228,0,0,0-3.011.705l-.86.5c-.618.358-.973.8-.973,1.2s.357.847.98,1.207l5.807,3.35a7.07,7.07,0,0,0,6.027.005l.862-.5c.619-.356.973-.792.973-1.2s-.356-.847-.979-1.207l-5.807-3.355A6.247,6.247,0,0,0,2085.006,925.129Zm-109.3,6.446h0a8,8,0,0,1-3.952-.962l-5.8-3.349a3.032,3.032,0,0,1-.009-5.632l5.791-3.341a8.858,8.858,0,0,1,7.892,0l5.8,3.35a3.032,3.032,0,0,1,.006,5.631l-5.789,3.341A7.991,7.991,0,0,1,1975.71,931.575Zm-.036-12.378a6.189,6.189,0,0,0-3.006.707l-5.793,3.341c-.617.358-.972.795-.972,1.2s.358.847.981,1.207L1972.69,929a6.211,6.211,0,0,0,3.02.712h0a6.2,6.2,0,0,0,3.008-.707l5.79-3.34c.619-.357.972-.793.972-1.2s-.358-.848-.98-1.208l-5.806-3.35A6.217,6.217,0,0,0,1975.674,919.2Zm30.769,9.388h0a8.016,8.016,0,0,1-3.957-.963l-5.8-3.35a3.033,3.033,0,0,1-.007-5.632l5.793-3.34a8.852,8.852,0,0,1,7.888,0l5.806,3.351a3.033,3.033,0,0,1,.012,5.631l-5.795,3.346A8,8,0,0,1,2006.443,928.585Zm-.042-12.378a6.191,6.191,0,0,0-3,.7l-5.794,3.341c-.618.358-.972.8-.972,1.2s.358.847.979,1.206l5.806,3.35a6.229,6.229,0,0,0,3.025.713h0a6.235,6.235,0,0,0,3-.7l5.792-3.346c.616-.356.97-.794.97-1.2s-.357-.847-.981-1.207l-5.806-3.35A6.25,6.25,0,0,0,2006.4,916.207Zm32.518,10.392h0a8.038,8.038,0,0,1-3.96-.965l-5.8-3.351a3.029,3.029,0,0,1-.006-5.628l5.789-3.344a8.861,8.861,0,0,1,7.889.005l5.807,3.35a3.032,3.032,0,0,1,.006,5.631l-5.789,3.345A7.981,7.981,0,0,1,2038.919,926.6Zm-.047-12.38a6.19,6.19,0,0,0-3,.705l-5.792,3.345c-.619.356-.973.791-.973,1.2s.356.847.981,1.207l5.806,3.351a6.249,6.249,0,0,0,3.028.715h0a6.193,6.193,0,0,0,3-.705l5.79-3.346c.618-.356.972-.792.972-1.2s-.357-.849-.979-1.208l-5.807-3.35A6.252,6.252,0,0,0,2038.871,914.219Zm-107.238,11.965h0a8.008,8.008,0,0,1-3.95-.964l-5.8-3.349a3.032,3.032,0,0,1-.007-5.632l5.79-3.341a8.863,8.863,0,0,1,7.889,0l5.806,3.355a3.032,3.032,0,0,1,.007,5.632l-5.789,3.34A8,8,0,0,1,1931.633,926.184Zm-.03-12.38a6.222,6.222,0,0,0-3.013.708l-5.79,3.341c-.619.358-.974.8-.974,1.2s.357.847.98,1.207l5.806,3.35a6.223,6.223,0,0,0,3.018.713h0a6.22,6.22,0,0,0,3.01-.708l5.789-3.341c.618-.358.973-.8.973-1.2s-.357-.847-.981-1.207l-5.806-3.355A6.234,6.234,0,0,0,1931.6,913.8Zm140.37,10.468h0a8.025,8.025,0,0,1-3.954-.96l-5.807-3.355a3.029,3.029,0,0,1-.006-5.628l.861-.5a8.873,8.873,0,0,1,7.892,0l5.807,3.35a3.033,3.033,0,0,1,.006,5.632l-.86.5A8,8,0,0,1,2071.972,924.272Zm-4.965-9.532a6.227,6.227,0,0,0-3.011.7l-.861.5c-.619.356-.973.792-.973,1.2s.356.846.978,1.2l5.809,3.356a6.244,6.244,0,0,0,3.023.711h0a6.2,6.2,0,0,0,3.006-.706l.861-.5c.618-.355.972-.792.973-1.195s-.357-.851-.98-1.213l-5.806-3.349A6.245,6.245,0,0,0,2067.007,914.74Zm-109.293,6.443h0a8.023,8.023,0,0,1-3.954-.96l-5.807-3.35a3.033,3.033,0,0,1-.01-5.631l5.792-3.346a8.883,8.883,0,0,1,7.892.005l5.805,3.355a3.03,3.03,0,0,1,.008,5.627l-5.79,3.346A7.991,7.991,0,0,1,1957.714,921.183Zm-.038-12.379a6.219,6.219,0,0,0-3.008.7l-5.792,3.346c-.617.357-.971.795-.971,1.2s.358.848.979,1.207l5.807,3.35a6.251,6.251,0,0,0,3.023.71h0a6.2,6.2,0,0,0,3.006-.705l5.79-3.346c.617-.356.971-.792.971-1.2s-.357-.848-.978-1.206l-5.806-3.355A6.252,6.252,0,0,0,1957.676,908.8Zm30.768,9.388a8.024,8.024,0,0,1-3.955-.96l-5.806-3.35a3.031,3.031,0,0,1-.007-5.631l5.793-3.346a8.865,8.865,0,0,1,7.887.005l5.807,3.355a3.029,3.029,0,0,1,.01,5.627l-5.794,3.345A7.977,7.977,0,0,1,1988.443,918.192Zm-.039-12.379a6.22,6.22,0,0,0-3.006.7l-5.792,3.346c-.619.358-.974.8-.974,1.2s.357.846.981,1.206l5.806,3.35a7.068,7.068,0,0,0,6.026.005l5.8-3.346c.617-.355.969-.792.969-1.2s-.356-.847-.979-1.207l-5.807-3.355A6.248,6.248,0,0,0,1988.4,905.813Zm32.511,10.392h0a8.026,8.026,0,0,1-3.954-.96l-5.807-3.35a3.032,3.032,0,0,1-.007-5.631l5.79-3.34a8.86,8.86,0,0,1,7.892.006l5.806,3.349a3.03,3.03,0,0,1,.007,5.627l-5.79,3.345A8,8,0,0,1,2020.916,916.2Zm-.039-12.378a6.2,6.2,0,0,0-3.007.707l-5.791,3.341c-.618.358-.973.8-.973,1.2s.358.847.981,1.207l5.807,3.35a6.247,6.247,0,0,0,3.023.71h0a6.212,6.212,0,0,0,3.006-.705l5.79-3.346c.617-.357.971-.792.971-1.2s-.356-.847-.978-1.206l-5.807-3.351A6.212,6.212,0,0,0,2020.876,903.826Zm-107.238,11.965h0a8.022,8.022,0,0,1-3.954-.96l-5.807-3.35a3.032,3.032,0,0,1-.007-5.631l5.789-3.346a8.877,8.877,0,0,1,7.892,0l5.806,3.355a3.029,3.029,0,0,1,.006,5.628l-5.789,3.344A8,8,0,0,1,1913.638,915.792Zm-.039-12.378a6.228,6.228,0,0,0-3.011.7l-5.788,3.344c-.618.357-.974.795-.974,1.2s.358.847.98,1.207l5.807,3.35a6.247,6.247,0,0,0,3.023.711h0a6.2,6.2,0,0,0,3-.706l5.79-3.345c.618-.356.972-.792.972-1.2s-.356-.846-.979-1.206l-5.806-3.355A6.251,6.251,0,0,0,1913.6,903.414Zm140.371,10.464h0a8,8,0,0,1-3.951-.962l-5.8-3.349a3.032,3.032,0,0,1-.008-5.632l.861-.5a8.866,8.866,0,0,1,7.895.011l5.8,3.349a3.032,3.032,0,0,1,.007,5.632l-.865.5A7.986,7.986,0,0,1,2053.97,913.878ZM2049,904.345a6.235,6.235,0,0,0-3.007.7l-.861.5c-.62.358-.973.795-.973,1.2s.357.847.98,1.207l5.806,3.35a6.207,6.207,0,0,0,3.021.712h0a6.2,6.2,0,0,0,3.008-.707l.865-.5c.616-.356.971-.794.97-1.2s-.356-.847-.979-1.207l-5.806-3.35A6.226,6.226,0,0,0,2049,904.345Zm-109.292,6.447a8.025,8.025,0,0,1-3.951-.959l-5.806-3.355a3.029,3.029,0,0,1-.007-5.628l5.789-3.344a8.883,8.883,0,0,1,7.892,0l5.806,3.35a3.032,3.032,0,0,1,.006,5.632l-5.789,3.345A8.021,8.021,0,0,1,1939.713,910.792Zm-.035-12.378a6.231,6.231,0,0,0-3.011.7l-5.789,3.345c-.618.356-.972.792-.972,1.2s.357.847.98,1.207l5.806,3.355a7.084,7.084,0,0,0,6.03,0l5.789-3.344c.617-.356.971-.792.972-1.2s-.358-.85-.98-1.212l-5.8-3.349A6.251,6.251,0,0,0,1939.677,898.414Zm30.766,9.388h0a8.025,8.025,0,0,1-3.955-.96l-5.806-3.355a3.029,3.029,0,0,1-.006-5.628l5.791-3.344a8.861,8.861,0,0,1,7.888.005l5.806,3.355a3.029,3.029,0,0,1,.01,5.627l-5.792,3.345A7.984,7.984,0,0,1,1970.444,907.8Zm-.042-12.38a6.182,6.182,0,0,0-3,.705l-5.794,3.345c-.618.356-.972.792-.972,1.2s.357.846.979,1.206l5.806,3.355a6.258,6.258,0,0,0,3.024.71h0a6.2,6.2,0,0,0,3.005-.705l5.793-3.345c.617-.356.971-.793.971-1.2s-.358-.846-.978-1.2l-5.809-3.357A6.261,6.261,0,0,0,1970.4,895.422Zm32.514,10.392h0a8.023,8.023,0,0,1-3.953-.96l-5.807-3.355a3.028,3.028,0,0,1-.007-5.627l5.79-3.346a8.88,8.88,0,0,1,7.89.005l5.807,3.355a3.029,3.029,0,0,1,.006,5.627l-5.789,3.346A8,8,0,0,1,2002.916,905.814Zm-.037-12.378a6.231,6.231,0,0,0-3.009.7l-5.789,3.346c-.618.358-.973.794-.973,1.2s.358.845.98,1.2l5.807,3.355a6.251,6.251,0,0,0,3.022.71h0a6.212,6.212,0,0,0,3.005-.7l5.79-3.346c.617-.356.971-.792.971-1.2s-.357-.846-.978-1.206l-5.807-3.355A6.247,6.247,0,0,0,2002.878,893.436ZM1895.639,905.4h0a8.024,8.024,0,0,1-3.954-.96l-5.806-3.355a3.028,3.028,0,0,1-.007-5.628l5.789-3.344a8.864,8.864,0,0,1,7.891,0l5.807,3.351a3.374,3.374,0,0,1,1.91,2.823,3.317,3.317,0,0,1-1.9,2.81l-5.789,3.344A7.994,7.994,0,0,1,1895.639,905.4Zm-.043-12.38a6.2,6.2,0,0,0-3.005.705l-5.79,3.345c-.62.356-.974.79-.974,1.194s.358.849.982,1.208l5.806,3.355a6.249,6.249,0,0,0,3.023.71h0a6.208,6.208,0,0,0,3.006-.705l5.79-3.345c.618-.356.972-.792.972-1.2s-.356-.85-.979-1.21l-5.807-3.351A6.256,6.256,0,0,0,1895.6,893.022Zm140.379,10.465h0a8.034,8.034,0,0,1-3.956-.96l-5.8-3.35a3.032,3.032,0,0,1-.009-5.631l.862-.5a8.876,8.876,0,0,1,7.892,0l5.806,3.355a3.031,3.031,0,0,1,.007,5.631l-.865.5A7.981,7.981,0,0,1,2035.975,903.487Zm-4.967-9.533a6.227,6.227,0,0,0-3.009.705l-.861.5c-.619.358-.973.8-.973,1.2s.358.847.981,1.207l5.8,3.35a6.259,6.259,0,0,0,3.025.71h0a6.192,6.192,0,0,0,3-.705l.866-.5c.616-.356.971-.794.971-1.2s-.358-.848-.98-1.207l-5.806-3.355A6.251,6.251,0,0,0,2031.008,893.954ZM1921.714,900.4h0a8.047,8.047,0,0,1-3.949-.954l-5.807-3.356a3.032,3.032,0,0,1-.008-5.631l5.79-3.341a8.864,8.864,0,0,1,7.891.005l5.806,3.35a3.033,3.033,0,0,1,.01,5.631l-5.792,3.341A7.989,7.989,0,0,1,1921.714,900.4Zm-.04-12.375a6.191,6.191,0,0,0-3,.705l-5.792,3.341c-.618.358-.973.795-.972,1.2s.358.848.981,1.207l5.8,3.355a6.264,6.264,0,0,0,3.021.706h0a6.192,6.192,0,0,0,3.006-.706l5.793-3.341c.617-.357.971-.795.971-1.2s-.358-.847-.979-1.206l-5.806-3.35A6.256,6.256,0,0,0,1921.675,888.023Zm30.767,9.385h0a8,8,0,0,1-3.951-.963l-5.806-3.349a3.033,3.033,0,0,1-.009-5.632l5.794-3.345a8.855,8.855,0,0,1,7.891.01l5.8,3.35a3.028,3.028,0,0,1,.007,5.626l-5.79,3.346A7.994,7.994,0,0,1,1952.442,897.408Zm-.039-12.379a6.237,6.237,0,0,0-3.005.7l-5.791,3.345c-.617.358-.972.8-.972,1.2s.357.847.979,1.206l5.807,3.35a6.205,6.205,0,0,0,3.019.712h0a6.209,6.209,0,0,0,3.008-.707l5.792-3.345c.618-.357.972-.792.972-1.2s-.357-.846-.98-1.206l-5.806-3.35A6.235,6.235,0,0,0,1952.4,885.029Zm32.511,10.395h0a8.043,8.043,0,0,1-3.949-.96l-5.806-3.356a3.028,3.028,0,0,1-.007-5.627l5.789-3.345a8.879,8.879,0,0,1,7.891,0l5.806,3.35a3.369,3.369,0,0,1,1.91,2.822,3.316,3.316,0,0,1-1.9,2.811l-5.788,3.339A7.98,7.98,0,0,1,1984.914,895.424Zm-.035-12.379a6.234,6.234,0,0,0-3.01.7l-5.788,3.345c-.618.358-.974.794-.974,1.2s.358.845.981,1.2l5.806,3.355a6.251,6.251,0,0,0,3.018.71h0a6.2,6.2,0,0,0,3.009-.709l5.79-3.342c.618-.356.972-.792.972-1.2s-.356-.849-.98-1.208l-5.806-3.35A6.25,6.25,0,0,0,1984.879,883.045Zm-107.243,11.963a7.993,7.993,0,0,1-3.95-.963l-9.291-5.361a3.029,3.029,0,0,1-.006-5.628l5.79-3.344a8.855,8.855,0,0,1,7.889.005l9.291,5.362a3.032,3.032,0,0,1,.007,5.632l-5.79,3.341A8,8,0,0,1,1877.635,895.008Zm-3.521-14.389a6.2,6.2,0,0,0-3.005.705l-5.791,3.346c-.618.355-.972.79-.973,1.2s.358.847.981,1.207l9.292,5.362a7.045,7.045,0,0,0,6.028,0l5.791-3.341c.618-.358.973-.8.973-1.2s-.358-.847-.98-1.207l-9.291-5.362A6.25,6.25,0,0,0,1874.115,880.62ZM2017.976,893.1h0a8.033,8.033,0,0,1-3.955-.96l-5.806-3.355a3.029,3.029,0,0,1-.007-5.627l.861-.5a8.861,8.861,0,0,1,7.892,0l5.8,3.35a3.032,3.032,0,0,1,.008,5.631l-.861.5A7.991,7.991,0,0,1,2017.976,893.1Zm-4.97-9.534a6.2,6.2,0,0,0-3,.7l-.862.5c-.62.358-.975.794-.974,1.2s.356.845.98,1.205l5.806,3.355a6.256,6.256,0,0,0,3.024.71h0a6.2,6.2,0,0,0,3-.706l.862-.5c.62-.357.974-.794.974-1.2s-.358-.849-.982-1.21l-5.8-3.351A6.266,6.266,0,0,0,2013.006,883.563Zm-108.7,6.106a8.023,8.023,0,0,1-3.953-.96l-18-10.39a3.032,3.032,0,0,1-.009-5.632l5.793-3.346a8.871,8.871,0,0,1,7.889,0l18,10.4a3.029,3.029,0,0,1,.008,5.627l-5.791,3.344A8,8,0,0,1,1904.3,889.669Zm-12.23-19.419a6.22,6.22,0,0,0-3.007.7l-5.793,3.345c-.618.356-.972.794-.972,1.2s.358.848.98,1.208l18,10.39a7.07,7.07,0,0,0,6.028.005l5.792-3.345c.618-.357.972-.792.972-1.2s-.358-.847-.981-1.207l-18-10.395A6.254,6.254,0,0,0,1892.074,870.25Zm42.373,16.766h0a8.026,8.026,0,0,1-3.955-.96l-5.806-3.355a3.03,3.03,0,0,1-.006-5.628l5.791-3.344a8.861,8.861,0,0,1,7.889.005l5.806,3.355a3.029,3.029,0,0,1,.008,5.627l-5.791,3.345A7.983,7.983,0,0,1,1934.446,887.017Zm-.042-12.38a6.183,6.183,0,0,0-3,.705l-5.794,3.346c-.618.356-.972.793-.972,1.2s.357.846.978,1.2l5.807,3.356a6.258,6.258,0,0,0,3.024.71h0a6.2,6.2,0,0,0,3-.705l5.793-3.346c.617-.355.971-.792.971-1.2s-.358-.847-.98-1.207l-5.806-3.355A6.254,6.254,0,0,0,1934.4,874.637Zm32.514,10.393h0a8.025,8.025,0,0,1-3.954-.96l-5.806-3.35a3.032,3.032,0,0,1-.008-5.632l5.79-3.345a8.893,8.893,0,0,1,7.89,0l5.808,3.356a3.033,3.033,0,0,1,.008,5.631l-5.791,3.341A7.993,7.993,0,0,1,1966.918,885.029Zm-.042-12.377a6.228,6.228,0,0,0-3.006.7l-5.789,3.345c-.618.358-.972.794-.972,1.2s.358.848.981,1.208l5.806,3.35a6.247,6.247,0,0,0,3.023.71h0a6.21,6.21,0,0,0,3.006-.705l5.79-3.341c.617-.358.972-.8.972-1.2s-.358-.847-.98-1.206l-5.807-3.355A6.274,6.274,0,0,0,1966.876,872.652Zm33.093,10.052a8.023,8.023,0,0,1-3.947-.958l-5.806-3.355a3.033,3.033,0,0,1-.01-5.632l.869-.5a8.872,8.872,0,0,1,7.887.007l5.806,3.35a3.032,3.032,0,0,1,.009,5.632l-.865.5A8.006,8.006,0,0,1,1999.968,882.7Zm-4.961-9.532a6.2,6.2,0,0,0-3.005.705l-.868.5c-.613.355-.967.792-.967,1.2s.358.847.979,1.207l5.806,3.355a7.077,7.077,0,0,0,6.03,0l.865-.5c.615-.356.97-.794.97-1.2s-.357-.847-.981-1.207l-5.806-3.35A6.254,6.254,0,0,0,1995.007,873.172Zm-77.971,3.115h0a8.027,8.027,0,0,1-3.954-.96l-12.774-7.374a3.032,3.032,0,0,1-.008-5.632l5.79-3.341a8.871,8.871,0,0,1,7.889,0l12.773,7.375a3.369,3.369,0,0,1,1.912,2.823,3.314,3.314,0,0,1-1.9,2.81l-5.789,3.344A7.993,7.993,0,0,1,1917.036,876.288Zm-7-16.4a6.219,6.219,0,0,0-3.012.708l-5.79,3.341c-.618.358-.973.793-.973,1.2s.358.849.982,1.211l12.773,7.373a6.256,6.256,0,0,0,3.023.71h0a6.209,6.209,0,0,0,3-.705l5.79-3.345c.618-.356.972-.792.972-1.2s-.356-.85-.981-1.21l-12.773-7.375A6.232,6.232,0,0,0,1910.033,859.885Zm38.886,14.754h0a8.028,8.028,0,0,1-3.953-.96l-5.807-3.351a3.031,3.031,0,0,1-.008-5.631l5.789-3.346a8.884,8.884,0,0,1,7.892,0l5.807,3.35a3.033,3.033,0,0,1,.007,5.632l-5.792,3.346A8,8,0,0,1,1948.92,874.639Zm-.039-12.379a6.228,6.228,0,0,0-3.011.705l-5.788,3.344c-.618.358-.973.793-.973,1.2s.357.85.983,1.211l5.8,3.35a6.253,6.253,0,0,0,3.023.71h0a6.211,6.211,0,0,0,3.005-.7l5.791-3.346c.617-.355.971-.792.971-1.2s-.356-.849-.979-1.212l-5.806-3.349A6.25,6.25,0,0,0,1948.881,862.26Zm33.1,10.052h0a8.03,8.03,0,0,1-3.955-.96l-5.807-3.35a3.034,3.034,0,0,1-.009-5.632l.863-.5a8.877,8.877,0,0,1,7.892,0l5.807,3.35a3.033,3.033,0,0,1,.007,5.633l-.863.5A7.987,7.987,0,0,1,1981.978,872.312Zm-4.965-9.533a6.233,6.233,0,0,0-3.012.705l-.86.5c-.619.358-.973.8-.972,1.2s.356.847.978,1.206l5.807,3.35a6.254,6.254,0,0,0,3.024.71h0a6.2,6.2,0,0,0,3.005-.705l.864-.5c.617-.355.971-.79.972-1.2s-.358-.851-.982-1.213l-5.806-3.349A6.242,6.242,0,0,0,1977.013,862.779Zm-45.505,1.131h0a8.033,8.033,0,0,1-3.954-.96l-9.29-5.368a3.029,3.029,0,0,1-.008-5.627l5.792-3.344a8.869,8.869,0,0,1,7.889,0l9.291,5.363a3.032,3.032,0,0,1,.006,5.631l-5.79,3.345A7.985,7.985,0,0,1,1931.508,863.91Zm-3.526-14.393a6.178,6.178,0,0,0-3,.706l-5.794,3.346c-.618.355-.972.79-.972,1.195s.358.847.981,1.207l9.291,5.367a6.247,6.247,0,0,0,3.023.71h0a6.2,6.2,0,0,0,3.005-.705L1940.3,858c.618-.356.972-.792.972-1.2s-.358-.849-.979-1.208l-9.291-5.362A6.246,6.246,0,0,0,1927.982,849.517Zm36,12.4h0a8.035,8.035,0,0,1-3.956-.96l-5.806-3.35a3.033,3.033,0,0,1-.007-5.632l.862-.5a8.857,8.857,0,0,1,7.89,0l5.807,3.35a3.032,3.032,0,0,1,.008,5.631l-.862.5A7.987,7.987,0,0,1,1963.98,861.922Zm-4.971-9.534a6.2,6.2,0,0,0-3.005.705l-.862.5c-.618.358-.973.794-.973,1.2s.358.847.981,1.21l5.8,3.349a6.261,6.261,0,0,0,3.026.71h0a6.184,6.184,0,0,0,3-.706l.863-.5c.62-.358.974-.8.974-1.2s-.357-.847-.98-1.207l-5.807-3.351A6.255,6.255,0,0,0,1959.009,852.388Zm-13.028-.86h0a8.063,8.063,0,0,1-3.954-.955l-5.807-3.356a3.032,3.032,0,0,1-.008-5.631l.865-.5a8.889,8.889,0,0,1,7.886,0l5.807,3.356a3.032,3.032,0,0,1,.009,5.631l-.862.5A8.02,8.02,0,0,1,1945.981,851.528ZM1941.015,842a6.212,6.212,0,0,0-3.009.707l-.865.5c-.616.356-.971.794-.971,1.2s.358.847.981,1.207l5.806,3.355a6.272,6.272,0,0,0,3.025.707h0a6.218,6.218,0,0,0,3.006-.7l.861-.5c.619-.358.974-.8.973-1.2s-.358-.847-.981-1.207l-5.806-3.355A6.262,6.262,0,0,0,1941.015,842Z" transform="translate(-1862.483 -840.167)" fill="#000102"/>
          </g>
          <g id="Grupo_139321" data-name="Grupo 139321" transform="translate(176.678 10.464)">
            <path id="Trazado_134194" data-name="Trazado 134194" d="M2103.785,819.74a13.7,13.7,0,0,1-12.4-.01c-3.427-1.978-3.433-5.183-.014-7.151a13.684,13.684,0,0,1,12.394,0C2107.2,814.562,2107.2,817.767,2103.785,819.74Z" transform="translate(-2087.883 -810.221)" fill="#5c22c3"/>
            <path id="Trazado_134195" data-name="Trazado 134195" d="M2096.285,820.909a13.576,13.576,0,0,1-6.678-1.611c-1.961-1.132-3.04-2.692-3.04-4.392s1.077-3.249,3.028-4.372a15.061,15.061,0,0,1,13.324.006c1.96,1.131,3.04,2.691,3.04,4.392s-1.074,3.251-3.024,4.377A13.515,13.515,0,0,1,2096.285,820.909Zm-.041-10.119a11.6,11.6,0,0,0-5.718,1.356c-1.352.778-2.1,1.758-2.1,2.759s.749,1.995,2.109,2.78a13.181,13.181,0,0,0,11.466.01c1.35-.78,2.093-1.761,2.093-2.765s-.749-1.994-2.109-2.779A11.692,11.692,0,0,0,2096.244,810.79Z" transform="translate(-2086.567 -808.983)" fill="#000102"/>
          </g>
          <g id="Grupo_139322" data-name="Grupo 139322" transform="translate(83.336 114.706)">
            <path id="Trazado_134196" data-name="Trazado 134196" d="M1963.263,1150.065a8.145,8.145,0,0,1-7.386,0l-90.765-52.4c-2.042-1.179-2.047-3.089-.01-4.267l51.654-29.822a8.176,8.176,0,0,1,7.386,0l90.765,52.406c2.042,1.178,2.047,3.088.01,4.261Z" transform="translate(-1862.646 -1061.793)" fill="#afafaf"/>
            <path id="Trazado_134197" data-name="Trazado 134197" d="M1958.261,1150.609a8.44,8.44,0,0,1-4.166-1.012l-90.764-52.4a3.163,3.163,0,0,1-.01-5.879l51.655-29.822a9.363,9.363,0,0,1,8.318,0l90.765,52.406a3.16,3.16,0,0,1,.009,5.875l-51.653,29.821A8.423,8.423,0,0,1,1958.261,1150.609Zm-39.133-88.257a6.674,6.674,0,0,0-3.223.756l-51.653,29.821c-.674.389-1.06.872-1.06,1.324s.389.939,1.069,1.331l90.765,52.4a7.542,7.542,0,0,0,6.456.005l51.655-29.822c.673-.387,1.059-.868,1.059-1.319s-.389-.938-1.069-1.331l-90.765-52.406A6.687,6.687,0,0,0,1919.128,1062.352Z" transform="translate(-1861.331 -1060.523)" fill="#000102"/>
          </g>
          <path id="Trazado_134198" data-name="Trazado 134198" d="M1984.885,1181.071a.922.922,0,0,1-.464-.125l-98.161-56.672a.931.931,0,0,1,.931-1.612l98.161,56.672a.931.931,0,0,1-.467,1.737Z" transform="translate(-1792.32 -982.13)" fill="#000102"/>
          <path id="Trazado_134199" data-name="Trazado 134199" d="M1975.473,1199.872a.931.931,0,0,1-.467-1.737l12.3-7.1a.931.931,0,0,1,.931,1.612l-12.3,7.1A.925.925,0,0,1,1975.473,1199.872Z" transform="translate(-1844.289 -1022.167)" fill="#000102"/>
        </g>
        <g id="Grupo_139326" data-name="Grupo 139326" transform="translate(179.22 0)">
          <g id="Grupo_139324" data-name="Grupo 139324" transform="translate(2.136)">
            <path id="Trazado_134200" data-name="Trazado 134200" d="M2362.634,633.93c-.843,5.4-5.666,7.379-10.773,4.431L2107.939,497.531c-5.105-2.948-8.561-9.706-7.719-15.1l29.206-187.015c.845-5.4,5.669-7.38,10.774-4.432l243.922,140.826c5.107,2.948,8.563,9.711,7.717,15.108Z" transform="translate(-2099.166 -288.685)" fill="#000102"/>
            <path id="Trazado_134201" data-name="Trazado 134201" d="M2355.163,639.343a10.3,10.3,0,0,1-5.078-1.49L2106.162,497.022c-5.4-3.118-9.068-10.319-8.173-16.052L2127.2,293.955c.636-4.062,3.349-6.584,7.081-6.584a10.305,10.305,0,0,1,5.079,1.489l243.922,140.826c5.4,3.118,9.071,10.322,8.172,16.058l-29.207,187.014C2361.607,636.82,2358.895,639.343,2355.163,639.343Zm-220.887-350.11c-2.79,0-4.75,1.873-5.241,5.01l-29.207,187.016c-.787,5.036,2.472,11.385,7.264,14.152l243.922,140.83a8.443,8.443,0,0,0,4.148,1.24c2.791,0,4.75-1.873,5.24-5.009l29.206-187.016c.789-5.039-2.469-11.39-7.262-14.157L2138.424,290.473A8.448,8.448,0,0,0,2134.276,289.233Z" transform="translate(-2097.854 -287.371)" fill="#000102"/>
          </g>
          <g id="Grupo_139325" data-name="Grupo 139325">
            <path id="Trazado_134202" data-name="Trazado 134202" d="M2357.481,633.93c-.845,5.4-5.668,7.379-10.774,4.431L2102.786,497.531c-5.1-2.948-8.562-9.706-7.72-15.1l29.208-187.015c.845-5.4,5.667-7.38,10.773-4.432L2378.97,431.806c5.107,2.948,8.561,9.711,7.717,15.108Z" transform="translate(-2094.012 -288.685)" fill="#000102"/>
            <path id="Trazado_134203" data-name="Trazado 134203" d="M2350.009,639.343a10.307,10.307,0,0,1-5.079-1.49L2101.009,497.022c-5.4-3.118-9.069-10.319-8.174-16.052l29.208-187.017c.636-4.061,3.349-6.583,7.08-6.583a10.3,10.3,0,0,1,5.079,1.489l243.924,140.826c5.4,3.118,9.069,10.322,8.171,16.058L2357.09,632.758C2356.454,636.82,2353.741,639.343,2350.009,639.343Zm-220.887-350.11c-2.79,0-4.749,1.873-5.24,5.01l-29.208,187.016c-.787,5.036,2.473,11.385,7.265,14.152l243.921,140.83a8.444,8.444,0,0,0,4.148,1.24c2.791,0,4.75-1.873,5.241-5.009l29.206-187.016c.789-5.039-2.468-11.39-7.262-14.157L2133.271,290.473A8.448,8.448,0,0,0,2129.123,289.233Z" transform="translate(-2092.701 -287.371)" fill="#000102"/>
          </g>
          <path id="Trazado_134204" data-name="Trazado 134204" d="M2148.961,310.787l-9.078-5.241-30.123,192.877L2347.178,635.5l12.052,6.958,30.123-192.877Z" transform="translate(-2102.691 -298.014)" fill="#d0d3d6"/>
          <path id="Trazado_134205" data-name="Trazado 134205" d="M2294.952,370.5l107.617,272.4-24.707-14.264-107.616-272.4Zm-36-20.785-54.6-31.524,107.617,272.4,64.871,37.454-10.266-5.93Z" transform="translate(-2158.082 -305.419)" fill="#fff"/>
        </g>
      </g>
      <g id="Grupo_139328" data-name="Grupo 139328" transform="translate(1957.398 349.115)">
        <path id="Trazado_134206" data-name="Trazado 134206" d="M2379.539,668.514l111.789,64.541,24.946-157.32-111.789-64.541Z" transform="translate(-2378.608 -510.262)" fill="#afafaf"/>
        <path id="Trazado_134207" data-name="Trazado 134207" d="M2490.012,732.668a.926.926,0,0,1-.466-.125L2377.758,668a.934.934,0,0,1-.455-.951l24.946-157.32a.934.934,0,0,1,.519-.695.917.917,0,0,1,.867.034l111.789,64.541a.933.933,0,0,1,.454.951l-24.946,157.32a.932.932,0,0,1-.92.785Zm-110.77-65.958L2489.3,730.254l24.634-155.35L2403.877,511.36Z" transform="translate(-2377.292 -508.944)" fill="#000102"/>
      </g>
      <g id="Grupo_139329" data-name="Grupo 139329" transform="translate(1844.608 266.417)">
        <path id="Trazado_134208" data-name="Trazado 134208" d="M2203.383,353.41l-72.347-41.768-23.661,151.5,72.016,41.579Z" transform="translate(-2106.443 -310.708)" fill="#afafaf"/>
        <path id="Trazado_134209" data-name="Trazado 134209" d="M2178.075,504.33a.922.922,0,0,1-.466-.125l-72.017-41.579a.933.933,0,0,1-.455-.951l23.662-151.5a.929.929,0,0,1,.519-.7.918.918,0,0,1,.867.034l72.347,41.769a.933.933,0,0,1,.454.952L2179,503.545a.932.932,0,0,1-.92.785Zm-71-43,70.29,40.583,23.681-149.338-70.618-40.77Z" transform="translate(-2105.127 -309.39)" fill="#000102"/>
      </g>
      <g id="Grupo_139334" data-name="Grupo 139334" transform="translate(1774.738 236.004)">
        <g id="Grupo_139330" data-name="Grupo 139330" transform="translate(10.749)">
          <path id="Trazado_134210" data-name="Trazado 134210" d="M2080.8,470.43l-116.089-67.024V238.252l116.09,67.024Z" transform="translate(-1963.78 -237.32)" fill="#fff"/>
          <path id="Trazado_134211" data-name="Trazado 134211" d="M2079.485,470.044a.923.923,0,0,1-.465-.125L1962.93,402.9a.93.93,0,0,1-.465-.806V236.936a.931.931,0,0,1,1.4-.806l116.09,67.024a.928.928,0,0,1,.466.806V469.114a.931.931,0,0,1-.931.931Zm-115.158-68.492L2078.554,467.5V304.5l-114.229-65.948Z" transform="translate(-1962.465 -236.004)" fill="#000102"/>
        </g>
        <g id="Grupo_139331" data-name="Grupo 139331" transform="translate(0 3.724)">
          <path id="Trazado_134212" data-name="Trazado 134212" d="M2059.164,314.26l-116.09-67.024-4.3,2.482V414.874L2054.863,481.9l4.3-2.482Z" transform="translate(-1937.843 -246.305)" fill="#64b5f6"/>
          <path id="Trazado_134213" data-name="Trazado 134213" d="M2053.548,481.512a.923.923,0,0,1-.465-.125l-116.089-67.024a.93.93,0,0,1-.465-.806V248.4a.929.929,0,0,1,.465-.806l4.3-2.482a.925.925,0,0,1,.931,0l116.09,67.024a.929.929,0,0,1,.465.806V478.1a.931.931,0,0,1-.465.806l-4.3,2.482A.924.924,0,0,1,2053.548,481.512ZM1938.39,413.02l115.158,66.485,3.37-1.944V313.481L1941.758,247l-3.368,1.944Z" transform="translate(-1936.528 -244.989)" fill="#000102"/>
        </g>
        <g id="Grupo_139332" data-name="Grupo 139332" transform="translate(0 6.206)">
          <path id="Trazado_134214" data-name="Trazado 134214" d="M2054.863,485.4l-116.089-67.024V253.227l116.09,67.024Z" transform="translate(-1937.843 -252.295)" fill="#fff"/>
          <path id="Trazado_134215" data-name="Trazado 134215" d="M2053.548,485.02a.923.923,0,0,1-.465-.125l-116.089-67.024a.93.93,0,0,1-.465-.806V251.911a.931.931,0,0,1,1.4-.806l116.09,67.024a.929.929,0,0,1,.466.806V484.089a.931.931,0,0,1-.931.931ZM1938.39,416.528l114.227,65.949V319.471L1938.39,253.523Z" transform="translate(-1936.528 -250.979)" fill="#000102"/>
        </g>
        <g id="Grupo_139333" data-name="Grupo 139333" transform="translate(116.089 70.747)">
          <path id="Trazado_134216" data-name="Trazado 134216" d="M2218.9,411.449V576.6l4.3-2.482V408.967Z" transform="translate(-2217.969 -408.035)" fill="#000102"/>
          <path id="Trazado_134217" data-name="Trazado 134217" d="M2217.585,576.218a.931.931,0,0,1-.931-.931V410.133a.93.93,0,0,1,.465-.806l4.3-2.482a.931.931,0,0,1,1.4.806V572.805a.931.931,0,0,1-.466.806l-4.3,2.482A.925.925,0,0,1,2217.585,576.218Zm.932-165.549V573.675l2.439-1.407V409.263Z" transform="translate(-2216.654 -406.719)" fill="#000102"/>
        </g>
        <path id="Trazado_134218" data-name="Trazado 134218" d="M2016.6,387.557l-38.924-22.472V320.509l38.922,22.472Zm44.92,48.222-83.842-48.406V418.8l83.842,48.406Z" transform="translate(-1960.626 -285.489)" fill="#64b5f6"/>
        <path id="Trazado_134219" data-name="Trazado 134219" d="M2054.341,531.039a.923.923,0,0,1-.464-.125L1975.9,485.892a.931.931,0,1,1,.931-1.612l77.976,45.022a.931.931,0,0,1-.467,1.737Zm5.866-4.044a.923.923,0,0,1-.465-.125L1975.9,478.464a.931.931,0,0,1,.931-1.612l83.843,48.406a.931.931,0,0,1-.467,1.737Zm-5.867-10.817a.923.923,0,0,1-.464-.125L1975.9,471.037a.931.931,0,1,1,.931-1.612l77.976,45.017a.931.931,0,0,1-.467,1.737Zm5.868-4.043a.929.929,0,0,1-.465-.125L1975.9,463.6a.931.931,0,1,1,.931-1.612l83.843,48.406a.931.931,0,0,1-.467,1.737Zm-5.868-49.662a.927.927,0,0,1-.464-.125L1975.9,417.327a.931.931,0,0,1,.931-1.612l77.976,45.022a.931.931,0,0,1-.467,1.737Zm5.868-4.043a.925.925,0,0,1-.465-.125L1975.9,409.9a.931.931,0,1,1,.931-1.612l83.843,48.406a.931.931,0,0,1-.467,1.737Zm-5.868-10.817a.927.927,0,0,1-.464-.125l-31.529-18.206a.931.931,0,0,1,.931-1.612l31.529,18.206a.931.931,0,0,1-.467,1.737Zm5.867-4.043a.924.924,0,0,1-.465-.125l-37.4-21.59a.931.931,0,0,1,.931-1.612l37.4,21.59a.931.931,0,0,1-.467,1.737Zm-5.866-10.817a.927.927,0,0,1-.464-.124l-31.529-18.206a.931.931,0,1,1,.931-1.612l31.529,18.205a.931.931,0,0,1-.467,1.737Zm5.866-4.043a.924.924,0,0,1-.465-.125l-37.4-21.589a.931.931,0,0,1,.931-1.612l37.4,21.589a.931.931,0,0,1-.467,1.737Zm-5.866-10.817a.923.923,0,0,1-.464-.125l-31.529-18.2a.931.931,0,1,1,.931-1.612l31.529,18.2a.931.931,0,0,1-.467,1.737Zm5.866-4.043a.923.923,0,0,1-.465-.125l-37.4-21.589a.931.931,0,0,1,.931-1.613l37.4,21.59a.931.931,0,0,1-.467,1.737Zm-5.867-10.817a.923.923,0,0,1-.464-.125l-31.529-18.2a.931.931,0,1,1,.931-1.612l31.529,18.2a.931.931,0,0,1-.467,1.737Z" transform="translate(-1959.311 -322.064)" fill="#000102"/>
      </g>
      <g id="Grupo_139340" data-name="Grupo 139340" transform="translate(1930.505 340.922)">
        <g id="Grupo_139335" data-name="Grupo 139335" transform="translate(17.198)">
          <path id="Trazado_134220" data-name="Trazado 134220" d="M2467.932,727.683l-111.789-64.541V491.423l111.789,64.541Z" transform="translate(-2355.212 -490.491)" fill="#fff"/>
          <path id="Trazado_134221" data-name="Trazado 134221" d="M2466.617,727.3a.93.93,0,0,1-.466-.125l-111.788-64.541a.93.93,0,0,1-.466-.806V490.107a.931.931,0,0,1,1.4-.806l111.789,64.541a.93.93,0,0,1,.465.806V726.367a.931.931,0,0,1-.931.931Zm-110.858-66.009,109.927,63.466V555.185l-109.927-63.466Z" transform="translate(-2353.897 -489.175)" fill="#000102"/>
        </g>
        <g id="Grupo_139336" data-name="Grupo 139336" transform="translate(10.748 3.724)">
          <path id="Trazado_134222" data-name="Trazado 134222" d="M2452.369,736.668l-111.789-64.541V500.408l111.789,64.541Z" transform="translate(-2339.649 -499.476)" fill="#fff"/>
          <path id="Trazado_134223" data-name="Trazado 134223" d="M2451.053,736.283a.929.929,0,0,1-.465-.125L2338.8,671.617a.931.931,0,0,1-.465-.806V499.092a.931.931,0,0,1,1.4-.806l111.788,64.541a.929.929,0,0,1,.466.806V735.352a.931.931,0,0,1-.931.931ZM2340.2,670.274l109.927,63.466V564.17L2340.2,500.7Z" transform="translate(-2338.334 -498.16)" fill="#000102"/>
        </g>
        <g id="Grupo_139337" data-name="Grupo 139337" transform="translate(0 7.447)">
          <path id="Trazado_134224" data-name="Trazado 134224" d="M2430.731,573.934l-111.789-64.541-4.3,2.482V683.594l111.788,64.541,4.3-2.482Z" transform="translate(-2313.713 -508.461)" fill="#ba68c8"/>
          <path id="Trazado_134225" data-name="Trazado 134225" d="M2425.117,747.75a.929.929,0,0,1-.466-.125l-111.788-64.541a.93.93,0,0,1-.465-.806V510.559a.929.929,0,0,1,.465-.806l4.3-2.482a.925.925,0,0,1,.931,0l111.789,64.541a.929.929,0,0,1,.465.806V744.337a.93.93,0,0,1-.465.806l-4.3,2.482A.932.932,0,0,1,2425.117,747.75Zm-110.858-66.009,110.858,64,3.368-1.944V573.155l-110.857-64-3.369,1.944Z" transform="translate(-2312.398 -507.145)" fill="#000102"/>
        </g>
        <g id="Grupo_139338" data-name="Grupo 139338" transform="translate(0 9.929)">
          <path id="Trazado_134226" data-name="Trazado 134226" d="M2426.432,751.643,2314.644,687.1V515.383l111.788,64.541Z" transform="translate(-2313.713 -514.451)" fill="#fff"/>
          <path id="Trazado_134227" data-name="Trazado 134227" d="M2425.117,751.258a.93.93,0,0,1-.466-.125l-111.788-64.541a.93.93,0,0,1-.465-.806V514.067a.931.931,0,0,1,1.4-.806L2425.583,577.8a.93.93,0,0,1,.465.806V750.327a.931.931,0,0,1-.931.931Zm-110.858-66.009,109.927,63.466V579.145l-109.927-63.466Z" transform="translate(-2312.398 -513.135)" fill="#000102"/>
        </g>
        <g id="Grupo_139339" data-name="Grupo 139339" transform="translate(111.788 71.988)">
          <path id="Trazado_134228" data-name="Trazado 134228" d="M2584.392,667.615V839.334l4.3-2.482V665.133Z" transform="translate(-2583.461 -664.201)" fill="#000102"/>
          <path id="Trazado_134229" data-name="Trazado 134229" d="M2583.077,838.949a.931.931,0,0,1-.931-.931V666.3a.929.929,0,0,1,.465-.806l4.3-2.482a.931.931,0,0,1,1.4.806V835.536a.93.93,0,0,1-.465.806l-4.3,2.482A.929.929,0,0,1,2583.077,838.949Zm.931-172.113v169.57l2.437-1.407V665.428Z" transform="translate(-2582.146 -662.885)" fill="#000102"/>
        </g>
        <path id="Trazado_134230" data-name="Trazado 134230" d="M2432.72,726.64V676.687l-81.335-46.956v49.948Z" transform="translate(-2335.228 -571.482)" fill="#ba68c8"/>
        <path id="Trazado_134231" data-name="Trazado 134231" d="M2431.385,768.225a.92.92,0,0,1-.464-.125l-81.422-47.01a.931.931,0,0,1,.931-1.612l81.422,47.01a.931.931,0,0,1-.467,1.737Zm-8.105-12.111a.925.925,0,0,1-.464-.125l-65.21-37.647a.931.931,0,1,1,.931-1.612l65.21,37.647a.931.931,0,0,1-.467,1.737Zm8.107-2.754a.922.922,0,0,1-.464-.125l-81.423-47.01a.931.931,0,0,1,.931-1.612l81.423,47.01a.931.931,0,0,1-.467,1.737Zm-4.569-10.065a.927.927,0,0,1-.465-.125l-72.286-41.735a.931.931,0,1,1,.931-1.612l72.287,41.734a.931.931,0,0,1-.467,1.737Zm-3.538-9.469a.924.924,0,0,1-.464-.125L2357.6,696.049a.931.931,0,1,1,.931-1.612l65.213,37.652a.931.931,0,0,1-.467,1.737Zm8.105-2.749a.924.924,0,0,1-.464-.125l-81.422-47.01a.931.931,0,0,1,.931-1.612l81.422,47.01a.931.931,0,0,1-.467,1.737Zm-3.8-9.634a.921.921,0,0,1-.464-.125L2353.3,678.706a.931.931,0,0,1,.931-1.612l73.813,42.612a.931.931,0,0,1-.467,1.737Zm3.8-5.231a.92.92,0,0,1-.464-.125l-81.422-47.01a.931.931,0,0,1,.931-1.612l81.422,47.01a.931.931,0,0,1-.467,1.737Zm-16.973-89.466a.925.925,0,0,1-.465-.125l-47.475-27.408a.931.931,0,0,1,.931-1.612l47.475,27.408a.931.931,0,0,1-.466,1.737Zm8.867-2.308a.924.924,0,0,1-.464-.125L2357.6,586.66a.931.931,0,0,1,.931-1.612l65.212,37.652a.931.931,0,0,1-.467,1.737Z" transform="translate(-2333.851 -545.244)" fill="#000102"/>
      </g>
    </g>
    <g id="Grupo_139007" data-name="Grupo 139007" transform="translate(471.311 794.14) rotate(39)">
      <path id="Trazado_115415" data-name="Trazado 115415" d="M534.3,1861.316l1.91-.16a.4.4,0,0,0,.367-.426h0a.406.406,0,0,0-.247-.337l-1.768-.743a2.068,2.068,0,0,1-1.259-1.739l-.16-1.91a.4.4,0,0,0-.434-.368h0a.4.4,0,0,0-.336.244l-.744,1.768a2.065,2.065,0,0,1-1.736,1.261l-1.911.164a.4.4,0,0,0-.367.426h0a.408.408,0,0,0,.247.338l1.766.743a2.065,2.065,0,0,1,1.261,1.735l.162,1.91a.4.4,0,0,0,.434.369h0a.408.408,0,0,0,.339-.245l.741-1.766A2.069,2.069,0,0,1,534.3,1861.316Z" transform="translate(565.421 -228.107)" fill="#3d3d3d"/>
      <path id="Trazado_115416" data-name="Trazado 115416" d="M448.461,1949.482l1.062-.088a.224.224,0,0,0,.2-.252h0a.226.226,0,0,0-.128-.175l-.982-.41a1.157,1.157,0,0,1-.7-.966l-.087-1.062a.225.225,0,0,0-.252-.2h0a.226.226,0,0,0-.174.128l-.412.982a1.156,1.156,0,0,1-.965.7l-1.068.087a.228.228,0,0,0-.2.253.231.231,0,0,0,.128.177l.984.411a1.149,1.149,0,0,1,.7.964l.087,1.068a.226.226,0,0,0,.429.068l.412-.984A1.155,1.155,0,0,1,448.461,1949.482Z" transform="translate(603.672 -193.836)" fill="#3d3d3d"/>
      <path id="Trazado_115417" data-name="Trazado 115417" d="M494.8,1863.124l1.137-.095a.238.238,0,0,0,.219-.255h0a.241.241,0,0,0-.145-.2l-1.054-.442a1.226,1.226,0,0,1-.745-1.026l-.094-1.137a.239.239,0,0,0-.256-.218h0a.255.255,0,0,0-.2.144l-.442,1.052a1.224,1.224,0,0,1-1.025.745l-1.137.1a.239.239,0,0,0-.219.255v0h0a.234.234,0,0,0,.145.2l1.053.442a1.22,1.22,0,0,1,.744,1.026l.1,1.138a.238.238,0,0,0,.256.218h0a.257.257,0,0,0,.2-.145l.441-1.053A1.221,1.221,0,0,1,494.8,1863.124Z" transform="translate(557.486 -226.552)" fill="#3d3d3d"/>
      <circle id="Elipse_4783" data-name="Elipse 4783" cx="15.692" cy="15.692" r="15.692" transform="translate(1067.815 1683.44)" fill="#3a3a3a"/>
      <ellipse id="Elipse_4820" data-name="Elipse 4820" cx="14.266" cy="13.553" rx="14.266" ry="13.553" transform="translate(1066.389 1682.015)" fill="#fff"/>
      <ellipse id="Elipse_4821" data-name="Elipse 4821" cx="13.577" cy="12.864" rx="13.577" ry="12.864" transform="translate(1067.078 1682.703)" fill="none" stroke="#3a3a3a" stroke-width="1"/>
    </g>
    <g id="Grupo_139342" data-name="Grupo 139342" transform="translate(-346.258 -718.439)">
      <path id="Trazado_115035" data-name="Trazado 115035" d="M792.87,2178.786c1.255.752,1.466,1.022-.112,4.274-1.222,2.535-3.5,7.238,1.721,10.36,4.077,2.45,9.2,1.746,14.175,1.068,4.35-.591,8.463-1.151,11.114.445a2.354,2.354,0,1,0,2.55-3.957l-.128-.077c-4.078-2.45-9.206-1.746-14.175-1.068-4.351.591-8.463,1.151-11.117-.444-1.254-.75-1.465-1.021.113-4.275,1.221-2.533,3.5-7.238-1.722-10.36-4.058-2.45-9.2-1.746-14.175-1.079-4.349.589-8.477,1.149-11.128-.444-1.254-.753-1.466-1.023.112-4.277,1.222-2.532,3.5-7.237-1.7-10.36-4.08-2.449-9.221-1.746-14.19-1.065-4.349.591-8.463,1.15-11.114-.428-1.254-.753-1.466-1.031.112-4.288,1.222-2.533,3.5-7.238-1.7-10.36a13.339,13.339,0,0,0-6.771-1.7,49.4,49.4,0,0,0-7.4.645c-4.351.59-8.466,1.149-11.1-.43a2.354,2.354,0,1,0-2.548,3.96c.04.026.081.051.123.074,4.08,2.425,9.206,1.744,14.163,1.066,4.353-.591,8.478-1.162,11.129.444,1.255.751,1.465,1.031-.113,4.287-1.221,2.534-3.5,7.238,1.721,10.374,4.081,2.425,9.207,1.744,14.164,1.064,4.351-.59,8.478-1.161,11.129.444,1.253.75,1.465,1.021-.113,4.275-1.221,2.535-3.5,7.238,1.7,10.362,4.08,2.448,9.206,1.745,14.178,1.078,4.351-.59,8.463-1.149,11.114.443Z" transform="translate(187.468 1574.746)" fill="#393939"/>
      <path id="Trazado_115027" data-name="Trazado 115027" d="M706.515,2208.5l-7.8-1.848a1.619,1.619,0,0,1-1.24-1.922l.007-.03a1.682,1.682,0,0,1,1.233-1.193l7.8-1.845a8.54,8.54,0,0,0,6.356-6.156l1.907-7.546a1.7,1.7,0,0,1,2.053-1.177,1.659,1.659,0,0,1,1.228,1.177l1.91,7.546a8.533,8.533,0,0,0,6.356,6.156l7.8,1.845a1.618,1.618,0,0,1,1.24,1.922l-.007.03a1.682,1.682,0,0,1-1.233,1.193l-7.8,1.848a8.531,8.531,0,0,0-6.356,6.155l-1.91,7.548a1.691,1.691,0,0,1-2.052,1.188,1.661,1.661,0,0,1-1.229-1.187l-1.907-7.548A8.535,8.535,0,0,0,706.515,2208.5Z" transform="translate(181.738 1592.18)" fill="#3a3a3a"/>
      <ellipse id="Elipse_4818" data-name="Elipse 4818" cx="19.498" cy="18.279" rx="19.498" ry="18.279" transform="translate(992.262 3598.626)" fill="#fff"/>
      <ellipse id="Elipse_4819" data-name="Elipse 4819" cx="18.321" cy="17.102" rx="18.321" ry="17.102" transform="translate(993.439 3599.803)" fill="none" stroke="#3a3a3a" stroke-width="1"/>
      <path id="Trazado_115418" data-name="Trazado 115418" d="M513.553,2050.077l1.761-.147a.37.37,0,0,0,.336-.4h0a.371.371,0,0,0-.225-.309l-1.629-.685a1.9,1.9,0,0,1-1.162-1.6l-.147-1.761a.369.369,0,0,0-.707-.113l-.686,1.63a1.9,1.9,0,0,1-1.6,1.16l-1.761.148a.371.371,0,0,0-.336.4h0a.37.37,0,0,0,.225.309l1.629.684a1.9,1.9,0,0,1,1.161,1.6l.147,1.761a.37.37,0,0,0,.4.334.365.365,0,0,0,.309-.223l.683-1.629A1.9,1.9,0,0,1,513.553,2050.077Z" transform="translate(438.04 1578.041)" fill="#3d3d3d"/>
      <path id="Trazado_115027-2" data-name="Trazado 115027-2" d="M502.544,2018.491l-3.005-.763a.675.675,0,0,1,0-1.3l3.005-.763a3.407,3.407,0,0,0,2.451-2.545l.734-3.124a.65.65,0,0,1,.774-.495l.017,0a.666.666,0,0,1,.473.492l.736,3.124a3.405,3.405,0,0,0,2.451,2.545l3.005.763a.677.677,0,0,1,0,1.3l-3.005.763a3.409,3.409,0,0,0-2.451,2.546l-.736,3.122a.65.65,0,0,1-.773.5l-.018-.006a.661.661,0,0,1-.474-.492l-.734-3.122A3.412,3.412,0,0,0,502.544,2018.491Z" transform="translate(442.313 1657.582)" fill="#3a3a3a"/>
      <path id="Trazado_115036" data-name="Trazado 115036" d="M781.029,2222.437c4.077,2.45,9.205,1.746,14.175,1.076,4.35-.59,8.463-1.149,11.114.447,1.257.752,1.466,1.021-.112,4.276-1.222,2.533-3.5,7.238,1.721,10.361,4.08,2.448,9.206,1.744,14.175,1.076,4.353-.59,8.463-1.149,11.114.447a2.355,2.355,0,0,0,2.425-4.025c-4.08-2.448-9.205-1.744-14.175-1.077-4.351.589-8.463,1.149-11.117-.444-1.254-.752-1.465-1.022.113-4.277,1.221-2.532,3.5-7.237-1.722-10.36-4.058-2.448-9.206-1.746-14.176-1.079-4.351.591-8.477,1.149-11.128-.443-1.254-.752-1.466-1.021.112-4.276,1.222-2.533,3.5-7.238-1.7-10.361-4.08-2.448-9.221-1.744-14.191-1.066-4.351.59-8.463,1.149-11.117-.43-1.257-.75-1.465-1.031.113-4.286,1.221-2.534,3.5-7.238-1.7-10.359a13.328,13.328,0,0,0-6.765-1.713,50,50,0,0,0-7.4.649c-4.351.59-8.465,1.149-11.1-.433a2.354,2.354,0,0,0-2.425,4.035c4.08,2.425,9.206,1.746,14.163,1.064,4.353-.59,8.478-1.146,11.129.446,1.255.752,1.465,1.034-.113,4.288-1.221,2.532-3.5,7.238,1.722,10.359,4.08,2.425,9.205,1.744,14.163,1.066,4.35-.591,8.478-1.149,11.129.444,1.255.752,1.465,1.021-.113,4.275-1.221,2.534-3.5,7.238,1.7,10.362Z" transform="translate(192.579 1591.832)" fill="#fef536"/>
    </g>
  </g>
</svg>
