<svg xmlns="http://www.w3.org/2000/svg" width="251.899" height="263.269" viewBox="0 0 251.899 263.269">
  <g id="Grupo_160031" data-name="Grupo 160031" transform="translate(-414 -3903.899)">
    <g id="Grupo_80321" data-name="Grupo 80321" transform="translate(-422.36 3373.483)">
      <path id="Trazado_115208" data-name="Trazado 115208" d="M1046.785,597.359a106.859,106.859,0,0,1,19.064,45c6.754,40.278-12.3,75.136-44.563,87.759-14.318,28.59-45.147,44.616-80.217,38.027-47.479-8.918-84.757-55.9-83.263-104.938a122.788,122.788,0,0,1,15.36-54.848,102.91,102.91,0,0,1,34.941-36.847c16.677-10.5,36.174-16.154,57.948-16.8,31.245-.941,61.557,16.268,80.733,42.653Zm-17.137,100.347c.043-.746.068-1.481.092-2.2C1029.716,696.241,1029.688,696.974,1029.648,697.706Z" fill="#64b5f6"/>
      <g id="Sparkles">
        <path id="Trazado_115414" data-name="Trazado 115414" d="M940.943,733.7l1.034-.086a.211.211,0,0,0,.2-.226v-.009a.2.2,0,0,0-.131-.18l-.958-.4a1.121,1.121,0,0,1-.682-.938l-.086-1.035a.214.214,0,0,0-.228-.2h-.007a.206.206,0,0,0-.18.131l-.4.958a1.12,1.12,0,0,1-.939.682l-1.034.086a.215.215,0,0,0-.2.229v.006a.212.212,0,0,0,.131.18l.958.4a1.121,1.121,0,0,1,.682.939l.086,1.034a.213.213,0,0,0,.228.2h.006a.2.2,0,0,0,.18-.131l.4-.958A1.122,1.122,0,0,1,940.943,733.7Z" fill="#3d3d3d"/>
        <path id="Trazado_115415" data-name="Trazado 115415" d="M1046.782,574.494l1.386-.117a.289.289,0,0,0,.267-.309h0a.3.3,0,0,0-.18-.245l-1.282-.538a1.5,1.5,0,0,1-.915-1.263l-.116-1.386a.292.292,0,0,0-.315-.267h0a.291.291,0,0,0-.245.178l-.539,1.282a1.5,1.5,0,0,1-1.26.915l-1.387.119a.289.289,0,0,0-.266.31h0a.292.292,0,0,0,.178.245l1.283.539a1.5,1.5,0,0,1,.915,1.259l.117,1.387a.292.292,0,0,0,.315.267h0a.3.3,0,0,0,.246-.178l.539-1.282A1.5,1.5,0,0,1,1046.782,574.494Z" fill="#3d3d3d"/>
        <path id="Trazado_115416" data-name="Trazado 115416" d="M961.758,663.353l.772-.064a.164.164,0,0,0,.142-.182h0a.168.168,0,0,0-.093-.128l-.714-.3a.837.837,0,0,1-.509-.7l-.063-.771a.165.165,0,0,0-.184-.142h0a.161.161,0,0,0-.125.092l-.3.713a.838.838,0,0,1-.7.509l-.776.064a.164.164,0,0,0-.049.311l.714.3a.839.839,0,0,1,.509.7l.063.775a.164.164,0,0,0,.184.142.167.167,0,0,0,.127-.092l.3-.715A.839.839,0,0,1,961.758,663.353Z" fill="#3d3d3d"/>
        <path id="Trazado_115417" data-name="Trazado 115417" d="M1008.024,576.935l.826-.069a.172.172,0,0,0,.158-.185h0a.173.173,0,0,0-.1-.145l-.764-.321a.89.89,0,0,1-.542-.745l-.068-.825a.172.172,0,0,0-.186-.157h0a.186.186,0,0,0-.145.1l-.32.763a.89.89,0,0,1-.745.541l-.824.07a.173.173,0,0,0-.159.185h0a.173.173,0,0,0,.105.145l.764.32a.89.89,0,0,1,.541.745l.07.826a.171.171,0,0,0,.185.158h0a.182.182,0,0,0,.144-.1l.32-.764A.89.89,0,0,1,1008.024,576.935Z" fill="#3d3d3d"/>
        <path id="Trazado_115418" data-name="Trazado 115418" d="M1026.181,763.377l1.278-.107a.266.266,0,0,0,.243-.289h0a.267.267,0,0,0-.162-.223l-1.182-.5a1.378,1.378,0,0,1-.843-1.161l-.108-1.278a.268.268,0,0,0-.513-.082l-.5,1.183a1.385,1.385,0,0,1-1.161.843l-1.278.107a.267.267,0,0,0-.244.29h0a.268.268,0,0,0,.162.224l1.182.5a1.377,1.377,0,0,1,.843,1.159l.108,1.279a.268.268,0,0,0,.514.081l.5-1.183A1.381,1.381,0,0,1,1026.181,763.377Z" fill="#3d3d3d"/>
      </g>
      <rect id="Rectángulo_33823" data-name="Rectángulo 33823" width="231.975" height="218.298" transform="translate(836.36 759.534) rotate(-81)" fill="none"/>
    </g>
    <g id="note" transform="translate(-543.102 2931.867)">
      <path id="Trazado_134105" data-name="Trazado 134105" d="M1185.6,1094.7l-109.914,63.467-94.212-54.4,109.914-63.456,12.337,7.116-6.9,3.994a15.669,15.669,0,0,0-9.893,1.48c-3.953,2.28-3.953,5.97,0,8.251a15.761,15.761,0,0,0,14.283,0c2.676-1.551,3.781-3.862,2.574-5.717l6.9-3.984,13.9,8.018-6.913,3.994a15.217,15.217,0,0,0-9.894,1.48c-3.943,2.281-3.943,5.971,0,8.252a15.767,15.767,0,0,0,14.283,0c2.686-1.551,3.67-3.781,2.585-5.718l6.9-3.983,13.888,8.018-6.9,3.994a15.672,15.672,0,0,0-9.894,1.48c-3.943,2.281-3.943,5.97,0,8.251a15.762,15.762,0,0,0,14.283,0c2.676-1.551,3.74-3.781,2.575-5.717l6.913-3.984,13.887,8.018-6.9,3.994a15.681,15.681,0,0,0-9.893,1.48c-3.954,2.281-3.954,5.971,0,8.252a15.765,15.765,0,0,0,14.282,0c2.677-1.551,3.538-3.751,2.575-5.717l6.9-3.984Z" fill="#fff"/>
      <g id="Grupo_139266" data-name="Grupo 139266">
        <path id="Trazado_134106" data-name="Trazado 134106" d="M1173.265,1087.582l-6.9,3.984c.963,1.966.1,4.166-2.575,5.717a15.765,15.765,0,0,1-14.282,0c-3.954-2.281-3.954-5.971,0-8.252a15.681,15.681,0,0,1,9.893-1.48l6.9-3.994-13.887-8.018-6.913,3.984c1.165,1.936.1,4.166-2.575,5.717a15.762,15.762,0,0,1-14.283,0c-3.943-2.281-3.943-5.97,0-8.251a15.672,15.672,0,0,1,9.894-1.48l6.9-3.994-13.888-8.018-6.9,3.983c1.085,1.937.1,4.167-2.585,5.718a15.767,15.767,0,0,1-14.283,0c-3.943-2.281-3.943-5.971,0-8.252a15.217,15.217,0,0,1,9.894-1.48l6.913-3.994-13.9-8.018-6.9,3.984c1.207,1.855.1,4.166-2.574,5.717a15.761,15.761,0,0,1-14.283,0c-3.953-2.281-3.953-5.971,0-8.251a15.669,15.669,0,0,1,9.893-1.48l6.9-3.994-12.337-7.116L981.476,1103.77l94.212,54.4L1185.6,1094.7Z" fill="none" stroke="#373a3a" stroke-linecap="round" stroke-linejoin="round" stroke-width="3"/>
        <line id="Línea_384" data-name="Línea 384" x2="43.254" y2="24.977" transform="translate(1073.296 1080.172)" fill="none" stroke="#373a3a" stroke-linecap="round" stroke-linejoin="round" stroke-width="3"/>
        <line id="Línea_385" data-name="Línea 385" x2="43.264" y2="24.977" transform="translate(1059.986 1087.855)" fill="none" stroke="#373a3a" stroke-linecap="round" stroke-linejoin="round" stroke-width="3"/>
        <line id="Línea_386" data-name="Línea 386" x2="43.264" y2="24.977" transform="translate(1046.677 1095.539)" fill="none" stroke="#373a3a" stroke-linecap="round" stroke-linejoin="round" stroke-width="3"/>
        <line id="Línea_387" data-name="Línea 387" x2="43.254" y2="24.977" transform="translate(1033.377 1103.223)" fill="none" stroke="#373a3a" stroke-linecap="round" stroke-linejoin="round" stroke-width="3"/>
      </g>
    </g>
  </g>
</svg>
