<svg xmlns="http://www.w3.org/2000/svg" width="251.899" height="263.269" viewBox="0 0 251.899 263.269">
  <g id="Grupo_160032" data-name="Grupo 160032" transform="translate(-943.551 -4173.17)">
    <g id="Grupo_80321" data-name="Grupo 80321" transform="translate(107.191 3642.755)">
      <path id="Trazado_115208" data-name="Trazado 115208" d="M1046.785,597.359a106.859,106.859,0,0,1,19.064,45c6.754,40.278-12.3,75.136-44.563,87.759-14.318,28.59-45.147,44.616-80.217,38.027-47.479-8.918-84.757-55.9-83.263-104.938a122.788,122.788,0,0,1,15.36-54.848,102.91,102.91,0,0,1,34.941-36.847c16.677-10.5,36.174-16.154,57.948-16.8,31.245-.941,61.557,16.268,80.733,42.653Zm-17.137,100.347c.043-.746.068-1.481.092-2.2C1029.716,696.241,1029.688,696.974,1029.648,697.706Z" fill="#64b5f6"/>
      <g id="Sparkles">
        <path id="Trazado_115414" data-name="Trazado 115414" d="M940.943,733.7l1.034-.086a.211.211,0,0,0,.2-.226v-.009a.2.2,0,0,0-.131-.18l-.958-.4a1.121,1.121,0,0,1-.682-.938l-.086-1.035a.214.214,0,0,0-.228-.2h-.007a.206.206,0,0,0-.18.131l-.4.958a1.12,1.12,0,0,1-.939.682l-1.034.086a.215.215,0,0,0-.2.229v.006a.212.212,0,0,0,.131.18l.958.4a1.121,1.121,0,0,1,.682.939l.086,1.034a.213.213,0,0,0,.228.2h.006a.2.2,0,0,0,.18-.131l.4-.958A1.122,1.122,0,0,1,940.943,733.7Z" fill="#3d3d3d"/>
        <path id="Trazado_115415" data-name="Trazado 115415" d="M1046.782,574.494l1.386-.117a.289.289,0,0,0,.267-.309h0a.3.3,0,0,0-.18-.245l-1.282-.538a1.5,1.5,0,0,1-.915-1.263l-.116-1.386a.292.292,0,0,0-.315-.267h0a.291.291,0,0,0-.245.178l-.539,1.282a1.5,1.5,0,0,1-1.26.915l-1.387.119a.289.289,0,0,0-.266.31h0a.292.292,0,0,0,.178.245l1.283.539a1.5,1.5,0,0,1,.915,1.259l.117,1.387a.292.292,0,0,0,.315.267h0a.3.3,0,0,0,.246-.178l.539-1.282A1.5,1.5,0,0,1,1046.782,574.494Z" fill="#3d3d3d"/>
        <path id="Trazado_115416" data-name="Trazado 115416" d="M961.758,663.353l.772-.064a.164.164,0,0,0,.142-.182h0a.168.168,0,0,0-.093-.128l-.714-.3a.837.837,0,0,1-.509-.7l-.063-.771a.165.165,0,0,0-.184-.142h0a.161.161,0,0,0-.125.092l-.3.713a.838.838,0,0,1-.7.509l-.776.064a.164.164,0,0,0-.049.311l.714.3a.839.839,0,0,1,.509.7l.063.775a.164.164,0,0,0,.184.142.167.167,0,0,0,.127-.092l.3-.715A.839.839,0,0,1,961.758,663.353Z" fill="#3d3d3d"/>
        <path id="Trazado_115417" data-name="Trazado 115417" d="M1008.024,576.935l.826-.069a.172.172,0,0,0,.158-.185h0a.173.173,0,0,0-.1-.145l-.764-.321a.89.89,0,0,1-.542-.745l-.068-.825a.172.172,0,0,0-.186-.157h0a.186.186,0,0,0-.145.1l-.32.763a.89.89,0,0,1-.745.541l-.824.07a.173.173,0,0,0-.159.185h0a.173.173,0,0,0,.105.145l.764.32a.89.89,0,0,1,.541.745l.07.826a.171.171,0,0,0,.185.158h0a.182.182,0,0,0,.144-.1l.32-.764A.89.89,0,0,1,1008.024,576.935Z" fill="#3d3d3d"/>
        <path id="Trazado_115418" data-name="Trazado 115418" d="M1026.181,763.377l1.278-.107a.266.266,0,0,0,.243-.289h0a.267.267,0,0,0-.162-.223l-1.182-.5a1.378,1.378,0,0,1-.843-1.161l-.108-1.278a.268.268,0,0,0-.513-.082l-.5,1.183a1.385,1.385,0,0,1-1.161.843l-1.278.107a.267.267,0,0,0-.244.29h0a.268.268,0,0,0,.162.224l1.182.5a1.377,1.377,0,0,1,.843,1.159l.108,1.279a.268.268,0,0,0,.514.081l.5-1.183A1.381,1.381,0,0,1,1026.181,763.377Z" fill="#3d3d3d"/>
      </g>
      <rect id="Rectángulo_33823" data-name="Rectángulo 33823" width="231.975" height="218.298" transform="translate(836.36 759.534) rotate(-81)" fill="none"/>
    </g>
    <g id="stairs_to_success" data-name="stairs to success" transform="translate(-1403.792 2640.005)">
      <g id="Grupo_139267" data-name="Grupo 139267">
        <path id="Trazado_134107" data-name="Trazado 134107" d="M2544.423,1642.847v55.13l-71.07,41.03v-18.37l15.9-9.19v-18.37l15.92-9.19v-18.37Z" fill="#ba68c8"/>
        <path id="Trazado_134108" data-name="Trazado 134108" d="M2544.423,1642.847l-39.25,22.67-52.24-30.15,39.25-22.67Z" fill="#fff"/>
        <path id="Trazado_134109" data-name="Trazado 134109" d="M2505.173,1665.517v18.37l-52.24-30.15v-18.37Z" fill="#dae0e5"/>
        <path id="Trazado_134110" data-name="Trazado 134110" d="M2505.173,1683.887l-15.92,9.19-52.24-30.17,15.92-9.17Z" fill="#fff"/>
        <path id="Trazado_134111" data-name="Trazado 134111" d="M2489.253,1693.077v18.37l-52.24-30.15v-18.39Z" fill="#dae0e5"/>
        <path id="Trazado_134112" data-name="Trazado 134112" d="M2489.253,1711.447l-15.9,9.19-52.24-30.16,15.9-9.18Z" fill="#fff"/>
        <path id="Trazado_134113" data-name="Trazado 134113" d="M2485.033,1576.027v40.79l-32.1,18.55v18.37l-15.92,9.17v18.39l-15.9,9.18v10.78l-37.32,21.55,61.66-106.8-14.84-8.56Z" fill="#fef536"/>
        <path id="Trazado_134114" data-name="Trazado 134114" d="M2473.353,1720.637v18.37l-52.24-30.15v-18.38Z" fill="#dae0e5"/>
      </g>
      <g id="Grupo_139268" data-name="Grupo 139268">
        <path id="Trazado_134115" data-name="Trazado 134115" d="M2489.253,1711.447v-18.37l15.92-9.19v-18.37l39.25-22.67v55.13l-71.07,41.03v-18.37Z" fill="none" stroke="#373a3a" stroke-linecap="round" stroke-linejoin="round" stroke-width="3"/>
        <path id="Trazado_134116" data-name="Trazado 134116" d="M2544.423,1642.847l-52.24-30.15-39.25,22.67v18.37l-15.92,9.17v18.39l-15.9,9.18v18.38l52.24,30.15" fill="none" stroke="#373a3a" stroke-linecap="round" stroke-linejoin="round" stroke-width="3"/>
        <line id="Línea_388" data-name="Línea 388" x1="52.24" y1="30.15" transform="translate(2452.933 1635.367)" fill="none" stroke="#373a3a" stroke-linecap="round" stroke-linejoin="round" stroke-width="3"/>
        <line id="Línea_389" data-name="Línea 389" x1="52.24" y1="30.17" transform="translate(2437.013 1662.907)" fill="none" stroke="#373a3a" stroke-linecap="round" stroke-linejoin="round" stroke-width="3"/>
        <line id="Línea_390" data-name="Línea 390" x1="52.24" y1="30.16" transform="translate(2421.113 1690.477)" fill="none" stroke="#373a3a" stroke-linecap="round" stroke-linejoin="round" stroke-width="3"/>
        <line id="Línea_391" data-name="Línea 391" x1="52.24" y1="30.15" transform="translate(2437.013 1681.297)" fill="none" stroke="#373a3a" stroke-linecap="round" stroke-linejoin="round" stroke-width="3"/>
        <line id="Línea_392" data-name="Línea 392" x1="52.24" y1="30.15" transform="translate(2452.933 1653.737)" fill="none" stroke="#373a3a" stroke-linecap="round" stroke-linejoin="round" stroke-width="3"/>
        <path id="Trazado_134117" data-name="Trazado 134117" d="M2421.113,1701.257l-37.32,21.55,61.66-106.8-14.84-8.56,54.42-31.42v40.79" fill="none" stroke="#373a3a" stroke-linecap="round" stroke-linejoin="round" stroke-width="3"/>
      </g>
    </g>
  </g>
</svg>
