<svg xmlns="http://www.w3.org/2000/svg" width="136.851" height="151.3" viewBox="0 0 136.851 151.3">
  <g id="Grupo_160025" data-name="Grupo 160025" transform="translate(-180 -399.92)">
    <path id="Trazado_115208" data-name="Trazado 115208" d="M-1749.887,702.277a64.192,64.192,0,0,1,11.455,27.037c4.058,24.2-7.392,45.14-26.773,52.724-8.6,17.177-27.123,26.805-48.194,22.846-28.525-5.358-50.921-33.586-50.024-63.045a73.772,73.772,0,0,1,9.228-32.952A61.827,61.827,0,0,1-1833.2,686.75c10.019-6.307,21.732-9.705,34.814-10.1,18.771-.565,36.983,9.773,48.5,25.625Zm-10.3,60.287c.026-.448.041-.889.055-1.322C-1760.142,761.685-1760.159,762.125-1760.183,762.564Z" transform="translate(2049.307 -269.988)" fill="#64b5f6"/>
    <g id="Grupo_138969" data-name="Grupo 138969" transform="translate(205.796 413.705)">
      <path id="Trazado_133821" data-name="Trazado 133821" d="M272.5,398.835c1.324.547,2.8.773,4.095,1.37,1.158.535,1.757,2.073,2.678,2.922,1.976,1.82,4.513,2.627,6.836,3.876,2.655,1.427,4.525,3.989,7.473,4.915a5.8,5.8,0,0,0,4.944-.551,4.966,4.966,0,0,0,2.219-3.432c.665-1.319.519-2.969.566-4.4q.08-2.456.16-4.912c.214-6.607.43-13.232.389-19.844a1.823,1.823,0,0,0-1.317-1.73,2.1,2.1,0,0,0-.953,0,1.82,1.82,0,0,0-1.317,1.73c-.272,4.9-.39,9.826-.5,14.735-.056,2.422-.083,4.846-.123,7.269q-.03,1.768-.06,3.536c0,.214-.014.43-.023.647a1.9,1.9,0,0,0-2.086,1.306,2.3,2.3,0,0,0,.271,2.034,2.439,2.439,0,0,1-.662-.013c-1.566-.252-2.833-1.529-4.007-2.489a19.348,19.348,0,0,0-4.1-2.618c-1.279-.6-2.6-1.124-3.819-1.844a10.822,10.822,0,0,1-2.888-2.847,7.056,7.056,0,0,0-4.422-2.3,37.245,37.245,0,0,1-9.389-3.554c-.472-.246-1.17.293-.8.8A15.987,15.987,0,0,0,272.5,398.835Z" transform="translate(-243.799 -333.504)" fill="#d7dce0" style="mix-blend-mode: multiply;isolation: isolate"/>
      <g id="Grupo_138969-2" data-name="Grupo 138969" transform="translate(4.21 0.784)">
        <path id="Trazado_133822" data-name="Trazado 133822" d="M244.2,261.121a7.911,7.911,0,0,0,.456-2.772V211.884c0-4.335-2.654-9.392-5.916-11.274l-59.436-34.316a5.464,5.464,0,0,0-1.7-.657l-.5-.1,5.483-3.364.03-.019a2.62,2.62,0,0,1,1.4-.383,4.333,4.333,0,0,1,2.142.648l59.437,34.318c3.1,1.79,5.618,6.617,5.618,10.759v46.464c0,2.082-.653,3.676-1.791,4.374L244,261.661Z" transform="translate(-177.107 -161.775)" fill="#ba68c8"/>
      </g>
      <g id="Grupo_138970" data-name="Grupo 138970" transform="translate(48.018 20.812)">
        <line id="Línea_358" data-name="Línea 358" x2="17.099" y2="9.873" fill="#3a3a3a"/>
      </g>
      <g id="Grupo_138971" data-name="Grupo 138971" transform="translate(46.242 90.827)">
        <path id="Trazado_133823" data-name="Trazado 133823" d="M388.923,615.535l12.192,7.037,1.007,5.153-12.152,7.017Z" transform="translate(-388.923 -615.535)" fill="#3a3a3a"/>
      </g>
      <g id="Grupo_138972" data-name="Grupo 138972" transform="translate(17.496 22.496)">
        <path id="Trazado_133824" data-name="Trazado 133824" d="M278.661,319.988V293.929a.3.3,0,0,0-.181-.274c-8.219-3.476-12.607-6.059-18.044-10.622l-.005,0-.018-.015a.286.286,0,0,0-.063-.04l-1.112-.5c-5.721-2.546-10.662-4.745-15.093-7.93l-.083-.059v-3.3l37.009,21.367a.517.517,0,0,1,.191.378v28.534Z" transform="translate(-244.061 -271.192)" fill="#d7dce0"/>
      </g>
      <g id="Grupo_138973" data-name="Grupo 138973" transform="translate(23.615 79.805)">
        <path id="Trazado_133825" data-name="Trazado 133825" d="M274.895,576.861l1.91-9.126.007-.017,1.619-7.73,18.475,10.668,1.066,19.529Z" transform="translate(-274.895 -559.988)" fill="#d7dce0"/>
      </g>
      <path id="Trazado_133826" data-name="Trazado 133826" d="M203.115,177.948l-33.568-19.379a5.319,5.319,0,0,0-2.248-.744l-1.074.073a3.333,3.333,0,0,0-1.026.417l-7.124,4.372h0s0,0,0,0l-.02.014s0,0,0,0c-1.371.843-2.157,2.681-2.157,5.04v46.462c0,4.4,2.7,9.533,6.015,11.448l20.37,11.761-1.574,7.511a14.886,14.886,0,0,0-2.574,1.157l-3.887,2.246c-2.461,1.421-3.87,3.338-3.87,5.259a4.887,4.887,0,0,0,2.808,4.137L196.694,271.3a13.585,13.585,0,0,0,6.667,1.532,17.7,17.7,0,0,0,8.618-2.147l3.887-2.244c2.461-1.419,3.87-3.336,3.87-5.261a4.888,4.888,0,0,0-2.806-4.137l-1.284-.742-.357-1.83,6.052,3.495a5.138,5.138,0,0,0,2.54.758,3.4,3.4,0,0,0,1.808-.5l.034-.022.006,0,7.092-4.35.016-.01C234.209,255,235,253.17,235,250.814v-46.5c-.008-4.391-2.7-9.513-6.014-11.427l-7.183-4.147m-40.2,56.7a.176.176,0,0,0,.01-.03l1.564-7.467,18.145,10.478,1.04,19.056L179.729,254.4Zm20.745,3.572,11.8,6.808.962,4.925-11.75,6.785Zm13.561,12.416a.494.494,0,0,0,.24-.524l-.254-1.3.534.31a3.946,3.946,0,0,1,2.312,3.278c0,1.56-1.228,3.165-3.373,4.4l-3.887,2.244a16.517,16.517,0,0,1-7.5,2.019,13,13,0,0,1-6.79-1.4l-23.515-13.579a3.95,3.95,0,0,1-2.312-3.278c0-1.558,1.229-3.161,3.373-4.4l3.885-2.246a13.63,13.63,0,0,1,1.838-.873l-1.776,8.481a.5.5,0,0,0,.238.532l23.739,13.7a.068.068,0,0,0,.018.008.636.636,0,0,0,.085.036l.03.008a.448.448,0,0,0,.115.016h.028a.548.548,0,0,0,.1-.016l0,0a.493.493,0,0,0,.105-.044s.008,0,.012-.006Zm10.948-6.241c0,1.988-.605,3.514-1.661,4.183l-.028.016s0,0,0,0a3.212,3.212,0,0,1-3.332-.272l-6.977-4.026-.012-.01s-.006,0-.008,0l-12.781-7.378-.006,0L162.4,224.795c-3.044-1.756-5.519-6.507-5.519-10.589V167.744c0-2.01.615-3.542,1.689-4.2l0,0h0l.014-.008a3.219,3.219,0,0,1,3.314.282l1.381.8,58.055,33.518c3.042,1.756,5.519,6.5,5.519,10.587Zm7.148-4.385c0,2.012-.615,3.542-1.7,4.2l-4.927,3.022a8.137,8.137,0,0,0,.468-2.842V208.717c0-4.4-2.7-9.533-6.015-11.446l-58.055-33.518-1.381-.8a5.656,5.656,0,0,0-1.76-.681l5.046-3.1.034-.022a3.216,3.216,0,0,1,3.332.27l59.436,34.318c3.042,1.758,5.519,6.507,5.519,10.587Z" transform="translate(-155.891 -157.824)" fill="#3a3a3a"/>
      <path id="Trazado_133827" data-name="Trazado 133827" d="M278.41,617.877a.5.5,0,0,0,.24-.524l-.254-1.3.534.31a3.946,3.946,0,0,1,2.312,3.278c0,1.56-1.228,3.165-3.373,4.4l-3.887,2.244a16.516,16.516,0,0,1-7.5,2.019,13,13,0,0,1-6.79-1.4l-23.515-13.579a3.95,3.95,0,0,1-2.312-3.278c0-1.558,1.229-3.161,3.373-4.4l3.885-2.246a13.63,13.63,0,0,1,1.838-.873l-1.776,8.481a.5.5,0,0,0,.238.532l23.739,13.7a.069.069,0,0,0,.018.008.634.634,0,0,0,.085.036l.03.008a.447.447,0,0,0,.115.016h.028a.537.537,0,0,0,.1-.016l0,0a.493.493,0,0,0,.105-.044.033.033,0,0,0,.012-.006Z" transform="translate(-218.389 -514.279)" fill="#636363"/>
      <path id="Trazado_133828" data-name="Trazado 133828" d="M230.868,276.865c0,1.988-.605,3.514-1.661,4.183l-.028.016s0,0,0,0a3.212,3.212,0,0,1-3.332-.272l-6.977-4.026-.012-.01-.008,0-12.781-7.378-.006,0L166.41,246.478c-3.044-1.756-5.519-6.507-5.519-10.589V189.427c0-2.01.615-3.542,1.689-4.2l0,0h0l.014-.008a3.219,3.219,0,0,1,3.314.282l1.381.8,58.055,33.518c3.042,1.756,5.519,6.5,5.519,10.587Z" transform="translate(-159.899 -179.507)" fill="#fff"/>
      <path id="Trazado_133829" data-name="Trazado 133829" d="M264.111,320.2a.5.5,0,0,0,.185.036.489.489,0,0,0,.28-.085.5.5,0,0,0,.216-.411V317.3l2.3,1.314a.491.491,0,0,0,.246.065.539.539,0,0,0,.147-.022.747.747,0,0,0,.5-.758V289.216a1.283,1.283,0,0,0-.579-1.062l-37.237-21.5a.7.7,0,0,0-.754.01.5.5,0,0,0-.216.409v2.858c-.629-.482-1.252-.986-1.867-1.52a.5.5,0,0,0-.822.373v28.785a.489.489,0,0,0,.151.355c3.78,3.675,9.714,7.122,19.229,11.174A56.313,56.313,0,0,0,264.111,320.2ZM263.8,319a54.817,54.817,0,0,1-17.141-10.545V280.582c5.038,4.12,9.535,6.721,17.141,9.954Zm-33.607-51.187,36.711,21.2a.334.334,0,0,1,.091.206v28.192l-2.2-1.256V290.209a.494.494,0,0,0-.3-.456c-8.2-3.469-12.579-6.044-18.01-10.6l-.01-.006a.5.5,0,0,0-.107-.067l-1.113-.5c-5.828-2.594-10.652-4.743-15.057-7.91Zm15.474,40.11c-8.916-3.836-14.549-7.112-18.163-10.565V269.855c5.064,4.165,10.523,6.594,17.343,9.63l.82.365Z" transform="translate(-212.497 -244.975)" fill="#3a3a3a"/>
      <path id="Trazado_133830" data-name="Trazado 133830" d="M338.278,368.621a59.66,59.66,0,0,0,11.924,6.908.5.5,0,0,0,.409-.9,58.746,58.746,0,0,1-11.738-6.8.5.5,0,1,0-.6.794Z" transform="translate(-301.926 -326.076)" fill="#3a3a3a"/>
      <path id="Trazado_133831" data-name="Trazado 133831" d="M366.381,404.74a66.6,66.6,0,0,1-7.868-4.139.5.5,0,1,0-.526.841,67.679,67.679,0,0,0,7.985,4.2.5.5,0,0,0,.409-.9Z" transform="translate(-317.696 -352.365)" fill="#3a3a3a"/>
      <path id="Trazado_133832" data-name="Trazado 133832" d="M338.278,407.187A59.757,59.757,0,0,0,350.2,414.1a.5.5,0,0,0,.409-.9,58.844,58.844,0,0,1-11.738-6.8.5.5,0,0,0-.6.794Z" transform="translate(-301.926 -356.989)" fill="#3a3a3a"/>
      <path id="Trazado_133833" data-name="Trazado 133833" d="M380.074,451.192c-1.675-.76-3.149-1.48-4.509-2.2a.5.5,0,0,0-.466.875c1.379.734,2.871,1.464,4.566,2.232a.465.465,0,0,0,.2.046.5.5,0,0,0,.2-.949Z" transform="translate(-331.389 -391.163)" fill="#3a3a3a"/>
      <path id="Trazado_133834" data-name="Trazado 133834" d="M338.278,445.757a59.7,59.7,0,0,0,11.924,6.908.5.5,0,0,0,.409-.9,58.84,58.84,0,0,1-11.738-6.8.5.5,0,1,0-.6.794Z" transform="translate(-301.926 -387.905)" fill="#3a3a3a"/>
      <path id="Trazado_133835" data-name="Trazado 133835" d="M388.2,493.917c-.9-.407-1.718-.794-2.51-1.185a.5.5,0,0,0-.439.891c.8.395,1.633.786,2.54,1.2a.466.466,0,0,0,.2.046.5.5,0,0,0,.2-.949Z" transform="translate(-339.515 -426.234)" fill="#3a3a3a"/>
      <path id="Trazado_133836" data-name="Trazado 133836" d="M338.278,465.043a55.078,55.078,0,0,0,7.64,4.824.49.49,0,0,0,.232.058.5.5,0,0,0,.23-.935,54.326,54.326,0,0,1-7.507-4.739.5.5,0,1,0-.6.792Z" transform="translate(-301.926 -403.364)" fill="#3a3a3a"/>
      <path id="Trazado_133837" data-name="Trazado 133837" d="M338.278,426.475a54.955,54.955,0,0,0,5.106,3.413.5.5,0,0,0,.252.068.5.5,0,0,0,.252-.923,54.054,54.054,0,0,1-5.015-3.352.5.5,0,1,0-.6.794Z" transform="translate(-301.926 -372.448)" fill="#3a3a3a"/>
      <path id="Trazado_133838" data-name="Trazado 133838" d="M338.278,387.905c.752.564,1.482,1.085,2.228,1.591a.484.484,0,0,0,.278.087.5.5,0,0,0,.28-.907c-.734-.5-1.451-1.01-2.191-1.566a.5.5,0,1,0-.6.794Z" transform="translate(-301.926 -341.532)" fill="#3a3a3a"/>
      <path id="Trazado_133839" data-name="Trazado 133839" d="M257.128,319.768a72.176,72.176,0,0,1-11.287-6.025.5.5,0,0,0-.562.82,73.266,73.266,0,0,0,11.44,6.11.492.492,0,0,0,.2.044.5.5,0,0,0,.2-.949Z" transform="translate(-227.368 -282.733)" fill="#3a3a3a"/>
      <path id="Trazado_133840" data-name="Trazado 133840" d="M289.459,357.775c-1.312-.593-2.377-1.087-3.35-1.556a.5.5,0,0,0-.431.895c.98.47,2.052.968,3.371,1.566a.491.491,0,0,0,.2.044.5.5,0,0,0,.2-.949Z" transform="translate(-259.699 -316.812)" fill="#3a3a3a"/>
      <path id="Trazado_133841" data-name="Trazado 133841" d="M257.128,359.362a72.353,72.353,0,0,1-11.287-6.027.5.5,0,0,0-.562.819,73.1,73.1,0,0,0,11.44,6.11.5.5,0,1,0,.409-.9Z" transform="translate(-227.368 -314.47)" fill="#3a3a3a"/>
      <path id="Trazado_133842" data-name="Trazado 133842" d="M276.5,390.823c-1.98-.9-4.308-1.971-6.539-3.165a.5.5,0,0,0-.468.875c2.256,1.206,4.6,2.292,6.6,3.195a.5.5,0,1,0,.409-.9Z" transform="translate(-246.744 -342.003)" fill="#3a3a3a"/>
      <path id="Trazado_133843" data-name="Trazado 133843" d="M257.128,398.958a72.187,72.187,0,0,1-11.287-6.025.5.5,0,0,0-.562.82,73.264,73.264,0,0,0,11.44,6.11.493.493,0,0,0,.2.044.5.5,0,0,0,.2-.948Z" transform="translate(-227.368 -346.209)" fill="#3a3a3a"/>
      <path id="Trazado_133844" data-name="Trazado 133844" d="M288.877,436.687c-1.375-.621-2.484-1.137-3.493-1.623a.5.5,0,1,0-.431.893c1.014.49,2.131,1.008,3.514,1.635a.492.492,0,0,0,.2.044.5.5,0,0,0,.2-.949Z" transform="translate(-259.117 -380.01)" fill="#3a3a3a"/>
      <path id="Trazado_133845" data-name="Trazado 133845" d="M245.279,334.361a55.274,55.274,0,0,0,6.523,3.786.475.475,0,0,0,.222.054.5.5,0,0,0,.224-.939,54.447,54.447,0,0,1-6.408-3.719.5.5,0,1,0-.562.818Z" transform="translate(-227.368 -298.604)" fill="#3a3a3a"/>
      <path id="Trazado_133846" data-name="Trazado 133846" d="M251.8,416.224a53.717,53.717,0,0,1-5.961-3.491.5.5,0,1,0-.562.818,55.077,55.077,0,0,0,6.07,3.558.512.512,0,0,0,.226.054.5.5,0,0,0,.226-.939Z" transform="translate(-227.37 -362.08)" fill="#3a3a3a"/>
      <path id="Trazado_133847" data-name="Trazado 133847" d="M245.279,373.953c.861.589,1.744,1.149,2.7,1.712a.483.483,0,0,0,.252.069.5.5,0,0,0,.252-.925c-.937-.552-1.8-1.1-2.643-1.677a.5.5,0,1,0-.562.819Z" transform="translate(-227.368 -330.338)" fill="#3a3a3a"/>
    </g>
    <g id="Circles" transform="translate(180 399.92)">
      <circle id="Elipse_4731" data-name="Elipse 4731" cx="2.763" cy="2.763" r="2.763" transform="translate(0.441 55.594)" fill="#3a3a3a"/>
      <g id="Grupo_80272" data-name="Grupo 80272" transform="translate(0 56.341)">
        <circle id="Elipse_4732" data-name="Elipse 4732" cx="2.456" cy="2.456" r="2.456" transform="translate(0.309 0.309)" fill="#fff"/>
        <path id="Trazado_115031" data-name="Trazado 115031" d="M6439.029,4545.653a2.151,2.151,0,1,0-2.623-1.541,2.151,2.151,0,0,0,2.623,1.541m.154.6a2.765,2.765,0,1,1,1.981-3.374,2.765,2.765,0,0,1-1.981,3.374h0Z" transform="translate(-6435.725 -4540.807)" fill="#3a3a3a"/>
      </g>
      <circle id="Elipse_4733" data-name="Elipse 4733" cx="2.763" cy="2.763" r="2.763" transform="translate(77.093 0.824)" fill="#3a3a3a"/>
      <g id="Grupo_80273" data-name="Grupo 80273" transform="translate(77.374)">
        <circle id="Elipse_4734" data-name="Elipse 4734" cx="2.456" cy="2.456" r="2.456" transform="translate(0.308 0.31)" fill="#fff"/>
        <path id="Trazado_115032" data-name="Trazado 115032" d="M6599.252,4423.894a2.149,2.149,0,1,0,2.871,1,2.15,2.15,0,0,0-2.871-1h0m-.27-.553a2.619,2.619,0,1,1-.006,0h.006Z" transform="translate(-6597.422 -4423.064)" fill="#3a3a3a"/>
      </g>
      <circle id="Elipse_4735" data-name="Elipse 4735" cx="2.026" cy="2.026" r="2.026" transform="translate(91.398 26.835)" fill="#3a3a3a"/>
      <g id="Grupo_80274" data-name="Grupo 80274" transform="translate(91.377 26.2)">
        <circle id="Elipse_4736" data-name="Elipse 4736" cx="1.8" cy="1.8" r="1.8" transform="translate(0.226 0.224)" fill="#fff"/>
        <path id="Trazado_115033" data-name="Trazado 115033" d="M6627.562,4478.764a1.574,1.574,0,1,0,2.226-.07h0a1.573,1.573,0,0,0-2.225.07h0m-.328-.307a2.024,2.024,0,1,1,.091,2.862,2.025,2.025,0,0,1-.091-2.862Z" transform="translate(-6626.686 -4477.817)" fill="#3a3a3a"/>
      </g>
      <circle id="Elipse_4737" data-name="Elipse 4737" cx="1.879" cy="1.879" r="1.879" transform="translate(63.345 147.541)" fill="#3a3a3a"/>
      <g id="Grupo_80275" data-name="Grupo 80275" transform="translate(63.536 146.982)">
        <circle id="Elipse_4738" data-name="Elipse 4738" cx="1.672" cy="1.672" r="1.672" transform="translate(0.207 0.209)" fill="#fff"/>
        <path id="Trazado_115034" data-name="Trazado 115034" d="M6569.746,4730.794a1.463,1.463,0,1,0,1.955.678,1.463,1.463,0,0,0-1.955-.678m-.182-.376a1.88,1.88,0,1,1-.872,2.513,1.882,1.882,0,0,1,.872-2.513Z" transform="translate(-6568.504 -4730.229)" fill="#3a3a3a"/>
      </g>
      <circle id="Elipse_4739" data-name="Elipse 4739" cx="1.921" cy="1.921" r="1.921" transform="translate(32.778 5.716)" fill="#fff" stroke="#3a3a3a" stroke-linecap="round" stroke-miterlimit="10" stroke-width="1.17"/>
    </g>
    <g id="Grupo_80276" data-name="Grupo 80276" transform="translate(299.809 440.184)">
      <path id="Trazado_115035" data-name="Trazado 115035" d="M6702.128,4557.271c.157-.261.169-.331-.441-.775-.475-.346-1.354-.986-.7-2.075a4.529,4.529,0,0,1,2.5-1.589,3.863,3.863,0,0,0,2-1.173.49.49,0,1,1,.857.475c0,.009-.011.018-.015.027a4.53,4.53,0,0,1-2.5,1.588,3.872,3.872,0,0,0-2,1.174c-.158.262-.169.332.441.776.474.345,1.354.986.7,2.075a4.54,4.54,0,0,1-2.5,1.591,3.885,3.885,0,0,0-2,1.176c-.157.261-.169.332.44.775.475.346,1.355.987.706,2.072a4.53,4.53,0,0,1-2.506,1.591,3.9,3.9,0,0,0-2,1.171c-.157.262-.168.334.443.778.475.346,1.354.987.706,2.073a2.768,2.768,0,0,1-1.082.98,10.389,10.389,0,0,1-1.424.609,3.9,3.9,0,0,0-2,1.171.49.49,0,0,1-.841-.5,4.55,4.55,0,0,1,2.5-1.588,3.854,3.854,0,0,0,2-1.175c.157-.262.169-.333-.441-.777-.475-.347-1.355-.988-.7-2.078a4.543,4.543,0,0,1,2.5-1.588,3.857,3.857,0,0,0,2-1.175c.158-.261.169-.332-.441-.775-.475-.346-1.354-.987-.707-2.072a4.537,4.537,0,0,1,2.5-1.592,3.865,3.865,0,0,0,2-1.174Z" transform="translate(-6689.368 -4540.376)" fill="#fef536"/>
      <path id="Trazado_115036" data-name="Trazado 115036" d="M6694.564,4536.964a4.551,4.551,0,0,1,2.5-1.591,3.867,3.867,0,0,0,2-1.174c.158-.262.169-.332-.441-.775-.475-.346-1.354-.987-.7-2.076a4.539,4.539,0,0,1,2.5-1.591,3.868,3.868,0,0,0,2-1.174.49.49,0,0,1,.842.5,4.551,4.551,0,0,1-2.5,1.592,3.876,3.876,0,0,0-2,1.172c-.157.263-.169.333.441.776.475.346,1.354.987.7,2.075a4.537,4.537,0,0,1-2.5,1.591,3.881,3.881,0,0,0-2,1.176c-.157.261-.169.332.44.775.474.346,1.355.986.707,2.072a4.536,4.536,0,0,1-2.507,1.591,3.883,3.883,0,0,0-2,1.171c-.158.261-.169.334.441.777.475.347,1.355.986.708,2.072a2.807,2.807,0,0,1-1.082.981,10.586,10.586,0,0,1-1.425.609,3.9,3.9,0,0,0-2,1.171.489.489,0,1,1-.838-.5,4.53,4.53,0,0,1,2.5-1.587,3.883,3.883,0,0,0,2-1.176c.157-.261.167-.333-.442-.777-.475-.346-1.354-.987-.7-2.076a4.537,4.537,0,0,1,2.5-1.588,3.883,3.883,0,0,0,2-1.175c.157-.262.169-.331-.442-.775-.475-.346-1.354-.986-.706-2.072Z" transform="translate(-6687.773 -4528.358)" fill="#3a3a3a"/>
    </g>
  </g>
</svg>
